G04*
G04 #@! TF.GenerationSoftware,Altium Limited,Altium Designer,22.0.2 (36)*
G04*
G04 Layer_Color=2752767*
%FSLAX24Y24*%
%MOIN*%
G70*
G04*
G04 #@! TF.SameCoordinates,715D6FE0-56B8-48A2-B0B1-F0B29CE2C5D4*
G04*
G04*
G04 #@! TF.FilePolarity,Positive*
G04*
G01*
G75*
%ADD76C,0.0020*%
%ADD77C,0.0027*%
D76*
X47892Y25761D02*
Y25921D01*
X48052D01*
Y25761D01*
X47892D01*
Y27761D02*
Y27921D01*
X48052D01*
Y27761D01*
X47892D01*
X50117Y15686D02*
Y15846D01*
X50277D01*
Y15686D01*
X50117D01*
X44516Y39969D02*
Y40129D01*
X44676D01*
Y39969D01*
X44516D01*
Y37969D02*
Y38129D01*
X44676D01*
Y37969D01*
X44516D01*
X25717Y22509D02*
Y22669D01*
X25877D01*
Y22509D01*
X25717D01*
X23717D02*
Y22669D01*
X23877D01*
Y22509D01*
X23717D01*
X50117Y17686D02*
Y17846D01*
X50277D01*
Y17686D01*
X50117D01*
X27185Y30402D02*
X27105Y30562D01*
X27265D01*
X27185Y30402D01*
X29203Y28385D02*
X29123Y28545D01*
X29283D01*
X29203Y28385D01*
X44902Y22774D02*
X44822Y22934D01*
X44982D01*
X44902Y22774D01*
X45266Y21524D02*
X45186Y21684D01*
X45346D01*
X45266Y21524D01*
X45394Y23247D02*
X45314Y23407D01*
X45474D01*
X45394Y23247D01*
X44429Y23217D02*
X44349Y23377D01*
X44509D01*
X44429Y23217D01*
X25118Y27696D02*
X25038Y27856D01*
X25198D01*
X25118Y27696D01*
X25236Y28581D02*
X25156Y28741D01*
X25316D01*
X25236Y28581D01*
X25394Y29861D02*
X25314Y30021D01*
X25474D01*
X25394Y29861D01*
X27303Y31839D02*
X27223Y31999D01*
X27383D01*
X27303Y31839D01*
X25492Y31554D02*
X25412Y31714D01*
X25572D01*
X25492Y31554D01*
X27441Y33306D02*
X27361Y33466D01*
X27521D01*
X27441Y33306D01*
X25502Y32853D02*
X25422Y33013D01*
X25582D01*
X25502Y32853D01*
X27469Y34770D02*
X27389Y34930D01*
X27549D01*
X27469Y34770D01*
X25620Y34448D02*
X25540Y34608D01*
X25700D01*
X25620Y34448D01*
X25876Y36072D02*
X25796Y36232D01*
X25956D01*
X25876Y36072D01*
X28553Y36170D02*
X28473Y36330D01*
X28633D01*
X28553Y36170D01*
X29951Y36367D02*
X29871Y36527D01*
X30031D01*
X29951Y36367D01*
X32963Y36278D02*
X32883Y36438D01*
X33043D01*
X32963Y36278D01*
X35424Y36159D02*
X35344Y36319D01*
X35504D01*
X35424Y36159D01*
X37579Y35973D02*
X37499Y36133D01*
X37659D01*
X37579Y35973D01*
X40020Y35245D02*
X39940Y35405D01*
X40100D01*
X40020Y35245D01*
X38573Y34290D02*
X38493Y34450D01*
X38653D01*
X38573Y34290D01*
X42118Y33415D02*
X42038Y33575D01*
X42198D01*
X42118Y33415D01*
X42274Y26475D02*
X42194Y26635D01*
X42354D01*
X42274Y26475D01*
X42953Y28532D02*
X42873Y28692D01*
X43033D01*
X42953Y28532D01*
X43465Y27272D02*
X43385Y27432D01*
X43545D01*
X43465Y27272D01*
X39892Y45087D02*
X39812Y45247D01*
X39972D01*
X39892Y45087D01*
X40630Y45648D02*
X40550Y45808D01*
X40710D01*
X40630Y45648D01*
X39823Y45727D02*
X39743Y45887D01*
X39903D01*
X39823Y45727D01*
X40187Y42499D02*
X40107Y42659D01*
X40267D01*
X40187Y42499D01*
X37953Y24172D02*
X37873Y24332D01*
X38033D01*
X37953Y24172D01*
X36073Y27312D02*
X35993Y27472D01*
X36153D01*
X36073Y27312D01*
X43593Y31318D02*
X43513Y31478D01*
X43673D01*
X43593Y31318D01*
X39990Y32883D02*
X39910Y33043D01*
X40070D01*
X39990Y32883D01*
X43661Y29536D02*
X43581Y29696D01*
X43741D01*
X43661Y29536D01*
X38278Y27026D02*
X38198Y27186D01*
X38358D01*
X38278Y27026D01*
X36181Y29398D02*
X36101Y29558D01*
X36261D01*
X36181Y29398D01*
X36293Y26735D02*
X36213Y26895D01*
X36373D01*
X36293Y26735D01*
X36834D02*
X36754Y26895D01*
X36914D01*
X36834Y26735D01*
X36486Y27577D02*
X36406Y27737D01*
X36566D01*
X36486Y27577D01*
Y27981D02*
X36406Y28141D01*
X36566D01*
X36486Y27981D01*
X35659Y27715D02*
X35579Y27875D01*
X35739D01*
X35659Y27715D01*
X35344Y28257D02*
X35264Y28417D01*
X35424D01*
X35344Y28257D01*
X30394Y26180D02*
X30314Y26340D01*
X30474D01*
X30394Y26180D01*
X33071Y26229D02*
X32991Y26389D01*
X33151D01*
X33071Y26229D01*
X32539Y26131D02*
X32459Y26291D01*
X32619D01*
X32539Y26131D01*
X40925Y44477D02*
X40845Y44637D01*
X41005D01*
X40925Y44477D01*
X42126Y39428D02*
X42046Y39588D01*
X42206D01*
X42126Y39428D01*
X42579Y42814D02*
X42499Y42974D01*
X42659D01*
X42579Y42814D01*
X44360Y20343D02*
X44280Y20503D01*
X44440D01*
X44360Y20343D01*
X46102Y22174D02*
X46022Y22334D01*
X46182D01*
X46102Y22174D01*
X47552Y19998D02*
X47472Y20158D01*
X47632D01*
X47552Y19998D01*
X46902Y16937D02*
X46822Y17097D01*
X46982D01*
X46902Y16937D01*
D77*
X33790Y28000D02*
G03*
X33790Y28000I-80J0D01*
G01*
X34200Y28010D02*
G03*
X34200Y28010I-80J0D01*
G01*
X34170Y27530D02*
G03*
X34170Y27530I-80J0D01*
G01*
X33720Y27550D02*
G03*
X33720Y27550I-80J0D01*
G01*
X32460Y28520D02*
G03*
X32460Y28520I-80J0D01*
G01*
M02*
