G04*
G04 #@! TF.GenerationSoftware,Altium Limited,Altium Designer,22.10.1 (41)*
G04*
G04 Layer_Physical_Order=2*
G04 Layer_Color=16711680*
%FSLAX25Y25*%
%MOIN*%
G70*
G04*
G04 #@! TF.SameCoordinates,856B5BD7-418A-478B-963B-D84CAA773F5C*
G04*
G04*
G04 #@! TF.FilePolarity,Positive*
G04*
G01*
G75*
%ADD12C,0.01000*%
%ADD69C,0.00800*%
%ADD73R,0.07087X0.07087*%
%ADD74C,0.07087*%
%ADD75R,0.07087X0.07087*%
%ADD76C,0.02800*%
%ADD77C,0.02600*%
G36*
X531398Y474902D02*
Y131791D01*
X191732D01*
X191240Y132283D01*
X192224Y475394D01*
X530905D01*
X531398Y474902D01*
D02*
G37*
%LPC*%
G36*
X398728Y460353D02*
Y458571D01*
X400511D01*
X400178Y459374D01*
X399531Y460021D01*
X398728Y460353D01*
D02*
G37*
G36*
X397728D02*
X396925Y460021D01*
X396279Y459374D01*
X395946Y458571D01*
X397728D01*
Y460353D01*
D02*
G37*
G36*
X406799Y459566D02*
Y457784D01*
X408582D01*
X408249Y458586D01*
X407602Y459233D01*
X406799Y459566D01*
D02*
G37*
G36*
X405799D02*
X404996Y459233D01*
X404349Y458586D01*
X404017Y457784D01*
X405799D01*
Y459566D01*
D02*
G37*
G36*
X400511Y457571D02*
X398728D01*
Y455789D01*
X399531Y456121D01*
X400178Y456768D01*
X400511Y457571D01*
D02*
G37*
G36*
X397728D02*
X395946D01*
X396279Y456768D01*
X396925Y456121D01*
X397728Y455789D01*
Y457571D01*
D02*
G37*
G36*
X408582Y456783D02*
X406799D01*
Y455001D01*
X407602Y455334D01*
X408249Y455981D01*
X408582Y456783D01*
D02*
G37*
G36*
X405799D02*
X404017D01*
X404349Y455981D01*
X404996Y455334D01*
X405799Y455001D01*
Y456783D01*
D02*
G37*
G36*
X399417Y453956D02*
Y452173D01*
X401200D01*
X400867Y452976D01*
X400220Y453623D01*
X399417Y453956D01*
D02*
G37*
G36*
X398417D02*
X397615Y453623D01*
X396968Y452976D01*
X396635Y452173D01*
X398417D01*
Y453956D01*
D02*
G37*
G36*
X401200Y451173D02*
X399417D01*
Y449391D01*
X400220Y449723D01*
X400867Y450370D01*
X401200Y451173D01*
D02*
G37*
G36*
X398417D02*
X396635D01*
X396968Y450370D01*
X397615Y449723D01*
X398417Y449391D01*
Y451173D01*
D02*
G37*
G36*
X409650Y447571D02*
X408854D01*
X408119Y447266D01*
X407556Y446704D01*
X407252Y445969D01*
Y445301D01*
X401005Y439054D01*
X400740Y438657D01*
X400647Y438189D01*
Y427392D01*
X400175Y426920D01*
X399870Y426185D01*
Y425390D01*
X400175Y424654D01*
X400737Y424092D01*
X401472Y423787D01*
X402268D01*
X403003Y424092D01*
X403566Y424654D01*
X403870Y425390D01*
Y426185D01*
X403566Y426920D01*
X403094Y427392D01*
Y437682D01*
X408982Y443571D01*
X409650D01*
X410385Y443875D01*
X410948Y444438D01*
X411252Y445173D01*
Y445969D01*
X410948Y446704D01*
X410385Y447266D01*
X409650Y447571D01*
D02*
G37*
G36*
X446523Y404735D02*
X445406D01*
X444327Y404446D01*
X443359Y403888D01*
X442569Y403098D01*
X442010Y402130D01*
X441721Y401051D01*
Y399934D01*
X442010Y398854D01*
X442569Y397887D01*
X443359Y397097D01*
X444327Y396538D01*
X445406Y396249D01*
X446523D01*
X447602Y396538D01*
X448570Y397097D01*
X449360Y397887D01*
X449919Y398854D01*
X450208Y399934D01*
Y401051D01*
X449919Y402130D01*
X449360Y403098D01*
X448570Y403888D01*
X447602Y404446D01*
X446523Y404735D01*
D02*
G37*
G36*
X426185Y430937D02*
X425390D01*
X424654Y430632D01*
X424092Y430070D01*
X423787Y429335D01*
Y428539D01*
X424092Y427804D01*
X424564Y427332D01*
Y400113D01*
X421529Y397079D01*
X420862D01*
X420127Y396774D01*
X419564Y396212D01*
X419260Y395477D01*
Y394681D01*
X419564Y393946D01*
X420127Y393383D01*
X420862Y393079D01*
X421658D01*
X422393Y393383D01*
X422955Y393946D01*
X423260Y394681D01*
Y395349D01*
X426652Y398741D01*
X426918Y399138D01*
X427011Y399606D01*
Y427332D01*
X427483Y427804D01*
X427787Y428539D01*
Y429335D01*
X427483Y430070D01*
X426920Y430632D01*
X426185Y430937D01*
D02*
G37*
G36*
X450208Y384735D02*
X441721D01*
Y376249D01*
X450208D01*
Y384735D01*
D02*
G37*
G36*
X300008Y366751D02*
Y364968D01*
X301790D01*
X301458Y365771D01*
X300811Y366418D01*
X300008Y366751D01*
D02*
G37*
G36*
X299008D02*
X298205Y366418D01*
X297558Y365771D01*
X297225Y364968D01*
X299008D01*
Y366751D01*
D02*
G37*
G36*
X330126Y365865D02*
Y364083D01*
X331908D01*
X331576Y364885D01*
X330929Y365532D01*
X330126Y365865D01*
D02*
G37*
G36*
X329126D02*
X328323Y365532D01*
X327676Y364885D01*
X327344Y364083D01*
X329126D01*
Y365865D01*
D02*
G37*
G36*
X286032Y364782D02*
Y363000D01*
X287814D01*
X287481Y363803D01*
X286834Y364450D01*
X286032Y364782D01*
D02*
G37*
G36*
X285032D02*
X284229Y364450D01*
X283582Y363803D01*
X283249Y363000D01*
X285032D01*
Y364782D01*
D02*
G37*
G36*
X354740Y364676D02*
Y362894D01*
X356523D01*
X356190Y363697D01*
X355543Y364344D01*
X354740Y364676D01*
D02*
G37*
G36*
X353740D02*
X352937Y364344D01*
X352290Y363697D01*
X351958Y362894D01*
X353740D01*
Y364676D01*
D02*
G37*
G36*
X301790Y363968D02*
X300008D01*
Y362186D01*
X300811Y362519D01*
X301458Y363166D01*
X301790Y363968D01*
D02*
G37*
G36*
X299008D02*
X297225D01*
X297558Y363166D01*
X298205Y362519D01*
X299008Y362186D01*
Y363968D01*
D02*
G37*
G36*
X259260Y363798D02*
Y362016D01*
X261042D01*
X260710Y362819D01*
X260063Y363466D01*
X259260Y363798D01*
D02*
G37*
G36*
X258260D02*
X257457Y363466D01*
X256810Y362819D01*
X256477Y362016D01*
X258260D01*
Y363798D01*
D02*
G37*
G36*
X331908Y363083D02*
X330126D01*
Y361300D01*
X330929Y361633D01*
X331576Y362280D01*
X331908Y363083D01*
D02*
G37*
G36*
X329126D02*
X327344D01*
X327676Y362280D01*
X328323Y361633D01*
X329126Y361300D01*
Y363083D01*
D02*
G37*
G36*
X376287Y362814D02*
Y361032D01*
X378070D01*
X377737Y361834D01*
X377090Y362481D01*
X376287Y362814D01*
D02*
G37*
G36*
X375287D02*
X374484Y362481D01*
X373838Y361834D01*
X373505Y361032D01*
X375287D01*
Y362814D01*
D02*
G37*
G36*
X287814Y362000D02*
X286032D01*
Y360218D01*
X286834Y360550D01*
X287481Y361197D01*
X287814Y362000D01*
D02*
G37*
G36*
X285032D02*
X283249D01*
X283582Y361197D01*
X284229Y360550D01*
X285032Y360218D01*
Y362000D01*
D02*
G37*
G36*
X356523Y361894D02*
X354740D01*
Y360111D01*
X355543Y360444D01*
X356190Y361091D01*
X356523Y361894D01*
D02*
G37*
G36*
X353740D02*
X351958D01*
X352290Y361091D01*
X352937Y360444D01*
X353740Y360111D01*
Y361894D01*
D02*
G37*
G36*
X261042Y361016D02*
X259260D01*
Y359233D01*
X260063Y359566D01*
X260710Y360213D01*
X261042Y361016D01*
D02*
G37*
G36*
X258260D02*
X256477D01*
X256810Y360213D01*
X257457Y359566D01*
X258260Y359233D01*
Y361016D01*
D02*
G37*
G36*
X378070Y360032D02*
X376287D01*
Y358249D01*
X377090Y358582D01*
X377737Y359229D01*
X378070Y360032D01*
D02*
G37*
G36*
X375287D02*
X373505D01*
X373838Y359229D01*
X374484Y358582D01*
X375287Y358249D01*
Y360032D01*
D02*
G37*
G36*
X400697Y355530D02*
Y353748D01*
X402479D01*
X402147Y354551D01*
X401500Y355198D01*
X400697Y355530D01*
D02*
G37*
G36*
X399697D02*
X398894Y355198D01*
X398247Y354551D01*
X397914Y353748D01*
X399697D01*
Y355530D01*
D02*
G37*
G36*
X402479Y352748D02*
X400697D01*
Y350966D01*
X401500Y351298D01*
X402147Y351945D01*
X402479Y352748D01*
D02*
G37*
G36*
X399697D02*
X397914D01*
X398247Y351945D01*
X398894Y351298D01*
X399697Y350966D01*
Y352748D01*
D02*
G37*
G36*
X275186Y350783D02*
Y349000D01*
X276969D01*
X276636Y349803D01*
X275989Y350450D01*
X275186Y350783D01*
D02*
G37*
G36*
X274186D02*
X273383Y350450D01*
X272736Y349803D01*
X272404Y349000D01*
X274186D01*
Y350783D01*
D02*
G37*
G36*
X276969Y348000D02*
X275186D01*
Y346218D01*
X275989Y346550D01*
X276636Y347197D01*
X276969Y348000D01*
D02*
G37*
G36*
X274186D02*
X272404D01*
X272736Y347197D01*
X273383Y346550D01*
X274186Y346218D01*
Y348000D01*
D02*
G37*
G36*
X256701Y347558D02*
Y345776D01*
X258483D01*
X258151Y346578D01*
X257504Y347225D01*
X256701Y347558D01*
D02*
G37*
G36*
X255701D02*
X254898Y347225D01*
X254251Y346578D01*
X253918Y345776D01*
X255701D01*
Y347558D01*
D02*
G37*
G36*
X386228Y345983D02*
Y344201D01*
X388011D01*
X387678Y345004D01*
X387031Y345651D01*
X386228Y345983D01*
D02*
G37*
G36*
X385228D02*
X384425Y345651D01*
X383779Y345004D01*
X383446Y344201D01*
X385228D01*
Y345983D01*
D02*
G37*
G36*
X258483Y344776D02*
X256701D01*
Y342993D01*
X257504Y343326D01*
X258151Y343973D01*
X258483Y344776D01*
D02*
G37*
G36*
X255701D02*
X253918D01*
X254251Y343973D01*
X254898Y343326D01*
X255701Y342993D01*
Y344776D01*
D02*
G37*
G36*
X388011Y343201D02*
X386228D01*
Y341418D01*
X387031Y341751D01*
X387678Y342398D01*
X388011Y343201D01*
D02*
G37*
G36*
X385228D02*
X383446D01*
X383779Y342398D01*
X384425Y341751D01*
X385228Y341418D01*
Y343201D01*
D02*
G37*
G36*
X421680Y337231D02*
Y335449D01*
X423462D01*
X423130Y336252D01*
X422483Y336899D01*
X421680Y337231D01*
D02*
G37*
G36*
X420680D02*
X419877Y336899D01*
X419230Y336252D01*
X418898Y335449D01*
X420680D01*
Y337231D01*
D02*
G37*
G36*
X274909Y336141D02*
Y334358D01*
X276692D01*
X276359Y335161D01*
X275712Y335808D01*
X274909Y336141D01*
D02*
G37*
G36*
X273909D02*
X273107Y335808D01*
X272460Y335161D01*
X272127Y334358D01*
X273909D01*
Y336141D01*
D02*
G37*
G36*
X423462Y334449D02*
X421680D01*
Y332666D01*
X422483Y332999D01*
X423130Y333646D01*
X423462Y334449D01*
D02*
G37*
G36*
X420680D02*
X418898D01*
X419230Y333646D01*
X419877Y332999D01*
X420680Y332666D01*
Y334449D01*
D02*
G37*
G36*
X276692Y333358D02*
X274909D01*
Y331576D01*
X275712Y331908D01*
X276359Y332555D01*
X276692Y333358D01*
D02*
G37*
G36*
X273909D02*
X272127D01*
X272460Y332555D01*
X273107Y331908D01*
X273909Y331576D01*
Y333358D01*
D02*
G37*
G36*
X400402Y331908D02*
Y330126D01*
X402184D01*
X401851Y330929D01*
X401204Y331576D01*
X400402Y331908D01*
D02*
G37*
G36*
X399402D02*
X398599Y331576D01*
X397952Y330929D01*
X397619Y330126D01*
X399402D01*
Y331908D01*
D02*
G37*
G36*
X255520Y331613D02*
Y329831D01*
X257302D01*
X256969Y330634D01*
X256323Y331281D01*
X255520Y331613D01*
D02*
G37*
G36*
X254520D02*
X253717Y331281D01*
X253070Y330634D01*
X252737Y329831D01*
X254520D01*
Y331613D01*
D02*
G37*
G36*
X402184Y329126D02*
X400402D01*
Y327344D01*
X401204Y327676D01*
X401851Y328323D01*
X402184Y329126D01*
D02*
G37*
G36*
X399402D02*
X397619D01*
X397952Y328323D01*
X398599Y327676D01*
X399402Y327344D01*
Y329126D01*
D02*
G37*
G36*
X257302Y328831D02*
X255520D01*
Y327048D01*
X256323Y327381D01*
X256969Y328028D01*
X257302Y328831D01*
D02*
G37*
G36*
X254520D02*
X252737D01*
X253070Y328028D01*
X253717Y327381D01*
X254520Y327048D01*
Y328831D01*
D02*
G37*
G36*
X273532Y321475D02*
Y319693D01*
X275314D01*
X274981Y320496D01*
X274334Y321143D01*
X273532Y321475D01*
D02*
G37*
G36*
X272532D02*
X271729Y321143D01*
X271082Y320496D01*
X270749Y319693D01*
X272532D01*
Y321475D01*
D02*
G37*
G36*
X275314Y318693D02*
X273532D01*
Y316911D01*
X274334Y317243D01*
X274981Y317890D01*
X275314Y318693D01*
D02*
G37*
G36*
X272532D02*
X270749D01*
X271082Y317890D01*
X271729Y317243D01*
X272532Y316911D01*
Y318693D01*
D02*
G37*
G36*
X255421Y318621D02*
Y316839D01*
X257204D01*
X256871Y317641D01*
X256224Y318288D01*
X255421Y318621D01*
D02*
G37*
G36*
X254421D02*
X253618Y318288D01*
X252971Y317641D01*
X252639Y316839D01*
X254421D01*
Y318621D01*
D02*
G37*
G36*
X436425Y316259D02*
Y314476D01*
X438208D01*
X437875Y315279D01*
X437228Y315926D01*
X436425Y316259D01*
D02*
G37*
G36*
X435425D02*
X434622Y315926D01*
X433975Y315279D01*
X433643Y314476D01*
X435425D01*
Y316259D01*
D02*
G37*
G36*
X257204Y315839D02*
X255421D01*
Y314056D01*
X256224Y314389D01*
X256871Y315036D01*
X257204Y315839D01*
D02*
G37*
G36*
X254421D02*
X252639D01*
X252971Y315036D01*
X253618Y314389D01*
X254421Y314056D01*
Y315839D01*
D02*
G37*
G36*
X438208Y313476D02*
X436425D01*
Y311694D01*
X437228Y312027D01*
X437875Y312673D01*
X438208Y313476D01*
D02*
G37*
G36*
X435425D02*
X433643D01*
X433975Y312673D01*
X434622Y312027D01*
X435425Y311694D01*
Y313476D01*
D02*
G37*
G36*
X272350Y307105D02*
Y305323D01*
X274133D01*
X273800Y306126D01*
X273153Y306773D01*
X272350Y307105D01*
D02*
G37*
G36*
X271350D02*
X270548Y306773D01*
X269900Y306126D01*
X269568Y305323D01*
X271350D01*
Y307105D01*
D02*
G37*
G36*
X274133Y304323D02*
X272350D01*
Y302540D01*
X273153Y302873D01*
X273800Y303520D01*
X274133Y304323D01*
D02*
G37*
G36*
X271350D02*
X269568D01*
X269900Y303520D01*
X270548Y302873D01*
X271350Y302540D01*
Y304323D01*
D02*
G37*
G36*
X254437Y301692D02*
Y299909D01*
X256219D01*
X255887Y300712D01*
X255240Y301359D01*
X254437Y301692D01*
D02*
G37*
G36*
X253437D02*
X252634Y301359D01*
X251987Y300712D01*
X251655Y299909D01*
X253437D01*
Y301692D01*
D02*
G37*
G36*
X256219Y298909D02*
X254437D01*
Y297127D01*
X255240Y297460D01*
X255887Y298107D01*
X256219Y298909D01*
D02*
G37*
G36*
X253437D02*
X251655D01*
X251987Y298107D01*
X252634Y297460D01*
X253437Y297127D01*
Y298909D01*
D02*
G37*
G36*
X437114Y298444D02*
Y296661D01*
X438897D01*
X438564Y297464D01*
X437917Y298111D01*
X437114Y298444D01*
D02*
G37*
G36*
X436114D02*
X435311Y298111D01*
X434664Y297464D01*
X434332Y296661D01*
X436114D01*
Y298444D01*
D02*
G37*
G36*
X438897Y295661D02*
X437114D01*
Y293879D01*
X437917Y294212D01*
X438564Y294859D01*
X438897Y295661D01*
D02*
G37*
G36*
X436114D02*
X434332D01*
X434664Y294859D01*
X435311Y294212D01*
X436114Y293879D01*
Y295661D01*
D02*
G37*
G36*
X252862Y288897D02*
Y287114D01*
X254645D01*
X254312Y287917D01*
X253665Y288564D01*
X252862Y288897D01*
D02*
G37*
G36*
X251862D02*
X251059Y288564D01*
X250412Y287917D01*
X250080Y287114D01*
X251862D01*
Y288897D01*
D02*
G37*
G36*
X430028Y288404D02*
Y286622D01*
X431810D01*
X431477Y287425D01*
X430830Y288072D01*
X430028Y288404D01*
D02*
G37*
G36*
X429028D02*
X428225Y288072D01*
X427578Y287425D01*
X427245Y286622D01*
X429028D01*
Y288404D01*
D02*
G37*
G36*
X324300Y287482D02*
Y285700D01*
X326082D01*
X325750Y286503D01*
X325103Y287150D01*
X324300Y287482D01*
D02*
G37*
G36*
X323300D02*
X322497Y287150D01*
X321850Y286503D01*
X321518Y285700D01*
X323300D01*
Y287482D01*
D02*
G37*
G36*
X292528Y286928D02*
Y285146D01*
X294310D01*
X293977Y285948D01*
X293330Y286596D01*
X292528Y286928D01*
D02*
G37*
G36*
X291528D02*
X290725Y286596D01*
X290078Y285948D01*
X289745Y285146D01*
X291528D01*
Y286928D01*
D02*
G37*
G36*
X254645Y286114D02*
X252862D01*
Y284332D01*
X253665Y284664D01*
X254312Y285311D01*
X254645Y286114D01*
D02*
G37*
G36*
X251862D02*
X250080D01*
X250412Y285311D01*
X251059Y284664D01*
X251862Y284332D01*
Y286114D01*
D02*
G37*
G36*
X353945Y285648D02*
Y283866D01*
X355727D01*
X355395Y284669D01*
X354748Y285316D01*
X353945Y285648D01*
D02*
G37*
G36*
X352945D02*
X352142Y285316D01*
X351495Y284669D01*
X351163Y283866D01*
X352945D01*
Y285648D01*
D02*
G37*
G36*
X431810Y285622D02*
X430028D01*
Y283840D01*
X430830Y284172D01*
X431477Y284819D01*
X431810Y285622D01*
D02*
G37*
G36*
X429028D02*
X427245D01*
X427578Y284819D01*
X428225Y284172D01*
X429028Y283840D01*
Y285622D01*
D02*
G37*
G36*
X326082Y284700D02*
X324300D01*
Y282918D01*
X325103Y283250D01*
X325750Y283897D01*
X326082Y284700D01*
D02*
G37*
G36*
X323300D02*
X321518D01*
X321850Y283897D01*
X322497Y283250D01*
X323300Y282918D01*
Y284700D01*
D02*
G37*
G36*
X294310Y284146D02*
X292528D01*
Y282363D01*
X293330Y282696D01*
X293977Y283343D01*
X294310Y284146D01*
D02*
G37*
G36*
X291528D02*
X289745D01*
X290078Y283343D01*
X290725Y282696D01*
X291528Y282363D01*
Y284146D01*
D02*
G37*
G36*
X355727Y282866D02*
X353945D01*
Y281084D01*
X354748Y281416D01*
X355395Y282063D01*
X355727Y282866D01*
D02*
G37*
G36*
X352945D02*
X351163D01*
X351495Y282063D01*
X352142Y281416D01*
X352945Y281084D01*
Y282866D01*
D02*
G37*
G36*
X480323Y282949D02*
X480224D01*
Y278906D01*
X484268D01*
Y279004D01*
X483958Y280159D01*
X483360Y281195D01*
X482514Y282041D01*
X481478Y282639D01*
X480323Y282949D01*
D02*
G37*
G36*
X479224D02*
X479126D01*
X477971Y282639D01*
X476935Y282041D01*
X476089Y281195D01*
X475491Y280159D01*
X475181Y279004D01*
Y278906D01*
X479224D01*
Y282949D01*
D02*
G37*
G36*
X357095Y280235D02*
Y278453D01*
X358877D01*
X358544Y279256D01*
X357897Y279903D01*
X357095Y280235D01*
D02*
G37*
G36*
X356095D02*
X355292Y279903D01*
X354645Y279256D01*
X354312Y278453D01*
X356095D01*
Y280235D01*
D02*
G37*
G36*
X251681Y280038D02*
Y278256D01*
X253464D01*
X253131Y279059D01*
X252484Y279706D01*
X251681Y280038D01*
D02*
G37*
G36*
X250681D02*
X249878Y279706D01*
X249231Y279059D01*
X248899Y278256D01*
X250681D01*
Y280038D01*
D02*
G37*
G36*
X358877Y277453D02*
X357095D01*
Y275670D01*
X357897Y276003D01*
X358544Y276650D01*
X358877Y277453D01*
D02*
G37*
G36*
X356095D02*
X354312D01*
X354645Y276650D01*
X355292Y276003D01*
X356095Y275670D01*
Y277453D01*
D02*
G37*
G36*
X253464Y277256D02*
X251681D01*
Y275473D01*
X252484Y275806D01*
X253131Y276453D01*
X253464Y277256D01*
D02*
G37*
G36*
X250681D02*
X248899D01*
X249231Y276453D01*
X249878Y275806D01*
X250681Y275473D01*
Y277256D01*
D02*
G37*
G36*
X435146Y275806D02*
Y274024D01*
X436928D01*
X436595Y274827D01*
X435949Y275473D01*
X435146Y275806D01*
D02*
G37*
G36*
X434146D02*
X433343Y275473D01*
X432696Y274827D01*
X432363Y274024D01*
X434146D01*
Y275806D01*
D02*
G37*
G36*
X484268Y277906D02*
X480224D01*
Y273862D01*
X480323D01*
X481478Y274172D01*
X482514Y274770D01*
X483360Y275616D01*
X483958Y276652D01*
X484268Y277807D01*
Y277906D01*
D02*
G37*
G36*
X479224D02*
X475181D01*
Y277807D01*
X475491Y276652D01*
X476089Y275616D01*
X476935Y274770D01*
X477971Y274172D01*
X479126Y273862D01*
X479224D01*
Y277906D01*
D02*
G37*
G36*
X341796Y282258D02*
X340960D01*
X340188Y281938D01*
X339598Y281347D01*
X339278Y280575D01*
Y279740D01*
X339598Y278968D01*
X340188Y278377D01*
X340669Y278178D01*
Y277637D01*
X340188Y277438D01*
X339598Y276847D01*
X339278Y276075D01*
Y275240D01*
X339598Y274468D01*
X340188Y273877D01*
X340960Y273557D01*
X341796D01*
X342567Y273877D01*
X343158Y274468D01*
X343478Y275240D01*
Y276075D01*
X343158Y276847D01*
X342567Y277438D01*
X342087Y277637D01*
Y278178D01*
X342567Y278377D01*
X343158Y278968D01*
X343478Y279740D01*
Y280575D01*
X343158Y281347D01*
X342567Y281938D01*
X341796Y282258D01*
D02*
G37*
G36*
X336796D02*
X335960D01*
X335188Y281938D01*
X334598Y281347D01*
X334278Y280575D01*
Y279740D01*
X334598Y278968D01*
X335188Y278377D01*
X335669Y278178D01*
Y277637D01*
X335188Y277438D01*
X334598Y276847D01*
X334278Y276075D01*
Y275240D01*
X334598Y274468D01*
X335188Y273877D01*
X335960Y273557D01*
X336796D01*
X337567Y273877D01*
X338158Y274468D01*
X338478Y275240D01*
Y276075D01*
X338158Y276847D01*
X337567Y277438D01*
X337087Y277637D01*
Y278178D01*
X337567Y278377D01*
X338158Y278968D01*
X338478Y279740D01*
Y280575D01*
X338158Y281347D01*
X337567Y281938D01*
X336796Y282258D01*
D02*
G37*
G36*
X436928Y273024D02*
X435146D01*
Y271241D01*
X435949Y271574D01*
X436595Y272221D01*
X436928Y273024D01*
D02*
G37*
G36*
X434146D02*
X432363D01*
X432696Y272221D01*
X433343Y271574D01*
X434146Y271241D01*
Y273024D01*
D02*
G37*
G36*
X362209Y296783D02*
X361413D01*
X360678Y296479D01*
X360116Y295916D01*
X359811Y295181D01*
Y294386D01*
X360116Y293651D01*
X360678Y293088D01*
X360921Y292987D01*
Y291796D01*
X360921Y291796D01*
X361006Y291367D01*
X361249Y291003D01*
X380780Y271472D01*
X380776Y271461D01*
Y270665D01*
X381080Y269930D01*
X381643Y269368D01*
X382378Y269063D01*
X383173D01*
X383909Y269368D01*
X384471Y269930D01*
X384776Y270665D01*
Y271461D01*
X384471Y272196D01*
X383909Y272759D01*
X383173Y273063D01*
X382378D01*
X382366Y273058D01*
X363164Y292261D01*
Y293308D01*
X363507Y293651D01*
X363811Y294386D01*
Y295181D01*
X363507Y295916D01*
X362944Y296479D01*
X362209Y296783D01*
D02*
G37*
G36*
X365260Y282610D02*
X364464D01*
X363729Y282306D01*
X363167Y281743D01*
X362862Y281008D01*
Y280212D01*
X363167Y279477D01*
X363729Y278915D01*
X363854Y278863D01*
Y278322D01*
X363729Y278270D01*
X363167Y277708D01*
X362862Y276973D01*
Y276177D01*
X363167Y275442D01*
X363729Y274879D01*
X363741Y274875D01*
Y270549D01*
X363336Y270145D01*
X363325Y270149D01*
X362529D01*
X361794Y269845D01*
X361232Y269282D01*
X360927Y268547D01*
Y267752D01*
X361232Y267017D01*
X361794Y266454D01*
X362529Y266149D01*
X363325D01*
X364060Y266454D01*
X364623Y267017D01*
X364927Y267752D01*
Y268547D01*
X364922Y268559D01*
X365655Y269291D01*
X365655Y269291D01*
X365898Y269655D01*
X365984Y270084D01*
X365984Y270085D01*
Y274875D01*
X365995Y274879D01*
X366558Y275442D01*
X366719Y275831D01*
X367219Y275732D01*
Y269850D01*
X367208Y269845D01*
X366645Y269282D01*
X366340Y268547D01*
Y267752D01*
X366645Y267017D01*
X367208Y266454D01*
X367943Y266149D01*
X368738D01*
X369474Y266454D01*
X370036Y267017D01*
X370340Y267752D01*
Y268547D01*
X370036Y269282D01*
X369474Y269845D01*
X369462Y269850D01*
Y277132D01*
X369462Y277132D01*
X369377Y277561D01*
X369134Y277925D01*
X366858Y280201D01*
X366862Y280212D01*
Y281008D01*
X366558Y281743D01*
X365995Y282306D01*
X365260Y282610D01*
D02*
G37*
G36*
X423236Y267834D02*
Y266051D01*
X425019D01*
X424686Y266854D01*
X424039Y267501D01*
X423236Y267834D01*
D02*
G37*
G36*
X422236D02*
X421433Y267501D01*
X420786Y266854D01*
X420454Y266051D01*
X422236D01*
Y267834D01*
D02*
G37*
G36*
X331209Y265373D02*
Y263591D01*
X332991D01*
X332659Y264393D01*
X332012Y265040D01*
X331209Y265373D01*
D02*
G37*
G36*
X330209D02*
X329406Y265040D01*
X328759Y264393D01*
X328426Y263591D01*
X330209D01*
Y265373D01*
D02*
G37*
G36*
X425019Y265051D02*
X423236D01*
Y263269D01*
X424039Y263601D01*
X424686Y264248D01*
X425019Y265051D01*
D02*
G37*
G36*
X422236D02*
X420454D01*
X420786Y264248D01*
X421433Y263601D01*
X422236Y263269D01*
Y265051D01*
D02*
G37*
G36*
X304437Y264881D02*
Y263098D01*
X306219D01*
X305887Y263901D01*
X305240Y264548D01*
X304437Y264881D01*
D02*
G37*
G36*
X303437D02*
X302634Y264548D01*
X301987Y263901D01*
X301655Y263098D01*
X303437D01*
Y264881D01*
D02*
G37*
G36*
X325894Y264389D02*
Y262606D01*
X327676D01*
X327344Y263409D01*
X326696Y264056D01*
X325894Y264389D01*
D02*
G37*
G36*
X324894D02*
X324091Y264056D01*
X323444Y263409D01*
X323111Y262606D01*
X324894D01*
Y264389D01*
D02*
G37*
G36*
X332991Y262591D02*
X331209D01*
Y260808D01*
X332012Y261141D01*
X332659Y261788D01*
X332991Y262591D01*
D02*
G37*
G36*
X330209D02*
X328426D01*
X328759Y261788D01*
X329406Y261141D01*
X330209Y260808D01*
Y262591D01*
D02*
G37*
G36*
X306219Y262098D02*
X304437D01*
Y260316D01*
X305240Y260649D01*
X305887Y261296D01*
X306219Y262098D01*
D02*
G37*
G36*
X303437D02*
X301655D01*
X301987Y261296D01*
X302634Y260649D01*
X303437Y260316D01*
Y262098D01*
D02*
G37*
G36*
X327676Y261606D02*
X325894D01*
Y259824D01*
X326696Y260156D01*
X327344Y260804D01*
X327676Y261606D01*
D02*
G37*
G36*
X324894D02*
X323111D01*
X323444Y260804D01*
X324091Y260156D01*
X324894Y259824D01*
Y261606D01*
D02*
G37*
G36*
X483968Y262649D02*
X475481D01*
Y254162D01*
X483968D01*
Y262649D01*
D02*
G37*
G36*
X361126Y275917D02*
X360331D01*
X359595Y275613D01*
X359033Y275050D01*
X358728Y274315D01*
Y273519D01*
X359033Y272784D01*
X359586Y272231D01*
X358508Y271153D01*
X358265Y270789D01*
X358179Y270360D01*
X358179Y270360D01*
Y268806D01*
X356884Y267511D01*
X356641Y267147D01*
X356556Y266718D01*
X356556Y266718D01*
Y247910D01*
X356556Y247910D01*
X356641Y247480D01*
X356884Y247116D01*
X357353Y246648D01*
X357353Y246648D01*
X357717Y246405D01*
X358146Y246319D01*
X378276D01*
X378406Y246189D01*
Y244220D01*
X378395Y244215D01*
X377832Y243653D01*
X377528Y242917D01*
Y242122D01*
X377832Y241387D01*
X378395Y240824D01*
X379130Y240520D01*
X379925D01*
X380661Y240824D01*
X381223Y241387D01*
X381528Y242122D01*
Y242917D01*
X381223Y243653D01*
X380661Y244215D01*
X380649Y244220D01*
Y246654D01*
X380564Y247083D01*
X380321Y247447D01*
X380321Y247447D01*
X379533Y248234D01*
X379169Y248477D01*
X378740Y248563D01*
X378740Y248563D01*
X358799D01*
Y266253D01*
X360094Y267548D01*
X360337Y267912D01*
X360422Y268341D01*
X360422Y268342D01*
Y269896D01*
X361521Y270995D01*
X361521Y270995D01*
X361765Y271358D01*
X361850Y271788D01*
X361850Y271788D01*
Y272217D01*
X361861Y272222D01*
X362424Y272784D01*
X362728Y273519D01*
Y274315D01*
X362424Y275050D01*
X361861Y275613D01*
X361126Y275917D01*
D02*
G37*
G36*
X454437Y235550D02*
Y233768D01*
X456219D01*
X455887Y234571D01*
X455240Y235218D01*
X454437Y235550D01*
D02*
G37*
G36*
X453437D02*
X452634Y235218D01*
X451987Y234571D01*
X451655Y233768D01*
X453437D01*
Y235550D01*
D02*
G37*
G36*
X444791Y235255D02*
Y233472D01*
X446574D01*
X446241Y234275D01*
X445594Y234922D01*
X444791Y235255D01*
D02*
G37*
G36*
X443791D02*
X442988Y234922D01*
X442342Y234275D01*
X442009Y233472D01*
X443791D01*
Y235255D01*
D02*
G37*
G36*
X456219Y232768D02*
X454437D01*
Y230985D01*
X455240Y231318D01*
X455887Y231965D01*
X456219Y232768D01*
D02*
G37*
G36*
X453437D02*
X451655D01*
X451987Y231965D01*
X452634Y231318D01*
X453437Y230985D01*
Y232768D01*
D02*
G37*
G36*
X446574Y232472D02*
X444791D01*
Y230690D01*
X445594Y231023D01*
X446241Y231670D01*
X446574Y232472D01*
D02*
G37*
G36*
X443791D02*
X442009D01*
X442342Y231670D01*
X442988Y231023D01*
X443791Y230690D01*
Y232472D01*
D02*
G37*
G36*
X449516Y230826D02*
Y229043D01*
X451298D01*
X450966Y229846D01*
X450319Y230493D01*
X449516Y230826D01*
D02*
G37*
G36*
X448516D02*
X447713Y230493D01*
X447066Y229846D01*
X446733Y229043D01*
X448516D01*
Y230826D01*
D02*
G37*
G36*
X242516Y230429D02*
X238472D01*
Y226386D01*
X242516D01*
Y230429D01*
D02*
G37*
G36*
X237472D02*
X233429D01*
Y226386D01*
X237472D01*
Y230429D01*
D02*
G37*
G36*
X451298Y228043D02*
X449516D01*
Y226261D01*
X450319Y226593D01*
X450966Y227240D01*
X451298Y228043D01*
D02*
G37*
G36*
X448516D02*
X446733D01*
X447066Y227240D01*
X447713Y226593D01*
X448516Y226261D01*
Y228043D01*
D02*
G37*
G36*
X258531Y230129D02*
X257414D01*
X256335Y229840D01*
X255367Y229281D01*
X254577Y228491D01*
X254018Y227524D01*
X253729Y226445D01*
Y225327D01*
X254018Y224248D01*
X254577Y223280D01*
X255367Y222490D01*
X256335Y221932D01*
X257414Y221642D01*
X258531D01*
X259610Y221932D01*
X260578Y222490D01*
X261368Y223280D01*
X261927Y224248D01*
X262216Y225327D01*
Y226445D01*
X261927Y227524D01*
X261368Y228491D01*
X260578Y229281D01*
X259610Y229840D01*
X258531Y230129D01*
D02*
G37*
G36*
X242516Y225386D02*
X238472D01*
Y221342D01*
X242516D01*
Y225386D01*
D02*
G37*
G36*
X237472D02*
X233429D01*
Y221342D01*
X237472D01*
Y225386D01*
D02*
G37*
G36*
X461421Y224539D02*
X460626D01*
X459891Y224235D01*
X459419Y223763D01*
X444188D01*
X443720Y223670D01*
X443323Y223405D01*
X442737Y222819D01*
X442472Y222422D01*
X442379Y221954D01*
Y205837D01*
X441907Y205365D01*
X441602Y204630D01*
Y203835D01*
X441907Y203099D01*
X442469Y202537D01*
X443204Y202232D01*
X444000D01*
X444735Y202537D01*
X445298Y203099D01*
X445602Y203835D01*
Y204630D01*
X445298Y205365D01*
X444826Y205837D01*
Y221316D01*
X459419D01*
X459891Y220844D01*
X460626Y220539D01*
X461421D01*
X462156Y220844D01*
X462719Y221407D01*
X463024Y222142D01*
Y222937D01*
X462719Y223672D01*
X462156Y224235D01*
X461421Y224539D01*
D02*
G37*
G36*
X453158Y218326D02*
Y216543D01*
X454940D01*
X454607Y217346D01*
X453960Y217993D01*
X453158Y218326D01*
D02*
G37*
G36*
X452157D02*
X451355Y217993D01*
X450708Y217346D01*
X450375Y216543D01*
X452157D01*
Y218326D01*
D02*
G37*
G36*
X454940Y215543D02*
X453158D01*
Y213761D01*
X453960Y214093D01*
X454607Y214740D01*
X454940Y215543D01*
D02*
G37*
G36*
X452157D02*
X450375D01*
X450708Y214740D01*
X451355Y214093D01*
X452157Y213761D01*
Y215543D01*
D02*
G37*
G36*
X502527Y181901D02*
X501410D01*
X500331Y181612D01*
X499363Y181053D01*
X498573Y180263D01*
X498014Y179295D01*
X497725Y178216D01*
Y177099D01*
X498014Y176020D01*
X498573Y175052D01*
X499363Y174262D01*
X500331Y173703D01*
X501410Y173414D01*
X502527D01*
X503606Y173703D01*
X504574Y174262D01*
X505364Y175052D01*
X505923Y176020D01*
X506212Y177099D01*
Y178216D01*
X505923Y179295D01*
X505364Y180263D01*
X504574Y181053D01*
X503606Y181612D01*
X502527Y181901D01*
D02*
G37*
G36*
X475914Y202779D02*
X475118D01*
X474383Y202475D01*
X473821Y201912D01*
X473516Y201177D01*
Y200381D01*
X473821Y199646D01*
X474293Y199174D01*
Y171393D01*
X470625D01*
X470153Y171865D01*
X469418Y172169D01*
X468622D01*
X467887Y171865D01*
X467325Y171302D01*
X467020Y170567D01*
Y169771D01*
X467325Y169036D01*
X467887Y168473D01*
X468622Y168169D01*
X469418D01*
X470153Y168473D01*
X470625Y168946D01*
X474930D01*
X475399Y169039D01*
X475796Y169304D01*
X476381Y169890D01*
X476647Y170287D01*
X476740Y170755D01*
Y199174D01*
X477212Y199646D01*
X477516Y200381D01*
Y201177D01*
X477212Y201912D01*
X476649Y202475D01*
X475914Y202779D01*
D02*
G37*
G36*
X506212Y161901D02*
X497725D01*
Y153414D01*
X506212D01*
Y161901D01*
D02*
G37*
%LPD*%
D12*
X401870Y438189D02*
X409252Y445571D01*
X401870Y425787D02*
Y438189D01*
X421260Y395079D02*
X425787Y399606D01*
Y428937D01*
X474930Y170169D02*
X475516Y170755D01*
Y200779D01*
X469020Y170169D02*
X474930D01*
X443602Y204232D02*
Y221954D01*
X444188Y222539D02*
X461024D01*
X443602Y221954D02*
X444188Y222539D01*
D69*
X360728Y271788D02*
Y273917D01*
X359301Y268341D02*
Y270360D01*
X360728Y271788D01*
X357677Y266718D02*
X359301Y268341D01*
X378740Y247441D02*
X379528Y246654D01*
Y242520D02*
Y246654D01*
X357677Y247910D02*
X358146Y247441D01*
X378740D01*
X357677Y247910D02*
Y266718D01*
X362042Y291796D02*
Y294552D01*
X361811Y294783D02*
X362042Y294552D01*
Y291796D02*
X382776Y271063D01*
X364862Y270084D02*
Y276575D01*
X362927Y268149D02*
X364862Y270084D01*
X368340Y268149D02*
Y277132D01*
X364862Y280610D02*
X368340Y277132D01*
D73*
X479724Y258405D02*
D03*
X501968Y157658D02*
D03*
X445965Y380492D02*
D03*
D74*
X479724Y278405D02*
D03*
X445965Y400492D02*
D03*
X257972Y225886D02*
D03*
X501968Y177657D02*
D03*
D75*
X237972Y225886D02*
D03*
D76*
X336378Y280157D02*
D03*
X341378D02*
D03*
X336378Y275658D02*
D03*
X341378D02*
D03*
D77*
X323800Y285200D02*
D03*
X271850Y304823D02*
D03*
X292028Y284646D02*
D03*
X449016Y228543D02*
D03*
X452658Y216043D02*
D03*
X453937Y233268D02*
D03*
X444291Y232972D02*
D03*
X251181Y277756D02*
D03*
X252362Y286614D02*
D03*
X253937Y299410D02*
D03*
X273031Y319193D02*
D03*
X254921Y316339D02*
D03*
X274410Y333858D02*
D03*
X255020Y329331D02*
D03*
X274686Y348500D02*
D03*
X256201Y345276D02*
D03*
X258760Y361516D02*
D03*
X285531Y362500D02*
D03*
X299508Y364469D02*
D03*
X329626Y363583D02*
D03*
X354240Y362394D02*
D03*
X375787Y360531D02*
D03*
X400197Y353248D02*
D03*
X385728Y343701D02*
D03*
X421180Y334949D02*
D03*
X422736Y265551D02*
D03*
X429528Y286122D02*
D03*
X434646Y273524D02*
D03*
X398917Y451673D02*
D03*
X406299Y457283D02*
D03*
X398228Y458071D02*
D03*
X401870Y425787D02*
D03*
X379528Y242520D02*
D03*
X360728Y273917D02*
D03*
X435925Y313976D02*
D03*
X399902Y329626D02*
D03*
X436614Y296161D02*
D03*
X382776Y271063D02*
D03*
X361811Y294783D02*
D03*
X362927Y268149D02*
D03*
X368340D02*
D03*
X364862Y276575D02*
D03*
Y280610D02*
D03*
X356594Y277953D02*
D03*
X353445Y283366D02*
D03*
X303937Y262598D02*
D03*
X330709Y263090D02*
D03*
X325394Y262106D02*
D03*
X409252Y445571D02*
D03*
X421260Y395079D02*
D03*
X425787Y428937D02*
D03*
X443602Y204232D02*
D03*
X461024Y222539D02*
D03*
X475516Y200779D02*
D03*
X469020Y170169D02*
D03*
M02*
