G04*
G04 #@! TF.GenerationSoftware,Altium Limited,Altium Designer,22.0.2 (36)*
G04*
G04 Layer_Physical_Order=1*
G04 Layer_Color=255*
%FSLAX24Y24*%
%MOIN*%
G70*
G04*
G04 #@! TF.SameCoordinates,715D6FE0-56B8-48A2-B0B1-F0B29CE2C5D4*
G04*
G04*
G04 #@! TF.FilePolarity,Positive*
G04*
G01*
G75*
%ADD12C,0.0100*%
%ADD15R,0.0965X0.0965*%
%ADD16R,0.0236X0.0098*%
%ADD17R,0.0098X0.0236*%
%ADD18R,0.0669X0.0787*%
%ADD19R,0.1181X0.2165*%
%ADD20R,0.0374X0.0669*%
%ADD21R,0.0669X0.0374*%
%ADD22R,0.0354X0.0728*%
%ADD23R,0.0728X0.0354*%
%ADD24R,0.0512X0.1102*%
%ADD25R,0.0709X0.0295*%
%ADD26R,0.0828X0.1105*%
%ADD27R,0.0669X0.0394*%
%ADD28R,0.0610X0.1378*%
%ADD29R,0.1102X0.0512*%
%ADD30R,0.0866X0.0591*%
%ADD31R,0.0512X0.0354*%
%ADD32R,0.0354X0.0748*%
%ADD33R,0.0433X0.0236*%
%ADD34R,0.0554X0.0615*%
%ADD35R,0.0576X0.0494*%
%ADD36R,0.0536X0.0455*%
%ADD37R,0.0531X0.0374*%
%ADD38R,0.0500X0.0300*%
%ADD39R,0.1000X0.1051*%
%ADD40R,0.1051X0.1000*%
%ADD41R,0.0300X0.0500*%
%ADD42R,0.0236X0.0236*%
%ADD68C,0.0080*%
%ADD69C,0.0150*%
%ADD70C,0.0200*%
%ADD71C,0.0120*%
%ADD72R,0.0709X0.0709*%
%ADD73C,0.0709*%
%ADD74R,0.0709X0.0709*%
%ADD75C,0.0260*%
G36*
X38799Y44925D02*
Y42175D01*
X37815D01*
X37805Y42185D01*
Y39055D01*
X34575D01*
X34537Y39085D01*
Y44892D01*
X38764Y44960D01*
X38799Y44925D01*
D02*
G37*
G36*
X43061Y46024D02*
Y45335D01*
X40984D01*
X39951Y44430D01*
Y43543D01*
X41535D01*
Y42185D01*
X42313D01*
Y41152D01*
X42012D01*
Y41505D01*
X41635D01*
Y41555D01*
X41585D01*
Y41963D01*
X41258D01*
X41220Y41994D01*
Y43091D01*
X41163D01*
Y43218D01*
X40530D01*
Y43091D01*
X39843D01*
Y42461D01*
X39833Y42451D01*
X38986D01*
Y44931D01*
X39350D01*
Y46112D01*
X43061D01*
Y46024D01*
D02*
G37*
G36*
X41161Y29321D02*
X39577D01*
X39498Y29242D01*
Y28494D01*
X37451D01*
Y28552D01*
X37409Y28536D01*
X37293Y28652D01*
X35059D01*
Y29045D01*
X37451Y29094D01*
Y30856D01*
X41161D01*
Y29321D01*
D02*
G37*
G36*
X38652Y27372D02*
X38740Y27283D01*
X39744D01*
Y27099D01*
X39558D01*
Y26447D01*
Y25794D01*
X39744D01*
Y25640D01*
X38071D01*
Y26890D01*
X37667Y27293D01*
Y28423D01*
X37859D01*
Y28298D01*
X38209D01*
X38559D01*
Y28423D01*
X38652D01*
Y27372D01*
D02*
G37*
G36*
X37569Y26634D02*
Y25474D01*
X37596Y25502D01*
X38425Y25492D01*
X40236Y23681D01*
X41585D01*
Y23691D01*
X43032Y23711D01*
X43110Y23632D01*
Y16890D01*
X39242D01*
Y21378D01*
X41555D01*
X41585Y21407D01*
Y22776D01*
X40118D01*
X37835Y25059D01*
X37569D01*
Y23956D01*
X37561Y23909D01*
X37393D01*
Y23691D01*
X37343D01*
Y23641D01*
X37124D01*
Y23484D01*
X35942D01*
X35908Y23520D01*
X35908Y23534D01*
X35943Y23561D01*
X35956Y23561D01*
X36170D01*
Y24026D01*
Y24490D01*
X35956D01*
X35943Y24490D01*
X35906Y24519D01*
Y26604D01*
X34104D01*
Y26800D01*
X34132D01*
Y27018D01*
X34232D01*
Y26800D01*
X34328D01*
Y27018D01*
X34378D01*
Y27068D01*
X34528D01*
Y27156D01*
X37047D01*
X37569Y26634D01*
D02*
G37*
G36*
X44557Y33346D02*
Y26998D01*
X43099Y25540D01*
X40159D01*
Y25794D01*
X40442D01*
Y26447D01*
Y27099D01*
X40159D01*
Y27380D01*
X39931Y27608D01*
Y28848D01*
X41319D01*
X42362Y29892D01*
Y31831D01*
X39085D01*
X35463Y35453D01*
X29055D01*
Y31996D01*
X29009Y31976D01*
X27663Y33322D01*
X27669Y33336D01*
X27491D01*
Y33158D01*
X27505Y33163D01*
X29055Y31613D01*
Y30984D01*
X29045Y30974D01*
Y29528D01*
X27362D01*
X25699Y27864D01*
Y27050D01*
X25375D01*
Y26398D01*
Y25745D01*
X25699D01*
Y25679D01*
X24524D01*
X24479Y25725D01*
X24606Y36909D01*
X40994D01*
X44557Y33346D01*
D02*
G37*
G36*
X29478Y27205D02*
X29705Y26978D01*
Y25915D01*
X29026D01*
X28386Y25276D01*
X26063D01*
Y25745D01*
X26259D01*
Y26398D01*
Y27050D01*
X26063D01*
Y27179D01*
X26098Y27214D01*
X29478Y27205D01*
D02*
G37*
G36*
X33641Y26800D02*
X33691D01*
Y26526D01*
X33415D01*
Y25787D01*
X34380D01*
X34478Y25689D01*
Y24685D01*
X35394D01*
X35689Y24390D01*
Y23455D01*
X35679Y23445D01*
X34291D01*
Y23809D01*
X33462Y24639D01*
X33477Y24675D01*
X33425D01*
X33415Y24685D01*
Y25030D01*
X32156D01*
Y26417D01*
X33494Y26752D01*
Y26800D01*
X33541D01*
Y27018D01*
X33641D01*
Y26800D01*
D02*
G37*
G36*
X32907Y27325D02*
X33140D01*
Y27275D01*
X33190D01*
Y27126D01*
X33245D01*
Y26800D01*
X33198Y26791D01*
X32352D01*
X31496Y25935D01*
X31496Y22815D01*
X30315D01*
Y22892D01*
X30668D01*
Y23386D01*
Y23880D01*
X30315D01*
X30315Y24463D01*
X30507D01*
Y24813D01*
Y25163D01*
X30315D01*
Y25384D01*
X32265Y27334D01*
X32886Y27346D01*
X32907Y27325D01*
D02*
G37*
G36*
X32389Y24868D02*
X32390Y24861D01*
Y24637D01*
X32854D01*
Y24587D01*
X32904D01*
Y24309D01*
X33307D01*
Y23356D01*
X33465Y23199D01*
X37380D01*
Y23072D01*
X37817D01*
Y23199D01*
X38051D01*
Y22136D01*
X34124D01*
X32776Y20787D01*
X30217D01*
Y22067D01*
X32018D01*
X32018Y24567D01*
X32337Y24886D01*
X32389Y24868D01*
D02*
G37*
G36*
X45856Y23671D02*
Y20709D01*
X45838Y20691D01*
X45739D01*
Y20522D01*
X46006D01*
Y20669D01*
X46378D01*
Y19390D01*
X46388Y19380D01*
X47037D01*
Y18130D01*
X46053D01*
Y18293D01*
X46369D01*
Y18701D01*
Y19108D01*
X46053D01*
Y20325D01*
X46006D01*
Y20422D01*
X45372D01*
Y20325D01*
X45187D01*
Y21270D01*
X43278D01*
Y21327D01*
X43315Y21357D01*
X43328Y21357D01*
X43543D01*
Y21831D01*
Y22305D01*
X43328D01*
X43315Y22305D01*
X43278Y22334D01*
Y22529D01*
X43306Y22567D01*
X43328Y22567D01*
X43533D01*
Y23041D01*
Y23515D01*
X43328D01*
X43306Y23515D01*
X43278Y23554D01*
Y23646D01*
X43313Y23681D01*
X45856Y23671D01*
D02*
G37*
%LPC*%
G36*
X38545Y44834D02*
X38318D01*
Y44410D01*
X38545D01*
Y44834D01*
D02*
G37*
G36*
X38218D02*
X37991D01*
Y44410D01*
X38218D01*
Y44834D01*
D02*
G37*
G36*
X38545Y44310D02*
X38318D01*
Y43886D01*
X38545D01*
Y44310D01*
D02*
G37*
G36*
X38218D02*
X37991D01*
Y43886D01*
X38218D01*
Y44310D01*
D02*
G37*
G36*
X38565Y43555D02*
X38337D01*
Y43131D01*
X38565D01*
Y43555D01*
D02*
G37*
G36*
X38237D02*
X38010D01*
Y43131D01*
X38237D01*
Y43555D01*
D02*
G37*
G36*
X38565Y43031D02*
X38337D01*
Y42607D01*
X38565D01*
Y43031D01*
D02*
G37*
G36*
X38237D02*
X38010D01*
Y42607D01*
X38237D01*
Y43031D01*
D02*
G37*
G36*
X36468Y41704D02*
X35828D01*
Y40572D01*
X36468D01*
Y41704D01*
D02*
G37*
G36*
X35728D02*
X35087D01*
Y40572D01*
X35728D01*
Y41704D01*
D02*
G37*
G36*
X36468Y40472D02*
X35828D01*
Y39339D01*
X36468D01*
Y40472D01*
D02*
G37*
G36*
X35728D02*
X35087D01*
Y39339D01*
X35728D01*
Y40472D01*
D02*
G37*
G36*
X39873Y46035D02*
Y45857D01*
X40051D01*
X40018Y45937D01*
X39953Y46002D01*
X39873Y46035D01*
D02*
G37*
G36*
X39773D02*
X39693Y46002D01*
X39628Y45937D01*
X39595Y45857D01*
X39773D01*
Y46035D01*
D02*
G37*
G36*
X40680Y45957D02*
Y45778D01*
X40858D01*
X40825Y45859D01*
X40760Y45923D01*
X40680Y45957D01*
D02*
G37*
G36*
X40580D02*
X40500Y45923D01*
X40435Y45859D01*
X40402Y45778D01*
X40580D01*
Y45957D01*
D02*
G37*
G36*
X40051Y45757D02*
X39873D01*
Y45579D01*
X39953Y45612D01*
X40018Y45677D01*
X40051Y45757D01*
D02*
G37*
G36*
X39773D02*
X39595D01*
X39628Y45677D01*
X39693Y45612D01*
X39773Y45579D01*
Y45757D01*
D02*
G37*
G36*
X40858Y45678D02*
X40680D01*
Y45500D01*
X40760Y45533D01*
X40825Y45598D01*
X40834Y45620D01*
X40858Y45678D01*
D02*
G37*
G36*
X40580D02*
X40402D01*
X40435Y45598D01*
X40500Y45533D01*
X40580Y45500D01*
Y45678D01*
D02*
G37*
G36*
X39942Y45396D02*
Y45217D01*
X40120D01*
X40087Y45298D01*
X40022Y45362D01*
X39942Y45396D01*
D02*
G37*
G36*
X39842D02*
X39761Y45362D01*
X39697Y45298D01*
X39663Y45217D01*
X39842D01*
Y45396D01*
D02*
G37*
G36*
X40120Y45117D02*
X39942D01*
Y44939D01*
X40022Y44972D01*
X40087Y45037D01*
X40120Y45117D01*
D02*
G37*
G36*
X39842D02*
X39663D01*
X39697Y45037D01*
X39761Y44972D01*
X39842Y44939D01*
Y45117D01*
D02*
G37*
G36*
X39608Y44834D02*
X39381D01*
Y44410D01*
X39608D01*
Y44834D01*
D01*
D02*
G37*
G36*
X39281D02*
X39054D01*
Y44410D01*
X39281D01*
Y44834D01*
D02*
G37*
G36*
X39608Y44310D02*
X39381D01*
Y43886D01*
X39608D01*
Y44310D01*
D02*
G37*
G36*
X39281D02*
X39054D01*
Y43886D01*
X39281D01*
Y44310D01*
D02*
G37*
G36*
X41163Y43486D02*
X40896D01*
Y43318D01*
X41163D01*
Y43486D01*
D02*
G37*
G36*
X40796D02*
X40530D01*
Y43318D01*
X40796D01*
Y43486D01*
D02*
G37*
G36*
X39628Y43555D02*
X39400D01*
Y43131D01*
X39628D01*
Y43555D01*
D02*
G37*
G36*
X39300D02*
X39073D01*
Y43131D01*
X39300D01*
Y43555D01*
D02*
G37*
G36*
X39628Y43031D02*
X39400D01*
Y42607D01*
X39628D01*
Y43031D01*
D02*
G37*
G36*
X39300D02*
X39073D01*
Y42607D01*
X39300D01*
Y43031D01*
D02*
G37*
G36*
X41685Y41963D02*
Y41605D01*
X42012D01*
Y41963D01*
X41685D01*
D02*
G37*
G36*
X40966Y30691D02*
X40581D01*
Y30247D01*
X40966D01*
Y30691D01*
D02*
G37*
G36*
X40482D02*
X40097D01*
Y30247D01*
X40482D01*
Y30691D01*
D02*
G37*
G36*
X40966Y30147D02*
X40581D01*
Y29703D01*
X40966D01*
Y30147D01*
D02*
G37*
G36*
X40482D02*
X40097D01*
Y29703D01*
X40482D01*
Y30147D01*
D02*
G37*
G36*
X38809Y29799D02*
X38259D01*
Y29223D01*
X38809D01*
Y29799D01*
D02*
G37*
G36*
X38159D02*
X37609D01*
Y29223D01*
X38159D01*
Y29799D01*
D02*
G37*
G36*
X38809Y29123D02*
X38259D01*
Y28548D01*
X38809D01*
Y29123D01*
D02*
G37*
G36*
X38159D02*
X37609D01*
Y28548D01*
X38159D01*
Y29123D01*
D02*
G37*
G36*
X38559Y28198D02*
X38259D01*
Y27998D01*
X38559D01*
Y28198D01*
D02*
G37*
G36*
X38159D02*
X37859D01*
Y27998D01*
X38159D01*
Y28198D01*
D02*
G37*
G36*
X38328Y27335D02*
Y27156D01*
X38506D01*
X38473Y27237D01*
X38408Y27301D01*
X38328Y27335D01*
D02*
G37*
G36*
X38228D02*
X38147Y27301D01*
X38083Y27237D01*
X38049Y27156D01*
X38228D01*
Y27335D01*
D02*
G37*
G36*
X38506Y27056D02*
X38328D01*
Y26878D01*
X38408Y26911D01*
X38473Y26976D01*
X38506Y27056D01*
D02*
G37*
G36*
X38228D02*
X38049D01*
X38083Y26976D01*
X38147Y26911D01*
X38228Y26878D01*
Y27056D01*
D02*
G37*
G36*
X39458Y27099D02*
X38994D01*
Y26497D01*
X39458D01*
Y27099D01*
D02*
G37*
G36*
Y26397D02*
X38994D01*
Y25794D01*
X39458D01*
Y26397D01*
D02*
G37*
G36*
X36884Y27043D02*
Y26865D01*
X37062D01*
X37029Y26945D01*
X36964Y27010D01*
X36884Y27043D01*
D02*
G37*
G36*
X36784D02*
X36704Y27010D01*
X36639Y26945D01*
X36606Y26865D01*
X36784D01*
Y27043D01*
D02*
G37*
G36*
X36343D02*
Y26865D01*
X36521D01*
X36488Y26945D01*
X36423Y27010D01*
X36343Y27043D01*
D02*
G37*
G36*
X36243D02*
X36162Y27010D01*
X36098Y26945D01*
X36064Y26865D01*
X36243D01*
Y27043D01*
D02*
G37*
G36*
X34528Y26968D02*
X34428D01*
Y26800D01*
X34528D01*
Y26968D01*
D02*
G37*
G36*
X37062Y26765D02*
X36884D01*
Y26587D01*
X36964Y26620D01*
X37029Y26685D01*
X37062Y26765D01*
D02*
G37*
G36*
X36784D02*
X36606D01*
X36639Y26685D01*
X36704Y26620D01*
X36784Y26587D01*
Y26765D01*
D02*
G37*
G36*
X36521D02*
X36343D01*
Y26587D01*
X36423Y26620D01*
X36488Y26685D01*
X36521Y26765D01*
D02*
G37*
G36*
X36243D02*
X36064D01*
X36098Y26685D01*
X36162Y26620D01*
X36243Y26587D01*
Y26765D01*
D02*
G37*
G36*
X37157Y26271D02*
X36851D01*
Y25670D01*
X37157D01*
Y26271D01*
D02*
G37*
G36*
X36751D02*
X36445D01*
Y25670D01*
X36751D01*
Y26271D01*
D02*
G37*
G36*
X37157Y25570D02*
X36851D01*
Y24969D01*
X37157D01*
Y25570D01*
D02*
G37*
G36*
X36751D02*
X36445D01*
Y24969D01*
X36751D01*
Y25570D01*
D02*
G37*
G36*
X36270Y24490D02*
Y24076D01*
X36498D01*
Y24490D01*
X36270D01*
D02*
G37*
G36*
X37293Y23909D02*
X37124D01*
Y23741D01*
X37293D01*
Y23909D01*
D02*
G37*
G36*
X36498Y23976D02*
X36270D01*
Y23561D01*
X36498D01*
Y23976D01*
D02*
G37*
G36*
X42797Y23515D02*
X42570D01*
Y23091D01*
X42797D01*
Y23515D01*
D02*
G37*
G36*
X42470D02*
X42243D01*
Y23091D01*
X42470D01*
Y23515D01*
D02*
G37*
G36*
X42797Y22991D02*
X42570D01*
Y22567D01*
X42797D01*
Y22991D01*
D02*
G37*
G36*
X42470D02*
X42243D01*
Y22567D01*
X42470D01*
Y22991D01*
D02*
G37*
G36*
X42807Y22305D02*
X42580D01*
Y21881D01*
X42807D01*
Y22305D01*
D02*
G37*
G36*
X42480D02*
X42252D01*
Y21881D01*
X42480D01*
Y22305D01*
D02*
G37*
G36*
X42807Y21781D02*
X42580D01*
Y21357D01*
X42807D01*
Y21781D01*
D02*
G37*
G36*
X42480D02*
X42252D01*
Y21357D01*
X42480D01*
Y21781D01*
D02*
G37*
G36*
X41193Y20169D02*
X40552D01*
Y19036D01*
X41193D01*
Y20169D01*
D02*
G37*
G36*
X40452D02*
X39811D01*
Y19036D01*
X40452D01*
Y20169D01*
D02*
G37*
G36*
X41193Y18936D02*
X40552D01*
Y17804D01*
X41193D01*
Y18936D01*
D02*
G37*
G36*
X40452D02*
X39811D01*
Y17804D01*
X40452D01*
Y18936D01*
D02*
G37*
G36*
X30001Y36675D02*
Y36497D01*
X30179D01*
X30146Y36577D01*
X30081Y36642D01*
X30001Y36675D01*
D02*
G37*
G36*
X29901D02*
X29820Y36642D01*
X29756Y36577D01*
X29723Y36497D01*
X29901D01*
Y36675D01*
D02*
G37*
G36*
X33013Y36587D02*
Y36408D01*
X33191D01*
X33158Y36489D01*
X33093Y36553D01*
X33013Y36587D01*
D02*
G37*
G36*
X32913D02*
X32832Y36553D01*
X32768Y36489D01*
X32734Y36408D01*
X32913D01*
Y36587D01*
D02*
G37*
G36*
X28603Y36478D02*
Y36300D01*
X28781D01*
X28748Y36380D01*
X28683Y36445D01*
X28603Y36478D01*
D02*
G37*
G36*
X28503D02*
X28423Y36445D01*
X28358Y36380D01*
X28325Y36300D01*
X28503D01*
Y36478D01*
D02*
G37*
G36*
X35474Y36468D02*
Y36289D01*
X35652D01*
X35619Y36370D01*
X35554Y36434D01*
X35474Y36468D01*
D02*
G37*
G36*
X35374D02*
X35294Y36434D01*
X35229Y36370D01*
X35196Y36289D01*
X35374D01*
Y36468D01*
D02*
G37*
G36*
X30179Y36397D02*
X30001D01*
Y36219D01*
X30081Y36252D01*
X30146Y36317D01*
X30179Y36397D01*
D02*
G37*
G36*
X29901D02*
X29723D01*
X29756Y36317D01*
X29820Y36252D01*
X29901Y36219D01*
Y36397D01*
D02*
G37*
G36*
X25926Y36380D02*
Y36202D01*
X26104D01*
X26071Y36282D01*
X26006Y36347D01*
X25926Y36380D01*
D02*
G37*
G36*
X25826D02*
X25746Y36347D01*
X25681Y36282D01*
X25648Y36202D01*
X25826D01*
Y36380D01*
D02*
G37*
G36*
X33191Y36308D02*
X33013D01*
Y36130D01*
X33093Y36163D01*
X33158Y36228D01*
X33191Y36308D01*
D02*
G37*
G36*
X32913D02*
X32734D01*
X32768Y36228D01*
X32832Y36163D01*
X32913Y36130D01*
Y36308D01*
D02*
G37*
G36*
X37629Y36281D02*
Y36103D01*
X37807D01*
X37774Y36183D01*
X37709Y36248D01*
X37629Y36281D01*
D02*
G37*
G36*
X37529D02*
X37448Y36248D01*
X37384Y36183D01*
X37350Y36103D01*
X37529D01*
Y36281D01*
D02*
G37*
G36*
X28781Y36200D02*
X28603D01*
Y36022D01*
X28683Y36055D01*
X28748Y36120D01*
X28781Y36200D01*
D02*
G37*
G36*
X28503D02*
X28325D01*
X28358Y36120D01*
X28423Y36055D01*
X28503Y36022D01*
Y36200D01*
D02*
G37*
G36*
X35652Y36189D02*
X35474D01*
Y36011D01*
X35554Y36044D01*
X35619Y36109D01*
X35652Y36189D01*
D02*
G37*
G36*
X35374D02*
X35196D01*
X35229Y36109D01*
X35294Y36044D01*
X35374Y36011D01*
Y36189D01*
D02*
G37*
G36*
X26104Y36102D02*
X25926D01*
Y35923D01*
X26006Y35957D01*
X26071Y36021D01*
X26104Y36102D01*
D02*
G37*
G36*
X25826D02*
X25648D01*
X25681Y36021D01*
X25746Y35957D01*
X25826Y35923D01*
Y36102D01*
D02*
G37*
G36*
X37807Y36003D02*
X37629D01*
Y35825D01*
X37709Y35858D01*
X37774Y35923D01*
X37807Y36003D01*
D02*
G37*
G36*
X37529D02*
X37350D01*
X37384Y35923D01*
X37448Y35858D01*
X37529Y35825D01*
Y36003D01*
D02*
G37*
G36*
X40070Y35553D02*
Y35375D01*
X40248D01*
X40215Y35455D01*
X40150Y35520D01*
X40070Y35553D01*
D02*
G37*
G36*
X39970D02*
X39889Y35520D01*
X39825Y35455D01*
X39791Y35375D01*
X39970D01*
Y35553D01*
D02*
G37*
G36*
X40248Y35275D02*
X40070D01*
Y35097D01*
X40150Y35130D01*
X40215Y35195D01*
X40248Y35275D01*
D02*
G37*
G36*
X39970D02*
X39791D01*
X39825Y35195D01*
X39889Y35130D01*
X39970Y35097D01*
Y35275D01*
D02*
G37*
G36*
X27519Y35078D02*
Y34900D01*
X27697D01*
X27664Y34980D01*
X27599Y35045D01*
X27519Y35078D01*
D02*
G37*
G36*
X27419D02*
X27338Y35045D01*
X27274Y34980D01*
X27240Y34900D01*
X27419D01*
Y35078D01*
D02*
G37*
G36*
X27697Y34800D02*
X27519D01*
Y34622D01*
X27599Y34655D01*
X27664Y34720D01*
X27697Y34800D01*
D02*
G37*
G36*
X27419D02*
X27240D01*
X27274Y34720D01*
X27338Y34655D01*
X27419Y34622D01*
Y34800D01*
D02*
G37*
G36*
X25670Y34756D02*
Y34578D01*
X25848D01*
X25815Y34658D01*
X25750Y34723D01*
X25670Y34756D01*
D02*
G37*
G36*
X25570D02*
X25490Y34723D01*
X25425Y34658D01*
X25392Y34578D01*
X25570D01*
Y34756D01*
D02*
G37*
G36*
X38623Y34598D02*
Y34420D01*
X38801D01*
X38768Y34500D01*
X38703Y34565D01*
X38623Y34598D01*
D02*
G37*
G36*
X38523D02*
X38443Y34565D01*
X38378Y34500D01*
X38345Y34420D01*
X38523D01*
Y34598D01*
D02*
G37*
G36*
X25848Y34478D02*
X25670D01*
Y34299D01*
X25750Y34333D01*
X25815Y34397D01*
X25848Y34478D01*
D02*
G37*
G36*
X25570D02*
X25392D01*
X25425Y34397D01*
X25490Y34333D01*
X25570Y34299D01*
Y34478D01*
D02*
G37*
G36*
X38801Y34320D02*
X38623D01*
Y34142D01*
X38703Y34175D01*
X38768Y34240D01*
X38801Y34320D01*
D02*
G37*
G36*
X38523D02*
X38345D01*
X38378Y34240D01*
X38443Y34175D01*
X38523Y34142D01*
Y34320D01*
D02*
G37*
G36*
X42168Y33723D02*
Y33545D01*
X42346D01*
X42313Y33625D01*
X42248Y33690D01*
X42168Y33723D01*
D02*
G37*
G36*
X42068D02*
X41988Y33690D01*
X41923Y33625D01*
X41890Y33545D01*
X42068D01*
Y33723D01*
D02*
G37*
G36*
X27441Y33638D02*
X27398Y33629D01*
X27362Y33605D01*
X27359Y33601D01*
X27311Y33581D01*
X27246Y33516D01*
X27213Y33436D01*
X27669D01*
X27636Y33516D01*
X27571Y33581D01*
X27523Y33601D01*
X27520Y33605D01*
X27484Y33629D01*
X27441Y33638D01*
D02*
G37*
G36*
X42346Y33445D02*
X42168D01*
Y33267D01*
X42248Y33300D01*
X42313Y33365D01*
X42346Y33445D01*
D02*
G37*
G36*
X42068D02*
X41890D01*
X41923Y33365D01*
X41988Y33300D01*
X42068Y33267D01*
Y33445D01*
D02*
G37*
G36*
X27391Y33336D02*
X27213D01*
X27246Y33256D01*
X27311Y33191D01*
X27391Y33158D01*
Y33336D01*
D02*
G37*
G36*
X40040Y33191D02*
Y33013D01*
X40218D01*
X40185Y33093D01*
X40120Y33158D01*
X40040Y33191D01*
D02*
G37*
G36*
X39940D02*
X39860Y33158D01*
X39795Y33093D01*
X39762Y33013D01*
X39940D01*
Y33191D01*
D02*
G37*
G36*
X25552Y33161D02*
Y32983D01*
X25730D01*
X25697Y33063D01*
X25632Y33128D01*
X25552Y33161D01*
D02*
G37*
G36*
X25452D02*
X25372Y33128D01*
X25307Y33063D01*
X25274Y32983D01*
X25452D01*
Y33161D01*
D02*
G37*
G36*
X40218Y32913D02*
X40040D01*
Y32734D01*
X40120Y32768D01*
X40185Y32832D01*
X40218Y32913D01*
D02*
G37*
G36*
X39940D02*
X39762D01*
X39795Y32832D01*
X39860Y32768D01*
X39940Y32734D01*
Y32913D01*
D02*
G37*
G36*
X25730Y32883D02*
X25552D01*
Y32705D01*
X25632Y32738D01*
X25697Y32803D01*
X25730Y32883D01*
D02*
G37*
G36*
X25452D02*
X25274D01*
X25307Y32803D01*
X25372Y32738D01*
X25452Y32705D01*
Y32883D01*
D02*
G37*
G36*
X27353Y32148D02*
Y31969D01*
X27531D01*
X27498Y32050D01*
X27433Y32114D01*
X27353Y32148D01*
D02*
G37*
G36*
X27253D02*
X27173Y32114D01*
X27108Y32050D01*
X27075Y31969D01*
X27253D01*
Y32148D01*
D02*
G37*
G36*
X27531Y31869D02*
X27353D01*
Y31691D01*
X27433Y31724D01*
X27498Y31789D01*
X27531Y31869D01*
D02*
G37*
G36*
X27253D02*
X27075D01*
X27108Y31789D01*
X27173Y31724D01*
X27253Y31691D01*
Y31869D01*
D02*
G37*
G36*
X25542Y31862D02*
Y31684D01*
X25720D01*
X25687Y31764D01*
X25622Y31829D01*
X25542Y31862D01*
D02*
G37*
G36*
X25442D02*
X25362Y31829D01*
X25297Y31764D01*
X25264Y31684D01*
X25442D01*
Y31862D01*
D02*
G37*
G36*
X43643Y31626D02*
Y31448D01*
X43821D01*
X43788Y31528D01*
X43723Y31593D01*
X43643Y31626D01*
D02*
G37*
G36*
X43543D02*
X43462Y31593D01*
X43398Y31528D01*
X43364Y31448D01*
X43543D01*
Y31626D01*
D02*
G37*
G36*
X25720Y31584D02*
X25542D01*
Y31406D01*
X25622Y31439D01*
X25687Y31504D01*
X25720Y31584D01*
D02*
G37*
G36*
X25442D02*
X25264D01*
X25297Y31504D01*
X25362Y31439D01*
X25442Y31406D01*
Y31584D01*
D02*
G37*
G36*
X43821Y31348D02*
X43643D01*
Y31169D01*
X43723Y31203D01*
X43788Y31267D01*
X43821Y31348D01*
D02*
G37*
G36*
X43543D02*
X43364D01*
X43398Y31267D01*
X43462Y31203D01*
X43543Y31169D01*
Y31348D01*
D02*
G37*
G36*
X27235Y30711D02*
Y30532D01*
X27413D01*
X27380Y30613D01*
X27315Y30677D01*
X27235Y30711D01*
D02*
G37*
G36*
X27135D02*
X27055Y30677D01*
X26990Y30613D01*
X26957Y30532D01*
X27135D01*
Y30711D01*
D02*
G37*
G36*
X28899Y30661D02*
X28662D01*
Y30276D01*
X28899D01*
Y30661D01*
D02*
G37*
G36*
X28562D02*
X28325D01*
Y30276D01*
X28562D01*
Y30661D01*
D02*
G37*
G36*
X27413Y30432D02*
X27235D01*
Y30254D01*
X27315Y30287D01*
X27380Y30352D01*
X27413Y30432D01*
D02*
G37*
G36*
X27135D02*
X26957D01*
X26990Y30352D01*
X27055Y30287D01*
X27135Y30254D01*
Y30432D01*
D02*
G37*
G36*
X25444Y30169D02*
Y29991D01*
X25622D01*
X25589Y30071D01*
X25524Y30136D01*
X25444Y30169D01*
D02*
G37*
G36*
X25344D02*
X25263Y30136D01*
X25199Y30071D01*
X25165Y29991D01*
X25344D01*
Y30169D01*
D02*
G37*
G36*
X28899Y30176D02*
X28662D01*
Y29792D01*
X28899D01*
Y30176D01*
D02*
G37*
G36*
X28562D02*
X28325D01*
Y29792D01*
X28562D01*
Y30176D01*
D02*
G37*
G36*
X25622Y29891D02*
X25444D01*
Y29713D01*
X25524Y29746D01*
X25589Y29811D01*
X25622Y29891D01*
D02*
G37*
G36*
X25344D02*
X25165D01*
X25199Y29811D01*
X25263Y29746D01*
X25344Y29713D01*
Y29891D01*
D02*
G37*
G36*
X43711Y29844D02*
Y29666D01*
X43890D01*
X43856Y29746D01*
X43792Y29811D01*
X43711Y29844D01*
D02*
G37*
G36*
X43611D02*
X43531Y29811D01*
X43466Y29746D01*
X43433Y29666D01*
X43611D01*
Y29844D01*
D02*
G37*
G36*
X43890Y29566D02*
X43711D01*
Y29388D01*
X43792Y29421D01*
X43856Y29486D01*
X43890Y29566D01*
D02*
G37*
G36*
X43611D02*
X43433D01*
X43466Y29486D01*
X43531Y29421D01*
X43611Y29388D01*
Y29566D01*
D02*
G37*
G36*
X25286Y28890D02*
Y28711D01*
X25464D01*
X25431Y28792D01*
X25367Y28856D01*
X25286Y28890D01*
D02*
G37*
G36*
X25186D02*
X25106Y28856D01*
X25041Y28792D01*
X25008Y28711D01*
X25186D01*
Y28890D01*
D02*
G37*
G36*
X43003Y28840D02*
Y28662D01*
X43181D01*
X43148Y28742D01*
X43083Y28807D01*
X43003Y28840D01*
D02*
G37*
G36*
X42903D02*
X42822Y28807D01*
X42758Y28742D01*
X42725Y28662D01*
X42903D01*
Y28840D01*
D02*
G37*
G36*
X25464Y28611D02*
X25286D01*
Y28433D01*
X25367Y28466D01*
X25431Y28531D01*
X25464Y28611D01*
D02*
G37*
G36*
X25186D02*
X25008D01*
X25041Y28531D01*
X25106Y28466D01*
X25186Y28433D01*
Y28611D01*
D02*
G37*
G36*
X43181Y28562D02*
X43003D01*
Y28384D01*
X43083Y28417D01*
X43148Y28482D01*
X43181Y28562D01*
D02*
G37*
G36*
X42903D02*
X42725D01*
X42758Y28482D01*
X42822Y28417D01*
X42903Y28384D01*
Y28562D01*
D02*
G37*
G36*
X40966Y28722D02*
X40581D01*
Y28278D01*
X40966D01*
Y28722D01*
D02*
G37*
G36*
X40482D02*
X40097D01*
Y28278D01*
X40482D01*
Y28722D01*
D02*
G37*
G36*
X25168Y28004D02*
Y27826D01*
X25346D01*
X25313Y27906D01*
X25248Y27971D01*
X25168Y28004D01*
D02*
G37*
G36*
X25068D02*
X24988Y27971D01*
X24923Y27906D01*
X24890Y27826D01*
X25068D01*
Y28004D01*
D02*
G37*
G36*
X40966Y28178D02*
X40581D01*
Y27735D01*
X40966D01*
Y28178D01*
D02*
G37*
G36*
X40482D02*
X40097D01*
Y27735D01*
X40482D01*
Y28178D01*
D02*
G37*
G36*
X25346Y27726D02*
X25168D01*
Y27547D01*
X25248Y27581D01*
X25313Y27645D01*
X25346Y27726D01*
D02*
G37*
G36*
X25068D02*
X24890D01*
X24923Y27645D01*
X24988Y27581D01*
X25068Y27547D01*
Y27726D01*
D02*
G37*
G36*
X43515Y27581D02*
Y27402D01*
X43693D01*
X43660Y27483D01*
X43595Y27547D01*
X43515Y27581D01*
D02*
G37*
G36*
X43415D02*
X43334Y27547D01*
X43270Y27483D01*
X43236Y27402D01*
X43415D01*
Y27581D01*
D02*
G37*
G36*
X43693Y27302D02*
X43515D01*
Y27124D01*
X43595Y27157D01*
X43660Y27222D01*
X43693Y27302D01*
D02*
G37*
G36*
X43415D02*
X43236D01*
X43270Y27222D01*
X43334Y27157D01*
X43415Y27124D01*
Y27302D01*
D02*
G37*
G36*
X42324Y26783D02*
Y26605D01*
X42502D01*
X42469Y26685D01*
X42404Y26750D01*
X42324Y26783D01*
D02*
G37*
G36*
X42224D02*
X42143Y26750D01*
X42079Y26685D01*
X42045Y26605D01*
X42224D01*
Y26783D01*
D02*
G37*
G36*
X41006Y27099D02*
X40542D01*
Y26497D01*
X41006D01*
Y27099D01*
D02*
G37*
G36*
X25275Y27050D02*
X24811D01*
Y26448D01*
X25275D01*
Y27050D01*
D02*
G37*
G36*
X42502Y26505D02*
X42324D01*
Y26327D01*
X42404Y26360D01*
X42469Y26425D01*
X42502Y26505D01*
D02*
G37*
G36*
X42224D02*
X42045D01*
X42079Y26425D01*
X42143Y26360D01*
X42224Y26327D01*
Y26505D01*
D02*
G37*
G36*
X41006Y26397D02*
X40542D01*
Y25794D01*
X41006D01*
Y26397D01*
D02*
G37*
G36*
X25275Y26348D02*
X24811D01*
Y25745D01*
X25275D01*
Y26348D01*
D02*
G37*
G36*
X27994Y27019D02*
X27688D01*
Y26792D01*
X27994D01*
Y27019D01*
D02*
G37*
G36*
X27588D02*
X27282D01*
Y26792D01*
X27588D01*
Y27019D01*
D02*
G37*
G36*
X29578Y26744D02*
X29194D01*
Y26497D01*
X29578D01*
Y26744D01*
D02*
G37*
G36*
X29094D02*
X28709D01*
Y26497D01*
X29094D01*
Y26744D01*
D02*
G37*
G36*
X27994Y26692D02*
X27688D01*
Y26465D01*
X27994D01*
Y26692D01*
D02*
G37*
G36*
X27588D02*
X27282D01*
Y26465D01*
X27588D01*
Y26692D01*
D02*
G37*
G36*
X26823Y27050D02*
X26359D01*
Y26448D01*
X26823D01*
Y27050D01*
D02*
G37*
G36*
X29578Y26397D02*
X29194D01*
Y26150D01*
X29578D01*
Y26397D01*
D02*
G37*
G36*
X29094D02*
X28709D01*
Y26150D01*
X29094D01*
Y26397D01*
D02*
G37*
G36*
X26823Y26348D02*
X26359D01*
Y25745D01*
X26823D01*
Y26348D01*
D02*
G37*
G36*
X33121Y26537D02*
Y26359D01*
X33299D01*
X33266Y26439D01*
X33201Y26504D01*
X33121Y26537D01*
D02*
G37*
G36*
X33021D02*
X32941Y26504D01*
X32876Y26439D01*
X32843Y26359D01*
X33021D01*
Y26537D01*
D02*
G37*
G36*
X32589Y26439D02*
Y26261D01*
X32768D01*
X32734Y26341D01*
X32670Y26406D01*
X32589Y26439D01*
D02*
G37*
G36*
X32489D02*
X32409Y26406D01*
X32344Y26341D01*
X32311Y26261D01*
X32489D01*
Y26439D01*
D02*
G37*
G36*
X33299Y26259D02*
X33121D01*
Y26081D01*
X33201Y26114D01*
X33266Y26179D01*
X33299Y26259D01*
D02*
G37*
G36*
X33021D02*
X32843D01*
X32876Y26179D01*
X32941Y26114D01*
X33021Y26081D01*
Y26259D01*
D02*
G37*
G36*
X32768Y26161D02*
X32589D01*
Y25982D01*
X32670Y26016D01*
X32734Y26080D01*
X32768Y26161D01*
D02*
G37*
G36*
X32489D02*
X32311D01*
X32344Y26080D01*
X32409Y26016D01*
X32489Y25982D01*
Y26161D01*
D02*
G37*
G36*
X33319Y25928D02*
X32904D01*
Y25701D01*
X33319D01*
Y25928D01*
D02*
G37*
G36*
X32804D02*
X32390D01*
Y25701D01*
X32804D01*
Y25928D01*
D02*
G37*
G36*
X33319Y25601D02*
X32904D01*
Y25374D01*
X33319D01*
Y25601D01*
D02*
G37*
G36*
X32804D02*
X32390D01*
Y25374D01*
X32804D01*
Y25601D01*
D02*
G37*
G36*
X34411Y25336D02*
X34026D01*
Y25099D01*
X34411D01*
Y25336D01*
D02*
G37*
G36*
X33926D02*
X33542D01*
Y25099D01*
X33926D01*
Y25336D01*
D02*
G37*
G36*
X34411Y24999D02*
X34026D01*
Y24762D01*
X34411D01*
Y24999D01*
D02*
G37*
G36*
X33926D02*
X33542D01*
Y24762D01*
X33926D01*
Y24999D01*
D02*
G37*
G36*
X35433Y24490D02*
X35206D01*
Y24076D01*
X35433D01*
Y24490D01*
D02*
G37*
G36*
X35106D02*
X34879D01*
Y24076D01*
X35106D01*
Y24490D01*
D02*
G37*
G36*
X35433Y23976D02*
X35206D01*
Y23561D01*
X35433D01*
Y23976D01*
D02*
G37*
G36*
X35106D02*
X34879D01*
Y23561D01*
X35106D01*
Y23976D01*
D02*
G37*
G36*
X33090Y27225D02*
X32922D01*
Y27126D01*
X33090D01*
Y27225D01*
D02*
G37*
G36*
X30807Y25163D02*
X30607D01*
Y24863D01*
X30807D01*
Y25163D01*
D02*
G37*
G36*
Y24763D02*
X30607D01*
Y24463D01*
X30807D01*
Y24763D01*
D02*
G37*
G36*
X31153Y23880D02*
X30768D01*
Y23436D01*
X31153D01*
Y23880D01*
D02*
G37*
G36*
Y23336D02*
X30768D01*
Y22892D01*
X31153D01*
Y23336D01*
D02*
G37*
G36*
X32804Y24537D02*
X32390D01*
Y24309D01*
X32804D01*
Y24537D01*
D02*
G37*
G36*
X37817Y22972D02*
X37648D01*
Y22804D01*
X37817D01*
Y22972D01*
D02*
G37*
G36*
X37548D02*
X37380D01*
Y22804D01*
X37548D01*
Y22972D01*
D02*
G37*
G36*
X31153Y21911D02*
X30768D01*
Y21467D01*
X31153D01*
Y21911D01*
D02*
G37*
G36*
X30668D02*
X30284D01*
Y21467D01*
X30668D01*
Y21911D01*
D02*
G37*
G36*
X31153Y21367D02*
X30768D01*
Y20924D01*
X31153D01*
Y21367D01*
D02*
G37*
G36*
X30668D02*
X30284D01*
Y20924D01*
X30668D01*
Y21367D01*
D02*
G37*
G36*
X45444Y23555D02*
Y23377D01*
X45622D01*
X45589Y23457D01*
X45524Y23522D01*
X45444Y23555D01*
D02*
G37*
G36*
X45344D02*
X45263Y23522D01*
X45199Y23457D01*
X45165Y23377D01*
X45344D01*
Y23555D01*
D02*
G37*
G36*
X44479Y23525D02*
Y23347D01*
X44657D01*
X44624Y23428D01*
X44559Y23492D01*
X44479Y23525D01*
D02*
G37*
G36*
X44379D02*
X44299Y23492D01*
X44234Y23428D01*
X44201Y23347D01*
X44379D01*
Y23525D01*
D02*
G37*
G36*
X45622Y23277D02*
X45444D01*
Y23099D01*
X45524Y23132D01*
X45589Y23196D01*
X45622Y23277D01*
D02*
G37*
G36*
X45344D02*
X45165D01*
X45199Y23196D01*
X45263Y23132D01*
X45344Y23099D01*
Y23277D01*
D02*
G37*
G36*
X43633Y23515D02*
Y23091D01*
X43860D01*
Y23515D01*
X43633D01*
D02*
G37*
G36*
X44657Y23247D02*
X44479D01*
Y23069D01*
X44559Y23102D01*
X44624Y23167D01*
X44657Y23247D01*
D02*
G37*
G36*
X44379D02*
X44201D01*
X44234Y23167D01*
X44299Y23102D01*
X44379Y23069D01*
Y23247D01*
D02*
G37*
G36*
X44952Y23083D02*
Y22904D01*
X45130D01*
X45097Y22985D01*
X45032Y23049D01*
X44952Y23083D01*
D02*
G37*
G36*
X44852D02*
X44771Y23049D01*
X44707Y22985D01*
X44673Y22904D01*
X44852D01*
Y23083D01*
D02*
G37*
G36*
X45130Y22804D02*
X44952D01*
Y22626D01*
X45032Y22659D01*
X45097Y22724D01*
X45130Y22804D01*
D02*
G37*
G36*
X44852D02*
X44673D01*
X44707Y22724D01*
X44771Y22659D01*
X44852Y22626D01*
Y22804D01*
D02*
G37*
G36*
X43860Y22991D02*
X43633D01*
Y22567D01*
X43860D01*
Y22991D01*
D02*
G37*
G36*
X43643Y22305D02*
Y21881D01*
X43870D01*
Y22305D01*
X43643D01*
D02*
G37*
G36*
X45316Y21833D02*
Y21654D01*
X45494D01*
X45461Y21735D01*
X45396Y21799D01*
X45316Y21833D01*
D02*
G37*
G36*
X45216D02*
X45135Y21799D01*
X45071Y21735D01*
X45038Y21654D01*
X45216D01*
Y21833D01*
D02*
G37*
G36*
X45494Y21554D02*
X45316D01*
Y21376D01*
X45396Y21409D01*
X45461Y21474D01*
X45494Y21554D01*
D02*
G37*
G36*
X45216D02*
X45038D01*
X45071Y21474D01*
X45135Y21409D01*
X45216Y21376D01*
Y21554D01*
D02*
G37*
G36*
X43870Y21781D02*
X43643D01*
Y21357D01*
X43870D01*
Y21781D01*
D02*
G37*
G36*
X45639Y20691D02*
X45372D01*
Y20522D01*
X45639D01*
Y20691D01*
D02*
G37*
G36*
X46796Y19108D02*
X46469D01*
Y18751D01*
X46796D01*
Y19108D01*
D02*
G37*
G36*
Y18651D02*
X46469D01*
Y18293D01*
X46796D01*
Y18651D01*
D02*
G37*
%LPD*%
D12*
X39518Y40522D02*
Y41909D01*
X40187Y42579D01*
X29587Y26939D02*
X29852Y27205D01*
X31122D01*
X31388Y27470D02*
X33140D01*
X31122Y27205D02*
X31388Y27470D01*
X40925Y44557D02*
X40968D01*
X41101Y44689D02*
X41748D01*
X40968Y44557D02*
X41101Y44689D01*
X42851Y44110D02*
Y44689D01*
X41909Y43268D02*
X42008D01*
X42851Y44110D01*
X42126Y40030D02*
X42136Y40039D01*
X42126Y39508D02*
Y40030D01*
X41911Y42892D02*
X42577D01*
X42579Y42894D01*
X41909Y42890D02*
X41911Y42892D01*
X43632Y42195D02*
X43720Y42283D01*
X45138D01*
X43553Y42195D02*
X43632D01*
X41909Y42520D02*
X43228D01*
X43553Y42195D01*
X44587Y40039D02*
X44596Y40049D01*
X40846Y41594D02*
Y42520D01*
Y41594D02*
X40885Y41555D01*
X37785Y44823D02*
X37805Y44843D01*
X44360Y19596D02*
X44783Y20019D01*
X44360Y19596D02*
Y20423D01*
Y19104D02*
Y19596D01*
X44242Y18986D02*
X44360Y19104D01*
X46133Y22164D02*
X46575Y21722D01*
X46102Y22254D02*
X46133Y22223D01*
X46575Y21575D02*
Y21722D01*
X46133Y22164D02*
Y22223D01*
X47372Y20472D02*
X47677Y20778D01*
Y21575D01*
X46752Y20472D02*
X47372D01*
X44783Y20019D02*
X45113D01*
X45192Y20098D01*
X45689D01*
X50157Y19793D02*
X50167Y19803D01*
X48780Y19793D02*
X50157D01*
X48711Y19724D02*
X48780Y19793D01*
X46752Y19724D02*
X48711D01*
X46902Y17758D02*
X46909Y17766D01*
X46902Y17017D02*
Y17758D01*
X46760Y20086D02*
X47543D01*
X46752Y20094D02*
X46760Y20086D01*
X47543D02*
X47552Y20078D01*
X45394Y23199D02*
X47411D01*
X48780Y21831D01*
Y20483D02*
Y21831D01*
X45689Y17824D02*
X45748Y17766D01*
X41860Y23514D02*
X42244Y23898D01*
X47972D01*
X50167Y21703D01*
Y20610D02*
Y21703D01*
X42520Y23238D02*
X42647Y23365D01*
X42520Y23041D02*
Y23238D01*
X50127Y20610D02*
X50167D01*
X40502Y18494D02*
Y18986D01*
D15*
X33888Y27766D02*
D03*
D16*
X34636Y27478D02*
D03*
Y27675D02*
D03*
Y27872D02*
D03*
Y28069D02*
D03*
Y28266D02*
D03*
Y27281D02*
D03*
X33140Y27472D02*
D03*
Y27669D02*
D03*
Y27866D02*
D03*
Y28063D02*
D03*
Y28259D02*
D03*
Y27275D02*
D03*
D17*
X34181Y28514D02*
D03*
X33985D02*
D03*
X33788D02*
D03*
X33591D02*
D03*
X33394D02*
D03*
X34378D02*
D03*
X34181Y27018D02*
D03*
X33985D02*
D03*
X33788D02*
D03*
X33591D02*
D03*
X33394D02*
D03*
X34378D02*
D03*
D18*
X40532Y30197D02*
D03*
Y28228D02*
D03*
X30719Y23386D02*
D03*
Y21417D02*
D03*
D19*
X39518Y40522D02*
D03*
X35778D02*
D03*
X40502Y18986D02*
D03*
X44242D02*
D03*
D20*
X42851Y44689D02*
D03*
X41748D02*
D03*
X47677Y21575D02*
D03*
X46575D02*
D03*
X29715Y30226D02*
D03*
X28612D02*
D03*
D21*
X33976Y26152D02*
D03*
Y25049D02*
D03*
D22*
X35156Y24026D02*
D03*
X36220D02*
D03*
D23*
X32854Y24587D02*
D03*
Y25651D02*
D03*
D24*
X34911Y25620D02*
D03*
X36801D02*
D03*
D25*
X30531Y26791D02*
D03*
Y27657D02*
D03*
D26*
X40492Y26447D02*
D03*
X39508D02*
D03*
X31122Y28858D02*
D03*
X30138D02*
D03*
X25325Y26398D02*
D03*
X26309D02*
D03*
D27*
X35276Y29469D02*
D03*
Y30728D02*
D03*
X29144Y26447D02*
D03*
Y27707D02*
D03*
D28*
X31555Y34094D02*
D03*
X34094D02*
D03*
D29*
X33553Y31545D02*
D03*
Y29656D02*
D03*
D30*
X31024Y31555D02*
D03*
Y30492D02*
D03*
D31*
X27638Y27648D02*
D03*
Y26742D02*
D03*
X43632Y43022D02*
D03*
Y42195D02*
D03*
D32*
X42530Y21831D02*
D03*
X43593D02*
D03*
X42520Y23041D02*
D03*
X43583D02*
D03*
X39331Y44360D02*
D03*
X38268D02*
D03*
X39350Y43081D02*
D03*
X38287D02*
D03*
D33*
X45689Y20098D02*
D03*
Y19724D02*
D03*
X46752D02*
D03*
Y20094D02*
D03*
X45689Y20472D02*
D03*
X46752D02*
D03*
X40846Y42894D02*
D03*
X41909Y43268D02*
D03*
X40846D02*
D03*
X41909Y42890D02*
D03*
Y42520D02*
D03*
X40846D02*
D03*
D34*
X46419Y18701D02*
D03*
X45669D02*
D03*
X40885Y41555D02*
D03*
X41635D02*
D03*
D35*
X50167Y19803D02*
D03*
Y20610D02*
D03*
X45138Y42283D02*
D03*
Y43091D02*
D03*
D36*
X48780Y20483D02*
D03*
Y19793D02*
D03*
D37*
X36880Y30197D02*
D03*
Y29606D02*
D03*
D38*
X38209Y28248D02*
D03*
D39*
Y29173D02*
D03*
D40*
X29632Y24813D02*
D03*
D41*
X30557D02*
D03*
D42*
X37343Y23691D02*
D03*
X37854D02*
D03*
X37598Y23022D02*
D03*
D68*
X27441Y33386D02*
Y33526D01*
Y33386D02*
X29272Y31555D01*
X31024D01*
X36516Y30187D02*
X36880D01*
X33789Y28514D02*
Y28959D01*
X31555Y34094D02*
X31560Y34090D01*
Y32890D02*
Y34090D01*
Y32890D02*
X32160Y32290D01*
Y31491D02*
Y32290D01*
X31024Y30492D02*
X31161D01*
X32160Y31491D01*
X31161Y30492D02*
X31545D01*
X32380Y28520D02*
X32642Y28258D01*
X33140D01*
X29203Y28465D02*
X29596Y28858D01*
X30138D01*
X32261Y28888D02*
X33297D01*
X32215Y28935D02*
X32261Y28888D01*
X32628Y29182D02*
X32732Y29078D01*
X33366D01*
X32628Y29182D02*
Y29409D01*
X32215Y28935D02*
Y29370D01*
X31703Y29882D02*
X32215Y29370D01*
X31545Y30492D02*
X32628Y29409D01*
X40187Y42579D02*
X40502Y42894D01*
X40846D01*
X37903Y23739D02*
Y23929D01*
X37854Y23691D02*
X37903Y23739D01*
Y23929D02*
X37953Y23979D01*
Y24252D01*
X36024Y27392D02*
X36073D01*
X34636Y27274D02*
X35906D01*
X36024Y27392D01*
X36438Y27657D02*
X36486D01*
X35965Y27717D02*
X36378D01*
X34636Y27470D02*
X35719D01*
X35965Y27717D01*
X36378D02*
X36438Y27657D01*
X36230Y29478D02*
X36358Y29606D01*
X36181Y29478D02*
X36230D01*
X36358Y29606D02*
X36880D01*
X35285Y29478D02*
X36181D01*
X35276Y29469D02*
X35285Y29478D01*
X35347Y27864D02*
X35548Y28065D01*
X36482D01*
X36486Y28061D01*
X34636Y27864D02*
X35347D01*
X35611Y27795D02*
X35659D01*
X35483Y27667D02*
X35611Y27795D01*
X34636Y27667D02*
X35483D01*
X35069Y28061D02*
X35344Y28337D01*
X34636Y28061D02*
X35069D01*
X35138Y29469D02*
X35276D01*
X34764Y29094D02*
X35138Y29469D01*
X34281Y29094D02*
X34764D01*
X33986Y28800D02*
X34281Y29094D01*
X33986Y28514D02*
Y28800D01*
X33937Y29006D02*
X35276Y30344D01*
Y30728D01*
X33836Y29006D02*
X33937D01*
X34183Y28514D02*
Y28743D01*
X34230Y28789D01*
X34585D01*
X33789Y28959D02*
X33836Y29006D01*
X33396Y28514D02*
Y28789D01*
X33297Y28888D02*
X33396Y28789D01*
X33366Y29078D02*
X33593Y28851D01*
X30522Y29882D02*
X31703D01*
X29715Y30226D02*
X30177D01*
X30522Y29882D01*
X31660Y28858D02*
X31703Y28816D01*
X31122Y28858D02*
X31660D01*
X31703Y28651D02*
X32490Y27864D01*
X31703Y28651D02*
Y28816D01*
X32490Y27864D02*
X33140D01*
X33593Y28514D02*
Y28851D01*
X34094Y32766D02*
Y34094D01*
X33583Y31368D02*
Y32254D01*
X34094Y32766D01*
X33583Y29478D02*
X33789Y29272D01*
Y28959D02*
Y29272D01*
X34380Y28585D02*
X34585Y28789D01*
X35128D01*
X35974Y30728D02*
X36516Y30187D01*
X35276Y30728D02*
X35974D01*
X34380Y28514D02*
Y28585D01*
X35167Y28829D02*
X35315D01*
X35128Y28789D02*
X35167Y28829D01*
X35059Y28514D02*
X35236Y28691D01*
X34380Y28514D02*
X35059D01*
X33255Y26873D02*
X33322D01*
X33396Y26947D01*
Y27018D01*
X33140Y27065D02*
X33187Y27018D01*
X33396D01*
X32657Y27096D02*
X32892D01*
X33069Y27274D02*
X33140D01*
X29508Y26939D02*
X29587D01*
X30394Y26309D02*
X30531Y26446D01*
Y26791D01*
X30394Y26260D02*
Y26309D01*
X27697Y27707D02*
X29144D01*
X27638Y27648D02*
X27697Y27707D01*
X29144D02*
X29193Y27657D01*
X30531D01*
X30541Y27667D01*
X33140D01*
X37805Y23740D02*
X37854Y23691D01*
X33593Y26673D02*
X33782Y26863D01*
Y27010D01*
X33789Y27018D01*
X33593D02*
X33789D01*
X33977Y26853D02*
Y26911D01*
X33979Y26913D02*
Y27010D01*
X33976Y26152D02*
Y26853D01*
X33977Y26853D01*
Y26911D02*
X33979Y26913D01*
Y27010D02*
X33986Y27018D01*
X33976Y26152D02*
X33986D01*
D69*
X28483Y24813D02*
X29632D01*
X27623Y25673D02*
X28483Y24813D01*
X25797Y22589D02*
Y23996D01*
X27192Y25390D01*
X33986Y26152D02*
X34054Y26083D01*
X34448D01*
X34518Y26013D01*
X34731D02*
X34911Y25832D01*
Y25620D02*
Y25832D01*
X34518Y26013D02*
X34731D01*
X42136Y40039D02*
X44587D01*
X40944D02*
X42136D01*
X40885Y40098D02*
Y41555D01*
Y40098D02*
X40944Y40039D01*
X37303Y39911D02*
X39165Y38049D01*
X44596D01*
X37805Y44843D02*
Y46300D01*
X37864Y46358D02*
X43268D01*
X37805Y46300D02*
X37864Y46358D01*
X43268D02*
X45138Y44488D01*
Y43091D02*
Y44488D01*
X46909Y17766D02*
X50197D01*
X45748D02*
X46909D01*
X45689Y17824D02*
Y19724D01*
D70*
X38474Y25994D02*
X39390Y25079D01*
X45197D01*
X45959Y25841D01*
X47972D01*
X44195Y15766D02*
X50197D01*
X42323Y17638D02*
X44195Y15766D01*
D71*
X43632Y43022D02*
Y45079D01*
X43110Y45600D02*
X43632Y45079D01*
D72*
X47972Y25841D02*
D03*
X50197Y15766D02*
D03*
X44596Y38049D02*
D03*
D73*
X47972Y27841D02*
D03*
X44596Y40049D02*
D03*
X25797Y22589D02*
D03*
X50197Y17766D02*
D03*
D74*
X23797Y22589D02*
D03*
D75*
X33710Y28000D02*
D03*
X34120Y28010D02*
D03*
X34090Y27530D02*
D03*
X33640Y27550D02*
D03*
X32380Y28520D02*
D03*
X27185Y30482D02*
D03*
X29203Y28465D02*
D03*
X44902Y22854D02*
D03*
X45266Y21604D02*
D03*
X45394Y23327D02*
D03*
X44429Y23297D02*
D03*
X25118Y27776D02*
D03*
X25236Y28661D02*
D03*
X25394Y29941D02*
D03*
X27303Y31919D02*
D03*
X25492Y31634D02*
D03*
X27441Y33386D02*
D03*
X25502Y32933D02*
D03*
X27469Y34850D02*
D03*
X25620Y34528D02*
D03*
X25876Y36152D02*
D03*
X28553Y36250D02*
D03*
X29951Y36447D02*
D03*
X32963Y36358D02*
D03*
X35424Y36239D02*
D03*
X37579Y36053D02*
D03*
X40020Y35325D02*
D03*
X38573Y34370D02*
D03*
X42118Y33495D02*
D03*
X42274Y26555D02*
D03*
X42953Y28612D02*
D03*
X43465Y27352D02*
D03*
X39892Y45167D02*
D03*
X40630Y45728D02*
D03*
X39823Y45807D02*
D03*
X40187Y42579D02*
D03*
X37953Y24252D02*
D03*
X36073Y27392D02*
D03*
X43593Y31398D02*
D03*
X39990Y32963D02*
D03*
X43661Y29616D02*
D03*
X38278Y27106D02*
D03*
X36181Y29478D02*
D03*
X36293Y26815D02*
D03*
X36834D02*
D03*
X36486Y27657D02*
D03*
Y28061D02*
D03*
X35659Y27795D02*
D03*
X35344Y28337D02*
D03*
X30394Y26260D02*
D03*
X33071Y26309D02*
D03*
X32539Y26211D02*
D03*
X40925Y44557D02*
D03*
X42126Y39508D02*
D03*
X42579Y42894D02*
D03*
X44360Y20423D02*
D03*
X46102Y22254D02*
D03*
X47552Y20078D02*
D03*
X46902Y17017D02*
D03*
M02*
