G04*
G04 #@! TF.GenerationSoftware,Altium Limited,Altium Designer,22.10.1 (41)*
G04*
G04 Layer_Color=16711935*
%FSLAX24Y24*%
%MOIN*%
G70*
G04*
G04 #@! TF.SameCoordinates,BB6D0E27-544A-47F7-A8B6-121398B6A664*
G04*
G04*
G04 #@! TF.FilePolarity,Positive*
G04*
G01*
G75*
%ADD10C,0.0039*%
%ADD13C,0.0079*%
D10*
X42028Y27717D02*
Y30709D01*
X39035Y27717D02*
Y30709D01*
X42028D01*
X39035Y27717D02*
X42028D01*
X32215Y20906D02*
Y23898D01*
X29222Y20906D02*
Y23898D01*
X32215D01*
X29222Y20906D02*
X32215D01*
X49060Y24720D02*
X49119Y24790D01*
Y24841D01*
X49060Y24616D02*
Y24720D01*
Y24616D02*
X49060Y24616D01*
X49341D01*
X46378Y28841D02*
X49567D01*
X46378Y24841D02*
X49567D01*
Y28841D01*
X46378Y24841D02*
Y28841D01*
X49341Y24616D02*
Y24720D01*
X49282Y24790D02*
Y24841D01*
Y24790D02*
X49341Y24720D01*
X45906Y36999D02*
X45965Y36928D01*
X45906Y36999D02*
Y37049D01*
X45965Y36825D02*
Y36928D01*
X43002Y37049D02*
Y41049D01*
X46191Y37049D02*
Y41049D01*
X43002Y37049D02*
X46191D01*
X43002Y41049D02*
X46191D01*
X45684Y36825D02*
X45965D01*
X45684Y36825D02*
X45684Y36825D01*
X45684Y36825D02*
Y36928D01*
X45743Y36999D02*
Y37049D01*
X45684Y36928D02*
X45743Y36999D01*
X22676Y21220D02*
X22747Y21279D01*
X22797D01*
X22573Y21220D02*
X22676D01*
X22797Y24183D02*
X26797D01*
X22797Y20994D02*
X26797D01*
X22797D02*
Y24183D01*
X26797Y20994D02*
Y24183D01*
X22573Y21220D02*
Y21501D01*
X22573Y21501D01*
X22573D02*
X22676D01*
X22747Y21442D02*
X22797D01*
X22676Y21501D02*
X22747Y21442D01*
X51507Y14715D02*
X51566Y14645D01*
X51507Y14715D02*
Y14766D01*
X51566Y14541D02*
Y14645D01*
X48602Y14766D02*
Y18766D01*
X51791Y14766D02*
Y18766D01*
X48602Y14766D02*
X51791D01*
X48602Y18766D02*
X51791D01*
X51285Y14541D02*
X51566D01*
X51285Y14541D02*
X51285Y14541D01*
X51285Y14541D02*
Y14645D01*
X51344Y14715D02*
Y14766D01*
X51285Y14645D02*
X51344Y14715D01*
X37835Y29452D02*
X38583D01*
X37835Y28679D02*
Y29452D01*
Y28679D02*
X38583D01*
Y29452D01*
X29353Y25187D02*
X30126D01*
Y24439D02*
Y25187D01*
X29353Y24439D02*
X30126D01*
X29353D02*
Y25187D01*
D13*
X41630Y44335D02*
Y45043D01*
Y44335D02*
X42969D01*
Y45043D01*
X41630D02*
X42969D01*
X46457Y21220D02*
Y21929D01*
Y21220D02*
X47795D01*
Y21929D01*
X46457D02*
X47795D01*
X33622Y24931D02*
X34331D01*
Y26270D01*
X33622D02*
X34331D01*
X33622Y24931D02*
Y26270D01*
X39370Y25955D02*
Y26939D01*
Y25955D02*
X40630D01*
Y26939D01*
X39370D02*
X40630D01*
X30000Y28366D02*
Y29350D01*
Y28366D02*
X31260D01*
Y29350D01*
X30000D02*
X31260D01*
X28494Y29872D02*
Y30581D01*
Y29872D02*
X29833D01*
Y30581D01*
X28494D02*
X29833D01*
X26447Y25906D02*
Y26890D01*
X25187D02*
X26447D01*
X25187Y25906D02*
Y26890D01*
Y25906D02*
X26447D01*
X45650Y18455D02*
Y18947D01*
Y18455D02*
X46438D01*
Y18947D01*
X45650D02*
X46438D01*
X49921Y20600D02*
X50413D01*
X49921Y19813D02*
Y20600D01*
Y19813D02*
X50413D01*
Y20600D01*
X49026Y19744D02*
Y20531D01*
X48533Y19744D02*
X49026D01*
X48533D02*
Y20531D01*
X49026D01*
X44892Y42293D02*
Y43081D01*
X45384D01*
Y42293D02*
Y43081D01*
X44892Y42293D02*
X45384D01*
X40866Y41801D02*
X41654D01*
Y41309D02*
Y41801D01*
X40866Y41309D02*
X41654D01*
X40866D02*
Y41801D01*
X37165Y29469D02*
Y30335D01*
X36594Y29469D02*
X37165D01*
X36594D02*
Y30335D01*
X37165D01*
M02*
