G04*
G04 #@! TF.GenerationSoftware,Altium Limited,Altium Designer,22.10.1 (41)*
G04*
G04 Layer_Color=32768*
%FSLAX25Y25*%
%MOIN*%
G70*
G04*
G04 #@! TF.SameCoordinates,856B5BD7-418A-478B-963B-D84CAA773F5C*
G04*
G04*
G04 #@! TF.FilePolarity,Positive*
G04*
G01*
G75*
%ADD10C,0.00394*%
%ADD13C,0.00787*%
%ADD78C,0.00197*%
D10*
X403346Y292126D02*
X407283D01*
X405315Y290158D02*
Y294094D01*
X421260Y274213D02*
Y310039D01*
X389370Y274213D02*
Y310039D01*
X421260D01*
X389370Y274213D02*
X421260D01*
X305217Y224016D02*
X309154D01*
X307185Y222047D02*
Y225984D01*
X323130Y206102D02*
Y241929D01*
X291240Y206102D02*
Y241929D01*
X323130D01*
X291240Y206102D02*
X323130D01*
X477756Y268406D02*
X481693D01*
X479724Y266437D02*
Y270374D01*
X445965Y388524D02*
Y392461D01*
X443996Y390492D02*
X447933D01*
X246004Y225886D02*
X249941D01*
X247972Y223917D02*
Y227854D01*
X501968Y165689D02*
Y169626D01*
X500000Y167657D02*
X503937D01*
X382087Y284508D02*
Y288445D01*
X380118Y286476D02*
X384055D01*
X301575Y246161D02*
Y250098D01*
X299606Y248130D02*
X303543D01*
D13*
X415119Y442954D02*
Y450828D01*
Y442954D02*
X430867D01*
Y450828D01*
X415119D02*
X430867D01*
X463386Y211811D02*
Y219685D01*
Y211811D02*
X479134D01*
Y219685D01*
X463386D02*
X479134D01*
X335827Y248130D02*
X343701D01*
Y263878D01*
X335827D02*
X343701D01*
X335827Y248130D02*
Y263878D01*
X388968Y256976D02*
Y271961D01*
Y256976D02*
X411032D01*
Y271961D01*
X388968D02*
X411032D01*
X295267Y281090D02*
Y296075D01*
Y281090D02*
X317331D01*
Y296075D01*
X295267D02*
X317331D01*
X283760Y298327D02*
Y306201D01*
Y298327D02*
X299508D01*
Y306201D01*
X283760D02*
X299508D01*
X269201Y256484D02*
Y271469D01*
X247137D02*
X269201D01*
X247137Y256484D02*
Y271469D01*
Y256484D02*
X269201D01*
X451953Y181964D02*
Y192051D01*
Y181964D02*
X468930D01*
Y192051D01*
X451953D02*
X468930D01*
X496827Y210544D02*
X506520D01*
X496827Y193590D02*
Y210544D01*
Y193590D02*
X506520D01*
Y210544D01*
X491461Y194673D02*
Y208083D01*
X484130Y194673D02*
X491461D01*
X484130D02*
Y208083D01*
X491461D01*
X446531Y418393D02*
Y435347D01*
X456225D01*
Y418393D02*
Y435347D01*
X446531Y418393D02*
X456225D01*
X404110Y420595D02*
X421087D01*
Y410508D02*
Y420595D01*
X404110Y410508D02*
X421087D01*
X404110D02*
Y420595D01*
X372146Y293504D02*
Y304528D01*
X365453Y293504D02*
X372146D01*
X365453D02*
Y304528D01*
X372146D01*
D78*
X463386Y245768D02*
X496063D01*
Y288799D01*
X463386Y245768D02*
Y288799D01*
X463386D02*
X496063D01*
X429626Y410885D02*
X462303D01*
X429626Y367855D02*
Y410885D01*
X462303Y367855D02*
Y410885D01*
X429626Y367855D02*
X462303D01*
X268366Y209547D02*
Y242224D01*
X225335Y242224D02*
X268366D01*
X225335Y209547D02*
X268366D01*
X225335D02*
Y242224D01*
X485630Y188051D02*
X518307D01*
X485630Y145020D02*
Y188051D01*
X518307Y145020D02*
Y188051D01*
X485630Y145020D02*
X518307D01*
X376693Y297382D02*
X387480D01*
X376693Y280583D02*
Y297382D01*
Y280583D02*
X387480D01*
Y297382D01*
X290669Y253524D02*
X307469D01*
Y242736D02*
Y253524D01*
X290669Y242736D02*
X307469D01*
X290669D02*
Y253524D01*
M02*
