G04*
G04 #@! TF.GenerationSoftware,Altium Limited,Altium Designer,22.10.1 (41)*
G04*
G04 Layer_Color=16711935*
%FSLAX24Y24*%
%MOIN*%
G70*
G04*
G04 #@! TF.SameCoordinates,BB6D0E27-544A-47F7-A8B6-121398B6A664*
G04*
G04*
G04 #@! TF.FilePolarity,Positive*
G04*
G01*
G75*
%ADD13C,0.0079*%
G36*
X41385Y41815D02*
X41388Y41815D01*
X41392Y41814D01*
X41396Y41814D01*
X41401Y41813D01*
X41406Y41812D01*
X41411Y41811D01*
X41416Y41809D01*
X41421Y41807D01*
X41427Y41805D01*
X41432Y41802D01*
X41437Y41800D01*
X41442Y41796D01*
X41442Y41796D01*
X41443Y41795D01*
X41445Y41794D01*
X41446Y41793D01*
X41448Y41791D01*
X41451Y41788D01*
X41453Y41786D01*
X41456Y41782D01*
X41459Y41779D01*
X41462Y41775D01*
X41465Y41770D01*
X41468Y41765D01*
X41471Y41760D01*
X41474Y41754D01*
X41476Y41748D01*
X41478Y41742D01*
X41445Y41734D01*
Y41735D01*
X41445Y41736D01*
X41445Y41737D01*
X41444Y41739D01*
X41443Y41741D01*
X41442Y41744D01*
X41439Y41750D01*
X41435Y41756D01*
X41431Y41763D01*
X41426Y41769D01*
X41423Y41772D01*
X41420Y41775D01*
X41420Y41775D01*
X41419Y41775D01*
X41418Y41776D01*
X41417Y41777D01*
X41415Y41778D01*
X41413Y41779D01*
X41411Y41780D01*
X41408Y41781D01*
X41405Y41782D01*
X41402Y41783D01*
X41395Y41785D01*
X41387Y41787D01*
X41383Y41787D01*
X41375D01*
X41373Y41787D01*
X41371Y41787D01*
X41368Y41786D01*
X41364Y41786D01*
X41361Y41786D01*
X41353Y41784D01*
X41345Y41781D01*
X41341Y41780D01*
X41337Y41778D01*
X41333Y41775D01*
X41329Y41773D01*
X41329Y41773D01*
X41328Y41772D01*
X41327Y41772D01*
X41326Y41771D01*
X41325Y41769D01*
X41323Y41767D01*
X41321Y41765D01*
X41319Y41763D01*
X41316Y41760D01*
X41314Y41758D01*
X41310Y41751D01*
X41305Y41744D01*
X41302Y41736D01*
Y41735D01*
X41302Y41734D01*
X41301Y41733D01*
X41301Y41731D01*
X41300Y41729D01*
X41299Y41727D01*
X41299Y41724D01*
X41298Y41721D01*
X41297Y41717D01*
X41297Y41713D01*
X41295Y41705D01*
X41295Y41697D01*
X41294Y41687D01*
Y41687D01*
Y41686D01*
Y41684D01*
X41295Y41682D01*
Y41679D01*
X41295Y41676D01*
X41295Y41672D01*
X41295Y41668D01*
X41296Y41664D01*
X41296Y41659D01*
X41298Y41650D01*
X41301Y41640D01*
X41304Y41631D01*
Y41631D01*
X41304Y41630D01*
X41305Y41629D01*
X41305Y41627D01*
X41306Y41625D01*
X41308Y41623D01*
X41311Y41618D01*
X41315Y41612D01*
X41320Y41606D01*
X41326Y41600D01*
X41329Y41598D01*
X41332Y41595D01*
X41333D01*
X41333Y41595D01*
X41334Y41594D01*
X41336Y41593D01*
X41338Y41593D01*
X41340Y41591D01*
X41343Y41591D01*
X41345Y41590D01*
X41352Y41587D01*
X41359Y41585D01*
X41367Y41584D01*
X41371Y41584D01*
X41375Y41584D01*
X41378D01*
X41380Y41584D01*
X41382Y41584D01*
X41385Y41584D01*
X41388Y41585D01*
X41392Y41585D01*
X41399Y41587D01*
X41403Y41589D01*
X41407Y41590D01*
X41411Y41592D01*
X41415Y41594D01*
X41419Y41597D01*
X41423Y41600D01*
X41423Y41600D01*
X41424Y41600D01*
X41425Y41601D01*
X41426Y41603D01*
X41427Y41604D01*
X41429Y41606D01*
X41431Y41609D01*
X41433Y41612D01*
X41436Y41615D01*
X41438Y41618D01*
X41440Y41622D01*
X41442Y41627D01*
X41444Y41631D01*
X41446Y41636D01*
X41448Y41642D01*
X41449Y41648D01*
X41483Y41639D01*
Y41639D01*
X41482Y41637D01*
X41482Y41635D01*
X41480Y41632D01*
X41479Y41629D01*
X41478Y41625D01*
X41476Y41621D01*
X41474Y41616D01*
X41471Y41611D01*
X41469Y41606D01*
X41466Y41600D01*
X41462Y41595D01*
X41458Y41590D01*
X41454Y41585D01*
X41450Y41581D01*
X41445Y41576D01*
X41444Y41576D01*
X41443Y41576D01*
X41442Y41575D01*
X41440Y41573D01*
X41437Y41571D01*
X41434Y41570D01*
X41430Y41568D01*
X41426Y41566D01*
X41421Y41564D01*
X41417Y41562D01*
X41411Y41560D01*
X41405Y41558D01*
X41399Y41557D01*
X41392Y41556D01*
X41385Y41555D01*
X41378Y41555D01*
X41374D01*
X41371Y41555D01*
X41368Y41556D01*
X41364Y41556D01*
X41359Y41556D01*
X41355Y41557D01*
X41349Y41558D01*
X41344Y41559D01*
X41338Y41561D01*
X41333Y41562D01*
X41327Y41564D01*
X41322Y41566D01*
X41317Y41568D01*
X41312Y41571D01*
X41311Y41572D01*
X41311Y41572D01*
X41309Y41573D01*
X41308Y41575D01*
X41305Y41576D01*
X41303Y41578D01*
X41300Y41581D01*
X41297Y41584D01*
X41294Y41587D01*
X41291Y41591D01*
X41288Y41594D01*
X41285Y41599D01*
X41281Y41603D01*
X41278Y41608D01*
X41276Y41614D01*
X41273Y41620D01*
X41273Y41620D01*
X41272Y41621D01*
X41272Y41623D01*
X41271Y41625D01*
X41270Y41628D01*
X41269Y41631D01*
X41268Y41635D01*
X41266Y41640D01*
X41265Y41645D01*
X41264Y41650D01*
X41263Y41655D01*
X41262Y41661D01*
X41260Y41674D01*
X41260Y41680D01*
X41260Y41687D01*
Y41688D01*
Y41689D01*
Y41691D01*
X41260Y41694D01*
X41260Y41697D01*
X41261Y41701D01*
X41261Y41706D01*
X41262Y41710D01*
X41263Y41716D01*
X41263Y41721D01*
X41266Y41733D01*
X41268Y41739D01*
X41270Y41744D01*
X41272Y41750D01*
X41275Y41756D01*
X41275Y41756D01*
X41276Y41757D01*
X41276Y41758D01*
X41278Y41761D01*
X41279Y41763D01*
X41281Y41766D01*
X41283Y41769D01*
X41286Y41772D01*
X41289Y41776D01*
X41292Y41780D01*
X41295Y41783D01*
X41299Y41787D01*
X41303Y41790D01*
X41308Y41794D01*
X41313Y41797D01*
X41317Y41800D01*
X41318Y41801D01*
X41319Y41801D01*
X41320Y41802D01*
X41322Y41803D01*
X41325Y41804D01*
X41328Y41805D01*
X41332Y41807D01*
X41335Y41808D01*
X41340Y41809D01*
X41345Y41811D01*
X41350Y41812D01*
X41355Y41813D01*
X41366Y41815D01*
X41372Y41815D01*
X41379Y41816D01*
X41382D01*
X41385Y41815D01*
D02*
G37*
G36*
X41862Y41778D02*
X41761D01*
X41748Y41711D01*
X41748Y41711D01*
X41749Y41712D01*
X41750Y41712D01*
X41752Y41713D01*
X41754Y41714D01*
X41756Y41716D01*
X41759Y41717D01*
X41762Y41719D01*
X41766Y41720D01*
X41770Y41722D01*
X41777Y41724D01*
X41782Y41725D01*
X41786Y41726D01*
X41791Y41726D01*
X41795Y41727D01*
X41797D01*
X41799Y41726D01*
X41801D01*
X41804Y41726D01*
X41807Y41725D01*
X41811Y41725D01*
X41815Y41724D01*
X41819Y41722D01*
X41823Y41721D01*
X41828Y41719D01*
X41833Y41717D01*
X41837Y41714D01*
X41842Y41711D01*
X41847Y41708D01*
X41851Y41704D01*
X41851Y41703D01*
X41852Y41703D01*
X41853Y41701D01*
X41854Y41700D01*
X41856Y41697D01*
X41858Y41694D01*
X41860Y41691D01*
X41862Y41688D01*
X41865Y41684D01*
X41866Y41679D01*
X41869Y41674D01*
X41870Y41669D01*
X41872Y41663D01*
X41873Y41657D01*
X41874Y41651D01*
X41874Y41645D01*
Y41644D01*
Y41643D01*
Y41641D01*
X41874Y41639D01*
X41873Y41636D01*
X41873Y41633D01*
X41872Y41629D01*
X41871Y41624D01*
X41870Y41620D01*
X41869Y41615D01*
X41867Y41610D01*
X41865Y41605D01*
X41863Y41600D01*
X41860Y41595D01*
X41857Y41590D01*
X41854Y41586D01*
X41854Y41585D01*
X41853Y41584D01*
X41851Y41583D01*
X41850Y41581D01*
X41847Y41579D01*
X41844Y41576D01*
X41841Y41573D01*
X41836Y41570D01*
X41832Y41568D01*
X41827Y41565D01*
X41822Y41562D01*
X41816Y41560D01*
X41809Y41558D01*
X41803Y41556D01*
X41795Y41555D01*
X41788Y41555D01*
X41785D01*
X41782Y41555D01*
X41779Y41556D01*
X41776Y41556D01*
X41772Y41557D01*
X41768Y41558D01*
X41764Y41558D01*
X41759Y41560D01*
X41754Y41561D01*
X41750Y41563D01*
X41745Y41565D01*
X41740Y41568D01*
X41736Y41571D01*
X41732Y41574D01*
X41731Y41575D01*
X41731Y41575D01*
X41730Y41576D01*
X41728Y41578D01*
X41726Y41580D01*
X41724Y41582D01*
X41723Y41585D01*
X41720Y41588D01*
X41718Y41591D01*
X41716Y41595D01*
X41714Y41599D01*
X41712Y41604D01*
X41710Y41609D01*
X41709Y41614D01*
X41708Y41620D01*
X41707Y41625D01*
X41740Y41628D01*
Y41627D01*
X41740Y41627D01*
X41740Y41626D01*
X41740Y41624D01*
X41741Y41622D01*
X41741Y41620D01*
X41743Y41614D01*
X41745Y41609D01*
X41748Y41603D01*
X41752Y41597D01*
X41754Y41595D01*
X41756Y41592D01*
X41756D01*
X41756Y41592D01*
X41757Y41591D01*
X41758Y41590D01*
X41761Y41588D01*
X41765Y41587D01*
X41770Y41584D01*
X41775Y41582D01*
X41781Y41581D01*
X41784Y41581D01*
X41788Y41581D01*
X41790D01*
X41792Y41581D01*
X41794Y41581D01*
X41796Y41581D01*
X41801Y41583D01*
X41807Y41585D01*
X41810Y41586D01*
X41813Y41588D01*
X41816Y41590D01*
X41819Y41592D01*
X41822Y41594D01*
X41825Y41597D01*
X41826Y41597D01*
X41826Y41598D01*
X41827Y41599D01*
X41828Y41600D01*
X41829Y41602D01*
X41830Y41604D01*
X41832Y41606D01*
X41833Y41609D01*
X41835Y41612D01*
X41836Y41615D01*
X41838Y41619D01*
X41839Y41623D01*
X41840Y41627D01*
X41841Y41632D01*
X41841Y41637D01*
X41841Y41642D01*
Y41642D01*
Y41643D01*
Y41644D01*
X41841Y41646D01*
X41841Y41648D01*
X41840Y41651D01*
X41840Y41654D01*
X41839Y41657D01*
X41838Y41664D01*
X41835Y41671D01*
X41833Y41674D01*
X41831Y41677D01*
X41829Y41681D01*
X41826Y41684D01*
X41826Y41684D01*
X41825Y41684D01*
X41824Y41685D01*
X41823Y41686D01*
X41822Y41687D01*
X41820Y41689D01*
X41818Y41690D01*
X41816Y41692D01*
X41813Y41693D01*
X41810Y41694D01*
X41803Y41697D01*
X41800Y41698D01*
X41796Y41699D01*
X41792Y41699D01*
X41787Y41699D01*
X41785D01*
X41782Y41699D01*
X41778Y41698D01*
X41774Y41698D01*
X41769Y41696D01*
X41765Y41695D01*
X41760Y41692D01*
X41759Y41692D01*
X41758Y41691D01*
X41756Y41689D01*
X41753Y41688D01*
X41750Y41685D01*
X41747Y41682D01*
X41744Y41678D01*
X41741Y41674D01*
X41712Y41679D01*
X41737Y41808D01*
X41862D01*
Y41778D01*
D02*
G37*
G36*
X41628Y41559D02*
X41597D01*
Y41756D01*
X41596Y41755D01*
X41595Y41754D01*
X41592Y41752D01*
X41589Y41749D01*
X41585Y41746D01*
X41580Y41743D01*
X41574Y41739D01*
X41567Y41735D01*
X41567D01*
X41566Y41734D01*
X41566Y41734D01*
X41564Y41733D01*
X41563Y41732D01*
X41561Y41731D01*
X41556Y41729D01*
X41551Y41726D01*
X41546Y41724D01*
X41540Y41721D01*
X41535Y41719D01*
Y41749D01*
X41535Y41749D01*
X41536Y41749D01*
X41537Y41750D01*
X41539Y41751D01*
X41541Y41752D01*
X41544Y41754D01*
X41547Y41755D01*
X41550Y41757D01*
X41557Y41761D01*
X41565Y41766D01*
X41573Y41772D01*
X41580Y41778D01*
X41580Y41778D01*
X41581Y41779D01*
X41582Y41780D01*
X41583Y41781D01*
X41585Y41783D01*
X41587Y41784D01*
X41591Y41789D01*
X41595Y41794D01*
X41600Y41800D01*
X41604Y41806D01*
X41608Y41812D01*
X41628D01*
Y41559D01*
D02*
G37*
G36*
X45138Y43210D02*
X44941D01*
X44942Y43209D01*
X44943Y43208D01*
X44945Y43205D01*
X44948Y43202D01*
X44951Y43198D01*
X44954Y43192D01*
X44958Y43187D01*
X44962Y43180D01*
Y43180D01*
X44963Y43179D01*
X44963Y43178D01*
X44964Y43177D01*
X44965Y43175D01*
X44966Y43173D01*
X44968Y43169D01*
X44971Y43164D01*
X44973Y43159D01*
X44976Y43153D01*
X44978Y43148D01*
X44948D01*
X44948Y43148D01*
X44948Y43149D01*
X44947Y43150D01*
X44946Y43152D01*
X44945Y43154D01*
X44943Y43157D01*
X44942Y43160D01*
X44940Y43163D01*
X44936Y43170D01*
X44931Y43178D01*
X44925Y43186D01*
X44919Y43193D01*
X44919Y43193D01*
X44918Y43194D01*
X44917Y43195D01*
X44916Y43196D01*
X44914Y43198D01*
X44913Y43199D01*
X44908Y43204D01*
X44903Y43208D01*
X44897Y43213D01*
X44891Y43217D01*
X44885Y43220D01*
Y43240D01*
X45138D01*
Y43210D01*
D02*
G37*
G36*
Y43014D02*
X44941D01*
X44942Y43013D01*
X44943Y43012D01*
X44945Y43009D01*
X44948Y43006D01*
X44951Y43002D01*
X44954Y42997D01*
X44958Y42991D01*
X44962Y42984D01*
Y42984D01*
X44963Y42983D01*
X44963Y42983D01*
X44964Y42981D01*
X44965Y42980D01*
X44966Y42978D01*
X44968Y42973D01*
X44971Y42968D01*
X44973Y42963D01*
X44976Y42957D01*
X44978Y42952D01*
X44948D01*
X44948Y42952D01*
X44948Y42953D01*
X44947Y42954D01*
X44946Y42956D01*
X44945Y42958D01*
X44943Y42961D01*
X44942Y42964D01*
X44940Y42967D01*
X44936Y42974D01*
X44931Y42982D01*
X44925Y42990D01*
X44919Y42997D01*
X44919Y42997D01*
X44918Y42998D01*
X44917Y42999D01*
X44916Y43000D01*
X44914Y43002D01*
X44913Y43004D01*
X44908Y43008D01*
X44903Y43012D01*
X44897Y43017D01*
X44891Y43021D01*
X44885Y43025D01*
Y43045D01*
X45138D01*
Y43014D01*
D02*
G37*
G36*
Y42867D02*
X45085Y42834D01*
X45085Y42833D01*
X45084Y42833D01*
X45083Y42832D01*
X45082Y42831D01*
X45080Y42830D01*
X45077Y42828D01*
X45073Y42825D01*
X45067Y42821D01*
X45061Y42818D01*
X45056Y42813D01*
X45051Y42810D01*
X45050D01*
X45050Y42809D01*
X45049Y42808D01*
X45047Y42806D01*
X45044Y42804D01*
X45041Y42801D01*
X45039Y42798D01*
X45036Y42795D01*
X45034Y42793D01*
X45034Y42792D01*
X45033Y42791D01*
X45032Y42790D01*
X45031Y42788D01*
X45030Y42786D01*
X45029Y42783D01*
X45028Y42780D01*
X45027Y42777D01*
Y42777D01*
X45027Y42776D01*
X45027Y42775D01*
X45026Y42773D01*
Y42770D01*
X45026Y42767D01*
X45026Y42763D01*
Y42720D01*
X45138D01*
Y42687D01*
X44886D01*
Y42804D01*
X44886Y42807D01*
Y42810D01*
X44886Y42814D01*
X44887Y42818D01*
X44887Y42826D01*
X44889Y42834D01*
X44890Y42843D01*
X44892Y42846D01*
X44893Y42850D01*
Y42850D01*
X44893Y42851D01*
X44893Y42851D01*
X44894Y42853D01*
X44896Y42856D01*
X44898Y42860D01*
X44901Y42864D01*
X44906Y42869D01*
X44911Y42874D01*
X44917Y42878D01*
X44917D01*
X44917Y42878D01*
X44918Y42879D01*
X44920Y42879D01*
X44921Y42880D01*
X44923Y42881D01*
X44925Y42882D01*
X44928Y42883D01*
X44934Y42885D01*
X44940Y42887D01*
X44947Y42888D01*
X44955Y42888D01*
X44955D01*
X44956D01*
X44957D01*
X44959Y42888D01*
X44961Y42888D01*
X44964Y42888D01*
X44967Y42887D01*
X44970Y42886D01*
X44978Y42884D01*
X44981Y42883D01*
X44985Y42881D01*
X44989Y42879D01*
X44993Y42877D01*
X44996Y42874D01*
X45000Y42871D01*
X45000Y42871D01*
X45001Y42870D01*
X45002Y42869D01*
X45003Y42868D01*
X45004Y42866D01*
X45006Y42864D01*
X45008Y42861D01*
X45010Y42858D01*
X45012Y42854D01*
X45014Y42850D01*
X45016Y42846D01*
X45017Y42841D01*
X45019Y42836D01*
X45021Y42830D01*
X45022Y42824D01*
X45023Y42817D01*
Y42818D01*
X45023Y42818D01*
X45024Y42819D01*
X45026Y42822D01*
X45027Y42825D01*
X45029Y42828D01*
X45031Y42831D01*
X45034Y42835D01*
X45036Y42837D01*
X45036Y42838D01*
X45036Y42838D01*
X45037Y42839D01*
X45038Y42840D01*
X45040Y42841D01*
X45041Y42843D01*
X45045Y42846D01*
X45050Y42851D01*
X45056Y42855D01*
X45062Y42860D01*
X45069Y42865D01*
X45138Y42909D01*
Y42867D01*
D02*
G37*
G36*
X50423Y20090D02*
X50423Y20087D01*
Y20084D01*
X50423Y20080D01*
X50423Y20076D01*
X50422Y20068D01*
X50420Y20059D01*
X50419Y20051D01*
X50418Y20048D01*
X50417Y20044D01*
Y20044D01*
X50416Y20043D01*
X50416Y20042D01*
X50415Y20041D01*
X50414Y20038D01*
X50411Y20034D01*
X50408Y20029D01*
X50403Y20025D01*
X50399Y20020D01*
X50393Y20016D01*
X50392D01*
X50392Y20015D01*
X50391Y20015D01*
X50390Y20014D01*
X50388Y20013D01*
X50386Y20013D01*
X50384Y20011D01*
X50381Y20010D01*
X50376Y20008D01*
X50369Y20007D01*
X50362Y20006D01*
X50355Y20005D01*
X50354D01*
X50353D01*
X50352D01*
X50350Y20006D01*
X50348Y20006D01*
X50345Y20006D01*
X50342Y20007D01*
X50339Y20007D01*
X50332Y20010D01*
X50328Y20011D01*
X50324Y20013D01*
X50320Y20015D01*
X50316Y20017D01*
X50313Y20020D01*
X50309Y20023D01*
X50309Y20023D01*
X50308Y20024D01*
X50308Y20025D01*
X50306Y20026D01*
X50305Y20028D01*
X50303Y20030D01*
X50301Y20033D01*
X50299Y20036D01*
X50298Y20040D01*
X50296Y20043D01*
X50294Y20048D01*
X50292Y20053D01*
X50290Y20058D01*
X50289Y20064D01*
X50287Y20070D01*
X50286Y20076D01*
Y20076D01*
X50286Y20076D01*
X50285Y20074D01*
X50284Y20072D01*
X50282Y20069D01*
X50280Y20066D01*
X50278Y20062D01*
X50276Y20059D01*
X50274Y20056D01*
X50273Y20056D01*
X50273Y20056D01*
X50272Y20055D01*
X50271Y20054D01*
X50270Y20052D01*
X50268Y20051D01*
X50264Y20047D01*
X50259Y20043D01*
X50254Y20039D01*
X50247Y20034D01*
X50240Y20029D01*
X50171Y19985D01*
Y20027D01*
X50224Y20060D01*
X50224Y20060D01*
X50225Y20061D01*
X50226Y20061D01*
X50228Y20063D01*
X50230Y20064D01*
X50232Y20065D01*
X50237Y20069D01*
X50242Y20072D01*
X50248Y20076D01*
X50254Y20080D01*
X50258Y20084D01*
X50259D01*
X50259Y20085D01*
X50260Y20086D01*
X50263Y20087D01*
X50265Y20090D01*
X50268Y20092D01*
X50271Y20095D01*
X50273Y20098D01*
X50275Y20101D01*
X50275Y20101D01*
X50276Y20102D01*
X50277Y20104D01*
X50278Y20106D01*
X50279Y20108D01*
X50280Y20111D01*
X50281Y20113D01*
X50282Y20116D01*
Y20117D01*
X50282Y20117D01*
X50283Y20119D01*
X50283Y20121D01*
Y20123D01*
X50283Y20127D01*
X50283Y20131D01*
Y20173D01*
X50171D01*
Y20207D01*
X50423D01*
Y20090D01*
D02*
G37*
G36*
X50343Y19965D02*
X50345D01*
X50349Y19965D01*
X50352Y19964D01*
X50357Y19963D01*
X50361Y19963D01*
X50366Y19961D01*
X50371Y19960D01*
X50376Y19958D01*
X50381Y19956D01*
X50386Y19953D01*
X50391Y19950D01*
X50396Y19947D01*
X50401Y19943D01*
X50401Y19943D01*
X50402Y19942D01*
X50403Y19941D01*
X50404Y19939D01*
X50406Y19937D01*
X50408Y19934D01*
X50410Y19931D01*
X50412Y19927D01*
X50415Y19924D01*
X50417Y19919D01*
X50419Y19915D01*
X50421Y19910D01*
X50422Y19904D01*
X50423Y19898D01*
X50424Y19893D01*
X50424Y19886D01*
Y19884D01*
X50424Y19882D01*
Y19880D01*
X50423Y19878D01*
X50423Y19875D01*
X50423Y19872D01*
X50421Y19865D01*
X50418Y19857D01*
X50417Y19853D01*
X50415Y19849D01*
X50413Y19846D01*
X50411Y19842D01*
X50411Y19841D01*
X50410Y19841D01*
X50409Y19840D01*
X50408Y19838D01*
X50407Y19837D01*
X50405Y19835D01*
X50403Y19832D01*
X50401Y19830D01*
X50399Y19828D01*
X50396Y19825D01*
X50393Y19823D01*
X50390Y19820D01*
X50386Y19817D01*
X50382Y19815D01*
X50378Y19813D01*
X50373Y19811D01*
X50373D01*
X50372Y19810D01*
X50371Y19809D01*
X50369Y19809D01*
X50366Y19808D01*
X50363Y19807D01*
X50360Y19806D01*
X50355Y19805D01*
X50350Y19804D01*
X50345Y19803D01*
X50339Y19802D01*
X50333Y19802D01*
X50326Y19801D01*
X50319Y19800D01*
X50311Y19800D01*
X50302D01*
X50302D01*
X50300D01*
X50298D01*
X50295Y19800D01*
X50290D01*
X50286Y19800D01*
X50280Y19801D01*
X50275Y19801D01*
X50269Y19802D01*
X50262Y19802D01*
X50249Y19804D01*
X50237Y19807D01*
X50231Y19809D01*
X50225Y19811D01*
X50225D01*
X50224Y19811D01*
X50223Y19812D01*
X50221Y19812D01*
X50218Y19814D01*
X50216Y19815D01*
X50213Y19817D01*
X50209Y19818D01*
X50203Y19823D01*
X50195Y19828D01*
X50188Y19834D01*
X50185Y19838D01*
X50182Y19842D01*
X50182Y19842D01*
X50182Y19843D01*
X50181Y19844D01*
X50180Y19845D01*
X50179Y19847D01*
X50177Y19850D01*
X50176Y19852D01*
X50175Y19856D01*
X50173Y19859D01*
X50172Y19863D01*
X50171Y19867D01*
X50170Y19871D01*
X50168Y19880D01*
X50168Y19885D01*
X50167Y19890D01*
Y19893D01*
X50168Y19895D01*
X50168Y19898D01*
X50168Y19901D01*
X50169Y19904D01*
X50170Y19907D01*
X50171Y19915D01*
X50173Y19919D01*
X50174Y19923D01*
X50176Y19927D01*
X50178Y19931D01*
X50181Y19935D01*
X50184Y19939D01*
X50184Y19939D01*
X50185Y19939D01*
X50185Y19940D01*
X50187Y19942D01*
X50188Y19943D01*
X50191Y19945D01*
X50193Y19947D01*
X50196Y19948D01*
X50199Y19950D01*
X50202Y19952D01*
X50206Y19954D01*
X50210Y19956D01*
X50215Y19957D01*
X50219Y19959D01*
X50224Y19960D01*
X50230Y19961D01*
X50232Y19931D01*
X50232D01*
X50231Y19931D01*
X50230D01*
X50229Y19930D01*
X50227Y19930D01*
X50225Y19929D01*
X50221Y19928D01*
X50216Y19926D01*
X50211Y19924D01*
X50206Y19920D01*
X50204Y19919D01*
X50202Y19917D01*
X50202Y19916D01*
X50201Y19915D01*
X50199Y19912D01*
X50197Y19909D01*
X50196Y19905D01*
X50194Y19901D01*
X50193Y19895D01*
X50193Y19889D01*
Y19887D01*
X50193Y19884D01*
X50194Y19881D01*
X50194Y19877D01*
X50195Y19873D01*
X50197Y19869D01*
X50199Y19865D01*
X50199Y19864D01*
X50200Y19863D01*
X50202Y19861D01*
X50204Y19858D01*
X50206Y19856D01*
X50209Y19853D01*
X50213Y19850D01*
X50216Y19847D01*
X50217Y19847D01*
X50218Y19846D01*
X50221Y19844D01*
X50224Y19843D01*
X50228Y19841D01*
X50233Y19839D01*
X50239Y19837D01*
X50246Y19835D01*
X50246D01*
X50247Y19835D01*
X50248Y19835D01*
X50249Y19835D01*
X50251Y19834D01*
X50253Y19834D01*
X50255Y19834D01*
X50258Y19833D01*
X50263Y19832D01*
X50270Y19832D01*
X50277Y19831D01*
X50284Y19831D01*
X50284D01*
X50285D01*
X50287D01*
X50290D01*
X50289Y19831D01*
X50289Y19832D01*
X50287Y19832D01*
X50285Y19835D01*
X50281Y19837D01*
X50278Y19841D01*
X50274Y19846D01*
X50270Y19850D01*
X50266Y19856D01*
Y19856D01*
X50266Y19857D01*
X50265Y19858D01*
X50265Y19859D01*
X50264Y19861D01*
X50263Y19862D01*
X50262Y19867D01*
X50260Y19872D01*
X50258Y19878D01*
X50257Y19884D01*
X50257Y19891D01*
Y19892D01*
X50257Y19894D01*
Y19896D01*
X50258Y19899D01*
X50258Y19902D01*
X50259Y19906D01*
X50260Y19909D01*
X50261Y19914D01*
X50262Y19918D01*
X50264Y19922D01*
X50266Y19926D01*
X50269Y19931D01*
X50272Y19935D01*
X50275Y19940D01*
X50279Y19944D01*
X50280Y19944D01*
X50280Y19945D01*
X50282Y19946D01*
X50283Y19947D01*
X50286Y19949D01*
X50288Y19951D01*
X50292Y19953D01*
X50295Y19954D01*
X50299Y19957D01*
X50304Y19959D01*
X50309Y19960D01*
X50314Y19962D01*
X50320Y19963D01*
X50326Y19965D01*
X50332Y19965D01*
X50339Y19965D01*
X50340D01*
X50341D01*
X50343Y19965D01*
D02*
G37*
G36*
X49036Y20021D02*
X49035Y20018D01*
Y20015D01*
X49035Y20011D01*
X49035Y20007D01*
X49034Y19999D01*
X49033Y19990D01*
X49031Y19982D01*
X49030Y19979D01*
X49029Y19975D01*
Y19975D01*
X49029Y19974D01*
X49028Y19973D01*
X49027Y19972D01*
X49026Y19969D01*
X49023Y19965D01*
X49020Y19960D01*
X49016Y19956D01*
X49011Y19951D01*
X49005Y19947D01*
X49004D01*
X49004Y19946D01*
X49003Y19946D01*
X49002Y19945D01*
X49000Y19945D01*
X48998Y19944D01*
X48996Y19943D01*
X48994Y19942D01*
X48988Y19940D01*
X48982Y19938D01*
X48974Y19937D01*
X48967Y19936D01*
X48967D01*
X48966D01*
X48964D01*
X48962Y19937D01*
X48960Y19937D01*
X48957Y19937D01*
X48954Y19938D01*
X48951Y19939D01*
X48944Y19941D01*
X48940Y19942D01*
X48936Y19944D01*
X48932Y19946D01*
X48929Y19948D01*
X48925Y19951D01*
X48921Y19954D01*
X48921Y19954D01*
X48921Y19955D01*
X48920Y19956D01*
X48918Y19957D01*
X48917Y19959D01*
X48915Y19961D01*
X48914Y19964D01*
X48912Y19967D01*
X48910Y19971D01*
X48908Y19975D01*
X48906Y19979D01*
X48904Y19984D01*
X48902Y19989D01*
X48901Y19995D01*
X48899Y20001D01*
X48898Y20008D01*
Y20007D01*
X48898Y20007D01*
X48897Y20005D01*
X48896Y20003D01*
X48894Y20000D01*
X48892Y19997D01*
X48890Y19993D01*
X48888Y19990D01*
X48886Y19987D01*
X48885Y19987D01*
X48885Y19987D01*
X48884Y19986D01*
X48883Y19985D01*
X48882Y19984D01*
X48880Y19982D01*
X48876Y19978D01*
X48872Y19974D01*
X48866Y19970D01*
X48859Y19965D01*
X48852Y19960D01*
X48784Y19916D01*
Y19958D01*
X48836Y19991D01*
X48836Y19991D01*
X48837Y19992D01*
X48838Y19993D01*
X48840Y19994D01*
X48842Y19995D01*
X48844Y19996D01*
X48849Y20000D01*
X48855Y20003D01*
X48860Y20007D01*
X48866Y20011D01*
X48871Y20015D01*
X48871D01*
X48871Y20016D01*
X48873Y20017D01*
X48875Y20018D01*
X48877Y20021D01*
X48880Y20023D01*
X48883Y20026D01*
X48885Y20029D01*
X48887Y20032D01*
X48888Y20032D01*
X48888Y20034D01*
X48889Y20035D01*
X48890Y20037D01*
X48891Y20039D01*
X48892Y20042D01*
X48893Y20044D01*
X48894Y20047D01*
Y20048D01*
X48894Y20049D01*
X48895Y20050D01*
X48895Y20052D01*
Y20055D01*
X48895Y20058D01*
X48896Y20062D01*
Y20104D01*
X48784D01*
Y20138D01*
X49036D01*
Y20021D01*
D02*
G37*
G36*
X48861Y19897D02*
X48863D01*
X48865Y19896D01*
X48868Y19896D01*
X48871Y19895D01*
X48877Y19894D01*
X48884Y19892D01*
X48891Y19889D01*
X48894Y19887D01*
X48897Y19885D01*
X48898Y19884D01*
X48898Y19884D01*
X48899Y19883D01*
X48900Y19882D01*
X48902Y19881D01*
X48903Y19880D01*
X48905Y19878D01*
X48906Y19875D01*
X48910Y19871D01*
X48914Y19865D01*
X48917Y19857D01*
X48920Y19849D01*
Y19850D01*
X48920Y19850D01*
X48921Y19851D01*
X48921Y19852D01*
X48922Y19854D01*
X48923Y19856D01*
X48925Y19860D01*
X48928Y19865D01*
X48932Y19869D01*
X48935Y19874D01*
X48940Y19878D01*
X48940D01*
X48941Y19878D01*
X48941Y19878D01*
X48942Y19879D01*
X48945Y19881D01*
X48949Y19882D01*
X48953Y19884D01*
X48959Y19886D01*
X48965Y19887D01*
X48971Y19887D01*
X48972D01*
X48973D01*
X48974Y19887D01*
X48976D01*
X48978Y19886D01*
X48981Y19886D01*
X48984Y19885D01*
X48988Y19884D01*
X48991Y19883D01*
X48995Y19882D01*
X48998Y19881D01*
X49003Y19879D01*
X49006Y19876D01*
X49010Y19874D01*
X49014Y19871D01*
X49018Y19867D01*
X49018Y19867D01*
X49018Y19866D01*
X49019Y19865D01*
X49021Y19864D01*
X49022Y19862D01*
X49024Y19859D01*
X49025Y19857D01*
X49027Y19853D01*
X49029Y19850D01*
X49030Y19846D01*
X49032Y19842D01*
X49033Y19837D01*
X49035Y19832D01*
X49036Y19827D01*
X49036Y19821D01*
X49036Y19815D01*
Y19812D01*
X49036Y19809D01*
X49036Y19807D01*
X49035Y19803D01*
X49035Y19800D01*
X49034Y19796D01*
X49033Y19792D01*
X49032Y19787D01*
X49030Y19783D01*
X49028Y19779D01*
X49026Y19774D01*
X49023Y19770D01*
X49021Y19765D01*
X49017Y19762D01*
X49017Y19761D01*
X49016Y19761D01*
X49015Y19760D01*
X49014Y19758D01*
X49012Y19757D01*
X49010Y19755D01*
X49007Y19753D01*
X49004Y19752D01*
X49001Y19750D01*
X48997Y19748D01*
X48994Y19746D01*
X48989Y19745D01*
X48985Y19743D01*
X48980Y19742D01*
X48976Y19742D01*
X48971Y19741D01*
X48970D01*
X48970D01*
X48969D01*
X48968D01*
X48966Y19742D01*
X48964Y19742D01*
X48960Y19742D01*
X48956Y19744D01*
X48950Y19745D01*
X48945Y19748D01*
X48940Y19751D01*
X48940D01*
X48939Y19751D01*
X48938Y19752D01*
X48936Y19755D01*
X48933Y19758D01*
X48930Y19762D01*
X48926Y19766D01*
X48923Y19772D01*
X48920Y19779D01*
Y19778D01*
X48920Y19777D01*
X48919Y19776D01*
X48919Y19775D01*
X48918Y19773D01*
X48917Y19771D01*
X48914Y19765D01*
X48911Y19760D01*
X48906Y19754D01*
X48902Y19748D01*
X48896Y19743D01*
X48895Y19743D01*
X48895Y19743D01*
X48894Y19742D01*
X48893Y19741D01*
X48891Y19741D01*
X48889Y19739D01*
X48887Y19738D01*
X48884Y19737D01*
X48879Y19735D01*
X48872Y19733D01*
X48864Y19732D01*
X48860Y19731D01*
X48856D01*
X48855D01*
X48854D01*
X48853Y19731D01*
X48850D01*
X48847Y19732D01*
X48844Y19732D01*
X48841Y19733D01*
X48837Y19734D01*
X48832Y19735D01*
X48828Y19736D01*
X48824Y19738D01*
X48819Y19741D01*
X48814Y19743D01*
X48810Y19746D01*
X48805Y19750D01*
X48801Y19754D01*
X48801Y19754D01*
X48801Y19755D01*
X48799Y19756D01*
X48798Y19758D01*
X48796Y19761D01*
X48795Y19763D01*
X48792Y19767D01*
X48790Y19770D01*
X48789Y19774D01*
X48786Y19779D01*
X48785Y19784D01*
X48783Y19789D01*
X48781Y19795D01*
X48780Y19801D01*
X48780Y19807D01*
X48780Y19814D01*
Y19816D01*
X48780Y19818D01*
Y19820D01*
X48780Y19823D01*
X48781Y19827D01*
X48781Y19831D01*
X48782Y19836D01*
X48783Y19840D01*
X48785Y19845D01*
X48787Y19850D01*
X48789Y19855D01*
X48791Y19860D01*
X48794Y19865D01*
X48798Y19870D01*
X48801Y19874D01*
X48802Y19875D01*
X48802Y19875D01*
X48804Y19877D01*
X48805Y19878D01*
X48808Y19880D01*
X48810Y19881D01*
X48813Y19884D01*
X48817Y19886D01*
X48820Y19888D01*
X48825Y19890D01*
X48829Y19892D01*
X48834Y19893D01*
X48839Y19895D01*
X48845Y19896D01*
X48850Y19897D01*
X48857Y19897D01*
X48857D01*
X48858D01*
X48859D01*
X48861Y19897D01*
D02*
G37*
G36*
X33901Y26016D02*
X33903D01*
X33906Y26016D01*
X33909Y26015D01*
X33913Y26015D01*
X33917Y26014D01*
X33922Y26012D01*
X33926Y26011D01*
X33931Y26009D01*
X33935Y26006D01*
X33940Y26004D01*
X33945Y26000D01*
X33949Y25997D01*
X33954Y25992D01*
X33954Y25992D01*
X33955Y25991D01*
X33956Y25990D01*
X33957Y25988D01*
X33959Y25986D01*
X33961Y25983D01*
X33963Y25980D01*
X33965Y25976D01*
X33967Y25972D01*
X33969Y25967D01*
X33971Y25962D01*
X33973Y25957D01*
X33974Y25951D01*
X33975Y25945D01*
X33976Y25939D01*
X33976Y25932D01*
Y25930D01*
X33976Y25929D01*
Y25926D01*
X33976Y25923D01*
X33975Y25920D01*
X33975Y25917D01*
X33974Y25912D01*
X33973Y25908D01*
X33971Y25904D01*
X33970Y25899D01*
X33968Y25894D01*
X33966Y25890D01*
X33963Y25885D01*
X33960Y25881D01*
X33957Y25877D01*
X33956Y25876D01*
X33956Y25876D01*
X33955Y25875D01*
X33953Y25873D01*
X33951Y25871D01*
X33949Y25870D01*
X33946Y25868D01*
X33943Y25865D01*
X33940Y25863D01*
X33935Y25861D01*
X33931Y25859D01*
X33927Y25857D01*
X33922Y25855D01*
X33917Y25854D01*
X33911Y25853D01*
X33905Y25852D01*
X33901Y25883D01*
X33902D01*
X33902Y25883D01*
X33904Y25883D01*
X33906Y25884D01*
X33908Y25884D01*
X33910Y25885D01*
X33916Y25887D01*
X33922Y25889D01*
X33929Y25892D01*
X33934Y25896D01*
X33937Y25898D01*
X33939Y25900D01*
Y25901D01*
X33940Y25901D01*
X33940Y25902D01*
X33941Y25903D01*
X33943Y25905D01*
X33945Y25909D01*
X33947Y25914D01*
X33949Y25919D01*
X33950Y25925D01*
X33951Y25932D01*
Y25934D01*
X33950Y25936D01*
X33950Y25937D01*
X33950Y25940D01*
X33949Y25945D01*
X33947Y25951D01*
X33944Y25957D01*
X33943Y25960D01*
X33941Y25963D01*
X33938Y25966D01*
X33936Y25969D01*
X33935Y25969D01*
X33935Y25969D01*
X33934Y25970D01*
X33933Y25971D01*
X33932Y25972D01*
X33930Y25974D01*
X33928Y25975D01*
X33925Y25977D01*
X33920Y25979D01*
X33914Y25982D01*
X33906Y25983D01*
X33902Y25984D01*
X33898Y25984D01*
X33898D01*
X33897D01*
X33896D01*
X33895Y25984D01*
X33893Y25983D01*
X33891Y25983D01*
X33886Y25982D01*
X33880Y25980D01*
X33875Y25978D01*
X33872Y25976D01*
X33869Y25974D01*
X33866Y25972D01*
X33863Y25970D01*
X33863Y25969D01*
X33863Y25969D01*
X33862Y25968D01*
X33861Y25967D01*
X33860Y25966D01*
X33859Y25964D01*
X33856Y25960D01*
X33854Y25955D01*
X33852Y25949D01*
X33850Y25942D01*
X33850Y25938D01*
X33849Y25935D01*
Y25933D01*
X33850Y25931D01*
Y25929D01*
X33850Y25925D01*
X33851Y25922D01*
X33852Y25917D01*
X33853Y25913D01*
X33826Y25916D01*
Y25917D01*
X33826Y25918D01*
X33826Y25920D01*
Y25923D01*
X33826Y25924D01*
Y25926D01*
X33826Y25928D01*
X33825Y25933D01*
X33824Y25938D01*
X33822Y25944D01*
X33819Y25951D01*
X33816Y25957D01*
Y25957D01*
X33815Y25957D01*
X33815Y25958D01*
X33814Y25959D01*
X33811Y25962D01*
X33808Y25965D01*
X33804Y25968D01*
X33798Y25970D01*
X33795Y25971D01*
X33792Y25972D01*
X33788Y25972D01*
X33784Y25973D01*
X33784D01*
X33783D01*
X33783D01*
X33781Y25972D01*
X33778Y25972D01*
X33774Y25971D01*
X33770Y25970D01*
X33765Y25968D01*
X33760Y25965D01*
X33758Y25963D01*
X33756Y25961D01*
X33755Y25960D01*
X33754Y25959D01*
X33752Y25956D01*
X33750Y25953D01*
X33748Y25949D01*
X33746Y25944D01*
X33745Y25938D01*
X33745Y25931D01*
Y25930D01*
X33745Y25928D01*
Y25927D01*
X33745Y25925D01*
X33746Y25921D01*
X33747Y25916D01*
X33750Y25911D01*
X33752Y25906D01*
X33756Y25901D01*
X33757Y25900D01*
X33758Y25899D01*
X33761Y25897D01*
X33765Y25895D01*
X33769Y25892D01*
X33775Y25889D01*
X33782Y25887D01*
X33790Y25886D01*
X33784Y25855D01*
X33784D01*
X33783Y25855D01*
X33781Y25855D01*
X33779Y25856D01*
X33777Y25857D01*
X33774Y25858D01*
X33771Y25859D01*
X33767Y25860D01*
X33759Y25864D01*
X33755Y25865D01*
X33751Y25868D01*
X33747Y25871D01*
X33744Y25874D01*
X33740Y25877D01*
X33736Y25880D01*
X33736Y25881D01*
X33736Y25881D01*
X33735Y25883D01*
X33734Y25884D01*
X33732Y25886D01*
X33731Y25888D01*
X33729Y25891D01*
X33728Y25894D01*
X33726Y25898D01*
X33725Y25902D01*
X33723Y25906D01*
X33722Y25910D01*
X33721Y25915D01*
X33720Y25920D01*
X33719Y25925D01*
X33719Y25930D01*
Y25934D01*
X33719Y25936D01*
X33720Y25938D01*
X33720Y25943D01*
X33721Y25949D01*
X33723Y25955D01*
X33725Y25962D01*
X33728Y25968D01*
Y25969D01*
X33728Y25969D01*
X33729Y25970D01*
X33730Y25971D01*
X33732Y25974D01*
X33735Y25978D01*
X33738Y25983D01*
X33742Y25987D01*
X33747Y25991D01*
X33752Y25995D01*
X33753D01*
X33753Y25995D01*
X33754Y25996D01*
X33755Y25997D01*
X33756Y25997D01*
X33758Y25998D01*
X33762Y26000D01*
X33767Y26001D01*
X33772Y26003D01*
X33778Y26004D01*
X33785Y26004D01*
X33785D01*
X33786D01*
X33786D01*
X33787D01*
X33791Y26004D01*
X33795Y26003D01*
X33799Y26002D01*
X33804Y26001D01*
X33809Y25998D01*
X33814Y25995D01*
X33815D01*
X33815Y25995D01*
X33817Y25994D01*
X33819Y25992D01*
X33822Y25989D01*
X33826Y25985D01*
X33829Y25981D01*
X33833Y25975D01*
X33836Y25969D01*
Y25970D01*
X33836Y25971D01*
X33836Y25972D01*
X33837Y25973D01*
X33837Y25975D01*
X33838Y25977D01*
X33840Y25982D01*
X33843Y25988D01*
X33847Y25994D01*
X33852Y25999D01*
X33857Y26004D01*
X33858Y26004D01*
X33858Y26005D01*
X33859Y26005D01*
X33860Y26006D01*
X33862Y26007D01*
X33864Y26008D01*
X33866Y26009D01*
X33869Y26010D01*
X33871Y26012D01*
X33874Y26013D01*
X33881Y26015D01*
X33889Y26016D01*
X33893Y26017D01*
X33898D01*
X33898D01*
X33899D01*
X33901Y26016D01*
D02*
G37*
G36*
X33894Y25823D02*
X33896Y25822D01*
X33899Y25821D01*
X33902Y25820D01*
X33906Y25818D01*
X33911Y25817D01*
X33915Y25814D01*
X33920Y25812D01*
X33925Y25809D01*
X33931Y25806D01*
X33936Y25803D01*
X33941Y25799D01*
X33946Y25795D01*
X33950Y25790D01*
X33955Y25785D01*
X33955Y25785D01*
X33956Y25784D01*
X33957Y25782D01*
X33958Y25780D01*
X33960Y25778D01*
X33962Y25775D01*
X33964Y25771D01*
X33965Y25767D01*
X33967Y25762D01*
X33969Y25757D01*
X33971Y25752D01*
X33973Y25746D01*
X33974Y25739D01*
X33975Y25733D01*
X33976Y25726D01*
X33976Y25719D01*
Y25715D01*
X33976Y25712D01*
X33976Y25708D01*
X33975Y25704D01*
X33975Y25700D01*
X33974Y25695D01*
X33973Y25690D01*
X33972Y25684D01*
X33971Y25679D01*
X33969Y25674D01*
X33967Y25668D01*
X33965Y25662D01*
X33963Y25657D01*
X33960Y25652D01*
X33959Y25652D01*
X33959Y25651D01*
X33958Y25650D01*
X33957Y25648D01*
X33955Y25646D01*
X33953Y25644D01*
X33950Y25641D01*
X33947Y25638D01*
X33944Y25635D01*
X33941Y25632D01*
X33937Y25629D01*
X33932Y25625D01*
X33928Y25622D01*
X33923Y25619D01*
X33917Y25616D01*
X33912Y25613D01*
X33911Y25613D01*
X33910Y25613D01*
X33908Y25612D01*
X33906Y25612D01*
X33903Y25610D01*
X33900Y25609D01*
X33896Y25608D01*
X33891Y25607D01*
X33887Y25606D01*
X33881Y25604D01*
X33876Y25603D01*
X33870Y25603D01*
X33857Y25601D01*
X33851Y25601D01*
X33844Y25600D01*
X33844D01*
X33843D01*
X33840D01*
X33838Y25601D01*
X33834Y25601D01*
X33830Y25601D01*
X33826Y25602D01*
X33821Y25602D01*
X33816Y25603D01*
X33810Y25604D01*
X33798Y25607D01*
X33793Y25609D01*
X33787Y25610D01*
X33781Y25613D01*
X33775Y25615D01*
X33775Y25616D01*
X33774Y25616D01*
X33773Y25617D01*
X33771Y25618D01*
X33768Y25620D01*
X33765Y25622D01*
X33762Y25624D01*
X33759Y25626D01*
X33756Y25629D01*
X33752Y25632D01*
X33748Y25636D01*
X33744Y25640D01*
X33741Y25644D01*
X33737Y25648D01*
X33734Y25653D01*
X33731Y25658D01*
X33731Y25658D01*
X33730Y25659D01*
X33730Y25661D01*
X33728Y25663D01*
X33727Y25665D01*
X33726Y25669D01*
X33725Y25672D01*
X33723Y25676D01*
X33722Y25680D01*
X33721Y25685D01*
X33719Y25690D01*
X33718Y25696D01*
X33716Y25707D01*
X33716Y25713D01*
X33716Y25719D01*
Y25723D01*
X33716Y25725D01*
X33716Y25729D01*
X33717Y25733D01*
X33717Y25737D01*
X33718Y25741D01*
X33719Y25746D01*
X33720Y25751D01*
X33722Y25757D01*
X33724Y25762D01*
X33726Y25767D01*
X33729Y25773D01*
X33732Y25778D01*
X33735Y25783D01*
X33735Y25783D01*
X33736Y25784D01*
X33737Y25785D01*
X33739Y25787D01*
X33741Y25789D01*
X33743Y25791D01*
X33746Y25794D01*
X33749Y25797D01*
X33753Y25800D01*
X33757Y25803D01*
X33761Y25806D01*
X33766Y25809D01*
X33771Y25812D01*
X33777Y25814D01*
X33783Y25817D01*
X33789Y25819D01*
X33797Y25786D01*
X33796D01*
X33796Y25785D01*
X33794Y25785D01*
X33792Y25784D01*
X33790Y25784D01*
X33787Y25782D01*
X33781Y25779D01*
X33775Y25776D01*
X33768Y25771D01*
X33762Y25766D01*
X33759Y25763D01*
X33757Y25760D01*
X33756Y25760D01*
X33756Y25760D01*
X33756Y25759D01*
X33755Y25757D01*
X33754Y25756D01*
X33753Y25754D01*
X33751Y25752D01*
X33750Y25749D01*
X33749Y25746D01*
X33748Y25743D01*
X33746Y25736D01*
X33745Y25728D01*
X33744Y25723D01*
Y25716D01*
X33744Y25714D01*
X33745Y25711D01*
X33745Y25708D01*
X33745Y25705D01*
X33746Y25702D01*
X33748Y25694D01*
X33750Y25686D01*
X33752Y25681D01*
X33754Y25677D01*
X33756Y25674D01*
X33758Y25670D01*
X33759Y25669D01*
X33759Y25669D01*
X33760Y25668D01*
X33761Y25666D01*
X33762Y25665D01*
X33764Y25663D01*
X33766Y25661D01*
X33768Y25659D01*
X33771Y25657D01*
X33774Y25654D01*
X33780Y25650D01*
X33787Y25646D01*
X33796Y25642D01*
X33796D01*
X33797Y25642D01*
X33798Y25642D01*
X33800Y25641D01*
X33802Y25641D01*
X33804Y25640D01*
X33807Y25639D01*
X33810Y25639D01*
X33814Y25638D01*
X33818Y25637D01*
X33826Y25636D01*
X33835Y25635D01*
X33844Y25635D01*
X33844D01*
X33845D01*
X33847D01*
X33849Y25635D01*
X33852D01*
X33855Y25635D01*
X33859Y25636D01*
X33863Y25636D01*
X33867Y25636D01*
X33872Y25637D01*
X33881Y25639D01*
X33891Y25641D01*
X33900Y25644D01*
X33900D01*
X33901Y25645D01*
X33902Y25645D01*
X33904Y25646D01*
X33906Y25647D01*
X33908Y25648D01*
X33914Y25651D01*
X33920Y25655D01*
X33925Y25660D01*
X33931Y25666D01*
X33934Y25669D01*
X33936Y25673D01*
Y25673D01*
X33937Y25674D01*
X33937Y25675D01*
X33938Y25677D01*
X33939Y25678D01*
X33940Y25681D01*
X33941Y25683D01*
X33942Y25686D01*
X33944Y25692D01*
X33946Y25699D01*
X33947Y25707D01*
X33947Y25712D01*
X33948Y25716D01*
Y25719D01*
X33947Y25721D01*
X33947Y25723D01*
X33947Y25726D01*
X33946Y25729D01*
X33946Y25732D01*
X33944Y25740D01*
X33943Y25744D01*
X33941Y25748D01*
X33939Y25752D01*
X33937Y25756D01*
X33934Y25760D01*
X33932Y25763D01*
X33931Y25764D01*
X33931Y25764D01*
X33930Y25765D01*
X33929Y25767D01*
X33927Y25768D01*
X33925Y25770D01*
X33922Y25772D01*
X33920Y25774D01*
X33916Y25776D01*
X33913Y25778D01*
X33909Y25781D01*
X33905Y25783D01*
X33900Y25785D01*
X33895Y25787D01*
X33889Y25788D01*
X33884Y25790D01*
X33892Y25823D01*
X33893D01*
X33894Y25823D01*
D02*
G37*
G36*
X40125Y26707D02*
X40128Y26707D01*
X40132Y26706D01*
X40136Y26706D01*
X40141Y26705D01*
X40146Y26704D01*
X40151Y26703D01*
X40156Y26701D01*
X40162Y26699D01*
X40167Y26697D01*
X40172Y26694D01*
X40177Y26691D01*
X40182Y26688D01*
X40183Y26688D01*
X40183Y26687D01*
X40185Y26686D01*
X40186Y26684D01*
X40189Y26682D01*
X40191Y26680D01*
X40194Y26677D01*
X40197Y26674D01*
X40200Y26670D01*
X40203Y26666D01*
X40206Y26662D01*
X40208Y26657D01*
X40211Y26652D01*
X40214Y26646D01*
X40216Y26640D01*
X40218Y26634D01*
X40186Y26626D01*
Y26626D01*
X40185Y26627D01*
X40185Y26629D01*
X40184Y26631D01*
X40183Y26633D01*
X40182Y26635D01*
X40179Y26641D01*
X40176Y26648D01*
X40171Y26655D01*
X40166Y26661D01*
X40163Y26664D01*
X40160Y26666D01*
X40160Y26667D01*
X40159Y26667D01*
X40158Y26667D01*
X40157Y26668D01*
X40155Y26669D01*
X40153Y26670D01*
X40151Y26672D01*
X40149Y26673D01*
X40146Y26674D01*
X40142Y26675D01*
X40135Y26677D01*
X40127Y26678D01*
X40123Y26679D01*
X40115D01*
X40113Y26679D01*
X40111Y26678D01*
X40108Y26678D01*
X40105Y26678D01*
X40101Y26677D01*
X40093Y26675D01*
X40085Y26673D01*
X40081Y26671D01*
X40077Y26669D01*
X40073Y26667D01*
X40069Y26665D01*
X40069Y26664D01*
X40069Y26664D01*
X40067Y26663D01*
X40066Y26662D01*
X40065Y26661D01*
X40063Y26659D01*
X40061Y26657D01*
X40059Y26655D01*
X40057Y26652D01*
X40054Y26649D01*
X40050Y26643D01*
X40046Y26636D01*
X40042Y26627D01*
Y26627D01*
X40042Y26626D01*
X40041Y26625D01*
X40041Y26623D01*
X40040Y26621D01*
X40040Y26619D01*
X40039Y26616D01*
X40038Y26613D01*
X40037Y26609D01*
X40037Y26605D01*
X40035Y26597D01*
X40035Y26588D01*
X40034Y26579D01*
Y26579D01*
Y26578D01*
Y26576D01*
X40035Y26574D01*
Y26571D01*
X40035Y26568D01*
X40035Y26564D01*
X40035Y26560D01*
X40036Y26556D01*
X40037Y26551D01*
X40038Y26542D01*
X40041Y26532D01*
X40044Y26523D01*
Y26522D01*
X40044Y26522D01*
X40045Y26521D01*
X40045Y26519D01*
X40046Y26517D01*
X40048Y26515D01*
X40051Y26509D01*
X40055Y26503D01*
X40060Y26498D01*
X40066Y26492D01*
X40069Y26489D01*
X40073Y26487D01*
X40073D01*
X40073Y26486D01*
X40075Y26486D01*
X40076Y26485D01*
X40078Y26484D01*
X40080Y26483D01*
X40083Y26482D01*
X40085Y26481D01*
X40092Y26479D01*
X40099Y26477D01*
X40107Y26476D01*
X40111Y26476D01*
X40115Y26475D01*
X40118D01*
X40120Y26476D01*
X40123Y26476D01*
X40125Y26476D01*
X40129Y26477D01*
X40132Y26477D01*
X40139Y26479D01*
X40143Y26480D01*
X40147Y26482D01*
X40152Y26484D01*
X40155Y26486D01*
X40159Y26489D01*
X40163Y26491D01*
X40163Y26492D01*
X40164Y26492D01*
X40165Y26493D01*
X40166Y26494D01*
X40168Y26496D01*
X40170Y26498D01*
X40171Y26501D01*
X40174Y26503D01*
X40176Y26507D01*
X40178Y26510D01*
X40180Y26514D01*
X40182Y26518D01*
X40184Y26523D01*
X40186Y26528D01*
X40188Y26534D01*
X40189Y26539D01*
X40223Y26531D01*
Y26530D01*
X40222Y26529D01*
X40222Y26527D01*
X40221Y26524D01*
X40219Y26521D01*
X40218Y26517D01*
X40216Y26512D01*
X40214Y26508D01*
X40212Y26503D01*
X40209Y26498D01*
X40206Y26492D01*
X40202Y26487D01*
X40198Y26482D01*
X40194Y26477D01*
X40190Y26473D01*
X40185Y26468D01*
X40185Y26468D01*
X40183Y26467D01*
X40182Y26466D01*
X40180Y26465D01*
X40177Y26463D01*
X40174Y26461D01*
X40171Y26459D01*
X40166Y26457D01*
X40162Y26456D01*
X40157Y26454D01*
X40151Y26452D01*
X40145Y26450D01*
X40139Y26449D01*
X40132Y26448D01*
X40126Y26447D01*
X40118Y26447D01*
X40114D01*
X40111Y26447D01*
X40108Y26447D01*
X40104Y26448D01*
X40100Y26448D01*
X40095Y26449D01*
X40090Y26450D01*
X40084Y26451D01*
X40079Y26452D01*
X40073Y26454D01*
X40067Y26456D01*
X40062Y26458D01*
X40057Y26460D01*
X40052Y26463D01*
X40052Y26463D01*
X40051Y26464D01*
X40049Y26465D01*
X40048Y26466D01*
X40046Y26468D01*
X40043Y26470D01*
X40040Y26473D01*
X40037Y26476D01*
X40034Y26479D01*
X40031Y26482D01*
X40028Y26486D01*
X40025Y26491D01*
X40022Y26495D01*
X40019Y26500D01*
X40016Y26506D01*
X40013Y26511D01*
X40013Y26512D01*
X40013Y26513D01*
X40012Y26515D01*
X40011Y26517D01*
X40010Y26520D01*
X40009Y26523D01*
X40008Y26527D01*
X40007Y26531D01*
X40005Y26536D01*
X40004Y26542D01*
X40003Y26547D01*
X40002Y26553D01*
X40001Y26566D01*
X40000Y26572D01*
X40000Y26579D01*
Y26579D01*
Y26580D01*
Y26583D01*
X40000Y26585D01*
X40001Y26589D01*
X40001Y26593D01*
X40001Y26597D01*
X40002Y26602D01*
X40003Y26607D01*
X40004Y26613D01*
X40006Y26625D01*
X40008Y26630D01*
X40010Y26636D01*
X40012Y26642D01*
X40015Y26648D01*
X40015Y26648D01*
X40016Y26649D01*
X40017Y26650D01*
X40018Y26652D01*
X40019Y26655D01*
X40021Y26658D01*
X40023Y26661D01*
X40026Y26664D01*
X40029Y26667D01*
X40032Y26671D01*
X40035Y26675D01*
X40039Y26679D01*
X40043Y26682D01*
X40048Y26686D01*
X40053Y26689D01*
X40058Y26692D01*
X40058Y26692D01*
X40059Y26693D01*
X40060Y26693D01*
X40063Y26694D01*
X40065Y26696D01*
X40068Y26697D01*
X40072Y26698D01*
X40076Y26700D01*
X40080Y26701D01*
X40085Y26702D01*
X40090Y26704D01*
X40095Y26705D01*
X40106Y26707D01*
X40112Y26707D01*
X40119Y26707D01*
X40122D01*
X40125Y26707D01*
D02*
G37*
G36*
X40406Y26670D02*
X40306D01*
X40292Y26602D01*
X40293Y26603D01*
X40293Y26603D01*
X40295Y26604D01*
X40296Y26605D01*
X40298Y26606D01*
X40301Y26607D01*
X40304Y26609D01*
X40307Y26610D01*
X40310Y26612D01*
X40314Y26613D01*
X40322Y26616D01*
X40326Y26617D01*
X40331Y26618D01*
X40335Y26618D01*
X40340Y26618D01*
X40341D01*
X40343Y26618D01*
X40345D01*
X40348Y26617D01*
X40351Y26617D01*
X40355Y26616D01*
X40359Y26616D01*
X40363Y26614D01*
X40368Y26613D01*
X40372Y26611D01*
X40377Y26609D01*
X40382Y26606D01*
X40386Y26603D01*
X40391Y26599D01*
X40395Y26595D01*
X40396Y26595D01*
X40396Y26594D01*
X40397Y26593D01*
X40399Y26591D01*
X40401Y26589D01*
X40403Y26586D01*
X40405Y26583D01*
X40407Y26580D01*
X40409Y26575D01*
X40411Y26571D01*
X40413Y26566D01*
X40415Y26561D01*
X40416Y26555D01*
X40417Y26549D01*
X40418Y26543D01*
X40418Y26536D01*
Y26536D01*
Y26535D01*
Y26533D01*
X40418Y26531D01*
X40418Y26528D01*
X40417Y26524D01*
X40417Y26521D01*
X40416Y26516D01*
X40415Y26512D01*
X40413Y26507D01*
X40412Y26502D01*
X40410Y26497D01*
X40408Y26492D01*
X40405Y26487D01*
X40402Y26482D01*
X40398Y26477D01*
X40398Y26477D01*
X40397Y26476D01*
X40396Y26475D01*
X40394Y26473D01*
X40391Y26470D01*
X40388Y26468D01*
X40385Y26465D01*
X40381Y26462D01*
X40376Y26459D01*
X40372Y26456D01*
X40366Y26454D01*
X40360Y26452D01*
X40354Y26450D01*
X40347Y26448D01*
X40340Y26447D01*
X40332Y26447D01*
X40329D01*
X40326Y26447D01*
X40324Y26447D01*
X40320Y26448D01*
X40316Y26448D01*
X40312Y26449D01*
X40308Y26450D01*
X40303Y26451D01*
X40299Y26453D01*
X40294Y26455D01*
X40289Y26457D01*
X40285Y26460D01*
X40280Y26463D01*
X40276Y26466D01*
X40276Y26466D01*
X40275Y26467D01*
X40274Y26468D01*
X40273Y26470D01*
X40271Y26471D01*
X40269Y26474D01*
X40267Y26476D01*
X40265Y26480D01*
X40263Y26483D01*
X40260Y26487D01*
X40259Y26491D01*
X40257Y26495D01*
X40255Y26500D01*
X40253Y26506D01*
X40252Y26511D01*
X40251Y26517D01*
X40284Y26519D01*
Y26519D01*
X40284Y26518D01*
X40284Y26517D01*
X40285Y26516D01*
X40285Y26514D01*
X40286Y26511D01*
X40287Y26506D01*
X40289Y26500D01*
X40292Y26494D01*
X40296Y26489D01*
X40298Y26486D01*
X40300Y26484D01*
X40301D01*
X40301Y26483D01*
X40302Y26483D01*
X40303Y26482D01*
X40305Y26480D01*
X40309Y26478D01*
X40314Y26476D01*
X40319Y26474D01*
X40325Y26473D01*
X40329Y26473D01*
X40332Y26472D01*
X40334D01*
X40336Y26473D01*
X40338Y26473D01*
X40340Y26473D01*
X40345Y26474D01*
X40351Y26476D01*
X40354Y26478D01*
X40358Y26479D01*
X40361Y26481D01*
X40364Y26483D01*
X40367Y26486D01*
X40370Y26489D01*
X40370Y26489D01*
X40370Y26490D01*
X40371Y26491D01*
X40372Y26492D01*
X40373Y26494D01*
X40375Y26496D01*
X40376Y26498D01*
X40378Y26501D01*
X40379Y26504D01*
X40381Y26507D01*
X40382Y26511D01*
X40383Y26515D01*
X40384Y26519D01*
X40385Y26524D01*
X40385Y26528D01*
X40385Y26534D01*
Y26534D01*
Y26535D01*
Y26536D01*
X40385Y26538D01*
X40385Y26540D01*
X40385Y26543D01*
X40384Y26546D01*
X40384Y26549D01*
X40382Y26556D01*
X40379Y26563D01*
X40378Y26566D01*
X40375Y26569D01*
X40373Y26572D01*
X40370Y26575D01*
X40370Y26576D01*
X40370Y26576D01*
X40369Y26577D01*
X40368Y26578D01*
X40366Y26579D01*
X40364Y26580D01*
X40363Y26582D01*
X40360Y26583D01*
X40357Y26585D01*
X40355Y26586D01*
X40348Y26589D01*
X40344Y26590D01*
X40340Y26590D01*
X40336Y26591D01*
X40332Y26591D01*
X40329D01*
X40326Y26591D01*
X40323Y26590D01*
X40318Y26589D01*
X40314Y26588D01*
X40309Y26586D01*
X40304Y26584D01*
X40304Y26584D01*
X40302Y26583D01*
X40300Y26581D01*
X40298Y26579D01*
X40295Y26577D01*
X40292Y26574D01*
X40289Y26570D01*
X40286Y26566D01*
X40257Y26570D01*
X40281Y26700D01*
X40406D01*
Y26670D01*
D02*
G37*
G36*
X25706Y26397D02*
X25709Y26397D01*
X25713Y26397D01*
X25717Y26396D01*
X25722Y26395D01*
X25727Y26395D01*
X25733Y26394D01*
X25738Y26392D01*
X25744Y26391D01*
X25749Y26389D01*
X25755Y26387D01*
X25760Y26384D01*
X25765Y26381D01*
X25765Y26381D01*
X25766Y26380D01*
X25768Y26380D01*
X25769Y26378D01*
X25771Y26376D01*
X25774Y26374D01*
X25777Y26372D01*
X25780Y26369D01*
X25783Y26366D01*
X25786Y26362D01*
X25789Y26358D01*
X25792Y26354D01*
X25795Y26349D01*
X25798Y26344D01*
X25801Y26339D01*
X25804Y26333D01*
X25804Y26333D01*
X25804Y26332D01*
X25805Y26330D01*
X25806Y26328D01*
X25807Y26325D01*
X25808Y26321D01*
X25809Y26317D01*
X25810Y26313D01*
X25811Y26308D01*
X25813Y26303D01*
X25814Y26297D01*
X25815Y26291D01*
X25816Y26279D01*
X25817Y26272D01*
X25817Y26266D01*
Y26265D01*
Y26264D01*
Y26262D01*
X25817Y26259D01*
X25816Y26256D01*
X25816Y26252D01*
X25816Y26247D01*
X25815Y26242D01*
X25814Y26237D01*
X25813Y26232D01*
X25811Y26220D01*
X25809Y26214D01*
X25807Y26208D01*
X25805Y26202D01*
X25802Y26197D01*
X25802Y26197D01*
X25801Y26196D01*
X25800Y26194D01*
X25799Y26192D01*
X25798Y26190D01*
X25796Y26187D01*
X25793Y26184D01*
X25791Y26180D01*
X25788Y26177D01*
X25785Y26173D01*
X25781Y26170D01*
X25778Y26166D01*
X25774Y26162D01*
X25769Y26159D01*
X25764Y26155D01*
X25759Y26152D01*
X25759Y26152D01*
X25758Y26152D01*
X25757Y26151D01*
X25754Y26150D01*
X25752Y26149D01*
X25749Y26148D01*
X25745Y26146D01*
X25741Y26145D01*
X25737Y26143D01*
X25732Y26142D01*
X25727Y26141D01*
X25722Y26140D01*
X25710Y26138D01*
X25704Y26137D01*
X25698Y26137D01*
X25695D01*
X25692Y26137D01*
X25689Y26138D01*
X25685Y26138D01*
X25681Y26139D01*
X25676Y26140D01*
X25671Y26141D01*
X25666Y26142D01*
X25661Y26143D01*
X25655Y26145D01*
X25650Y26148D01*
X25645Y26150D01*
X25639Y26153D01*
X25635Y26157D01*
X25634Y26157D01*
X25633Y26157D01*
X25632Y26158D01*
X25630Y26160D01*
X25628Y26162D01*
X25626Y26165D01*
X25623Y26167D01*
X25620Y26170D01*
X25617Y26174D01*
X25614Y26178D01*
X25611Y26183D01*
X25609Y26187D01*
X25606Y26193D01*
X25603Y26198D01*
X25601Y26204D01*
X25599Y26211D01*
X25631Y26218D01*
Y26218D01*
X25632Y26217D01*
X25632Y26216D01*
X25633Y26214D01*
X25634Y26211D01*
X25635Y26209D01*
X25638Y26203D01*
X25641Y26196D01*
X25646Y26190D01*
X25651Y26183D01*
X25654Y26181D01*
X25657Y26178D01*
X25657Y26178D01*
X25658Y26178D01*
X25659Y26177D01*
X25660Y26176D01*
X25662Y26175D01*
X25664Y26174D01*
X25666Y26173D01*
X25668Y26172D01*
X25671Y26171D01*
X25674Y26170D01*
X25682Y26168D01*
X25690Y26166D01*
X25694Y26166D01*
X25701D01*
X25704Y26166D01*
X25706Y26166D01*
X25709Y26166D01*
X25712Y26167D01*
X25716Y26167D01*
X25724Y26169D01*
X25732Y26172D01*
X25736Y26173D01*
X25740Y26175D01*
X25744Y26177D01*
X25748Y26180D01*
X25748Y26180D01*
X25748Y26180D01*
X25749Y26181D01*
X25751Y26182D01*
X25752Y26184D01*
X25754Y26186D01*
X25756Y26187D01*
X25758Y26190D01*
X25760Y26192D01*
X25763Y26195D01*
X25767Y26201D01*
X25771Y26209D01*
X25775Y26217D01*
Y26217D01*
X25775Y26218D01*
X25776Y26220D01*
X25776Y26221D01*
X25777Y26223D01*
X25777Y26226D01*
X25778Y26229D01*
X25779Y26232D01*
X25780Y26235D01*
X25780Y26239D01*
X25781Y26247D01*
X25782Y26256D01*
X25783Y26266D01*
Y26266D01*
Y26267D01*
Y26269D01*
X25782Y26271D01*
Y26274D01*
X25782Y26277D01*
X25782Y26281D01*
X25781Y26285D01*
X25781Y26289D01*
X25780Y26293D01*
X25779Y26303D01*
X25776Y26312D01*
X25773Y26322D01*
Y26322D01*
X25773Y26323D01*
X25772Y26324D01*
X25772Y26326D01*
X25771Y26328D01*
X25769Y26330D01*
X25766Y26335D01*
X25762Y26341D01*
X25757Y26347D01*
X25751Y26353D01*
X25748Y26355D01*
X25744Y26358D01*
X25744D01*
X25744Y26358D01*
X25742Y26359D01*
X25741Y26359D01*
X25739Y26360D01*
X25737Y26361D01*
X25734Y26362D01*
X25731Y26363D01*
X25725Y26365D01*
X25718Y26367D01*
X25710Y26369D01*
X25706Y26369D01*
X25701Y26369D01*
X25699D01*
X25697Y26369D01*
X25694Y26369D01*
X25692Y26368D01*
X25688Y26368D01*
X25685Y26367D01*
X25677Y26365D01*
X25674Y26364D01*
X25670Y26362D01*
X25665Y26361D01*
X25662Y26358D01*
X25658Y26356D01*
X25654Y26353D01*
X25654Y26353D01*
X25653Y26352D01*
X25652Y26351D01*
X25651Y26350D01*
X25649Y26349D01*
X25647Y26346D01*
X25645Y26344D01*
X25643Y26341D01*
X25641Y26338D01*
X25639Y26334D01*
X25637Y26330D01*
X25635Y26326D01*
X25633Y26321D01*
X25631Y26316D01*
X25629Y26311D01*
X25627Y26305D01*
X25594Y26314D01*
Y26314D01*
X25595Y26315D01*
X25595Y26317D01*
X25596Y26320D01*
X25597Y26324D01*
X25599Y26328D01*
X25601Y26332D01*
X25603Y26337D01*
X25605Y26342D01*
X25608Y26347D01*
X25611Y26352D01*
X25615Y26358D01*
X25618Y26362D01*
X25623Y26367D01*
X25627Y26372D01*
X25632Y26376D01*
X25632Y26377D01*
X25633Y26377D01*
X25635Y26378D01*
X25637Y26380D01*
X25639Y26381D01*
X25643Y26383D01*
X25646Y26385D01*
X25651Y26387D01*
X25655Y26389D01*
X25660Y26391D01*
X25666Y26393D01*
X25672Y26394D01*
X25678Y26396D01*
X25685Y26397D01*
X25691Y26397D01*
X25699Y26398D01*
X25703D01*
X25706Y26397D01*
D02*
G37*
G36*
X25466Y26333D02*
X25576D01*
Y26305D01*
X25461Y26142D01*
X25436D01*
Y26305D01*
X25401D01*
Y26333D01*
X25436D01*
Y26394D01*
X25466D01*
Y26333D01*
D02*
G37*
G36*
X46169Y18961D02*
X46172Y18961D01*
X46176Y18960D01*
X46180Y18960D01*
X46185Y18959D01*
X46190Y18958D01*
X46195Y18957D01*
X46200Y18955D01*
X46206Y18953D01*
X46211Y18951D01*
X46216Y18948D01*
X46222Y18945D01*
X46227Y18942D01*
X46227Y18942D01*
X46228Y18941D01*
X46229Y18940D01*
X46231Y18938D01*
X46233Y18936D01*
X46235Y18934D01*
X46238Y18931D01*
X46241Y18928D01*
X46244Y18924D01*
X46247Y18920D01*
X46250Y18916D01*
X46252Y18911D01*
X46255Y18906D01*
X46258Y18900D01*
X46260Y18894D01*
X46263Y18888D01*
X46230Y18880D01*
Y18880D01*
X46229Y18881D01*
X46229Y18883D01*
X46228Y18885D01*
X46227Y18887D01*
X46226Y18889D01*
X46223Y18895D01*
X46220Y18902D01*
X46215Y18909D01*
X46210Y18915D01*
X46207Y18918D01*
X46204Y18920D01*
X46204Y18921D01*
X46203Y18921D01*
X46203Y18921D01*
X46201Y18922D01*
X46199Y18923D01*
X46198Y18924D01*
X46195Y18925D01*
X46193Y18927D01*
X46190Y18928D01*
X46187Y18929D01*
X46180Y18931D01*
X46171Y18932D01*
X46167Y18933D01*
X46160D01*
X46157Y18933D01*
X46155Y18932D01*
X46152Y18932D01*
X46149Y18932D01*
X46145Y18931D01*
X46138Y18929D01*
X46129Y18927D01*
X46125Y18925D01*
X46121Y18923D01*
X46117Y18921D01*
X46114Y18919D01*
X46113Y18918D01*
X46113Y18918D01*
X46112Y18917D01*
X46110Y18916D01*
X46109Y18915D01*
X46107Y18913D01*
X46105Y18911D01*
X46103Y18909D01*
X46101Y18906D01*
X46098Y18903D01*
X46094Y18897D01*
X46090Y18890D01*
X46086Y18881D01*
Y18881D01*
X46086Y18880D01*
X46085Y18879D01*
X46085Y18877D01*
X46085Y18875D01*
X46084Y18872D01*
X46083Y18870D01*
X46082Y18866D01*
X46082Y18863D01*
X46081Y18859D01*
X46080Y18851D01*
X46079Y18842D01*
X46079Y18833D01*
Y18833D01*
Y18832D01*
Y18830D01*
X46079Y18827D01*
Y18825D01*
X46079Y18821D01*
X46079Y18818D01*
X46080Y18814D01*
X46080Y18809D01*
X46081Y18805D01*
X46082Y18796D01*
X46085Y18786D01*
X46088Y18777D01*
Y18776D01*
X46088Y18776D01*
X46089Y18774D01*
X46089Y18773D01*
X46091Y18771D01*
X46092Y18768D01*
X46095Y18763D01*
X46099Y18757D01*
X46104Y18752D01*
X46110Y18746D01*
X46113Y18743D01*
X46117Y18741D01*
X46117D01*
X46118Y18740D01*
X46119Y18740D01*
X46120Y18739D01*
X46122Y18738D01*
X46124Y18737D01*
X46127Y18736D01*
X46130Y18735D01*
X46136Y18733D01*
X46143Y18731D01*
X46151Y18730D01*
X46155Y18729D01*
X46160Y18729D01*
X46162D01*
X46164Y18729D01*
X46167Y18730D01*
X46169Y18730D01*
X46173Y18731D01*
X46176Y18731D01*
X46184Y18733D01*
X46187Y18734D01*
X46192Y18736D01*
X46196Y18738D01*
X46199Y18740D01*
X46203Y18743D01*
X46207Y18745D01*
X46207Y18746D01*
X46208Y18746D01*
X46209Y18747D01*
X46210Y18748D01*
X46212Y18750D01*
X46214Y18752D01*
X46216Y18755D01*
X46218Y18757D01*
X46220Y18761D01*
X46222Y18764D01*
X46224Y18768D01*
X46227Y18772D01*
X46228Y18777D01*
X46230Y18782D01*
X46232Y18788D01*
X46234Y18793D01*
X46267Y18785D01*
Y18784D01*
X46266Y18783D01*
X46266Y18781D01*
X46265Y18778D01*
X46264Y18775D01*
X46262Y18771D01*
X46260Y18766D01*
X46258Y18762D01*
X46256Y18756D01*
X46253Y18752D01*
X46250Y18746D01*
X46246Y18741D01*
X46243Y18736D01*
X46239Y18731D01*
X46234Y18726D01*
X46229Y18722D01*
X46229Y18722D01*
X46228Y18721D01*
X46226Y18720D01*
X46224Y18719D01*
X46222Y18717D01*
X46218Y18715D01*
X46215Y18713D01*
X46210Y18711D01*
X46206Y18710D01*
X46201Y18708D01*
X46195Y18706D01*
X46189Y18704D01*
X46183Y18703D01*
X46177Y18702D01*
X46170Y18701D01*
X46162Y18701D01*
X46159D01*
X46156Y18701D01*
X46152Y18701D01*
X46148Y18702D01*
X46144Y18702D01*
X46139Y18703D01*
X46134Y18704D01*
X46128Y18705D01*
X46123Y18706D01*
X46117Y18708D01*
X46112Y18710D01*
X46106Y18712D01*
X46101Y18714D01*
X46096Y18717D01*
X46096Y18717D01*
X46095Y18718D01*
X46094Y18719D01*
X46092Y18720D01*
X46090Y18722D01*
X46087Y18724D01*
X46085Y18726D01*
X46082Y18729D01*
X46079Y18733D01*
X46075Y18736D01*
X46072Y18740D01*
X46069Y18744D01*
X46066Y18749D01*
X46063Y18754D01*
X46060Y18759D01*
X46057Y18765D01*
X46057Y18765D01*
X46057Y18767D01*
X46056Y18768D01*
X46055Y18771D01*
X46054Y18774D01*
X46053Y18777D01*
X46052Y18781D01*
X46051Y18785D01*
X46050Y18790D01*
X46048Y18796D01*
X46047Y18801D01*
X46046Y18807D01*
X46045Y18820D01*
X46044Y18826D01*
X46044Y18833D01*
Y18833D01*
Y18834D01*
Y18836D01*
X46044Y18839D01*
X46045Y18843D01*
X46045Y18847D01*
X46046Y18851D01*
X46046Y18856D01*
X46047Y18861D01*
X46048Y18867D01*
X46050Y18879D01*
X46052Y18884D01*
X46054Y18890D01*
X46056Y18896D01*
X46059Y18901D01*
X46059Y18902D01*
X46060Y18903D01*
X46061Y18904D01*
X46062Y18906D01*
X46064Y18909D01*
X46065Y18912D01*
X46068Y18915D01*
X46070Y18918D01*
X46073Y18921D01*
X46076Y18925D01*
X46080Y18929D01*
X46083Y18933D01*
X46088Y18936D01*
X46092Y18940D01*
X46097Y18943D01*
X46102Y18946D01*
X46102Y18946D01*
X46103Y18946D01*
X46104Y18947D01*
X46107Y18948D01*
X46109Y18949D01*
X46112Y18951D01*
X46116Y18952D01*
X46120Y18954D01*
X46124Y18955D01*
X46129Y18956D01*
X46134Y18958D01*
X46139Y18959D01*
X46151Y18961D01*
X46157Y18961D01*
X46163Y18961D01*
X46166D01*
X46169Y18961D01*
D02*
G37*
G36*
X46608Y18705D02*
X46577D01*
Y18902D01*
X46576Y18901D01*
X46575Y18900D01*
X46572Y18898D01*
X46569Y18895D01*
X46565Y18892D01*
X46560Y18888D01*
X46554Y18885D01*
X46547Y18880D01*
X46547D01*
X46546Y18880D01*
X46546Y18879D01*
X46544Y18879D01*
X46543Y18878D01*
X46541Y18877D01*
X46536Y18874D01*
X46531Y18872D01*
X46526Y18869D01*
X46520Y18867D01*
X46515Y18865D01*
Y18894D01*
X46515Y18895D01*
X46516Y18895D01*
X46517Y18896D01*
X46519Y18897D01*
X46521Y18898D01*
X46524Y18899D01*
X46527Y18901D01*
X46530Y18903D01*
X46537Y18907D01*
X46545Y18912D01*
X46553Y18918D01*
X46560Y18924D01*
X46560Y18924D01*
X46561Y18925D01*
X46562Y18925D01*
X46563Y18927D01*
X46565Y18928D01*
X46567Y18930D01*
X46571Y18935D01*
X46575Y18940D01*
X46580Y18945D01*
X46584Y18951D01*
X46588Y18958D01*
X46608D01*
Y18705D01*
D02*
G37*
G36*
X46412D02*
X46381D01*
Y18902D01*
X46381Y18901D01*
X46379Y18900D01*
X46377Y18898D01*
X46373Y18895D01*
X46369Y18892D01*
X46364Y18888D01*
X46358Y18885D01*
X46352Y18880D01*
X46351D01*
X46351Y18880D01*
X46350Y18879D01*
X46349Y18879D01*
X46347Y18878D01*
X46345Y18877D01*
X46341Y18874D01*
X46336Y18872D01*
X46330Y18869D01*
X46325Y18867D01*
X46319Y18865D01*
Y18894D01*
X46319Y18895D01*
X46320Y18895D01*
X46322Y18896D01*
X46323Y18897D01*
X46326Y18898D01*
X46328Y18899D01*
X46331Y18901D01*
X46334Y18903D01*
X46341Y18907D01*
X46349Y18912D01*
X46357Y18918D01*
X46364Y18924D01*
X46365Y18924D01*
X46365Y18925D01*
X46366Y18925D01*
X46368Y18927D01*
X46369Y18928D01*
X46371Y18930D01*
X46375Y18935D01*
X46380Y18940D01*
X46384Y18945D01*
X46388Y18951D01*
X46392Y18958D01*
X46412D01*
Y18705D01*
D02*
G37*
%LPC*%
G36*
X44955Y42854D02*
X44954D01*
X44954D01*
X44953D01*
X44952Y42854D01*
X44950D01*
X44948Y42854D01*
X44944Y42852D01*
X44940Y42851D01*
X44935Y42849D01*
X44930Y42845D01*
X44928Y42843D01*
X44925Y42841D01*
X44925Y42841D01*
X44925Y42840D01*
X44924Y42840D01*
X44923Y42839D01*
X44923Y42837D01*
X44922Y42835D01*
X44920Y42833D01*
X44919Y42831D01*
X44918Y42828D01*
X44917Y42825D01*
X44916Y42822D01*
X44916Y42818D01*
X44915Y42814D01*
X44914Y42810D01*
X44914Y42805D01*
Y42720D01*
X44997D01*
Y42796D01*
X44997Y42798D01*
Y42800D01*
X44996Y42805D01*
X44996Y42811D01*
X44995Y42817D01*
X44994Y42822D01*
X44992Y42828D01*
Y42828D01*
X44992Y42828D01*
X44991Y42830D01*
X44990Y42832D01*
X44989Y42835D01*
X44987Y42838D01*
X44984Y42841D01*
X44981Y42845D01*
X44977Y42847D01*
X44977Y42848D01*
X44975Y42848D01*
X44973Y42849D01*
X44970Y42851D01*
X44967Y42852D01*
X44963Y42853D01*
X44959Y42854D01*
X44955Y42854D01*
D02*
G37*
G36*
X50396Y20173D02*
X50312D01*
Y20098D01*
X50313Y20096D01*
Y20094D01*
X50313Y20089D01*
X50313Y20083D01*
X50314Y20077D01*
X50315Y20071D01*
X50317Y20066D01*
Y20066D01*
X50317Y20066D01*
X50318Y20064D01*
X50319Y20062D01*
X50320Y20059D01*
X50323Y20056D01*
X50325Y20052D01*
X50328Y20049D01*
X50332Y20046D01*
X50332Y20046D01*
X50334Y20045D01*
X50336Y20044D01*
X50339Y20043D01*
X50342Y20042D01*
X50346Y20041D01*
X50350Y20040D01*
X50355Y20040D01*
X50355D01*
X50355D01*
X50356D01*
X50358Y20040D01*
X50359D01*
X50361Y20040D01*
X50365Y20041D01*
X50370Y20043D01*
X50375Y20045D01*
X50379Y20048D01*
X50382Y20051D01*
X50384Y20053D01*
X50384Y20053D01*
X50384Y20053D01*
X50385Y20054D01*
X50386Y20055D01*
X50387Y20057D01*
X50388Y20058D01*
X50389Y20060D01*
X50390Y20063D01*
X50391Y20066D01*
X50392Y20069D01*
X50393Y20072D01*
X50394Y20075D01*
X50394Y20079D01*
X50395Y20084D01*
X50396Y20088D01*
Y20173D01*
D02*
G37*
G36*
X50338Y19934D02*
X50338D01*
X50337D01*
X50336D01*
X50334Y19933D01*
X50332Y19933D01*
X50329Y19933D01*
X50324Y19932D01*
X50318Y19930D01*
X50311Y19928D01*
X50308Y19926D01*
X50305Y19924D01*
X50302Y19922D01*
X50299Y19920D01*
X50299Y19919D01*
X50298Y19919D01*
X50298Y19918D01*
X50297Y19917D01*
X50296Y19915D01*
X50294Y19914D01*
X50293Y19912D01*
X50292Y19910D01*
X50289Y19904D01*
X50286Y19898D01*
X50285Y19891D01*
X50284Y19887D01*
X50284Y19883D01*
Y19881D01*
X50284Y19880D01*
X50285Y19878D01*
X50285Y19876D01*
X50286Y19871D01*
X50288Y19865D01*
X50290Y19860D01*
X50292Y19857D01*
X50294Y19854D01*
X50296Y19851D01*
X50299Y19848D01*
X50299Y19848D01*
X50300Y19848D01*
X50301Y19847D01*
X50302Y19846D01*
X50303Y19845D01*
X50305Y19844D01*
X50307Y19843D01*
X50310Y19841D01*
X50313Y19840D01*
X50316Y19839D01*
X50319Y19838D01*
X50323Y19837D01*
X50327Y19836D01*
X50331Y19835D01*
X50336Y19835D01*
X50341Y19834D01*
X50341D01*
X50342D01*
X50343D01*
X50345Y19835D01*
X50347Y19835D01*
X50350Y19835D01*
X50353Y19835D01*
X50356Y19836D01*
X50363Y19838D01*
X50370Y19840D01*
X50373Y19842D01*
X50376Y19844D01*
X50380Y19846D01*
X50383Y19849D01*
X50383Y19849D01*
X50384Y19849D01*
X50384Y19850D01*
X50385Y19851D01*
X50386Y19852D01*
X50388Y19854D01*
X50391Y19858D01*
X50394Y19863D01*
X50396Y19869D01*
X50397Y19872D01*
X50398Y19876D01*
X50398Y19879D01*
X50399Y19883D01*
Y19885D01*
X50398Y19886D01*
X50398Y19888D01*
X50398Y19890D01*
X50396Y19895D01*
X50394Y19901D01*
X50393Y19904D01*
X50391Y19907D01*
X50390Y19910D01*
X50387Y19913D01*
X50385Y19916D01*
X50382Y19919D01*
X50381Y19919D01*
X50381Y19919D01*
X50380Y19920D01*
X50379Y19921D01*
X50377Y19922D01*
X50375Y19923D01*
X50373Y19925D01*
X50370Y19926D01*
X50367Y19928D01*
X50364Y19929D01*
X50360Y19930D01*
X50356Y19931D01*
X50347Y19933D01*
X50343Y19933D01*
X50338Y19934D01*
D02*
G37*
G36*
X49008Y20104D02*
X48924D01*
Y20029D01*
X48925Y20027D01*
Y20025D01*
X48925Y20020D01*
X48926Y20014D01*
X48926Y20008D01*
X48927Y20002D01*
X48929Y19997D01*
Y19997D01*
X48929Y19997D01*
X48930Y19995D01*
X48931Y19993D01*
X48933Y19990D01*
X48935Y19987D01*
X48937Y19984D01*
X48941Y19980D01*
X48944Y19978D01*
X48945Y19977D01*
X48946Y19976D01*
X48948Y19975D01*
X48951Y19974D01*
X48954Y19973D01*
X48958Y19972D01*
X48962Y19971D01*
X48967Y19971D01*
X48967D01*
X48968D01*
X48968D01*
X48970Y19971D01*
X48971D01*
X48973Y19971D01*
X48977Y19972D01*
X48982Y19974D01*
X48987Y19976D01*
X48991Y19979D01*
X48994Y19982D01*
X48996Y19984D01*
X48996Y19984D01*
X48997Y19984D01*
X48997Y19985D01*
X48998Y19986D01*
X48999Y19988D01*
X49000Y19990D01*
X49001Y19991D01*
X49002Y19994D01*
X49003Y19997D01*
X49004Y20000D01*
X49005Y20003D01*
X49006Y20006D01*
X49007Y20011D01*
X49007Y20015D01*
X49008Y20020D01*
Y20104D01*
D02*
G37*
G36*
X48973Y19855D02*
X48972D01*
X48972D01*
X48971D01*
X48970Y19855D01*
X48968D01*
X48966Y19855D01*
X48962Y19854D01*
X48958Y19853D01*
X48953Y19851D01*
X48948Y19848D01*
X48943Y19844D01*
X48943Y19844D01*
X48942Y19842D01*
X48940Y19839D01*
X48938Y19836D01*
X48936Y19832D01*
X48934Y19827D01*
X48933Y19821D01*
X48932Y19814D01*
Y19812D01*
X48932Y19811D01*
Y19809D01*
X48933Y19808D01*
X48934Y19804D01*
X48935Y19799D01*
X48937Y19794D01*
X48939Y19789D01*
X48943Y19785D01*
X48944Y19784D01*
X48945Y19783D01*
X48948Y19781D01*
X48951Y19779D01*
X48955Y19777D01*
X48960Y19775D01*
X48965Y19774D01*
X48971Y19773D01*
X48971D01*
X48971D01*
X48972D01*
X48974Y19773D01*
X48977Y19774D01*
X48981Y19774D01*
X48985Y19776D01*
X48990Y19778D01*
X48995Y19781D01*
X48997Y19783D01*
X48999Y19785D01*
X49000D01*
X49000Y19785D01*
X49001Y19787D01*
X49003Y19789D01*
X49005Y19793D01*
X49007Y19797D01*
X49009Y19802D01*
X49010Y19808D01*
X49011Y19811D01*
Y19816D01*
X49011Y19817D01*
Y19819D01*
X49010Y19821D01*
X49010Y19825D01*
X49008Y19829D01*
X49006Y19834D01*
X49003Y19839D01*
X49000Y19844D01*
X48999Y19844D01*
X48998Y19846D01*
X48995Y19847D01*
X48992Y19850D01*
X48988Y19852D01*
X48983Y19853D01*
X48978Y19855D01*
X48973Y19855D01*
D02*
G37*
G36*
X48856Y19865D02*
X48856D01*
X48856D01*
X48854D01*
X48851Y19865D01*
X48848Y19865D01*
X48844Y19864D01*
X48840Y19863D01*
X48835Y19861D01*
X48831Y19859D01*
X48830Y19859D01*
X48829Y19858D01*
X48826Y19857D01*
X48823Y19855D01*
X48820Y19852D01*
X48817Y19849D01*
X48814Y19845D01*
X48811Y19841D01*
Y19841D01*
X48811Y19840D01*
X48810Y19839D01*
X48809Y19836D01*
X48808Y19833D01*
X48807Y19829D01*
X48806Y19824D01*
X48805Y19819D01*
X48805Y19814D01*
Y19812D01*
X48805Y19810D01*
X48805Y19808D01*
X48806Y19806D01*
X48807Y19801D01*
X48808Y19795D01*
X48811Y19789D01*
X48813Y19786D01*
X48814Y19783D01*
X48817Y19780D01*
X48819Y19777D01*
X48819Y19777D01*
X48820Y19777D01*
X48820Y19776D01*
X48822Y19775D01*
X48823Y19774D01*
X48825Y19773D01*
X48827Y19771D01*
X48829Y19770D01*
X48834Y19767D01*
X48840Y19765D01*
X48847Y19763D01*
X48851Y19763D01*
X48855Y19763D01*
X48855D01*
X48856D01*
X48857D01*
X48859Y19763D01*
X48861Y19763D01*
X48863Y19764D01*
X48868Y19765D01*
X48874Y19766D01*
X48880Y19769D01*
X48883Y19771D01*
X48886Y19773D01*
X48889Y19775D01*
X48892Y19778D01*
X48892Y19778D01*
X48893Y19778D01*
X48893Y19779D01*
X48894Y19780D01*
X48896Y19782D01*
X48897Y19783D01*
X48898Y19786D01*
X48899Y19788D01*
X48902Y19793D01*
X48905Y19800D01*
X48906Y19807D01*
X48906Y19811D01*
X48907Y19815D01*
Y19817D01*
X48906Y19818D01*
X48906Y19820D01*
X48906Y19822D01*
X48905Y19828D01*
X48903Y19833D01*
X48901Y19839D01*
X48899Y19842D01*
X48897Y19845D01*
X48895Y19848D01*
X48892Y19851D01*
X48892Y19851D01*
X48892Y19852D01*
X48891Y19853D01*
X48890Y19853D01*
X48888Y19854D01*
X48887Y19856D01*
X48885Y19857D01*
X48882Y19858D01*
X48877Y19861D01*
X48871Y19863D01*
X48864Y19865D01*
X48860Y19865D01*
X48856Y19865D01*
D02*
G37*
G36*
X25546Y26305D02*
X25466D01*
Y26191D01*
X25546Y26305D01*
D02*
G37*
%LPD*%
D13*
X41512Y44295D02*
Y45083D01*
Y44295D02*
X43087D01*
Y45083D01*
X41512D02*
X43087D01*
X46339Y21181D02*
Y21969D01*
Y21181D02*
X47913D01*
Y21969D01*
X46339D02*
X47913D01*
X33583Y24813D02*
X34370D01*
Y26388D01*
X33583D02*
X34370D01*
X33583Y24813D02*
Y26388D01*
X38897Y25698D02*
Y27196D01*
Y25698D02*
X41103D01*
Y27196D01*
X38897D02*
X41103D01*
X29527Y28109D02*
Y29608D01*
Y28109D02*
X31733D01*
Y29608D01*
X29527D02*
X31733D01*
X28376Y29833D02*
Y30620D01*
Y29833D02*
X29951D01*
Y30620D01*
X28376D02*
X29951D01*
X26920Y25648D02*
Y27147D01*
X24714D02*
X26920D01*
X24714Y25648D02*
Y27147D01*
Y25648D02*
X26920D01*
X45195Y18196D02*
Y19205D01*
Y18196D02*
X46893D01*
Y19205D01*
X45195D02*
X46893D01*
X49683Y21054D02*
X50652D01*
X49683Y19359D02*
Y21054D01*
Y19359D02*
X50652D01*
Y21054D01*
X49146Y19467D02*
Y20808D01*
X48413Y19467D02*
X49146D01*
X48413D02*
Y20808D01*
X49146D01*
X44653Y41839D02*
Y43535D01*
X45622D01*
Y41839D02*
Y43535D01*
X44653Y41839D02*
X45622D01*
X40411Y42059D02*
X42109D01*
Y41051D02*
Y42059D01*
X40411Y41051D02*
X42109D01*
X40411D02*
Y42059D01*
X37215Y29350D02*
Y30453D01*
X36545Y29350D02*
X37215D01*
X36545D02*
Y30453D01*
X37215D01*
M02*
