G04*
G04 #@! TF.GenerationSoftware,Altium Limited,Altium Designer,22.10.1 (41)*
G04*
G04 Layer_Color=32768*
%FSLAX24Y24*%
%MOIN*%
G70*
G04*
G04 #@! TF.SameCoordinates,BB6D0E27-544A-47F7-A8B6-121398B6A664*
G04*
G04*
G04 #@! TF.FilePolarity,Positive*
G04*
G01*
G75*
%ADD10C,0.0039*%
%ADD13C,0.0079*%
%ADD78C,0.0020*%
D10*
X40335Y29213D02*
X40728D01*
X40532Y29016D02*
Y29409D01*
X42126Y27421D02*
Y31004D01*
X38937Y27421D02*
Y31004D01*
X42126D01*
X38937Y27421D02*
X42126D01*
X30522Y22402D02*
X30915D01*
X30719Y22205D02*
Y22598D01*
X32313Y20610D02*
Y24193D01*
X29124Y20610D02*
Y24193D01*
X32313D01*
X29124Y20610D02*
X32313D01*
X47776Y26841D02*
X48169D01*
X47972Y26644D02*
Y27037D01*
X44596Y38852D02*
Y39246D01*
X44400Y39049D02*
X44793D01*
X24600Y22589D02*
X24994D01*
X24797Y22392D02*
Y22785D01*
X50197Y16569D02*
Y16963D01*
X50000Y16766D02*
X50394D01*
X38209Y28451D02*
Y28844D01*
X38012Y28648D02*
X38406D01*
X30157Y24616D02*
Y25010D01*
X29961Y24813D02*
X30354D01*
D13*
X41512Y44295D02*
Y45083D01*
Y44295D02*
X43087D01*
Y45083D01*
X41512D02*
X43087D01*
X46339Y21181D02*
Y21969D01*
Y21181D02*
X47913D01*
Y21969D01*
X46339D02*
X47913D01*
X33583Y24813D02*
X34370D01*
Y26388D01*
X33583D02*
X34370D01*
X33583Y24813D02*
Y26388D01*
X38897Y25698D02*
Y27196D01*
Y25698D02*
X41103D01*
Y27196D01*
X38897D02*
X41103D01*
X29527Y28109D02*
Y29608D01*
Y28109D02*
X31733D01*
Y29608D01*
X29527D02*
X31733D01*
X28376Y29833D02*
Y30620D01*
Y29833D02*
X29951D01*
Y30620D01*
X28376D02*
X29951D01*
X26920Y25648D02*
Y27147D01*
X24714D02*
X26920D01*
X24714Y25648D02*
Y27147D01*
Y25648D02*
X26920D01*
X45195Y18196D02*
Y19205D01*
Y18196D02*
X46893D01*
Y19205D01*
X45195D02*
X46893D01*
X49683Y21054D02*
X50652D01*
X49683Y19359D02*
Y21054D01*
Y19359D02*
X50652D01*
Y21054D01*
X49146Y19467D02*
Y20808D01*
X48413Y19467D02*
X49146D01*
X48413D02*
Y20808D01*
X49146D01*
X44653Y41839D02*
Y43535D01*
X45622D01*
Y41839D02*
Y43535D01*
X44653Y41839D02*
X45622D01*
X40411Y42059D02*
X42109D01*
Y41051D02*
Y42059D01*
X40411Y41051D02*
X42109D01*
X40411D02*
Y42059D01*
X37215Y29350D02*
Y30453D01*
X36545Y29350D02*
X37215D01*
X36545D02*
Y30453D01*
X37215D01*
D78*
X46339Y24577D02*
X49606D01*
Y28880D01*
X46339Y24577D02*
Y28880D01*
X46339D02*
X49606D01*
X42963Y41089D02*
X46230D01*
X42963Y36785D02*
Y41089D01*
X46230Y36785D02*
Y41089D01*
X42963Y36785D02*
X46230D01*
X26837Y20955D02*
Y24222D01*
X22534Y24222D02*
X26837D01*
X22534Y20955D02*
X26837D01*
X22534D02*
Y24222D01*
X48563Y18805D02*
X51831D01*
X48563Y14502D02*
Y18805D01*
X51831Y14502D02*
Y18805D01*
X48563Y14502D02*
X51831D01*
X37669Y29738D02*
X38748D01*
X37669Y28058D02*
Y29738D01*
Y28058D02*
X38748D01*
Y29738D01*
X29067Y25352D02*
X30747D01*
Y24274D02*
Y25352D01*
X29067Y24274D02*
X30747D01*
X29067D02*
Y25352D01*
M02*
