M48
;Layer_Color=9474304
;FILE_FORMAT=2:4
INCH,TZ
;TYPE=PLATED
T1F00S00C0.0120
T2F00S00C0.0150
T3F00S00C0.0512
%
T01
X46902Y17017
X47552Y20078
X44360Y20423
X45266Y21604
X46102Y22254
X45394Y23327
X44902Y22854
X44429Y23297
X43465Y27352
X42953Y28612
X43661Y29616
X42274Y26555
X38278Y27106
X36834Y26815
X36293
X36073Y27392
X36486Y27657
Y28061
X35659Y27795
X35344Y28337
X36181Y29478
X33071Y26309
X32539Y26211
X37953Y24252
X30394Y26260
X29203Y28465
X27185Y30482
X25394Y29941
X25236Y28661
X25118Y27776
X25492Y31634
X25502Y32933
X25620Y34528
X25876Y36152
X28553Y36250
X29951Y36447
X27469Y34850
X27441Y33386
X27303Y31919
<<<<<<< Updated upstream
X28490Y31630
=======
>>>>>>> Stashed changes
X32963Y36358
X35424Y36239
X37579Y36053
X38573Y34370
X40020Y35325
X39990Y32963
X42118Y33495
X43593Y31398
X42126Y39508
X42579Y42894
X40187Y42579
X40925Y44557
X40630Y45728
X39823Y45807
X39892Y45167
T02
X32380Y28520
<<<<<<< Updated upstream
X33710Y28000
X34120Y28010
X34090Y27530
X33640Y27550
=======
X33638Y28016
Y27566
X34138
Y28016
>>>>>>> Stashed changes
T03
X50197Y15766
Y17766
X47972Y25841
Y27841
X25797Y22589
X23797
X44596Y38049
Y40049
M30
