G04*
G04 #@! TF.GenerationSoftware,Altium Limited,Altium Designer,22.10.1 (41)*
G04*
G04 Layer_Color=0*
%FSLAX24Y24*%
%MOIN*%
G70*
G04*
G04 #@! TF.SameCoordinates,BB6D0E27-544A-47F7-A8B6-121398B6A664*
G04*
G04*
G04 #@! TF.FilePolarity,Positive*
G04*
G01*
G75*
%ADD10C,0.0039*%
D10*
X42299Y44492D02*
Y44886D01*
X42102Y44689D02*
X42496D01*
X47126Y21378D02*
Y21772D01*
X46929Y21575D02*
X47323D01*
X33780Y25600D02*
X34173D01*
X33976Y25404D02*
Y25797D01*
X40000Y26250D02*
Y26644D01*
X39803Y26447D02*
X40197D01*
X30630Y28661D02*
Y29055D01*
X30433Y28858D02*
X30827D01*
X29163Y30030D02*
Y30423D01*
X28967Y30226D02*
X29360D01*
X25817Y26201D02*
Y26594D01*
X25620Y26398D02*
X26014D01*
X46044Y18504D02*
Y18898D01*
X45847Y18701D02*
X46241D01*
X49970Y20207D02*
X50364D01*
X50167Y20010D02*
Y20404D01*
X48780Y19941D02*
Y20335D01*
X48583Y20138D02*
X48976D01*
X45138Y42490D02*
Y42884D01*
X44941Y42687D02*
X45335D01*
X41063Y41555D02*
X41457D01*
X41260Y41358D02*
Y41752D01*
X36880Y29705D02*
Y30098D01*
X36683Y29902D02*
X37077D01*
M02*
