G04*
G04 #@! TF.GenerationSoftware,Altium Limited,Altium Designer,22.10.1 (41)*
G04*
G04 Layer_Color=16711935*
%FSLAX25Y25*%
%MOIN*%
G70*
G04*
G04 #@! TF.SameCoordinates,856B5BD7-418A-478B-963B-D84CAA773F5C*
G04*
G04*
G04 #@! TF.FilePolarity,Negative*
G04*
G01*
G75*
%ADD64R,0.07887X0.07887*%
%ADD65C,0.07887*%
%ADD66R,0.07887X0.07887*%
%ADD67C,0.03600*%
%ADD68C,0.03400*%
D64*
X479724Y258405D02*
D03*
X501968Y157658D02*
D03*
X445965Y380492D02*
D03*
D65*
X479724Y278405D02*
D03*
X445965Y400492D02*
D03*
X257972Y225886D02*
D03*
X501968Y177657D02*
D03*
D66*
X237972Y225886D02*
D03*
D67*
X336378Y280157D02*
D03*
X341378D02*
D03*
X336378Y275658D02*
D03*
X341378D02*
D03*
D68*
X323800Y285200D02*
D03*
X271850Y304823D02*
D03*
X292028Y284646D02*
D03*
X449016Y228543D02*
D03*
X452658Y216043D02*
D03*
X453937Y233268D02*
D03*
X444291Y232972D02*
D03*
X251181Y277756D02*
D03*
X252362Y286614D02*
D03*
X253937Y299410D02*
D03*
X273031Y319193D02*
D03*
X254921Y316339D02*
D03*
X274410Y333858D02*
D03*
X255020Y329331D02*
D03*
X274686Y348500D02*
D03*
X256201Y345276D02*
D03*
X258760Y361516D02*
D03*
X285531Y362500D02*
D03*
X299508Y364469D02*
D03*
X329626Y363583D02*
D03*
X354240Y362394D02*
D03*
X375787Y360531D02*
D03*
X400197Y353248D02*
D03*
X385728Y343701D02*
D03*
X421180Y334949D02*
D03*
X422736Y265551D02*
D03*
X429528Y286122D02*
D03*
X434646Y273524D02*
D03*
X398917Y451673D02*
D03*
X406299Y457283D02*
D03*
X398228Y458071D02*
D03*
X401870Y425787D02*
D03*
X379528Y242520D02*
D03*
X360728Y273917D02*
D03*
X435925Y313976D02*
D03*
X399902Y329626D02*
D03*
X436614Y296161D02*
D03*
X382776Y271063D02*
D03*
X361811Y294783D02*
D03*
X362927Y268149D02*
D03*
X368340D02*
D03*
X364862Y276575D02*
D03*
Y280610D02*
D03*
X356594Y277953D02*
D03*
X353445Y283366D02*
D03*
X303937Y262598D02*
D03*
X330709Y263090D02*
D03*
X325394Y262106D02*
D03*
X409252Y445571D02*
D03*
X421260Y395079D02*
D03*
X425787Y428937D02*
D03*
X443602Y204232D02*
D03*
X461024Y222539D02*
D03*
X475516Y200779D02*
D03*
X469020Y170169D02*
D03*
M02*
