G04*
G04 #@! TF.GenerationSoftware,Altium Limited,Altium Designer,22.10.1 (41)*
G04*
G04 Layer_Physical_Order=1*
G04 Layer_Color=255*
%FSLAX25Y25*%
%MOIN*%
G70*
G04*
G04 #@! TF.SameCoordinates,856B5BD7-418A-478B-963B-D84CAA773F5C*
G04*
G04*
G04 #@! TF.FilePolarity,Positive*
G04*
G01*
G75*
%ADD12C,0.01000*%
%ADD15R,0.09646X0.09646*%
%ADD16R,0.02362X0.00984*%
%ADD17R,0.00984X0.02362*%
%ADD18R,0.06693X0.07874*%
%ADD19R,0.11811X0.21654*%
%ADD20R,0.03740X0.06693*%
%ADD21R,0.06693X0.03740*%
%ADD22R,0.03543X0.07284*%
%ADD23R,0.07284X0.03543*%
%ADD24R,0.05118X0.11024*%
%ADD25R,0.07087X0.02953*%
%ADD26R,0.08279X0.11048*%
%ADD27R,0.06693X0.03937*%
%ADD28R,0.06102X0.13780*%
%ADD29R,0.11024X0.05118*%
%ADD30R,0.08661X0.05906*%
%ADD31R,0.05118X0.03543*%
%ADD32R,0.03543X0.07480*%
%ADD33R,0.04331X0.02362*%
%ADD34R,0.05542X0.06150*%
%ADD35R,0.05756X0.04942*%
%ADD36R,0.05363X0.04546*%
%ADD37R,0.05315X0.03740*%
%ADD38R,0.05000X0.03000*%
%ADD39R,0.10000X0.10512*%
%ADD40R,0.10512X0.10000*%
%ADD41R,0.03000X0.05000*%
%ADD42R,0.02362X0.02362*%
%ADD69C,0.00800*%
%ADD70C,0.01500*%
%ADD71C,0.02000*%
%ADD72C,0.01200*%
%ADD73R,0.07087X0.07087*%
%ADD74C,0.07087*%
%ADD75R,0.07087X0.07087*%
%ADD76C,0.02800*%
%ADD77C,0.02600*%
G36*
X387992Y449250D02*
Y421752D01*
X378150D01*
X378051Y421850D01*
Y390551D01*
X345752D01*
X345374Y390846D01*
Y448917D01*
X387636Y449601D01*
X387992Y449250D01*
D02*
G37*
G36*
X430610Y460236D02*
Y453346D01*
X409842D01*
X399508Y444304D01*
Y435433D01*
X415354D01*
Y421850D01*
X423130D01*
Y411516D01*
X420118D01*
Y415051D01*
X416347D01*
Y415551D01*
X415847D01*
Y419626D01*
X412576D01*
X412205Y419937D01*
Y430905D01*
X411630D01*
Y432177D01*
X405299D01*
Y430905D01*
X398425D01*
Y424606D01*
X398327Y424508D01*
X389862D01*
Y449311D01*
X393504D01*
Y461122D01*
X430610D01*
Y460236D01*
D02*
G37*
G36*
X411614Y293209D02*
X395768D01*
X394980Y292421D01*
Y284941D01*
X374508D01*
Y285516D01*
X374087Y285362D01*
X372933Y286516D01*
X350590D01*
Y290453D01*
X374508Y290936D01*
Y308563D01*
X411614D01*
Y293209D01*
D02*
G37*
G36*
X386516Y273721D02*
X387402Y272835D01*
X397441D01*
Y270992D01*
X395576D01*
Y264469D01*
Y257944D01*
X397441D01*
Y256398D01*
X380709D01*
Y268898D01*
X376673Y272933D01*
Y284227D01*
X378587D01*
Y282976D01*
X382087D01*
X385587D01*
Y284227D01*
X386516D01*
Y273721D01*
D02*
G37*
G36*
X375689Y266339D02*
Y254738D01*
X375958Y255015D01*
X384252Y254921D01*
X402362Y236811D01*
X415846D01*
Y236910D01*
X430315Y237106D01*
X431102Y236319D01*
Y168898D01*
X392421D01*
Y213779D01*
X415551D01*
X415846Y214075D01*
Y227756D01*
X401181D01*
X378346Y250590D01*
X375689D01*
Y239556D01*
X375606Y239090D01*
X373925D01*
Y236910D01*
X373425D01*
Y236409D01*
X371244D01*
Y234842D01*
X359425D01*
X359079Y235204D01*
X359085Y235343D01*
X359433Y235614D01*
X359555Y235614D01*
X361705D01*
Y240256D01*
Y244898D01*
X359555D01*
X359433Y244898D01*
X359055Y245192D01*
Y266043D01*
X341043D01*
Y267996D01*
X341315D01*
Y270177D01*
X342315D01*
Y267996D01*
X343284D01*
Y270177D01*
X343783D01*
Y270677D01*
X345276D01*
Y271555D01*
X370472D01*
X375689Y266339D01*
D02*
G37*
G36*
X445571Y333465D02*
Y269980D01*
X430992Y255402D01*
X401594D01*
Y257944D01*
X404424D01*
Y264469D01*
Y270992D01*
X401594D01*
Y273800D01*
X399311Y276083D01*
Y288484D01*
X413189D01*
X423622Y298917D01*
Y318307D01*
X390846D01*
X354626Y354528D01*
X290551D01*
Y309842D01*
X290453Y309744D01*
Y295276D01*
X273622D01*
X256988Y278642D01*
Y270500D01*
X253746D01*
Y263976D01*
Y257452D01*
X256988D01*
Y256791D01*
X245244D01*
X244788Y257252D01*
X246063Y369094D01*
X409941D01*
X445571Y333465D01*
D02*
G37*
G36*
X294783Y272047D02*
X297047Y269783D01*
Y259154D01*
X290256D01*
X283858Y252756D01*
X260630D01*
Y257452D01*
X262593D01*
Y263976D01*
Y270500D01*
X260630D01*
Y271785D01*
X260984Y272138D01*
X294783Y272047D01*
D02*
G37*
G36*
X336409Y267996D02*
X336910D01*
Y265256D01*
X334154D01*
Y257874D01*
X343799D01*
X344783Y256890D01*
Y246850D01*
X353937D01*
X356890Y243898D01*
Y234547D01*
X356791Y234449D01*
X342913D01*
Y238090D01*
X334615Y246389D01*
X334766Y246752D01*
X334252D01*
X334154Y246850D01*
Y250295D01*
X321555D01*
Y264173D01*
X334941Y267520D01*
Y267996D01*
X335409D01*
Y270177D01*
X336409D01*
Y267996D01*
D02*
G37*
G36*
X329070Y273252D02*
X331398D01*
Y272752D01*
X331898D01*
Y271260D01*
X332449D01*
Y267996D01*
X331983Y267913D01*
X323524D01*
X314961Y259350D01*
X314961Y228150D01*
X303150D01*
Y228921D01*
X306685D01*
Y233858D01*
Y238795D01*
X303150D01*
X303150Y244630D01*
X305075D01*
Y248130D01*
Y251630D01*
X303150D01*
Y253839D01*
X322655Y273343D01*
X328860Y273458D01*
X329070Y273252D01*
D02*
G37*
G36*
X323894Y248679D02*
X323902Y248614D01*
Y246366D01*
X328543D01*
Y245866D01*
X329043D01*
Y243094D01*
X333071D01*
Y233563D01*
X334646Y231988D01*
X373803D01*
Y230716D01*
X378165D01*
Y231988D01*
X380512D01*
Y221358D01*
X341240D01*
X327756Y207874D01*
X302165D01*
Y220669D01*
X320177D01*
X320177Y245669D01*
X323370Y248862D01*
X323894Y248679D01*
D02*
G37*
G36*
X458563Y236713D02*
Y207087D01*
X458382Y206906D01*
X457390D01*
Y205224D01*
X460055D01*
Y206693D01*
X463779D01*
Y193898D01*
X463878Y193799D01*
X470374D01*
Y181299D01*
X460532D01*
Y182933D01*
X463690D01*
Y187008D01*
Y191083D01*
X460532D01*
Y203248D01*
X460055D01*
Y204224D01*
X453724D01*
Y203248D01*
X451870D01*
Y212697D01*
X432776D01*
Y213272D01*
X433153Y213567D01*
X433276Y213567D01*
X435425D01*
Y218307D01*
Y223047D01*
X433276D01*
X433153Y223047D01*
X432776Y223342D01*
Y225289D01*
X433055Y225673D01*
X433276Y225673D01*
X435327D01*
Y230413D01*
Y235154D01*
X433276D01*
X433055Y235154D01*
X432776Y235538D01*
Y236457D01*
X433130Y236810D01*
X458563Y236713D01*
D02*
G37*
%LPC*%
G36*
X385449Y448343D02*
X383177D01*
Y444102D01*
X385449D01*
Y448343D01*
D02*
G37*
G36*
X382177D02*
X379906D01*
Y444102D01*
X382177D01*
Y448343D01*
D02*
G37*
G36*
X385449Y443102D02*
X383177D01*
Y438862D01*
X385449D01*
Y443102D01*
D02*
G37*
G36*
X382177D02*
X379906D01*
Y438862D01*
X382177D01*
Y443102D01*
D02*
G37*
G36*
X385646Y435547D02*
X383374D01*
Y431307D01*
X385646D01*
Y435547D01*
D02*
G37*
G36*
X382374D02*
X380102D01*
Y431307D01*
X382374D01*
Y435547D01*
D02*
G37*
G36*
X385646Y430307D02*
X383374D01*
Y426067D01*
X385646D01*
Y430307D01*
D02*
G37*
G36*
X382374D02*
X380102D01*
Y426067D01*
X382374D01*
Y430307D01*
D02*
G37*
G36*
X364681Y417043D02*
X358276D01*
Y405717D01*
X364681D01*
Y417043D01*
D02*
G37*
G36*
X357276D02*
X350870D01*
Y405717D01*
X357276D01*
Y417043D01*
D02*
G37*
G36*
X364681Y404717D02*
X358276D01*
Y393390D01*
X364681D01*
Y404717D01*
D02*
G37*
G36*
X357276D02*
X350870D01*
Y393390D01*
X357276D01*
Y404717D01*
D02*
G37*
G36*
X398728Y460353D02*
Y458571D01*
X400511D01*
X400178Y459374D01*
X399531Y460021D01*
X398728Y460353D01*
D02*
G37*
G36*
X397728D02*
X396925Y460021D01*
X396279Y459374D01*
X395946Y458571D01*
X397728D01*
Y460353D01*
D02*
G37*
G36*
X406799Y459566D02*
Y457784D01*
X408582D01*
X408249Y458586D01*
X407602Y459233D01*
X406799Y459566D01*
D02*
G37*
G36*
X405799D02*
X404996Y459233D01*
X404349Y458586D01*
X404017Y457784D01*
X405799D01*
Y459566D01*
D02*
G37*
G36*
X400511Y457571D02*
X398728D01*
Y455789D01*
X399531Y456121D01*
X400178Y456768D01*
X400511Y457571D01*
D02*
G37*
G36*
X397728D02*
X395946D01*
X396279Y456768D01*
X396925Y456121D01*
X397728Y455789D01*
Y457571D01*
D02*
G37*
G36*
X408582Y456783D02*
X406799D01*
Y455001D01*
X407602Y455334D01*
X408249Y455981D01*
X408340Y456201D01*
X408582Y456783D01*
D02*
G37*
G36*
X405799D02*
X404017D01*
X404349Y455981D01*
X404996Y455334D01*
X405799Y455001D01*
Y456783D01*
D02*
G37*
G36*
X399417Y453956D02*
Y452173D01*
X401200D01*
X400867Y452976D01*
X400220Y453623D01*
X399417Y453956D01*
D02*
G37*
G36*
X398417D02*
X397615Y453623D01*
X396968Y452976D01*
X396635Y452173D01*
X398417D01*
Y453956D01*
D02*
G37*
G36*
X401200Y451173D02*
X399417D01*
Y449391D01*
X400220Y449723D01*
X400867Y450370D01*
X401200Y451173D01*
D02*
G37*
G36*
X398417D02*
X396635D01*
X396968Y450370D01*
X397615Y449723D01*
X398417Y449391D01*
Y451173D01*
D02*
G37*
G36*
X396079Y448343D02*
X393807D01*
Y444102D01*
X396079D01*
Y448343D01*
D01*
D02*
G37*
G36*
X392807D02*
X390535D01*
Y444102D01*
X392807D01*
Y448343D01*
D02*
G37*
G36*
X396079Y443102D02*
X393807D01*
Y438862D01*
X396079D01*
Y443102D01*
D02*
G37*
G36*
X392807D02*
X390535D01*
Y438862D01*
X392807D01*
Y443102D01*
D02*
G37*
G36*
X411630Y434858D02*
X408965D01*
Y433177D01*
X411630D01*
Y434858D01*
D02*
G37*
G36*
X407965D02*
X405299D01*
Y433177D01*
X407965D01*
Y434858D01*
D02*
G37*
G36*
X396276Y435547D02*
X394004D01*
Y431307D01*
X396276D01*
Y435547D01*
D02*
G37*
G36*
X393004D02*
X390732D01*
Y431307D01*
X393004D01*
Y435547D01*
D02*
G37*
G36*
X396276Y430307D02*
X394004D01*
Y426067D01*
X396276D01*
Y430307D01*
D02*
G37*
G36*
X393004D02*
X390732D01*
Y426067D01*
X393004D01*
Y430307D01*
D02*
G37*
G36*
X416847Y419626D02*
Y416051D01*
X420118D01*
Y419626D01*
X416847D01*
D02*
G37*
G36*
X409661Y306906D02*
X405815D01*
Y302468D01*
X409661D01*
Y306906D01*
D02*
G37*
G36*
X404815D02*
X400969D01*
Y302468D01*
X404815D01*
Y306906D01*
D02*
G37*
G36*
X409661Y301468D02*
X405815D01*
Y297031D01*
X409661D01*
Y301468D01*
D02*
G37*
G36*
X404815D02*
X400969D01*
Y297031D01*
X404815D01*
Y301468D01*
D02*
G37*
G36*
X388087Y297988D02*
X382587D01*
Y292232D01*
X388087D01*
Y297988D01*
D02*
G37*
G36*
X381587D02*
X376087D01*
Y292232D01*
X381587D01*
Y297988D01*
D02*
G37*
G36*
X388087Y291232D02*
X382587D01*
Y285476D01*
X388087D01*
Y291232D01*
D02*
G37*
G36*
X381587D02*
X376087D01*
Y285476D01*
X381587D01*
Y291232D01*
D02*
G37*
G36*
X385587Y281976D02*
X382587D01*
Y279976D01*
X385587D01*
Y281976D01*
D02*
G37*
G36*
X381587D02*
X378587D01*
Y279976D01*
X381587D01*
Y281976D01*
D02*
G37*
G36*
X383276Y273345D02*
Y271563D01*
X385058D01*
X384725Y272366D01*
X384078Y273013D01*
X383276Y273345D01*
D02*
G37*
G36*
X382276D02*
X381473Y273013D01*
X380826Y272366D01*
X380493Y271563D01*
X382276D01*
Y273345D01*
D02*
G37*
G36*
X385058Y270563D02*
X383276D01*
Y268781D01*
X384078Y269113D01*
X384725Y269760D01*
X385058Y270563D01*
D02*
G37*
G36*
X382276D02*
X380493D01*
X380826Y269760D01*
X381473Y269113D01*
X382276Y268781D01*
Y270563D01*
D02*
G37*
G36*
X394576Y270992D02*
X389937D01*
Y264968D01*
X394576D01*
Y270992D01*
D02*
G37*
G36*
Y263968D02*
X389937D01*
Y257944D01*
X394576D01*
Y263968D01*
D02*
G37*
G36*
X368841Y270432D02*
Y268649D01*
X370623D01*
X370290Y269452D01*
X369643Y270099D01*
X368841Y270432D01*
D02*
G37*
G36*
X367841D02*
X367038Y270099D01*
X366391Y269452D01*
X366058Y268649D01*
X367841D01*
Y270432D01*
D02*
G37*
G36*
X363427D02*
Y268649D01*
X365210D01*
X364877Y269452D01*
X364230Y270099D01*
X363427Y270432D01*
D02*
G37*
G36*
X362427D02*
X361624Y270099D01*
X360977Y269452D01*
X360645Y268649D01*
X362427D01*
Y270432D01*
D02*
G37*
G36*
X345276Y269677D02*
X344284D01*
Y267996D01*
X345276D01*
Y269677D01*
D02*
G37*
G36*
X370623Y267649D02*
X368841D01*
Y265867D01*
X369643Y266199D01*
X370290Y266846D01*
X370623Y267649D01*
D02*
G37*
G36*
X367841D02*
X366058D01*
X366391Y266846D01*
X367038Y266199D01*
X367841Y265867D01*
Y267649D01*
D02*
G37*
G36*
X365210D02*
X363427D01*
Y265867D01*
X364230Y266199D01*
X364877Y266846D01*
X365210Y267649D01*
D02*
G37*
G36*
X362427D02*
X360645D01*
X360977Y266846D01*
X361624Y266199D01*
X362427Y265867D01*
Y267649D01*
D02*
G37*
G36*
X371571Y262713D02*
X368512D01*
Y256701D01*
X371571D01*
Y262713D01*
D02*
G37*
G36*
X367512D02*
X364453D01*
Y256701D01*
X367512D01*
Y262713D01*
D02*
G37*
G36*
X371571Y255701D02*
X368512D01*
Y249689D01*
X371571D01*
Y255701D01*
D02*
G37*
G36*
X367512D02*
X364453D01*
Y249689D01*
X367512D01*
Y255701D01*
D02*
G37*
G36*
X362705Y244898D02*
Y240756D01*
X364976D01*
Y244898D01*
X362705D01*
D02*
G37*
G36*
X372925Y239090D02*
X371244D01*
Y237409D01*
X372925D01*
Y239090D01*
D02*
G37*
G36*
X364976Y239756D02*
X362705D01*
Y235614D01*
X364976D01*
Y239756D01*
D02*
G37*
G36*
X427969Y235154D02*
X425697D01*
Y230913D01*
X427969D01*
Y235154D01*
D02*
G37*
G36*
X424697D02*
X422425D01*
Y230913D01*
X424697D01*
Y235154D01*
D02*
G37*
G36*
X427969Y229913D02*
X425697D01*
Y225673D01*
X427969D01*
Y229913D01*
D02*
G37*
G36*
X424697D02*
X422425D01*
Y225673D01*
X424697D01*
Y229913D01*
D02*
G37*
G36*
X428067Y223047D02*
X425795D01*
Y218807D01*
X428067D01*
Y223047D01*
D02*
G37*
G36*
X424795D02*
X422524D01*
Y218807D01*
X424795D01*
Y223047D01*
D02*
G37*
G36*
X428067Y217807D02*
X425795D01*
Y213567D01*
X428067D01*
Y217807D01*
D02*
G37*
G36*
X424795D02*
X422524D01*
Y213567D01*
X424795D01*
Y217807D01*
D02*
G37*
G36*
X411925Y201689D02*
X405520D01*
Y190362D01*
X411925D01*
Y201689D01*
D02*
G37*
G36*
X404520D02*
X398114D01*
Y190362D01*
X404520D01*
Y201689D01*
D02*
G37*
G36*
X411925Y189362D02*
X405520D01*
Y178035D01*
X411925D01*
Y189362D01*
D02*
G37*
G36*
X404520D02*
X398114D01*
Y178035D01*
X404520D01*
Y189362D01*
D02*
G37*
G36*
X300008Y366751D02*
Y364968D01*
X301790D01*
X301458Y365771D01*
X300811Y366418D01*
X300008Y366751D01*
D02*
G37*
G36*
X299008D02*
X298205Y366418D01*
X297558Y365771D01*
X297225Y364968D01*
X299008D01*
Y366751D01*
D02*
G37*
G36*
X330126Y365865D02*
Y364083D01*
X331908D01*
X331576Y364885D01*
X330929Y365532D01*
X330126Y365865D01*
D02*
G37*
G36*
X329126D02*
X328323Y365532D01*
X327676Y364885D01*
X327344Y364083D01*
X329126D01*
Y365865D01*
D02*
G37*
G36*
X286032Y364782D02*
Y363000D01*
X287814D01*
X287481Y363803D01*
X286834Y364450D01*
X286032Y364782D01*
D02*
G37*
G36*
X285032D02*
X284229Y364450D01*
X283582Y363803D01*
X283249Y363000D01*
X285032D01*
Y364782D01*
D02*
G37*
G36*
X354740Y364676D02*
Y362894D01*
X356523D01*
X356190Y363697D01*
X355543Y364344D01*
X354740Y364676D01*
D02*
G37*
G36*
X353740D02*
X352937Y364344D01*
X352290Y363697D01*
X351958Y362894D01*
X353740D01*
Y364676D01*
D02*
G37*
G36*
X301790Y363968D02*
X300008D01*
Y362186D01*
X300811Y362519D01*
X301458Y363166D01*
X301790Y363968D01*
D02*
G37*
G36*
X299008D02*
X297225D01*
X297558Y363166D01*
X298205Y362519D01*
X299008Y362186D01*
Y363968D01*
D02*
G37*
G36*
X259260Y363798D02*
Y362016D01*
X261042D01*
X260710Y362819D01*
X260063Y363466D01*
X259260Y363798D01*
D02*
G37*
G36*
X258260D02*
X257457Y363466D01*
X256810Y362819D01*
X256477Y362016D01*
X258260D01*
Y363798D01*
D02*
G37*
G36*
X331908Y363083D02*
X330126D01*
Y361300D01*
X330929Y361633D01*
X331576Y362280D01*
X331908Y363083D01*
D02*
G37*
G36*
X329126D02*
X327344D01*
X327676Y362280D01*
X328323Y361633D01*
X329126Y361300D01*
Y363083D01*
D02*
G37*
G36*
X376287Y362814D02*
Y361032D01*
X378070D01*
X377737Y361834D01*
X377090Y362481D01*
X376287Y362814D01*
D02*
G37*
G36*
X375287D02*
X374484Y362481D01*
X373838Y361834D01*
X373505Y361032D01*
X375287D01*
Y362814D01*
D02*
G37*
G36*
X287814Y362000D02*
X286032D01*
Y360218D01*
X286834Y360550D01*
X287481Y361197D01*
X287814Y362000D01*
D02*
G37*
G36*
X285032D02*
X283249D01*
X283582Y361197D01*
X284229Y360550D01*
X285032Y360218D01*
Y362000D01*
D02*
G37*
G36*
X356523Y361894D02*
X354740D01*
Y360111D01*
X355543Y360444D01*
X356190Y361091D01*
X356523Y361894D01*
D02*
G37*
G36*
X353740D02*
X351958D01*
X352290Y361091D01*
X352937Y360444D01*
X353740Y360111D01*
Y361894D01*
D02*
G37*
G36*
X261042Y361016D02*
X259260D01*
Y359233D01*
X260063Y359566D01*
X260710Y360213D01*
X261042Y361016D01*
D02*
G37*
G36*
X258260D02*
X256477D01*
X256810Y360213D01*
X257457Y359566D01*
X258260Y359233D01*
Y361016D01*
D02*
G37*
G36*
X378070Y360032D02*
X376287D01*
Y358249D01*
X377090Y358582D01*
X377737Y359229D01*
X378070Y360032D01*
D02*
G37*
G36*
X375287D02*
X373505D01*
X373838Y359229D01*
X374484Y358582D01*
X375287Y358249D01*
Y360032D01*
D02*
G37*
G36*
X400697Y355530D02*
Y353748D01*
X402479D01*
X402147Y354551D01*
X401500Y355198D01*
X400697Y355530D01*
D02*
G37*
G36*
X399697D02*
X398894Y355198D01*
X398247Y354551D01*
X397914Y353748D01*
X399697D01*
Y355530D01*
D02*
G37*
G36*
X402479Y352748D02*
X400697D01*
Y350966D01*
X401500Y351298D01*
X402147Y351945D01*
X402479Y352748D01*
D02*
G37*
G36*
X399697D02*
X397914D01*
X398247Y351945D01*
X398894Y351298D01*
X399697Y350966D01*
Y352748D01*
D02*
G37*
G36*
X275186Y350783D02*
Y349000D01*
X276969D01*
X276636Y349803D01*
X275989Y350450D01*
X275186Y350783D01*
D02*
G37*
G36*
X274186D02*
X273383Y350450D01*
X272736Y349803D01*
X272404Y349000D01*
X274186D01*
Y350783D01*
D02*
G37*
G36*
X276969Y348000D02*
X275186D01*
Y346218D01*
X275989Y346550D01*
X276636Y347197D01*
X276969Y348000D01*
D02*
G37*
G36*
X274186D02*
X272404D01*
X272736Y347197D01*
X273383Y346550D01*
X274186Y346218D01*
Y348000D01*
D02*
G37*
G36*
X256701Y347558D02*
Y345776D01*
X258483D01*
X258151Y346578D01*
X257504Y347225D01*
X256701Y347558D01*
D02*
G37*
G36*
X255701D02*
X254898Y347225D01*
X254251Y346578D01*
X253918Y345776D01*
X255701D01*
Y347558D01*
D02*
G37*
G36*
X386228Y345983D02*
Y344201D01*
X388011D01*
X387678Y345004D01*
X387031Y345651D01*
X386228Y345983D01*
D02*
G37*
G36*
X385228D02*
X384425Y345651D01*
X383779Y345004D01*
X383446Y344201D01*
X385228D01*
Y345983D01*
D02*
G37*
G36*
X258483Y344776D02*
X256701D01*
Y342993D01*
X257504Y343326D01*
X258151Y343973D01*
X258483Y344776D01*
D02*
G37*
G36*
X255701D02*
X253918D01*
X254251Y343973D01*
X254898Y343326D01*
X255701Y342993D01*
Y344776D01*
D02*
G37*
G36*
X388011Y343201D02*
X386228D01*
Y341418D01*
X387031Y341751D01*
X387678Y342398D01*
X388011Y343201D01*
D02*
G37*
G36*
X385228D02*
X383446D01*
X383779Y342398D01*
X384425Y341751D01*
X385228Y341418D01*
Y343201D01*
D02*
G37*
G36*
X421680Y337231D02*
Y335449D01*
X423462D01*
X423130Y336252D01*
X422483Y336899D01*
X421680Y337231D01*
D02*
G37*
G36*
X420680D02*
X419877Y336899D01*
X419230Y336252D01*
X418898Y335449D01*
X420680D01*
Y337231D01*
D02*
G37*
G36*
X274909Y336141D02*
Y334358D01*
X276692D01*
X276359Y335161D01*
X275712Y335808D01*
X274909Y336141D01*
D02*
G37*
G36*
X273909D02*
X273107Y335808D01*
X272460Y335161D01*
X272127Y334358D01*
X273909D01*
Y336141D01*
D02*
G37*
G36*
X423462Y334449D02*
X421680D01*
Y332666D01*
X422483Y332999D01*
X423130Y333646D01*
X423462Y334449D01*
D02*
G37*
G36*
X420680D02*
X418898D01*
X419230Y333646D01*
X419877Y332999D01*
X420680Y332666D01*
Y334449D01*
D02*
G37*
G36*
X276692Y333358D02*
X274909D01*
Y331576D01*
X275712Y331908D01*
X276359Y332555D01*
X276692Y333358D01*
D02*
G37*
G36*
X273909D02*
X272127D01*
X272460Y332555D01*
X273107Y331908D01*
X273909Y331576D01*
Y333358D01*
D02*
G37*
G36*
X400402Y331908D02*
Y330126D01*
X402184D01*
X401851Y330929D01*
X401204Y331576D01*
X400402Y331908D01*
D02*
G37*
G36*
X399402D02*
X398599Y331576D01*
X397952Y330929D01*
X397619Y330126D01*
X399402D01*
Y331908D01*
D02*
G37*
G36*
X255520Y331613D02*
Y329831D01*
X257302D01*
X256969Y330634D01*
X256323Y331281D01*
X255520Y331613D01*
D02*
G37*
G36*
X254520D02*
X253717Y331281D01*
X253070Y330634D01*
X252737Y329831D01*
X254520D01*
Y331613D01*
D02*
G37*
G36*
X402184Y329126D02*
X400402D01*
Y327344D01*
X401204Y327676D01*
X401851Y328323D01*
X402184Y329126D01*
D02*
G37*
G36*
X399402D02*
X397619D01*
X397952Y328323D01*
X398599Y327676D01*
X399402Y327344D01*
Y329126D01*
D02*
G37*
G36*
X257302Y328831D02*
X255520D01*
Y327048D01*
X256323Y327381D01*
X256969Y328028D01*
X257302Y328831D01*
D02*
G37*
G36*
X254520D02*
X252737D01*
X253070Y328028D01*
X253717Y327381D01*
X254520Y327048D01*
Y328831D01*
D02*
G37*
G36*
X273532Y321475D02*
Y319693D01*
X275314D01*
X274981Y320496D01*
X274334Y321143D01*
X273532Y321475D01*
D02*
G37*
G36*
X272532D02*
X271729Y321143D01*
X271082Y320496D01*
X270749Y319693D01*
X272532D01*
Y321475D01*
D02*
G37*
G36*
X275314Y318693D02*
X273532D01*
Y316911D01*
X274334Y317243D01*
X274981Y317890D01*
X275314Y318693D01*
D02*
G37*
G36*
X272532D02*
X270749D01*
X271082Y317890D01*
X271729Y317243D01*
X272532Y316911D01*
Y318693D01*
D02*
G37*
G36*
X255421Y318621D02*
Y316839D01*
X257204D01*
X256871Y317641D01*
X256224Y318288D01*
X255421Y318621D01*
D02*
G37*
G36*
X254421D02*
X253618Y318288D01*
X252971Y317641D01*
X252639Y316839D01*
X254421D01*
Y318621D01*
D02*
G37*
G36*
X436425Y316259D02*
Y314476D01*
X438208D01*
X437875Y315279D01*
X437228Y315926D01*
X436425Y316259D01*
D02*
G37*
G36*
X435425D02*
X434622Y315926D01*
X433975Y315279D01*
X433643Y314476D01*
X435425D01*
Y316259D01*
D02*
G37*
G36*
X257204Y315839D02*
X255421D01*
Y314056D01*
X256224Y314389D01*
X256871Y315036D01*
X257204Y315839D01*
D02*
G37*
G36*
X254421D02*
X252639D01*
X252971Y315036D01*
X253618Y314389D01*
X254421Y314056D01*
Y315839D01*
D02*
G37*
G36*
X438208Y313476D02*
X436425D01*
Y311694D01*
X437228Y312027D01*
X437875Y312673D01*
X438208Y313476D01*
D02*
G37*
G36*
X435425D02*
X433643D01*
X433975Y312673D01*
X434622Y312027D01*
X435425Y311694D01*
Y313476D01*
D02*
G37*
G36*
X272350Y307105D02*
Y305323D01*
X274133D01*
X273800Y306126D01*
X273153Y306773D01*
X272350Y307105D01*
D02*
G37*
G36*
X271350D02*
X270548Y306773D01*
X269900Y306126D01*
X269568Y305323D01*
X271350D01*
Y307105D01*
D02*
G37*
G36*
X288992Y306610D02*
X286622D01*
Y302764D01*
X288992D01*
Y306610D01*
D02*
G37*
G36*
X285622D02*
X283252D01*
Y302764D01*
X285622D01*
Y306610D01*
D02*
G37*
G36*
X274133Y304323D02*
X272350D01*
Y302540D01*
X273153Y302873D01*
X273800Y303520D01*
X274133Y304323D01*
D02*
G37*
G36*
X271350D02*
X269568D01*
X269900Y303520D01*
X270548Y302873D01*
X271350Y302540D01*
Y304323D01*
D02*
G37*
G36*
X254437Y301692D02*
Y299909D01*
X256219D01*
X255887Y300712D01*
X255240Y301359D01*
X254437Y301692D01*
D02*
G37*
G36*
X253437D02*
X252634Y301359D01*
X251987Y300712D01*
X251655Y299909D01*
X253437D01*
Y301692D01*
D02*
G37*
G36*
X288992Y301764D02*
X286622D01*
Y297917D01*
X288992D01*
Y301764D01*
D02*
G37*
G36*
X285622D02*
X283252D01*
Y297917D01*
X285622D01*
Y301764D01*
D02*
G37*
G36*
X256219Y298909D02*
X254437D01*
Y297127D01*
X255240Y297460D01*
X255887Y298107D01*
X256219Y298909D01*
D02*
G37*
G36*
X253437D02*
X251655D01*
X251987Y298107D01*
X252634Y297460D01*
X253437Y297127D01*
Y298909D01*
D02*
G37*
G36*
X437114Y298444D02*
Y296661D01*
X438897D01*
X438564Y297464D01*
X437917Y298111D01*
X437114Y298444D01*
D02*
G37*
G36*
X436114D02*
X435311Y298111D01*
X434664Y297464D01*
X434332Y296661D01*
X436114D01*
Y298444D01*
D02*
G37*
G36*
X438897Y295661D02*
X437114D01*
Y293879D01*
X437917Y294212D01*
X438564Y294859D01*
X438897Y295661D01*
D02*
G37*
G36*
X436114D02*
X434332D01*
X434664Y294859D01*
X435311Y294212D01*
X436114Y293879D01*
Y295661D01*
D02*
G37*
G36*
X252862Y288897D02*
Y287114D01*
X254645D01*
X254312Y287917D01*
X253665Y288564D01*
X252862Y288897D01*
D02*
G37*
G36*
X251862D02*
X251059Y288564D01*
X250412Y287917D01*
X250080Y287114D01*
X251862D01*
Y288897D01*
D02*
G37*
G36*
X430028Y288404D02*
Y286622D01*
X431810D01*
X431477Y287425D01*
X430830Y288072D01*
X430028Y288404D01*
D02*
G37*
G36*
X429028D02*
X428225Y288072D01*
X427578Y287425D01*
X427245Y286622D01*
X429028D01*
Y288404D01*
D02*
G37*
G36*
X254645Y286114D02*
X252862D01*
Y284332D01*
X253665Y284664D01*
X254312Y285311D01*
X254645Y286114D01*
D02*
G37*
G36*
X251862D02*
X250080D01*
X250412Y285311D01*
X251059Y284664D01*
X251862Y284332D01*
Y286114D01*
D02*
G37*
G36*
X431810Y285622D02*
X430028D01*
Y283840D01*
X430830Y284172D01*
X431477Y284819D01*
X431810Y285622D01*
D02*
G37*
G36*
X429028D02*
X427245D01*
X427578Y284819D01*
X428225Y284172D01*
X429028Y283840D01*
Y285622D01*
D02*
G37*
G36*
X409661Y287221D02*
X405815D01*
Y282784D01*
X409661D01*
Y287221D01*
D02*
G37*
G36*
X404815D02*
X400969D01*
Y282784D01*
X404815D01*
Y287221D01*
D02*
G37*
G36*
X251681Y280038D02*
Y278256D01*
X253464D01*
X253131Y279059D01*
X252484Y279706D01*
X251681Y280038D01*
D02*
G37*
G36*
X250681D02*
X249878Y279706D01*
X249231Y279059D01*
X248899Y278256D01*
X250681D01*
Y280038D01*
D02*
G37*
G36*
X409661Y281784D02*
X405815D01*
Y277346D01*
X409661D01*
Y281784D01*
D02*
G37*
G36*
X404815D02*
X400969D01*
Y277346D01*
X404815D01*
Y281784D01*
D02*
G37*
G36*
X253464Y277256D02*
X251681D01*
Y275473D01*
X252484Y275806D01*
X253131Y276453D01*
X253464Y277256D01*
D02*
G37*
G36*
X250681D02*
X248899D01*
X249231Y276453D01*
X249878Y275806D01*
X250681Y275473D01*
Y277256D01*
D02*
G37*
G36*
X435146Y275806D02*
Y274024D01*
X436928D01*
X436595Y274827D01*
X435949Y275473D01*
X435146Y275806D01*
D02*
G37*
G36*
X434146D02*
X433343Y275473D01*
X432696Y274827D01*
X432363Y274024D01*
X434146D01*
Y275806D01*
D02*
G37*
G36*
X436928Y273024D02*
X435146D01*
Y271241D01*
X435949Y271574D01*
X436595Y272221D01*
X436928Y273024D01*
D02*
G37*
G36*
X434146D02*
X432363D01*
X432696Y272221D01*
X433343Y271574D01*
X434146Y271241D01*
Y273024D01*
D02*
G37*
G36*
X423236Y267834D02*
Y266051D01*
X425019D01*
X424686Y266854D01*
X424039Y267501D01*
X423236Y267834D01*
D02*
G37*
G36*
X422236D02*
X421433Y267501D01*
X420786Y266854D01*
X420454Y266051D01*
X422236D01*
Y267834D01*
D02*
G37*
G36*
X410063Y270992D02*
X405424D01*
Y264968D01*
X410063D01*
Y270992D01*
D02*
G37*
G36*
X252746Y270500D02*
X248106D01*
Y264476D01*
X252746D01*
Y270500D01*
D02*
G37*
G36*
X425019Y265051D02*
X423236D01*
Y263269D01*
X424039Y263601D01*
X424686Y264248D01*
X425019Y265051D01*
D02*
G37*
G36*
X422236D02*
X420454D01*
X420786Y264248D01*
X421433Y263601D01*
X422236Y263269D01*
Y265051D01*
D02*
G37*
G36*
X410063Y263968D02*
X405424D01*
Y257944D01*
X410063D01*
Y263968D01*
D02*
G37*
G36*
X252746Y263476D02*
X248106D01*
Y257452D01*
X252746D01*
Y263476D01*
D02*
G37*
G36*
X279937Y270193D02*
X276878D01*
Y267921D01*
X279937D01*
Y270193D01*
D02*
G37*
G36*
X275878D02*
X272819D01*
Y267921D01*
X275878D01*
Y270193D01*
D02*
G37*
G36*
X295783Y267437D02*
X291937D01*
Y264968D01*
X295783D01*
Y267437D01*
D02*
G37*
G36*
X290937D02*
X287091D01*
Y264968D01*
X290937D01*
Y267437D01*
D02*
G37*
G36*
X279937Y266921D02*
X276878D01*
Y264650D01*
X279937D01*
Y266921D01*
D02*
G37*
G36*
X275878D02*
X272819D01*
Y264650D01*
X275878D01*
Y266921D01*
D02*
G37*
G36*
X268233Y270500D02*
X263593D01*
Y264476D01*
X268233D01*
Y270500D01*
D02*
G37*
G36*
X295783Y263968D02*
X291937D01*
Y261500D01*
X295783D01*
Y263968D01*
D02*
G37*
G36*
X290937D02*
X287091D01*
Y261500D01*
X290937D01*
Y263968D01*
D02*
G37*
G36*
X268233Y263476D02*
X263593D01*
Y257452D01*
X268233D01*
Y263476D01*
D02*
G37*
G36*
X331209Y265373D02*
Y263591D01*
X332991D01*
X332659Y264393D01*
X332012Y265040D01*
X331209Y265373D01*
D02*
G37*
G36*
X330209D02*
X329406Y265040D01*
X328759Y264393D01*
X328426Y263591D01*
X330209D01*
Y265373D01*
D02*
G37*
G36*
X325894Y264389D02*
Y262606D01*
X327676D01*
X327344Y263409D01*
X326696Y264056D01*
X325894Y264389D01*
D02*
G37*
G36*
X324894D02*
X324091Y264056D01*
X323444Y263409D01*
X323111Y262606D01*
X324894D01*
Y264389D01*
D02*
G37*
G36*
X332991Y262591D02*
X331209D01*
Y260808D01*
X332012Y261141D01*
X332659Y261788D01*
X332991Y262591D01*
D02*
G37*
G36*
X330209D02*
X328426D01*
X328759Y261788D01*
X329406Y261141D01*
X330209Y260808D01*
Y262591D01*
D02*
G37*
G36*
X327676Y261606D02*
X325894D01*
Y259824D01*
X326696Y260156D01*
X327344Y260804D01*
X327676Y261606D01*
D02*
G37*
G36*
X324894D02*
X323111D01*
X323444Y260804D01*
X324091Y260156D01*
X324894Y259824D01*
Y261606D01*
D02*
G37*
G36*
X333185Y259279D02*
X329043D01*
Y257008D01*
X333185D01*
Y259279D01*
D02*
G37*
G36*
X328043D02*
X323902D01*
Y257008D01*
X328043D01*
Y259279D01*
D02*
G37*
G36*
X333185Y256008D02*
X329043D01*
Y253736D01*
X333185D01*
Y256008D01*
D02*
G37*
G36*
X328043D02*
X323902D01*
Y253736D01*
X328043D01*
Y256008D01*
D02*
G37*
G36*
X344110Y253362D02*
X340264D01*
Y250992D01*
X344110D01*
Y253362D01*
D02*
G37*
G36*
X339264D02*
X335417D01*
Y250992D01*
X339264D01*
Y253362D01*
D02*
G37*
G36*
X344110Y249992D02*
X340264D01*
Y247622D01*
X344110D01*
Y249992D01*
D02*
G37*
G36*
X339264D02*
X335417D01*
Y247622D01*
X339264D01*
Y249992D01*
D02*
G37*
G36*
X354335Y244898D02*
X352063D01*
Y240756D01*
X354335D01*
Y244898D01*
D02*
G37*
G36*
X351063D02*
X348791D01*
Y240756D01*
X351063D01*
Y244898D01*
D02*
G37*
G36*
X354335Y239756D02*
X352063D01*
Y235614D01*
X354335D01*
Y239756D01*
D02*
G37*
G36*
X351063D02*
X348791D01*
Y235614D01*
X351063D01*
Y239756D01*
D02*
G37*
G36*
X330898Y272252D02*
X329217D01*
Y271260D01*
X330898D01*
Y272252D01*
D02*
G37*
G36*
X308075Y251630D02*
X306075D01*
Y248630D01*
X308075D01*
Y251630D01*
D02*
G37*
G36*
Y247630D02*
X306075D01*
Y244630D01*
X308075D01*
Y247630D01*
D02*
G37*
G36*
X311531Y238795D02*
X307685D01*
Y234358D01*
X311531D01*
Y238795D01*
D02*
G37*
G36*
Y233358D02*
X307685D01*
Y228921D01*
X311531D01*
Y233358D01*
D02*
G37*
G36*
X328043Y245366D02*
X323902D01*
Y243094D01*
X328043D01*
Y245366D01*
D02*
G37*
G36*
X378165Y229716D02*
X376484D01*
Y228035D01*
X378165D01*
Y229716D01*
D02*
G37*
G36*
X375484D02*
X373803D01*
Y228035D01*
X375484D01*
Y229716D01*
D02*
G37*
G36*
X311531Y219110D02*
X307685D01*
Y214673D01*
X311531D01*
Y219110D01*
D02*
G37*
G36*
X306685D02*
X302839D01*
Y214673D01*
X306685D01*
Y219110D01*
D02*
G37*
G36*
X311531Y213673D02*
X307685D01*
Y209236D01*
X311531D01*
Y213673D01*
D02*
G37*
G36*
X306685D02*
X302839D01*
Y209236D01*
X306685D01*
Y213673D01*
D02*
G37*
G36*
X454437Y235550D02*
Y233768D01*
X456219D01*
X455887Y234571D01*
X455240Y235218D01*
X454437Y235550D01*
D02*
G37*
G36*
X453437D02*
X452634Y235218D01*
X451987Y234571D01*
X451655Y233768D01*
X453437D01*
Y235550D01*
D02*
G37*
G36*
X444791Y235255D02*
Y233472D01*
X446574D01*
X446241Y234275D01*
X445594Y234922D01*
X444791Y235255D01*
D02*
G37*
G36*
X443791D02*
X442988Y234922D01*
X442342Y234275D01*
X442009Y233472D01*
X443791D01*
Y235255D01*
D02*
G37*
G36*
X456219Y232768D02*
X454437D01*
Y230985D01*
X455240Y231318D01*
X455887Y231965D01*
X456219Y232768D01*
D02*
G37*
G36*
X453437D02*
X451655D01*
X451987Y231965D01*
X452634Y231318D01*
X453437Y230985D01*
Y232768D01*
D02*
G37*
G36*
X436327Y235154D02*
Y230913D01*
X438598D01*
Y235154D01*
X436327D01*
D02*
G37*
G36*
X446574Y232472D02*
X444791D01*
Y230690D01*
X445594Y231023D01*
X446241Y231670D01*
X446574Y232472D01*
D02*
G37*
G36*
X443791D02*
X442009D01*
X442342Y231670D01*
X442988Y231023D01*
X443791Y230690D01*
Y232472D01*
D02*
G37*
G36*
X449516Y230826D02*
Y229043D01*
X451298D01*
X450966Y229846D01*
X450319Y230493D01*
X449516Y230826D01*
D02*
G37*
G36*
X448516D02*
X447713Y230493D01*
X447066Y229846D01*
X446733Y229043D01*
X448516D01*
Y230826D01*
D02*
G37*
G36*
X451298Y228043D02*
X449516D01*
Y226261D01*
X450319Y226593D01*
X450966Y227240D01*
X451298Y228043D01*
D02*
G37*
G36*
X448516D02*
X446733D01*
X447066Y227240D01*
X447713Y226593D01*
X448516Y226261D01*
Y228043D01*
D02*
G37*
G36*
X438598Y229913D02*
X436327D01*
Y225673D01*
X438598D01*
Y229913D01*
D02*
G37*
G36*
X436425Y223047D02*
Y218807D01*
X438697D01*
Y223047D01*
X436425D01*
D02*
G37*
G36*
X453158Y218326D02*
Y216543D01*
X454940D01*
X454607Y217346D01*
X453960Y217993D01*
X453158Y218326D01*
D02*
G37*
G36*
X452157D02*
X451355Y217993D01*
X450708Y217346D01*
X450375Y216543D01*
X452157D01*
Y218326D01*
D02*
G37*
G36*
X454940Y215543D02*
X453158D01*
Y213761D01*
X453960Y214093D01*
X454607Y214740D01*
X454940Y215543D01*
D02*
G37*
G36*
X452157D02*
X450375D01*
X450708Y214740D01*
X451355Y214093D01*
X452157Y213761D01*
Y215543D01*
D02*
G37*
G36*
X438697Y217807D02*
X436425D01*
Y213567D01*
X438697D01*
Y217807D01*
D02*
G37*
G36*
X456390Y206906D02*
X453724D01*
Y205224D01*
X456390D01*
Y206906D01*
D02*
G37*
G36*
X467962Y191083D02*
X464690D01*
Y187508D01*
X467962D01*
Y191083D01*
D02*
G37*
G36*
Y186508D02*
X464690D01*
Y182933D01*
X467962D01*
Y186508D01*
D02*
G37*
%LPD*%
D12*
X395177Y405217D02*
Y419095D01*
X401870Y425787D01*
X295866Y269390D02*
X298524Y272047D01*
X311221D01*
X313878Y274705D02*
X331398D01*
X311221Y272047D02*
X313878Y274705D01*
X409252Y445571D02*
X409685D01*
X411005Y446891D02*
X417482D01*
X409685Y445571D02*
X411005Y446891D01*
X428505Y441104D02*
Y446891D01*
X419095Y432677D02*
X420079D01*
X428505Y441104D01*
X421260Y400295D02*
X421358Y400394D01*
X421260Y395079D02*
Y400295D01*
X419114Y428917D02*
X425768D01*
X425787Y428937D01*
X419095Y428898D02*
X419114Y428917D01*
X436319Y421949D02*
X437203Y422833D01*
X451378D01*
X435532Y421949D02*
X436319D01*
X419095Y425197D02*
X432283D01*
X435532Y421949D01*
X445866Y400394D02*
X445965Y400492D01*
X408465Y415936D02*
Y425197D01*
Y415936D02*
X408850Y415551D01*
X377854Y448228D02*
X378051Y448425D01*
X443602Y195965D02*
X447827Y200189D01*
X443602Y195965D02*
Y204232D01*
Y191043D02*
Y195965D01*
X442421Y189862D02*
X443602Y191043D01*
X461330Y221643D02*
X465748Y217224D01*
X461024Y222539D02*
X461330Y222233D01*
X465748Y215748D02*
Y217224D01*
X461330Y221643D02*
Y222233D01*
X473721Y204724D02*
X476772Y207776D01*
Y215748D01*
X467520Y204724D02*
X473721D01*
X447827Y200189D02*
X451128D01*
X451923Y200984D01*
X456890D01*
X501574Y197930D02*
X501673Y198030D01*
X487795Y197930D02*
X501574D01*
X487109Y197244D02*
X487795Y197930D01*
X467520Y197244D02*
X487109D01*
X469020Y177583D02*
X469095Y177657D01*
X469020Y170169D02*
Y177583D01*
X467602Y200862D02*
X475433D01*
X467520Y200945D02*
X467602Y200862D01*
X475433D02*
X475516Y200779D01*
X453937Y231988D02*
X474114D01*
X487795Y218307D01*
Y204826D02*
Y218307D01*
X456890Y178243D02*
X457476Y177657D01*
X418602Y235138D02*
X422441Y238976D01*
X479724D01*
X501673Y217028D01*
Y206104D02*
Y217028D01*
X425197Y232382D02*
X426469Y233653D01*
X425197Y230413D02*
Y232382D01*
X501266Y206104D02*
X501673D01*
X405020Y184941D02*
Y189862D01*
D15*
X338878Y277658D02*
D03*
D16*
X346358Y274783D02*
D03*
Y276752D02*
D03*
Y278720D02*
D03*
Y280689D02*
D03*
Y282658D02*
D03*
Y272815D02*
D03*
X331398Y274721D02*
D03*
Y276689D02*
D03*
Y278658D02*
D03*
Y280626D02*
D03*
Y282594D02*
D03*
Y272752D02*
D03*
D17*
X341815Y285138D02*
D03*
X339846D02*
D03*
X337878D02*
D03*
X335910D02*
D03*
X333941D02*
D03*
X343783D02*
D03*
X341815Y270177D02*
D03*
X339846D02*
D03*
X337878D02*
D03*
X335910D02*
D03*
X333941D02*
D03*
X343783D02*
D03*
D18*
X405315Y301969D02*
D03*
Y282283D02*
D03*
X307185Y233858D02*
D03*
Y214173D02*
D03*
D19*
X395177Y405217D02*
D03*
X357776D02*
D03*
X405020Y189862D02*
D03*
X442421D02*
D03*
D20*
X428505Y446891D02*
D03*
X417482D02*
D03*
X476772Y215748D02*
D03*
X465748D02*
D03*
X297146Y302264D02*
D03*
X286122D02*
D03*
D21*
X339764Y261516D02*
D03*
Y250492D02*
D03*
D22*
X351563Y240256D02*
D03*
X362205D02*
D03*
D23*
X328543Y245866D02*
D03*
Y256508D02*
D03*
D24*
X349114Y256201D02*
D03*
X368012D02*
D03*
D25*
X305315Y267913D02*
D03*
Y276575D02*
D03*
D26*
X404924Y264469D02*
D03*
X395076D02*
D03*
X311223Y288583D02*
D03*
X301376D02*
D03*
X253246Y263976D02*
D03*
X263093D02*
D03*
D27*
X352756Y294685D02*
D03*
Y307283D02*
D03*
X291437Y264469D02*
D03*
Y277067D02*
D03*
D28*
X315551Y340945D02*
D03*
X340945D02*
D03*
D29*
X335531Y315453D02*
D03*
Y296555D02*
D03*
D30*
X310236Y315551D02*
D03*
Y304921D02*
D03*
D31*
X276378Y276476D02*
D03*
Y267421D02*
D03*
X436319Y430217D02*
D03*
Y421949D02*
D03*
D32*
X425295Y218307D02*
D03*
X435925D02*
D03*
X425197Y230413D02*
D03*
X435827D02*
D03*
X393307Y443602D02*
D03*
X382677D02*
D03*
X393504Y430807D02*
D03*
X382874D02*
D03*
D33*
X456890Y200984D02*
D03*
Y197244D02*
D03*
X467520D02*
D03*
Y200945D02*
D03*
X456890Y204724D02*
D03*
X467520D02*
D03*
X408465Y428937D02*
D03*
X419095Y432677D02*
D03*
X408465D02*
D03*
X419095Y428898D02*
D03*
Y425197D02*
D03*
X408465D02*
D03*
D34*
X464190Y187008D02*
D03*
X456693D02*
D03*
X408850Y415551D02*
D03*
X416347D02*
D03*
D35*
X501673Y198030D02*
D03*
Y206104D02*
D03*
X451378Y422833D02*
D03*
Y430907D02*
D03*
D36*
X487795Y204826D02*
D03*
Y197930D02*
D03*
D37*
X368799Y301969D02*
D03*
Y296063D02*
D03*
D38*
X382087Y282476D02*
D03*
D39*
Y291732D02*
D03*
D40*
X296319Y248130D02*
D03*
D41*
X305575D02*
D03*
D42*
X373425Y236910D02*
D03*
X378543D02*
D03*
X375984Y230217D02*
D03*
D69*
X274410Y333858D02*
Y335258D01*
Y333858D02*
X292717Y315551D01*
X310236D01*
X365158Y301870D02*
X368799D01*
X337894Y285138D02*
Y289590D01*
X315551Y340945D02*
X315600Y340896D01*
Y328900D02*
Y340896D01*
Y328900D02*
X321600Y322900D01*
Y314907D02*
Y322900D01*
X310236Y304921D02*
X311614D01*
X321600Y314907D01*
X311614Y304921D02*
X315453D01*
X323800Y285200D02*
X326421Y282579D01*
X331398D01*
X292028Y284646D02*
X295965Y288583D01*
X301376D01*
X322614Y288878D02*
X332972D01*
X322146Y289347D02*
X322614Y288878D01*
X326279Y291817D02*
X327320Y290776D01*
X333657D01*
X326279Y291817D02*
Y294094D01*
X322146Y289347D02*
Y293701D01*
X317028Y298819D02*
X322146Y293701D01*
X315453Y304921D02*
X326279Y294094D01*
X401870Y425787D02*
X405020Y428937D01*
X408465D01*
X379027Y237393D02*
Y239290D01*
X378543Y236910D02*
X379027Y237393D01*
Y239290D02*
X379528Y239791D01*
Y242520D01*
X360241Y273917D02*
X360728D01*
X346358Y272736D02*
X359060D01*
X360241Y273917D01*
X364375Y276575D02*
X364862D01*
X359646Y277165D02*
X363785D01*
X346358Y274705D02*
X357185D01*
X359646Y277165D01*
X363785D02*
X364375Y276575D01*
X362298Y294783D02*
X363578Y296063D01*
X361811Y294783D02*
X362298D01*
X363578Y296063D02*
X368799D01*
X352854Y294783D02*
X361811D01*
X352756Y294685D02*
X352854Y294783D01*
X353465Y278642D02*
X355476Y280653D01*
X364820D01*
X364862Y280610D01*
X346358Y278642D02*
X353465D01*
X356107Y277953D02*
X356594D01*
X354828Y276673D02*
X356107Y277953D01*
X346358Y276673D02*
X354828D01*
X350689Y280610D02*
X353445Y283366D01*
X346358Y280610D02*
X350689D01*
X351378Y294685D02*
X352756D01*
X347638Y290945D02*
X351378Y294685D01*
X342805Y290945D02*
X347638D01*
X339862Y288002D02*
X342805Y290945D01*
X339862Y285138D02*
Y288002D01*
X339373Y290059D02*
X352756Y303441D01*
Y307283D01*
X338362Y290059D02*
X339373D01*
X341831Y285138D02*
Y287425D01*
X342299Y287894D01*
X345847D01*
X337894Y289590D02*
X338362Y290059D01*
X333957Y285138D02*
Y287894D01*
X332972Y288878D02*
X333957Y287894D01*
X333657Y290776D02*
X335925Y288508D01*
X305217Y298819D02*
X317028D01*
X297146Y302264D02*
X301772D01*
X305217Y298819D01*
X316605Y288583D02*
X317028Y288160D01*
X311223Y288583D02*
X316605D01*
X317028Y286509D02*
X324895Y278642D01*
X317028Y286509D02*
Y288160D01*
X324895Y278642D02*
X331398D01*
X335925Y285138D02*
Y288508D01*
X340945Y327658D02*
Y340945D01*
X335827Y313681D02*
Y322539D01*
X340945Y327658D01*
X335827Y294783D02*
X337894Y292717D01*
Y289590D02*
Y292717D01*
X343799Y285846D02*
X345847Y287894D01*
X351279D01*
X359744Y307283D02*
X365158Y301870D01*
X352756Y307283D02*
X359744D01*
X343799Y285138D02*
Y285846D01*
X351673Y288287D02*
X353150D01*
X351279Y287894D02*
X351673Y288287D01*
X350590Y285138D02*
X352362Y286910D01*
X343799Y285138D02*
X350590D01*
X332554Y268727D02*
X333215D01*
X333957Y269468D01*
Y270177D01*
X331398Y270646D02*
X331866Y270177D01*
X333957D01*
X326575Y270965D02*
X328917D01*
X330689Y272736D02*
X331398D01*
X295079Y269390D02*
X295866D01*
X303937Y263086D02*
X305315Y264463D01*
Y267913D01*
X303937Y262598D02*
Y263086D01*
X276969Y277067D02*
X291437D01*
X276378Y276476D02*
X276969Y277067D01*
X291437D02*
X291929Y276575D01*
X305315D01*
X305413Y276673D01*
X331398D01*
X378051Y237402D02*
X378543Y236910D01*
X335925Y266732D02*
X337821Y268628D01*
Y270105D01*
X337894Y270177D01*
X335925D02*
X337894D01*
X339766Y268532D02*
Y269110D01*
X339790Y269133D02*
Y270105D01*
X339764Y261516D02*
Y268530D01*
X339766Y268532D01*
Y269110D02*
X339790Y269133D01*
Y270105D02*
X339862Y270177D01*
X339764Y261516D02*
X339862D01*
D70*
X284830Y248130D02*
X296319D01*
X276231Y256729D02*
X284830Y248130D01*
X257972Y225886D02*
Y239961D01*
X271916Y253904D01*
X339862Y261516D02*
X340544Y260834D01*
X344481D01*
X345184Y260131D01*
X347305D02*
X349114Y258322D01*
Y256201D02*
Y258322D01*
X345184Y260131D02*
X347305D01*
X421358Y400394D02*
X445866D01*
X409436D02*
X421358D01*
X408850Y400980D02*
Y415551D01*
Y400980D02*
X409436Y400394D01*
X373031Y399114D02*
X391653Y380492D01*
X445965D01*
X378051Y448425D02*
Y462997D01*
X378637Y463583D02*
X432677D01*
X378051Y462997D02*
X378637Y463583D01*
X432677D02*
X451378Y444882D01*
Y430907D02*
Y444882D01*
X469095Y177657D02*
X501968D01*
X457476D02*
X469095D01*
X456890Y178243D02*
Y197244D01*
D71*
X384744Y259941D02*
X393898Y250787D01*
X451968D01*
X459587Y258405D01*
X479724D01*
X441949Y157658D02*
X501968D01*
X423228Y176378D02*
X441949Y157658D01*
D72*
X436319Y430217D02*
Y450787D01*
X431102Y456004D02*
X436319Y450787D01*
D73*
X479724Y258405D02*
D03*
X501968Y157658D02*
D03*
X445965Y380492D02*
D03*
D74*
X479724Y278405D02*
D03*
X445965Y400492D02*
D03*
X257972Y225886D02*
D03*
X501968Y177657D02*
D03*
D75*
X237972Y225886D02*
D03*
D76*
X336378Y280157D02*
D03*
X341378D02*
D03*
X336378Y275658D02*
D03*
X341378D02*
D03*
D77*
X323800Y285200D02*
D03*
X271850Y304823D02*
D03*
X292028Y284646D02*
D03*
X449016Y228543D02*
D03*
X452658Y216043D02*
D03*
X453937Y233268D02*
D03*
X444291Y232972D02*
D03*
X251181Y277756D02*
D03*
X252362Y286614D02*
D03*
X253937Y299410D02*
D03*
X273031Y319193D02*
D03*
X254921Y316339D02*
D03*
X274410Y333858D02*
D03*
X255020Y329331D02*
D03*
X274686Y348500D02*
D03*
X256201Y345276D02*
D03*
X258760Y361516D02*
D03*
X285531Y362500D02*
D03*
X299508Y364469D02*
D03*
X329626Y363583D02*
D03*
X354240Y362394D02*
D03*
X375787Y360531D02*
D03*
X400197Y353248D02*
D03*
X385728Y343701D02*
D03*
X421180Y334949D02*
D03*
X422736Y265551D02*
D03*
X429528Y286122D02*
D03*
X434646Y273524D02*
D03*
X398917Y451673D02*
D03*
X406299Y457283D02*
D03*
X398228Y458071D02*
D03*
X401870Y425787D02*
D03*
X379528Y242520D02*
D03*
X360728Y273917D02*
D03*
X435925Y313976D02*
D03*
X399902Y329626D02*
D03*
X436614Y296161D02*
D03*
X382776Y271063D02*
D03*
X361811Y294783D02*
D03*
X362927Y268149D02*
D03*
X368340D02*
D03*
X364862Y276575D02*
D03*
Y280610D02*
D03*
X356594Y277953D02*
D03*
X353445Y283366D02*
D03*
X303937Y262598D02*
D03*
X330709Y263090D02*
D03*
X325394Y262106D02*
D03*
X409252Y445571D02*
D03*
X421260Y395079D02*
D03*
X425787Y428937D02*
D03*
X443602Y204232D02*
D03*
X461024Y222539D02*
D03*
X475516Y200779D02*
D03*
X469020Y170169D02*
D03*
M02*
