G04*
G04 #@! TF.GenerationSoftware,Altium Limited,Altium Designer,22.9.1 (49)*
G04*
G04 Layer_Color=65535*
%FSLAX24Y24*%
%MOIN*%
G70*
G04*
G04 #@! TF.SameCoordinates,DA4E84BB-142E-4BBE-8668-F1B5659D6B50*
G04*
G04*
G04 #@! TF.FilePolarity,Positive*
G04*
G01*
G75*
%ADD10C,0.0039*%
%ADD11C,0.0098*%
%ADD12C,0.0100*%
%ADD13C,0.0079*%
%ADD14C,0.0070*%
D10*
X32238Y26866D02*
G03*
X32238Y26866I141J-71D01*
G01*
D11*
X38258Y29915D02*
G03*
X38258Y29915I-49J0D01*
G01*
X28939Y24813D02*
G03*
X28939Y24813I-49J0D01*
G01*
D12*
X34938Y28416D02*
Y28816D01*
X34538D02*
X34938D01*
Y26716D02*
Y27119D01*
X34525Y26716D02*
X34938D01*
X32788Y28419D02*
Y28866D01*
X33185D01*
X32838Y26666D02*
X33241D01*
X32838D02*
Y27119D01*
X35168Y42222D02*
X40168D01*
X35268Y38622D02*
X40118D01*
X39852Y17286D02*
X44852D01*
X39902Y20886D02*
X44752D01*
X34957Y24526D02*
X36404D01*
X34957Y23526D02*
X36414D01*
X32354Y24393D02*
Y25850D01*
X33354Y24403D02*
Y25850D01*
X34636Y24833D02*
X37037D01*
X34636Y26447D02*
X37077D01*
X31043Y26634D02*
Y27815D01*
X29980Y26673D02*
Y27854D01*
X34676Y29278D02*
Y30978D01*
X35876Y29278D02*
Y30978D01*
X31240Y35118D02*
X34350D01*
X31240Y33031D02*
X34350D01*
X32766Y29419D02*
Y31821D01*
X34380Y29380D02*
Y31821D01*
X31774Y30305D02*
Y31805D01*
X30274Y30305D02*
Y31805D01*
X27188Y26548D02*
Y27898D01*
X28188Y26548D02*
Y27848D01*
X28544Y26257D02*
Y27957D01*
X29744Y26257D02*
Y27957D01*
X42441Y22313D02*
X43701D01*
X42421Y21339D02*
X43681D01*
X42431Y23524D02*
X43691D01*
X42411Y22549D02*
X43671D01*
X45889Y19488D02*
X46519D01*
X45859Y20697D02*
X46489D01*
X41017Y43492D02*
X41646D01*
X41046Y42283D02*
X41676D01*
X44006Y42018D02*
Y43199D01*
X43238Y42018D02*
Y43199D01*
X38159Y43868D02*
X39419D01*
X38179Y44843D02*
X39439D01*
X38179Y42589D02*
X39439D01*
X38199Y43563D02*
X39459D01*
X37126Y22864D02*
Y23888D01*
X38071Y22904D02*
Y23888D01*
X30953Y32562D02*
X30853Y32662D01*
X30653D01*
X30553Y32562D01*
Y32162D01*
X30653Y32062D01*
X30853D01*
X30953Y32162D01*
X31153Y32562D02*
X31253Y32662D01*
X31453D01*
X31553Y32562D01*
Y32462D01*
X31453Y32362D01*
X31553Y32262D01*
Y32162D01*
X31453Y32062D01*
X31253D01*
X31153Y32162D01*
Y32262D01*
X31253Y32362D01*
X31153Y32462D01*
Y32562D01*
X31253Y32362D02*
X31453D01*
X49150Y14360D02*
X49250Y14460D01*
X49450D01*
X49550Y14360D01*
Y14260D01*
X49450Y14160D01*
X49350D01*
X49450D01*
X49550Y14060D01*
Y13960D01*
X49450Y13860D01*
X49250D01*
X49150Y13960D01*
X49750Y13860D02*
Y13960D01*
X49850D01*
Y13860D01*
X49750D01*
X50250Y14360D02*
X50350Y14460D01*
X50550D01*
X50650Y14360D01*
Y14260D01*
X50550Y14160D01*
X50450D01*
X50550D01*
X50650Y14060D01*
Y13960D01*
X50550Y13860D01*
X50350D01*
X50250Y13960D01*
X50849Y14460D02*
Y14060D01*
X51049Y13860D01*
X51249Y14060D01*
Y14460D01*
X27140Y23880D02*
Y23680D01*
Y23780D01*
X27740D01*
X27640Y23880D01*
Y23380D02*
X27740Y23280D01*
Y23080D01*
X27640Y22980D01*
X27240D01*
X27140Y23080D01*
Y23280D01*
X27240Y23380D01*
X27640D01*
X27140Y22780D02*
X27240D01*
Y22680D01*
X27140D01*
Y22780D01*
X27740Y21881D02*
Y22281D01*
X27440D01*
X27540Y22081D01*
Y21981D01*
X27440Y21881D01*
X27240D01*
X27140Y21981D01*
Y22181D01*
X27240Y22281D01*
X27740Y21681D02*
X27340D01*
X27140Y21481D01*
X27340Y21281D01*
X27740D01*
X48560Y24210D02*
X48960D01*
X49160Y23910D02*
X49360D01*
X49260D01*
Y24510D01*
X49160Y24410D01*
X49660D02*
X49760Y24510D01*
X49960D01*
X50060Y24410D01*
Y24010D01*
X49960Y23910D01*
X49760D01*
X49660Y24010D01*
Y24410D01*
X50259Y24510D02*
Y24110D01*
X50459Y23910D01*
X50659Y24110D01*
Y24510D01*
X44500Y36620D02*
X44100D01*
Y36320D01*
X44300Y36420D01*
X44400D01*
X44500Y36320D01*
Y36120D01*
X44400Y36020D01*
X44200D01*
X44100Y36120D01*
X44700Y36620D02*
Y36220D01*
X44900Y36020D01*
X45100Y36220D01*
Y36620D01*
X31940Y28120D02*
Y27620D01*
X32040Y27520D01*
X32240D01*
X32340Y27620D01*
Y28120D01*
X32540Y27520D02*
X32740D01*
X32640D01*
Y28120D01*
X32540Y28020D01*
X50320Y25530D02*
X50920D01*
X50620D01*
Y25930D01*
X50320D01*
X50920D01*
Y26430D02*
Y26230D01*
X50820Y26130D01*
X50620D01*
X50520Y26230D01*
Y26430D01*
X50620Y26530D01*
X50720D01*
Y26130D01*
X50520Y26830D02*
Y27030D01*
X50620Y27130D01*
X50920D01*
Y26830D01*
X50820Y26730D01*
X50720Y26830D01*
Y27130D01*
X50320Y27729D02*
X50920D01*
Y27430D01*
X50820Y27330D01*
X50620D01*
X50520Y27430D01*
Y27729D01*
X50920Y28229D02*
Y28029D01*
X50820Y27929D01*
X50620D01*
X50520Y28029D01*
Y28229D01*
X50620Y28329D01*
X50720D01*
Y27929D01*
X50520Y28529D02*
X50920D01*
X50720D01*
X50620Y28629D01*
X50520Y28729D01*
Y28829D01*
X50920Y29429D02*
X50320D01*
X50620Y29129D01*
Y29529D01*
X46610Y36908D02*
X47209D01*
X46909D01*
Y37308D01*
X46610D01*
X47209D01*
Y37808D02*
Y37608D01*
X47109Y37508D01*
X46909D01*
X46809Y37608D01*
Y37808D01*
X46909Y37908D01*
X47009D01*
Y37508D01*
X46809Y38208D02*
Y38408D01*
X46909Y38508D01*
X47209D01*
Y38208D01*
X47109Y38108D01*
X47009Y38208D01*
Y38508D01*
X46610Y39107D02*
X47209D01*
Y38808D01*
X47109Y38708D01*
X46909D01*
X46809Y38808D01*
Y39107D01*
X47209Y39607D02*
Y39407D01*
X47109Y39307D01*
X46909D01*
X46809Y39407D01*
Y39607D01*
X46909Y39707D01*
X47009D01*
Y39307D01*
X46809Y39907D02*
X47209D01*
X47009D01*
X46909Y40007D01*
X46809Y40107D01*
Y40207D01*
X47209Y40907D02*
Y40507D01*
X46809Y40907D01*
X46710D01*
X46610Y40807D01*
Y40607D01*
X46710Y40507D01*
X22627Y20457D02*
Y19858D01*
Y20157D01*
X23026D01*
Y20457D01*
Y19858D01*
X23526D02*
X23326D01*
X23226Y19958D01*
Y20157D01*
X23326Y20257D01*
X23526D01*
X23626Y20157D01*
Y20058D01*
X23226D01*
X23926Y20257D02*
X24126D01*
X24226Y20157D01*
Y19858D01*
X23926D01*
X23826Y19958D01*
X23926Y20058D01*
X24226D01*
X24826Y20457D02*
Y19858D01*
X24526D01*
X24426Y19958D01*
Y20157D01*
X24526Y20257D01*
X24826D01*
X25326Y19858D02*
X25126D01*
X25026Y19958D01*
Y20157D01*
X25126Y20257D01*
X25326D01*
X25426Y20157D01*
Y20058D01*
X25026D01*
X25626Y20257D02*
Y19858D01*
Y20058D01*
X25726Y20157D01*
X25826Y20257D01*
X25926D01*
X26225Y20357D02*
X26325Y20457D01*
X26525D01*
X26625Y20357D01*
Y20257D01*
X26525Y20157D01*
X26425D01*
X26525D01*
X26625Y20058D01*
Y19958D01*
X26525Y19858D01*
X26325D01*
X26225Y19958D01*
X47574Y14886D02*
X48174D01*
X47874D01*
Y15286D01*
X47574D01*
X48174D01*
Y15786D02*
Y15586D01*
X48074Y15486D01*
X47874D01*
X47774Y15586D01*
Y15786D01*
X47874Y15886D01*
X47974D01*
Y15486D01*
X47774Y16186D02*
Y16386D01*
X47874Y16486D01*
X48174D01*
Y16186D01*
X48074Y16086D01*
X47974Y16186D01*
Y16486D01*
X47574Y17085D02*
X48174D01*
Y16785D01*
X48074Y16685D01*
X47874D01*
X47774Y16785D01*
Y17085D01*
X48174Y17585D02*
Y17385D01*
X48074Y17285D01*
X47874D01*
X47774Y17385D01*
Y17585D01*
X47874Y17685D01*
X47974D01*
Y17285D01*
X47774Y17885D02*
X48174D01*
X47974D01*
X47874Y17985D01*
X47774Y18085D01*
Y18185D01*
X48174Y18485D02*
Y18685D01*
Y18585D01*
X47574D01*
X47674Y18485D01*
X37069Y38341D02*
Y37741D01*
X37469D01*
X37969D02*
Y38341D01*
X37669Y38041D01*
X38069D01*
X41803Y16953D02*
Y16354D01*
X42203D01*
X42403Y16853D02*
X42503Y16953D01*
X42703D01*
X42803Y16853D01*
Y16754D01*
X42703Y16654D01*
X42603D01*
X42703D01*
X42803Y16554D01*
Y16454D01*
X42703Y16354D01*
X42503D01*
X42403Y16454D01*
X42107Y45942D02*
X42007Y46042D01*
X41807D01*
X41707Y45942D01*
Y45542D01*
X41807Y45442D01*
X42007D01*
X42107Y45542D01*
X42307Y45442D02*
X42507D01*
X42407D01*
Y46042D01*
X42307Y45942D01*
X43207Y46042D02*
X43007Y45942D01*
X42807Y45742D01*
Y45542D01*
X42907Y45442D01*
X43107D01*
X43207Y45542D01*
Y45642D01*
X43107Y45742D01*
X42807D01*
X46934Y22828D02*
X46834Y22928D01*
X46634D01*
X46534Y22828D01*
Y22428D01*
X46634Y22328D01*
X46834D01*
X46934Y22428D01*
X47134Y22328D02*
X47333D01*
X47233D01*
Y22928D01*
X47134Y22828D01*
X48033Y22328D02*
X47633D01*
X48033Y22728D01*
Y22828D01*
X47933Y22928D01*
X47733D01*
X47633Y22828D01*
X33985Y24550D02*
X33885Y24650D01*
X33685D01*
X33585Y24550D01*
Y24150D01*
X33685Y24050D01*
X33885D01*
X33985Y24150D01*
X34185Y24550D02*
X34285Y24650D01*
X34485D01*
X34584Y24550D01*
Y24450D01*
X34485Y24350D01*
X34385D01*
X34485D01*
X34584Y24250D01*
Y24150D01*
X34485Y24050D01*
X34285D01*
X34185Y24150D01*
X35609Y23202D02*
X35509Y23302D01*
X35309D01*
X35209Y23202D01*
Y22802D01*
X35309Y22702D01*
X35509D01*
X35609Y22802D01*
X36209Y22702D02*
X35809D01*
X36209Y23102D01*
Y23202D01*
X36109Y23302D01*
X35909D01*
X35809Y23202D01*
X32884Y24078D02*
X32784Y24178D01*
X32584D01*
X32484Y24078D01*
Y23678D01*
X32584Y23578D01*
X32784D01*
X32884Y23678D01*
X33084Y23578D02*
X33284D01*
X33184D01*
Y24178D01*
X33084Y24078D01*
X38203Y25199D02*
X37604D01*
Y25499D01*
X37704Y25599D01*
X37904D01*
X38004Y25499D01*
Y25199D01*
Y25399D02*
X38203Y25599D01*
X37604Y25799D02*
Y26199D01*
X37704D01*
X38103Y25799D01*
X38203D01*
X30820Y25710D02*
Y26310D01*
X31120D01*
X31220Y26210D01*
Y26010D01*
X31120Y25910D01*
X30820D01*
X31020D02*
X31220Y25710D01*
X31820D02*
X31420D01*
X31820Y26110D01*
Y26210D01*
X31720Y26310D01*
X31520D01*
X31420Y26210D01*
X39939Y25318D02*
X39839Y25418D01*
X39639D01*
X39540Y25318D01*
Y24918D01*
X39639Y24818D01*
X39839D01*
X39939Y24918D01*
X40539Y25418D02*
X40139D01*
Y25118D01*
X40339Y25218D01*
X40439D01*
X40539Y25118D01*
Y24918D01*
X40439Y24818D01*
X40239D01*
X40139Y24918D01*
X34884Y31117D02*
Y31717D01*
X35184D01*
X35284Y31617D01*
Y31417D01*
X35184Y31317D01*
X34884D01*
X35084D02*
X35284Y31117D01*
X35484Y31617D02*
X35584Y31717D01*
X35784D01*
X35884Y31617D01*
Y31517D01*
X35784Y31417D01*
X35684D01*
X35784D01*
X35884Y31317D01*
Y31217D01*
X35784Y31117D01*
X35584D01*
X35484Y31217D01*
X30281Y35440D02*
Y36040D01*
X30581D01*
X30681Y35940D01*
Y35740D01*
X30581Y35640D01*
X30281D01*
X30481D02*
X30681Y35440D01*
X31180D02*
Y36040D01*
X30881Y35740D01*
X31280D01*
X31480Y35340D02*
X31880D01*
X32080Y35440D02*
X32280D01*
X32180D01*
Y36040D01*
X32080Y35940D01*
X32580Y35340D02*
X32980D01*
X33180Y35440D02*
X33380D01*
X33280D01*
Y36040D01*
X33180Y35940D01*
X34080Y35440D02*
X33680D01*
X34080Y35840D01*
Y35940D01*
X33980Y36040D01*
X33780D01*
X33680Y35940D01*
X34279Y35440D02*
X34479D01*
X34379D01*
Y36040D01*
X34279Y35940D01*
X34779Y35440D02*
Y36040D01*
Y35640D02*
X35079Y35840D01*
X34779Y35640D02*
X35079Y35440D01*
X32201Y32200D02*
Y32800D01*
X32501D01*
X32601Y32700D01*
Y32500D01*
X32501Y32400D01*
X32201D01*
X32401D02*
X32601Y32200D01*
X33100D02*
Y32800D01*
X32801Y32500D01*
X33200D01*
X33400Y32100D02*
X33800D01*
X34000Y32200D02*
X34200D01*
X34100D01*
Y32800D01*
X34000Y32700D01*
X34500Y32100D02*
X34900D01*
X35500Y32200D02*
X35100D01*
X35500Y32600D01*
Y32700D01*
X35400Y32800D01*
X35200D01*
X35100Y32700D01*
X35700D02*
X35800Y32800D01*
X36000D01*
X36099Y32700D01*
Y32300D01*
X36000Y32200D01*
X35800D01*
X35700Y32300D01*
Y32700D01*
X36299D02*
X36399Y32800D01*
X36599D01*
X36699Y32700D01*
Y32300D01*
X36599Y32200D01*
X36399D01*
X36299Y32300D01*
Y32700D01*
X27558Y28714D02*
X27458Y28814D01*
X27258D01*
X27158Y28714D01*
Y28314D01*
X27258Y28214D01*
X27458D01*
X27558Y28314D01*
X27757D02*
X27857Y28214D01*
X28057D01*
X28157Y28314D01*
Y28714D01*
X28057Y28814D01*
X27857D01*
X27757Y28714D01*
Y28614D01*
X27857Y28514D01*
X28157D01*
X28709Y29275D02*
X28609Y29375D01*
X28409D01*
X28309Y29275D01*
Y28875D01*
X28409Y28775D01*
X28609D01*
X28709Y28875D01*
X29309Y29375D02*
X29109Y29275D01*
X28909Y29075D01*
Y28875D01*
X29009Y28775D01*
X29209D01*
X29309Y28875D01*
Y28975D01*
X29209Y29075D01*
X28909D01*
X29250Y31529D02*
X29150Y31629D01*
X28951D01*
X28851Y31529D01*
Y31129D01*
X28951Y31029D01*
X29150D01*
X29250Y31129D01*
X29450Y31629D02*
X29850D01*
Y31529D01*
X29450Y31129D01*
Y31029D01*
X28567Y25438D02*
Y26038D01*
X28867D01*
X28967Y25938D01*
Y25738D01*
X28867Y25638D01*
X28567D01*
X28767D02*
X28967Y25438D01*
X29166D02*
X29366D01*
X29266D01*
Y26038D01*
X29166Y25938D01*
X25825Y25298D02*
X25725Y25398D01*
X25525D01*
X25425Y25298D01*
Y24898D01*
X25525Y24799D01*
X25725D01*
X25825Y24898D01*
X26325Y24799D02*
Y25398D01*
X26025Y25098D01*
X26425D01*
D13*
X41024Y30709D02*
X42028D01*
X41024Y27717D02*
X42028D01*
X39035Y30709D02*
X40039D01*
X39035Y27717D02*
X40039D01*
X42028D02*
Y30709D01*
X39035Y27717D02*
Y30709D01*
X31211Y23898D02*
X32215D01*
X31211Y20906D02*
X32215D01*
X29222Y23898D02*
X30226D01*
X29222Y20906D02*
X30226D01*
X32215D02*
Y23898D01*
X29222Y20906D02*
Y23898D01*
X46378Y28841D02*
X49567D01*
X46378Y24841D02*
X49567D01*
Y28841D01*
X46378Y24841D02*
Y28841D01*
X43002Y37049D02*
Y41049D01*
X46191Y37049D02*
Y41049D01*
X43002Y37049D02*
X46191D01*
X43002Y41049D02*
X46191D01*
X22797Y24183D02*
X26797D01*
X22797Y20994D02*
X26797D01*
X22797D02*
Y24183D01*
X26797Y20994D02*
Y24183D01*
X48602Y14766D02*
Y18766D01*
X51791Y14766D02*
Y18766D01*
X48602Y14766D02*
X51791D01*
X48602Y18766D02*
X51791D01*
X42083Y44335D02*
X42516D01*
X42083Y45043D02*
X42516D01*
X46909Y21220D02*
X47343D01*
X46909Y21929D02*
X47343D01*
X34331Y25384D02*
Y25817D01*
X33622Y25384D02*
Y25817D01*
X39094Y27157D02*
X40906D01*
X39094Y25737D02*
X40906D01*
X29724Y29568D02*
X31536D01*
X29724Y28148D02*
X31536D01*
X28947Y29872D02*
X29380D01*
X28947Y30581D02*
X29380D01*
X24911Y25688D02*
X26723D01*
X24911Y27108D02*
X26723D01*
X45392Y19166D02*
X46696D01*
X45392Y18236D02*
X46696D01*
X50613Y19556D02*
Y20858D01*
X49722Y19556D02*
Y20858D01*
X48354Y19566D02*
Y20710D01*
X49205Y19566D02*
Y20710D01*
X45583Y42036D02*
Y43338D01*
X44692Y42036D02*
Y43338D01*
X40608Y41090D02*
X41912D01*
X40608Y42020D02*
X41912D01*
X37303Y29469D02*
Y30335D01*
X36457Y29469D02*
Y30335D01*
D14*
X40660Y44090D02*
Y43790D01*
X40809D01*
X40859Y43840D01*
Y43890D01*
X40809Y43940D01*
X40660D01*
X40809D01*
X40859Y43990D01*
Y44040D01*
X40809Y44090D01*
X40660D01*
X41159Y43790D02*
X40959D01*
X41159Y43990D01*
Y44040D01*
X41109Y44090D01*
X41009D01*
X40959Y44040D01*
X45552Y21294D02*
Y20995D01*
X45702D01*
X45752Y21045D01*
Y21095D01*
X45702Y21144D01*
X45552D01*
X45702D01*
X45752Y21194D01*
Y21244D01*
X45702Y21294D01*
X45552D01*
X45852Y20995D02*
X45952D01*
X45902D01*
Y21294D01*
X45852Y21244D01*
X48756Y20972D02*
Y21272D01*
X48906D01*
X48956Y21222D01*
Y21122D01*
X48906Y21072D01*
X48756D01*
X48856D02*
X48956Y20972D01*
X49056Y21222D02*
X49106Y21272D01*
X49206D01*
X49256Y21222D01*
Y21172D01*
X49206Y21122D01*
X49256Y21072D01*
Y21022D01*
X49206Y20972D01*
X49106D01*
X49056Y21022D01*
Y21072D01*
X49106Y21122D01*
X49056Y21172D01*
Y21222D01*
X49106Y21122D02*
X49206D01*
X50045Y21208D02*
Y21508D01*
X50195D01*
X50245Y21458D01*
Y21358D01*
X50195Y21308D01*
X50045D01*
X50145D02*
X50245Y21208D01*
X50345Y21258D02*
X50395Y21208D01*
X50495D01*
X50545Y21258D01*
Y21458D01*
X50495Y21508D01*
X50395D01*
X50345Y21458D01*
Y21408D01*
X50395Y21358D01*
X50545D01*
X46069Y17601D02*
X46119Y17551D01*
X46219D01*
X46269Y17601D01*
Y17801D01*
X46219Y17851D01*
X46119D01*
X46069Y17801D01*
X45969Y17851D02*
X45869D01*
X45919D01*
Y17551D01*
X45969Y17601D01*
X45719Y17851D02*
X45619D01*
X45669D01*
Y17551D01*
X45719Y17601D01*
X41667Y21772D02*
X41617Y21722D01*
Y21622D01*
X41667Y21572D01*
X41867D01*
X41917Y21622D01*
Y21722D01*
X41867Y21772D01*
X41917Y21872D02*
Y21972D01*
Y21922D01*
X41617D01*
X41667Y21872D01*
Y22122D02*
X41617Y22172D01*
Y22272D01*
X41667Y22322D01*
X41717D01*
X41767Y22272D01*
Y22222D01*
Y22272D01*
X41817Y22322D01*
X41867D01*
X41917Y22272D01*
Y22172D01*
X41867Y22122D01*
X41658Y22983D02*
X41608Y22933D01*
Y22833D01*
X41658Y22783D01*
X41857D01*
X41907Y22833D01*
Y22933D01*
X41857Y22983D01*
X41907Y23083D02*
Y23182D01*
Y23132D01*
X41608D01*
X41658Y23083D01*
X41907Y23482D02*
X41608D01*
X41757Y23332D01*
Y23532D01*
X43307Y43395D02*
Y43695D01*
X43457D01*
X43507Y43645D01*
Y43545D01*
X43457Y43495D01*
X43307D01*
X43407D02*
X43507Y43395D01*
X43607D02*
X43707D01*
X43657D01*
Y43695D01*
X43607Y43645D01*
X43857D02*
X43907Y43695D01*
X44007D01*
X44057Y43645D01*
Y43445D01*
X44007Y43395D01*
X43907D01*
X43857Y43445D01*
Y43645D01*
X44852Y43797D02*
Y44097D01*
X45002D01*
X45052Y44047D01*
Y43947D01*
X45002Y43897D01*
X44852D01*
X44952D02*
X45052Y43797D01*
X45152D02*
X45252D01*
X45202D01*
Y44097D01*
X45152Y44047D01*
X45402Y43797D02*
X45502D01*
X45452D01*
Y44097D01*
X45402Y44047D01*
X37156Y44510D02*
X37106Y44560D01*
X37006D01*
X36956Y44510D01*
Y44310D01*
X37006Y44260D01*
X37106D01*
X37156Y44310D01*
X37256Y44260D02*
X37356D01*
X37306D01*
Y44560D01*
X37256Y44510D01*
X37506Y44560D02*
X37706D01*
Y44510D01*
X37506Y44310D01*
Y44260D01*
X37175Y43231D02*
X37125Y43281D01*
X37025D01*
X36976Y43231D01*
Y43031D01*
X37025Y42981D01*
X37125D01*
X37175Y43031D01*
X37275Y42981D02*
X37375D01*
X37325D01*
Y43281D01*
X37275Y43231D01*
X37525D02*
X37575Y43281D01*
X37675D01*
X37725Y43231D01*
Y43181D01*
X37675Y43131D01*
X37725Y43081D01*
Y43031D01*
X37675Y42981D01*
X37575D01*
X37525Y43031D01*
Y43081D01*
X37575Y43131D01*
X37525Y43181D01*
Y43231D01*
X37575Y43131D02*
X37675D01*
X41335Y40455D02*
X41385Y40405D01*
X41485D01*
X41535Y40455D01*
Y40655D01*
X41485Y40705D01*
X41385D01*
X41335Y40655D01*
X41235Y40705D02*
X41135D01*
X41185D01*
Y40405D01*
X41235Y40455D01*
X40785Y40405D02*
X40985D01*
Y40555D01*
X40885Y40505D01*
X40835D01*
X40785Y40555D01*
Y40655D01*
X40835Y40705D01*
X40935D01*
X40985Y40655D01*
X36754Y30897D02*
X36704Y30947D01*
X36604D01*
X36554Y30897D01*
Y30697D01*
X36604Y30647D01*
X36704D01*
X36754Y30697D01*
X36854Y30647D02*
X36954D01*
X36904D01*
Y30947D01*
X36854Y30897D01*
X37104D02*
X37154Y30947D01*
X37254D01*
X37304Y30897D01*
Y30697D01*
X37254Y30647D01*
X37154D01*
X37104Y30697D01*
Y30897D01*
X37841Y27926D02*
Y27626D01*
X37991D01*
X38041Y27676D01*
Y27876D01*
X37991Y27926D01*
X37841D01*
X38340Y27626D02*
X38141D01*
X38340Y27826D01*
Y27876D01*
X38290Y27926D01*
X38191D01*
X38141Y27876D01*
X28353Y24500D02*
Y24200D01*
X28503D01*
X28553Y24250D01*
Y24450D01*
X28503Y24500D01*
X28353D01*
X28653Y24200D02*
X28753D01*
X28703D01*
Y24500D01*
X28653Y24450D01*
X28530Y22600D02*
Y22300D01*
X28730D01*
X28830D02*
X28930D01*
X28880D01*
Y22600D01*
X28830Y22550D01*
X41551Y31508D02*
Y31208D01*
X41751D01*
X42051D02*
X41851D01*
X42051Y31408D01*
Y31458D01*
X42001Y31508D01*
X41901D01*
X41851Y31458D01*
X38593Y23391D02*
Y23591D01*
X38543Y23641D01*
X38443D01*
X38393Y23591D01*
Y23391D01*
X38443Y23341D01*
X38543D01*
X38493Y23441D02*
X38593Y23341D01*
X38543D02*
X38593Y23391D01*
X38692Y23341D02*
X38792D01*
X38742D01*
Y23641D01*
X38692Y23591D01*
M02*
