G04*
G04 #@! TF.GenerationSoftware,Altium Limited,Altium Designer,22.10.1 (41)*
G04*
G04 Layer_Color=16711935*
%FSLAX25Y25*%
%MOIN*%
G70*
G04*
G04 #@! TF.SameCoordinates,856B5BD7-418A-478B-963B-D84CAA773F5C*
G04*
G04*
G04 #@! TF.FilePolarity,Positive*
G04*
G01*
G75*
%ADD10C,0.00394*%
%ADD13C,0.00787*%
D10*
X420276Y277165D02*
Y307087D01*
X390354Y277165D02*
Y307087D01*
X420276D01*
X390354Y277165D02*
X420276D01*
X322146Y209055D02*
Y238976D01*
X292224Y209055D02*
Y238976D01*
X322146D01*
X292224Y209055D02*
X322146D01*
X490602Y247197D02*
X491193Y247899D01*
Y248405D01*
X490603Y246161D02*
Y247196D01*
Y246162D02*
X490603Y246161D01*
X493413D01*
X463780Y288405D02*
X495670D01*
X463780Y248405D02*
X495670D01*
Y288405D01*
X463780Y248405D02*
Y288405D01*
X493413Y246161D02*
Y247196D01*
X492823Y247899D02*
Y248405D01*
Y247899D02*
X493413Y247197D01*
X459063Y369985D02*
X459654Y369284D01*
X459063Y369985D02*
Y370492D01*
X459654Y368248D02*
Y369283D01*
X430020Y370492D02*
Y410492D01*
X461910Y370492D02*
Y410492D01*
X430020Y370492D02*
X461910D01*
X430020Y410492D02*
X461910D01*
X456844Y368248D02*
X459654D01*
X456843Y368248D02*
X456844Y368248D01*
X456843Y368248D02*
Y369283D01*
X457434Y369985D02*
Y370492D01*
X456843Y369284D02*
X457434Y369985D01*
X226764Y212197D02*
X227466Y212787D01*
X227972D01*
X225728Y212197D02*
X226763D01*
X227972Y241830D02*
X267972D01*
X227972Y209941D02*
X267972D01*
X227972D02*
Y241830D01*
X267972Y209941D02*
Y241830D01*
X225728Y212197D02*
Y215007D01*
X225729Y215007D01*
X225728D02*
X226763D01*
X227466Y214417D02*
X227972D01*
X226764Y215008D02*
X227466Y214417D01*
X515067Y147151D02*
X515658Y146449D01*
X515067Y147151D02*
Y147657D01*
X515658Y145413D02*
Y146448D01*
X486024Y147657D02*
Y187657D01*
X517914Y147657D02*
Y187657D01*
X486024Y147657D02*
X517914D01*
X486024Y187657D02*
X517914D01*
X512848Y145413D02*
X515658D01*
X512847Y145414D02*
X512848Y145413D01*
X512847Y145413D02*
Y146448D01*
X513438Y147151D02*
Y147657D01*
X512847Y146449D02*
X513438Y147151D01*
X378346Y294524D02*
X385827D01*
X378346Y286787D02*
Y294524D01*
Y286787D02*
X385827D01*
Y294524D01*
X293528Y251870D02*
X301264D01*
Y244390D02*
Y251870D01*
X293528Y244390D02*
X301264D01*
X293528D02*
Y251870D01*
D13*
X416300Y443348D02*
Y450434D01*
Y443348D02*
X429686D01*
Y450434D01*
X416300D02*
X429686D01*
X464567Y212205D02*
Y219291D01*
Y212205D02*
X477953D01*
Y219291D01*
X464567D02*
X477953D01*
X336221Y249311D02*
X343307D01*
Y262697D01*
X336221D02*
X343307D01*
X336221Y249311D02*
Y262697D01*
X393701Y259547D02*
Y269390D01*
Y259547D02*
X406299D01*
Y269390D01*
X393701D02*
X406299D01*
X300000Y283661D02*
Y293504D01*
Y283661D02*
X312598D01*
Y293504D01*
X300000D02*
X312598D01*
X284941Y298721D02*
Y305807D01*
Y298721D02*
X298327D01*
Y305807D01*
X284941D02*
X298327D01*
X264469Y259055D02*
Y268898D01*
X251870D02*
X264469D01*
X251870Y259055D02*
Y268898D01*
Y259055D02*
X264469D01*
X456505Y184547D02*
Y189469D01*
Y184547D02*
X464379D01*
Y189469D01*
X456505D02*
X464379D01*
X499213Y206004D02*
X504134D01*
X499213Y198130D02*
Y206004D01*
Y198130D02*
X504134D01*
Y206004D01*
X490256Y197441D02*
Y205315D01*
X485335Y197441D02*
X490256D01*
X485335D02*
Y205315D01*
X490256D01*
X448917Y422933D02*
Y430807D01*
X453839D01*
Y422933D02*
Y430807D01*
X448917Y422933D02*
X453839D01*
X408661Y418012D02*
X416535D01*
Y413091D02*
Y418012D01*
X408661Y413091D02*
X416535D01*
X408661D02*
Y418012D01*
X371654Y294685D02*
Y303346D01*
X365945Y294685D02*
X371654D01*
X365945D02*
Y303346D01*
X371654D01*
M02*
