G04*
G04 #@! TF.GenerationSoftware,Altium Limited,Altium Designer,22.9.1 (49)*
G04*
G04 Layer_Color=8388736*
%FSLAX24Y24*%
%MOIN*%
G70*
G04*
G04 #@! TF.SameCoordinates,DA4E84BB-142E-4BBE-8668-F1B5659D6B50*
G04*
G04*
G04 #@! TF.FilePolarity,Negative*
G04*
G01*
G75*
%ADD20R,0.0374X0.0669*%
%ADD21R,0.0669X0.0374*%
%ADD26R,0.0828X0.1105*%
%ADD34R,0.0554X0.0615*%
%ADD35R,0.0576X0.0494*%
%ADD36R,0.0536X0.0455*%
%ADD37R,0.0531X0.0374*%
%ADD43R,0.1045X0.1045*%
%ADD44R,0.0316X0.0178*%
%ADD45R,0.0178X0.0316*%
%ADD46R,0.0749X0.0867*%
%ADD47R,0.1261X0.2245*%
%ADD48R,0.0434X0.0808*%
%ADD49R,0.0808X0.0434*%
%ADD50R,0.0592X0.1182*%
%ADD51R,0.0789X0.0375*%
%ADD52R,0.0749X0.0474*%
%ADD53R,0.0690X0.1458*%
%ADD54R,0.1182X0.0592*%
%ADD55R,0.0946X0.0671*%
%ADD56R,0.0592X0.0434*%
%ADD57R,0.0434X0.0828*%
%ADD58R,0.0513X0.0316*%
%ADD59R,0.0580X0.0380*%
%ADD60R,0.1080X0.1131*%
%ADD61R,0.1131X0.1080*%
%ADD62R,0.0380X0.0580*%
%ADD63R,0.0316X0.0316*%
%ADD64R,0.0789X0.0789*%
%ADD65C,0.0789*%
%ADD66R,0.0789X0.0789*%
%ADD67C,0.0340*%
D20*
X42851Y44689D02*
D03*
X41748D02*
D03*
X47677Y21575D02*
D03*
X46575D02*
D03*
X29715Y30226D02*
D03*
X28612D02*
D03*
D21*
X33976Y26152D02*
D03*
Y25049D02*
D03*
D26*
X40492Y26447D02*
D03*
X39508D02*
D03*
X31122Y28858D02*
D03*
X30138D02*
D03*
X25325Y26398D02*
D03*
X26309D02*
D03*
D34*
X46419Y18701D02*
D03*
X45669D02*
D03*
X40885Y41555D02*
D03*
X41635D02*
D03*
D35*
X50167Y19803D02*
D03*
Y20610D02*
D03*
X45138Y42283D02*
D03*
Y43091D02*
D03*
D36*
X48780Y20483D02*
D03*
Y19793D02*
D03*
D37*
X36880Y30197D02*
D03*
Y29606D02*
D03*
D43*
X33888Y27766D02*
D03*
D44*
X34636Y27478D02*
D03*
Y27675D02*
D03*
Y27872D02*
D03*
Y28069D02*
D03*
Y28266D02*
D03*
Y27281D02*
D03*
X33140Y27472D02*
D03*
Y27669D02*
D03*
Y27866D02*
D03*
Y28063D02*
D03*
Y28259D02*
D03*
Y27275D02*
D03*
D45*
X34181Y28514D02*
D03*
X33985D02*
D03*
X33788D02*
D03*
X33591D02*
D03*
X33394D02*
D03*
X34378D02*
D03*
X34181Y27018D02*
D03*
X33985D02*
D03*
X33788D02*
D03*
X33591D02*
D03*
X33394D02*
D03*
X34378D02*
D03*
D46*
X40532Y30197D02*
D03*
Y28228D02*
D03*
X30719Y23386D02*
D03*
Y21417D02*
D03*
D47*
X39518Y40522D02*
D03*
X35778D02*
D03*
X40502Y18986D02*
D03*
X44242D02*
D03*
D48*
X35156Y24026D02*
D03*
X36220D02*
D03*
D49*
X32854Y24587D02*
D03*
Y25651D02*
D03*
D50*
X34911Y25620D02*
D03*
X36801D02*
D03*
D51*
X30531Y26791D02*
D03*
Y27657D02*
D03*
D52*
X35276Y29469D02*
D03*
Y30728D02*
D03*
X29144Y26447D02*
D03*
Y27707D02*
D03*
D53*
X31555Y34094D02*
D03*
X34094D02*
D03*
D54*
X33553Y31545D02*
D03*
Y29656D02*
D03*
D55*
X31024Y31555D02*
D03*
Y30492D02*
D03*
D56*
X27638Y27648D02*
D03*
Y26742D02*
D03*
X43632Y43022D02*
D03*
Y42195D02*
D03*
D57*
X42530Y21831D02*
D03*
X43593D02*
D03*
X42520Y23041D02*
D03*
X43583D02*
D03*
X39331Y44360D02*
D03*
X38268D02*
D03*
X39350Y43081D02*
D03*
X38287D02*
D03*
D58*
X45689Y20098D02*
D03*
Y19724D02*
D03*
X46752D02*
D03*
Y20094D02*
D03*
X45689Y20472D02*
D03*
X46752D02*
D03*
X40846Y42894D02*
D03*
X41909Y43268D02*
D03*
X40846D02*
D03*
X41909Y42890D02*
D03*
Y42520D02*
D03*
X40846D02*
D03*
D59*
X38209Y28248D02*
D03*
D60*
Y29173D02*
D03*
D61*
X29632Y24813D02*
D03*
D62*
X30557D02*
D03*
D63*
X37343Y23691D02*
D03*
X37854D02*
D03*
X37598Y23022D02*
D03*
D64*
X47972Y25841D02*
D03*
X50197Y15766D02*
D03*
X44596Y38049D02*
D03*
D65*
X47972Y27841D02*
D03*
X44596Y40049D02*
D03*
X25797Y22589D02*
D03*
X50197Y17766D02*
D03*
D66*
X23797Y22589D02*
D03*
D67*
X28490Y31630D02*
D03*
X33710Y28000D02*
D03*
X34120Y28010D02*
D03*
X34090Y27530D02*
D03*
X33640Y27550D02*
D03*
X32380Y28520D02*
D03*
X27185Y30482D02*
D03*
X29203Y28465D02*
D03*
X44902Y22854D02*
D03*
X45266Y21604D02*
D03*
X45394Y23327D02*
D03*
X44429Y23297D02*
D03*
X25118Y27776D02*
D03*
X25236Y28661D02*
D03*
X25394Y29941D02*
D03*
X27303Y31919D02*
D03*
X25492Y31634D02*
D03*
X27441Y33386D02*
D03*
X25502Y32933D02*
D03*
X27469Y34850D02*
D03*
X25620Y34528D02*
D03*
X25876Y36152D02*
D03*
X28553Y36250D02*
D03*
X29951Y36447D02*
D03*
X32963Y36358D02*
D03*
X35424Y36239D02*
D03*
X37579Y36053D02*
D03*
X40020Y35325D02*
D03*
X38573Y34370D02*
D03*
X42118Y33495D02*
D03*
X42274Y26555D02*
D03*
X42953Y28612D02*
D03*
X43465Y27352D02*
D03*
X39892Y45167D02*
D03*
X40630Y45728D02*
D03*
X39823Y45807D02*
D03*
X40187Y42579D02*
D03*
X37953Y24252D02*
D03*
X36073Y27392D02*
D03*
X43593Y31398D02*
D03*
X39990Y32963D02*
D03*
X43661Y29616D02*
D03*
X38278Y27106D02*
D03*
X36181Y29478D02*
D03*
X36293Y26815D02*
D03*
X36834D02*
D03*
X36486Y27657D02*
D03*
Y28061D02*
D03*
X35659Y27795D02*
D03*
X35344Y28337D02*
D03*
X30394Y26260D02*
D03*
X33071Y26309D02*
D03*
X32539Y26211D02*
D03*
X40925Y44557D02*
D03*
X42126Y39508D02*
D03*
X42579Y42894D02*
D03*
X44360Y20423D02*
D03*
X46102Y22254D02*
D03*
X47552Y20078D02*
D03*
X46902Y17017D02*
D03*
M02*
