G04*
G04 #@! TF.GenerationSoftware,Altium Limited,Altium Designer,22.10.1 (41)*
G04*
G04 Layer_Color=2752767*
%FSLAX25Y25*%
%MOIN*%
G70*
G04*
G04 #@! TF.SameCoordinates,856B5BD7-418A-478B-963B-D84CAA773F5C*
G04*
G04*
G04 #@! TF.FilePolarity,Positive*
G04*
G01*
G75*
%ADD79C,0.00200*%
%ADD80C,0.00267*%
D79*
X479724Y257606D02*
X478924Y259206D01*
X480524D01*
X479724Y257606D01*
Y277606D02*
X478924Y279205D01*
X480524D01*
X479724Y277606D01*
X501968Y156858D02*
X501168Y158458D01*
X502769D01*
X501968Y156858D01*
X445965Y399692D02*
X445165Y401292D01*
X446765D01*
X445965Y399692D01*
Y379692D02*
X445165Y381292D01*
X446765D01*
X445965Y379692D01*
X257972Y225086D02*
X257172Y226686D01*
X258772D01*
X257972Y225086D01*
X237972D02*
X237172Y226686D01*
X238772D01*
X237972Y225086D01*
X501968Y176857D02*
X501168Y178457D01*
X502769D01*
X501968Y176857D01*
X335578Y279358D02*
Y280958D01*
X337178D01*
Y279358D01*
X335578D01*
X340578D02*
Y280958D01*
X342178D01*
Y279358D01*
X340578D01*
X335578Y274857D02*
Y276458D01*
X337178D01*
Y274857D01*
X335578D01*
X340578D02*
Y276458D01*
X342178D01*
Y274857D01*
X340578D01*
X323000Y284400D02*
Y286000D01*
X324600D01*
Y284400D01*
X323000D01*
D80*
X272650Y304823D02*
G03*
X272650Y304823I-800J0D01*
G01*
X292828Y284646D02*
G03*
X292828Y284646I-800J0D01*
G01*
X449816Y228543D02*
G03*
X449816Y228543I-800J0D01*
G01*
X453457Y216043D02*
G03*
X453457Y216043I-800J0D01*
G01*
X454737Y233268D02*
G03*
X454737Y233268I-800J0D01*
G01*
X445091Y232972D02*
G03*
X445091Y232972I-800J0D01*
G01*
X251981Y277756D02*
G03*
X251981Y277756I-800J0D01*
G01*
X253162Y286614D02*
G03*
X253162Y286614I-800J0D01*
G01*
X254737Y299410D02*
G03*
X254737Y299410I-800J0D01*
G01*
X273832Y319193D02*
G03*
X273832Y319193I-800J0D01*
G01*
X255721Y316339D02*
G03*
X255721Y316339I-800J0D01*
G01*
X275209Y333858D02*
G03*
X275209Y333858I-800J0D01*
G01*
X255820Y329331D02*
G03*
X255820Y329331I-800J0D01*
G01*
X275486Y348500D02*
G03*
X275486Y348500I-800J0D01*
G01*
X257001Y345276D02*
G03*
X257001Y345276I-800J0D01*
G01*
X259560Y361516D02*
G03*
X259560Y361516I-800J0D01*
G01*
X286332Y362500D02*
G03*
X286332Y362500I-800J0D01*
G01*
X300308Y364469D02*
G03*
X300308Y364469I-800J0D01*
G01*
X330426Y363583D02*
G03*
X330426Y363583I-800J0D01*
G01*
X355040Y362394D02*
G03*
X355040Y362394I-800J0D01*
G01*
X376587Y360531D02*
G03*
X376587Y360531I-800J0D01*
G01*
X400997Y353248D02*
G03*
X400997Y353248I-800J0D01*
G01*
X386528Y343701D02*
G03*
X386528Y343701I-800J0D01*
G01*
X421980Y334949D02*
G03*
X421980Y334949I-800J0D01*
G01*
X423536Y265551D02*
G03*
X423536Y265551I-800J0D01*
G01*
X430328Y286122D02*
G03*
X430328Y286122I-800J0D01*
G01*
X435446Y273524D02*
G03*
X435446Y273524I-800J0D01*
G01*
X399717Y451673D02*
G03*
X399717Y451673I-800J0D01*
G01*
X407099Y457283D02*
G03*
X407099Y457283I-800J0D01*
G01*
X399028Y458071D02*
G03*
X399028Y458071I-800J0D01*
G01*
X402670Y425787D02*
G03*
X402670Y425787I-800J0D01*
G01*
X380328Y242520D02*
G03*
X380328Y242520I-800J0D01*
G01*
X361528Y273917D02*
G03*
X361528Y273917I-800J0D01*
G01*
X436725Y313976D02*
G03*
X436725Y313976I-800J0D01*
G01*
X400702Y329626D02*
G03*
X400702Y329626I-800J0D01*
G01*
X437414Y296161D02*
G03*
X437414Y296161I-800J0D01*
G01*
X383576Y271063D02*
G03*
X383576Y271063I-800J0D01*
G01*
X362611Y294783D02*
G03*
X362611Y294783I-800J0D01*
G01*
X363727Y268149D02*
G03*
X363727Y268149I-800J0D01*
G01*
X369141D02*
G03*
X369141Y268149I-800J0D01*
G01*
X365662Y276575D02*
G03*
X365662Y276575I-800J0D01*
G01*
Y280610D02*
G03*
X365662Y280610I-800J0D01*
G01*
X357395Y277953D02*
G03*
X357395Y277953I-800J0D01*
G01*
X354245Y283366D02*
G03*
X354245Y283366I-800J0D01*
G01*
X304737Y262598D02*
G03*
X304737Y262598I-800J0D01*
G01*
X331509Y263090D02*
G03*
X331509Y263090I-800J0D01*
G01*
X326194Y262106D02*
G03*
X326194Y262106I-800J0D01*
G01*
X410052Y445571D02*
G03*
X410052Y445571I-800J0D01*
G01*
X422060Y395079D02*
G03*
X422060Y395079I-800J0D01*
G01*
X426587Y428937D02*
G03*
X426587Y428937I-800J0D01*
G01*
X444402Y204232D02*
G03*
X444402Y204232I-800J0D01*
G01*
X461824Y222539D02*
G03*
X461824Y222539I-800J0D01*
G01*
X476316Y200779D02*
G03*
X476316Y200779I-800J0D01*
G01*
X469820Y170169D02*
G03*
X469820Y170169I-800J0D01*
G01*
M02*
