G04*
G04 #@! TF.GenerationSoftware,Altium Limited,Altium Designer,22.10.1 (41)*
G04*
G04 Layer_Color=2752767*
%FSLAX24Y24*%
%MOIN*%
G70*
G04*
G04 #@! TF.SameCoordinates,BB6D0E27-544A-47F7-A8B6-121398B6A664*
G04*
G04*
G04 #@! TF.FilePolarity,Positive*
G04*
G01*
G75*
%ADD79C,0.0020*%
%ADD80C,0.0027*%
D79*
X47972Y25761D02*
X47892Y25921D01*
X48052D01*
X47972Y25761D01*
Y27761D02*
X47892Y27921D01*
X48052D01*
X47972Y27761D01*
X50197Y15686D02*
X50117Y15846D01*
X50277D01*
X50197Y15686D01*
X44596Y39969D02*
X44516Y40129D01*
X44676D01*
X44596Y39969D01*
Y37969D02*
X44516Y38129D01*
X44676D01*
X44596Y37969D01*
X25797Y22509D02*
X25717Y22669D01*
X25877D01*
X25797Y22509D01*
X23797D02*
X23717Y22669D01*
X23877D01*
X23797Y22509D01*
X50197Y17686D02*
X50117Y17846D01*
X50277D01*
X50197Y17686D01*
X33558Y27936D02*
Y28096D01*
X33718D01*
Y27936D01*
X33558D01*
X34058D02*
Y28096D01*
X34218D01*
Y27936D01*
X34058D01*
X33558Y27486D02*
Y27646D01*
X33718D01*
Y27486D01*
X33558D01*
X34058D02*
Y27646D01*
X34218D01*
Y27486D01*
X34058D01*
X32300Y28440D02*
Y28600D01*
X32460D01*
Y28440D01*
X32300D01*
D80*
X27265Y30482D02*
G03*
X27265Y30482I-80J0D01*
G01*
X29283Y28465D02*
G03*
X29283Y28465I-80J0D01*
G01*
X44982Y22854D02*
G03*
X44982Y22854I-80J0D01*
G01*
X45346Y21604D02*
G03*
X45346Y21604I-80J0D01*
G01*
X45474Y23327D02*
G03*
X45474Y23327I-80J0D01*
G01*
X44509Y23297D02*
G03*
X44509Y23297I-80J0D01*
G01*
X25198Y27776D02*
G03*
X25198Y27776I-80J0D01*
G01*
X25316Y28661D02*
G03*
X25316Y28661I-80J0D01*
G01*
X25474Y29941D02*
G03*
X25474Y29941I-80J0D01*
G01*
X27383Y31919D02*
G03*
X27383Y31919I-80J0D01*
G01*
X25572Y31634D02*
G03*
X25572Y31634I-80J0D01*
G01*
X27521Y33386D02*
G03*
X27521Y33386I-80J0D01*
G01*
X25582Y32933D02*
G03*
X25582Y32933I-80J0D01*
G01*
X27549Y34850D02*
G03*
X27549Y34850I-80J0D01*
G01*
X25700Y34528D02*
G03*
X25700Y34528I-80J0D01*
G01*
X25956Y36152D02*
G03*
X25956Y36152I-80J0D01*
G01*
X28633Y36250D02*
G03*
X28633Y36250I-80J0D01*
G01*
X30031Y36447D02*
G03*
X30031Y36447I-80J0D01*
G01*
X33043Y36358D02*
G03*
X33043Y36358I-80J0D01*
G01*
X35504Y36239D02*
G03*
X35504Y36239I-80J0D01*
G01*
X37659Y36053D02*
G03*
X37659Y36053I-80J0D01*
G01*
X40100Y35325D02*
G03*
X40100Y35325I-80J0D01*
G01*
X38653Y34370D02*
G03*
X38653Y34370I-80J0D01*
G01*
X42198Y33495D02*
G03*
X42198Y33495I-80J0D01*
G01*
X42354Y26555D02*
G03*
X42354Y26555I-80J0D01*
G01*
X43033Y28612D02*
G03*
X43033Y28612I-80J0D01*
G01*
X43545Y27352D02*
G03*
X43545Y27352I-80J0D01*
G01*
X39972Y45167D02*
G03*
X39972Y45167I-80J0D01*
G01*
X40710Y45728D02*
G03*
X40710Y45728I-80J0D01*
G01*
X39903Y45807D02*
G03*
X39903Y45807I-80J0D01*
G01*
X40267Y42579D02*
G03*
X40267Y42579I-80J0D01*
G01*
X38033Y24252D02*
G03*
X38033Y24252I-80J0D01*
G01*
X36153Y27392D02*
G03*
X36153Y27392I-80J0D01*
G01*
X43673Y31398D02*
G03*
X43673Y31398I-80J0D01*
G01*
X40070Y32963D02*
G03*
X40070Y32963I-80J0D01*
G01*
X43741Y29616D02*
G03*
X43741Y29616I-80J0D01*
G01*
X38358Y27106D02*
G03*
X38358Y27106I-80J0D01*
G01*
X36261Y29478D02*
G03*
X36261Y29478I-80J0D01*
G01*
X36373Y26815D02*
G03*
X36373Y26815I-80J0D01*
G01*
X36914D02*
G03*
X36914Y26815I-80J0D01*
G01*
X36566Y27657D02*
G03*
X36566Y27657I-80J0D01*
G01*
Y28061D02*
G03*
X36566Y28061I-80J0D01*
G01*
X35739Y27795D02*
G03*
X35739Y27795I-80J0D01*
G01*
X35424Y28337D02*
G03*
X35424Y28337I-80J0D01*
G01*
X30474Y26260D02*
G03*
X30474Y26260I-80J0D01*
G01*
X33151Y26309D02*
G03*
X33151Y26309I-80J0D01*
G01*
X32619Y26211D02*
G03*
X32619Y26211I-80J0D01*
G01*
X41005Y44557D02*
G03*
X41005Y44557I-80J0D01*
G01*
X42206Y39508D02*
G03*
X42206Y39508I-80J0D01*
G01*
X42659Y42894D02*
G03*
X42659Y42894I-80J0D01*
G01*
X44440Y20423D02*
G03*
X44440Y20423I-80J0D01*
G01*
X46182Y22254D02*
G03*
X46182Y22254I-80J0D01*
G01*
X47632Y20078D02*
G03*
X47632Y20078I-80J0D01*
G01*
X46982Y17017D02*
G03*
X46982Y17017I-80J0D01*
G01*
M02*
