G04*
G04 #@! TF.GenerationSoftware,Altium Limited,Altium Designer,22.10.1 (41)*
G04*
G04 Layer_Color=8421504*
%FSLAX25Y25*%
%MOIN*%
G70*
G04*
G04 #@! TF.SameCoordinates,856B5BD7-418A-478B-963B-D84CAA773F5C*
G04*
G04*
G04 #@! TF.FilePolarity,Positive*
G04*
G01*
G75*
%ADD15R,0.09646X0.09646*%
%ADD16R,0.02362X0.00984*%
%ADD17R,0.00984X0.02362*%
%ADD18R,0.06693X0.07874*%
%ADD19R,0.11811X0.21654*%
%ADD20R,0.03740X0.06693*%
%ADD21R,0.06693X0.03740*%
%ADD22R,0.03543X0.07284*%
%ADD23R,0.07284X0.03543*%
%ADD24R,0.05118X0.11024*%
%ADD25R,0.07087X0.02953*%
%ADD26R,0.08279X0.11048*%
%ADD27R,0.06693X0.03937*%
%ADD28R,0.06102X0.13780*%
%ADD29R,0.11024X0.05118*%
%ADD30R,0.08661X0.05906*%
%ADD31R,0.05118X0.03543*%
%ADD32R,0.03543X0.07480*%
%ADD33R,0.04331X0.02362*%
%ADD34R,0.05542X0.06150*%
%ADD35R,0.05756X0.04942*%
%ADD36R,0.05363X0.04546*%
%ADD37R,0.05315X0.03740*%
%ADD38R,0.05000X0.03000*%
%ADD39R,0.10000X0.10512*%
%ADD40R,0.10512X0.10000*%
%ADD41R,0.03000X0.05000*%
%ADD42R,0.02362X0.02362*%
D15*
X338878Y277658D02*
D03*
D16*
X346358Y274783D02*
D03*
Y276752D02*
D03*
Y278720D02*
D03*
Y280689D02*
D03*
Y282658D02*
D03*
Y272815D02*
D03*
X331398Y274721D02*
D03*
Y276689D02*
D03*
Y278658D02*
D03*
Y280626D02*
D03*
Y282594D02*
D03*
Y272752D02*
D03*
D17*
X341815Y285138D02*
D03*
X339846D02*
D03*
X337878D02*
D03*
X335910D02*
D03*
X333941D02*
D03*
X343783D02*
D03*
X341815Y270177D02*
D03*
X339846D02*
D03*
X337878D02*
D03*
X335910D02*
D03*
X333941D02*
D03*
X343783D02*
D03*
D18*
X405315Y301969D02*
D03*
Y282283D02*
D03*
X307185Y233858D02*
D03*
Y214173D02*
D03*
D19*
X395177Y405217D02*
D03*
X357776D02*
D03*
X405020Y189862D02*
D03*
X442421D02*
D03*
D20*
X428505Y446891D02*
D03*
X417482D02*
D03*
X476772Y215748D02*
D03*
X465748D02*
D03*
X297146Y302264D02*
D03*
X286122D02*
D03*
D21*
X339764Y261516D02*
D03*
Y250492D02*
D03*
D22*
X351563Y240256D02*
D03*
X362205D02*
D03*
D23*
X328543Y245866D02*
D03*
Y256508D02*
D03*
D24*
X349114Y256201D02*
D03*
X368012D02*
D03*
D25*
X305315Y267913D02*
D03*
Y276575D02*
D03*
D26*
X404924Y264469D02*
D03*
X395076D02*
D03*
X311223Y288583D02*
D03*
X301376D02*
D03*
X253246Y263976D02*
D03*
X263093D02*
D03*
D27*
X352756Y294685D02*
D03*
Y307283D02*
D03*
X291437Y264469D02*
D03*
Y277067D02*
D03*
D28*
X315551Y340945D02*
D03*
X340945D02*
D03*
D29*
X335531Y315453D02*
D03*
Y296555D02*
D03*
D30*
X310236Y315551D02*
D03*
Y304921D02*
D03*
D31*
X276378Y276476D02*
D03*
Y267421D02*
D03*
X436319Y430217D02*
D03*
Y421949D02*
D03*
D32*
X425295Y218307D02*
D03*
X435925D02*
D03*
X425197Y230413D02*
D03*
X435827D02*
D03*
X393307Y443602D02*
D03*
X382677D02*
D03*
X393504Y430807D02*
D03*
X382874D02*
D03*
D33*
X456890Y200984D02*
D03*
Y197244D02*
D03*
X467520D02*
D03*
Y200945D02*
D03*
X456890Y204724D02*
D03*
X467520D02*
D03*
X408465Y428937D02*
D03*
X419095Y432677D02*
D03*
X408465D02*
D03*
X419095Y428898D02*
D03*
Y425197D02*
D03*
X408465D02*
D03*
D34*
X464190Y187008D02*
D03*
X456693D02*
D03*
X408850Y415551D02*
D03*
X416347D02*
D03*
D35*
X501673Y198030D02*
D03*
Y206104D02*
D03*
X451378Y422833D02*
D03*
Y430907D02*
D03*
D36*
X487795Y204826D02*
D03*
Y197930D02*
D03*
D37*
X368799Y301969D02*
D03*
Y296063D02*
D03*
D38*
X382087Y282476D02*
D03*
D39*
Y291732D02*
D03*
D40*
X296319Y248130D02*
D03*
D41*
X305575D02*
D03*
D42*
X373425Y236910D02*
D03*
X378543D02*
D03*
X375984Y230217D02*
D03*
M02*
