G04*
G04 #@! TF.GenerationSoftware,Altium Limited,Altium Designer,22.9.1 (49)*
G04*
G04 Layer_Color=16711935*
%FSLAX24Y24*%
%MOIN*%
G70*
G04*
G04 #@! TF.SameCoordinates,DA4E84BB-142E-4BBE-8668-F1B5659D6B50*
G04*
G04*
G04 #@! TF.FilePolarity,Negative*
G04*
G01*
G75*
%ADD64R,0.0789X0.0789*%
%ADD65C,0.0789*%
%ADD66R,0.0789X0.0789*%
%ADD67C,0.0340*%
D64*
X47972Y25841D02*
D03*
X50197Y15766D02*
D03*
X44596Y38049D02*
D03*
D65*
X47972Y27841D02*
D03*
X44596Y40049D02*
D03*
X25797Y22589D02*
D03*
X50197Y17766D02*
D03*
D66*
X23797Y22589D02*
D03*
D67*
X28490Y31630D02*
D03*
X33710Y28000D02*
D03*
X34120Y28010D02*
D03*
X34090Y27530D02*
D03*
X33640Y27550D02*
D03*
X32380Y28520D02*
D03*
X27185Y30482D02*
D03*
X29203Y28465D02*
D03*
X44902Y22854D02*
D03*
X45266Y21604D02*
D03*
X45394Y23327D02*
D03*
X44429Y23297D02*
D03*
X25118Y27776D02*
D03*
X25236Y28661D02*
D03*
X25394Y29941D02*
D03*
X27303Y31919D02*
D03*
X25492Y31634D02*
D03*
X27441Y33386D02*
D03*
X25502Y32933D02*
D03*
X27469Y34850D02*
D03*
X25620Y34528D02*
D03*
X25876Y36152D02*
D03*
X28553Y36250D02*
D03*
X29951Y36447D02*
D03*
X32963Y36358D02*
D03*
X35424Y36239D02*
D03*
X37579Y36053D02*
D03*
X40020Y35325D02*
D03*
X38573Y34370D02*
D03*
X42118Y33495D02*
D03*
X42274Y26555D02*
D03*
X42953Y28612D02*
D03*
X43465Y27352D02*
D03*
X39892Y45167D02*
D03*
X40630Y45728D02*
D03*
X39823Y45807D02*
D03*
X40187Y42579D02*
D03*
X37953Y24252D02*
D03*
X36073Y27392D02*
D03*
X43593Y31398D02*
D03*
X39990Y32963D02*
D03*
X43661Y29616D02*
D03*
X38278Y27106D02*
D03*
X36181Y29478D02*
D03*
X36293Y26815D02*
D03*
X36834D02*
D03*
X36486Y27657D02*
D03*
Y28061D02*
D03*
X35659Y27795D02*
D03*
X35344Y28337D02*
D03*
X30394Y26260D02*
D03*
X33071Y26309D02*
D03*
X32539Y26211D02*
D03*
X40925Y44557D02*
D03*
X42126Y39508D02*
D03*
X42579Y42894D02*
D03*
X44360Y20423D02*
D03*
X46102Y22254D02*
D03*
X47552Y20078D02*
D03*
X46902Y17017D02*
D03*
M02*
