G04*
G04 #@! TF.GenerationSoftware,Altium Limited,Altium Designer,22.10.1 (41)*
G04*
G04 Layer_Color=65535*
%FSLAX25Y25*%
%MOIN*%
G70*
G04*
G04 #@! TF.SameCoordinates,856B5BD7-418A-478B-963B-D84CAA773F5C*
G04*
G04*
G04 #@! TF.FilePolarity,Positive*
G04*
G01*
G75*
%ADD10C,0.00394*%
%ADD11C,0.00984*%
%ADD12C,0.01000*%
%ADD13C,0.00787*%
%ADD14C,0.00700*%
D10*
X322378Y268657D02*
G03*
X322378Y268657I1414J-707D01*
G01*
D11*
X382579Y299153D02*
G03*
X382579Y299153I-492J0D01*
G01*
X289390Y248130D02*
G03*
X289390Y248130I-492J0D01*
G01*
D12*
X349378Y284157D02*
Y288158D01*
X345378D02*
X349378D01*
Y267158D02*
Y271188D01*
X345253Y267158D02*
X349378D01*
X327878Y284188D02*
Y288657D01*
X331848D01*
X328378Y266657D02*
X332408D01*
X328378D02*
Y271188D01*
X351677Y422217D02*
X401677D01*
X352677Y386216D02*
X401177D01*
X398520Y172862D02*
X448520D01*
X399020Y208862D02*
X447520D01*
X349575Y245256D02*
X364043D01*
X349575Y235256D02*
X364142D01*
X323543Y243929D02*
Y258496D01*
X333543Y244028D02*
Y258496D01*
X346358Y248327D02*
X370374D01*
X346358Y264469D02*
X370768D01*
X310433Y266339D02*
Y278150D01*
X299803Y266732D02*
Y278543D01*
X346756Y292783D02*
Y309784D01*
X358756Y292783D02*
Y309784D01*
X312402Y351181D02*
X343504D01*
X312402Y330315D02*
X343504D01*
X327658Y294193D02*
Y318209D01*
X343799Y293799D02*
Y318209D01*
X317736Y303051D02*
Y318051D01*
X302736Y303051D02*
Y318051D01*
X271878Y265476D02*
Y278976D01*
X281878Y265476D02*
Y278476D01*
X285437Y262567D02*
Y279567D01*
X297437Y262567D02*
Y279567D01*
X424409Y223130D02*
X437008D01*
X424213Y213386D02*
X436811D01*
X424311Y235236D02*
X436909D01*
X424114Y225492D02*
X436713D01*
X458890Y194882D02*
X465189D01*
X458591Y206968D02*
X464890D01*
X410165Y434921D02*
X416465D01*
X410465Y422835D02*
X416764D01*
X440059Y420177D02*
Y431988D01*
X432382Y420177D02*
Y431988D01*
X381594Y438681D02*
X394193D01*
X381791Y448425D02*
X394390D01*
X381791Y425886D02*
X394390D01*
X381988Y435630D02*
X394587D01*
X371260Y228642D02*
Y238878D01*
X380709Y229035D02*
Y238878D01*
X491500Y143598D02*
X492500Y144598D01*
X494499D01*
X495499Y143598D01*
Y142599D01*
X494499Y141599D01*
X493499D01*
X494499D01*
X495499Y140599D01*
Y139600D01*
X494499Y138600D01*
X492500D01*
X491500Y139600D01*
X497498Y138600D02*
Y139600D01*
X498498D01*
Y138600D01*
X497498D01*
X502496Y143598D02*
X503496Y144598D01*
X505496D01*
X506495Y143598D01*
Y142599D01*
X505496Y141599D01*
X504496D01*
X505496D01*
X506495Y140599D01*
Y139600D01*
X505496Y138600D01*
X503496D01*
X502496Y139600D01*
X508495Y144598D02*
Y140599D01*
X510494Y138600D01*
X512493Y140599D01*
Y144598D01*
X271400Y238800D02*
Y236801D01*
Y237800D01*
X277398D01*
X276398Y238800D01*
Y233802D02*
X277398Y232802D01*
Y230803D01*
X276398Y229803D01*
X272400D01*
X271400Y230803D01*
Y232802D01*
X272400Y233802D01*
X276398D01*
X271400Y227804D02*
X272400D01*
Y226804D01*
X271400D01*
Y227804D01*
X277398Y218807D02*
Y222805D01*
X274399D01*
X275399Y220806D01*
Y219806D01*
X274399Y218807D01*
X272400D01*
X271400Y219806D01*
Y221806D01*
X272400Y222805D01*
X277398Y216807D02*
X273399D01*
X271400Y214808D01*
X273399Y212808D01*
X277398D01*
X485600Y242099D02*
X489599D01*
X491598Y239100D02*
X493597D01*
X492598D01*
Y245098D01*
X491598Y244098D01*
X496596D02*
X497596Y245098D01*
X499595D01*
X500595Y244098D01*
Y240100D01*
X499595Y239100D01*
X497596D01*
X496596Y240100D01*
Y244098D01*
X502595Y245098D02*
Y241099D01*
X504594Y239100D01*
X506593Y241099D01*
Y245098D01*
X444999Y366198D02*
X441000D01*
Y363199D01*
X442999Y364199D01*
X443999D01*
X444999Y363199D01*
Y361200D01*
X443999Y360200D01*
X442000D01*
X441000Y361200D01*
X446998Y366198D02*
Y362199D01*
X448997Y360200D01*
X450997Y362199D01*
Y366198D01*
X318101Y280499D02*
Y275501D01*
X319101Y274501D01*
X321100D01*
X322100Y275501D01*
Y280499D01*
X324099Y274501D02*
X326099D01*
X325099D01*
Y280499D01*
X324099Y279499D01*
X503202Y255302D02*
X509200D01*
X506201D01*
Y259300D01*
X503202D01*
X509200D01*
Y264299D02*
Y262299D01*
X508200Y261300D01*
X506201D01*
X505201Y262299D01*
Y264299D01*
X506201Y265299D01*
X507200D01*
Y261300D01*
X505201Y268298D02*
Y270297D01*
X506201Y271297D01*
X509200D01*
Y268298D01*
X508200Y267298D01*
X507200Y268298D01*
Y271297D01*
X503202Y277295D02*
X509200D01*
Y274296D01*
X508200Y273296D01*
X506201D01*
X505201Y274296D01*
Y277295D01*
X509200Y282293D02*
Y280294D01*
X508200Y279294D01*
X506201D01*
X505201Y280294D01*
Y282293D01*
X506201Y283293D01*
X507200D01*
Y279294D01*
X505201Y285292D02*
X509200D01*
X507200D01*
X506201Y286292D01*
X505201Y287291D01*
Y288291D01*
X509200Y294289D02*
X503202D01*
X506201Y291290D01*
Y295289D01*
X466095Y369081D02*
X472093D01*
X469095D01*
Y373080D01*
X466095D01*
X472093D01*
Y378078D02*
Y376079D01*
X471094Y375079D01*
X469095D01*
X468095Y376079D01*
Y378078D01*
X469095Y379078D01*
X470094D01*
Y375079D01*
X468095Y382077D02*
Y384076D01*
X469095Y385076D01*
X472093D01*
Y382077D01*
X471094Y381077D01*
X470094Y382077D01*
Y385076D01*
X466095Y391074D02*
X472093D01*
Y388075D01*
X471094Y387075D01*
X469095D01*
X468095Y388075D01*
Y391074D01*
X472093Y396073D02*
Y394073D01*
X471094Y393074D01*
X469095D01*
X468095Y394073D01*
Y396073D01*
X469095Y397072D01*
X470094D01*
Y393074D01*
X468095Y399072D02*
X472093D01*
X470094D01*
X469095Y400071D01*
X468095Y401071D01*
Y402071D01*
X472093Y409068D02*
Y405070D01*
X468095Y409068D01*
X467095D01*
X466095Y408069D01*
Y406069D01*
X467095Y405070D01*
X226266Y204574D02*
Y198576D01*
Y201575D01*
X230265D01*
Y204574D01*
Y198576D01*
X235263D02*
X233264D01*
X232264Y199575D01*
Y201575D01*
X233264Y202574D01*
X235263D01*
X236263Y201575D01*
Y200575D01*
X232264D01*
X239262Y202574D02*
X241262D01*
X242261Y201575D01*
Y198576D01*
X239262D01*
X238262Y199575D01*
X239262Y200575D01*
X242261D01*
X248259Y204574D02*
Y198576D01*
X245260D01*
X244261Y199575D01*
Y201575D01*
X245260Y202574D01*
X248259D01*
X253258Y198576D02*
X251258D01*
X250259Y199575D01*
Y201575D01*
X251258Y202574D01*
X253258D01*
X254257Y201575D01*
Y200575D01*
X250259D01*
X256257Y202574D02*
Y198576D01*
Y200575D01*
X257256Y201575D01*
X258256Y202574D01*
X259256D01*
X262255Y203574D02*
X263254Y204574D01*
X265254D01*
X266253Y203574D01*
Y202574D01*
X265254Y201575D01*
X264254D01*
X265254D01*
X266253Y200575D01*
Y199575D01*
X265254Y198576D01*
X263254D01*
X262255Y199575D01*
X475741Y148861D02*
X481739D01*
X478740D01*
Y152859D01*
X475741D01*
X481739D01*
Y157858D02*
Y155858D01*
X480739Y154859D01*
X478740D01*
X477740Y155858D01*
Y157858D01*
X478740Y158857D01*
X479740D01*
Y154859D01*
X477740Y161856D02*
Y163856D01*
X478740Y164855D01*
X481739D01*
Y161856D01*
X480739Y160857D01*
X479740Y161856D01*
Y164855D01*
X475741Y170853D02*
X481739D01*
Y167854D01*
X480739Y166855D01*
X478740D01*
X477740Y167854D01*
Y170853D01*
X481739Y175852D02*
Y173852D01*
X480739Y172853D01*
X478740D01*
X477740Y173852D01*
Y175852D01*
X478740Y176851D01*
X479740D01*
Y172853D01*
X477740Y178851D02*
X481739D01*
X479740D01*
X478740Y179850D01*
X477740Y180850D01*
Y181850D01*
X481739Y184849D02*
Y186848D01*
Y185848D01*
X475741D01*
X476741Y184849D01*
X370691Y383412D02*
Y377414D01*
X374689D01*
X379688D02*
Y383412D01*
X376689Y380413D01*
X380687D01*
X418033Y169534D02*
Y163536D01*
X422032D01*
X424031Y168535D02*
X425031Y169534D01*
X427030D01*
X428030Y168535D01*
Y167535D01*
X427030Y166535D01*
X426030D01*
X427030D01*
X428030Y165536D01*
Y164536D01*
X427030Y163536D01*
X425031D01*
X424031Y164536D01*
X421069Y459422D02*
X420070Y460422D01*
X418070D01*
X417071Y459422D01*
Y455423D01*
X418070Y454424D01*
X420070D01*
X421069Y455423D01*
X423069Y454424D02*
X425068D01*
X424068D01*
Y460422D01*
X423069Y459422D01*
X432066Y460422D02*
X430066Y459422D01*
X428067Y457423D01*
Y455423D01*
X429067Y454424D01*
X431066D01*
X432066Y455423D01*
Y456423D01*
X431066Y457423D01*
X428067D01*
X469336Y228279D02*
X468336Y229279D01*
X466337D01*
X465337Y228279D01*
Y224280D01*
X466337Y223281D01*
X468336D01*
X469336Y224280D01*
X471335Y223281D02*
X473335D01*
X472335D01*
Y229279D01*
X471335Y228279D01*
X480332Y223281D02*
X476334D01*
X480332Y227279D01*
Y228279D01*
X479332Y229279D01*
X477333D01*
X476334Y228279D01*
X339847Y245503D02*
X338847Y246503D01*
X336848D01*
X335848Y245503D01*
Y241505D01*
X336848Y240505D01*
X338847D01*
X339847Y241505D01*
X341846Y245503D02*
X342846Y246503D01*
X344845D01*
X345845Y245503D01*
Y244504D01*
X344845Y243504D01*
X343846D01*
X344845D01*
X345845Y242504D01*
Y241505D01*
X344845Y240505D01*
X342846D01*
X341846Y241505D01*
X356087Y232019D02*
X355087Y233019D01*
X353088D01*
X352088Y232019D01*
Y228020D01*
X353088Y227021D01*
X355087D01*
X356087Y228020D01*
X362085Y227021D02*
X358086D01*
X362085Y231019D01*
Y232019D01*
X361085Y233019D01*
X359086D01*
X358086Y232019D01*
X328839Y240779D02*
X327839Y241779D01*
X325840D01*
X324840Y240779D01*
Y236780D01*
X325840Y235781D01*
X327839D01*
X328839Y236780D01*
X330838Y235781D02*
X332837D01*
X331838D01*
Y241779D01*
X330838Y240779D01*
X382034Y251990D02*
X376036D01*
Y254989D01*
X377036Y255989D01*
X379035D01*
X380035Y254989D01*
Y251990D01*
Y253989D02*
X382034Y255989D01*
X376036Y257988D02*
Y261987D01*
X377036D01*
X381035Y257988D01*
X382034D01*
X308202Y257101D02*
Y263099D01*
X311201D01*
X312200Y262099D01*
Y260100D01*
X311201Y259100D01*
X308202D01*
X310201D02*
X312200Y257101D01*
X318198D02*
X314200D01*
X318198Y261100D01*
Y262099D01*
X317199Y263099D01*
X315199D01*
X314200Y262099D01*
X399394Y253181D02*
X398394Y254180D01*
X396395D01*
X395395Y253181D01*
Y249182D01*
X396395Y248182D01*
X398394D01*
X399394Y249182D01*
X405392Y254180D02*
X401393D01*
Y251181D01*
X403393Y252181D01*
X404392D01*
X405392Y251181D01*
Y249182D01*
X404392Y248182D01*
X402393D01*
X401393Y249182D01*
X348840Y311174D02*
Y317172D01*
X351839D01*
X352839Y316173D01*
Y314173D01*
X351839Y313174D01*
X348840D01*
X350839D02*
X352839Y311174D01*
X354838Y316173D02*
X355838Y317172D01*
X357837D01*
X358837Y316173D01*
Y315173D01*
X357837Y314173D01*
X356838D01*
X357837D01*
X358837Y313174D01*
Y312174D01*
X357837Y311174D01*
X355838D01*
X354838Y312174D01*
X302808Y354401D02*
Y360399D01*
X305807D01*
X306806Y359399D01*
Y357400D01*
X305807Y356400D01*
X302808D01*
X304807D02*
X306806Y354401D01*
X311805D02*
Y360399D01*
X308806Y357400D01*
X312805D01*
X314804Y353401D02*
X318803D01*
X320802Y354401D02*
X322801D01*
X321802D01*
Y360399D01*
X320802Y359399D01*
X325800Y353401D02*
X329799D01*
X331798Y354401D02*
X333798D01*
X332798D01*
Y360399D01*
X331798Y359399D01*
X340795Y354401D02*
X336797D01*
X340795Y358400D01*
Y359399D01*
X339796Y360399D01*
X337796D01*
X336797Y359399D01*
X342795Y354401D02*
X344794D01*
X343794D01*
Y360399D01*
X342795Y359399D01*
X347793Y354401D02*
Y360399D01*
Y356400D02*
X350792Y358400D01*
X347793Y356400D02*
X350792Y354401D01*
X322007Y322001D02*
Y327999D01*
X325006D01*
X326006Y326999D01*
Y325000D01*
X325006Y324000D01*
X322007D01*
X324007D02*
X326006Y322001D01*
X331004D02*
Y327999D01*
X328005Y325000D01*
X332004D01*
X334003Y321001D02*
X338002D01*
X340002Y322001D02*
X342001D01*
X341001D01*
Y327999D01*
X340002Y326999D01*
X345000Y321001D02*
X348998D01*
X354997Y322001D02*
X350998D01*
X354997Y325999D01*
Y326999D01*
X353997Y327999D01*
X351998D01*
X350998Y326999D01*
X356996D02*
X357996Y327999D01*
X359995D01*
X360995Y326999D01*
Y323001D01*
X359995Y322001D01*
X357996D01*
X356996Y323001D01*
Y326999D01*
X362994D02*
X363994Y327999D01*
X365993D01*
X366993Y326999D01*
Y323001D01*
X365993Y322001D01*
X363994D01*
X362994Y323001D01*
Y326999D01*
X309532Y325621D02*
X308532Y326621D01*
X306533D01*
X305533Y325621D01*
Y321623D01*
X306533Y320623D01*
X308532D01*
X309532Y321623D01*
X311531Y325621D02*
X312531Y326621D01*
X314530D01*
X315530Y325621D01*
Y324622D01*
X314530Y323622D01*
X315530Y322622D01*
Y321623D01*
X314530Y320623D01*
X312531D01*
X311531Y321623D01*
Y322622D01*
X312531Y323622D01*
X311531Y324622D01*
Y325621D01*
X312531Y323622D02*
X314530D01*
X275575Y287137D02*
X274575Y288137D01*
X272576D01*
X271576Y287137D01*
Y283138D01*
X272576Y282139D01*
X274575D01*
X275575Y283138D01*
X277574D02*
X278574Y282139D01*
X280574D01*
X281573Y283138D01*
Y287137D01*
X280574Y288137D01*
X278574D01*
X277574Y287137D01*
Y286138D01*
X278574Y285138D01*
X281573D01*
X287091Y292747D02*
X286091Y293747D01*
X284092D01*
X283092Y292747D01*
Y288749D01*
X284092Y287749D01*
X286091D01*
X287091Y288749D01*
X293089Y293747D02*
X291090Y292747D01*
X289090Y290748D01*
Y288749D01*
X290090Y287749D01*
X292089D01*
X293089Y288749D01*
Y289748D01*
X292089Y290748D01*
X289090D01*
X292504Y315287D02*
X291505Y316286D01*
X289505D01*
X288506Y315287D01*
Y311288D01*
X289505Y310288D01*
X291505D01*
X292504Y311288D01*
X294504Y316286D02*
X298502D01*
Y315287D01*
X294504Y311288D01*
Y310288D01*
X285667Y254383D02*
Y260381D01*
X288666D01*
X289665Y259381D01*
Y257382D01*
X288666Y256382D01*
X285667D01*
X287666D02*
X289665Y254383D01*
X291665D02*
X293664D01*
X292664D01*
Y260381D01*
X291665Y259381D01*
X258252Y252984D02*
X257253Y253983D01*
X255253D01*
X254254Y252984D01*
Y248985D01*
X255253Y247985D01*
X257253D01*
X258252Y248985D01*
X263251Y247985D02*
Y253983D01*
X260252Y250984D01*
X264250D01*
D13*
X410236Y307087D02*
X420276D01*
X410236Y277165D02*
X420276D01*
X390354Y307087D02*
X400394D01*
X390354Y277165D02*
X400394D01*
X420276D02*
Y307087D01*
X390354Y277165D02*
Y307087D01*
X312106Y238976D02*
X322146D01*
X312106Y209055D02*
X322146D01*
X292224Y238976D02*
X302264D01*
X292224Y209055D02*
X302264D01*
X322146D02*
Y238976D01*
X292224Y209055D02*
Y238976D01*
X463780Y288405D02*
X495670D01*
X463780Y248405D02*
X495670D01*
Y288405D01*
X463780Y248406D02*
Y288405D01*
X430021Y370492D02*
Y410492D01*
X461910Y370492D02*
Y410492D01*
X430020Y370492D02*
X461910D01*
X430021Y410492D02*
X461910D01*
X227973Y241830D02*
X267972D01*
X227972Y209941D02*
X267972D01*
X227972D02*
Y241830D01*
X267972Y209941D02*
Y241830D01*
X486025Y147658D02*
Y187657D01*
X517914Y147657D02*
Y187657D01*
X486024Y147657D02*
X517914D01*
X486025Y187657D02*
X517914D01*
X420828Y443348D02*
X425159D01*
X420828Y450434D02*
X425159D01*
X469095Y212205D02*
X473425D01*
X469095Y219291D02*
X473425D01*
X343307Y253839D02*
Y258169D01*
X336221Y253839D02*
Y258169D01*
X390937Y271567D02*
X409063D01*
X390937Y257370D02*
X409063D01*
X297236Y295682D02*
X315363D01*
X297236Y281484D02*
X315363D01*
X289469Y298721D02*
X293799D01*
X289469Y305807D02*
X293799D01*
X249106Y256878D02*
X267233D01*
X249106Y271075D02*
X267233D01*
X453922Y191658D02*
X466962D01*
X453922Y182358D02*
X466962D01*
X506126Y195559D02*
Y208575D01*
X497220Y195559D02*
Y208575D01*
X483539Y195657D02*
Y207099D01*
X492052Y195657D02*
Y207099D01*
X455831Y420362D02*
Y433378D01*
X446925Y420362D02*
Y433378D01*
X406078Y410901D02*
X419118D01*
X406078Y420201D02*
X419118D01*
X373031Y294685D02*
Y303346D01*
X364567Y294685D02*
Y303346D01*
D14*
X406595Y440897D02*
Y437898D01*
X408095D01*
X408595Y438398D01*
Y438898D01*
X408095Y439398D01*
X406595D01*
X408095D01*
X408595Y439897D01*
Y440397D01*
X408095Y440897D01*
X406595D01*
X411594Y437898D02*
X409594D01*
X411594Y439897D01*
Y440397D01*
X411094Y440897D01*
X410094D01*
X409594Y440397D01*
X455520Y212944D02*
Y209945D01*
X457020D01*
X457520Y210445D01*
Y210945D01*
X457020Y211445D01*
X455520D01*
X457020D01*
X457520Y211945D01*
Y212445D01*
X457020Y212944D01*
X455520D01*
X458519Y209945D02*
X459519D01*
X459019D01*
Y212944D01*
X458519Y212445D01*
X487560Y209721D02*
Y212720D01*
X489059D01*
X489559Y212220D01*
Y211221D01*
X489059Y210721D01*
X487560D01*
X488560D02*
X489559Y209721D01*
X490559Y212220D02*
X491059Y212720D01*
X492058D01*
X492558Y212220D01*
Y211720D01*
X492058Y211221D01*
X492558Y210721D01*
Y210221D01*
X492058Y209721D01*
X491059D01*
X490559Y210221D01*
Y210721D01*
X491059Y211221D01*
X490559Y211720D01*
Y212220D01*
X491059Y211221D02*
X492058D01*
X500454Y212083D02*
Y215082D01*
X501953D01*
X502453Y214582D01*
Y213583D01*
X501953Y213083D01*
X500454D01*
X501453D02*
X502453Y212083D01*
X503453Y212583D02*
X503952Y212083D01*
X504952D01*
X505452Y212583D01*
Y214582D01*
X504952Y215082D01*
X503952D01*
X503453Y214582D01*
Y214083D01*
X503952Y213583D01*
X505452D01*
X460691Y176008D02*
X461191Y175508D01*
X462191D01*
X462691Y176008D01*
Y178007D01*
X462191Y178507D01*
X461191D01*
X460691Y178007D01*
X459692Y178507D02*
X458692D01*
X459192D01*
Y175508D01*
X459692Y176008D01*
X457192Y178507D02*
X456193D01*
X456693D01*
Y175508D01*
X457192Y176008D01*
X416674Y217719D02*
X416174Y217219D01*
Y216220D01*
X416674Y215720D01*
X418673D01*
X419173Y216220D01*
Y217219D01*
X418673Y217719D01*
X419173Y218719D02*
Y219718D01*
Y219219D01*
X416174D01*
X416674Y218719D01*
Y221218D02*
X416174Y221718D01*
Y222717D01*
X416674Y223217D01*
X417173D01*
X417673Y222717D01*
Y222218D01*
Y222717D01*
X418173Y223217D01*
X418673D01*
X419173Y222717D01*
Y221718D01*
X418673Y221218D01*
X416575Y229825D02*
X416075Y229326D01*
Y228326D01*
X416575Y227826D01*
X418574D01*
X419074Y228326D01*
Y229326D01*
X418574Y229825D01*
X419074Y230825D02*
Y231825D01*
Y231325D01*
X416075D01*
X416575Y230825D01*
X419074Y234824D02*
X416075D01*
X417575Y233324D01*
Y235324D01*
X433070Y433949D02*
Y436948D01*
X434570D01*
X435070Y436448D01*
Y435449D01*
X434570Y434949D01*
X433070D01*
X434070D02*
X435070Y433949D01*
X436069D02*
X437069D01*
X436569D01*
Y436948D01*
X436069Y436448D01*
X438568D02*
X439068Y436948D01*
X440068D01*
X440568Y436448D01*
Y434449D01*
X440068Y433949D01*
X439068D01*
X438568Y434449D01*
Y436448D01*
X448523Y437969D02*
Y440968D01*
X450022D01*
X450522Y440468D01*
Y439468D01*
X450022Y438969D01*
X448523D01*
X449522D02*
X450522Y437969D01*
X451522D02*
X452521D01*
X452022D01*
Y440968D01*
X451522Y440468D01*
X454021Y437969D02*
X455021D01*
X454521D01*
Y440968D01*
X454021Y440468D01*
X371558Y445102D02*
X371058Y445602D01*
X370058D01*
X369558Y445102D01*
Y443103D01*
X370058Y442603D01*
X371058D01*
X371558Y443103D01*
X372557Y442603D02*
X373557D01*
X373057D01*
Y445602D01*
X372557Y445102D01*
X375057Y445602D02*
X377056D01*
Y445102D01*
X375057Y443103D01*
Y442603D01*
X371755Y432307D02*
X371255Y432807D01*
X370255D01*
X369755Y432307D01*
Y430307D01*
X370255Y429808D01*
X371255D01*
X371755Y430307D01*
X372754Y429808D02*
X373754D01*
X373254D01*
Y432807D01*
X372754Y432307D01*
X375253D02*
X375753Y432807D01*
X376753D01*
X377253Y432307D01*
Y431807D01*
X376753Y431307D01*
X377253Y430807D01*
Y430307D01*
X376753Y429808D01*
X375753D01*
X375253Y430307D01*
Y430807D01*
X375753Y431307D01*
X375253Y431807D01*
Y432307D01*
X375753Y431307D02*
X376753D01*
X413348Y404552D02*
X413848Y404052D01*
X414847D01*
X415347Y404552D01*
Y406551D01*
X414847Y407051D01*
X413848D01*
X413348Y406551D01*
X412348Y407051D02*
X411348D01*
X411848D01*
Y404052D01*
X412348Y404552D01*
X407850Y404052D02*
X409849D01*
Y405551D01*
X408849Y405051D01*
X408350D01*
X407850Y405551D01*
Y406551D01*
X408350Y407051D01*
X409349D01*
X409849Y406551D01*
X367542Y308972D02*
X367042Y309472D01*
X366042D01*
X365543Y308972D01*
Y306973D01*
X366042Y306473D01*
X367042D01*
X367542Y306973D01*
X368542Y306473D02*
X369541D01*
X369041D01*
Y309472D01*
X368542Y308972D01*
X371041D02*
X371541Y309472D01*
X372540D01*
X373040Y308972D01*
Y306973D01*
X372540Y306473D01*
X371541D01*
X371041Y306973D01*
Y308972D01*
X378406Y279255D02*
Y276256D01*
X379906D01*
X380406Y276756D01*
Y278756D01*
X379906Y279255D01*
X378406D01*
X383405Y276256D02*
X381405D01*
X383405Y278256D01*
Y278756D01*
X382905Y279255D01*
X381905D01*
X381405Y278756D01*
X283532Y245004D02*
Y242004D01*
X285032D01*
X285531Y242504D01*
Y244504D01*
X285032Y245004D01*
X283532D01*
X286531Y242004D02*
X287531D01*
X287031D01*
Y245004D01*
X286531Y244504D01*
X285301Y225999D02*
Y223001D01*
X287300D01*
X288300D02*
X289299D01*
X288800D01*
Y225999D01*
X288300Y225500D01*
X415513Y315082D02*
Y312083D01*
X417512D01*
X420511D02*
X418512D01*
X420511Y314083D01*
Y314582D01*
X420011Y315082D01*
X419011D01*
X418512Y314582D01*
X385925Y233910D02*
Y235909D01*
X385425Y236409D01*
X384426D01*
X383926Y235909D01*
Y233910D01*
X384426Y233410D01*
X385425D01*
X384926Y234410D02*
X385925Y233410D01*
X385425D02*
X385925Y233910D01*
X386925Y233410D02*
X387925D01*
X387425D01*
Y236409D01*
X386925Y235909D01*
M02*
