G04*
G04 #@! TF.GenerationSoftware,Altium Limited,Altium Designer,22.10.1 (41)*
G04*
G04 Layer_Color=8388736*
%FSLAX44Y44*%
%MOMM*%
G71*
G04*
G04 #@! TF.SameCoordinates,5B72B8DF-E24A-41CE-AD84-0836D2D271DA*
G04*
G04*
G04 #@! TF.FilePolarity,Negative*
G04*
G01*
G75*
%ADD17R,0.8500X1.3500*%
%ADD18R,1.4500X1.2000*%
G04:AMPARAMS|DCode=19|XSize=0.25mm|YSize=0.7mm|CornerRadius=0.05mm|HoleSize=0mm|Usage=FLASHONLY|Rotation=90.000|XOffset=0mm|YOffset=0mm|HoleType=Round|Shape=RoundedRectangle|*
%AMROUNDEDRECTD19*
21,1,0.2500,0.6000,0,0,90.0*
21,1,0.1500,0.7000,0,0,90.0*
1,1,0.1000,0.3000,0.0750*
1,1,0.1000,0.3000,-0.0750*
1,1,0.1000,-0.3000,-0.0750*
1,1,0.1000,-0.3000,0.0750*
%
%ADD19ROUNDEDRECTD19*%
G04:AMPARAMS|DCode=20|XSize=0.25mm|YSize=0.7mm|CornerRadius=0.05mm|HoleSize=0mm|Usage=FLASHONLY|Rotation=0.000|XOffset=0mm|YOffset=0mm|HoleType=Round|Shape=RoundedRectangle|*
%AMROUNDEDRECTD20*
21,1,0.2500,0.6000,0,0,0.0*
21,1,0.1500,0.7000,0,0,0.0*
1,1,0.1000,0.0750,-0.3000*
1,1,0.1000,-0.0750,-0.3000*
1,1,0.1000,-0.0750,0.3000*
1,1,0.1000,0.0750,0.3000*
%
%ADD20ROUNDEDRECTD20*%
%ADD21R,3.4500X3.4500*%
%ADD22R,0.9000X0.7500*%
G04:AMPARAMS|DCode=23|XSize=2.4741mm|YSize=0.6221mm|CornerRadius=0.3111mm|HoleSize=0mm|Usage=FLASHONLY|Rotation=0.000|XOffset=0mm|YOffset=0mm|HoleType=Round|Shape=RoundedRectangle|*
%AMROUNDEDRECTD23*
21,1,2.4741,0.0000,0,0,0.0*
21,1,1.8519,0.6221,0,0,0.0*
1,1,0.6221,0.9260,0.0000*
1,1,0.6221,-0.9260,0.0000*
1,1,0.6221,-0.9260,0.0000*
1,1,0.6221,0.9260,0.0000*
%
%ADD23ROUNDEDRECTD23*%
%ADD24R,2.4741X0.6221*%
%ADD25R,0.8000X0.9000*%
%ADD26R,0.9500X0.5500*%
%ADD27R,0.9000X0.8000*%
%ADD28R,0.5200X0.5600*%
%ADD29R,0.7600X0.7200*%
%ADD30R,0.7200X0.7600*%
G04:AMPARAMS|DCode=31|XSize=0.24mm|YSize=0.6mm|CornerRadius=0.03mm|HoleSize=0mm|Usage=FLASHONLY|Rotation=0.000|XOffset=0mm|YOffset=0mm|HoleType=Round|Shape=RoundedRectangle|*
%AMROUNDEDRECTD31*
21,1,0.2400,0.5400,0,0,0.0*
21,1,0.1800,0.6000,0,0,0.0*
1,1,0.0600,0.0900,-0.2700*
1,1,0.0600,-0.0900,-0.2700*
1,1,0.0600,-0.0900,0.2700*
1,1,0.0600,0.0900,0.2700*
%
%ADD31ROUNDEDRECTD31*%
G04:AMPARAMS|DCode=32|XSize=0.6mm|YSize=0.24mm|CornerRadius=0.03mm|HoleSize=0mm|Usage=FLASHONLY|Rotation=0.000|XOffset=0mm|YOffset=0mm|HoleType=Round|Shape=RoundedRectangle|*
%AMROUNDEDRECTD32*
21,1,0.6000,0.1800,0,0,0.0*
21,1,0.5400,0.2400,0,0,0.0*
1,1,0.0600,0.2700,-0.0900*
1,1,0.0600,-0.2700,-0.0900*
1,1,0.0600,-0.2700,0.0900*
1,1,0.0600,0.2700,0.0900*
%
%ADD32ROUNDEDRECTD32*%
%ADD34R,2.6000X1.9000*%
%ADD35R,0.4500X0.4500*%
%ADD36R,0.4500X0.4500*%
%ADD37R,0.6000X0.5500*%
%ADD38R,2.3000X1.5000*%
%ADD39R,1.0121X1.2084*%
G04:AMPARAMS|DCode=40|XSize=2.4mm|YSize=6.17mm|CornerRadius=0.048mm|HoleSize=0mm|Usage=FLASHONLY|Rotation=270.000|XOffset=0mm|YOffset=0mm|HoleType=Round|Shape=RoundedRectangle|*
%AMROUNDEDRECTD40*
21,1,2.4000,6.0740,0,0,270.0*
21,1,2.3040,6.1700,0,0,270.0*
1,1,0.0960,-3.0370,-1.1520*
1,1,0.0960,-3.0370,1.1520*
1,1,0.0960,3.0370,1.1520*
1,1,0.0960,3.0370,-1.1520*
%
%ADD40ROUNDEDRECTD40*%
G04:AMPARAMS|DCode=41|XSize=0.45mm|YSize=1.6mm|CornerRadius=0.0495mm|HoleSize=0mm|Usage=FLASHONLY|Rotation=0.000|XOffset=0mm|YOffset=0mm|HoleType=Round|Shape=RoundedRectangle|*
%AMROUNDEDRECTD41*
21,1,0.4500,1.5010,0,0,0.0*
21,1,0.3510,1.6000,0,0,0.0*
1,1,0.0990,0.1755,-0.7505*
1,1,0.0990,-0.1755,-0.7505*
1,1,0.0990,-0.1755,0.7505*
1,1,0.0990,0.1755,0.7505*
%
%ADD41ROUNDEDRECTD41*%
%ADD42R,1.5781X1.5562*%
%ADD43R,1.5562X1.5781*%
G04:AMPARAMS|DCode=44|XSize=0.45mm|YSize=1.3mm|CornerRadius=0.1125mm|HoleSize=0mm|Usage=FLASHONLY|Rotation=90.000|XOffset=0mm|YOffset=0mm|HoleType=Round|Shape=RoundedRectangle|*
%AMROUNDEDRECTD44*
21,1,0.4500,1.0750,0,0,90.0*
21,1,0.2250,1.3000,0,0,90.0*
1,1,0.2250,0.5375,0.1125*
1,1,0.2250,0.5375,-0.1125*
1,1,0.2250,-0.5375,-0.1125*
1,1,0.2250,-0.5375,0.1125*
%
%ADD44ROUNDEDRECTD44*%
G04:AMPARAMS|DCode=45|XSize=0.45mm|YSize=1.3mm|CornerRadius=0.1125mm|HoleSize=0mm|Usage=FLASHONLY|Rotation=90.000|XOffset=0mm|YOffset=0mm|HoleType=Round|Shape=RoundedRectangle|*
%AMROUNDEDRECTD45*
21,1,0.4500,1.0750,0,0,90.0*
21,1,0.2250,1.3000,0,0,90.0*
1,1,0.2250,0.5375,0.1125*
1,1,0.2250,0.5375,-0.1125*
1,1,0.2250,-0.5375,-0.1125*
1,1,0.2250,-0.5375,0.1125*
%
%ADD45ROUNDEDRECTD45*%
%ADD46R,1.5057X1.8582*%
%ADD47R,1.8582X1.5057*%
%ADD48R,0.8621X0.7350*%
%ADD49R,1.3500X0.9500*%
%ADD50R,1.3500X0.9500*%
%ADD51R,0.7000X0.6500*%
%ADD52R,4.2500X4.2500*%
%ADD53C,1.5660*%
%ADD54R,1.5660X1.5660*%
%ADD55C,0.7620*%
%ADD56R,1.5000X1.5000*%
%ADD57C,1.5000*%
%ADD58C,0.5080*%
%ADD59C,1.4000*%
%ADD60C,3.0000*%
%ADD61R,1.4000X1.4000*%
%ADD62C,0.6604*%
%ADD63C,1.5240*%
%ADD64C,0.9652*%
D17*
X163190Y746760D02*
D03*
X146690D02*
D03*
X163190Y726717D02*
D03*
X146690D02*
D03*
X163190Y706675D02*
D03*
X146690D02*
D03*
X163190Y686632D02*
D03*
X146690D02*
D03*
X694060Y685800D02*
D03*
X710560D02*
D03*
X694060Y706120D02*
D03*
X710560D02*
D03*
X694060Y726163D02*
D03*
X710560D02*
D03*
X694060Y746205D02*
D03*
X710560D02*
D03*
D18*
X170776Y621886D02*
D03*
Y641886D02*
D03*
X626110Y881227D02*
D03*
Y861227D02*
D03*
X530724Y881227D02*
D03*
Y861227D02*
D03*
X355477Y885036D02*
D03*
Y865036D02*
D03*
X252730Y885036D02*
D03*
Y865036D02*
D03*
X272578Y641008D02*
D03*
Y621008D02*
D03*
X414020Y639920D02*
D03*
Y619920D02*
D03*
X560755Y639346D02*
D03*
Y619346D02*
D03*
X701588Y638134D02*
D03*
Y618134D02*
D03*
X312447Y641008D02*
D03*
Y621008D02*
D03*
X458938Y619212D02*
D03*
Y639212D02*
D03*
X600065Y619346D02*
D03*
Y639346D02*
D03*
D19*
X393960Y413230D02*
D03*
Y448230D02*
D03*
Y418230D02*
D03*
Y423230D02*
D03*
Y428230D02*
D03*
Y433230D02*
D03*
Y438230D02*
D03*
Y443230D02*
D03*
X441960Y413230D02*
D03*
Y418230D02*
D03*
Y423230D02*
D03*
Y428230D02*
D03*
Y433230D02*
D03*
Y438230D02*
D03*
Y443230D02*
D03*
Y448230D02*
D03*
D20*
X415460Y406730D02*
D03*
X410460D02*
D03*
X400460D02*
D03*
X430460D02*
D03*
X435460D02*
D03*
X425460D02*
D03*
X420460D02*
D03*
X415460Y454730D02*
D03*
X410460D02*
D03*
X400460D02*
D03*
X405460D02*
D03*
X430460D02*
D03*
X435460D02*
D03*
X425460D02*
D03*
X420460D02*
D03*
X405460Y406730D02*
D03*
D21*
X417960Y430730D02*
D03*
D22*
X472180Y674254D02*
D03*
Y658754D02*
D03*
X614420Y658889D02*
D03*
Y674389D02*
D03*
X185160Y661429D02*
D03*
Y676929D02*
D03*
X328670Y661294D02*
D03*
Y676794D02*
D03*
D23*
X563910Y231140D02*
D03*
Y243840D02*
D03*
Y218440D02*
D03*
Y205740D02*
D03*
X515589D02*
D03*
Y218440D02*
D03*
Y231140D02*
D03*
D24*
Y243840D02*
D03*
D25*
X501770Y271780D02*
D03*
X516770D02*
D03*
X462400Y391160D02*
D03*
X477400D02*
D03*
X229490Y571651D02*
D03*
X214490D02*
D03*
X356730Y568714D02*
D03*
X371730D02*
D03*
X501630Y564904D02*
D03*
X516630D02*
D03*
X642582Y569111D02*
D03*
X657583D02*
D03*
D26*
X568360Y273050D02*
D03*
X556860D02*
D03*
D27*
X314960Y731640D02*
D03*
Y746640D02*
D03*
X284480Y731760D02*
D03*
Y746760D02*
D03*
X375920Y409060D02*
D03*
Y424060D02*
D03*
X311150Y886460D02*
D03*
Y871460D02*
D03*
X594100Y742584D02*
D03*
Y727583D02*
D03*
X564890Y742584D02*
D03*
Y727583D02*
D03*
X289607Y871340D02*
D03*
Y886340D02*
D03*
X591560Y867283D02*
D03*
Y882284D02*
D03*
X568700D02*
D03*
Y867283D02*
D03*
X181398Y585344D02*
D03*
Y600344D02*
D03*
X322422Y584073D02*
D03*
Y599074D02*
D03*
X467100Y597669D02*
D03*
Y582669D02*
D03*
X609442Y582803D02*
D03*
Y597804D02*
D03*
X263955Y584401D02*
D03*
Y599401D02*
D03*
X406195Y598131D02*
D03*
Y583131D02*
D03*
X552190Y597804D02*
D03*
Y582803D02*
D03*
X693215Y581534D02*
D03*
Y596534D02*
D03*
D28*
X566420Y344260D02*
D03*
Y336460D02*
D03*
Y297090D02*
D03*
Y304890D02*
D03*
D29*
X436700Y314960D02*
D03*
X426900D02*
D03*
X360860Y265430D02*
D03*
X370660D02*
D03*
X341450D02*
D03*
X331650D02*
D03*
D30*
X287020Y315140D02*
D03*
Y324940D02*
D03*
X325120Y426540D02*
D03*
Y416740D02*
D03*
D31*
X322730Y283220D02*
D03*
X327730D02*
D03*
X332730D02*
D03*
X337730D02*
D03*
X342730D02*
D03*
X347730D02*
D03*
X352730D02*
D03*
X357730D02*
D03*
X362730D02*
D03*
X367730D02*
D03*
X372730D02*
D03*
X377730D02*
D03*
X382730D02*
D03*
X387730D02*
D03*
X392730D02*
D03*
X397730D02*
D03*
Y371220D02*
D03*
X392730D02*
D03*
X387730D02*
D03*
X382730D02*
D03*
X377730D02*
D03*
X372730D02*
D03*
X367730D02*
D03*
X362730D02*
D03*
X357730D02*
D03*
X352730D02*
D03*
X347730D02*
D03*
X342730D02*
D03*
X337730D02*
D03*
X332730D02*
D03*
X327730D02*
D03*
X322730D02*
D03*
D32*
X316230Y334720D02*
D03*
Y329720D02*
D03*
Y324720D02*
D03*
Y319720D02*
D03*
Y314720D02*
D03*
Y309720D02*
D03*
Y304720D02*
D03*
Y299720D02*
D03*
Y294720D02*
D03*
Y289720D02*
D03*
X404230D02*
D03*
Y294720D02*
D03*
Y299720D02*
D03*
Y304720D02*
D03*
Y309720D02*
D03*
Y314720D02*
D03*
Y319720D02*
D03*
Y324720D02*
D03*
Y329720D02*
D03*
Y354720D02*
D03*
Y359720D02*
D03*
Y364720D02*
D03*
X316230Y349720D02*
D03*
Y344720D02*
D03*
Y364720D02*
D03*
Y359720D02*
D03*
Y354720D02*
D03*
Y339720D02*
D03*
X404230Y334720D02*
D03*
Y339720D02*
D03*
Y344720D02*
D03*
Y349720D02*
D03*
D34*
X534670Y301080D02*
D03*
Y344080D02*
D03*
D35*
X186880Y414020D02*
D03*
X178880D02*
D03*
D36*
X491490Y326580D02*
D03*
Y318580D02*
D03*
D37*
X465650Y317500D02*
D03*
X474150D02*
D03*
D38*
X151920Y455930D02*
D03*
X218920D02*
D03*
D39*
X353060Y424978D02*
D03*
Y408940D02*
D03*
X506730Y456329D02*
D03*
Y440291D02*
D03*
D40*
X579790Y803684D02*
D03*
X299120Y807494D02*
D03*
D41*
X609040Y773184D02*
D03*
X334870Y776994D02*
D03*
X622040Y834184D02*
D03*
X615540D02*
D03*
X609040D02*
D03*
X602540D02*
D03*
X596040D02*
D03*
X589540D02*
D03*
X583040D02*
D03*
X576540D02*
D03*
X570040D02*
D03*
X563540D02*
D03*
X557040D02*
D03*
X550540D02*
D03*
X544040D02*
D03*
X537540D02*
D03*
Y773184D02*
D03*
X544040D02*
D03*
X550540D02*
D03*
X557040D02*
D03*
X563540D02*
D03*
X570040D02*
D03*
X576540D02*
D03*
X583040D02*
D03*
X589540D02*
D03*
X596040D02*
D03*
X602540D02*
D03*
X615540D02*
D03*
X622040D02*
D03*
X341370Y837994D02*
D03*
X334870D02*
D03*
X328370D02*
D03*
X321870D02*
D03*
X315370D02*
D03*
X308870D02*
D03*
X302370D02*
D03*
X295870D02*
D03*
X289370D02*
D03*
X282870D02*
D03*
X276370D02*
D03*
X269870D02*
D03*
X263370D02*
D03*
X256870D02*
D03*
Y776994D02*
D03*
X263370D02*
D03*
X269870D02*
D03*
X276370D02*
D03*
X282870D02*
D03*
X289370D02*
D03*
X295870D02*
D03*
X302370D02*
D03*
X308870D02*
D03*
X315370D02*
D03*
X321870D02*
D03*
X328370D02*
D03*
X341370D02*
D03*
D42*
X490209Y787154D02*
D03*
X507491D02*
D03*
X228340Y792234D02*
D03*
X211059D02*
D03*
D43*
X501650Y865119D02*
D03*
Y882401D02*
D03*
X658870Y864873D02*
D03*
Y882154D02*
D03*
X384550Y879614D02*
D03*
Y862333D02*
D03*
X222250Y883671D02*
D03*
Y866389D02*
D03*
D44*
X671762Y638714D02*
D03*
X629762Y619214D02*
D03*
Y632214D02*
D03*
Y638714D02*
D03*
X671762Y625714D02*
D03*
Y632214D02*
D03*
X629762Y625714D02*
D03*
X488690Y638714D02*
D03*
Y632214D02*
D03*
Y625714D02*
D03*
Y619214D02*
D03*
X530690Y625714D02*
D03*
Y632214D02*
D03*
Y638714D02*
D03*
X342743Y639984D02*
D03*
Y633484D02*
D03*
Y626984D02*
D03*
Y620484D02*
D03*
X384742Y626984D02*
D03*
Y633484D02*
D03*
Y639984D02*
D03*
X200502Y641254D02*
D03*
Y634754D02*
D03*
Y628254D02*
D03*
Y621754D02*
D03*
X242502Y628254D02*
D03*
Y634754D02*
D03*
Y641254D02*
D03*
D45*
X671762Y619214D02*
D03*
X530690D02*
D03*
X384742Y620484D02*
D03*
X242502Y621754D02*
D03*
D46*
X479944Y821444D02*
D03*
X509469D02*
D03*
X199274Y826524D02*
D03*
X228799D02*
D03*
D47*
X371204Y822236D02*
D03*
Y792711D02*
D03*
X651874Y788901D02*
D03*
Y818426D02*
D03*
D48*
X202940Y601677D02*
D03*
Y589369D02*
D03*
X242412Y602808D02*
D03*
Y590500D02*
D03*
X343965Y600407D02*
D03*
Y588099D02*
D03*
X384550Y600267D02*
D03*
Y587960D02*
D03*
X488690Y597728D02*
D03*
Y585420D02*
D03*
X530600Y597728D02*
D03*
Y585420D02*
D03*
X629762Y598058D02*
D03*
Y585750D02*
D03*
X671673Y598668D02*
D03*
Y586360D02*
D03*
D49*
X235960Y661294D02*
D03*
Y676794D02*
D03*
X378200Y660024D02*
D03*
Y675524D02*
D03*
X524250Y659624D02*
D03*
Y675124D02*
D03*
X665322Y658754D02*
D03*
Y674254D02*
D03*
X205480Y661294D02*
D03*
Y676794D02*
D03*
X350260Y660024D02*
D03*
Y675524D02*
D03*
X493770Y660024D02*
D03*
Y675524D02*
D03*
X634842D02*
D03*
Y660024D02*
D03*
D50*
X331470Y462160D02*
D03*
Y447160D02*
D03*
D51*
X473710Y428390D02*
D03*
Y414890D02*
D03*
D52*
X360230Y327220D02*
D03*
D53*
X404420Y957580D02*
D03*
X439420D02*
D03*
X474420D02*
D03*
X509420D02*
D03*
X544420D02*
D03*
X369420D02*
D03*
X334420D02*
D03*
X299420D02*
D03*
D54*
X579420D02*
D03*
D55*
X417925Y444101D02*
D03*
X404540D02*
D03*
X431287D02*
D03*
X404540Y426294D02*
D03*
X411047Y435198D02*
D03*
X410908Y417391D02*
D03*
X424647D02*
D03*
X425234Y435198D02*
D03*
X417925Y426294D02*
D03*
X431192D02*
D03*
D56*
X666750Y377190D02*
D03*
D57*
X692150D02*
D03*
X666750Y351790D02*
D03*
X692150D02*
D03*
X666750Y326390D02*
D03*
X692150D02*
D03*
X666750Y300990D02*
D03*
X692150D02*
D03*
X666750Y275590D02*
D03*
X692150D02*
D03*
X190570Y295910D02*
D03*
D58*
X553177Y794986D02*
D03*
X563338D02*
D03*
X573498D02*
D03*
X553120Y812574D02*
D03*
Y803684D02*
D03*
X563280Y812574D02*
D03*
Y803684D02*
D03*
X573440D02*
D03*
Y812574D02*
D03*
X586140Y794794D02*
D03*
Y812574D02*
D03*
Y803684D02*
D03*
X595030Y812574D02*
D03*
Y803684D02*
D03*
Y794794D02*
D03*
X605190D02*
D03*
Y803684D02*
D03*
Y812574D02*
D03*
X324520Y816384D02*
D03*
Y807494D02*
D03*
Y798604D02*
D03*
X314360D02*
D03*
Y807494D02*
D03*
Y816384D02*
D03*
X305470Y807494D02*
D03*
Y816384D02*
D03*
Y798604D02*
D03*
X292770Y816384D02*
D03*
Y807494D02*
D03*
X282610D02*
D03*
Y816384D02*
D03*
X272450Y807494D02*
D03*
Y816384D02*
D03*
X292827Y798795D02*
D03*
X282668D02*
D03*
X272507D02*
D03*
D59*
X190570Y346710D02*
D03*
X215970Y308610D02*
D03*
X190570Y321310D02*
D03*
X215970Y334010D02*
D03*
D60*
X127070Y378410D02*
D03*
Y276810D02*
D03*
D61*
X215970Y359410D02*
D03*
D62*
X156210Y668020D02*
D03*
X147320Y765810D02*
D03*
X323850Y904240D02*
D03*
X285750Y902970D02*
D03*
X353060Y842010D02*
D03*
X717550Y626110D02*
D03*
X686125Y629037D02*
D03*
X615230Y629315D02*
D03*
X545140Y628827D02*
D03*
X474455Y629884D02*
D03*
X398980Y629920D02*
D03*
X328024Y630483D02*
D03*
X256540Y631190D02*
D03*
X186690Y632460D02*
D03*
X528320Y716280D02*
D03*
X518160Y726440D02*
D03*
X508000Y736600D02*
D03*
X497840Y746760D02*
D03*
X345440Y716280D02*
D03*
X354330Y726440D02*
D03*
X363220Y736600D02*
D03*
X372110Y746760D02*
D03*
X310660Y410055D02*
D03*
X525779Y804843D02*
D03*
X580390Y892810D02*
D03*
X636270Y908050D02*
D03*
X569843Y758190D02*
D03*
X525780Y768350D02*
D03*
X655320Y685800D02*
D03*
X509270Y674370D02*
D03*
X454660Y675640D02*
D03*
X455735Y658819D02*
D03*
X199390Y688340D02*
D03*
X236220Y689610D02*
D03*
X368300D02*
D03*
X336550D02*
D03*
Y425450D02*
D03*
X323088Y403860D02*
D03*
X566420Y326390D02*
D03*
Y312420D02*
D03*
X449580Y303530D02*
D03*
X592022Y698067D02*
D03*
X485140Y205740D02*
D03*
X585470Y273050D02*
D03*
X483870Y271780D02*
D03*
X533400D02*
D03*
X299720Y901700D02*
D03*
X591820Y712470D02*
D03*
X568960D02*
D03*
X309880Y716280D02*
D03*
X288290D02*
D03*
X475240Y881626D02*
D03*
X561340Y904240D02*
D03*
X241300Y453390D02*
D03*
X232670Y905756D02*
D03*
X412750Y908050D02*
D03*
X646430Y594360D02*
D03*
X222250Y605790D02*
D03*
X363220Y604520D02*
D03*
X509591Y604199D02*
D03*
X683260Y608330D02*
D03*
X457200Y407670D02*
D03*
X529590Y487680D02*
D03*
X421640Y299720D02*
D03*
X350189Y380669D02*
D03*
X340029Y390829D02*
D03*
X233680Y416560D02*
D03*
X204470Y419100D02*
D03*
X298114Y476886D02*
D03*
X303530Y471170D02*
D03*
X304800Y436880D02*
D03*
X309400Y465564D02*
D03*
X332740Y397510D02*
D03*
X407670Y389890D02*
D03*
X427990D02*
D03*
X416560Y386080D02*
D03*
X331560Y254090D02*
D03*
X370750D02*
D03*
X638810Y842010D02*
D03*
X452120Y581660D02*
D03*
X462280Y821690D02*
D03*
X181610Y826770D02*
D03*
X591820Y910590D02*
D03*
X364490Y627380D02*
D03*
X172285Y660593D02*
D03*
X170942Y606282D02*
D03*
X287020Y599440D02*
D03*
X572570Y597924D02*
D03*
X223520Y627380D02*
D03*
X510540Y626110D02*
D03*
X652780D02*
D03*
X597912Y658886D02*
D03*
X312225Y661359D02*
D03*
D63*
X679450Y240030D02*
D03*
Y214630D02*
D03*
D64*
X351572Y528538D02*
D03*
X624096Y515094D02*
D03*
X603994Y535196D02*
D03*
X473184Y527576D02*
D03*
X491524Y509522D02*
D03*
X376138Y529590D02*
D03*
X298450Y511810D02*
D03*
Y535940D02*
D03*
M02*
