G04*
G04 #@! TF.GenerationSoftware,Altium Limited,Altium Designer,22.10.1 (41)*
G04*
G04 Layer_Physical_Order=4*
G04 Layer_Color=16711680*
%FSLAX44Y44*%
%MOMM*%
G71*
G04*
G04 #@! TF.SameCoordinates,5B72B8DF-E24A-41CE-AD84-0836D2D271DA*
G04*
G04*
G04 #@! TF.FilePolarity,Positive*
G04*
G01*
G75*
%ADD11C,0.2540*%
%ADD53C,1.5660*%
%ADD54R,1.5660X1.5660*%
%ADD55C,0.7620*%
%ADD56R,1.5000X1.5000*%
%ADD57C,1.5000*%
%ADD58C,0.5080*%
%ADD59C,1.4000*%
%ADD60C,3.0000*%
%ADD61R,1.4000X1.4000*%
%ADD62C,0.6604*%
%ADD63C,1.5240*%
%ADD64C,0.9652*%
%ADD65C,0.1524*%
%ADD66C,0.3810*%
D11*
X219710Y668020D02*
X256540Y631190D01*
X156210Y668020D02*
X219710D01*
X256540Y572661D02*
Y631190D01*
X716450Y626110D02*
X717550D01*
X713523Y629037D02*
X716450Y626110D01*
X686125Y629037D02*
X713523D01*
X544490Y624500D02*
Y628176D01*
X350520Y430530D02*
X544490Y624500D01*
X350520Y381000D02*
Y430530D01*
X544490Y628176D02*
X545140Y628827D01*
Y712534D01*
X540494Y717180D02*
X545140Y712534D01*
X284480Y472440D02*
X398980Y586940D01*
Y705920D01*
X388620Y716280D02*
X398980Y705920D01*
X228600Y544721D02*
X256540Y572661D01*
X535407Y717180D02*
X540494D01*
X345440Y716280D02*
X388620D01*
X528320D02*
X529098Y717058D01*
X535284D01*
X535407Y717180D01*
X444500Y704850D02*
X466090Y726440D01*
X518160D01*
X439420Y707390D02*
X468630Y736600D01*
X508000D01*
X471170Y746760D02*
X497840D01*
X434340Y709930D02*
X471170Y746760D01*
X400050Y726440D02*
X420370Y706120D01*
X354330Y726440D02*
X400050D01*
X396240Y736600D02*
X425450Y707390D01*
X363220Y736600D02*
X396240D01*
X392430Y746760D02*
X429260Y709930D01*
X372110Y746760D02*
X392430D01*
X316230Y435265D02*
X434340Y553374D01*
X316230Y411818D02*
Y435265D01*
Y411818D02*
X323088Y404960D01*
X340029Y390829D02*
Y391378D01*
X343000Y394349D02*
Y451258D01*
X444500Y552758D01*
X340029Y391378D02*
X343000Y394349D01*
X328345Y422498D02*
Y441991D01*
Y422498D02*
X332740Y418103D01*
X328345Y441991D02*
X439420Y553066D01*
X332740Y397510D02*
Y418103D01*
X323088Y403860D02*
Y404960D01*
X481719Y381881D02*
X518160Y345440D01*
X644328D01*
X663378Y326390D01*
X666750D01*
X429260Y553683D02*
Y709930D01*
X425450Y555261D02*
Y707390D01*
X420370Y555569D02*
Y706120D01*
X228600Y421640D02*
Y544721D01*
Y421640D02*
X233680Y416560D01*
X416560Y386722D02*
X425570Y395732D01*
X407670Y389890D02*
X417322Y399542D01*
X533859D02*
X556211Y377190D01*
X532281Y395732D02*
X576223Y351790D01*
X417322Y399542D02*
X533859D01*
X425570Y395732D02*
X532281D01*
X435999Y381881D02*
X481719D01*
X427990Y389890D02*
X435999Y381881D01*
X350189Y380669D02*
X350520Y381000D01*
X556211Y377190D02*
X666750D01*
X416560Y386080D02*
Y386722D01*
X576223Y351790D02*
X666750D01*
X330887Y254583D02*
X331560Y254090D01*
X331470Y254000D02*
X331560Y254090D01*
X284480Y467692D02*
Y472440D01*
Y467692D02*
X304800Y447372D01*
X298114Y476886D02*
X298241Y477012D01*
X303530Y471170D02*
X304308Y471948D01*
X304800Y436880D02*
Y447372D01*
X309400Y465564D02*
X310178Y466342D01*
X312664D01*
X312920Y466598D01*
X298241Y477012D02*
X341813D01*
X304308Y471948D02*
X342137D01*
X312920Y466598D02*
X342175D01*
X370750Y254000D02*
Y254090D01*
X342137Y471948D02*
X425450Y555261D01*
X342175Y466598D02*
X429260Y553683D01*
X341813Y477012D02*
X420370Y555569D01*
X444500Y552758D02*
Y704850D01*
X439420Y553066D02*
Y707390D01*
X434340Y553374D02*
Y709930D01*
D53*
X404420Y957580D02*
D03*
X439420D02*
D03*
X474420D02*
D03*
X509420D02*
D03*
X544420D02*
D03*
X369420D02*
D03*
X334420D02*
D03*
X299420D02*
D03*
D54*
X579420D02*
D03*
D55*
X417925Y444101D02*
D03*
X353280Y334170D02*
D03*
X367180D02*
D03*
X353280Y320270D02*
D03*
X367180D02*
D03*
X353280Y345970D02*
D03*
X367180D02*
D03*
X353280Y308470D02*
D03*
X367180D02*
D03*
X341480Y334170D02*
D03*
Y320270D02*
D03*
X378980Y334170D02*
D03*
Y320270D02*
D03*
X404540Y444101D02*
D03*
X431287D02*
D03*
X404540Y426294D02*
D03*
X411047Y435198D02*
D03*
X410908Y417391D02*
D03*
X424647D02*
D03*
X425234Y435198D02*
D03*
X417925Y426294D02*
D03*
X431192D02*
D03*
D56*
X666750Y377190D02*
D03*
D57*
X692150D02*
D03*
X666750Y351790D02*
D03*
X692150D02*
D03*
X666750Y326390D02*
D03*
X692150D02*
D03*
X666750Y300990D02*
D03*
X692150D02*
D03*
X666750Y275590D02*
D03*
X692150D02*
D03*
X190570Y295910D02*
D03*
D58*
X553177Y794986D02*
D03*
X563338D02*
D03*
X573498D02*
D03*
X553120Y812574D02*
D03*
Y803684D02*
D03*
X563280Y812574D02*
D03*
Y803684D02*
D03*
X573440D02*
D03*
Y812574D02*
D03*
X586140Y794794D02*
D03*
Y812574D02*
D03*
Y803684D02*
D03*
X595030Y812574D02*
D03*
Y803684D02*
D03*
Y794794D02*
D03*
X605190D02*
D03*
Y803684D02*
D03*
Y812574D02*
D03*
X324520Y816384D02*
D03*
Y807494D02*
D03*
Y798604D02*
D03*
X314360D02*
D03*
Y807494D02*
D03*
Y816384D02*
D03*
X305470Y807494D02*
D03*
Y816384D02*
D03*
Y798604D02*
D03*
X292770Y816384D02*
D03*
Y807494D02*
D03*
X282610D02*
D03*
Y816384D02*
D03*
X272450Y807494D02*
D03*
Y816384D02*
D03*
X292827Y798795D02*
D03*
X282668D02*
D03*
X272507D02*
D03*
D59*
X190570Y346710D02*
D03*
X215970Y308610D02*
D03*
X190570Y321310D02*
D03*
X215970Y334010D02*
D03*
D60*
X127070Y378410D02*
D03*
Y276810D02*
D03*
D61*
X215970Y359410D02*
D03*
D62*
X156210Y668020D02*
D03*
X147320Y765810D02*
D03*
X323850Y904240D02*
D03*
X285750Y902970D02*
D03*
X353060Y842010D02*
D03*
X717550Y626110D02*
D03*
X686125Y629037D02*
D03*
X615230Y629315D02*
D03*
X545140Y628827D02*
D03*
X474455Y629884D02*
D03*
X398980Y629920D02*
D03*
X328024Y630483D02*
D03*
X256540Y631190D02*
D03*
X186690Y632460D02*
D03*
X528320Y716280D02*
D03*
X518160Y726440D02*
D03*
X508000Y736600D02*
D03*
X497840Y746760D02*
D03*
X345440Y716280D02*
D03*
X354330Y726440D02*
D03*
X363220Y736600D02*
D03*
X372110Y746760D02*
D03*
X310660Y410055D02*
D03*
X525779Y804843D02*
D03*
X580390Y892810D02*
D03*
X636270Y908050D02*
D03*
X569843Y758190D02*
D03*
X525780Y768350D02*
D03*
X655320Y685800D02*
D03*
X509270Y674370D02*
D03*
X454660Y675640D02*
D03*
X455735Y658819D02*
D03*
X199390Y688340D02*
D03*
X236220Y689610D02*
D03*
X368300D02*
D03*
X336550D02*
D03*
Y425450D02*
D03*
X323088Y403860D02*
D03*
X566420Y326390D02*
D03*
Y312420D02*
D03*
X449580Y303530D02*
D03*
X592022Y698067D02*
D03*
X485140Y205740D02*
D03*
X585470Y273050D02*
D03*
X483870Y271780D02*
D03*
X533400D02*
D03*
X299720Y901700D02*
D03*
X591820Y712470D02*
D03*
X568960D02*
D03*
X309880Y716280D02*
D03*
X288290D02*
D03*
X475240Y881626D02*
D03*
X561340Y904240D02*
D03*
X241300Y453390D02*
D03*
X232670Y905756D02*
D03*
X412750Y908050D02*
D03*
X646430Y594360D02*
D03*
X222250Y605790D02*
D03*
X363220Y604520D02*
D03*
X509591Y604199D02*
D03*
X683260Y608330D02*
D03*
X457200Y407670D02*
D03*
X529590Y487680D02*
D03*
X421640Y299720D02*
D03*
X350189Y380669D02*
D03*
X340029Y390829D02*
D03*
X233680Y416560D02*
D03*
X204470Y419100D02*
D03*
X298114Y476886D02*
D03*
X303530Y471170D02*
D03*
X304800Y436880D02*
D03*
X309400Y465564D02*
D03*
X332740Y397510D02*
D03*
X407670Y389890D02*
D03*
X427990D02*
D03*
X416560Y386080D02*
D03*
X331560Y254090D02*
D03*
X370750D02*
D03*
X638810Y842010D02*
D03*
X452120Y581660D02*
D03*
X462280Y821690D02*
D03*
X181610Y826770D02*
D03*
X591820Y910590D02*
D03*
X364490Y627380D02*
D03*
X172285Y660593D02*
D03*
X170942Y606282D02*
D03*
X287020Y599440D02*
D03*
X572570Y597924D02*
D03*
X223520Y627380D02*
D03*
X510540Y626110D02*
D03*
X652780D02*
D03*
X597912Y658886D02*
D03*
X312225Y661359D02*
D03*
D63*
X679450Y240030D02*
D03*
Y214630D02*
D03*
D64*
X351572Y528538D02*
D03*
X624096Y515094D02*
D03*
X603994Y535196D02*
D03*
X473184Y527576D02*
D03*
X491524Y509522D02*
D03*
X376138Y529590D02*
D03*
X298450Y511810D02*
D03*
Y535940D02*
D03*
D65*
X172285Y646865D02*
Y660593D01*
Y646865D02*
X186690Y632460D01*
D66*
X615230Y629315D02*
X615764Y629850D01*
Y636556D02*
X616096Y636888D01*
X615764Y629850D02*
Y636556D01*
X616096Y636888D02*
Y640698D01*
X597910Y658884D02*
X616096Y640698D01*
X597910Y658884D02*
X597912Y658886D01*
X474455Y629884D02*
Y640098D01*
X455735Y658819D02*
X474455Y640098D01*
X312225Y646281D02*
X328024Y630483D01*
X312225Y646281D02*
Y661359D01*
M02*
