G04*
G04 #@! TF.GenerationSoftware,Altium Limited,Altium Designer,22.9.1 (49)*
G04*
G04 Layer_Color=12632256*
%FSLAX24Y24*%
%MOIN*%
G70*
G04*
G04 #@! TF.SameCoordinates,6D7A1F5F-4F27-45E7-A4E1-8399A659D1EC*
G04*
G04*
G04 #@! TF.FilePolarity,Positive*
G04*
G01*
G75*
%ADD53C,0.0617*%
%ADD54R,0.0617X0.0617*%
%ADD55C,0.0300*%
%ADD56R,0.0591X0.0591*%
%ADD57C,0.0591*%
%ADD58C,0.0200*%
%ADD59C,0.0551*%
%ADD60C,0.1181*%
%ADD61R,0.0551X0.0551*%
D53*
X15922Y37700D02*
D03*
X17300D02*
D03*
X18678D02*
D03*
X20056D02*
D03*
X21434D02*
D03*
X14544D02*
D03*
X13166D02*
D03*
X11788D02*
D03*
D54*
X22812D02*
D03*
D55*
X16454Y17484D02*
D03*
X13909Y13156D02*
D03*
X14456D02*
D03*
X13909Y12609D02*
D03*
X14456D02*
D03*
X13909Y13621D02*
D03*
X14456D02*
D03*
X13909Y12144D02*
D03*
X14456D02*
D03*
X13444Y13156D02*
D03*
Y12609D02*
D03*
X14920Y13156D02*
D03*
Y12609D02*
D03*
X15927Y17484D02*
D03*
X16980D02*
D03*
X15927Y16783D02*
D03*
X16183Y17134D02*
D03*
X16178Y16433D02*
D03*
X16718D02*
D03*
X16741Y17134D02*
D03*
X16454Y16783D02*
D03*
X16976D02*
D03*
D56*
X26250Y14850D02*
D03*
D57*
X27250D02*
D03*
X26250Y13850D02*
D03*
X27250D02*
D03*
X26250Y12850D02*
D03*
X27250D02*
D03*
X26250Y11850D02*
D03*
X27250D02*
D03*
X26250Y10850D02*
D03*
X27250D02*
D03*
X7503Y11650D02*
D03*
D58*
X21779Y31299D02*
D03*
X22179D02*
D03*
X22579D02*
D03*
X21776Y31991D02*
D03*
Y31641D02*
D03*
X22176Y31991D02*
D03*
Y31641D02*
D03*
X22576D02*
D03*
Y31991D02*
D03*
X23076Y31291D02*
D03*
Y31991D02*
D03*
Y31641D02*
D03*
X23426Y31991D02*
D03*
Y31641D02*
D03*
Y31291D02*
D03*
X23826D02*
D03*
Y31641D02*
D03*
Y31991D02*
D03*
X12776Y32141D02*
D03*
Y31791D02*
D03*
Y31441D02*
D03*
X12376D02*
D03*
Y31791D02*
D03*
Y32141D02*
D03*
X12026Y31791D02*
D03*
Y32141D02*
D03*
Y31441D02*
D03*
X11526Y32141D02*
D03*
Y31791D02*
D03*
X11126D02*
D03*
Y32141D02*
D03*
X10726Y31791D02*
D03*
Y32141D02*
D03*
X11529Y31449D02*
D03*
X11129D02*
D03*
X10729D02*
D03*
D59*
X7503Y13650D02*
D03*
X8503Y12150D02*
D03*
X7503Y12650D02*
D03*
X8503Y13150D02*
D03*
D60*
X5003Y14898D02*
D03*
Y10898D02*
D03*
D61*
X8503Y14150D02*
D03*
M02*
