G04*
G04 #@! TF.GenerationSoftware,Altium Limited,Altium Designer,22.10.1 (41)*
G04*
G04 Layer_Color=2752767*
%FSLAX44Y44*%
%MOMM*%
G71*
G04*
G04 #@! TF.SameCoordinates,5B72B8DF-E24A-41CE-AD84-0836D2D271DA*
G04*
G04*
G04 #@! TF.FilePolarity,Positive*
G04*
G01*
G75*
%ADD79C,0.0508*%
%ADD80C,0.0677*%
%ADD81C,0.0339*%
D79*
X402388Y955548D02*
X403404D01*
X404420Y956564D01*
X405436Y955548D01*
X406452D01*
Y956564D01*
X405436Y957580D01*
X406452Y958596D01*
Y959612D01*
X405436D01*
X404420Y958596D01*
X403404Y959612D01*
X402388D01*
Y958596D01*
X403404Y957580D01*
X402388Y956564D01*
Y955548D01*
X437388D02*
X438404D01*
X439420Y956564D01*
X440436Y955548D01*
X441452D01*
Y956564D01*
X440436Y957580D01*
X441452Y958596D01*
Y959612D01*
X440436D01*
X439420Y958596D01*
X438404Y959612D01*
X437388D01*
Y958596D01*
X438404Y957580D01*
X437388Y956564D01*
Y955548D01*
X472388D02*
X473404D01*
X474420Y956564D01*
X475436Y955548D01*
X476452D01*
Y956564D01*
X475436Y957580D01*
X476452Y958596D01*
Y959612D01*
X475436D01*
X474420Y958596D01*
X473404Y959612D01*
X472388D01*
Y958596D01*
X473404Y957580D01*
X472388Y956564D01*
Y955548D01*
X507388D02*
X508404D01*
X509420Y956564D01*
X510436Y955548D01*
X511452D01*
Y956564D01*
X510436Y957580D01*
X511452Y958596D01*
Y959612D01*
X510436D01*
X509420Y958596D01*
X508404Y959612D01*
X507388D01*
Y958596D01*
X508404Y957580D01*
X507388Y956564D01*
Y955548D01*
X542388D02*
X543404D01*
X544420Y956564D01*
X545436Y955548D01*
X546452D01*
Y956564D01*
X545436Y957580D01*
X546452Y958596D01*
Y959612D01*
X545436D01*
X544420Y958596D01*
X543404Y959612D01*
X542388D01*
Y958596D01*
X543404Y957580D01*
X542388Y956564D01*
Y955548D01*
X577388D02*
X578404D01*
X579420Y956564D01*
X580436Y955548D01*
X581452D01*
Y956564D01*
X580436Y957580D01*
X581452Y958596D01*
Y959612D01*
X580436D01*
X579420Y958596D01*
X578404Y959612D01*
X577388D01*
Y958596D01*
X578404Y957580D01*
X577388Y956564D01*
Y955548D01*
X367388D02*
X368404D01*
X369420Y956564D01*
X370436Y955548D01*
X371452D01*
Y956564D01*
X370436Y957580D01*
X371452Y958596D01*
Y959612D01*
X370436D01*
X369420Y958596D01*
X368404Y959612D01*
X367388D01*
Y958596D01*
X368404Y957580D01*
X367388Y956564D01*
Y955548D01*
X332388D02*
X333404D01*
X334420Y956564D01*
X335436Y955548D01*
X336452D01*
Y956564D01*
X335436Y957580D01*
X336452Y958596D01*
Y959612D01*
X335436D01*
X334420Y958596D01*
X333404Y959612D01*
X332388D01*
Y958596D01*
X333404Y957580D01*
X332388Y956564D01*
Y955548D01*
X297388D02*
X298404D01*
X299420Y956564D01*
X300436Y955548D01*
X301452D01*
Y956564D01*
X300436Y957580D01*
X301452Y958596D01*
Y959612D01*
X300436D01*
X299420Y958596D01*
X298404Y959612D01*
X297388D01*
Y958596D01*
X298404Y957580D01*
X297388Y956564D01*
Y955548D01*
X664718Y375158D02*
Y379222D01*
X668782D01*
Y375158D01*
X664718D01*
X665734Y376174D02*
Y378206D01*
X667766D01*
Y376174D01*
X665734D01*
X690118Y375158D02*
Y379222D01*
X694182D01*
Y375158D01*
X690118D01*
X691134Y376174D02*
Y378206D01*
X693166D01*
Y376174D01*
X691134D01*
X664718Y349758D02*
Y353822D01*
X668782D01*
Y349758D01*
X664718D01*
X665734Y350774D02*
Y352806D01*
X667766D01*
Y350774D01*
X665734D01*
X690118Y349758D02*
Y353822D01*
X694182D01*
Y349758D01*
X690118D01*
X691134Y350774D02*
Y352806D01*
X693166D01*
Y350774D01*
X691134D01*
X664718Y324358D02*
Y328422D01*
X668782D01*
Y324358D01*
X664718D01*
X665734Y325374D02*
Y327406D01*
X667766D01*
Y325374D01*
X665734D01*
X690118Y324358D02*
Y328422D01*
X694182D01*
Y324358D01*
X690118D01*
X691134Y325374D02*
Y327406D01*
X693166D01*
Y325374D01*
X691134D01*
X664718Y298958D02*
Y303022D01*
X668782D01*
Y298958D01*
X664718D01*
X665734Y299974D02*
Y302006D01*
X667766D01*
Y299974D01*
X665734D01*
X690118Y298958D02*
Y303022D01*
X694182D01*
Y298958D01*
X690118D01*
X691134Y299974D02*
Y302006D01*
X693166D01*
Y299974D01*
X691134D01*
X664718Y273558D02*
Y277622D01*
X668782D01*
Y273558D01*
X664718D01*
X665734Y274574D02*
Y276606D01*
X667766D01*
Y274574D01*
X665734D01*
X690118Y273558D02*
Y277622D01*
X694182D01*
Y273558D01*
X690118D01*
X691134Y274574D02*
Y276606D01*
X693166D01*
Y274574D01*
X691134D01*
X551146Y794986D02*
X553177Y797018D01*
X555210Y794986D01*
X553177Y792953D01*
X551146Y794986D01*
X561306D02*
X563338Y797018D01*
X565369Y794986D01*
X563338Y792953D01*
X561306Y794986D01*
X571465D02*
X573498Y797018D01*
X575530Y794986D01*
X573498Y792953D01*
X571465Y794986D01*
X551088Y812574D02*
X553120Y814606D01*
X555152Y812574D01*
X553120Y810542D01*
X551088Y812574D01*
Y803684D02*
X553120Y805716D01*
X555152Y803684D01*
X553120Y801652D01*
X551088Y803684D01*
X561248Y812574D02*
X563280Y814606D01*
X565312Y812574D01*
X563280Y810542D01*
X561248Y812574D01*
Y803684D02*
X563280Y805716D01*
X565312Y803684D01*
X563280Y801652D01*
X561248Y803684D01*
X571408D02*
X573440Y805716D01*
X575472Y803684D01*
X573440Y801652D01*
X571408Y803684D01*
Y812574D02*
X573440Y814606D01*
X575472Y812574D01*
X573440Y810542D01*
X571408Y812574D01*
X584108Y794794D02*
X586140Y796826D01*
X588172Y794794D01*
X586140Y792762D01*
X584108Y794794D01*
Y812574D02*
X586140Y814606D01*
X588172Y812574D01*
X586140Y810542D01*
X584108Y812574D01*
Y803684D02*
X586140Y805716D01*
X588172Y803684D01*
X586140Y801652D01*
X584108Y803684D01*
X592998Y812574D02*
X595030Y814606D01*
X597062Y812574D01*
X595030Y810542D01*
X592998Y812574D01*
Y803684D02*
X595030Y805716D01*
X597062Y803684D01*
X595030Y801652D01*
X592998Y803684D01*
Y794794D02*
X595030Y796826D01*
X597062Y794794D01*
X595030Y792762D01*
X592998Y794794D01*
X603158D02*
X605190Y796826D01*
X607222Y794794D01*
X605190Y792762D01*
X603158Y794794D01*
Y803684D02*
X605190Y805716D01*
X607222Y803684D01*
X605190Y801652D01*
X603158Y803684D01*
Y812574D02*
X605190Y814606D01*
X607222Y812574D01*
X605190Y810542D01*
X603158Y812574D01*
X190570Y344678D02*
X191586Y345694D01*
X192602D01*
X191586Y346710D01*
X192602Y347726D01*
X191586D01*
X190570Y348742D01*
X189554Y347726D01*
X188538D01*
X189554Y346710D01*
X188538Y345694D01*
X189554D01*
X190570Y344678D01*
X322488Y816384D02*
X324520Y818416D01*
X326552Y816384D01*
X324520Y814352D01*
X322488Y816384D01*
Y807494D02*
X324520Y809526D01*
X326552Y807494D01*
X324520Y805462D01*
X322488Y807494D01*
Y798604D02*
X324520Y800636D01*
X326552Y798604D01*
X324520Y796572D01*
X322488Y798604D01*
X312328D02*
X314360Y800636D01*
X316392Y798604D01*
X314360Y796572D01*
X312328Y798604D01*
Y807494D02*
X314360Y809526D01*
X316392Y807494D01*
X314360Y805462D01*
X312328Y807494D01*
Y816384D02*
X314360Y818416D01*
X316392Y816384D01*
X314360Y814352D01*
X312328Y816384D01*
X303438Y807494D02*
X305470Y809526D01*
X307502Y807494D01*
X305470Y805462D01*
X303438Y807494D01*
Y816384D02*
X305470Y818416D01*
X307502Y816384D01*
X305470Y814352D01*
X303438Y816384D01*
Y798604D02*
X305470Y800636D01*
X307502Y798604D01*
X305470Y796572D01*
X303438Y798604D01*
X290738Y816384D02*
X292770Y818416D01*
X294802Y816384D01*
X292770Y814352D01*
X290738Y816384D01*
Y807494D02*
X292770Y809526D01*
X294802Y807494D01*
X292770Y805462D01*
X290738Y807494D01*
X280578D02*
X282610Y809526D01*
X284642Y807494D01*
X282610Y805462D01*
X280578Y807494D01*
Y816384D02*
X282610Y818416D01*
X284642Y816384D01*
X282610Y814352D01*
X280578Y816384D01*
X270418Y807494D02*
X272450Y809526D01*
X274482Y807494D01*
X272450Y805462D01*
X270418Y807494D01*
Y816384D02*
X272450Y818416D01*
X274482Y816384D01*
X272450Y814352D01*
X270418Y816384D01*
X290795Y798795D02*
X292827Y800827D01*
X294860Y798795D01*
X292827Y796764D01*
X290795Y798795D01*
X280636D02*
X282668Y800827D01*
X284699Y798795D01*
X282668Y796764D01*
X280636Y798795D01*
X270476D02*
X272507Y800827D01*
X274540Y798795D01*
X272507Y796764D01*
X270476Y798795D01*
X190570Y293878D02*
X188538Y297942D01*
X192602D01*
X190570Y293878D01*
X215970Y306578D02*
X216986Y307594D01*
X218002D01*
X216986Y308610D01*
X218002Y309626D01*
X216986D01*
X215970Y310642D01*
X214954Y309626D01*
X213938D01*
X214954Y308610D01*
X213938Y307594D01*
X214954D01*
X215970Y306578D01*
X190570Y319278D02*
X191586Y320294D01*
X192602D01*
X191586Y321310D01*
X192602Y322326D01*
X191586D01*
X190570Y323342D01*
X189554Y322326D01*
X188538D01*
X189554Y321310D01*
X188538Y320294D01*
X189554D01*
X190570Y319278D01*
X215970Y331978D02*
X216986Y332994D01*
X218002D01*
X216986Y334010D01*
X218002Y335026D01*
X216986D01*
X215970Y336042D01*
X214954Y335026D01*
X213938D01*
X214954Y334010D01*
X213938Y332994D01*
X214954D01*
X215970Y331978D01*
Y357378D02*
X216986Y358394D01*
X218002D01*
X216986Y359410D01*
X218002Y360426D01*
X216986D01*
X215970Y361442D01*
X214954Y360426D01*
X213938D01*
X214954Y359410D01*
X213938Y358394D01*
X214954D01*
X215970Y357378D01*
X155194Y667004D02*
Y665988D01*
X157226D01*
Y667004D01*
X158242D01*
Y669036D01*
X157226D01*
Y670052D01*
X155194D01*
Y669036D01*
X154178D01*
Y667004D01*
X155194D01*
X146304Y764794D02*
Y763778D01*
X148336D01*
Y764794D01*
X149352D01*
Y766826D01*
X148336D01*
Y767842D01*
X146304D01*
Y766826D01*
X145288D01*
Y764794D01*
X146304D01*
X322834Y903224D02*
Y902208D01*
X324866D01*
Y903224D01*
X325882D01*
Y905256D01*
X324866D01*
Y906272D01*
X322834D01*
Y905256D01*
X321818D01*
Y903224D01*
X322834D01*
X284734Y901954D02*
Y900938D01*
X286766D01*
Y901954D01*
X287782D01*
Y903986D01*
X286766D01*
Y905002D01*
X284734D01*
Y903986D01*
X283718D01*
Y901954D01*
X284734D01*
X352044Y840994D02*
Y839978D01*
X354076D01*
Y840994D01*
X355092D01*
Y843026D01*
X354076D01*
Y844042D01*
X352044D01*
Y843026D01*
X351028D01*
Y840994D01*
X352044D01*
X716534Y625094D02*
Y624078D01*
X718566D01*
Y625094D01*
X719582D01*
Y627126D01*
X718566D01*
Y628142D01*
X716534D01*
Y627126D01*
X715518D01*
Y625094D01*
X716534D01*
X685109Y628021D02*
Y627005D01*
X687141D01*
Y628021D01*
X688157D01*
Y630053D01*
X687141D01*
Y631069D01*
X685109D01*
Y630053D01*
X684093D01*
Y628021D01*
X685109D01*
X614214Y628299D02*
Y627283D01*
X616246D01*
Y628299D01*
X617262D01*
Y630331D01*
X616246D01*
Y631347D01*
X614214D01*
Y630331D01*
X613198D01*
Y628299D01*
X614214D01*
X544124Y627811D02*
Y626795D01*
X546157D01*
Y627811D01*
X547173D01*
Y629843D01*
X546157D01*
Y630859D01*
X544124D01*
Y629843D01*
X543108D01*
Y627811D01*
X544124D01*
X473439Y628868D02*
Y627852D01*
X475471D01*
Y628868D01*
X476487D01*
Y630900D01*
X475471D01*
Y631916D01*
X473439D01*
Y630900D01*
X472423D01*
Y628868D01*
X473439D01*
X397964Y628904D02*
Y627888D01*
X399996D01*
Y628904D01*
X401012D01*
Y630936D01*
X399996D01*
Y631952D01*
X397964D01*
Y630936D01*
X396948D01*
Y628904D01*
X397964D01*
X327008Y629467D02*
Y628451D01*
X329040D01*
Y629467D01*
X330056D01*
Y631499D01*
X329040D01*
Y632515D01*
X327008D01*
Y631499D01*
X325992D01*
Y629467D01*
X327008D01*
X255524Y630174D02*
Y629158D01*
X257556D01*
Y630174D01*
X258572D01*
Y632206D01*
X257556D01*
Y633222D01*
X255524D01*
Y632206D01*
X254508D01*
Y630174D01*
X255524D01*
X185674Y631444D02*
Y630428D01*
X187706D01*
Y631444D01*
X188722D01*
Y633476D01*
X187706D01*
Y634492D01*
X185674D01*
Y633476D01*
X184658D01*
Y631444D01*
X185674D01*
X527304Y715264D02*
Y714248D01*
X529336D01*
Y715264D01*
X530352D01*
Y717296D01*
X529336D01*
Y718312D01*
X527304D01*
Y717296D01*
X526288D01*
Y715264D01*
X527304D01*
X517144Y725424D02*
Y724408D01*
X519176D01*
Y725424D01*
X520192D01*
Y727456D01*
X519176D01*
Y728472D01*
X517144D01*
Y727456D01*
X516128D01*
Y725424D01*
X517144D01*
X506984Y735584D02*
Y734568D01*
X509016D01*
Y735584D01*
X510032D01*
Y737616D01*
X509016D01*
Y738632D01*
X506984D01*
Y737616D01*
X505968D01*
Y735584D01*
X506984D01*
X496824Y745744D02*
Y744728D01*
X498856D01*
Y745744D01*
X499872D01*
Y747776D01*
X498856D01*
Y748792D01*
X496824D01*
Y747776D01*
X495808D01*
Y745744D01*
X496824D01*
X344424Y715264D02*
Y714248D01*
X346456D01*
Y715264D01*
X347472D01*
Y717296D01*
X346456D01*
Y718312D01*
X344424D01*
Y717296D01*
X343408D01*
Y715264D01*
X344424D01*
X353314Y725424D02*
Y724408D01*
X355346D01*
Y725424D01*
X356362D01*
Y727456D01*
X355346D01*
Y728472D01*
X353314D01*
Y727456D01*
X352298D01*
Y725424D01*
X353314D01*
X362204Y735584D02*
Y734568D01*
X364236D01*
Y735584D01*
X365252D01*
Y737616D01*
X364236D01*
Y738632D01*
X362204D01*
Y737616D01*
X361188D01*
Y735584D01*
X362204D01*
X371094Y745744D02*
Y744728D01*
X373126D01*
Y745744D01*
X374142D01*
Y747776D01*
X373126D01*
Y748792D01*
X371094D01*
Y747776D01*
X370078D01*
Y745744D01*
X371094D01*
X309644Y409039D02*
Y408023D01*
X311676D01*
Y409039D01*
X312692D01*
Y411071D01*
X311676D01*
Y412087D01*
X309644D01*
Y411071D01*
X308628D01*
Y409039D01*
X309644D01*
X524763Y803827D02*
Y802811D01*
X526795D01*
Y803827D01*
X527811D01*
Y805859D01*
X526795D01*
Y806875D01*
X524763D01*
Y805859D01*
X523747D01*
Y803827D01*
X524763D01*
X579374Y891794D02*
Y890778D01*
X581406D01*
Y891794D01*
X582422D01*
Y893826D01*
X581406D01*
Y894842D01*
X579374D01*
Y893826D01*
X578358D01*
Y891794D01*
X579374D01*
X635254Y907034D02*
Y906018D01*
X637286D01*
Y907034D01*
X638302D01*
Y909066D01*
X637286D01*
Y910082D01*
X635254D01*
Y909066D01*
X634238D01*
Y907034D01*
X635254D01*
X568827Y757174D02*
Y756158D01*
X570859D01*
Y757174D01*
X571875D01*
Y759206D01*
X570859D01*
Y760222D01*
X568827D01*
Y759206D01*
X567811D01*
Y757174D01*
X568827D01*
X524764Y767334D02*
Y766318D01*
X526796D01*
Y767334D01*
X527812D01*
Y769366D01*
X526796D01*
Y770382D01*
X524764D01*
Y769366D01*
X523748D01*
Y767334D01*
X524764D01*
X654304Y684784D02*
Y683768D01*
X656336D01*
Y684784D01*
X657352D01*
Y686816D01*
X656336D01*
Y687832D01*
X654304D01*
Y686816D01*
X653288D01*
Y684784D01*
X654304D01*
X508254Y673354D02*
Y672338D01*
X510286D01*
Y673354D01*
X511302D01*
Y675386D01*
X510286D01*
Y676402D01*
X508254D01*
Y675386D01*
X507238D01*
Y673354D01*
X508254D01*
X453644Y674624D02*
Y673608D01*
X455676D01*
Y674624D01*
X456692D01*
Y676656D01*
X455676D01*
Y677672D01*
X453644D01*
Y676656D01*
X452628D01*
Y674624D01*
X453644D01*
X454719Y657803D02*
Y656787D01*
X456751D01*
Y657803D01*
X457767D01*
Y659835D01*
X456751D01*
Y660851D01*
X454719D01*
Y659835D01*
X453703D01*
Y657803D01*
X454719D01*
X198374Y687324D02*
Y686308D01*
X200406D01*
Y687324D01*
X201422D01*
Y689356D01*
X200406D01*
Y690372D01*
X198374D01*
Y689356D01*
X197358D01*
Y687324D01*
X198374D01*
X235204Y688594D02*
Y687578D01*
X237236D01*
Y688594D01*
X238252D01*
Y690626D01*
X237236D01*
Y691642D01*
X235204D01*
Y690626D01*
X234188D01*
Y688594D01*
X235204D01*
X367284D02*
Y687578D01*
X369316D01*
Y688594D01*
X370332D01*
Y690626D01*
X369316D01*
Y691642D01*
X367284D01*
Y690626D01*
X366268D01*
Y688594D01*
X367284D01*
X335534D02*
Y687578D01*
X337566D01*
Y688594D01*
X338582D01*
Y690626D01*
X337566D01*
Y691642D01*
X335534D01*
Y690626D01*
X334518D01*
Y688594D01*
X335534D01*
Y424434D02*
Y423418D01*
X337566D01*
Y424434D01*
X338582D01*
Y426466D01*
X337566D01*
Y427482D01*
X335534D01*
Y426466D01*
X334518D01*
Y424434D01*
X335534D01*
X322072Y402844D02*
Y401828D01*
X324104D01*
Y402844D01*
X325120D01*
Y404876D01*
X324104D01*
Y405892D01*
X322072D01*
Y404876D01*
X321056D01*
Y402844D01*
X322072D01*
X565404Y325374D02*
Y324358D01*
X567436D01*
Y325374D01*
X568452D01*
Y327406D01*
X567436D01*
Y328422D01*
X565404D01*
Y327406D01*
X564388D01*
Y325374D01*
X565404D01*
Y311404D02*
Y310388D01*
X567436D01*
Y311404D01*
X568452D01*
Y313436D01*
X567436D01*
Y314452D01*
X565404D01*
Y313436D01*
X564388D01*
Y311404D01*
X565404D01*
X448564Y302514D02*
Y301498D01*
X450596D01*
Y302514D01*
X451612D01*
Y304546D01*
X450596D01*
Y305562D01*
X448564D01*
Y304546D01*
X447548D01*
Y302514D01*
X448564D01*
X591006Y697051D02*
Y696035D01*
X593038D01*
Y697051D01*
X594054D01*
Y699083D01*
X593038D01*
Y700099D01*
X591006D01*
Y699083D01*
X589990D01*
Y697051D01*
X591006D01*
X679450Y237998D02*
X680466Y239014D01*
X681482D01*
X680466Y240030D01*
X681482Y241046D01*
X680466D01*
X679450Y242062D01*
X678434Y241046D01*
X677418D01*
X678434Y240030D01*
X677418Y239014D01*
X678434D01*
X679450Y237998D01*
Y239014D02*
X679958Y239522D01*
X680466D01*
X679958Y240030D01*
X680466Y240538D01*
X679958D01*
X679450Y241046D01*
X678942Y240538D01*
X678434D01*
X678942Y240030D01*
X678434Y239522D01*
X678942D01*
X679450Y239014D01*
Y212598D02*
X680466Y213614D01*
X681482D01*
X680466Y214630D01*
X681482Y215646D01*
X680466D01*
X679450Y216662D01*
X678434Y215646D01*
X677418D01*
X678434Y214630D01*
X677418Y213614D01*
X678434D01*
X679450Y212598D01*
Y213614D02*
X679958Y214122D01*
X680466D01*
X679958Y214630D01*
X680466Y215138D01*
X679958D01*
X679450Y215646D01*
X678942Y215138D01*
X678434D01*
X678942Y214630D01*
X678434Y214122D01*
X678942D01*
X679450Y213614D01*
X484124Y204724D02*
Y203708D01*
X486156D01*
Y204724D01*
X487172D01*
Y206756D01*
X486156D01*
Y207772D01*
X484124D01*
Y206756D01*
X483108D01*
Y204724D01*
X484124D01*
X584454Y272034D02*
Y271018D01*
X586486D01*
Y272034D01*
X587502D01*
Y274066D01*
X586486D01*
Y275082D01*
X584454D01*
Y274066D01*
X583438D01*
Y272034D01*
X584454D01*
X482854Y270764D02*
Y269748D01*
X484886D01*
Y270764D01*
X485902D01*
Y272796D01*
X484886D01*
Y273812D01*
X482854D01*
Y272796D01*
X481838D01*
Y270764D01*
X482854D01*
X532384D02*
Y269748D01*
X534416D01*
Y270764D01*
X535432D01*
Y272796D01*
X534416D01*
Y273812D01*
X532384D01*
Y272796D01*
X531368D01*
Y270764D01*
X532384D01*
X349540Y526506D02*
X350556Y528538D01*
X349540Y530570D01*
X351572Y529554D01*
X353604Y530570D01*
X352588Y528538D01*
X353604Y526506D01*
X351572Y527522D01*
X349540Y526506D01*
X622064Y513062D02*
X623080Y515094D01*
X622064Y517126D01*
X624096Y516110D01*
X626128Y517126D01*
X625112Y515094D01*
X626128Y513062D01*
X624096Y514078D01*
X622064Y513062D01*
X601962Y533164D02*
X602978Y535196D01*
X601962Y537228D01*
X603994Y536212D01*
X606026Y537228D01*
X605010Y535196D01*
X606026Y533164D01*
X603994Y534180D01*
X601962Y533164D01*
X471152Y525544D02*
X472168Y527576D01*
X471152Y529608D01*
X473184Y528592D01*
X475216Y529608D01*
X474200Y527576D01*
X475216Y525544D01*
X473184Y526560D01*
X471152Y525544D01*
X489492Y507490D02*
X490508Y509522D01*
X489492Y511554D01*
X491524Y510538D01*
X493556Y511554D01*
X492540Y509522D01*
X493556Y507490D01*
X491524Y508506D01*
X489492Y507490D01*
X374106Y527558D02*
X375122Y529590D01*
X374106Y531622D01*
X376138Y530606D01*
X378170Y531622D01*
X377154Y529590D01*
X378170Y527558D01*
X376138Y528574D01*
X374106Y527558D01*
X296418Y509778D02*
X297434Y511810D01*
X296418Y513842D01*
X298450Y512826D01*
X300482Y513842D01*
X299466Y511810D01*
X300482Y509778D01*
X298450Y510794D01*
X296418Y509778D01*
Y533908D02*
X297434Y535940D01*
X296418Y537972D01*
X298450Y536956D01*
X300482Y537972D01*
X299466Y535940D01*
X300482Y533908D01*
X298450Y534924D01*
X296418Y533908D01*
X298704Y900684D02*
Y899668D01*
X300736D01*
Y900684D01*
X301752D01*
Y902716D01*
X300736D01*
Y903732D01*
X298704D01*
Y902716D01*
X297688D01*
Y900684D01*
X298704D01*
X590804Y711454D02*
Y710438D01*
X592836D01*
Y711454D01*
X593852D01*
Y713486D01*
X592836D01*
Y714502D01*
X590804D01*
Y713486D01*
X589788D01*
Y711454D01*
X590804D01*
X567944D02*
Y710438D01*
X569976D01*
Y711454D01*
X570992D01*
Y713486D01*
X569976D01*
Y714502D01*
X567944D01*
Y713486D01*
X566928D01*
Y711454D01*
X567944D01*
X308864Y715264D02*
Y714248D01*
X310896D01*
Y715264D01*
X311912D01*
Y717296D01*
X310896D01*
Y718312D01*
X308864D01*
Y717296D01*
X307848D01*
Y715264D01*
X308864D01*
X287274D02*
Y714248D01*
X289306D01*
Y715264D01*
X290322D01*
Y717296D01*
X289306D01*
Y718312D01*
X287274D01*
Y717296D01*
X286258D01*
Y715264D01*
X287274D01*
X474224Y880610D02*
Y879594D01*
X476256D01*
Y880610D01*
X477272D01*
Y882642D01*
X476256D01*
Y883658D01*
X474224D01*
Y882642D01*
X473208D01*
Y880610D01*
X474224D01*
X560324Y903224D02*
Y902208D01*
X562356D01*
Y903224D01*
X563372D01*
Y905256D01*
X562356D01*
Y906272D01*
X560324D01*
Y905256D01*
X559308D01*
Y903224D01*
X560324D01*
X240284Y452374D02*
Y451358D01*
X242316D01*
Y452374D01*
X243332D01*
Y454406D01*
X242316D01*
Y455422D01*
X240284D01*
Y454406D01*
X239268D01*
Y452374D01*
X240284D01*
X231654Y904740D02*
Y903724D01*
X233686D01*
Y904740D01*
X234702D01*
Y906772D01*
X233686D01*
Y907788D01*
X231654D01*
Y906772D01*
X230638D01*
Y904740D01*
X231654D01*
X411734Y907034D02*
Y906018D01*
X413766D01*
Y907034D01*
X414782D01*
Y909066D01*
X413766D01*
Y910082D01*
X411734D01*
Y909066D01*
X410718D01*
Y907034D01*
X411734D01*
X645414Y593344D02*
Y592328D01*
X647446D01*
Y593344D01*
X648462D01*
Y595376D01*
X647446D01*
Y596392D01*
X645414D01*
Y595376D01*
X644398D01*
Y593344D01*
X645414D01*
X221234Y604774D02*
Y603758D01*
X223266D01*
Y604774D01*
X224282D01*
Y606806D01*
X223266D01*
Y607822D01*
X221234D01*
Y606806D01*
X220218D01*
Y604774D01*
X221234D01*
X362204Y603504D02*
Y602488D01*
X364236D01*
Y603504D01*
X365252D01*
Y605536D01*
X364236D01*
Y606552D01*
X362204D01*
Y605536D01*
X361188D01*
Y603504D01*
X362204D01*
X508575Y603183D02*
Y602167D01*
X510607D01*
Y603183D01*
X511623D01*
Y605215D01*
X510607D01*
Y606231D01*
X508575D01*
Y605215D01*
X507559D01*
Y603183D01*
X508575D01*
X682244Y607314D02*
Y606298D01*
X684276D01*
Y607314D01*
X685292D01*
Y609346D01*
X684276D01*
Y610362D01*
X682244D01*
Y609346D01*
X681228D01*
Y607314D01*
X682244D01*
X456184Y406654D02*
Y405638D01*
X458216D01*
Y406654D01*
X459232D01*
Y408686D01*
X458216D01*
Y409702D01*
X456184D01*
Y408686D01*
X455168D01*
Y406654D01*
X456184D01*
X528574Y486664D02*
Y485648D01*
X530606D01*
Y486664D01*
X531622D01*
Y488696D01*
X530606D01*
Y489712D01*
X528574D01*
Y488696D01*
X527558D01*
Y486664D01*
X528574D01*
X420624Y298704D02*
Y297688D01*
X422656D01*
Y298704D01*
X423672D01*
Y300736D01*
X422656D01*
Y301752D01*
X420624D01*
Y300736D01*
X419608D01*
Y298704D01*
X420624D01*
X349173Y379653D02*
Y378637D01*
X351205D01*
Y379653D01*
X352221D01*
Y381685D01*
X351205D01*
Y382701D01*
X349173D01*
Y381685D01*
X348157D01*
Y379653D01*
X349173D01*
X339013Y389813D02*
Y388797D01*
X341045D01*
Y389813D01*
X342061D01*
Y391845D01*
X341045D01*
Y392861D01*
X339013D01*
Y391845D01*
X337997D01*
Y389813D01*
X339013D01*
X232664Y415544D02*
Y414528D01*
X234696D01*
Y415544D01*
X235712D01*
Y417576D01*
X234696D01*
Y418592D01*
X232664D01*
Y417576D01*
X231648D01*
Y415544D01*
X232664D01*
X203454Y418084D02*
Y417068D01*
X205486D01*
Y418084D01*
X206502D01*
Y420116D01*
X205486D01*
Y421132D01*
X203454D01*
Y420116D01*
X202438D01*
Y418084D01*
X203454D01*
X297098Y475870D02*
Y474854D01*
X299130D01*
Y475870D01*
X300146D01*
Y477902D01*
X299130D01*
Y478918D01*
X297098D01*
Y477902D01*
X296082D01*
Y475870D01*
X297098D01*
X302514Y470154D02*
Y469138D01*
X304546D01*
Y470154D01*
X305562D01*
Y472186D01*
X304546D01*
Y473202D01*
X302514D01*
Y472186D01*
X301498D01*
Y470154D01*
X302514D01*
X303784Y435864D02*
Y434848D01*
X305816D01*
Y435864D01*
X306832D01*
Y437896D01*
X305816D01*
Y438912D01*
X303784D01*
Y437896D01*
X302768D01*
Y435864D01*
X303784D01*
X308384Y464548D02*
Y463532D01*
X310416D01*
Y464548D01*
X311432D01*
Y466580D01*
X310416D01*
Y467596D01*
X308384D01*
Y466580D01*
X307368D01*
Y464548D01*
X308384D01*
X331724Y396494D02*
Y395478D01*
X333756D01*
Y396494D01*
X334772D01*
Y398526D01*
X333756D01*
Y399542D01*
X331724D01*
Y398526D01*
X330708D01*
Y396494D01*
X331724D01*
X406654Y388874D02*
Y387858D01*
X408686D01*
Y388874D01*
X409702D01*
Y390906D01*
X408686D01*
Y391922D01*
X406654D01*
Y390906D01*
X405638D01*
Y388874D01*
X406654D01*
X426974D02*
Y387858D01*
X429006D01*
Y388874D01*
X430022D01*
Y390906D01*
X429006D01*
Y391922D01*
X426974D01*
Y390906D01*
X425958D01*
Y388874D01*
X426974D01*
X415544Y385064D02*
Y384048D01*
X417576D01*
Y385064D01*
X418592D01*
Y387096D01*
X417576D01*
Y388112D01*
X415544D01*
Y387096D01*
X414528D01*
Y385064D01*
X415544D01*
X330544Y253074D02*
Y252058D01*
X332576D01*
Y253074D01*
X333592D01*
Y255106D01*
X332576D01*
Y256122D01*
X330544D01*
Y255106D01*
X329528D01*
Y253074D01*
X330544D01*
X369734D02*
Y252058D01*
X371766D01*
Y253074D01*
X372782D01*
Y255106D01*
X371766D01*
Y256122D01*
X369734D01*
Y255106D01*
X368718D01*
Y253074D01*
X369734D01*
X637794Y840994D02*
Y839978D01*
X639826D01*
Y840994D01*
X640842D01*
Y843026D01*
X639826D01*
Y844042D01*
X637794D01*
Y843026D01*
X636778D01*
Y840994D01*
X637794D01*
X451104Y580644D02*
Y579628D01*
X453136D01*
Y580644D01*
X454152D01*
Y582676D01*
X453136D01*
Y583692D01*
X451104D01*
Y582676D01*
X450088D01*
Y580644D01*
X451104D01*
X461264Y820674D02*
Y819658D01*
X463296D01*
Y820674D01*
X464312D01*
Y822706D01*
X463296D01*
Y823722D01*
X461264D01*
Y822706D01*
X460248D01*
Y820674D01*
X461264D01*
X180594Y825754D02*
Y824738D01*
X182626D01*
Y825754D01*
X183642D01*
Y827786D01*
X182626D01*
Y828802D01*
X180594D01*
Y827786D01*
X179578D01*
Y825754D01*
X180594D01*
X590804Y909574D02*
Y908558D01*
X592836D01*
Y909574D01*
X593852D01*
Y911606D01*
X592836D01*
Y912622D01*
X590804D01*
Y911606D01*
X589788D01*
Y909574D01*
X590804D01*
X363474Y626364D02*
Y625348D01*
X365506D01*
Y626364D01*
X366522D01*
Y628396D01*
X365506D01*
Y629412D01*
X363474D01*
Y628396D01*
X362458D01*
Y626364D01*
X363474D01*
X171269Y659577D02*
Y658561D01*
X173301D01*
Y659577D01*
X174317D01*
Y661609D01*
X173301D01*
Y662625D01*
X171269D01*
Y661609D01*
X170253D01*
Y659577D01*
X171269D01*
X169926Y605266D02*
Y604250D01*
X171958D01*
Y605266D01*
X172974D01*
Y607298D01*
X171958D01*
Y608314D01*
X169926D01*
Y607298D01*
X168910D01*
Y605266D01*
X169926D01*
X286004Y598424D02*
Y597408D01*
X288036D01*
Y598424D01*
X289052D01*
Y600456D01*
X288036D01*
Y601472D01*
X286004D01*
Y600456D01*
X284988D01*
Y598424D01*
X286004D01*
X571554Y596908D02*
Y595892D01*
X573586D01*
Y596908D01*
X574602D01*
Y598940D01*
X573586D01*
Y599956D01*
X571554D01*
Y598940D01*
X570538D01*
Y596908D01*
X571554D01*
X222504Y626364D02*
Y625348D01*
X224536D01*
Y626364D01*
X225552D01*
Y628396D01*
X224536D01*
Y629412D01*
X222504D01*
Y628396D01*
X221488D01*
Y626364D01*
X222504D01*
X509524Y625094D02*
Y624078D01*
X511556D01*
Y625094D01*
X512572D01*
Y627126D01*
X511556D01*
Y628142D01*
X509524D01*
Y627126D01*
X508508D01*
Y625094D01*
X509524D01*
X651764D02*
Y624078D01*
X653796D01*
Y625094D01*
X654812D01*
Y627126D01*
X653796D01*
Y628142D01*
X651764D01*
Y627126D01*
X650748D01*
Y625094D01*
X651764D01*
X596896Y657870D02*
Y656854D01*
X598928D01*
Y657870D01*
X599944D01*
Y659902D01*
X598928D01*
Y660918D01*
X596896D01*
Y659902D01*
X595880D01*
Y657870D01*
X596896D01*
X311209Y660343D02*
Y659327D01*
X313241D01*
Y660343D01*
X314257D01*
Y662375D01*
X313241D01*
Y663391D01*
X311209D01*
Y662375D01*
X310193D01*
Y660343D01*
X311209D01*
D80*
X419957Y444101D02*
G03*
X419957Y444101I-2032J0D01*
G01*
X355312Y334170D02*
G03*
X355312Y334170I-2032J0D01*
G01*
X369212D02*
G03*
X369212Y334170I-2032J0D01*
G01*
X355312Y320270D02*
G03*
X355312Y320270I-2032J0D01*
G01*
X369212D02*
G03*
X369212Y320270I-2032J0D01*
G01*
X355312Y345970D02*
G03*
X355312Y345970I-2032J0D01*
G01*
X369212D02*
G03*
X369212Y345970I-2032J0D01*
G01*
X355312Y308470D02*
G03*
X355312Y308470I-2032J0D01*
G01*
X369212D02*
G03*
X369212Y308470I-2032J0D01*
G01*
X343512Y334170D02*
G03*
X343512Y334170I-2032J0D01*
G01*
Y320270D02*
G03*
X343512Y320270I-2032J0D01*
G01*
X381012Y334170D02*
G03*
X381012Y334170I-2032J0D01*
G01*
Y320270D02*
G03*
X381012Y320270I-2032J0D01*
G01*
X406572Y444101D02*
G03*
X406572Y444101I-2032J0D01*
G01*
X433319D02*
G03*
X433319Y444101I-2032J0D01*
G01*
X406572Y426294D02*
G03*
X406572Y426294I-2032J0D01*
G01*
X413079Y435198D02*
G03*
X413079Y435198I-2032J0D01*
G01*
X412940Y417391D02*
G03*
X412940Y417391I-2032J0D01*
G01*
X426679D02*
G03*
X426679Y417391I-2032J0D01*
G01*
X427266Y435198D02*
G03*
X427266Y435198I-2032J0D01*
G01*
X419958Y426294D02*
G03*
X419958Y426294I-2032J0D01*
G01*
X433224D02*
G03*
X433224Y426294I-2032J0D01*
G01*
X129102Y378410D02*
G03*
X129102Y378410I-2032J0D01*
G01*
Y276810D02*
G03*
X129102Y276810I-2032J0D01*
G01*
D81*
X418941Y444101D02*
G03*
X418941Y444101I-1016J0D01*
G01*
X354296Y334170D02*
G03*
X354296Y334170I-1016J0D01*
G01*
X368196D02*
G03*
X368196Y334170I-1016J0D01*
G01*
X354296Y320270D02*
G03*
X354296Y320270I-1016J0D01*
G01*
X368196D02*
G03*
X368196Y320270I-1016J0D01*
G01*
X354296Y345970D02*
G03*
X354296Y345970I-1016J0D01*
G01*
X368196D02*
G03*
X368196Y345970I-1016J0D01*
G01*
X354296Y308470D02*
G03*
X354296Y308470I-1016J0D01*
G01*
X368196D02*
G03*
X368196Y308470I-1016J0D01*
G01*
X342496Y334170D02*
G03*
X342496Y334170I-1016J0D01*
G01*
Y320270D02*
G03*
X342496Y320270I-1016J0D01*
G01*
X379996Y334170D02*
G03*
X379996Y334170I-1016J0D01*
G01*
Y320270D02*
G03*
X379996Y320270I-1016J0D01*
G01*
X405556Y444101D02*
G03*
X405556Y444101I-1016J0D01*
G01*
X432303D02*
G03*
X432303Y444101I-1016J0D01*
G01*
X405556Y426294D02*
G03*
X405556Y426294I-1016J0D01*
G01*
X412063Y435198D02*
G03*
X412063Y435198I-1016J0D01*
G01*
X411924Y417391D02*
G03*
X411924Y417391I-1016J0D01*
G01*
X425663D02*
G03*
X425663Y417391I-1016J0D01*
G01*
X426250Y435198D02*
G03*
X426250Y435198I-1016J0D01*
G01*
X418941Y426294D02*
G03*
X418941Y426294I-1016J0D01*
G01*
X432208D02*
G03*
X432208Y426294I-1016J0D01*
G01*
M02*
