G04*
G04 #@! TF.GenerationSoftware,Altium Limited,Altium Designer,22.10.1 (41)*
G04*
G04 Layer_Physical_Order=2*
G04 Layer_Color=32768*
%FSLAX44Y44*%
%MOMM*%
G71*
G04*
G04 #@! TF.SameCoordinates,5B72B8DF-E24A-41CE-AD84-0836D2D271DA*
G04*
G04*
G04 #@! TF.FilePolarity,Negative*
G04*
G01*
G75*
%ADD67C,1.0160*%
%ADD68C,2.2160*%
%ADD69C,1.9160*%
%ADD70C,1.9060*%
%ADD71C,4.2660*%
%ADD72C,2.0160*%
%ADD73C,1.3208*%
%ADD74C,2.0320*%
%ADD75C,1.6256*%
D67*
X1810820Y172720D02*
X1117400D01*
X1810820D02*
Y1016000D01*
X1117400D01*
Y172720D02*
Y1016000D01*
D68*
X1499110Y957580D02*
D03*
X1464110D02*
D03*
X1429110D02*
D03*
X1394110D02*
D03*
X1359110D02*
D03*
X1324110D02*
D03*
X1534110D02*
D03*
X1569110D02*
D03*
X1604110D02*
D03*
D69*
X1236780Y377190D02*
D03*
X1211380D02*
D03*
X1236780Y351790D02*
D03*
X1211380D02*
D03*
X1236780Y326390D02*
D03*
X1211380D02*
D03*
X1236780Y300990D02*
D03*
X1211380D02*
D03*
X1236780Y275590D02*
D03*
D70*
X1712960Y346710D02*
D03*
X1687560Y308610D02*
D03*
X1712960Y321310D02*
D03*
X1687560Y359410D02*
D03*
D71*
X1776460Y378410D02*
D03*
Y276810D02*
D03*
D72*
X1712960Y295910D02*
D03*
D73*
X1747320Y668020D02*
D03*
X1756210Y765810D02*
D03*
X1579680Y904240D02*
D03*
X1617780Y902970D02*
D03*
X1185980Y626110D02*
D03*
X1217405Y629037D02*
D03*
X1288300Y629315D02*
D03*
X1358389Y628827D02*
D03*
X1429075Y629884D02*
D03*
X1504550Y629920D02*
D03*
X1575506Y630483D02*
D03*
X1646990Y631190D02*
D03*
X1716840Y632460D02*
D03*
X1375210Y716280D02*
D03*
X1385370Y726440D02*
D03*
X1395530Y736600D02*
D03*
X1405690Y746760D02*
D03*
X1558090Y716280D02*
D03*
X1549200Y726440D02*
D03*
X1540310Y736600D02*
D03*
X1531420Y746760D02*
D03*
X1592870Y410055D02*
D03*
X1267260Y908050D02*
D03*
X1333687Y758190D02*
D03*
X1377750Y768350D02*
D03*
X1447795Y658819D02*
D03*
X1580442Y403860D02*
D03*
X1370130Y271780D02*
D03*
X1311710Y712470D02*
D03*
X1334570D02*
D03*
X1593650Y716280D02*
D03*
X1615240D02*
D03*
X1428290Y881626D02*
D03*
X1342190Y904240D02*
D03*
X1670860Y905756D02*
D03*
X1490780Y908050D02*
D03*
X1257100Y594360D02*
D03*
X1681280Y605790D02*
D03*
X1540310Y604520D02*
D03*
X1393939Y604199D02*
D03*
X1446330Y407670D02*
D03*
X1373940Y487680D02*
D03*
X1481890Y299720D02*
D03*
X1553341Y380669D02*
D03*
X1563501Y390829D02*
D03*
X1669850Y416560D02*
D03*
X1699060Y419100D02*
D03*
X1605415Y476886D02*
D03*
X1600000Y471170D02*
D03*
X1598730Y436880D02*
D03*
X1594129Y465564D02*
D03*
X1570790Y397510D02*
D03*
X1495860Y389890D02*
D03*
X1475540D02*
D03*
X1486970Y386080D02*
D03*
X1571970Y254090D02*
D03*
X1532780D02*
D03*
X1311710Y910590D02*
D03*
X1731245Y660593D02*
D03*
X1305617Y658886D02*
D03*
X1591305Y661359D02*
D03*
D74*
X1224080Y240030D02*
D03*
Y214630D02*
D03*
D75*
X1551958Y528538D02*
D03*
X1279434Y515094D02*
D03*
X1299536Y535196D02*
D03*
X1430346Y527576D02*
D03*
X1412006Y509522D02*
D03*
X1527392Y529590D02*
D03*
X1605080Y511810D02*
D03*
Y535940D02*
D03*
M02*
