G04*
G04 #@! TF.GenerationSoftware,Altium Limited,Altium Designer,22.10.1 (41)*
G04*
G04 Layer_Physical_Order=2*
G04 Layer_Color=32768*
%FSLAX24Y24*%
%MOIN*%
G70*
G04*
G04 #@! TF.SameCoordinates,EAAA1F8D-6CAC-4442-BC96-451E5CDCA5FB*
G04*
G04*
G04 #@! TF.FilePolarity,Negative*
G04*
G01*
G75*
%ADD67C,0.0400*%
%ADD68C,0.0872*%
%ADD69C,0.0754*%
%ADD70C,0.0750*%
%ADD71C,0.1680*%
%ADD72C,0.0794*%
%ADD73C,0.0520*%
%ADD74C,0.0800*%
%ADD75C,0.0640*%
D67*
X3650Y6800D02*
X30950D01*
X3650D02*
Y40000D01*
X30950D01*
Y6800D02*
Y40000D01*
D68*
X15922Y37700D02*
D03*
X17300D02*
D03*
X18678D02*
D03*
X20056D02*
D03*
X21434D02*
D03*
X22812D02*
D03*
X14544D02*
D03*
X13166D02*
D03*
X11788D02*
D03*
D69*
X26250Y14850D02*
D03*
X27250D02*
D03*
X26250Y13850D02*
D03*
X27250D02*
D03*
X26250Y12850D02*
D03*
X27250D02*
D03*
X26250Y11850D02*
D03*
X27250D02*
D03*
X26250Y10850D02*
D03*
D70*
X7503Y13650D02*
D03*
X8503Y12150D02*
D03*
X7503Y12650D02*
D03*
X8503Y14150D02*
D03*
D71*
X5003Y14898D02*
D03*
Y10898D02*
D03*
D72*
X7503Y11650D02*
D03*
D73*
X6150Y26300D02*
D03*
X5800Y30150D02*
D03*
X12750Y35600D02*
D03*
X11250Y35550D02*
D03*
X28250Y24650D02*
D03*
X27013Y24765D02*
D03*
X24222Y24776D02*
D03*
X21462Y24757D02*
D03*
X18679Y24799D02*
D03*
X15708Y24800D02*
D03*
X12914Y24822D02*
D03*
X10100Y24850D02*
D03*
X7350Y24900D02*
D03*
X20800Y28200D02*
D03*
X20400Y28600D02*
D03*
X20000Y29000D02*
D03*
X19600Y29400D02*
D03*
X13600Y28200D02*
D03*
X13950Y28600D02*
D03*
X14300Y29000D02*
D03*
X14650Y29400D02*
D03*
X12231Y16144D02*
D03*
X25050Y35750D02*
D03*
X22435Y29850D02*
D03*
X20700Y30250D02*
D03*
X17942Y25938D02*
D03*
X12720Y15900D02*
D03*
X21000Y10700D02*
D03*
X23300Y28050D02*
D03*
X22400D02*
D03*
X12200Y28200D02*
D03*
X11350D02*
D03*
X18710Y34710D02*
D03*
X22100Y35600D02*
D03*
X9160Y35660D02*
D03*
X16250Y35750D02*
D03*
X25450Y23400D02*
D03*
X8750Y23850D02*
D03*
X14300Y23800D02*
D03*
X20063Y23787D02*
D03*
X18000Y16050D02*
D03*
X20850Y19200D02*
D03*
X16600Y11800D02*
D03*
X13787Y14987D02*
D03*
X13387Y15387D02*
D03*
X9200Y16400D02*
D03*
X8050Y16500D02*
D03*
X11737Y18775D02*
D03*
X11950Y18550D02*
D03*
X12000Y17200D02*
D03*
X12181Y18329D02*
D03*
X13100Y15650D02*
D03*
X16050Y15350D02*
D03*
X16850D02*
D03*
X16400Y15200D02*
D03*
X13054Y10004D02*
D03*
X14596D02*
D03*
X23300Y35850D02*
D03*
X6783Y26008D02*
D03*
X23540Y25940D02*
D03*
X12292Y26038D02*
D03*
D74*
X26750Y9450D02*
D03*
Y8450D02*
D03*
D75*
X13841Y20809D02*
D03*
X24571Y20279D02*
D03*
X23779Y21071D02*
D03*
X18629Y20771D02*
D03*
X19351Y20060D02*
D03*
X14809Y20850D02*
D03*
X11750Y20150D02*
D03*
Y21100D02*
D03*
M02*
