G04*
G04 #@! TF.GenerationSoftware,Altium Limited,Altium Designer,22.9.1 (49)*
G04*
G04 Layer_Color=65535*
%FSLAX24Y24*%
%MOIN*%
G70*
G04*
G04 #@! TF.SameCoordinates,1C4C81CE-4E44-4544-AACE-53C2D62CD198*
G04*
G04*
G04 #@! TF.FilePolarity,Positive*
G04*
G01*
G75*
%ADD10C,0.0098*%
%ADD11C,0.0079*%
%ADD12C,0.0157*%
%ADD13C,0.0100*%
%ADD14C,0.0150*%
%ADD15C,0.0070*%
%ADD16C,0.0050*%
D10*
X40659Y13850D02*
G03*
X40659Y13850I-49J0D01*
G01*
X21947Y22411D02*
G03*
X21947Y22411I-49J0D01*
G01*
X14899Y29050D02*
G03*
X14899Y29050I-49J0D01*
G01*
X42380Y25258D02*
G03*
X42380Y25258I-49J0D01*
G01*
X28580Y25098D02*
G03*
X28580Y25098I-49J0D01*
G01*
X21947Y27919D02*
G03*
X21947Y27919I-49J0D01*
G01*
X28580Y19598D02*
G03*
X28580Y19598I-49J0D01*
G01*
Y14090D02*
G03*
X28580Y14090I-49J0D01*
G01*
Y30366D02*
G03*
X28580Y30366I-49J0D01*
G01*
D11*
X38583Y19402D02*
G03*
X38583Y19402I-39J0D01*
G01*
X21347Y27787D02*
G03*
X21347Y27787I-20J0D01*
G01*
Y28755D02*
G03*
X21347Y28755I-20J0D01*
G01*
X31563Y13288D02*
G03*
X31563Y13288I-20J0D01*
G01*
X31251Y17009D02*
G03*
X31251Y17009I-20J0D01*
G01*
X31361Y22594D02*
G03*
X31361Y22594I-20J0D01*
G01*
X31401Y26409D02*
G03*
X31401Y26409I-20J0D01*
G01*
X31361Y13728D02*
G03*
X31361Y13728I-20J0D01*
G01*
X17341Y24704D02*
X17971D01*
X17341Y25413D02*
X17971D01*
X18346Y24307D02*
Y24937D01*
X19054Y24307D02*
Y24937D01*
X20148Y17907D02*
X21097D01*
X20148Y17060D02*
X21097D01*
X20080Y24173D02*
X21030D01*
X20080Y23327D02*
X21030D01*
X46493Y22440D02*
Y22460D01*
X46807Y22440D02*
Y22460D01*
X17483Y22078D02*
X17502D01*
X17483Y21724D02*
X17502D01*
X17241Y20768D02*
X17871D01*
X17241Y21476D02*
X17871D01*
X17341Y22739D02*
X17971D01*
X17341Y23448D02*
X17971D01*
X19352Y22426D02*
X19548D01*
X19352Y23174D02*
X19548D01*
X20285Y17996D02*
X20915D01*
X20285Y18704D02*
X20915D01*
X26532Y19110D02*
Y20412D01*
X25605Y19110D02*
Y20412D01*
X45334Y17775D02*
X49098D01*
X45334Y12425D02*
X49098D01*
X40846Y17775D02*
X44468D01*
X40846Y12425D02*
X44468D01*
X49098D02*
Y17775D01*
X40846Y12425D02*
Y17775D01*
X26573Y24658D02*
Y25960D01*
X25646Y24658D02*
Y25960D01*
X25565Y26465D02*
Y27135D01*
X26235Y26465D02*
Y27135D01*
X20036Y26199D02*
Y27501D01*
X20964Y26199D02*
Y27501D01*
Y18999D02*
Y20301D01*
X20036Y18999D02*
Y20301D01*
Y20699D02*
Y22001D01*
X20964Y20699D02*
Y22001D01*
Y24424D02*
Y25726D01*
X20036Y24424D02*
Y25726D01*
X27085Y20915D02*
Y21585D01*
X26415Y20915D02*
Y21585D01*
X22371Y18514D02*
Y22372D01*
X23827Y18514D02*
Y22372D01*
X22371D02*
X23827D01*
X22371Y18514D02*
X23827D01*
X18954Y20807D02*
Y21437D01*
X18246Y20807D02*
Y21437D01*
X17241Y28366D02*
X17871D01*
X17241Y27657D02*
X17871D01*
X17241Y26988D02*
X17871D01*
X17241Y26280D02*
X17871D01*
X19165Y26226D02*
Y26895D01*
X19835Y26226D02*
Y26895D01*
X43015Y23665D02*
X43685D01*
X43015Y24335D02*
X43685D01*
X30487Y31649D02*
X31077D01*
X30487Y32378D02*
X31077D01*
X30487Y29949D02*
X31077D01*
X30487Y30678D02*
X31077D01*
X30487Y26435D02*
X31077D01*
X30487Y27164D02*
X31077D01*
X30487Y24735D02*
X31077D01*
X30487Y25464D02*
X31077D01*
X30487Y20952D02*
X31077D01*
X30487Y21680D02*
X31077D01*
X30487Y19252D02*
X31077D01*
X30487Y19980D02*
X31077D01*
X30455Y15376D02*
X31045D01*
X30455Y16104D02*
X31045D01*
X30455Y13726D02*
X31045D01*
X30455Y14454D02*
X31045D01*
X45455Y30249D02*
Y31551D01*
X46345Y30249D02*
Y31551D01*
X46807Y19240D02*
Y19260D01*
X46493Y19240D02*
Y19260D01*
X46807Y20840D02*
Y20860D01*
X46493Y20840D02*
Y20860D01*
X15381Y16319D02*
Y28681D01*
X14318Y16319D02*
X15381D01*
X14318D02*
Y28681D01*
X15381D01*
X17335Y24354D02*
X17965D01*
X17335Y23646D02*
X17965D01*
X18246Y27813D02*
Y28443D01*
X18954Y27813D02*
Y28443D01*
X18246Y26335D02*
Y26965D01*
X18954Y26335D02*
Y26965D01*
X19865Y28716D02*
X21130D01*
X19865Y27826D02*
X21130D01*
X42253Y30183D02*
X43557D01*
X42253Y29253D02*
X43557D01*
X42720Y33148D02*
X43153D01*
X42720Y32439D02*
X43153D01*
X42135Y26833D02*
X44065D01*
Y27367D01*
X42135D02*
X44065D01*
X42135Y26833D02*
Y27367D01*
X30415Y12915D02*
X31085D01*
X30415Y13585D02*
X31085D01*
X29830Y25511D02*
Y26338D01*
X28609Y25511D02*
Y26338D01*
X29830D01*
X28609Y25511D02*
X29830D01*
X22371Y24021D02*
Y27879D01*
X23827Y24021D02*
Y27879D01*
X22371D02*
X23827D01*
X22371Y24021D02*
X23827D01*
X27085Y26465D02*
Y27135D01*
X26415Y26465D02*
Y27135D01*
X19165Y25015D02*
Y25685D01*
X19835Y25015D02*
Y25685D01*
Y20699D02*
Y21368D01*
X19165Y20699D02*
Y21368D01*
Y19582D02*
Y20251D01*
X19835Y19582D02*
Y20251D01*
X25565Y20915D02*
Y21585D01*
X26235Y20915D02*
Y21585D01*
X27634Y28756D02*
Y29544D01*
X28166Y28756D02*
Y29544D01*
X28316Y23456D02*
Y24244D01*
X27784Y23456D02*
Y24244D01*
X28609Y20011D02*
X29830D01*
X28609Y20838D02*
X29830D01*
X28609Y20011D02*
Y20838D01*
X29830Y20011D02*
Y20838D01*
X30447Y18391D02*
X31117D01*
X30447Y19061D02*
X31117D01*
X28116Y12506D02*
Y13294D01*
X27584Y12506D02*
Y13294D01*
X29193Y18030D02*
X29271D01*
X29193Y18522D02*
X29271D01*
X30447Y29858D02*
X31117D01*
X30447Y29189D02*
X31117D01*
X30447Y24585D02*
X31117D01*
X30447Y23915D02*
X31117D01*
X33366Y25312D02*
Y26419D01*
X34080Y25312D02*
Y26419D01*
X33108Y20437D02*
X34092D01*
X33108Y21263D02*
X34092D01*
X29193Y24056D02*
X29271D01*
X29193Y23563D02*
X29271D01*
X31547Y20091D02*
Y20761D01*
X32217Y20091D02*
Y20761D01*
X29193Y22330D02*
X29271D01*
X29193Y22822D02*
X29271D01*
X32217Y30834D02*
Y31503D01*
X31547Y30834D02*
Y31503D01*
X32217Y25575D02*
Y26244D01*
X31547Y25575D02*
Y26244D01*
X34515Y21285D02*
X35185D01*
X34515Y20615D02*
X35185D01*
X39130Y27878D02*
X41570D01*
Y26422D02*
Y26491D01*
Y27809D02*
Y27878D01*
X39130Y26422D02*
X41570D01*
X39130D02*
Y26491D01*
Y27809D02*
Y27878D01*
X29192Y28256D02*
X29270D01*
X29192Y27763D02*
X29270D01*
X32085Y14565D02*
Y15235D01*
X31415Y14565D02*
Y15235D01*
X30447Y21791D02*
X31117D01*
X30447Y22461D02*
X31117D01*
X29193Y12530D02*
X29271D01*
X29193Y13022D02*
X29271D01*
X30447Y33258D02*
X31117D01*
X30447Y32589D02*
X31117D01*
X30447Y27944D02*
X31117D01*
X30447Y27275D02*
X31117D01*
X35657Y25215D02*
Y25885D01*
X34988Y25215D02*
Y25885D01*
X29193Y28877D02*
X29271D01*
X29193Y29370D02*
X29271D01*
X30415Y16265D02*
X31085D01*
X30415Y16935D02*
X31085D01*
X29193Y16730D02*
X29271D01*
X29193Y17222D02*
X29271D01*
X28166Y18006D02*
Y18794D01*
X27634Y18006D02*
Y18794D01*
X29830Y14503D02*
Y15330D01*
X28609Y14503D02*
Y15330D01*
X29830D01*
X28609Y14503D02*
X29830D01*
X28609Y30779D02*
X29830D01*
X28609Y31606D02*
X29830D01*
X28609Y30779D02*
Y31606D01*
X29830Y30779D02*
Y31606D01*
X34228Y25215D02*
Y25885D01*
X34818Y25215D02*
Y25885D01*
X35593Y20496D02*
Y21604D01*
X36307Y20496D02*
Y21604D01*
X29193Y33470D02*
X29271D01*
X29193Y32977D02*
X29271D01*
D12*
X29003Y25826D02*
G03*
X29003Y25826I-79J0D01*
G01*
Y20326D02*
G03*
X29003Y20326I-79J0D01*
G01*
Y14818D02*
G03*
X29003Y14818I-79J0D01*
G01*
Y31094D02*
G03*
X29003Y31094I-79J0D01*
G01*
X46493Y21771D02*
X46807D01*
X42640Y24843D02*
Y25257D01*
X46493Y18571D02*
X46807D01*
X46493Y20171D02*
X46807D01*
D13*
X32850Y24150D02*
G03*
X32850Y24150I-50J0D01*
G01*
X40414Y32852D02*
X41674D01*
X40433Y33827D02*
X41693D01*
X40436Y31709D02*
X41696D01*
X40456Y32684D02*
X41716D01*
X40045Y29223D02*
Y34173D01*
X37135Y29143D02*
Y34103D01*
X42520Y31674D02*
X43150D01*
X42550Y30466D02*
X43180D01*
X44116Y30296D02*
Y31477D01*
X44884Y30296D02*
Y31477D01*
X32450Y15125D02*
Y14675D01*
X32675D01*
X32750Y14750D01*
Y15050D01*
X32675Y15125D01*
X32450D01*
X32750Y20625D02*
X32675Y20700D01*
X32525D01*
X32450Y20625D01*
Y20325D01*
X32525Y20250D01*
X32675D01*
X32750Y20325D01*
X32450Y26134D02*
Y25685D01*
X32675D01*
X32750Y25760D01*
Y25834D01*
X32675Y25909D01*
X32450D01*
X32675D01*
X32750Y25984D01*
Y26059D01*
X32675Y26134D01*
X32450D01*
Y30944D02*
Y31244D01*
X32600Y31394D01*
X32750Y31244D01*
Y30944D01*
Y31169D01*
X32450D01*
D14*
X17550Y17215D02*
Y18315D01*
X16150Y17215D02*
Y18315D01*
X17800Y17250D02*
Y18350D01*
X19200Y17250D02*
Y18350D01*
X16550Y34500D02*
Y34000D01*
X16650Y33900D01*
X16850D01*
X16950Y34000D01*
Y34500D01*
X17150D02*
Y33900D01*
X17550D01*
X17750Y34200D02*
X18149D01*
X18749Y34400D02*
X18649Y34500D01*
X18449D01*
X18349Y34400D01*
Y34300D01*
X18449Y34200D01*
X18649D01*
X18749Y34100D01*
Y34000D01*
X18649Y33900D01*
X18449D01*
X18349Y34000D01*
X18949Y34500D02*
Y33900D01*
X19149Y34100D01*
X19349Y33900D01*
Y34500D01*
X19549Y33900D02*
Y34300D01*
X19749Y34500D01*
X19949Y34300D01*
Y33900D01*
Y34200D01*
X19549D01*
X20149Y33900D02*
Y34500D01*
X20449D01*
X20549Y34400D01*
Y34200D01*
X20449Y34100D01*
X20149D01*
X20749Y34200D02*
X21149D01*
X21348Y34500D02*
Y33900D01*
X21648D01*
X21748Y34000D01*
Y34400D01*
X21648Y34500D01*
X21348D01*
X21948Y33900D02*
Y34300D01*
X22148Y34500D01*
X22348Y34300D01*
Y33900D01*
Y34200D01*
X21948D01*
X22948Y34000D02*
Y34400D01*
X22848Y34500D01*
X22648D01*
X22548Y34400D01*
Y34000D01*
X22648Y33900D01*
X22848D01*
X22748Y34100D02*
X22948Y33900D01*
X22848D02*
X22948Y34000D01*
X24148Y33900D02*
X23748D01*
X24148Y34300D01*
Y34400D01*
X24048Y34500D01*
X23848D01*
X23748Y34400D01*
D15*
X45526Y28434D02*
Y29446D01*
Y23446D02*
Y24459D01*
Y23446D02*
X46726D01*
X45526Y29446D02*
X46726D01*
X37950Y19857D02*
X38344D01*
X42044Y24346D02*
X42438D01*
X37950Y19857D02*
Y20251D01*
X42438Y23952D02*
Y24346D01*
X37950Y23952D02*
Y24346D01*
X42438Y19857D02*
Y20251D01*
X37950Y24346D02*
X38344D01*
X42044Y19857D02*
X42438D01*
X16270Y19920D02*
Y19620D01*
X16420D01*
X16470Y19670D01*
Y19870D01*
X16420Y19920D01*
X16270D01*
X16570Y19770D02*
X16770D01*
X16670Y19870D02*
Y19670D01*
X16470Y22737D02*
X16420Y22787D01*
X16320D01*
X16270Y22737D01*
Y22537D01*
X16320Y22487D01*
X16420D01*
X16470Y22537D01*
X16570Y22637D02*
X16770D01*
X16670Y22737D02*
Y22537D01*
X16470Y21303D02*
X16420Y21353D01*
X16320D01*
X16270Y21303D01*
Y21103D01*
X16320Y21053D01*
X16420D01*
X16470Y21103D01*
X16570Y21203D02*
X16770D01*
X16270Y25653D02*
Y25353D01*
X16420D01*
X16470Y25403D01*
Y25453D01*
X16420Y25503D01*
X16270D01*
X16420D01*
X16470Y25553D01*
Y25603D01*
X16420Y25653D01*
X16270D01*
X16570Y25503D02*
X16770D01*
X16270Y24220D02*
Y23920D01*
X16420D01*
X16470Y23970D01*
Y24020D01*
X16420Y24070D01*
X16270D01*
X16420D01*
X16470Y24120D01*
Y24170D01*
X16420Y24220D01*
X16270D01*
X16570Y24070D02*
X16770D01*
X16670Y24170D02*
Y23970D01*
X16270Y26787D02*
Y26987D01*
X16370Y27087D01*
X16470Y26987D01*
Y26787D01*
Y26937D01*
X16270D01*
X16570D02*
X16770D01*
X16670Y27037D02*
Y26837D01*
X16270Y28220D02*
Y28420D01*
X16370Y28520D01*
X16470Y28420D01*
Y28220D01*
Y28370D01*
X16270D01*
X16570D02*
X16770D01*
X45356Y23366D02*
X45056D01*
X45356Y23566D01*
X45056D01*
X45156Y23716D02*
Y23816D01*
X45206Y23866D01*
X45356D01*
Y23716D01*
X45306Y23666D01*
X45256Y23716D01*
Y23866D01*
X45356Y23966D02*
X45156D01*
Y24116D01*
X45206Y24166D01*
X45356D01*
Y24316D02*
Y24416D01*
X45306Y24466D01*
X45206D01*
X45156Y24416D01*
Y24316D01*
X45206Y24266D01*
X45306D01*
X45356Y24316D01*
X37200Y12988D02*
X37150Y13038D01*
X37050D01*
X37000Y12988D01*
Y12788D01*
X37050Y12738D01*
X37150D01*
X37200Y12788D01*
Y12888D01*
X37100D01*
X37300Y12738D02*
Y13038D01*
X37500Y12738D01*
Y13038D01*
X37600D02*
Y12738D01*
X37750D01*
X37800Y12788D01*
Y12988D01*
X37750Y13038D01*
X37600D01*
X26450Y11088D02*
X26400Y11138D01*
X26300D01*
X26250Y11088D01*
Y10888D01*
X26300Y10838D01*
X26400D01*
X26450Y10888D01*
Y10988D01*
X26350D01*
X26550Y10838D02*
Y11138D01*
X26750Y10838D01*
Y11138D01*
X26850D02*
Y10838D01*
X27000D01*
X27050Y10888D01*
Y11088D01*
X27000Y11138D01*
X26850D01*
X34450Y31388D02*
X34400Y31438D01*
X34300D01*
X34250Y31388D01*
Y31188D01*
X34300Y31138D01*
X34400D01*
X34450Y31188D01*
Y31288D01*
X34350D01*
X34550Y31138D02*
Y31438D01*
X34750Y31138D01*
Y31438D01*
X34850D02*
Y31138D01*
X35000D01*
X35050Y31188D01*
Y31388D01*
X35000Y31438D01*
X34850D01*
X17400Y32788D02*
X17350Y32838D01*
X17250D01*
X17200Y32788D01*
Y32588D01*
X17250Y32538D01*
X17350D01*
X17400Y32588D01*
Y32688D01*
X17300D01*
X17500Y32538D02*
Y32838D01*
X17700Y32538D01*
Y32838D01*
X17800D02*
Y32538D01*
X17950D01*
X18000Y32588D01*
Y32788D01*
X17950Y32838D01*
X17800D01*
X19075Y32688D02*
X19275D01*
X19375Y32538D02*
X19475D01*
X19425D01*
Y32838D01*
X19375Y32788D01*
X19625D02*
X19675Y32838D01*
X19775D01*
X19825Y32788D01*
Y32588D01*
X19775Y32538D01*
X19675D01*
X19625Y32588D01*
Y32788D01*
X19925Y32838D02*
Y32638D01*
X20025Y32538D01*
X20125Y32638D01*
Y32838D01*
X33192Y32667D02*
X33392D01*
X33292Y32767D02*
Y32567D01*
X33692Y32817D02*
X33492D01*
Y32667D01*
X33592Y32717D01*
X33642D01*
X33692Y32667D01*
Y32567D01*
X33642Y32517D01*
X33542D01*
X33492Y32567D01*
X33792Y32817D02*
Y32617D01*
X33892Y32517D01*
X33992Y32617D01*
Y32817D01*
X25500Y16000D02*
X25700D01*
X25600Y16100D02*
Y15900D01*
X25800Y15850D02*
X25900D01*
X25850D01*
Y16150D01*
X25800Y16100D01*
X26050D02*
X26100Y16150D01*
X26200D01*
X26250Y16100D01*
Y15900D01*
X26200Y15850D01*
X26100D01*
X26050Y15900D01*
Y16100D01*
X26350Y15850D02*
Y15900D01*
X26400D01*
Y15850D01*
X26350D01*
X26800Y16150D02*
X26600D01*
Y16000D01*
X26700Y16050D01*
X26750D01*
X26800Y16000D01*
Y15900D01*
X26750Y15850D01*
X26650D01*
X26600Y15900D01*
X26900Y16150D02*
Y15950D01*
X27000Y15850D01*
X27100Y15950D01*
Y16150D01*
X15680Y16770D02*
X15630Y16720D01*
Y16620D01*
X15680Y16570D01*
X15880D01*
X15930Y16620D01*
Y16720D01*
X15880Y16770D01*
X15780D01*
Y16670D01*
X15930Y16870D02*
X15630D01*
X15930Y17070D01*
X15630D01*
Y17170D02*
X15930D01*
Y17320D01*
X15880Y17370D01*
X15680D01*
X15630Y17320D01*
Y17170D01*
X38117Y14867D02*
X38317D01*
X38217Y14967D02*
Y14767D01*
X38417Y14967D02*
X38467Y15017D01*
X38567D01*
X38617Y14967D01*
Y14917D01*
X38567Y14867D01*
X38517D01*
X38567D01*
X38617Y14817D01*
Y14767D01*
X38567Y14717D01*
X38467D01*
X38417Y14767D01*
X38717Y14717D02*
Y14767D01*
X38767D01*
Y14717D01*
X38717D01*
X38967Y14967D02*
X39017Y15017D01*
X39117D01*
X39167Y14967D01*
Y14917D01*
X39117Y14867D01*
X39067D01*
X39117D01*
X39167Y14817D01*
Y14767D01*
X39117Y14717D01*
X39017D01*
X38967Y14767D01*
X39267Y15017D02*
Y14817D01*
X39367Y14717D01*
X39467Y14817D01*
Y15017D01*
X48066Y28296D02*
X49116D01*
X48066Y24596D02*
X49116D01*
X44526Y28286D02*
X45676D01*
X44526Y24606D02*
X45676D01*
X48066Y28296D02*
Y29321D01*
X45666D02*
X48066D01*
X45666Y23571D02*
X48066D01*
Y24596D01*
X44526Y24606D02*
Y28286D01*
X45666Y28296D02*
Y29321D01*
Y23571D02*
Y24596D01*
X49116D02*
Y28296D01*
X22750Y21356D02*
Y21023D01*
X22816Y20956D01*
X22950D01*
X23016Y21023D01*
Y21356D01*
X23416D02*
X23150D01*
Y21156D01*
X23283Y21223D01*
X23349D01*
X23416Y21156D01*
Y21023D01*
X23349Y20956D01*
X23216D01*
X23150Y21023D01*
X22750Y26863D02*
Y26530D01*
X22816Y26463D01*
X22950D01*
X23016Y26530D01*
Y26863D01*
X23349Y26463D02*
Y26863D01*
X23150Y26663D01*
X23416D01*
D16*
X37019Y16797D02*
Y17092D01*
Y17880D02*
Y18175D01*
X39381Y17880D02*
Y18175D01*
Y16797D02*
Y17092D01*
X37649Y17191D02*
X38751D01*
X37649D02*
Y17781D01*
X38751D01*
Y17191D02*
Y17781D01*
X37019Y16797D02*
X39381D01*
X37019Y18175D02*
X39381D01*
X16681Y19125D02*
Y18875D01*
X16806D01*
X16848Y18917D01*
Y19083D01*
X16806Y19125D01*
X16681D01*
X16931Y19083D02*
X16973Y19125D01*
X17056D01*
X17098Y19083D01*
Y19042D01*
X17056Y19000D01*
X17014D01*
X17056D01*
X17098Y18958D01*
Y18917D01*
X17056Y18875D01*
X16973D01*
X16931Y18917D01*
X44707Y29980D02*
X44623D01*
X44665D01*
Y29772D01*
X44623Y29730D01*
X44582D01*
X44540Y29772D01*
X44790Y29938D02*
X44832Y29980D01*
X44915D01*
X44957Y29938D01*
Y29897D01*
X44915Y29855D01*
X44873D01*
X44915D01*
X44957Y29813D01*
Y29772D01*
X44915Y29730D01*
X44832D01*
X44790Y29772D01*
X17167Y22275D02*
Y22525D01*
X17292D01*
X17333Y22483D01*
Y22400D01*
X17292Y22358D01*
X17167D01*
X17250D02*
X17333Y22275D01*
X17583Y22525D02*
X17500Y22483D01*
X17417Y22400D01*
Y22317D01*
X17458Y22275D01*
X17542D01*
X17583Y22317D01*
Y22358D01*
X17542Y22400D01*
X17417D01*
X17667Y22483D02*
X17708Y22525D01*
X17792D01*
X17833Y22483D01*
Y22442D01*
X17792Y22400D01*
X17833Y22358D01*
Y22317D01*
X17792Y22275D01*
X17708D01*
X17667Y22317D01*
Y22358D01*
X17708Y22400D01*
X17667Y22442D01*
Y22483D01*
X17708Y22400D02*
X17792D01*
X18883Y23633D02*
X18842Y23675D01*
X18758D01*
X18717Y23633D01*
Y23467D01*
X18758Y23425D01*
X18842D01*
X18883Y23467D01*
X19133Y23675D02*
X19050Y23633D01*
X18967Y23550D01*
Y23467D01*
X19008Y23425D01*
X19092D01*
X19133Y23467D01*
Y23508D01*
X19092Y23550D01*
X18967D01*
X19217Y23633D02*
X19258Y23675D01*
X19342D01*
X19383Y23633D01*
Y23592D01*
X19342Y23550D01*
X19383Y23508D01*
Y23467D01*
X19342Y23425D01*
X19258D01*
X19217Y23467D01*
Y23508D01*
X19258Y23550D01*
X19217Y23592D01*
Y23633D01*
X19258Y23550D02*
X19342D01*
X18292Y19125D02*
Y18875D01*
X18417D01*
X18458Y18917D01*
Y19083D01*
X18417Y19125D01*
X18292D01*
X18667Y18875D02*
Y19125D01*
X18542Y19000D01*
X18708D01*
X25210Y25258D02*
X25168Y25216D01*
Y25133D01*
X25210Y25091D01*
X25376D01*
X25418Y25133D01*
Y25216D01*
X25376Y25258D01*
X25418Y25507D02*
Y25341D01*
X25251Y25507D01*
X25210D01*
X25168Y25466D01*
Y25382D01*
X25210Y25341D01*
Y25591D02*
X25168Y25632D01*
Y25716D01*
X25210Y25757D01*
X25251D01*
X25293Y25716D01*
X25335Y25757D01*
X25376D01*
X25418Y25716D01*
Y25632D01*
X25376Y25591D01*
X25335D01*
X25293Y25632D01*
X25251Y25591D01*
X25210D01*
X25293Y25632D02*
Y25716D01*
X25189Y19988D02*
X25147Y19946D01*
Y19863D01*
X25189Y19821D01*
X25355D01*
X25397Y19863D01*
Y19946D01*
X25355Y19988D01*
X25397Y20071D02*
Y20154D01*
Y20113D01*
X25147D01*
X25189Y20071D01*
X25355Y20279D02*
X25397Y20321D01*
Y20404D01*
X25355Y20446D01*
X25189D01*
X25147Y20404D01*
Y20321D01*
X25189Y20279D01*
X25230D01*
X25272Y20321D01*
Y20446D01*
X21217Y26633D02*
X21175Y26592D01*
Y26508D01*
X21217Y26467D01*
X21383D01*
X21425Y26508D01*
Y26592D01*
X21383Y26633D01*
X21425Y26883D02*
Y26717D01*
X21258Y26883D01*
X21217D01*
X21175Y26842D01*
Y26758D01*
X21217Y26717D01*
X21175Y27133D02*
X21217Y27050D01*
X21300Y26967D01*
X21383D01*
X21425Y27008D01*
Y27092D01*
X21383Y27133D01*
X21342D01*
X21300Y27092D01*
Y26967D01*
X21217Y21154D02*
X21175Y21113D01*
Y21029D01*
X21217Y20988D01*
X21383D01*
X21425Y21029D01*
Y21113D01*
X21383Y21154D01*
X21425Y21238D02*
Y21321D01*
Y21279D01*
X21175D01*
X21217Y21238D01*
X21175Y21446D02*
Y21612D01*
X21217D01*
X21383Y21446D01*
X21425D01*
X21217Y19604D02*
X21175Y19563D01*
Y19479D01*
X21217Y19438D01*
X21383D01*
X21425Y19479D01*
Y19563D01*
X21383Y19604D01*
X21425Y19688D02*
Y19771D01*
Y19729D01*
X21175D01*
X21217Y19688D01*
X21425Y20021D02*
X21175D01*
X21300Y19896D01*
Y20062D01*
X21217Y25033D02*
X21175Y24992D01*
Y24908D01*
X21217Y24867D01*
X21383D01*
X21425Y24908D01*
Y24992D01*
X21383Y25033D01*
X21425Y25283D02*
Y25117D01*
X21258Y25283D01*
X21217D01*
X21175Y25242D01*
Y25158D01*
X21217Y25117D01*
Y25367D02*
X21175Y25408D01*
Y25492D01*
X21217Y25533D01*
X21258D01*
X21300Y25492D01*
Y25450D01*
Y25492D01*
X21342Y25533D01*
X21383D01*
X21425Y25492D01*
Y25408D01*
X21383Y25367D01*
X22592Y22975D02*
Y22767D01*
X22633Y22725D01*
X22717D01*
X22758Y22767D01*
Y22975D01*
X23008D02*
X22842D01*
Y22850D01*
X22925Y22892D01*
X22967D01*
X23008Y22850D01*
Y22767D01*
X22967Y22725D01*
X22883D01*
X22842Y22767D01*
X40830Y31450D02*
X40789Y31492D01*
X40705D01*
X40664Y31450D01*
Y31283D01*
X40705Y31242D01*
X40789D01*
X40830Y31283D01*
X41080Y31492D02*
X40913D01*
Y31367D01*
X40997Y31408D01*
X41038D01*
X41080Y31367D01*
Y31283D01*
X41038Y31242D01*
X40955D01*
X40913Y31283D01*
X41288Y31242D02*
Y31492D01*
X41163Y31367D01*
X41330D01*
X40805Y34418D02*
X40764Y34460D01*
X40680D01*
X40639Y34418D01*
Y34251D01*
X40680Y34210D01*
X40764D01*
X40805Y34251D01*
X41055Y34460D02*
X40889D01*
Y34335D01*
X40972Y34376D01*
X41014D01*
X41055Y34335D01*
Y34251D01*
X41014Y34210D01*
X40930D01*
X40889Y34251D01*
X41139Y34418D02*
X41180Y34460D01*
X41264D01*
X41305Y34418D01*
Y34376D01*
X41264Y34335D01*
X41222D01*
X41264D01*
X41305Y34293D01*
Y34251D01*
X41264Y34210D01*
X41180D01*
X41139Y34251D01*
X35907Y32028D02*
Y31778D01*
X36073D01*
X36281D02*
Y32028D01*
X36157Y31903D01*
X36323D01*
X44367Y22100D02*
Y22350D01*
X44492D01*
X44533Y22308D01*
Y22225D01*
X44492Y22184D01*
X44367D01*
X44450D02*
X44533Y22100D01*
X44617Y22350D02*
X44783D01*
Y22308D01*
X44617Y22142D01*
Y22100D01*
X45033D02*
X44867D01*
X45033Y22267D01*
Y22308D01*
X44992Y22350D01*
X44908D01*
X44867Y22308D01*
X44458Y20400D02*
Y20650D01*
X44583D01*
X44625Y20608D01*
Y20525D01*
X44583Y20484D01*
X44458D01*
X44542D02*
X44625Y20400D01*
X44708Y20650D02*
X44875D01*
Y20608D01*
X44708Y20442D01*
Y20400D01*
X44958D02*
X45042D01*
X45000D01*
Y20650D01*
X44958Y20608D01*
X44367Y18825D02*
Y19075D01*
X44492D01*
X44533Y19033D01*
Y18950D01*
X44492Y18908D01*
X44367D01*
X44450D02*
X44533Y18825D01*
X44617Y19075D02*
X44783D01*
Y19033D01*
X44617Y18867D01*
Y18825D01*
X44867Y19033D02*
X44908Y19075D01*
X44992D01*
X45033Y19033D01*
Y18867D01*
X44992Y18825D01*
X44908D01*
X44867Y18867D01*
Y19033D01*
X45342Y22925D02*
Y22675D01*
X45508D01*
X45758Y22925D02*
X45592D01*
Y22675D01*
X45758D01*
X45592Y22800D02*
X45675D01*
X45842Y22925D02*
Y22675D01*
X45967D01*
X46008Y22717D01*
Y22883D01*
X45967Y22925D01*
X45842D01*
X46092Y22883D02*
X46133Y22925D01*
X46217D01*
X46258Y22883D01*
Y22842D01*
X46217Y22800D01*
X46175D01*
X46217D01*
X46258Y22758D01*
Y22717D01*
X46217Y22675D01*
X46133D01*
X46092Y22717D01*
X45342Y21275D02*
Y21025D01*
X45508D01*
X45758Y21275D02*
X45592D01*
Y21025D01*
X45758D01*
X45592Y21150D02*
X45675D01*
X45842Y21275D02*
Y21025D01*
X45967D01*
X46008Y21067D01*
Y21233D01*
X45967Y21275D01*
X45842D01*
X46258Y21025D02*
X46092D01*
X46258Y21192D01*
Y21233D01*
X46217Y21275D01*
X46133D01*
X46092Y21233D01*
X45433Y19675D02*
Y19425D01*
X45600D01*
X45850Y19675D02*
X45683D01*
Y19425D01*
X45850D01*
X45683Y19550D02*
X45767D01*
X45933Y19675D02*
Y19425D01*
X46058D01*
X46100Y19467D01*
Y19633D01*
X46058Y19675D01*
X45933D01*
X46183Y19425D02*
X46267D01*
X46225D01*
Y19675D01*
X46183Y19633D01*
X15288Y29229D02*
X15204D01*
X15246D01*
Y29020D01*
X15204Y28979D01*
X15163D01*
X15121Y29020D01*
X15371Y28979D02*
X15454D01*
X15413D01*
Y29229D01*
X15371Y29187D01*
X16517Y24425D02*
Y24675D01*
X16642D01*
X16683Y24633D01*
Y24550D01*
X16642Y24508D01*
X16517D01*
X16600D02*
X16683Y24425D01*
X16933Y24675D02*
X16850Y24633D01*
X16767Y24550D01*
Y24467D01*
X16808Y24425D01*
X16892D01*
X16933Y24467D01*
Y24508D01*
X16892Y24550D01*
X16767D01*
X17017Y24467D02*
X17058Y24425D01*
X17142D01*
X17183Y24467D01*
Y24633D01*
X17142Y24675D01*
X17058D01*
X17017Y24633D01*
Y24592D01*
X17058Y24550D01*
X17183D01*
X18117Y21675D02*
Y21925D01*
X18242D01*
X18283Y21883D01*
Y21800D01*
X18242Y21758D01*
X18117D01*
X18200D02*
X18283Y21675D01*
X18533Y21925D02*
X18450Y21883D01*
X18367Y21800D01*
Y21717D01*
X18408Y21675D01*
X18492D01*
X18533Y21717D01*
Y21758D01*
X18492Y21800D01*
X18367D01*
X18617Y21925D02*
X18783D01*
Y21883D01*
X18617Y21717D01*
Y21675D01*
X19367Y18225D02*
Y18475D01*
X19492D01*
X19533Y18433D01*
Y18350D01*
X19492Y18308D01*
X19367D01*
X19450D02*
X19533Y18225D01*
X19783Y18475D02*
X19700Y18433D01*
X19617Y18350D01*
Y18267D01*
X19658Y18225D01*
X19742D01*
X19783Y18267D01*
Y18308D01*
X19742Y18350D01*
X19617D01*
X20033Y18475D02*
X19950Y18433D01*
X19867Y18350D01*
Y18267D01*
X19908Y18225D01*
X19992D01*
X20033Y18267D01*
Y18308D01*
X19992Y18350D01*
X19867D01*
X17192Y20385D02*
Y20634D01*
X17317D01*
X17358Y20593D01*
Y20510D01*
X17317Y20468D01*
X17192D01*
X17275D02*
X17358Y20385D01*
X17608Y20634D02*
X17525Y20593D01*
X17442Y20510D01*
Y20426D01*
X17483Y20385D01*
X17566D01*
X17608Y20426D01*
Y20468D01*
X17566Y20510D01*
X17442D01*
X17858Y20634D02*
X17691D01*
Y20510D01*
X17775Y20551D01*
X17816D01*
X17858Y20510D01*
Y20426D01*
X17816Y20385D01*
X17733D01*
X17691Y20426D01*
X18267Y28853D02*
Y29103D01*
X18392D01*
X18433Y29061D01*
Y28978D01*
X18392Y28936D01*
X18267D01*
X18350D02*
X18433Y28853D01*
X18683Y29103D02*
X18600Y29061D01*
X18517Y28978D01*
Y28895D01*
X18558Y28853D01*
X18642D01*
X18683Y28895D01*
Y28936D01*
X18642Y28978D01*
X18517D01*
X18767Y29061D02*
X18808Y29103D01*
X18892D01*
X18933Y29061D01*
Y28895D01*
X18892Y28853D01*
X18808D01*
X18767Y28895D01*
Y29061D01*
X19454Y24004D02*
X19204D01*
Y24129D01*
X19246Y24171D01*
X19329D01*
X19371Y24129D01*
Y24004D01*
Y24088D02*
X19454Y24171D01*
X19204Y24421D02*
X19246Y24337D01*
X19329Y24254D01*
X19412D01*
X19454Y24296D01*
Y24379D01*
X19412Y24421D01*
X19371D01*
X19329Y24379D01*
Y24254D01*
X19454Y24671D02*
Y24504D01*
X19287Y24671D01*
X19246D01*
X19204Y24629D01*
Y24546D01*
X19246Y24504D01*
X18158Y27225D02*
Y27475D01*
X18283D01*
X18325Y27433D01*
Y27350D01*
X18283Y27308D01*
X18158D01*
X18242D02*
X18325Y27225D01*
X18575Y27475D02*
X18492Y27433D01*
X18408Y27350D01*
Y27267D01*
X18450Y27225D01*
X18533D01*
X18575Y27267D01*
Y27308D01*
X18533Y27350D01*
X18408D01*
X18658Y27225D02*
X18742D01*
X18700D01*
Y27475D01*
X18658Y27433D01*
X17223Y27209D02*
Y27459D01*
X17348D01*
X17389Y27417D01*
Y27334D01*
X17348Y27292D01*
X17223D01*
X17306D02*
X17389Y27209D01*
X17639Y27459D02*
X17473D01*
Y27334D01*
X17556Y27376D01*
X17598D01*
X17639Y27334D01*
Y27251D01*
X17598Y27209D01*
X17514D01*
X17473Y27251D01*
X17723D02*
X17764Y27209D01*
X17848D01*
X17889Y27251D01*
Y27417D01*
X17848Y27459D01*
X17764D01*
X17723Y27417D01*
Y27376D01*
X17764Y27334D01*
X17889D01*
X25475Y16367D02*
X25225D01*
Y16492D01*
X25267Y16533D01*
X25350D01*
X25392Y16492D01*
Y16367D01*
Y16450D02*
X25475Y16533D01*
X25225Y16783D02*
Y16617D01*
X25350D01*
X25308Y16700D01*
Y16742D01*
X25350Y16783D01*
X25433D01*
X25475Y16742D01*
Y16658D01*
X25433Y16617D01*
X25225Y16867D02*
Y17033D01*
X25267D01*
X25433Y16867D01*
X25475D01*
X23967Y15675D02*
Y15925D01*
X24092D01*
X24133Y15883D01*
Y15800D01*
X24092Y15758D01*
X23967D01*
X24050D02*
X24133Y15675D01*
X24383Y15925D02*
X24217D01*
Y15800D01*
X24300Y15842D01*
X24342D01*
X24383Y15800D01*
Y15717D01*
X24342Y15675D01*
X24258D01*
X24217Y15717D01*
X24633Y15925D02*
X24550Y15883D01*
X24467Y15800D01*
Y15717D01*
X24508Y15675D01*
X24592D01*
X24633Y15717D01*
Y15758D01*
X24592Y15800D01*
X24467D01*
X22417Y15675D02*
Y15925D01*
X22542D01*
X22583Y15883D01*
Y15800D01*
X22542Y15758D01*
X22417D01*
X22500D02*
X22583Y15675D01*
X22833Y15925D02*
X22667D01*
Y15800D01*
X22750Y15842D01*
X22792D01*
X22833Y15800D01*
Y15717D01*
X22792Y15675D01*
X22708D01*
X22667Y15717D01*
X23083Y15925D02*
X22917D01*
Y15800D01*
X23000Y15842D01*
X23042D01*
X23083Y15800D01*
Y15717D01*
X23042Y15675D01*
X22958D01*
X22917Y15717D01*
X21675Y16367D02*
X21425D01*
Y16492D01*
X21467Y16533D01*
X21550D01*
X21592Y16492D01*
Y16367D01*
Y16450D02*
X21675Y16533D01*
X21425Y16783D02*
Y16617D01*
X21550D01*
X21508Y16700D01*
Y16742D01*
X21550Y16783D01*
X21633D01*
X21675Y16742D01*
Y16658D01*
X21633Y16617D01*
X21675Y16992D02*
X21425D01*
X21550Y16867D01*
Y17033D01*
X25475Y29817D02*
X25225D01*
Y29942D01*
X25267Y29983D01*
X25350D01*
X25392Y29942D01*
Y29817D01*
Y29900D02*
X25475Y29983D01*
Y30192D02*
X25225D01*
X25350Y30067D01*
Y30233D01*
X25225Y30483D02*
Y30317D01*
X25350D01*
X25308Y30400D01*
Y30442D01*
X25350Y30483D01*
X25433D01*
X25475Y30442D01*
Y30358D01*
X25433Y30317D01*
X23717Y30875D02*
Y31125D01*
X23842D01*
X23883Y31083D01*
Y31000D01*
X23842Y30958D01*
X23717D01*
X23800D02*
X23883Y30875D01*
X24092D02*
Y31125D01*
X23967Y31000D01*
X24133D01*
X24342Y30875D02*
Y31125D01*
X24217Y31000D01*
X24383D01*
X22517Y30875D02*
Y31125D01*
X22642D01*
X22683Y31083D01*
Y31000D01*
X22642Y30958D01*
X22517D01*
X22600D02*
X22683Y30875D01*
X22892D02*
Y31125D01*
X22767Y31000D01*
X22933D01*
X23017Y31083D02*
X23058Y31125D01*
X23142D01*
X23183Y31083D01*
Y31042D01*
X23142Y31000D01*
X23100D01*
X23142D01*
X23183Y30958D01*
Y30917D01*
X23142Y30875D01*
X23058D01*
X23017Y30917D01*
X21625Y29767D02*
X21375D01*
Y29892D01*
X21417Y29933D01*
X21500D01*
X21542Y29892D01*
Y29767D01*
Y29850D02*
X21625Y29933D01*
Y30142D02*
X21375D01*
X21500Y30017D01*
Y30183D01*
X21625Y30433D02*
Y30267D01*
X21458Y30433D01*
X21417D01*
X21375Y30392D01*
Y30308D01*
X21417Y30267D01*
X41333Y29633D02*
X41292Y29675D01*
X41208D01*
X41167Y29633D01*
Y29467D01*
X41208Y29425D01*
X41292D01*
X41333Y29467D01*
X41542Y29425D02*
Y29675D01*
X41417Y29550D01*
X41583D01*
X41667Y29675D02*
X41833D01*
Y29633D01*
X41667Y29467D01*
Y29425D01*
X42630Y32162D02*
Y31912D01*
X42755D01*
X42797Y31954D01*
Y31995D01*
X42755Y32037D01*
X42630D01*
X42755D01*
X42797Y32079D01*
Y32120D01*
X42755Y32162D01*
X42630D01*
X42880Y32120D02*
X42922Y32162D01*
X43005D01*
X43047Y32120D01*
Y32079D01*
X43005Y32037D01*
X42963D01*
X43005D01*
X43047Y31995D01*
Y31954D01*
X43005Y31912D01*
X42922D01*
X42880Y31954D01*
X35142Y24675D02*
Y24467D01*
X35183Y24425D01*
X35267D01*
X35308Y24467D01*
Y24675D01*
X35558Y24425D02*
X35392D01*
X35558Y24592D01*
Y24633D01*
X35517Y24675D01*
X35433D01*
X35392Y24633D01*
X33477Y27033D02*
X33435Y27075D01*
X33352D01*
X33310Y27033D01*
Y26867D01*
X33352Y26825D01*
X33435D01*
X33477Y26867D01*
X33560Y26825D02*
X33644D01*
X33602D01*
Y27075D01*
X33560Y27033D01*
X33769D02*
X33810Y27075D01*
X33894D01*
X33935Y27033D01*
Y26992D01*
X33894Y26950D01*
X33852D01*
X33894D01*
X33935Y26908D01*
Y26867D01*
X33894Y26825D01*
X33810D01*
X33769Y26867D01*
X34477Y26383D02*
X34435Y26425D01*
X34352D01*
X34310Y26383D01*
Y26217D01*
X34352Y26175D01*
X34435D01*
X34477Y26217D01*
X34560Y26175D02*
X34644D01*
X34602D01*
Y26425D01*
X34560Y26383D01*
X34935Y26175D02*
X34769D01*
X34935Y26342D01*
Y26383D01*
X34894Y26425D01*
X34810D01*
X34769Y26383D01*
X36069Y25683D02*
X36027Y25725D01*
X35944D01*
X35902Y25683D01*
Y25517D01*
X35944Y25475D01*
X36027D01*
X36069Y25517D01*
X36152Y25475D02*
X36235D01*
X36194D01*
Y25725D01*
X36152Y25683D01*
X36360Y25475D02*
X36444D01*
X36402D01*
Y25725D01*
X36360Y25683D01*
X34704Y20383D02*
X34663Y20425D01*
X34579D01*
X34538Y20383D01*
Y20217D01*
X34579Y20175D01*
X34663D01*
X34704Y20217D01*
X34788Y20175D02*
X34871D01*
X34829D01*
Y20425D01*
X34788Y20383D01*
X34996D02*
X35037Y20425D01*
X35121D01*
X35162Y20383D01*
Y20217D01*
X35121Y20175D01*
X35037D01*
X34996Y20217D01*
Y20383D01*
X33308Y20183D02*
X33267Y20225D01*
X33183D01*
X33142Y20183D01*
Y20017D01*
X33183Y19975D01*
X33267D01*
X33308Y20017D01*
X33392D02*
X33433Y19975D01*
X33517D01*
X33558Y20017D01*
Y20183D01*
X33517Y20225D01*
X33433D01*
X33392Y20183D01*
Y20142D01*
X33433Y20100D01*
X33558D01*
X35808Y20083D02*
X35767Y20125D01*
X35683D01*
X35642Y20083D01*
Y19917D01*
X35683Y19875D01*
X35767D01*
X35808Y19917D01*
X36058Y20125D02*
X35892D01*
Y20000D01*
X35975Y20042D01*
X36017D01*
X36058Y20000D01*
Y19917D01*
X36017Y19875D01*
X35933D01*
X35892Y19917D01*
X37071Y20795D02*
X37029Y20837D01*
X36946D01*
X36904Y20795D01*
Y20628D01*
X36946Y20587D01*
X37029D01*
X37071Y20628D01*
X37279Y20587D02*
Y20837D01*
X37154Y20712D01*
X37321D01*
X41875Y24692D02*
X42083D01*
X42125Y24733D01*
Y24817D01*
X42083Y24858D01*
X41875D01*
X41917Y24942D02*
X41875Y24983D01*
Y25067D01*
X41917Y25108D01*
X41958D01*
X42000Y25067D01*
Y25025D01*
Y25067D01*
X42042Y25108D01*
X42083D01*
X42125Y25067D01*
Y24983D01*
X42083Y24942D01*
X44083Y25067D02*
X44125Y25108D01*
Y25192D01*
X44083Y25233D01*
X43917D01*
X43875Y25192D01*
Y25108D01*
X43917Y25067D01*
X44125Y24817D02*
X44083Y24900D01*
X44000Y24983D01*
X43917D01*
X43875Y24942D01*
Y24858D01*
X43917Y24817D01*
X43958D01*
X44000Y24858D01*
Y24983D01*
X44125Y24567D02*
X44083Y24650D01*
X44000Y24733D01*
X43917D01*
X43875Y24692D01*
Y24608D01*
X43917Y24567D01*
X43958D01*
X44000Y24608D01*
Y24733D01*
X44074Y23464D02*
X44033Y23506D01*
X43949D01*
X43908Y23464D01*
Y23298D01*
X43949Y23256D01*
X44033D01*
X44074Y23298D01*
X44324Y23506D02*
X44241Y23464D01*
X44158Y23381D01*
Y23298D01*
X44199Y23256D01*
X44283D01*
X44324Y23298D01*
Y23339D01*
X44283Y23381D01*
X44158D01*
X44574Y23506D02*
X44408D01*
Y23381D01*
X44491Y23423D01*
X44533D01*
X44574Y23381D01*
Y23298D01*
X44533Y23256D01*
X44449D01*
X44408Y23298D01*
X41100Y19183D02*
X41058Y19225D01*
X40975D01*
X40933Y19183D01*
Y19017D01*
X40975Y18975D01*
X41058D01*
X41100Y19017D01*
X41183Y18975D02*
X41267D01*
X41225D01*
Y19225D01*
X41183Y19183D01*
X37975Y19183D02*
X38183D01*
X38225Y19225D01*
Y19308D01*
X38183Y19350D01*
X37975D01*
X38225Y19433D02*
Y19517D01*
Y19475D01*
X37975D01*
X38017Y19433D01*
X27992Y14975D02*
Y14767D01*
X28033Y14725D01*
X28117D01*
X28158Y14767D01*
Y14975D01*
X28242Y14767D02*
X28283Y14725D01*
X28367D01*
X28408Y14767D01*
Y14933D01*
X28367Y14975D01*
X28283D01*
X28242Y14933D01*
Y14892D01*
X28283Y14850D01*
X28408D01*
X27842Y20525D02*
Y20317D01*
X27883Y20275D01*
X27967D01*
X28008Y20317D01*
Y20525D01*
X28092Y20483D02*
X28133Y20525D01*
X28217D01*
X28258Y20483D01*
Y20442D01*
X28217Y20400D01*
X28258Y20358D01*
Y20317D01*
X28217Y20275D01*
X28133D01*
X28092Y20317D01*
Y20358D01*
X28133Y20400D01*
X28092Y20442D01*
Y20483D01*
X28133Y20400D02*
X28217D01*
X22442Y28475D02*
Y28267D01*
X22483Y28225D01*
X22567D01*
X22608Y28267D01*
Y28475D01*
X22817Y28225D02*
Y28475D01*
X22692Y28350D01*
X22858D01*
X28042Y26025D02*
Y25817D01*
X28083Y25775D01*
X28167D01*
X28208Y25817D01*
Y26025D01*
X28292D02*
X28458D01*
Y25983D01*
X28292Y25817D01*
Y25775D01*
X28014Y31398D02*
Y31190D01*
X28056Y31149D01*
X28139D01*
X28180Y31190D01*
Y31398D01*
X28430D02*
X28347Y31357D01*
X28264Y31273D01*
Y31190D01*
X28305Y31149D01*
X28389D01*
X28430Y31190D01*
Y31232D01*
X28389Y31273D01*
X28264D01*
X40275Y12827D02*
X40192Y12826D01*
X40233Y12826D01*
X40235Y12618D01*
X40193Y12576D01*
X40152Y12576D01*
X40110Y12617D01*
X40526Y12578D02*
X40360Y12577D01*
X40525Y12745D01*
X40525Y12786D01*
X40483Y12828D01*
X40400Y12827D01*
X40359Y12786D01*
X38625Y26483D02*
X38875Y26650D01*
X38625D02*
X38875Y26483D01*
Y26733D02*
Y26817D01*
Y26775D01*
X38625D01*
X38667Y26733D01*
X44120Y31780D02*
Y32030D01*
X44245D01*
X44287Y31988D01*
Y31905D01*
X44245Y31863D01*
X44120D01*
X44203D02*
X44287Y31780D01*
X44370Y31988D02*
X44412Y32030D01*
X44495D01*
X44537Y31988D01*
Y31947D01*
X44495Y31905D01*
X44453D01*
X44495D01*
X44537Y31863D01*
Y31822D01*
X44495Y31780D01*
X44412D01*
X44370Y31822D01*
X44786Y32030D02*
X44620D01*
Y31905D01*
X44703Y31947D01*
X44745D01*
X44786Y31905D01*
Y31822D01*
X44745Y31780D01*
X44661D01*
X44620Y31822D01*
X45617Y32025D02*
Y32275D01*
X45742D01*
X45783Y32233D01*
Y32150D01*
X45742Y32108D01*
X45617D01*
X45700D02*
X45783Y32025D01*
X45867Y32233D02*
X45908Y32275D01*
X45992D01*
X46033Y32233D01*
Y32192D01*
X45992Y32150D01*
X45950D01*
X45992D01*
X46033Y32108D01*
Y32067D01*
X45992Y32025D01*
X45908D01*
X45867Y32067D01*
X46242Y32025D02*
Y32275D01*
X46117Y32150D01*
X46283D01*
X30508Y31225D02*
Y31475D01*
X30633D01*
X30675Y31433D01*
Y31350D01*
X30633Y31308D01*
X30508D01*
X30592D02*
X30675Y31225D01*
X30758Y31433D02*
X30800Y31475D01*
X30883D01*
X30925Y31433D01*
Y31392D01*
X30883Y31350D01*
X30842D01*
X30883D01*
X30925Y31308D01*
Y31267D01*
X30883Y31225D01*
X30800D01*
X30758Y31267D01*
X31008Y31225D02*
X31092D01*
X31050D01*
Y31475D01*
X31008Y31433D01*
X30517Y30825D02*
Y31075D01*
X30642D01*
X30683Y31033D01*
Y30950D01*
X30642Y30908D01*
X30517D01*
X30600D02*
X30683Y30825D01*
X30767Y31033D02*
X30808Y31075D01*
X30892D01*
X30933Y31033D01*
Y30992D01*
X30892Y30950D01*
X30850D01*
X30892D01*
X30933Y30908D01*
Y30867D01*
X30892Y30825D01*
X30808D01*
X30767Y30867D01*
X31017Y31033D02*
X31058Y31075D01*
X31142D01*
X31183Y31033D01*
Y30867D01*
X31142Y30825D01*
X31058D01*
X31017Y30867D01*
Y31033D01*
X28914Y33775D02*
Y34025D01*
X29039D01*
X29081Y33983D01*
Y33900D01*
X29039Y33858D01*
X28914D01*
X28997D02*
X29081Y33775D01*
X29331D02*
X29164D01*
X29331Y33942D01*
Y33983D01*
X29289Y34025D01*
X29206D01*
X29164Y33983D01*
X29414Y33817D02*
X29455Y33775D01*
X29539D01*
X29580Y33817D01*
Y33983D01*
X29539Y34025D01*
X29455D01*
X29414Y33983D01*
Y33942D01*
X29455Y33900D01*
X29580D01*
X28903Y28458D02*
Y28708D01*
X29028D01*
X29069Y28666D01*
Y28583D01*
X29028Y28541D01*
X28903D01*
X28986D02*
X29069Y28458D01*
X29319D02*
X29153D01*
X29319Y28625D01*
Y28666D01*
X29277Y28708D01*
X29194D01*
X29153Y28666D01*
X29402D02*
X29444Y28708D01*
X29527D01*
X29569Y28666D01*
Y28625D01*
X29527Y28583D01*
X29569Y28541D01*
Y28500D01*
X29527Y28458D01*
X29444D01*
X29402Y28500D01*
Y28541D01*
X29444Y28583D01*
X29402Y28625D01*
Y28666D01*
X29444Y28583D02*
X29527D01*
X26817Y31825D02*
Y32075D01*
X26942D01*
X26983Y32033D01*
Y31950D01*
X26942Y31908D01*
X26817D01*
X26900D02*
X26983Y31825D01*
X27233D02*
X27067D01*
X27233Y31992D01*
Y32033D01*
X27192Y32075D01*
X27108D01*
X27067Y32033D01*
X27317Y32075D02*
X27483D01*
Y32033D01*
X27317Y31867D01*
Y31825D01*
X26717Y30525D02*
Y30775D01*
X26842D01*
X26883Y30733D01*
Y30650D01*
X26842Y30608D01*
X26717D01*
X26800D02*
X26883Y30525D01*
X27133D02*
X26967D01*
X27133Y30692D01*
Y30733D01*
X27092Y30775D01*
X27008D01*
X26967Y30733D01*
X27383Y30775D02*
X27300Y30733D01*
X27217Y30650D01*
Y30567D01*
X27258Y30525D01*
X27342D01*
X27383Y30567D01*
Y30608D01*
X27342Y30650D01*
X27217D01*
X30460Y26003D02*
Y26253D01*
X30585D01*
X30627Y26212D01*
Y26128D01*
X30585Y26087D01*
X30460D01*
X30543D02*
X30627Y26003D01*
X30877D02*
X30710D01*
X30877Y26170D01*
Y26212D01*
X30835Y26253D01*
X30752D01*
X30710Y26212D01*
X31127Y26253D02*
X30960D01*
Y26128D01*
X31043Y26170D01*
X31085D01*
X31127Y26128D01*
Y26045D01*
X31085Y26003D01*
X31002D01*
X30960Y26045D01*
X31515Y24929D02*
Y25179D01*
X31640D01*
X31682Y25137D01*
Y25054D01*
X31640Y25012D01*
X31515D01*
X31598D02*
X31682Y24929D01*
X31932D02*
X31765D01*
X31932Y25095D01*
Y25137D01*
X31890Y25179D01*
X31807D01*
X31765Y25137D01*
X32140Y24929D02*
Y25179D01*
X32015Y25054D01*
X32181D01*
X27617Y27975D02*
Y28225D01*
X27742D01*
X27783Y28183D01*
Y28100D01*
X27742Y28058D01*
X27617D01*
X27700D02*
X27783Y27975D01*
X28033D02*
X27867D01*
X28033Y28142D01*
Y28183D01*
X27992Y28225D01*
X27908D01*
X27867Y28183D01*
X28117D02*
X28158Y28225D01*
X28242D01*
X28283Y28183D01*
Y28142D01*
X28242Y28100D01*
X28200D01*
X28242D01*
X28283Y28058D01*
Y28017D01*
X28242Y27975D01*
X28158D01*
X28117Y28017D01*
X28949Y23135D02*
Y23384D01*
X29074D01*
X29115Y23343D01*
Y23259D01*
X29074Y23218D01*
X28949D01*
X29032D02*
X29115Y23135D01*
X29365D02*
X29199D01*
X29365Y23301D01*
Y23343D01*
X29324Y23384D01*
X29240D01*
X29199Y23343D01*
X29615Y23135D02*
X29449D01*
X29615Y23301D01*
Y23343D01*
X29574Y23384D01*
X29490D01*
X29449Y23343D01*
X27758Y27275D02*
Y27525D01*
X27883D01*
X27925Y27483D01*
Y27400D01*
X27883Y27358D01*
X27758D01*
X27842D02*
X27925Y27275D01*
X28175D02*
X28008D01*
X28175Y27442D01*
Y27483D01*
X28133Y27525D01*
X28050D01*
X28008Y27483D01*
X28258Y27275D02*
X28342D01*
X28300D01*
Y27525D01*
X28258Y27483D01*
X27625Y24917D02*
X27375D01*
Y25042D01*
X27417Y25083D01*
X27500D01*
X27542Y25042D01*
Y24917D01*
Y25000D02*
X27625Y25083D01*
Y25333D02*
Y25167D01*
X27458Y25333D01*
X27417D01*
X27375Y25292D01*
Y25208D01*
X27417Y25167D01*
Y25417D02*
X27375Y25458D01*
Y25542D01*
X27417Y25583D01*
X27583D01*
X27625Y25542D01*
Y25458D01*
X27583Y25417D01*
X27417D01*
X30519Y20585D02*
Y20834D01*
X30644D01*
X30685Y20793D01*
Y20709D01*
X30644Y20668D01*
X30519D01*
X30602D02*
X30685Y20585D01*
X30769D02*
X30852D01*
X30810D01*
Y20834D01*
X30769Y20793D01*
X30977Y20626D02*
X31019Y20585D01*
X31102D01*
X31144Y20626D01*
Y20793D01*
X31102Y20834D01*
X31019D01*
X30977Y20793D01*
Y20751D01*
X31019Y20709D01*
X31144D01*
X30620Y20101D02*
Y20351D01*
X30745D01*
X30786Y20309D01*
Y20226D01*
X30745Y20184D01*
X30620D01*
X30703D02*
X30786Y20101D01*
X30870D02*
X30953D01*
X30911D01*
Y20351D01*
X30870Y20309D01*
X31078D02*
X31119Y20351D01*
X31203D01*
X31244Y20309D01*
Y20268D01*
X31203Y20226D01*
X31244Y20184D01*
Y20143D01*
X31203Y20101D01*
X31119D01*
X31078Y20143D01*
Y20184D01*
X31119Y20226D01*
X31078Y20268D01*
Y20309D01*
X31119Y20226D02*
X31203D01*
X27788Y22175D02*
Y22425D01*
X27913D01*
X27954Y22383D01*
Y22300D01*
X27913Y22258D01*
X27788D01*
X27871D02*
X27954Y22175D01*
X28038D02*
X28121D01*
X28079D01*
Y22425D01*
X28038Y22383D01*
X28246Y22425D02*
X28412D01*
Y22383D01*
X28246Y22217D01*
Y22175D01*
X28938Y17625D02*
Y17875D01*
X29063D01*
X29104Y17833D01*
Y17750D01*
X29063Y17708D01*
X28938D01*
X29021D02*
X29104Y17625D01*
X29188D02*
X29271D01*
X29229D01*
Y17875D01*
X29188Y17833D01*
X29562Y17875D02*
X29479Y17833D01*
X29396Y17750D01*
Y17667D01*
X29437Y17625D01*
X29521D01*
X29562Y17667D01*
Y17708D01*
X29521Y17750D01*
X29396D01*
X27562Y20827D02*
X27312D01*
Y20952D01*
X27354Y20994D01*
X27437D01*
X27479Y20952D01*
Y20827D01*
Y20911D02*
X27562Y20994D01*
Y21077D02*
Y21161D01*
Y21119D01*
X27312D01*
X27354Y21077D01*
X27312Y21452D02*
Y21286D01*
X27437D01*
X27396Y21369D01*
Y21411D01*
X27437Y21452D01*
X27521D01*
X27562Y21411D01*
Y21327D01*
X27521Y21286D01*
X26938Y19575D02*
Y19825D01*
X27063D01*
X27104Y19783D01*
Y19700D01*
X27063Y19658D01*
X26938D01*
X27021D02*
X27104Y19575D01*
X27188D02*
X27271D01*
X27229D01*
Y19825D01*
X27188Y19783D01*
X27521Y19575D02*
Y19825D01*
X27396Y19700D01*
X27562D01*
X31488Y15725D02*
Y15975D01*
X31613D01*
X31654Y15933D01*
Y15850D01*
X31613Y15808D01*
X31488D01*
X31571D02*
X31654Y15725D01*
X31738D02*
X31821D01*
X31779D01*
Y15975D01*
X31738Y15933D01*
X31946D02*
X31987Y15975D01*
X32071D01*
X32112Y15933D01*
Y15892D01*
X32071Y15850D01*
X32029D01*
X32071D01*
X32112Y15808D01*
Y15767D01*
X32071Y15725D01*
X31987D01*
X31946Y15767D01*
X31488Y13925D02*
Y14175D01*
X31613D01*
X31654Y14133D01*
Y14050D01*
X31613Y14008D01*
X31488D01*
X31571D02*
X31654Y13925D01*
X31738D02*
X31821D01*
X31779D01*
Y14175D01*
X31738Y14133D01*
X32112Y13925D02*
X31946D01*
X32112Y14092D01*
Y14133D01*
X32071Y14175D01*
X31987D01*
X31946Y14133D01*
X27929Y16875D02*
Y17125D01*
X28054D01*
X28096Y17083D01*
Y17000D01*
X28054Y16958D01*
X27929D01*
X28013D02*
X28096Y16875D01*
X28179D02*
X28262D01*
X28221D01*
Y17125D01*
X28179Y17083D01*
X28387Y16875D02*
X28471D01*
X28429D01*
Y17125D01*
X28387Y17083D01*
X28938Y12025D02*
Y12275D01*
X29063D01*
X29104Y12233D01*
Y12150D01*
X29063Y12108D01*
X28938D01*
X29021D02*
X29104Y12025D01*
X29188D02*
X29271D01*
X29229D01*
Y12275D01*
X29188Y12233D01*
X29396D02*
X29437Y12275D01*
X29521D01*
X29562Y12233D01*
Y12067D01*
X29521Y12025D01*
X29437D01*
X29396Y12067D01*
Y12233D01*
X27692Y16225D02*
Y16475D01*
X27817D01*
X27858Y16433D01*
Y16350D01*
X27817Y16308D01*
X27692D01*
X27775D02*
X27858Y16225D01*
X27942Y16267D02*
X27983Y16225D01*
X28067D01*
X28108Y16267D01*
Y16433D01*
X28067Y16475D01*
X27983D01*
X27942Y16433D01*
Y16392D01*
X27983Y16350D01*
X28108D01*
X26942Y13975D02*
Y14225D01*
X27067D01*
X27108Y14183D01*
Y14100D01*
X27067Y14058D01*
X26942D01*
X27025D02*
X27108Y13975D01*
X27192Y14183D02*
X27233Y14225D01*
X27317D01*
X27358Y14183D01*
Y14142D01*
X27317Y14100D01*
X27358Y14058D01*
Y14017D01*
X27317Y13975D01*
X27233D01*
X27192Y14017D01*
Y14058D01*
X27233Y14100D01*
X27192Y14142D01*
Y14183D01*
X27233Y14100D02*
X27317D01*
X17398Y28587D02*
Y28837D01*
X17523D01*
X17564Y28795D01*
Y28712D01*
X17523Y28670D01*
X17398D01*
X17481D02*
X17564Y28587D01*
X17648Y28837D02*
X17814D01*
Y28795D01*
X17648Y28628D01*
Y28587D01*
X17442Y25575D02*
Y25825D01*
X17567D01*
X17608Y25783D01*
Y25700D01*
X17567Y25658D01*
X17442D01*
X17525D02*
X17608Y25575D01*
X17858Y25825D02*
X17775Y25783D01*
X17692Y25700D01*
Y25617D01*
X17733Y25575D01*
X17817D01*
X17858Y25617D01*
Y25658D01*
X17817Y25700D01*
X17692D01*
X16692Y23125D02*
Y23375D01*
X16817D01*
X16858Y23333D01*
Y23250D01*
X16817Y23208D01*
X16692D01*
X16775D02*
X16858Y23125D01*
X17108Y23375D02*
X16942D01*
Y23250D01*
X17025Y23292D01*
X17067D01*
X17108Y23250D01*
Y23167D01*
X17067Y23125D01*
X16983D01*
X16942Y23167D01*
X37242Y16075D02*
Y16325D01*
X37367D01*
X37408Y16283D01*
Y16200D01*
X37367Y16158D01*
X37242D01*
X37325D02*
X37408Y16075D01*
X37492Y16283D02*
X37533Y16325D01*
X37617D01*
X37658Y16283D01*
Y16242D01*
X37617Y16200D01*
X37575D01*
X37617D01*
X37658Y16158D01*
Y16117D01*
X37617Y16075D01*
X37533D01*
X37492Y16117D01*
X39442Y25725D02*
Y25975D01*
X39567D01*
X39608Y25933D01*
Y25850D01*
X39567Y25808D01*
X39442D01*
X39525D02*
X39608Y25725D01*
X39858D02*
X39692D01*
X39858Y25892D01*
Y25933D01*
X39817Y25975D01*
X39733D01*
X39692Y25933D01*
X39833Y25125D02*
Y25375D01*
X39958D01*
X40000Y25333D01*
Y25250D01*
X39958Y25208D01*
X39833D01*
X39917D02*
X40000Y25125D01*
X40083D02*
X40167D01*
X40125D01*
Y25375D01*
X40083Y25333D01*
X37742Y18411D02*
Y18661D01*
X37825Y18578D01*
X37908Y18661D01*
Y18411D01*
X38158Y18619D02*
X38117Y18661D01*
X38033D01*
X37992Y18619D01*
Y18453D01*
X38033Y18411D01*
X38117D01*
X38158Y18453D01*
X38242Y18661D02*
Y18411D01*
X38408D01*
X38492D02*
Y18661D01*
X38617D01*
X38658Y18619D01*
Y18536D01*
X38617Y18494D01*
X38492D01*
X38575D02*
X38658Y18411D01*
X42327Y33688D02*
X42285Y33730D01*
X42202D01*
X42160Y33688D01*
Y33522D01*
X42202Y33480D01*
X42285D01*
X42327Y33522D01*
X42577Y33730D02*
X42410D01*
Y33605D01*
X42493Y33647D01*
X42535D01*
X42577Y33605D01*
Y33522D01*
X42535Y33480D01*
X42452D01*
X42410Y33522D01*
X42826Y33480D02*
X42660D01*
X42826Y33647D01*
Y33688D01*
X42785Y33730D01*
X42701D01*
X42660Y33688D01*
X30933Y33633D02*
X30892Y33675D01*
X30808D01*
X30767Y33633D01*
Y33467D01*
X30808Y33425D01*
X30892D01*
X30933Y33467D01*
X31142Y33425D02*
Y33675D01*
X31017Y33550D01*
X31183D01*
X31433Y33675D02*
X31350Y33633D01*
X31267Y33550D01*
Y33467D01*
X31308Y33425D01*
X31392D01*
X31433Y33467D01*
Y33508D01*
X31392Y33550D01*
X31267D01*
X31833Y32083D02*
X31792Y32125D01*
X31708D01*
X31667Y32083D01*
Y31917D01*
X31708Y31875D01*
X31792D01*
X31833Y31917D01*
X32042Y31875D02*
Y32125D01*
X31917Y32000D01*
X32083D01*
X32333Y32125D02*
X32167D01*
Y32000D01*
X32250Y32042D01*
X32292D01*
X32333Y32000D01*
Y31917D01*
X32292Y31875D01*
X32208D01*
X32167Y31917D01*
X31683Y29633D02*
X31642Y29675D01*
X31558D01*
X31517Y29633D01*
Y29467D01*
X31558Y29425D01*
X31642D01*
X31683Y29467D01*
X31892Y29425D02*
Y29675D01*
X31767Y29550D01*
X31933D01*
X32142Y29425D02*
Y29675D01*
X32017Y29550D01*
X32183D01*
X26933Y29333D02*
X26892Y29375D01*
X26808D01*
X26767Y29333D01*
Y29167D01*
X26808Y29125D01*
X26892D01*
X26933Y29167D01*
X27142Y29125D02*
Y29375D01*
X27017Y29250D01*
X27183D01*
X27267Y29333D02*
X27308Y29375D01*
X27392D01*
X27433Y29333D01*
Y29292D01*
X27392Y29250D01*
X27350D01*
X27392D01*
X27433Y29208D01*
Y29167D01*
X27392Y29125D01*
X27308D01*
X27267Y29167D01*
X31683Y27683D02*
X31642Y27725D01*
X31558D01*
X31517Y27683D01*
Y27517D01*
X31558Y27475D01*
X31642D01*
X31683Y27517D01*
X31892Y27475D02*
Y27725D01*
X31767Y27600D01*
X31933D01*
X32183Y27475D02*
X32017D01*
X32183Y27642D01*
Y27683D01*
X32142Y27725D01*
X32058D01*
X32017Y27683D01*
X31787Y26820D02*
X31745Y26862D01*
X31662D01*
X31620Y26820D01*
Y26653D01*
X31662Y26612D01*
X31745D01*
X31787Y26653D01*
X31995Y26612D02*
Y26862D01*
X31870Y26737D01*
X32037D01*
X32120Y26612D02*
X32204D01*
X32162D01*
Y26862D01*
X32120Y26820D01*
X31033Y23733D02*
X30992Y23775D01*
X30908D01*
X30867Y23733D01*
Y23567D01*
X30908Y23525D01*
X30992D01*
X31033Y23567D01*
X31242Y23525D02*
Y23775D01*
X31117Y23650D01*
X31283D01*
X31367Y23733D02*
X31408Y23775D01*
X31492D01*
X31533Y23733D01*
Y23567D01*
X31492Y23525D01*
X31408D01*
X31367Y23567D01*
Y23733D01*
X27367Y23733D02*
X27325Y23692D01*
Y23608D01*
X27367Y23567D01*
X27533D01*
X27575Y23608D01*
Y23692D01*
X27533Y23733D01*
X27367Y23817D02*
X27325Y23858D01*
Y23942D01*
X27367Y23983D01*
X27408D01*
X27450Y23942D01*
Y23900D01*
Y23942D01*
X27492Y23983D01*
X27533D01*
X27575Y23942D01*
Y23858D01*
X27533Y23817D01*
Y24067D02*
X27575Y24108D01*
Y24192D01*
X27533Y24233D01*
X27367D01*
X27325Y24192D01*
Y24108D01*
X27367Y24067D01*
X27408D01*
X27450Y24108D01*
Y24233D01*
X30883Y22983D02*
X30842Y23025D01*
X30758D01*
X30717Y22983D01*
Y22817D01*
X30758Y22775D01*
X30842D01*
X30883Y22817D01*
X30967Y22983D02*
X31008Y23025D01*
X31092D01*
X31133Y22983D01*
Y22942D01*
X31092Y22900D01*
X31050D01*
X31092D01*
X31133Y22858D01*
Y22817D01*
X31092Y22775D01*
X31008D01*
X30967Y22817D01*
X31217Y22983D02*
X31258Y23025D01*
X31342D01*
X31383Y22983D01*
Y22942D01*
X31342Y22900D01*
X31383Y22858D01*
Y22817D01*
X31342Y22775D01*
X31258D01*
X31217Y22817D01*
Y22858D01*
X31258Y22900D01*
X31217Y22942D01*
Y22983D01*
X31258Y22900D02*
X31342D01*
X31783Y21283D02*
X31742Y21325D01*
X31658D01*
X31617Y21283D01*
Y21117D01*
X31658Y21075D01*
X31742D01*
X31783Y21117D01*
X31867Y21283D02*
X31908Y21325D01*
X31992D01*
X32033Y21283D01*
Y21242D01*
X31992Y21200D01*
X31950D01*
X31992D01*
X32033Y21158D01*
Y21117D01*
X31992Y21075D01*
X31908D01*
X31867Y21117D01*
X32117Y21325D02*
X32283D01*
Y21283D01*
X32117Y21117D01*
Y21075D01*
X31683Y18783D02*
X31642Y18825D01*
X31558D01*
X31517Y18783D01*
Y18617D01*
X31558Y18575D01*
X31642D01*
X31683Y18617D01*
X31767Y18783D02*
X31808Y18825D01*
X31892D01*
X31933Y18783D01*
Y18742D01*
X31892Y18700D01*
X31850D01*
X31892D01*
X31933Y18658D01*
Y18617D01*
X31892Y18575D01*
X31808D01*
X31767Y18617D01*
X32183Y18825D02*
X32100Y18783D01*
X32017Y18700D01*
Y18617D01*
X32058Y18575D01*
X32142D01*
X32183Y18617D01*
Y18658D01*
X32142Y18700D01*
X32017D01*
X31633Y16533D02*
X31592Y16575D01*
X31508D01*
X31467Y16533D01*
Y16367D01*
X31508Y16325D01*
X31592D01*
X31633Y16367D01*
X31717Y16533D02*
X31758Y16575D01*
X31842D01*
X31883Y16533D01*
Y16492D01*
X31842Y16450D01*
X31800D01*
X31842D01*
X31883Y16408D01*
Y16367D01*
X31842Y16325D01*
X31758D01*
X31717Y16367D01*
X32133Y16575D02*
X31967D01*
Y16450D01*
X32050Y16492D01*
X32092D01*
X32133Y16450D01*
Y16367D01*
X32092Y16325D01*
X32008D01*
X31967Y16367D01*
X30583Y15033D02*
X30542Y15075D01*
X30458D01*
X30417Y15033D01*
Y14867D01*
X30458Y14825D01*
X30542D01*
X30583Y14867D01*
X30667Y15033D02*
X30708Y15075D01*
X30792D01*
X30833Y15033D01*
Y14992D01*
X30792Y14950D01*
X30750D01*
X30792D01*
X30833Y14908D01*
Y14867D01*
X30792Y14825D01*
X30708D01*
X30667Y14867D01*
X31042Y14825D02*
Y15075D01*
X30917Y14950D01*
X31083D01*
X31133Y12683D02*
X31092Y12725D01*
X31008D01*
X30967Y12683D01*
Y12517D01*
X31008Y12475D01*
X31092D01*
X31133Y12517D01*
X31217Y12683D02*
X31258Y12725D01*
X31342D01*
X31383Y12683D01*
Y12642D01*
X31342Y12600D01*
X31300D01*
X31342D01*
X31383Y12558D01*
Y12517D01*
X31342Y12475D01*
X31258D01*
X31217Y12517D01*
X31467Y12683D02*
X31508Y12725D01*
X31592D01*
X31633Y12683D01*
Y12642D01*
X31592Y12600D01*
X31550D01*
X31592D01*
X31633Y12558D01*
Y12517D01*
X31592Y12475D01*
X31508D01*
X31467Y12517D01*
X26833Y12983D02*
X26792Y13025D01*
X26708D01*
X26667Y12983D01*
Y12817D01*
X26708Y12775D01*
X26792D01*
X26833Y12817D01*
X26917Y12983D02*
X26958Y13025D01*
X27042D01*
X27083Y12983D01*
Y12942D01*
X27042Y12900D01*
X27000D01*
X27042D01*
X27083Y12858D01*
Y12817D01*
X27042Y12775D01*
X26958D01*
X26917Y12817D01*
X27333Y12775D02*
X27167D01*
X27333Y12942D01*
Y12983D01*
X27292Y13025D01*
X27208D01*
X27167Y12983D01*
X25625Y27733D02*
X25583Y27775D01*
X25500D01*
X25458Y27733D01*
Y27567D01*
X25500Y27525D01*
X25583D01*
X25625Y27567D01*
X25708Y27733D02*
X25750Y27775D01*
X25833D01*
X25875Y27733D01*
Y27692D01*
X25833Y27650D01*
X25792D01*
X25833D01*
X25875Y27608D01*
Y27567D01*
X25833Y27525D01*
X25750D01*
X25708Y27567D01*
X25958Y27525D02*
X26042D01*
X26000D01*
Y27775D01*
X25958Y27733D01*
X26633D02*
X26592Y27775D01*
X26508D01*
X26467Y27733D01*
Y27567D01*
X26508Y27525D01*
X26592D01*
X26633Y27567D01*
X26717Y27733D02*
X26758Y27775D01*
X26842D01*
X26883Y27733D01*
Y27692D01*
X26842Y27650D01*
X26800D01*
X26842D01*
X26883Y27608D01*
Y27567D01*
X26842Y27525D01*
X26758D01*
X26717Y27567D01*
X26967Y27733D02*
X27008Y27775D01*
X27092D01*
X27133Y27733D01*
Y27567D01*
X27092Y27525D01*
X27008D01*
X26967Y27567D01*
Y27733D01*
X20280Y29276D02*
X20239Y29318D01*
X20155D01*
X20114Y29276D01*
Y29110D01*
X20155Y29068D01*
X20239D01*
X20280Y29110D01*
X20530Y29068D02*
X20364D01*
X20530Y29235D01*
Y29276D01*
X20489Y29318D01*
X20405D01*
X20364Y29276D01*
X20614Y29110D02*
X20655Y29068D01*
X20739D01*
X20780Y29110D01*
Y29276D01*
X20739Y29318D01*
X20655D01*
X20614Y29276D01*
Y29235D01*
X20655Y29193D01*
X20780D01*
X20633Y23083D02*
X20592Y23125D01*
X20508D01*
X20467Y23083D01*
Y22917D01*
X20508Y22875D01*
X20592D01*
X20633Y22917D01*
X20883Y22875D02*
X20717D01*
X20883Y23042D01*
Y23083D01*
X20842Y23125D01*
X20758D01*
X20717Y23083D01*
X20967Y23125D02*
X21133D01*
Y23083D01*
X20967Y22917D01*
Y22875D01*
X19183Y27433D02*
X19142Y27475D01*
X19058D01*
X19017Y27433D01*
Y27267D01*
X19058Y27225D01*
X19142D01*
X19183Y27267D01*
X19433Y27225D02*
X19267D01*
X19433Y27392D01*
Y27433D01*
X19392Y27475D01*
X19308D01*
X19267Y27433D01*
X19683Y27475D02*
X19517D01*
Y27350D01*
X19600Y27392D01*
X19642D01*
X19683Y27350D01*
Y27267D01*
X19642Y27225D01*
X19558D01*
X19517Y27267D01*
X18533Y25733D02*
X18492Y25775D01*
X18408D01*
X18367Y25733D01*
Y25567D01*
X18408Y25525D01*
X18492D01*
X18533Y25567D01*
X18783Y25525D02*
X18617D01*
X18783Y25692D01*
Y25733D01*
X18742Y25775D01*
X18658D01*
X18617Y25733D01*
X18992Y25525D02*
Y25775D01*
X18867Y25650D01*
X19033D01*
X25733Y22233D02*
X25692Y22275D01*
X25608D01*
X25567Y22233D01*
Y22067D01*
X25608Y22025D01*
X25692D01*
X25733Y22067D01*
X25983Y22025D02*
X25817D01*
X25983Y22192D01*
Y22233D01*
X25942Y22275D01*
X25858D01*
X25817Y22233D01*
X26233Y22025D02*
X26067D01*
X26233Y22192D01*
Y22233D01*
X26192Y22275D01*
X26108D01*
X26067Y22233D01*
X26775D02*
X26733Y22275D01*
X26650D01*
X26608Y22233D01*
Y22067D01*
X26650Y22025D01*
X26733D01*
X26775Y22067D01*
X27025Y22025D02*
X26858D01*
X27025Y22192D01*
Y22233D01*
X26983Y22275D01*
X26900D01*
X26858Y22233D01*
X27108Y22025D02*
X27192D01*
X27150D01*
Y22275D01*
X27108Y22233D01*
X19554Y17583D02*
X19513Y17625D01*
X19429D01*
X19388Y17583D01*
Y17417D01*
X19429Y17375D01*
X19513D01*
X19554Y17417D01*
X19638Y17375D02*
X19721D01*
X19679D01*
Y17625D01*
X19638Y17583D01*
X19846D02*
X19887Y17625D01*
X19971D01*
X20012Y17583D01*
Y17542D01*
X19971Y17500D01*
X20012Y17458D01*
Y17417D01*
X19971Y17375D01*
X19887D01*
X19846Y17417D01*
Y17458D01*
X19887Y17500D01*
X19846Y17542D01*
Y17583D01*
X19887Y17500D02*
X19971D01*
X19104Y21883D02*
X19063Y21925D01*
X18979D01*
X18938Y21883D01*
Y21717D01*
X18979Y21675D01*
X19063D01*
X19104Y21717D01*
X19188Y21675D02*
X19271D01*
X19229D01*
Y21925D01*
X19188Y21883D01*
X19562Y21925D02*
X19479Y21883D01*
X19396Y21800D01*
Y21717D01*
X19437Y21675D01*
X19521D01*
X19562Y21717D01*
Y21758D01*
X19521Y21800D01*
X19396D01*
X26883Y18533D02*
X26842Y18575D01*
X26758D01*
X26717Y18533D01*
Y18367D01*
X26758Y18325D01*
X26842D01*
X26883Y18367D01*
X27133Y18575D02*
X27050Y18533D01*
X26967Y18450D01*
Y18367D01*
X27008Y18325D01*
X27092D01*
X27133Y18367D01*
Y18408D01*
X27092Y18450D01*
X26967D01*
X27217Y18575D02*
X27383D01*
Y18533D01*
X27217Y18367D01*
Y18325D01*
X18817Y19804D02*
X18775Y19763D01*
Y19679D01*
X18817Y19638D01*
X18983D01*
X19025Y19679D01*
Y19763D01*
X18983Y19804D01*
X19025Y19888D02*
Y19971D01*
Y19929D01*
X18775D01*
X18817Y19888D01*
X18775Y20262D02*
Y20096D01*
X18900D01*
X18858Y20179D01*
Y20221D01*
X18900Y20262D01*
X18983D01*
X19025Y20221D01*
Y20137D01*
X18983Y20096D01*
X41258Y25633D02*
X41217Y25675D01*
X41133D01*
X41092Y25633D01*
Y25467D01*
X41133Y25425D01*
X41217D01*
X41258Y25467D01*
X41342Y25633D02*
X41383Y25675D01*
X41467D01*
X41508Y25633D01*
Y25592D01*
X41467Y25550D01*
X41508Y25508D01*
Y25467D01*
X41467Y25425D01*
X41383D01*
X41342Y25467D01*
Y25508D01*
X41383Y25550D01*
X41342Y25592D01*
Y25633D01*
X41383Y25550D02*
X41467D01*
X41308Y28833D02*
X41267Y28875D01*
X41183D01*
X41142Y28833D01*
Y28667D01*
X41183Y28625D01*
X41267D01*
X41308Y28667D01*
X41392Y28875D02*
X41558D01*
Y28833D01*
X41392Y28667D01*
Y28625D01*
X39408Y28833D02*
X39367Y28875D01*
X39283D01*
X39242Y28833D01*
Y28667D01*
X39283Y28625D01*
X39367D01*
X39408Y28667D01*
X39658Y28875D02*
X39575Y28833D01*
X39492Y28750D01*
Y28667D01*
X39533Y28625D01*
X39617D01*
X39658Y28667D01*
Y28708D01*
X39617Y28750D01*
X39492D01*
X43208Y23033D02*
X43167Y23075D01*
X43083D01*
X43042Y23033D01*
Y22867D01*
X43083Y22825D01*
X43167D01*
X43208Y22867D01*
X43292Y23033D02*
X43333Y23075D01*
X43417D01*
X43458Y23033D01*
Y22992D01*
X43417Y22950D01*
X43375D01*
X43417D01*
X43458Y22908D01*
Y22867D01*
X43417Y22825D01*
X43333D01*
X43292Y22867D01*
X43208Y20533D02*
X43167Y20575D01*
X43083D01*
X43042Y20533D01*
Y20367D01*
X43083Y20325D01*
X43167D01*
X43208Y20367D01*
X43458Y20325D02*
X43292D01*
X43458Y20492D01*
Y20533D01*
X43417Y20575D01*
X43333D01*
X43292Y20533D01*
M02*
