G04*
G04 #@! TF.GenerationSoftware,Altium Limited,Altium Designer,22.9.1 (49)*
G04*
G04 Layer_Color=0*
%FSLAX24Y24*%
%MOIN*%
G70*
G04*
G04 #@! TF.SameCoordinates,6D7A1F5F-4F27-45E7-A4E1-8399A659D1EC*
G04*
G04*
G04 #@! TF.FilePolarity,Positive*
G04*
G01*
G75*
%ADD80C,0.0039*%
D80*
X17300Y37503D02*
Y37897D01*
X17103Y37700D02*
X17497D01*
X18393Y26240D02*
X18787D01*
X18590Y26043D02*
Y26437D01*
X21250Y8653D02*
Y9047D01*
X21053Y8850D02*
X21447D01*
X20050Y10503D02*
Y10897D01*
X19853Y10700D02*
X20247D01*
X12203Y29100D02*
X12597D01*
X12400Y28903D02*
Y29297D01*
X11003Y29105D02*
X11397D01*
X11200Y28908D02*
Y29302D01*
X18500Y15203D02*
Y15597D01*
X18303Y15400D02*
X18697D01*
X14603Y16400D02*
X14997D01*
X14800Y16203D02*
Y16597D01*
X20853Y12700D02*
X21247D01*
X21050Y12503D02*
Y12897D01*
X13703Y16416D02*
X14097D01*
X13900Y16219D02*
Y16613D01*
X12053Y34605D02*
X12447D01*
X12250Y34408D02*
Y34802D01*
X23390Y28743D02*
Y29137D01*
X23193Y28940D02*
X23587D01*
X22240Y28743D02*
Y29137D01*
X22043Y28940D02*
X22437D01*
X19640Y30793D02*
Y31187D01*
X19443Y30990D02*
X19837D01*
X19553Y34400D02*
X19947D01*
X19750Y34203D02*
Y34597D01*
X25743Y34390D02*
X26137D01*
X25940Y34193D02*
Y34587D01*
X24190Y26049D02*
Y26442D01*
X23993Y26246D02*
X24387D01*
X19477Y32143D02*
Y32537D01*
X19280Y32340D02*
X19673D01*
X14614Y31593D02*
Y31987D01*
X14417Y31790D02*
X14811D01*
X8427Y32343D02*
Y32737D01*
X8230Y32540D02*
X8623D01*
X7990Y23249D02*
Y23643D01*
X7793Y23446D02*
X8187D01*
X9544Y23293D02*
Y23687D01*
X9347Y23490D02*
X9741D01*
X13542Y23199D02*
Y23593D01*
X13345Y23396D02*
X13739D01*
X15140Y23193D02*
Y23587D01*
X14943Y23390D02*
X15337D01*
X19240Y23093D02*
Y23487D01*
X19043Y23290D02*
X19437D01*
X20890Y23093D02*
Y23487D01*
X20693Y23290D02*
X21087D01*
X24794Y23106D02*
Y23500D01*
X24597Y23303D02*
X24991D01*
X26444Y23130D02*
Y23524D01*
X26247Y23327D02*
X26641D01*
X8453Y31190D02*
X8846D01*
X8650Y30993D02*
Y31387D01*
X15140Y34093D02*
Y34487D01*
X14943Y34290D02*
X15337D01*
X8750Y34253D02*
Y34647D01*
X8553Y34450D02*
X8947D01*
X11402Y34403D02*
Y34797D01*
X11205Y34600D02*
X11599D01*
X23290Y34243D02*
Y34637D01*
X23093Y34440D02*
X23487D01*
X22193D02*
X22587D01*
X22390Y34243D02*
Y34637D01*
X7142Y23143D02*
Y23537D01*
X6945Y23340D02*
X7338D01*
X12694Y23093D02*
Y23487D01*
X12497Y23290D02*
X12891D01*
X18390Y23038D02*
Y23432D01*
X18193Y23235D02*
X18587D01*
X23994Y23043D02*
Y23437D01*
X23797Y23240D02*
X24191D01*
X8543Y22506D02*
X8937D01*
X8740Y22309D02*
Y22703D01*
X14143Y22390D02*
X14537D01*
X14340Y22193D02*
Y22587D01*
X19848Y22240D02*
X20241D01*
X20044Y22043D02*
Y22437D01*
X25594Y22209D02*
Y22603D01*
X25397Y22406D02*
X25791D01*
X10392Y23106D02*
Y23500D01*
X10195Y23303D02*
X10589D01*
X15992Y23056D02*
Y23450D01*
X15795Y23253D02*
X16189D01*
X21740Y23043D02*
Y23437D01*
X21543Y23240D02*
X21937D01*
X27292Y22993D02*
Y23387D01*
X27095Y23190D02*
X27489D01*
X7290Y26149D02*
Y26542D01*
X7093Y26346D02*
X7487D01*
X12940Y26143D02*
Y26537D01*
X12743Y26340D02*
X13137D01*
X25664Y31443D02*
Y31837D01*
X25467Y31640D02*
X25861D01*
X12853Y17900D02*
X13247D01*
X13050Y17703D02*
Y18097D01*
X19950Y17453D02*
Y17847D01*
X19753Y17650D02*
X20147D01*
X18453Y16600D02*
X18847D01*
X18650Y16403D02*
Y16797D01*
M02*
