G04*
G04 #@! TF.GenerationSoftware,Altium Limited,Altium Designer,22.9.1 (49)*
G04*
G04 Layer_Color=65535*
%FSLAX24Y24*%
%MOIN*%
G70*
G04*
G04 #@! TF.SameCoordinates,6AD6DEC8-1011-45A6-BAB9-DD1AC54A96FA*
G04*
G04*
G04 #@! TF.FilePolarity,Positive*
G04*
G01*
G75*
%ADD10C,0.0098*%
%ADD11C,0.0100*%
%ADD12C,0.0079*%
%ADD13C,0.0157*%
%ADD14C,0.0050*%
%ADD15C,0.0070*%
%ADD16C,0.0120*%
D10*
X23899Y37700D02*
G03*
X23899Y37700I-49J0D01*
G01*
X19457Y9620D02*
G03*
X19457Y9620I-49J0D01*
G01*
X24843Y25451D02*
G03*
X24843Y25451I-49J0D01*
G01*
X19289D02*
G03*
X19289Y25451I-49J0D01*
G01*
X24844Y32842D02*
G03*
X24844Y32842I-49J0D01*
G01*
X13543Y25501D02*
G03*
X13543Y25501I-49J0D01*
G01*
X7943Y25551D02*
G03*
X7943Y25551I-49J0D01*
G01*
X13794Y32992D02*
G03*
X13794Y32992I-49J0D01*
G01*
X9339Y14150D02*
G03*
X9339Y14150I-49J0D01*
G01*
D11*
X17455Y18208D02*
G03*
X17455Y18208I-50J0D01*
G01*
X26100Y7900D02*
X27400D01*
X26100Y9950D02*
X27400D01*
Y7900D02*
Y9950D01*
X26100Y7900D02*
Y9950D01*
X25894Y25961D02*
Y26561D01*
X26494Y25961D02*
Y26561D01*
X25294Y25990D02*
Y26590D01*
X24694Y25990D02*
Y26590D01*
X13394Y25990D02*
Y26590D01*
X15294Y26011D02*
Y26611D01*
X14494Y26011D02*
Y26611D01*
X8940Y26040D02*
Y26640D01*
X9640Y26040D02*
Y26640D01*
X8444Y26040D02*
Y26640D01*
X7740Y26040D02*
Y26640D01*
X14194Y25990D02*
Y26590D01*
X19740Y26040D02*
Y26540D01*
X19140Y26040D02*
Y26540D01*
X20340Y26040D02*
Y26540D01*
X20940Y26040D02*
Y26540D01*
D12*
X12058Y14359D02*
G03*
X12058Y14359I-39J0D01*
G01*
X24720Y26900D02*
G03*
X24720Y26900I-20J0D01*
G01*
X18871Y22760D02*
G03*
X18871Y22760I-20J0D01*
G01*
X13221Y23810D02*
G03*
X13221Y23810I-20J0D01*
G01*
X6521Y25560D02*
G03*
X6521Y25560I-20J0D01*
G01*
X7609Y22840D02*
G03*
X7609Y22840I-20J0D01*
G01*
X21370Y25500D02*
G03*
X21370Y25500I-20J0D01*
G01*
X25009Y32590D02*
G03*
X25009Y32590I-20J0D01*
G01*
X25120Y33750D02*
G03*
X25120Y33750I-20J0D01*
G01*
X25309Y35190D02*
G03*
X25309Y35190I-20J0D01*
G01*
X26870Y25500D02*
G03*
X26870Y25500I-20J0D01*
G01*
X25863Y26740D02*
G03*
X25863Y26740I-20J0D01*
G01*
X25120Y21950D02*
G03*
X25120Y21950I-20J0D01*
G01*
X24470Y25650D02*
G03*
X24470Y25650I-20J0D01*
G01*
X23220Y25500D02*
G03*
X23220Y25500I-20J0D01*
G01*
X17870Y25400D02*
G03*
X17870Y25400I-20J0D01*
G01*
X24470Y22750D02*
G03*
X24470Y22750I-20J0D01*
G01*
Y23750D02*
G03*
X24470Y23750I-20J0D01*
G01*
X26120D02*
G03*
X26120Y23750I-20J0D01*
G01*
X21520Y33750D02*
G03*
X21520Y33750I-20J0D01*
G01*
X22759Y33940D02*
G03*
X22759Y33940I-20J0D01*
G01*
X14913Y23740D02*
G03*
X14913Y23740I-20J0D01*
G01*
X13070Y22800D02*
G03*
X13070Y22800I-20J0D01*
G01*
X13409Y26790D02*
G03*
X13409Y26790I-20J0D01*
G01*
X13809Y21890D02*
G03*
X13809Y21890I-20J0D01*
G01*
X14563Y26790D02*
G03*
X14563Y26790I-20J0D01*
G01*
X16059Y25740D02*
G03*
X16059Y25740I-20J0D01*
G01*
X10120Y25600D02*
G03*
X10120Y25600I-20J0D01*
G01*
X8920Y26850D02*
G03*
X8920Y26850I-20J0D01*
G01*
X9220Y22950D02*
G03*
X9220Y22950I-20J0D01*
G01*
X7659Y25890D02*
G03*
X7659Y25890I-20J0D01*
G01*
X9259Y23940D02*
G03*
X9259Y23940I-20J0D01*
G01*
X10859Y22790D02*
G03*
X10859Y22790I-20J0D01*
G01*
X16509Y22690D02*
G03*
X16509Y22690I-20J0D01*
G01*
X7659Y23890D02*
G03*
X7659Y23890I-20J0D01*
G01*
X20409Y33040D02*
G03*
X20409Y33040I-20J0D01*
G01*
X23609Y33940D02*
G03*
X23609Y33940I-20J0D01*
G01*
X20459Y22490D02*
G03*
X20459Y22490I-20J0D01*
G01*
X22209Y22640D02*
G03*
X22209Y22640I-20J0D01*
G01*
X18709Y22490D02*
G03*
X18709Y22490I-20J0D01*
G01*
X19059Y26740D02*
G03*
X19059Y26740I-20J0D01*
G01*
X18959Y25790D02*
G03*
X18959Y25790I-20J0D01*
G01*
X18920Y23750D02*
G03*
X18920Y23750I-20J0D01*
G01*
X20570D02*
G03*
X20570Y23750I-20J0D01*
G01*
X20259Y26690D02*
G03*
X20259Y26690I-20J0D01*
G01*
X27759Y22690D02*
G03*
X27759Y22690I-20J0D01*
G01*
X20409Y31590D02*
G03*
X20409Y31590I-20J0D01*
G01*
X19359Y35240D02*
G03*
X19359Y35240I-20J0D01*
G01*
X6061Y29174D02*
X6139D01*
X6061Y29626D02*
X6139D01*
X6061Y28385D02*
X6139D01*
X6061Y28837D02*
X6139D01*
X6061Y27595D02*
X6139D01*
X6061Y28048D02*
X6139D01*
X6061Y26806D02*
X6139D01*
X6061Y27259D02*
X6139D01*
X27611Y27226D02*
X27689D01*
X27611Y26774D02*
X27689D01*
X27611Y28026D02*
X27689D01*
X27611Y27574D02*
X27689D01*
X27611Y28815D02*
X27689D01*
X27611Y28363D02*
X27689D01*
X27611Y29605D02*
X27689D01*
X27611Y29152D02*
X27689D01*
X23481Y37169D02*
Y38231D01*
X11119D02*
X23481D01*
X11119Y37169D02*
Y38231D01*
Y37169D02*
X23481D01*
X6477Y24838D02*
Y24917D01*
X6970Y24838D02*
Y24917D01*
X18856Y25847D02*
Y26634D01*
X18324Y25847D02*
Y26634D01*
X25750Y10350D02*
X27750D01*
X25750Y15350D02*
X27750D01*
Y10350D02*
Y15350D01*
X25750Y10350D02*
Y15350D01*
X20983Y7885D02*
Y9815D01*
Y7885D02*
X21517D01*
Y9815D01*
X20983D02*
X21517D01*
X19715Y11035D02*
X20385D01*
X19715Y10365D02*
X20385D01*
X12065Y28765D02*
Y29435D01*
X12735Y28765D02*
Y29435D01*
X10865Y28770D02*
Y29439D01*
X11535Y28770D02*
Y29439D01*
X24896Y34261D02*
Y34340D01*
X24404Y34261D02*
Y34340D01*
X21141Y34261D02*
Y34340D01*
X20649Y34261D02*
Y34340D01*
X14241Y34411D02*
Y34490D01*
X13749Y34411D02*
Y34490D01*
X10196Y34411D02*
Y34490D01*
X9704Y34411D02*
Y34490D01*
X18165Y15735D02*
X18835D01*
X18165Y15065D02*
X18835D01*
X14465Y16065D02*
Y16735D01*
X15135Y16065D02*
Y16735D01*
X21709Y13920D02*
X21778D01*
X20322D02*
X20391D01*
X20322Y11480D02*
Y13920D01*
X21709Y11480D02*
X21778D01*
X20322D02*
X20391D01*
X21778D02*
Y13920D01*
X13543Y15862D02*
Y16969D01*
X14257Y15862D02*
Y16969D01*
X12585Y34270D02*
Y34939D01*
X11915Y34270D02*
Y34939D01*
X23724Y28606D02*
Y29275D01*
X23055Y28606D02*
Y29275D01*
X22574Y28606D02*
Y29275D01*
X21905Y28606D02*
Y29275D01*
X18989Y30526D02*
X20291D01*
X18989Y31454D02*
X20291D01*
X20214Y33749D02*
Y35051D01*
X19286Y33749D02*
Y35051D01*
X25207Y24152D02*
X26034D01*
X25207Y25373D02*
X26034D01*
Y24152D02*
Y25373D01*
X25207Y24152D02*
Y25373D01*
X26404Y33739D02*
Y35041D01*
X25476Y33739D02*
Y35041D01*
X23924Y25852D02*
Y26639D01*
X24456Y25852D02*
Y26639D01*
X19653Y24152D02*
X20480D01*
X19653Y25373D02*
X20480D01*
Y24152D02*
Y25373D01*
X19653Y24152D02*
Y25373D01*
X19310Y31975D02*
X19643D01*
X19310Y32706D02*
X19643D01*
X20897Y30913D02*
Y32369D01*
X24756Y30913D02*
Y32369D01*
X20897Y30913D02*
X24756D01*
X20897Y32369D02*
X24756D01*
X14249Y31624D02*
Y31957D01*
X14980Y31624D02*
Y31957D01*
X8260Y32175D02*
X8593D01*
X8260Y32906D02*
X8593D01*
X13907Y24202D02*
Y25423D01*
X14734Y24202D02*
Y25423D01*
X13907D02*
X14734D01*
X13907Y24202D02*
X14734D01*
X8307Y24252D02*
Y25473D01*
X9134Y24252D02*
Y25473D01*
X8307D02*
X9134D01*
X8307Y24252D02*
X9134D01*
X9847Y32519D02*
X13706D01*
X9847Y31063D02*
X13706D01*
Y32519D01*
X9847Y31063D02*
Y32519D01*
X8324Y23150D02*
Y23741D01*
X7655Y23150D02*
Y23741D01*
X9878Y23195D02*
Y23786D01*
X9209Y23195D02*
Y23786D01*
X13877Y23101D02*
Y23691D01*
X13207Y23101D02*
Y23691D01*
X15474Y23095D02*
Y23686D01*
X14805Y23095D02*
Y23686D01*
X19574Y22995D02*
Y23586D01*
X18905Y22995D02*
Y23586D01*
X21224Y22995D02*
Y23586D01*
X20555Y22995D02*
Y23586D01*
X25128Y23008D02*
Y23599D01*
X24459Y23008D02*
Y23599D01*
X26778Y23032D02*
Y23623D01*
X26109Y23032D02*
Y23623D01*
X10977Y24803D02*
Y24882D01*
X10485Y24803D02*
Y24882D01*
X16546Y24761D02*
Y24839D01*
X16054Y24761D02*
Y24839D01*
X22323Y24738D02*
Y24817D01*
X21831Y24738D02*
Y24817D01*
X27868Y24690D02*
Y24769D01*
X27376Y24690D02*
Y24769D01*
X12547Y24803D02*
Y24882D01*
X12055Y24803D02*
Y24882D01*
X17822Y24733D02*
Y24811D01*
X18314Y24733D02*
Y24811D01*
X23379Y24738D02*
Y24817D01*
X23871Y24738D02*
Y24817D01*
X7999Y31654D02*
X9300D01*
X7999Y30726D02*
X9300D01*
X14676Y33639D02*
Y34941D01*
X15604Y33639D02*
Y34941D01*
X8286Y33799D02*
Y35101D01*
X9214Y33799D02*
Y35101D01*
X11067Y34265D02*
Y34935D01*
X11737Y34265D02*
Y34935D01*
X22955Y34106D02*
Y34775D01*
X23624Y34106D02*
Y34775D01*
X22724Y34106D02*
Y34775D01*
X22055Y34106D02*
Y34775D01*
X6807Y23006D02*
Y23675D01*
X7476Y23006D02*
Y23675D01*
X12359Y22956D02*
Y23625D01*
X13028Y22956D02*
Y23625D01*
X18055Y22900D02*
Y23570D01*
X18724Y22900D02*
Y23570D01*
X23659Y22906D02*
Y23575D01*
X24328Y22906D02*
Y23575D01*
X8405Y22171D02*
X9074D01*
X8405Y22841D02*
X9074D01*
X14005Y22725D02*
X14674D01*
X14005Y22056D02*
X14674D01*
X19710Y21906D02*
X20379D01*
X19710Y22575D02*
X20379D01*
X25259Y22071D02*
X25928D01*
X25259Y22741D02*
X25928D01*
X10057Y22969D02*
Y23638D01*
X10727Y22969D02*
Y23638D01*
X15657Y22919D02*
Y23588D01*
X16327Y22919D02*
Y23588D01*
X21405Y22906D02*
Y23575D01*
X22074Y22906D02*
Y23575D01*
X26957Y22856D02*
Y23525D01*
X27627Y22856D02*
Y23525D01*
X7024Y25952D02*
Y26739D01*
X7556Y25952D02*
Y26739D01*
X12674Y25947D02*
Y26734D01*
X13206Y25947D02*
Y26734D01*
X25299Y31474D02*
Y31807D01*
X26030Y31474D02*
Y31807D01*
X13463Y17408D02*
Y18392D01*
X12637Y17408D02*
Y18392D01*
X19593Y17096D02*
Y18204D01*
X20307Y17096D02*
Y18204D01*
X18355Y16265D02*
Y16935D01*
X18945Y16265D02*
Y16935D01*
X802Y10225D02*
X4566D01*
X802Y15575D02*
X4566D01*
X5432Y10225D02*
X9054D01*
X5432Y15575D02*
X9054D01*
X802Y10225D02*
Y15575D01*
X9054Y10225D02*
Y15575D01*
D13*
X25601Y25058D02*
G03*
X25601Y25058I-79J0D01*
G01*
X20047D02*
G03*
X20047Y25058I-79J0D01*
G01*
X14301Y25108D02*
G03*
X14301Y25108I-79J0D01*
G01*
X8701Y25158D02*
G03*
X8701Y25158I-79J0D01*
G01*
X21540Y10543D02*
Y10957D01*
D14*
X15836Y11111D02*
X15954D01*
X15836Y14654D02*
X15954D01*
X12411Y11111D02*
X12529D01*
X12411Y14654D02*
X12529D01*
X15954Y11111D02*
Y11229D01*
Y14536D02*
Y14654D01*
X12411Y11111D02*
Y11229D01*
Y14536D02*
Y14654D01*
X6119Y17261D02*
Y17556D01*
Y18344D02*
Y18639D01*
X8481Y18344D02*
Y18639D01*
Y17261D02*
Y17556D01*
X6749Y17655D02*
X7851D01*
X6749D02*
Y18245D01*
X7851D01*
Y17655D02*
Y18245D01*
X6119Y17261D02*
X8481D01*
X6119Y18639D02*
X8481D01*
D15*
X13020Y38770D02*
Y38470D01*
X13170D01*
X13220Y38520D01*
Y38720D01*
X13170Y38770D01*
X13020D01*
X13320Y38620D02*
X13520D01*
X14320Y38770D02*
Y38470D01*
X14470D01*
X14520Y38520D01*
Y38720D01*
X14470Y38770D01*
X14320D01*
X14620Y38620D02*
X14820D01*
X14720Y38720D02*
Y38520D01*
X15920Y38720D02*
X15870Y38770D01*
X15770D01*
X15720Y38720D01*
Y38520D01*
X15770Y38470D01*
X15870D01*
X15920Y38520D01*
X16020Y38620D02*
X16220D01*
X16120Y38720D02*
Y38520D01*
X17320Y38720D02*
X17270Y38770D01*
X17170D01*
X17120Y38720D01*
Y38520D01*
X17170Y38470D01*
X17270D01*
X17320Y38520D01*
X17420Y38620D02*
X17620D01*
X18520Y38770D02*
Y38470D01*
X18670D01*
X18720Y38520D01*
Y38570D01*
X18670Y38620D01*
X18520D01*
X18670D01*
X18720Y38670D01*
Y38720D01*
X18670Y38770D01*
X18520D01*
X18820Y38620D02*
X19020D01*
X19870Y38770D02*
Y38470D01*
X20020D01*
X20070Y38520D01*
Y38570D01*
X20020Y38620D01*
X19870D01*
X20020D01*
X20070Y38670D01*
Y38720D01*
X20020Y38770D01*
X19870D01*
X20170Y38620D02*
X20370D01*
X20270Y38720D02*
Y38520D01*
X21270Y38470D02*
Y38670D01*
X21370Y38770D01*
X21470Y38670D01*
Y38470D01*
Y38620D01*
X21270D01*
X21570D02*
X21770D01*
X21670Y38720D02*
Y38520D01*
X22620Y38470D02*
Y38670D01*
X22720Y38770D01*
X22820Y38670D01*
Y38470D01*
Y38620D01*
X22620D01*
X22920D02*
X23120D01*
X10020Y20220D02*
X9970Y20270D01*
X9870D01*
X9820Y20220D01*
Y20020D01*
X9870Y19970D01*
X9970D01*
X10020Y20020D01*
X10120Y20270D02*
Y19970D01*
Y20120D01*
X10320D01*
Y20270D01*
Y19970D01*
X10420Y20270D02*
X10620D01*
Y20220D01*
X10420Y20020D01*
Y19970D01*
X10820D02*
X10720Y20070D01*
Y20170D01*
X10820Y20270D01*
X10970Y20120D02*
X11170D01*
X11270Y19970D02*
X11370Y20070D01*
Y20170D01*
X11270Y20270D01*
X12620Y21370D02*
X12570Y21420D01*
X12470D01*
X12420Y21370D01*
Y21170D01*
X12470Y21120D01*
X12570D01*
X12620Y21170D01*
X12720Y21420D02*
Y21120D01*
Y21270D01*
X12920D01*
Y21420D01*
Y21120D01*
X13220Y21420D02*
X13020D01*
Y21270D01*
X13120Y21320D01*
X13170D01*
X13220Y21270D01*
Y21170D01*
X13170Y21120D01*
X13070D01*
X13020Y21170D01*
X13420Y21120D02*
X13320Y21220D01*
Y21320D01*
X13420Y21420D01*
X13570Y21270D02*
X13770D01*
X13870Y21120D02*
X13970Y21220D01*
Y21320D01*
X13870Y21420D01*
X15120Y21420D02*
X15070Y21470D01*
X14970D01*
X14920Y21420D01*
Y21220D01*
X14970Y21170D01*
X15070D01*
X15120Y21220D01*
X15220Y21470D02*
Y21170D01*
Y21320D01*
X15420D01*
Y21470D01*
Y21170D01*
X15670D02*
Y21470D01*
X15520Y21320D01*
X15720D01*
X15920Y21170D02*
X15820Y21270D01*
Y21370D01*
X15920Y21470D01*
X16070Y21320D02*
X16270D01*
X16170Y21420D02*
Y21220D01*
X16370Y21170D02*
X16470Y21270D01*
Y21370D01*
X16370Y21470D01*
X17920Y21420D02*
X17870Y21470D01*
X17770D01*
X17720Y21420D01*
Y21220D01*
X17770Y21170D01*
X17870D01*
X17920Y21220D01*
X18020Y21470D02*
Y21170D01*
Y21320D01*
X18220D01*
Y21470D01*
Y21170D01*
X18320Y21420D02*
X18370Y21470D01*
X18470D01*
X18520Y21420D01*
Y21370D01*
X18470Y21320D01*
X18420D01*
X18470D01*
X18520Y21270D01*
Y21220D01*
X18470Y21170D01*
X18370D01*
X18320Y21220D01*
X18720Y21170D02*
X18620Y21270D01*
Y21370D01*
X18720Y21470D01*
X18870Y21320D02*
X19070D01*
X19170Y21170D02*
X19269Y21270D01*
Y21370D01*
X19170Y21470D01*
X19870Y20670D02*
X19820Y20720D01*
X19720D01*
X19670Y20670D01*
Y20470D01*
X19720Y20420D01*
X19820D01*
X19870Y20470D01*
X19970Y20720D02*
Y20420D01*
Y20570D01*
X20170D01*
Y20720D01*
Y20420D01*
X20470D02*
X20270D01*
X20470Y20620D01*
Y20670D01*
X20420Y20720D01*
X20320D01*
X20270Y20670D01*
X20670Y20420D02*
X20570Y20520D01*
Y20620D01*
X20670Y20720D01*
X20820Y20570D02*
X21020D01*
X20920Y20670D02*
Y20470D01*
X21120Y20420D02*
X21219Y20520D01*
Y20620D01*
X21120Y20720D01*
X22720Y21670D02*
X22670Y21720D01*
X22570D01*
X22520Y21670D01*
Y21470D01*
X22570Y21420D01*
X22670D01*
X22720Y21470D01*
X22820Y21720D02*
Y21420D01*
Y21570D01*
X23020D01*
Y21720D01*
Y21420D01*
X23120D02*
X23220D01*
X23170D01*
Y21720D01*
X23120Y21670D01*
X23470Y21420D02*
X23370Y21520D01*
Y21620D01*
X23470Y21720D01*
X23620Y21570D02*
X23820D01*
X23920Y21420D02*
X24020Y21520D01*
Y21620D01*
X23920Y21720D01*
X23020Y19820D02*
X22970Y19870D01*
X22870D01*
X22820Y19820D01*
Y19620D01*
X22870Y19570D01*
X22970D01*
X23020Y19620D01*
X23120Y19870D02*
Y19570D01*
Y19720D01*
X23320D01*
Y19870D01*
Y19570D01*
X23420Y19820D02*
X23470Y19870D01*
X23570D01*
X23620Y19820D01*
Y19620D01*
X23570Y19570D01*
X23470D01*
X23420Y19620D01*
Y19820D01*
X23820Y19570D02*
X23720Y19670D01*
Y19770D01*
X23820Y19870D01*
X23970Y19720D02*
X24170D01*
X24070Y19820D02*
Y19620D01*
X24270Y19570D02*
X24369Y19670D01*
Y19770D01*
X24270Y19870D01*
X10470Y21720D02*
X10420Y21770D01*
X10320D01*
X10270Y21720D01*
Y21520D01*
X10320Y21470D01*
X10420D01*
X10470Y21520D01*
X10570Y21770D02*
Y21470D01*
Y21620D01*
X10770D01*
Y21770D01*
Y21470D01*
X11070Y21770D02*
X10970Y21720D01*
X10870Y21620D01*
Y21520D01*
X10920Y21470D01*
X11020D01*
X11070Y21520D01*
Y21570D01*
X11020Y21620D01*
X10870D01*
X11270Y21470D02*
X11170Y21570D01*
Y21670D01*
X11270Y21770D01*
X11420Y21620D02*
X11620D01*
X11520Y21720D02*
Y21520D01*
X11720Y21470D02*
X11819Y21570D01*
Y21670D01*
X11720Y21770D01*
X28170Y10970D02*
X28120Y11020D01*
X28020D01*
X27970Y10970D01*
Y10770D01*
X28020Y10720D01*
X28120D01*
X28170Y10770D01*
Y10870D01*
X28070D01*
X28270Y10720D02*
Y11020D01*
X28470Y10720D01*
Y11020D01*
X28570D02*
Y10720D01*
X28720D01*
X28770Y10770D01*
Y10970D01*
X28720Y11020D01*
X28570D01*
X27970Y11870D02*
X28170D01*
X28070Y11970D02*
Y11770D01*
X28270Y11970D02*
X28320Y12020D01*
X28420D01*
X28470Y11970D01*
Y11920D01*
X28420Y11870D01*
X28370D01*
X28420D01*
X28470Y11820D01*
Y11770D01*
X28420Y11720D01*
X28320D01*
X28270Y11770D01*
X28570Y11720D02*
Y11770D01*
X28620D01*
Y11720D01*
X28570D01*
X28820Y11970D02*
X28870Y12020D01*
X28970D01*
X29020Y11970D01*
Y11920D01*
X28970Y11870D01*
X28920D01*
X28970D01*
X29020Y11820D01*
Y11770D01*
X28970Y11720D01*
X28870D01*
X28820Y11770D01*
X29120Y12020D02*
Y11820D01*
X29220Y11720D01*
X29320Y11820D01*
Y12020D01*
X27970Y12920D02*
X28170D01*
X28070Y13020D02*
Y12820D01*
X28470Y13070D02*
X28270D01*
Y12920D01*
X28370Y12970D01*
X28420D01*
X28470Y12920D01*
Y12820D01*
X28420Y12770D01*
X28320D01*
X28270Y12820D01*
X28570Y13070D02*
Y12870D01*
X28670Y12770D01*
X28770Y12870D01*
Y13070D01*
X27970Y13870D02*
X28170D01*
X28070Y13970D02*
Y13770D01*
X28270Y13720D02*
X28370D01*
X28320D01*
Y14020D01*
X28270Y13970D01*
X28520D02*
X28570Y14020D01*
X28670D01*
X28720Y13970D01*
Y13770D01*
X28670Y13720D01*
X28570D01*
X28520Y13770D01*
Y13970D01*
X28820Y13720D02*
Y13770D01*
X28870D01*
Y13720D01*
X28820D01*
X29270Y14020D02*
X29070D01*
Y13870D01*
X29170Y13920D01*
X29220D01*
X29270Y13870D01*
Y13770D01*
X29220Y13720D01*
X29120D01*
X29070Y13770D01*
X29370Y14020D02*
Y13820D01*
X29470Y13720D01*
X29569Y13820D01*
Y14020D01*
X27970Y14820D02*
X28170D01*
X28270Y14670D02*
X28370D01*
X28320D01*
Y14970D01*
X28270Y14920D01*
X28520D02*
X28570Y14970D01*
X28670D01*
X28720Y14920D01*
Y14720D01*
X28670Y14670D01*
X28570D01*
X28520Y14720D01*
Y14920D01*
X28820Y14970D02*
Y14770D01*
X28920Y14670D01*
X29020Y14770D01*
Y14970D01*
X24520Y11970D02*
Y11720D01*
X24570Y11670D01*
X24670D01*
X24720Y11720D01*
Y11970D01*
X24820Y11670D02*
X24920D01*
X24870D01*
Y11970D01*
X24820Y11920D01*
X25070Y11970D02*
X25270D01*
X25170D01*
Y11670D01*
X25370Y11970D02*
X25570Y11670D01*
Y11970D02*
X25370Y11670D01*
X25020Y13020D02*
X24970Y13070D01*
X24870D01*
X24820Y13020D01*
Y12970D01*
X24870Y12920D01*
X24970D01*
X25020Y12870D01*
Y12820D01*
X24970Y12770D01*
X24870D01*
X24820Y12820D01*
X25120Y13070D02*
Y12770D01*
X25270D01*
X25320Y12820D01*
Y13020D01*
X25270Y13070D01*
X25120D01*
X25420D02*
X25520D01*
X25470D01*
Y12770D01*
X25420D01*
X25520D01*
X24920Y13970D02*
X24870Y14020D01*
X24770D01*
X24720Y13970D01*
Y13920D01*
X24770Y13870D01*
X24870D01*
X24920Y13820D01*
Y13770D01*
X24870Y13720D01*
X24770D01*
X24720Y13770D01*
X25220Y13970D02*
X25170Y14020D01*
X25070D01*
X25020Y13970D01*
Y13770D01*
X25070Y13720D01*
X25170D01*
X25220Y13770D01*
X25320Y14020D02*
Y13720D01*
Y13820D01*
X25520Y14020D01*
X25370Y13870D01*
X25520Y13720D01*
X24920Y14920D02*
X24870Y14970D01*
X24770D01*
X24720Y14920D01*
Y14870D01*
X24770Y14820D01*
X24870D01*
X24920Y14770D01*
Y14720D01*
X24870Y14670D01*
X24770D01*
X24720Y14720D01*
X25020Y14970D02*
Y14670D01*
X25170D01*
X25220Y14720D01*
Y14920D01*
X25170Y14970D01*
X25020D01*
X25470D02*
X25370D01*
X25320Y14920D01*
Y14720D01*
X25370Y14670D01*
X25470D01*
X25520Y14720D01*
Y14920D01*
X25470Y14970D01*
X25370Y8570D02*
Y8270D01*
X25520D01*
X25570Y8320D01*
Y8520D01*
X25520Y8570D01*
X25370D01*
X25670Y8420D02*
X25870D01*
X25770Y8520D02*
Y8320D01*
X25370Y9620D02*
Y9320D01*
X25520D01*
X25570Y9370D01*
Y9570D01*
X25520Y9620D01*
X25370D01*
X25670Y9470D02*
X25870D01*
X4050Y29575D02*
Y29275D01*
X4200D01*
X4250Y29325D01*
Y29525D01*
X4200Y29575D01*
X4050D01*
X4350Y29225D02*
X4550D01*
X4850Y29525D02*
X4800Y29575D01*
X4700D01*
X4650Y29525D01*
Y29325D01*
X4700Y29275D01*
X4800D01*
X4850Y29325D01*
Y29425D01*
X4750D01*
X4950Y29275D02*
Y29575D01*
X5100D01*
X5150Y29525D01*
Y29425D01*
X5100Y29375D01*
X4950D01*
X5250Y29525D02*
X5300Y29575D01*
X5400D01*
X5450Y29525D01*
Y29325D01*
X5400Y29275D01*
X5300D01*
X5250Y29325D01*
Y29525D01*
X4050Y28775D02*
Y28475D01*
X4200D01*
X4250Y28525D01*
Y28725D01*
X4200Y28775D01*
X4050D01*
X4350Y28425D02*
X4550D01*
X4850Y28725D02*
X4800Y28775D01*
X4700D01*
X4650Y28725D01*
Y28525D01*
X4700Y28475D01*
X4800D01*
X4850Y28525D01*
Y28625D01*
X4750D01*
X4950Y28475D02*
Y28775D01*
X5100D01*
X5150Y28725D01*
Y28625D01*
X5100Y28575D01*
X4950D01*
X5450Y28475D02*
X5250D01*
X5450Y28675D01*
Y28725D01*
X5400Y28775D01*
X5300D01*
X5250Y28725D01*
X4050Y27975D02*
Y27675D01*
X4200D01*
X4250Y27725D01*
Y27925D01*
X4200Y27975D01*
X4050D01*
X4350Y27625D02*
X4550D01*
X4850Y27925D02*
X4800Y27975D01*
X4700D01*
X4650Y27925D01*
Y27725D01*
X4700Y27675D01*
X4800D01*
X4850Y27725D01*
Y27825D01*
X4750D01*
X4950Y27675D02*
Y27975D01*
X5100D01*
X5150Y27925D01*
Y27825D01*
X5100Y27775D01*
X4950D01*
X5450Y27675D02*
X5250D01*
X5450Y27875D01*
Y27925D01*
X5400Y27975D01*
X5300D01*
X5250Y27925D01*
X4250Y26475D02*
X4200Y26525D01*
X4100D01*
X4050Y26475D01*
Y26425D01*
X4100Y26375D01*
X4200D01*
X4250Y26325D01*
Y26275D01*
X4200Y26225D01*
X4100D01*
X4050Y26275D01*
X4350Y26525D02*
Y26225D01*
Y26375D01*
X4550D01*
Y26525D01*
Y26225D01*
X4650Y26525D02*
Y26225D01*
X4800D01*
X4850Y26275D01*
Y26475D01*
X4800Y26525D01*
X4650D01*
X4950Y26225D02*
Y26525D01*
X5150Y26225D01*
Y26525D01*
X5250Y26175D02*
X5450D01*
X5550Y26525D02*
Y26225D01*
X5700D01*
X5750Y26275D01*
Y26475D01*
X5700Y26525D01*
X5550D01*
X28500Y27175D02*
X28450Y27225D01*
X28350D01*
X28300Y27175D01*
Y27125D01*
X28350Y27075D01*
X28450D01*
X28500Y27025D01*
Y26975D01*
X28450Y26925D01*
X28350D01*
X28300Y26975D01*
X28600Y27225D02*
Y26925D01*
Y27075D01*
X28800D01*
Y27225D01*
Y26925D01*
X28900Y27225D02*
Y26925D01*
X29050D01*
X29100Y26975D01*
Y27175D01*
X29050Y27225D01*
X28900D01*
X29200Y26925D02*
Y27225D01*
X29400Y26925D01*
Y27225D01*
X29500Y26875D02*
X29700D01*
X29800Y26925D02*
Y27125D01*
X29900Y27225D01*
X30000Y27125D01*
Y26925D01*
Y27075D01*
X29800D01*
X28300Y27775D02*
Y27975D01*
X28400Y28075D01*
X28500Y27975D01*
Y27775D01*
Y27925D01*
X28300D01*
X28600Y27725D02*
X28800D01*
X29100Y28025D02*
X29050Y28075D01*
X28950D01*
X28900Y28025D01*
Y27825D01*
X28950Y27775D01*
X29050D01*
X29100Y27825D01*
Y27925D01*
X29000D01*
X29200Y27775D02*
Y28075D01*
X29350D01*
X29400Y28025D01*
Y27925D01*
X29350Y27875D01*
X29200D01*
X29700Y27775D02*
X29500D01*
X29700Y27975D01*
Y28025D01*
X29650Y28075D01*
X29550D01*
X29500Y28025D01*
X28300Y28575D02*
Y28775D01*
X28400Y28875D01*
X28500Y28775D01*
Y28575D01*
Y28725D01*
X28300D01*
X28600Y28525D02*
X28800D01*
X29100Y28825D02*
X29050Y28875D01*
X28950D01*
X28900Y28825D01*
Y28625D01*
X28950Y28575D01*
X29050D01*
X29100Y28625D01*
Y28725D01*
X29000D01*
X29200Y28575D02*
Y28875D01*
X29350D01*
X29400Y28825D01*
Y28725D01*
X29350Y28675D01*
X29200D01*
X29700Y28575D02*
X29500D01*
X29700Y28775D01*
Y28825D01*
X29650Y28875D01*
X29550D01*
X29500Y28825D01*
X28300Y29425D02*
Y29625D01*
X28400Y29725D01*
X28500Y29625D01*
Y29425D01*
Y29575D01*
X28300D01*
X28600Y29375D02*
X28800D01*
X29100Y29675D02*
X29050Y29725D01*
X28950D01*
X28900Y29675D01*
Y29475D01*
X28950Y29425D01*
X29050D01*
X29100Y29475D01*
Y29575D01*
X29000D01*
X29200Y29425D02*
Y29725D01*
X29350D01*
X29400Y29675D01*
Y29575D01*
X29350Y29525D01*
X29200D01*
X29500Y29675D02*
X29550Y29725D01*
X29650D01*
X29700Y29675D01*
Y29475D01*
X29650Y29425D01*
X29550D01*
X29500Y29475D01*
Y29675D01*
X15050Y18500D02*
Y18250D01*
X15100Y18200D01*
X15200D01*
X15250Y18250D01*
Y18500D01*
X15550Y18200D02*
X15350D01*
X15550Y18400D01*
Y18450D01*
X15500Y18500D01*
X15400D01*
X15350Y18450D01*
X19150Y11550D02*
X19100Y11600D01*
X19000D01*
X18950Y11550D01*
Y11350D01*
X19000Y11300D01*
X19100D01*
X19150Y11350D01*
X19400Y11300D02*
Y11600D01*
X19250Y11450D01*
X19450D01*
X19550Y11550D02*
X19600Y11600D01*
X19700D01*
X19750Y11550D01*
Y11500D01*
X19700Y11450D01*
X19750Y11400D01*
Y11350D01*
X19700Y11300D01*
X19600D01*
X19550Y11350D01*
Y11400D01*
X19600Y11450D01*
X19550Y11500D01*
Y11550D01*
X19600Y11450D02*
X19700D01*
X22200Y11400D02*
X22150Y11450D01*
X22050D01*
X22000Y11400D01*
Y11200D01*
X22050Y11150D01*
X22150D01*
X22200Y11200D01*
X22450Y11150D02*
Y11450D01*
X22300Y11300D01*
X22500D01*
X22600Y11450D02*
X22800D01*
Y11400D01*
X22600Y11200D01*
Y11150D01*
X13110Y29310D02*
X13160Y29360D01*
Y29460D01*
X13110Y29510D01*
X12910D01*
X12860Y29460D01*
Y29360D01*
X12910Y29310D01*
X12860Y29010D02*
Y29210D01*
X13060Y29010D01*
X13110D01*
X13160Y29060D01*
Y29160D01*
X13110Y29210D01*
X12860Y28710D02*
Y28910D01*
X13060Y28710D01*
X13110D01*
X13160Y28760D01*
Y28860D01*
X13110Y28910D01*
X10510Y28964D02*
X10460Y28914D01*
Y28815D01*
X10510Y28765D01*
X10710D01*
X10760Y28815D01*
Y28914D01*
X10710Y28964D01*
X10760Y29264D02*
Y29064D01*
X10560Y29264D01*
X10510D01*
X10460Y29214D01*
Y29114D01*
X10510Y29064D01*
X10760Y29364D02*
Y29464D01*
Y29414D01*
X10460D01*
X10510Y29364D01*
X24416Y35050D02*
Y35350D01*
X24566D01*
X24616Y35300D01*
Y35200D01*
X24566Y35150D01*
X24416D01*
X24516D02*
X24616Y35050D01*
X24716Y35350D02*
X24916D01*
Y35300D01*
X24716Y35100D01*
Y35050D01*
X20660D02*
Y35350D01*
X20810D01*
X20860Y35300D01*
Y35200D01*
X20810Y35150D01*
X20660D01*
X20760D02*
X20860Y35050D01*
X21160Y35350D02*
X21060Y35300D01*
X20960Y35200D01*
Y35100D01*
X21010Y35050D01*
X21110D01*
X21160Y35100D01*
Y35150D01*
X21110Y35200D01*
X20960D01*
X13750Y35200D02*
Y35500D01*
X13900D01*
X13950Y35450D01*
Y35350D01*
X13900Y35300D01*
X13750D01*
X13850D02*
X13950Y35200D01*
X14250Y35500D02*
X14050D01*
Y35350D01*
X14150Y35400D01*
X14200D01*
X14250Y35350D01*
Y35250D01*
X14200Y35200D01*
X14100D01*
X14050Y35250D01*
X9700Y35200D02*
Y35500D01*
X9850D01*
X9900Y35450D01*
Y35350D01*
X9850Y35300D01*
X9700D01*
X9800D02*
X9900Y35200D01*
X10150D02*
Y35500D01*
X10000Y35350D01*
X10200D01*
X25800Y15850D02*
Y15550D01*
Y15700D01*
X26000D01*
Y15850D01*
Y15550D01*
X26100Y15850D02*
Y15550D01*
X26250D01*
X26300Y15600D01*
Y15800D01*
X26250Y15850D01*
X26100D01*
X26400Y15550D02*
Y15850D01*
X26550D01*
X26600Y15800D01*
Y15700D01*
X26550Y15650D01*
X26400D01*
X26500D02*
X26600Y15550D01*
X26700D02*
X26800D01*
X26750D01*
Y15850D01*
X26700Y15800D01*
X25350Y25700D02*
Y25450D01*
X25400Y25400D01*
X25500D01*
X25550Y25450D01*
Y25700D01*
X25850D02*
X25750Y25650D01*
X25650Y25550D01*
Y25450D01*
X25700Y25400D01*
X25800D01*
X25850Y25450D01*
Y25500D01*
X25800Y25550D01*
X25650D01*
X23900Y27150D02*
X23850Y27200D01*
X23750D01*
X23700Y27150D01*
Y26950D01*
X23750Y26900D01*
X23850D01*
X23900Y26950D01*
X24150Y26900D02*
Y27200D01*
X24000Y27050D01*
X24200D01*
X24300Y27150D02*
X24350Y27200D01*
X24450D01*
X24500Y27150D01*
Y27100D01*
X24450Y27050D01*
X24400D01*
X24450D01*
X24500Y27000D01*
Y26950D01*
X24450Y26900D01*
X24350D01*
X24300Y26950D01*
X18400Y27150D02*
X18350Y27200D01*
X18250D01*
X18200Y27150D01*
Y26950D01*
X18250Y26900D01*
X18350D01*
X18400Y26950D01*
X18500Y27150D02*
X18550Y27200D01*
X18650D01*
X18700Y27150D01*
Y27100D01*
X18650Y27050D01*
X18600D01*
X18650D01*
X18700Y27000D01*
Y26950D01*
X18650Y26900D01*
X18550D01*
X18500Y26950D01*
X18800D02*
X18850Y26900D01*
X18950D01*
X19000Y26950D01*
Y27150D01*
X18950Y27200D01*
X18850D01*
X18800Y27150D01*
Y27100D01*
X18850Y27050D01*
X19000D01*
X19800Y25750D02*
Y25500D01*
X19850Y25450D01*
X19950D01*
X20000Y25500D01*
Y25750D01*
X20100D02*
X20300D01*
Y25700D01*
X20100Y25500D01*
Y25450D01*
X19258Y33240D02*
X19208Y33290D01*
X19108D01*
X19058Y33240D01*
Y33040D01*
X19108Y32990D01*
X19208D01*
X19258Y33040D01*
X19558Y32990D02*
X19358D01*
X19558Y33190D01*
Y33240D01*
X19508Y33290D01*
X19408D01*
X19358Y33240D01*
X19658Y33290D02*
X19858D01*
Y33240D01*
X19658Y33040D01*
Y32990D01*
X10656Y37850D02*
X10356D01*
Y37700D01*
X10406Y37650D01*
X10456D01*
X10506Y37700D01*
Y37850D01*
Y37700D01*
X10556Y37650D01*
X10606D01*
X10656Y37700D01*
Y37850D01*
X10356Y37550D02*
Y37450D01*
Y37500D01*
X10656D01*
X10606Y37550D01*
X25300Y30300D02*
Y30050D01*
X25350Y30000D01*
X25450D01*
X25500Y30050D01*
Y30300D01*
X25750Y30000D02*
Y30300D01*
X25600Y30150D01*
X25800D01*
X15600Y32250D02*
X15550Y32300D01*
X15450D01*
X15400Y32250D01*
Y32050D01*
X15450Y32000D01*
X15550D01*
X15600Y32050D01*
X15900Y32000D02*
X15700D01*
X15900Y32200D01*
Y32250D01*
X15850Y32300D01*
X15750D01*
X15700Y32250D01*
X16000D02*
X16050Y32300D01*
X16150D01*
X16200Y32250D01*
Y32050D01*
X16150Y32000D01*
X16050D01*
X16000Y32050D01*
Y32250D01*
X8175Y33450D02*
X8125Y33500D01*
X8025D01*
X7975Y33450D01*
Y33250D01*
X8025Y33200D01*
X8125D01*
X8175Y33250D01*
X8275Y33200D02*
X8375D01*
X8325D01*
Y33500D01*
X8275Y33450D01*
X8525D02*
X8575Y33500D01*
X8675D01*
X8725Y33450D01*
Y33400D01*
X8675Y33350D01*
X8725Y33300D01*
Y33250D01*
X8675Y33200D01*
X8575D01*
X8525Y33250D01*
Y33300D01*
X8575Y33350D01*
X8525Y33400D01*
Y33450D01*
X8575Y33350D02*
X8675D01*
X14100Y25750D02*
Y25500D01*
X14150Y25450D01*
X14250D01*
X14300Y25500D01*
Y25750D01*
X14400Y25700D02*
X14450Y25750D01*
X14550D01*
X14600Y25700D01*
Y25650D01*
X14550Y25600D01*
X14600Y25550D01*
Y25500D01*
X14550Y25450D01*
X14450D01*
X14400Y25500D01*
Y25550D01*
X14450Y25600D01*
X14400Y25650D01*
Y25700D01*
X14450Y25600D02*
X14550D01*
X8450Y25850D02*
Y25600D01*
X8500Y25550D01*
X8600D01*
X8650Y25600D01*
Y25850D01*
X8750Y25600D02*
X8800Y25550D01*
X8900D01*
X8950Y25600D01*
Y25800D01*
X8900Y25850D01*
X8800D01*
X8750Y25800D01*
Y25750D01*
X8800Y25700D01*
X8950D01*
X14300Y30450D02*
Y30200D01*
X14350Y30150D01*
X14450D01*
X14500Y30200D01*
Y30450D01*
X14800D02*
X14600D01*
Y30300D01*
X14700Y30350D01*
X14750D01*
X14800Y30300D01*
Y30200D01*
X14750Y30150D01*
X14650D01*
X14600Y30200D01*
X8410Y23878D02*
X8710D01*
Y23728D01*
X8660Y23678D01*
X8560D01*
X8510Y23728D01*
Y23878D01*
Y23778D02*
X8410Y23678D01*
Y23578D02*
Y23479D01*
Y23528D01*
X8710D01*
X8660Y23578D01*
X8410Y23129D02*
Y23329D01*
X8610Y23129D01*
X8660D01*
X8710Y23179D01*
Y23279D01*
X8660Y23329D01*
X8794Y23865D02*
X9094D01*
Y23715D01*
X9044Y23665D01*
X8944D01*
X8894Y23715D01*
Y23865D01*
Y23765D02*
X8794Y23665D01*
Y23565D02*
Y23465D01*
Y23515D01*
X9094D01*
X9044Y23565D01*
Y23315D02*
X9094Y23265D01*
Y23165D01*
X9044Y23115D01*
X8994D01*
X8944Y23165D01*
Y23215D01*
Y23165D01*
X8894Y23115D01*
X8844D01*
X8794Y23165D01*
Y23265D01*
X8844Y23315D01*
X13950Y23725D02*
X14250D01*
Y23575D01*
X14200Y23525D01*
X14100D01*
X14050Y23575D01*
Y23725D01*
Y23625D02*
X13950Y23525D01*
Y23425D02*
Y23325D01*
Y23375D01*
X14250D01*
X14200Y23425D01*
Y23175D02*
X14250Y23125D01*
Y23025D01*
X14200Y22975D01*
X14150D01*
X14100Y23025D01*
X14050Y22975D01*
X14000D01*
X13950Y23025D01*
Y23125D01*
X14000Y23175D01*
X14050D01*
X14100Y23125D01*
X14150Y23175D01*
X14200D01*
X14100Y23125D02*
Y23025D01*
X14450Y23725D02*
X14750D01*
Y23575D01*
X14700Y23525D01*
X14600D01*
X14550Y23575D01*
Y23725D01*
Y23625D02*
X14450Y23525D01*
Y23425D02*
Y23325D01*
Y23375D01*
X14750D01*
X14700Y23425D01*
X14500Y23175D02*
X14450Y23125D01*
Y23025D01*
X14500Y22975D01*
X14700D01*
X14750Y23025D01*
Y23125D01*
X14700Y23175D01*
X14650D01*
X14600Y23125D01*
Y22975D01*
X19690Y23640D02*
X19990D01*
Y23490D01*
X19940Y23440D01*
X19840D01*
X19790Y23490D01*
Y23640D01*
Y23540D02*
X19690Y23440D01*
Y23140D02*
Y23340D01*
X19890Y23140D01*
X19940D01*
X19990Y23190D01*
Y23290D01*
X19940Y23340D01*
X19690Y22890D02*
X19990D01*
X19840Y23040D01*
Y22840D01*
X20140Y23640D02*
X20440D01*
Y23490D01*
X20390Y23440D01*
X20290D01*
X20240Y23490D01*
Y23640D01*
Y23540D02*
X20140Y23440D01*
Y23140D02*
Y23340D01*
X20340Y23140D01*
X20390D01*
X20440Y23190D01*
Y23290D01*
X20390Y23340D01*
X20440Y22840D02*
Y23040D01*
X20290D01*
X20340Y22940D01*
Y22890D01*
X20290Y22840D01*
X20190D01*
X20140Y22890D01*
Y22990D01*
X20190Y23040D01*
X25250Y23650D02*
X25550D01*
Y23500D01*
X25500Y23450D01*
X25400D01*
X25350Y23500D01*
Y23650D01*
Y23550D02*
X25250Y23450D01*
X25500Y23350D02*
X25550Y23300D01*
Y23200D01*
X25500Y23150D01*
X25450D01*
X25400Y23200D01*
Y23250D01*
Y23200D01*
X25350Y23150D01*
X25300D01*
X25250Y23200D01*
Y23300D01*
X25300Y23350D01*
X25500Y23050D02*
X25550Y23000D01*
Y22900D01*
X25500Y22850D01*
X25300D01*
X25250Y22900D01*
Y23000D01*
X25300Y23050D01*
X25500D01*
X25740Y23740D02*
X26040D01*
Y23590D01*
X25990Y23540D01*
X25890D01*
X25840Y23590D01*
Y23740D01*
Y23640D02*
X25740Y23540D01*
X25990Y23440D02*
X26040Y23390D01*
Y23290D01*
X25990Y23240D01*
X25940D01*
X25890Y23290D01*
Y23340D01*
Y23290D01*
X25840Y23240D01*
X25790D01*
X25740Y23290D01*
Y23390D01*
X25790Y23440D01*
X25740Y23140D02*
Y23040D01*
Y23090D01*
X26040D01*
X25990Y23140D01*
X9550Y26950D02*
Y27250D01*
X9700D01*
X9750Y27200D01*
Y27100D01*
X9700Y27050D01*
X9550D01*
X9650D02*
X9750Y26950D01*
X9850Y27000D02*
X9900Y26950D01*
X10000D01*
X10050Y27000D01*
Y27200D01*
X10000Y27250D01*
X9900D01*
X9850Y27200D01*
Y27150D01*
X9900Y27100D01*
X10050D01*
X14775Y26950D02*
Y27250D01*
X14925D01*
X14975Y27200D01*
Y27100D01*
X14925Y27050D01*
X14775D01*
X14875D02*
X14975Y26950D01*
X15075D02*
X15175D01*
X15125D01*
Y27250D01*
X15075Y27200D01*
X15525Y27250D02*
X15325D01*
Y27100D01*
X15425Y27150D01*
X15475D01*
X15525Y27100D01*
Y27000D01*
X15475Y26950D01*
X15375D01*
X15325Y27000D01*
X20300Y26900D02*
Y27200D01*
X20450D01*
X20500Y27150D01*
Y27050D01*
X20450Y27000D01*
X20300D01*
X20400D02*
X20500Y26900D01*
X20800D02*
X20600D01*
X20800Y27100D01*
Y27150D01*
X20750Y27200D01*
X20650D01*
X20600Y27150D01*
X20900Y26900D02*
X21000D01*
X20950D01*
Y27200D01*
X20900Y27150D01*
X26150Y26850D02*
Y27150D01*
X26300D01*
X26350Y27100D01*
Y27000D01*
X26300Y26950D01*
X26150D01*
X26250D02*
X26350Y26850D01*
X26650D02*
X26450D01*
X26650Y27050D01*
Y27100D01*
X26600Y27150D01*
X26500D01*
X26450Y27100D01*
X26750Y27150D02*
X26950D01*
Y27100D01*
X26750Y26900D01*
Y26850D01*
X10417Y25703D02*
Y26003D01*
X10567D01*
X10617Y25953D01*
Y25853D01*
X10567Y25803D01*
X10417D01*
X10517D02*
X10617Y25703D01*
X10717D02*
X10817D01*
X10767D01*
Y26003D01*
X10717Y25953D01*
X10967Y25703D02*
X11067D01*
X11017D01*
Y26003D01*
X10967Y25953D01*
X15935Y25610D02*
Y25910D01*
X16085D01*
X16135Y25860D01*
Y25760D01*
X16085Y25710D01*
X15935D01*
X16035D02*
X16135Y25610D01*
X16235D02*
X16335D01*
X16285D01*
Y25910D01*
X16235Y25860D01*
X16485Y25910D02*
X16685D01*
Y25860D01*
X16485Y25660D01*
Y25610D01*
X21687Y25637D02*
Y25937D01*
X21837D01*
X21887Y25887D01*
Y25787D01*
X21837Y25737D01*
X21687D01*
X21787D02*
X21887Y25637D01*
X22187D02*
X21987D01*
X22187Y25837D01*
Y25887D01*
X22137Y25937D01*
X22037D01*
X21987Y25887D01*
X22287D02*
X22337Y25937D01*
X22437D01*
X22487Y25887D01*
Y25837D01*
X22437Y25787D01*
X22387D01*
X22437D01*
X22487Y25737D01*
Y25687D01*
X22437Y25637D01*
X22337D01*
X22287Y25687D01*
X27232Y25639D02*
Y25939D01*
X27382D01*
X27432Y25889D01*
Y25789D01*
X27382Y25739D01*
X27232D01*
X27332D02*
X27432Y25639D01*
X27732D02*
X27532D01*
X27732Y25839D01*
Y25889D01*
X27682Y25939D01*
X27582D01*
X27532Y25889D01*
X27832Y25689D02*
X27882Y25639D01*
X27982D01*
X28032Y25689D01*
Y25889D01*
X27982Y25939D01*
X27882D01*
X27832Y25889D01*
Y25839D01*
X27882Y25789D01*
X28032D01*
X5934Y25275D02*
X6234D01*
Y25125D01*
X6184Y25075D01*
X6084D01*
X6034Y25125D01*
Y25275D01*
Y25175D02*
X5934Y25075D01*
Y24975D02*
Y24875D01*
Y24925D01*
X6234D01*
X6184Y24975D01*
Y24725D02*
X6234Y24675D01*
Y24575D01*
X6184Y24525D01*
X5984D01*
X5934Y24575D01*
Y24675D01*
X5984Y24725D01*
X6184D01*
X11601Y25231D02*
X11901D01*
Y25081D01*
X11851Y25031D01*
X11751D01*
X11701Y25081D01*
Y25231D01*
Y25131D02*
X11601Y25031D01*
Y24931D02*
Y24831D01*
Y24881D01*
X11901D01*
X11851Y24931D01*
X11901Y24481D02*
X11851Y24581D01*
X11751Y24681D01*
X11651D01*
X11601Y24631D01*
Y24531D01*
X11651Y24481D01*
X11701D01*
X11751Y24531D01*
Y24681D01*
X17318Y25190D02*
X17618D01*
Y25040D01*
X17568Y24990D01*
X17468D01*
X17418Y25040D01*
Y25190D01*
Y25090D02*
X17318Y24990D01*
Y24690D02*
Y24890D01*
X17518Y24690D01*
X17568D01*
X17618Y24740D01*
Y24840D01*
X17568Y24890D01*
X17318Y24390D02*
Y24590D01*
X17518Y24390D01*
X17568D01*
X17618Y24440D01*
Y24540D01*
X17568Y24590D01*
X23285Y24350D02*
X22985D01*
Y24500D01*
X23035Y24550D01*
X23135D01*
X23185Y24500D01*
Y24350D01*
Y24450D02*
X23285Y24550D01*
Y24850D02*
Y24650D01*
X23085Y24850D01*
X23035D01*
X22985Y24800D01*
Y24700D01*
X23035Y24650D01*
Y24950D02*
X22985Y25000D01*
Y25100D01*
X23035Y25150D01*
X23085D01*
X23135Y25100D01*
X23185Y25150D01*
X23235D01*
X23285Y25100D01*
Y25000D01*
X23235Y24950D01*
X23185D01*
X23135Y25000D01*
X23085Y24950D01*
X23035D01*
X23135Y25000D02*
Y25100D01*
X8050Y27050D02*
Y27350D01*
X8200D01*
X8250Y27300D01*
Y27200D01*
X8200Y27150D01*
X8050D01*
X8150D02*
X8250Y27050D01*
X8350Y27300D02*
X8400Y27350D01*
X8500D01*
X8550Y27300D01*
Y27250D01*
X8500Y27200D01*
X8550Y27150D01*
Y27100D01*
X8500Y27050D01*
X8400D01*
X8350Y27100D01*
Y27150D01*
X8400Y27200D01*
X8350Y27250D01*
Y27300D01*
X8400Y27200D02*
X8500D01*
X13950Y27625D02*
X14250D01*
Y27475D01*
X14200Y27425D01*
X14100D01*
X14050Y27475D01*
Y27625D01*
Y27525D02*
X13950Y27425D01*
Y27325D02*
Y27225D01*
Y27275D01*
X14250D01*
X14200Y27325D01*
X13950Y26925D02*
X14250D01*
X14100Y27075D01*
Y26875D01*
X19050Y27000D02*
Y27300D01*
X19200D01*
X19250Y27250D01*
Y27150D01*
X19200Y27100D01*
X19050D01*
X19150D02*
X19250Y27000D01*
X19550D02*
X19350D01*
X19550Y27200D01*
Y27250D01*
X19500Y27300D01*
X19400D01*
X19350Y27250D01*
X19650D02*
X19700Y27300D01*
X19800D01*
X19850Y27250D01*
Y27050D01*
X19800Y27000D01*
X19700D01*
X19650Y27050D01*
Y27250D01*
X24750Y26900D02*
Y27200D01*
X24900D01*
X24950Y27150D01*
Y27050D01*
X24900Y27000D01*
X24750D01*
X24850D02*
X24950Y26900D01*
X25250D02*
X25050D01*
X25250Y27100D01*
Y27150D01*
X25200Y27200D01*
X25100D01*
X25050Y27150D01*
X25550Y27200D02*
X25450Y27150D01*
X25350Y27050D01*
Y26950D01*
X25400Y26900D01*
X25500D01*
X25550Y26950D01*
Y27000D01*
X25500Y27050D01*
X25350D01*
X24100Y28900D02*
X24150Y28950D01*
Y29050D01*
X24100Y29100D01*
X23900D01*
X23850Y29050D01*
Y28950D01*
X23900Y28900D01*
X24100Y28800D02*
X24150Y28750D01*
Y28650D01*
X24100Y28600D01*
X24050D01*
X24000Y28650D01*
Y28700D01*
Y28650D01*
X23950Y28600D01*
X23900D01*
X23850Y28650D01*
Y28750D01*
X23900Y28800D01*
X23850Y28500D02*
Y28400D01*
Y28450D01*
X24150D01*
X24100Y28500D01*
X21550Y28650D02*
X21500Y28600D01*
Y28500D01*
X21550Y28450D01*
X21750D01*
X21800Y28500D01*
Y28600D01*
X21750Y28650D01*
X21550Y28750D02*
X21500Y28800D01*
Y28900D01*
X21550Y28950D01*
X21600D01*
X21650Y28900D01*
Y28850D01*
Y28900D01*
X21700Y28950D01*
X21750D01*
X21800Y28900D01*
Y28800D01*
X21750Y28750D01*
X21550Y29050D02*
X21500Y29100D01*
Y29200D01*
X21550Y29250D01*
X21750D01*
X21800Y29200D01*
Y29100D01*
X21750Y29050D01*
X21550D01*
X8075Y30550D02*
X8025Y30600D01*
X7925D01*
X7875Y30550D01*
Y30350D01*
X7925Y30300D01*
X8025D01*
X8075Y30350D01*
X8175Y30300D02*
X8275D01*
X8225D01*
Y30600D01*
X8175Y30550D01*
X8425Y30350D02*
X8475Y30300D01*
X8575D01*
X8625Y30350D01*
Y30550D01*
X8575Y30600D01*
X8475D01*
X8425Y30550D01*
Y30500D01*
X8475Y30450D01*
X8625D01*
X15275Y35550D02*
X15225Y35600D01*
X15125D01*
X15075Y35550D01*
Y35350D01*
X15125Y35300D01*
X15225D01*
X15275Y35350D01*
X15375Y35300D02*
X15475D01*
X15425D01*
Y35600D01*
X15375Y35550D01*
X15625Y35600D02*
X15825D01*
Y35550D01*
X15625Y35350D01*
Y35300D01*
X8285Y35710D02*
X8235Y35760D01*
X8135D01*
X8085Y35710D01*
Y35510D01*
X8135Y35460D01*
X8235D01*
X8285Y35510D01*
X8385Y35460D02*
X8485D01*
X8435D01*
Y35760D01*
X8385Y35710D01*
X8785Y35460D02*
Y35760D01*
X8635Y35610D01*
X8835D01*
X18100Y31000D02*
X18050Y31050D01*
X17950D01*
X17900Y31000D01*
Y30800D01*
X17950Y30750D01*
X18050D01*
X18100Y30800D01*
X18400Y30750D02*
X18200D01*
X18400Y30950D01*
Y31000D01*
X18350Y31050D01*
X18250D01*
X18200Y31000D01*
X18500D02*
X18550Y31050D01*
X18650D01*
X18700Y31000D01*
Y30950D01*
X18650Y30900D01*
X18700Y30850D01*
Y30800D01*
X18650Y30750D01*
X18550D01*
X18500Y30800D01*
Y30850D01*
X18550Y30900D01*
X18500Y30950D01*
Y31000D01*
X18550Y30900D02*
X18650D01*
X12297Y33847D02*
X12247Y33897D01*
X12147D01*
X12097Y33847D01*
Y33647D01*
X12147Y33597D01*
X12247D01*
X12297Y33647D01*
X12397Y33597D02*
X12497D01*
X12447D01*
Y33897D01*
X12397Y33847D01*
X12847Y33897D02*
X12747Y33847D01*
X12647Y33747D01*
Y33647D01*
X12697Y33597D01*
X12797D01*
X12847Y33647D01*
Y33697D01*
X12797Y33747D01*
X12647D01*
X10925Y33850D02*
X10875Y33900D01*
X10775D01*
X10725Y33850D01*
Y33650D01*
X10775Y33600D01*
X10875D01*
X10925Y33650D01*
X11025Y33600D02*
X11125D01*
X11075D01*
Y33900D01*
X11025Y33850D01*
X11475Y33900D02*
X11275D01*
Y33750D01*
X11375Y33800D01*
X11425D01*
X11475Y33750D01*
Y33650D01*
X11425Y33600D01*
X11325D01*
X11275Y33650D01*
X26900Y34550D02*
X26850Y34600D01*
X26750D01*
X26700Y34550D01*
Y34350D01*
X26750Y34300D01*
X26850D01*
X26900Y34350D01*
X27200Y34300D02*
X27000D01*
X27200Y34500D01*
Y34550D01*
X27150Y34600D01*
X27050D01*
X27000Y34550D01*
X27500Y34600D02*
X27400Y34550D01*
X27300Y34450D01*
Y34350D01*
X27350Y34300D01*
X27450D01*
X27500Y34350D01*
Y34400D01*
X27450Y34450D01*
X27300D01*
X19110Y35610D02*
X19060Y35660D01*
X18960D01*
X18910Y35610D01*
Y35410D01*
X18960Y35360D01*
X19060D01*
X19110Y35410D01*
X19410Y35360D02*
X19210D01*
X19410Y35560D01*
Y35610D01*
X19360Y35660D01*
X19260D01*
X19210Y35610D01*
X19510D02*
X19560Y35660D01*
X19660D01*
X19710Y35610D01*
Y35560D01*
X19660Y35510D01*
X19610D01*
X19660D01*
X19710Y35460D01*
Y35410D01*
X19660Y35360D01*
X19560D01*
X19510Y35410D01*
X23100Y35250D02*
X23050Y35300D01*
X22950D01*
X22900Y35250D01*
Y35050D01*
X22950Y35000D01*
X23050D01*
X23100Y35050D01*
X23400Y35000D02*
X23200D01*
X23400Y35200D01*
Y35250D01*
X23350Y35300D01*
X23250D01*
X23200Y35250D01*
X23700Y35300D02*
X23500D01*
Y35150D01*
X23600Y35200D01*
X23650D01*
X23700Y35150D01*
Y35050D01*
X23650Y35000D01*
X23550D01*
X23500Y35050D01*
X22200Y35250D02*
X22150Y35300D01*
X22050D01*
X22000Y35250D01*
Y35050D01*
X22050Y35000D01*
X22150D01*
X22200Y35050D01*
X22500Y35000D02*
X22300D01*
X22500Y35200D01*
Y35250D01*
X22450Y35300D01*
X22350D01*
X22300Y35250D01*
X22750Y35000D02*
Y35300D01*
X22600Y35150D01*
X22800D01*
X6950Y22600D02*
X6900Y22650D01*
X6800D01*
X6750Y22600D01*
Y22400D01*
X6800Y22350D01*
X6900D01*
X6950Y22400D01*
X7050Y22600D02*
X7100Y22650D01*
X7200D01*
X7250Y22600D01*
Y22550D01*
X7200Y22500D01*
X7150D01*
X7200D01*
X7250Y22450D01*
Y22400D01*
X7200Y22350D01*
X7100D01*
X7050Y22400D01*
X7350Y22600D02*
X7400Y22650D01*
X7500D01*
X7550Y22600D01*
Y22550D01*
X7500Y22500D01*
X7450D01*
X7500D01*
X7550Y22450D01*
Y22400D01*
X7500Y22350D01*
X7400D01*
X7350Y22400D01*
X12500Y22500D02*
X12450Y22550D01*
X12350D01*
X12300Y22500D01*
Y22300D01*
X12350Y22250D01*
X12450D01*
X12500Y22300D01*
X12600Y22500D02*
X12650Y22550D01*
X12750D01*
X12800Y22500D01*
Y22450D01*
X12750Y22400D01*
X12700D01*
X12750D01*
X12800Y22350D01*
Y22300D01*
X12750Y22250D01*
X12650D01*
X12600Y22300D01*
X13100Y22550D02*
X13000Y22500D01*
X12900Y22400D01*
Y22300D01*
X12950Y22250D01*
X13050D01*
X13100Y22300D01*
Y22350D01*
X13050Y22400D01*
X12900D01*
X18200Y22450D02*
X18150Y22500D01*
X18050D01*
X18000Y22450D01*
Y22250D01*
X18050Y22200D01*
X18150D01*
X18200Y22250D01*
X18450Y22200D02*
Y22500D01*
X18300Y22350D01*
X18500D01*
X18600Y22450D02*
X18650Y22500D01*
X18750D01*
X18800Y22450D01*
Y22250D01*
X18750Y22200D01*
X18650D01*
X18600Y22250D01*
Y22450D01*
X23800Y22500D02*
X23750Y22550D01*
X23650D01*
X23600Y22500D01*
Y22300D01*
X23650Y22250D01*
X23750D01*
X23800Y22300D01*
X24050Y22250D02*
Y22550D01*
X23900Y22400D01*
X24100D01*
X24350Y22250D02*
Y22550D01*
X24200Y22400D01*
X24400D01*
X8550Y21950D02*
X8500Y22000D01*
X8400D01*
X8350Y21950D01*
Y21750D01*
X8400Y21700D01*
X8500D01*
X8550Y21750D01*
X8650Y21950D02*
X8700Y22000D01*
X8800D01*
X8850Y21950D01*
Y21900D01*
X8800Y21850D01*
X8750D01*
X8800D01*
X8850Y21800D01*
Y21750D01*
X8800Y21700D01*
X8700D01*
X8650Y21750D01*
X9100Y21700D02*
Y22000D01*
X8950Y21850D01*
X9150D01*
X14150Y21850D02*
X14100Y21900D01*
X14000D01*
X13950Y21850D01*
Y21650D01*
X14000Y21600D01*
X14100D01*
X14150Y21650D01*
X14250Y21850D02*
X14300Y21900D01*
X14400D01*
X14450Y21850D01*
Y21800D01*
X14400Y21750D01*
X14350D01*
X14400D01*
X14450Y21700D01*
Y21650D01*
X14400Y21600D01*
X14300D01*
X14250Y21650D01*
X14550Y21900D02*
X14750D01*
Y21850D01*
X14550Y21650D01*
Y21600D01*
X19871Y21690D02*
X19821Y21740D01*
X19721D01*
X19671Y21690D01*
Y21490D01*
X19721Y21440D01*
X19821D01*
X19871Y21490D01*
X20121Y21440D02*
Y21740D01*
X19971Y21590D01*
X20171D01*
X20271Y21440D02*
X20371D01*
X20321D01*
Y21740D01*
X20271Y21690D01*
X25394Y21906D02*
X25344Y21956D01*
X25244D01*
X25194Y21906D01*
Y21706D01*
X25244Y21656D01*
X25344D01*
X25394Y21706D01*
X25644Y21656D02*
Y21956D01*
X25494Y21806D01*
X25694D01*
X25994Y21956D02*
X25794D01*
Y21806D01*
X25894Y21856D01*
X25944D01*
X25994Y21806D01*
Y21706D01*
X25944Y21656D01*
X25844D01*
X25794Y21706D01*
X10200Y22550D02*
X10150Y22600D01*
X10050D01*
X10000Y22550D01*
Y22350D01*
X10050Y22300D01*
X10150D01*
X10200Y22350D01*
X10300Y22550D02*
X10350Y22600D01*
X10450D01*
X10500Y22550D01*
Y22500D01*
X10450Y22450D01*
X10400D01*
X10450D01*
X10500Y22400D01*
Y22350D01*
X10450Y22300D01*
X10350D01*
X10300Y22350D01*
X10800Y22600D02*
X10600D01*
Y22450D01*
X10700Y22500D01*
X10750D01*
X10800Y22450D01*
Y22350D01*
X10750Y22300D01*
X10650D01*
X10600Y22350D01*
X15850Y22500D02*
X15800Y22550D01*
X15700D01*
X15650Y22500D01*
Y22300D01*
X15700Y22250D01*
X15800D01*
X15850Y22300D01*
X15950Y22500D02*
X16000Y22550D01*
X16100D01*
X16150Y22500D01*
Y22450D01*
X16100Y22400D01*
X16050D01*
X16100D01*
X16150Y22350D01*
Y22300D01*
X16100Y22250D01*
X16000D01*
X15950Y22300D01*
X16250Y22500D02*
X16300Y22550D01*
X16400D01*
X16450Y22500D01*
Y22450D01*
X16400Y22400D01*
X16450Y22350D01*
Y22300D01*
X16400Y22250D01*
X16300D01*
X16250Y22300D01*
Y22350D01*
X16300Y22400D01*
X16250Y22450D01*
Y22500D01*
X16300Y22400D02*
X16400D01*
X21550Y22500D02*
X21500Y22550D01*
X21400D01*
X21350Y22500D01*
Y22300D01*
X21400Y22250D01*
X21500D01*
X21550Y22300D01*
X21800Y22250D02*
Y22550D01*
X21650Y22400D01*
X21850D01*
X22150Y22250D02*
X21950D01*
X22150Y22450D01*
Y22500D01*
X22100Y22550D01*
X22000D01*
X21950Y22500D01*
X27100Y22400D02*
X27050Y22450D01*
X26950D01*
X26900Y22400D01*
Y22200D01*
X26950Y22150D01*
X27050D01*
X27100Y22200D01*
X27350Y22150D02*
Y22450D01*
X27200Y22300D01*
X27400D01*
X27700Y22450D02*
X27600Y22400D01*
X27500Y22300D01*
Y22200D01*
X27550Y22150D01*
X27650D01*
X27700Y22200D01*
Y22250D01*
X27650Y22300D01*
X27500D01*
X7050Y27300D02*
X7000Y27350D01*
X6900D01*
X6850Y27300D01*
Y27100D01*
X6900Y27050D01*
X7000D01*
X7050Y27100D01*
X7150Y27300D02*
X7200Y27350D01*
X7300D01*
X7350Y27300D01*
Y27250D01*
X7300Y27200D01*
X7250D01*
X7300D01*
X7350Y27150D01*
Y27100D01*
X7300Y27050D01*
X7200D01*
X7150Y27100D01*
X7650Y27050D02*
X7450D01*
X7650Y27250D01*
Y27300D01*
X7600Y27350D01*
X7500D01*
X7450Y27300D01*
X12325Y27250D02*
X12275Y27300D01*
X12175D01*
X12125Y27250D01*
Y27050D01*
X12175Y27000D01*
X12275D01*
X12325Y27050D01*
X12425Y27000D02*
X12525D01*
X12475D01*
Y27300D01*
X12425Y27250D01*
X12875Y27300D02*
X12675D01*
Y27150D01*
X12775Y27200D01*
X12825D01*
X12875Y27150D01*
Y27050D01*
X12825Y27000D01*
X12725D01*
X12675Y27050D01*
X26750Y32100D02*
X26700Y32150D01*
X26600D01*
X26550Y32100D01*
Y31900D01*
X26600Y31850D01*
X26700D01*
X26750Y31900D01*
X27050Y31850D02*
X26850D01*
X27050Y32050D01*
Y32100D01*
X27000Y32150D01*
X26900D01*
X26850Y32100D01*
X27150Y31900D02*
X27200Y31850D01*
X27300D01*
X27350Y31900D01*
Y32100D01*
X27300Y32150D01*
X27200D01*
X27150Y32100D01*
Y32050D01*
X27200Y32000D01*
X27350D01*
X19525Y15450D02*
X19475Y15500D01*
X19375D01*
X19325Y15450D01*
Y15250D01*
X19375Y15200D01*
X19475D01*
X19525Y15250D01*
X19625Y15200D02*
X19725D01*
X19675D01*
Y15500D01*
X19625Y15450D01*
X19875Y15200D02*
X19975D01*
X19925D01*
Y15500D01*
X19875Y15450D01*
X19725Y16700D02*
X19675Y16750D01*
X19575D01*
X19525Y16700D01*
Y16500D01*
X19575Y16450D01*
X19675D01*
X19725Y16500D01*
X19825Y16450D02*
X19925D01*
X19875D01*
Y16750D01*
X19825Y16700D01*
X20275Y16450D02*
X20075D01*
X20275Y16650D01*
Y16700D01*
X20225Y16750D01*
X20125D01*
X20075Y16700D01*
X14575Y15700D02*
X14525Y15750D01*
X14425D01*
X14375Y15700D01*
Y15500D01*
X14425Y15450D01*
X14525D01*
X14575Y15500D01*
X14675Y15450D02*
X14775D01*
X14725D01*
Y15750D01*
X14675Y15700D01*
X14925D02*
X14975Y15750D01*
X15075D01*
X15125Y15700D01*
Y15500D01*
X15075Y15450D01*
X14975D01*
X14925Y15500D01*
Y15700D01*
X12050Y18000D02*
X12000Y18050D01*
X11900D01*
X11850Y18000D01*
Y17800D01*
X11900Y17750D01*
X12000D01*
X12050Y17800D01*
X12150D02*
X12200Y17750D01*
X12300D01*
X12350Y17800D01*
Y18000D01*
X12300Y18050D01*
X12200D01*
X12150Y18000D01*
Y17950D01*
X12200Y17900D01*
X12350D01*
X16950Y13000D02*
X16900Y13050D01*
X16800D01*
X16750Y13000D01*
Y12800D01*
X16800Y12750D01*
X16900D01*
X16950Y12800D01*
X17050Y13000D02*
X17100Y13050D01*
X17200D01*
X17250Y13000D01*
Y12950D01*
X17200Y12900D01*
X17250Y12850D01*
Y12800D01*
X17200Y12750D01*
X17100D01*
X17050Y12800D01*
Y12850D01*
X17100Y12900D01*
X17050Y12950D01*
Y13000D01*
X17100Y12900D02*
X17200D01*
X15150Y10550D02*
X15100Y10600D01*
X15000Y10600D01*
X14950Y10550D01*
X14950Y10350D01*
X15000Y10300D01*
X15100Y10300D01*
X15150Y10350D01*
X15250Y10550D02*
X15300Y10600D01*
X15400Y10600D01*
X15450Y10550D01*
X15450Y10500D01*
X15400Y10450D01*
X15350Y10450D01*
X15400Y10450D01*
X15450Y10400D01*
X15450Y10350D01*
X15400Y10300D01*
X15300Y10300D01*
X15250Y10350D01*
X12350Y10550D02*
X12300Y10600D01*
X12200D01*
X12150Y10550D01*
Y10350D01*
X12200Y10300D01*
X12300D01*
X12350Y10350D01*
X12650Y10300D02*
X12450D01*
X12650Y10500D01*
Y10550D01*
X12600Y10600D01*
X12500D01*
X12450Y10550D01*
X11320Y13560D02*
X11270Y13610D01*
X11170D01*
X11120Y13560D01*
Y13360D01*
X11170Y13310D01*
X11270D01*
X11320Y13360D01*
X11420Y13310D02*
X11520D01*
X11470D01*
Y13610D01*
X11420Y13560D01*
X11650Y15150D02*
Y14900D01*
X11700Y14850D01*
X11800D01*
X11850Y14900D01*
Y15150D01*
X11950Y14850D02*
X12050D01*
X12000D01*
Y15150D01*
X11950Y15100D01*
X19700Y13850D02*
X19900Y13550D01*
Y13850D02*
X19700Y13550D01*
X20000D02*
X20100D01*
X20050D01*
Y13850D01*
X20000Y13800D01*
X18900Y10150D02*
Y9900D01*
X18950Y9850D01*
X19050D01*
X19100Y9900D01*
Y10150D01*
X19200Y10100D02*
X19250Y10150D01*
X19350D01*
X19400Y10100D01*
Y10050D01*
X19350Y10000D01*
X19300D01*
X19350D01*
X19400Y9950D01*
Y9900D01*
X19350Y9850D01*
X19250D01*
X19200Y9900D01*
X6900Y16600D02*
Y16900D01*
X7050D01*
X7100Y16850D01*
Y16750D01*
X7050Y16700D01*
X6900D01*
X7000D02*
X7100Y16600D01*
X7200Y16850D02*
X7250Y16900D01*
X7350D01*
X7400Y16850D01*
Y16800D01*
X7350Y16750D01*
X7300D01*
X7350D01*
X7400Y16700D01*
Y16650D01*
X7350Y16600D01*
X7250D01*
X7200Y16650D01*
X18600Y12850D02*
Y13150D01*
X18750D01*
X18800Y13100D01*
Y13000D01*
X18750Y12950D01*
X18600D01*
X18700D02*
X18800Y12850D01*
X19100D02*
X18900D01*
X19100Y13050D01*
Y13100D01*
X19050Y13150D01*
X18950D01*
X18900Y13100D01*
X18300Y11900D02*
Y12200D01*
X18450D01*
X18500Y12150D01*
Y12050D01*
X18450Y12000D01*
X18300D01*
X18400D02*
X18500Y11900D01*
X18600D02*
X18700D01*
X18650D01*
Y12200D01*
X18600Y12150D01*
X6100Y19000D02*
Y19300D01*
X6200Y19200D01*
X6300Y19300D01*
Y19000D01*
X6600Y19250D02*
X6550Y19300D01*
X6450D01*
X6400Y19250D01*
Y19050D01*
X6450Y19000D01*
X6550D01*
X6600Y19050D01*
X6700Y19300D02*
Y19000D01*
X6900D01*
X7000D02*
Y19300D01*
X7150D01*
X7200Y19250D01*
Y19150D01*
X7150Y19100D01*
X7000D01*
X7100D02*
X7200Y19000D01*
X1020Y16620D02*
X920D01*
X970D01*
Y16370D01*
X920Y16320D01*
X870D01*
X820Y16370D01*
X1320Y16320D02*
X1120D01*
X1320Y16520D01*
Y16570D01*
X1270Y16620D01*
X1170D01*
X1120Y16570D01*
X12100Y16800D02*
X12050Y16850D01*
X11950D01*
X11900Y16800D01*
Y16600D01*
X11950Y16550D01*
X12050D01*
X12100Y16600D01*
X12350Y16550D02*
Y16850D01*
X12200Y16700D01*
X12400D01*
X22850Y13500D02*
X22800Y13550D01*
X22700D01*
X22650Y13500D01*
Y13300D01*
X22700Y13250D01*
X22800D01*
X22850Y13300D01*
X23150Y13550D02*
X23050Y13500D01*
X22950Y13400D01*
Y13300D01*
X23000Y13250D01*
X23100D01*
X23150Y13300D01*
Y13350D01*
X23100Y13400D01*
X22950D01*
X22850Y11950D02*
X22800Y12000D01*
X22700D01*
X22650Y11950D01*
Y11750D01*
X22700Y11700D01*
X22800D01*
X22850Y11750D01*
X22950Y12000D02*
X23150D01*
Y11950D01*
X22950Y11750D01*
Y11700D01*
X13850Y15500D02*
X13800Y15550D01*
X13700D01*
X13650Y15500D01*
Y15300D01*
X13700Y15250D01*
X13800D01*
X13850Y15300D01*
X14150Y15550D02*
X13950D01*
Y15400D01*
X14050Y15450D01*
X14100D01*
X14150Y15400D01*
Y15300D01*
X14100Y15250D01*
X14000D01*
X13950Y15300D01*
X21075Y17700D02*
X21025Y17750D01*
X20925D01*
X20875Y17700D01*
Y17500D01*
X20925Y17450D01*
X21025D01*
X21075Y17500D01*
X21175Y17450D02*
X21275D01*
X21225D01*
Y17750D01*
X21175Y17700D01*
X21425D02*
X21475Y17750D01*
X21575D01*
X21625Y17700D01*
Y17650D01*
X21575Y17600D01*
X21525D01*
X21575D01*
X21625Y17550D01*
Y17500D01*
X21575Y17450D01*
X21475D01*
X21425Y17500D01*
D16*
X4270Y7870D02*
Y7453D01*
X4353Y7370D01*
X4520D01*
X4603Y7453D01*
Y7870D01*
X4770D02*
Y7370D01*
X5103D01*
X5270Y7620D02*
X5603D01*
X6103Y7787D02*
X6019Y7870D01*
X5853D01*
X5770Y7787D01*
Y7703D01*
X5853Y7620D01*
X6019D01*
X6103Y7537D01*
Y7453D01*
X6019Y7370D01*
X5853D01*
X5770Y7453D01*
X6269Y7870D02*
Y7370D01*
X6436Y7537D01*
X6603Y7370D01*
Y7870D01*
X6769Y7370D02*
Y7703D01*
X6936Y7870D01*
X7102Y7703D01*
Y7370D01*
Y7620D01*
X6769D01*
X7269Y7370D02*
Y7870D01*
X7519D01*
X7602Y7787D01*
Y7620D01*
X7519Y7537D01*
X7269D01*
X7769Y7620D02*
X8102D01*
X8269Y7870D02*
Y7370D01*
X8519D01*
X8602Y7453D01*
Y7787D01*
X8519Y7870D01*
X8269D01*
X8769Y7370D02*
Y7703D01*
X8935Y7870D01*
X9102Y7703D01*
Y7370D01*
Y7620D01*
X8769D01*
X9602Y7453D02*
Y7787D01*
X9518Y7870D01*
X9352D01*
X9268Y7787D01*
Y7453D01*
X9352Y7370D01*
X9518D01*
X9435Y7537D02*
X9602Y7370D01*
X9518D02*
X9602Y7453D01*
X9768Y7620D02*
X10101D01*
X10268Y7370D02*
X10435D01*
X10351D01*
Y7870D01*
X10268Y7787D01*
M02*
