G04*
G04 #@! TF.GenerationSoftware,Altium Limited,Altium Designer,22.10.1 (41)*
G04*
G04 Layer_Physical_Order=1*
G04 Layer_Color=255*
%FSLAX24Y24*%
%MOIN*%
G70*
G04*
G04 #@! TF.SameCoordinates,EAAA1F8D-6CAC-4442-BC96-451E5CDCA5FB*
G04*
G04*
G04 #@! TF.FilePolarity,Positive*
G04*
G01*
G75*
%ADD11C,0.0100*%
%ADD16C,0.0120*%
%ADD17R,0.0335X0.0531*%
%ADD18R,0.0571X0.0472*%
G04:AMPARAMS|DCode=19|XSize=9.8mil|YSize=27.6mil|CornerRadius=2mil|HoleSize=0mil|Usage=FLASHONLY|Rotation=90.000|XOffset=0mil|YOffset=0mil|HoleType=Round|Shape=RoundedRectangle|*
%AMROUNDEDRECTD19*
21,1,0.0098,0.0236,0,0,90.0*
21,1,0.0059,0.0276,0,0,90.0*
1,1,0.0039,0.0118,0.0030*
1,1,0.0039,0.0118,-0.0030*
1,1,0.0039,-0.0118,-0.0030*
1,1,0.0039,-0.0118,0.0030*
%
%ADD19ROUNDEDRECTD19*%
G04:AMPARAMS|DCode=20|XSize=9.8mil|YSize=27.6mil|CornerRadius=2mil|HoleSize=0mil|Usage=FLASHONLY|Rotation=0.000|XOffset=0mil|YOffset=0mil|HoleType=Round|Shape=RoundedRectangle|*
%AMROUNDEDRECTD20*
21,1,0.0098,0.0236,0,0,0.0*
21,1,0.0059,0.0276,0,0,0.0*
1,1,0.0039,0.0030,-0.0118*
1,1,0.0039,-0.0030,-0.0118*
1,1,0.0039,-0.0030,0.0118*
1,1,0.0039,0.0030,0.0118*
%
%ADD20ROUNDEDRECTD20*%
%ADD21R,0.1358X0.1358*%
%ADD22R,0.0354X0.0295*%
G04:AMPARAMS|DCode=23|XSize=97.4mil|YSize=24.5mil|CornerRadius=12.2mil|HoleSize=0mil|Usage=FLASHONLY|Rotation=0.000|XOffset=0mil|YOffset=0mil|HoleType=Round|Shape=RoundedRectangle|*
%AMROUNDEDRECTD23*
21,1,0.0974,0.0000,0,0,0.0*
21,1,0.0729,0.0245,0,0,0.0*
1,1,0.0245,0.0365,0.0000*
1,1,0.0245,-0.0365,0.0000*
1,1,0.0245,-0.0365,0.0000*
1,1,0.0245,0.0365,0.0000*
%
%ADD23ROUNDEDRECTD23*%
%ADD24R,0.0974X0.0245*%
%ADD25R,0.0315X0.0354*%
%ADD26R,0.0374X0.0217*%
%ADD27R,0.0354X0.0315*%
%ADD28R,0.0205X0.0220*%
%ADD29R,0.0299X0.0283*%
%ADD30R,0.0283X0.0299*%
G04:AMPARAMS|DCode=31|XSize=9.4mil|YSize=23.6mil|CornerRadius=1.2mil|HoleSize=0mil|Usage=FLASHONLY|Rotation=0.000|XOffset=0mil|YOffset=0mil|HoleType=Round|Shape=RoundedRectangle|*
%AMROUNDEDRECTD31*
21,1,0.0094,0.0213,0,0,0.0*
21,1,0.0071,0.0236,0,0,0.0*
1,1,0.0024,0.0035,-0.0106*
1,1,0.0024,-0.0035,-0.0106*
1,1,0.0024,-0.0035,0.0106*
1,1,0.0024,0.0035,0.0106*
%
%ADD31ROUNDEDRECTD31*%
G04:AMPARAMS|DCode=32|XSize=23.6mil|YSize=9.4mil|CornerRadius=1.2mil|HoleSize=0mil|Usage=FLASHONLY|Rotation=0.000|XOffset=0mil|YOffset=0mil|HoleType=Round|Shape=RoundedRectangle|*
%AMROUNDEDRECTD32*
21,1,0.0236,0.0071,0,0,0.0*
21,1,0.0213,0.0094,0,0,0.0*
1,1,0.0024,0.0106,-0.0035*
1,1,0.0024,-0.0106,-0.0035*
1,1,0.0024,-0.0106,0.0035*
1,1,0.0024,0.0106,0.0035*
%
%ADD32ROUNDEDRECTD32*%
%ADD34R,0.1024X0.0748*%
%ADD35R,0.0177X0.0177*%
%ADD36R,0.0177X0.0177*%
%ADD37R,0.0236X0.0217*%
%ADD38R,0.0906X0.0591*%
%ADD39R,0.0398X0.0476*%
G04:AMPARAMS|DCode=40|XSize=94.5mil|YSize=242.9mil|CornerRadius=1.9mil|HoleSize=0mil|Usage=FLASHONLY|Rotation=270.000|XOffset=0mil|YOffset=0mil|HoleType=Round|Shape=RoundedRectangle|*
%AMROUNDEDRECTD40*
21,1,0.0945,0.2391,0,0,270.0*
21,1,0.0907,0.2429,0,0,270.0*
1,1,0.0038,-0.1196,-0.0454*
1,1,0.0038,-0.1196,0.0454*
1,1,0.0038,0.1196,0.0454*
1,1,0.0038,0.1196,-0.0454*
%
%ADD40ROUNDEDRECTD40*%
G04:AMPARAMS|DCode=41|XSize=17.7mil|YSize=63mil|CornerRadius=1.9mil|HoleSize=0mil|Usage=FLASHONLY|Rotation=0.000|XOffset=0mil|YOffset=0mil|HoleType=Round|Shape=RoundedRectangle|*
%AMROUNDEDRECTD41*
21,1,0.0177,0.0591,0,0,0.0*
21,1,0.0138,0.0630,0,0,0.0*
1,1,0.0039,0.0069,-0.0295*
1,1,0.0039,-0.0069,-0.0295*
1,1,0.0039,-0.0069,0.0295*
1,1,0.0039,0.0069,0.0295*
%
%ADD41ROUNDEDRECTD41*%
%ADD42R,0.0621X0.0613*%
%ADD43R,0.0613X0.0621*%
G04:AMPARAMS|DCode=44|XSize=17.7mil|YSize=51.2mil|CornerRadius=4.4mil|HoleSize=0mil|Usage=FLASHONLY|Rotation=90.000|XOffset=0mil|YOffset=0mil|HoleType=Round|Shape=RoundedRectangle|*
%AMROUNDEDRECTD44*
21,1,0.0177,0.0423,0,0,90.0*
21,1,0.0089,0.0512,0,0,90.0*
1,1,0.0089,0.0212,0.0044*
1,1,0.0089,0.0212,-0.0044*
1,1,0.0089,-0.0212,-0.0044*
1,1,0.0089,-0.0212,0.0044*
%
%ADD44ROUNDEDRECTD44*%
G04:AMPARAMS|DCode=45|XSize=17.7mil|YSize=51.2mil|CornerRadius=4.4mil|HoleSize=0mil|Usage=FLASHONLY|Rotation=90.000|XOffset=0mil|YOffset=0mil|HoleType=Round|Shape=RoundedRectangle|*
%AMROUNDEDRECTD45*
21,1,0.0177,0.0423,0,0,90.0*
21,1,0.0089,0.0512,0,0,90.0*
1,1,0.0089,0.0212,0.0044*
1,1,0.0089,0.0212,-0.0044*
1,1,0.0089,-0.0212,-0.0044*
1,1,0.0089,-0.0212,0.0044*
%
%ADD45ROUNDEDRECTD45*%
%ADD46R,0.0593X0.0732*%
%ADD47R,0.0732X0.0593*%
%ADD48R,0.0339X0.0289*%
%ADD49R,0.0531X0.0374*%
%ADD50R,0.0531X0.0374*%
%ADD51R,0.0276X0.0256*%
%ADD52R,0.1673X0.1673*%
%ADD53C,0.0617*%
%ADD54R,0.0617X0.0617*%
%ADD55C,0.0300*%
%ADD56R,0.0591X0.0591*%
%ADD57C,0.0591*%
%ADD58C,0.0200*%
%ADD59C,0.0551*%
%ADD60C,0.1181*%
%ADD61R,0.0551X0.0551*%
%ADD62C,0.0260*%
%ADD63C,0.0600*%
%ADD64C,0.0420*%
%ADD65C,0.0150*%
%ADD66C,0.0060*%
G36*
X15500Y11550D02*
X12850D01*
Y14200D01*
X15500D01*
Y11550D01*
D02*
G37*
G36*
X13250Y31150D02*
X11251D01*
X11241Y31152D01*
X10300D01*
Y32450D01*
X13250D01*
Y31150D01*
D02*
G37*
G36*
X24300Y31000D02*
X21300D01*
Y32300D01*
X24300D01*
Y31000D01*
D02*
G37*
%LPC*%
G36*
X14506Y13871D02*
Y13621D01*
X14406D01*
Y13871D01*
X14314Y13833D01*
X14301Y13819D01*
X14232D01*
Y12933D01*
X15119D01*
Y13001D01*
X15132Y13015D01*
X15170Y13106D01*
X14920D01*
Y13206D01*
X15170D01*
X15132Y13298D01*
X15119Y13311D01*
Y13819D01*
X14611D01*
X14598Y13833D01*
X14506Y13871D01*
D02*
G37*
G36*
X13959D02*
Y13621D01*
X13859D01*
Y13871D01*
X13767Y13833D01*
X13754Y13819D01*
X13246D01*
Y13311D01*
X13232Y13298D01*
X13194Y13206D01*
X13444D01*
Y13106D01*
X13194D01*
X13232Y13015D01*
X13246Y13001D01*
Y12933D01*
X14132D01*
Y13819D01*
X14064D01*
X14050Y13833D01*
X13959Y13871D01*
D02*
G37*
G36*
X15119Y12833D02*
X14232D01*
Y11946D01*
X14301D01*
X14314Y11933D01*
X14406Y11895D01*
Y12144D01*
X14506D01*
Y11895D01*
X14598Y11933D01*
X14611Y11946D01*
X15119D01*
Y12454D01*
X15132Y12467D01*
X15170Y12559D01*
X14920D01*
Y12659D01*
X15170D01*
X15132Y12751D01*
X15119Y12764D01*
Y12833D01*
D02*
G37*
G36*
X14132D02*
X13246D01*
Y12764D01*
X13232Y12751D01*
X13194Y12659D01*
X13444D01*
Y12559D01*
X13194D01*
X13232Y12467D01*
X13246Y12454D01*
Y11946D01*
X13754D01*
X13767Y11933D01*
X13859Y11895D01*
Y12144D01*
X13959D01*
Y11895D01*
X14050Y11933D01*
X14064Y11946D01*
X14132D01*
Y12833D01*
D02*
G37*
G36*
X12972Y32366D02*
X11826D01*
Y31841D01*
X13093D01*
Y32245D01*
X13084Y32291D01*
X13058Y32330D01*
X13018Y32357D01*
X12972Y32366D01*
D02*
G37*
G36*
X11726D02*
X10581D01*
X10534Y32357D01*
X10495Y32330D01*
X10469Y32291D01*
X10459Y32245D01*
Y31841D01*
X11726D01*
Y32366D01*
D02*
G37*
G36*
X13093Y31741D02*
X11826D01*
Y31216D01*
X12972D01*
X13018Y31226D01*
X13058Y31252D01*
X13084Y31291D01*
X13093Y31338D01*
Y31741D01*
D02*
G37*
G36*
X11726D02*
X10459D01*
Y31338D01*
X10469Y31291D01*
X10495Y31252D01*
X10534Y31226D01*
X10581Y31216D01*
X11726D01*
Y31741D01*
D02*
G37*
G36*
X24022Y32216D02*
X22876D01*
Y31691D01*
X24143D01*
Y32095D01*
X24134Y32141D01*
X24108Y32180D01*
X24068Y32207D01*
X24022Y32216D01*
D02*
G37*
G36*
X22776D02*
X21631D01*
X21584Y32207D01*
X21545Y32180D01*
X21519Y32141D01*
X21509Y32095D01*
Y31691D01*
X22776D01*
Y32216D01*
D02*
G37*
G36*
X24143Y31591D02*
X22876D01*
Y31066D01*
X24022D01*
X24068Y31076D01*
X24108Y31102D01*
X24134Y31141D01*
X24143Y31188D01*
Y31591D01*
D02*
G37*
G36*
X22776D02*
X21509D01*
Y31188D01*
X21519Y31141D01*
X21545Y31102D01*
X21584Y31076D01*
X21631Y31066D01*
X22776D01*
Y31591D01*
D02*
G37*
%LPD*%
D11*
X5050Y28576D02*
X5775Y29302D01*
X5050Y22100D02*
X8350Y18800D01*
X5050Y22100D02*
Y28576D01*
X5775Y26675D02*
Y27033D01*
Y26675D02*
X6150Y26300D01*
X10842Y30552D02*
X10881Y30590D01*
X10842Y30242D02*
Y30552D01*
X8200Y27600D02*
X10842Y30242D01*
X7500Y27600D02*
X8200D01*
X11137Y30137D02*
Y30590D01*
X10550Y29000D02*
Y29550D01*
X11137Y30137D01*
X6933Y27033D02*
X7500Y27600D01*
X6425Y27033D02*
X6933D01*
X5220Y22143D02*
Y27999D01*
X5616Y28395D01*
X5220Y22143D02*
X8412Y18950D01*
X5400Y22174D02*
Y27447D01*
Y22174D02*
X8462Y19112D01*
X5400Y27447D02*
X5775Y27822D01*
Y28512D02*
Y28611D01*
X5616Y28395D02*
X5658D01*
X5775Y28512D01*
Y29302D02*
Y29400D01*
X6425Y27822D02*
X8134D01*
X10586Y30274D01*
Y30552D01*
X10074D02*
X10113Y30590D01*
X6425Y29400D02*
X9200D01*
X10074Y30274D02*
Y30552D01*
X9200Y29400D02*
X10074Y30274D01*
X10586Y30552D02*
X10625Y30590D01*
X6425Y28611D02*
X8667D01*
X10330Y30552D02*
X10369Y30590D01*
X10330Y30274D02*
Y30552D01*
X8667Y28611D02*
X10330Y30274D01*
X25661Y28589D02*
X27325D01*
X24234Y30016D02*
X25661Y28589D01*
X24490Y29972D02*
Y30440D01*
X25084Y29378D02*
X27325D01*
X24490Y29972D02*
X25084Y29378D01*
X23761Y29999D02*
X26760Y27000D01*
X27325D01*
X23997Y30003D02*
X26200Y27800D01*
X27325D01*
X28800Y23700D02*
Y27181D01*
X28027Y27748D02*
X28234D01*
X27975Y27800D02*
X28027Y27748D01*
X28234D02*
X28800Y27181D01*
X27975Y26902D02*
Y27000D01*
X28092Y26784D02*
X28191D01*
X28250Y24650D02*
Y26725D01*
X27975Y26902D02*
X28092Y26784D01*
X28191D02*
X28250Y26725D01*
X27975Y28491D02*
X28950Y27515D01*
X27975Y28491D02*
Y28589D01*
X28950Y23600D02*
Y27515D01*
X28522Y29378D02*
X29100Y28800D01*
Y23500D02*
Y28800D01*
X27975Y29378D02*
X28522D01*
X8729Y30934D02*
X8895Y31100D01*
X8949D01*
X11384Y30896D02*
Y30908D01*
X11241Y31050D02*
X11384Y30908D01*
X9130Y31050D02*
X11241D01*
X11384Y30896D02*
X11393Y30887D01*
X8990Y31190D02*
X9130Y31050D01*
X22404Y30402D02*
X22439Y30367D01*
X20890Y22810D02*
Y23048D01*
X20340Y22260D02*
X20890Y22810D01*
X8244Y24706D02*
X8244D01*
X7894Y24734D02*
X7898Y24730D01*
X24794Y24634D02*
X24798Y24630D01*
X19240Y24634D02*
X19274Y24600D01*
X18672Y13572D02*
X28800Y23700D01*
X15915Y13572D02*
X18672D01*
X15915Y13375D02*
X18725D01*
X28950Y23600D01*
X15915Y13178D02*
X18778D01*
X29100Y23500D01*
X23997Y30003D02*
Y30421D01*
X24234Y30016D02*
Y30440D01*
X28250Y23375D02*
Y24650D01*
X18643Y13769D02*
X28250Y23375D01*
X26484Y24853D02*
X26512Y24881D01*
X26969Y24765D02*
X27013D01*
X26853Y24881D02*
X26969Y24765D01*
X26512Y24881D02*
X26853D01*
X21433Y24757D02*
X21462D01*
X21299Y24891D02*
X21433Y24757D01*
X20894Y24891D02*
X21299D01*
X15665Y24800D02*
X15708D01*
X15553Y24911D02*
X15665Y24800D01*
X15147Y24940D02*
X15176Y24911D01*
X15553D01*
X10093Y24850D02*
X10100D01*
X9953Y24990D02*
X10093Y24850D01*
X9548Y24990D02*
X9953D01*
X7393Y24900D02*
X7484Y24990D01*
X7894D01*
X7350Y24900D02*
X7393D01*
X20031Y29131D02*
X20650Y29750D01*
X21153D01*
X21154Y29750D01*
X21212D01*
X21411Y29949D01*
X21675Y30001D02*
Y30440D01*
X21024Y29350D02*
X21675Y30001D01*
X21411Y29949D02*
Y30432D01*
X21419Y30440D01*
X21091Y29900D02*
X21150Y29958D01*
Y30427D01*
X19600Y29400D02*
X20100Y29900D01*
X21091D01*
X20000Y29000D02*
X20031Y29031D01*
Y29131D01*
X20700Y29350D02*
X21024D01*
X20400Y29050D02*
X20700Y29350D01*
X20400Y28600D02*
Y29050D01*
X20800Y28200D02*
Y28838D01*
X21931Y29968D01*
X13600Y28200D02*
Y29650D01*
X13400Y29850D02*
X13600Y29650D01*
X13464Y30000D02*
X13950Y29514D01*
Y28600D02*
Y29514D01*
X13527Y30150D02*
X14300Y29377D01*
Y29000D02*
Y29377D01*
X13563Y30325D02*
X14458Y29431D01*
X14619D02*
X14650Y29400D01*
X14458Y29431D02*
X14619D01*
X13478Y30325D02*
X13563D01*
X7446Y12250D02*
Y12593D01*
X7503Y12650D01*
X12244Y16144D02*
X12507Y16407D01*
X12231Y16144D02*
X12244D01*
X22435Y29850D02*
X22439Y29854D01*
Y30367D01*
X22404Y30402D02*
X22443Y30440D01*
X21931Y29968D02*
Y30440D01*
X20719Y30269D02*
Y30530D01*
X21044Y30855D01*
X22305D01*
X20700Y30250D02*
X20719Y30269D01*
X22305Y30855D02*
X22404Y30757D01*
Y30479D02*
Y30757D01*
Y30479D02*
X22443Y30440D01*
X20700Y30250D02*
Y30932D01*
X20641Y30990D02*
X20700Y30932D01*
X19980Y30990D02*
X20641D01*
X24063Y26648D02*
Y26728D01*
Y26648D02*
X24160Y26551D01*
X24190D01*
X23308Y27483D02*
X24063Y26728D01*
X25831Y26830D02*
Y26969D01*
X25800Y27000D02*
X25831Y26969D01*
X26115Y26545D02*
X26194D01*
X25831Y26830D02*
X26115Y26545D01*
X20610Y26550D02*
X20640Y26580D01*
X20050Y26550D02*
X20610D01*
X17943Y26600D02*
X17998Y26545D01*
X17900Y26600D02*
X17943D01*
X17998Y26545D02*
X18590D01*
X7319Y26651D02*
X7738Y27069D01*
X7819D02*
X7850Y27100D01*
X7290Y26651D02*
X7319D01*
X7738Y27069D02*
X7819D01*
X9290Y26645D02*
X9300Y26656D01*
Y27150D01*
X14698Y26732D02*
Y26952D01*
X14835Y26595D02*
X14890D01*
X14698Y26732D02*
X14835Y26595D01*
X14500Y27150D02*
X14698Y26952D01*
X13219Y26896D02*
Y27119D01*
X13250Y27150D01*
X12940Y26645D02*
X12969D01*
X13219Y26896D01*
X12838Y16731D02*
X12879Y16771D01*
X13229D01*
X13250Y16750D02*
X13881D01*
X13229Y16771D02*
X13250Y16750D01*
X13881D02*
X13900Y16731D01*
X12720Y15411D02*
Y15900D01*
Y15411D02*
X13100Y15031D01*
X12507Y16407D02*
X12800D01*
X22300Y12004D02*
Y12300D01*
Y12850D02*
Y13246D01*
X17669Y11981D02*
X17700Y11950D01*
X17201Y12400D02*
X17620Y11981D01*
X17669D01*
X16600Y12800D02*
X18023D01*
X16388Y12587D02*
X16600Y12800D01*
X18023D02*
X18323Y12500D01*
X18333D01*
X15915Y12587D02*
X16388D01*
X16183Y12950D02*
X19257D01*
X15983Y12787D02*
X16030Y12834D01*
X16067D01*
X19257Y12950D02*
X19350Y12857D01*
X19607D01*
X16067Y12834D02*
X16183Y12950D01*
X15963Y16466D02*
X16160Y16663D01*
X15766Y16269D02*
X15963Y16466D01*
X15510D02*
X15963D01*
X7503Y13619D02*
X8596Y12526D01*
X9893D01*
X10011Y12407D01*
X11300D01*
X26340Y9040D02*
X26750Y9450D01*
X22201Y9100D02*
X22229Y9072D01*
X22537Y9600D02*
X22697Y9440D01*
X22201Y9600D02*
X22537D01*
X24186Y9260D02*
X24586Y8860D01*
X22537Y9100D02*
X22697Y9260D01*
X24186D01*
X22201Y9100D02*
X22537D01*
X24660Y9040D02*
X26340D01*
X24586Y8860D02*
X26340D01*
X26750Y8450D01*
X24260Y9440D02*
X24660Y9040D01*
X22697Y9440D02*
X24260D01*
X17709Y9100D02*
X20299D01*
X16430Y10380D02*
X17709Y9100D01*
X16430Y10380D02*
X17300Y11250D01*
X15727Y11082D02*
X16430Y10380D01*
X17300Y11250D02*
X24900D01*
X15661Y11082D02*
X15727D01*
X25500Y11850D02*
X26250D01*
X24900Y11250D02*
X25500Y11850D01*
X21025Y10725D02*
X21899D01*
X20345Y10700D02*
X21000D01*
X21025Y10725D01*
X21000Y10668D02*
Y10700D01*
X20399Y9999D02*
X20684Y10284D01*
X21899Y10725D02*
X21924Y10750D01*
X20684Y10352D02*
X21000Y10668D01*
X20684Y10284D02*
Y10352D01*
X20299Y9999D02*
X20399D01*
X20299Y9600D02*
Y9999D01*
X18146Y15479D02*
X18264D01*
X14404Y20320D02*
X15955Y18770D01*
X14809Y20809D02*
Y20891D01*
X14404Y20320D02*
Y20404D01*
X14809Y20809D01*
X15955Y17998D02*
Y18770D01*
X14224Y20246D02*
Y20426D01*
X15775Y17998D02*
Y18696D01*
X14224Y20246D02*
X15775Y18696D01*
X13841Y20809D02*
X14224Y20426D01*
X13841Y20809D02*
Y20891D01*
X18281Y17458D02*
X20863Y20040D01*
X20788Y20220D02*
X23551D01*
X20863Y20040D02*
X23625D01*
X23551Y20220D02*
X23750Y20419D01*
X18207Y17638D02*
X20788Y20220D01*
X23625Y20040D02*
X23835Y20250D01*
X10354Y20711D02*
X11361D01*
X10282Y20539D02*
X11361D01*
X9245Y21576D02*
X10282Y20539D01*
X9362Y21703D02*
X10354Y20711D01*
X9362Y21703D02*
Y21703D01*
X8650Y22161D02*
X9234Y21576D01*
X8830Y22235D02*
X9362Y21703D01*
X9234Y21576D02*
X9245D01*
X23750Y20419D02*
Y21041D01*
X23809Y21100D01*
X24469D01*
X24600Y20309D02*
Y20977D01*
X24541Y20250D02*
X24600Y20309D01*
X23835Y20250D02*
X24541D01*
X24600Y20977D02*
X25684Y22061D01*
X24469Y21100D02*
X25504Y22135D01*
X25889Y22406D02*
Y22426D01*
Y22386D02*
Y22406D01*
X25684Y22061D02*
Y22220D01*
X25742Y22279D01*
X19381Y20089D02*
Y20708D01*
X18696Y20031D02*
X19322D01*
X17136Y18470D02*
X18696Y20031D01*
X19322D02*
X19381Y20089D01*
X18659Y20800D02*
X19218D01*
X18600Y20189D02*
Y20741D01*
X18659Y20800D01*
X16956Y18545D02*
X18600Y20189D01*
X19218Y20800D02*
X19954Y21536D01*
X13841Y20891D02*
X14250Y21300D01*
X14430Y21270D02*
X14809Y20891D01*
X14430Y21270D02*
Y22205D01*
X14250Y21300D02*
Y22205D01*
X11750Y21057D02*
X12107Y20700D01*
X12193D01*
X15270Y17623D01*
X11750Y21057D02*
Y21100D01*
Y20150D02*
X12099Y20499D01*
X12182D01*
X15208Y17473D01*
X11361Y20539D02*
X11750Y20150D01*
X11361Y20711D02*
X11750Y21100D01*
X15270Y17623D02*
X15400D01*
Y17473D02*
X15423Y17450D01*
X15400Y17623D02*
X15423Y17647D01*
X15208Y17473D02*
X15400D01*
X9035Y22506D02*
Y22526D01*
Y22486D02*
Y22506D01*
X15423Y17647D02*
X15510D01*
X15423Y17450D02*
X15510D01*
X8650Y22161D02*
Y22320D01*
X8830Y22235D02*
Y22320D01*
X7965Y23203D02*
X7990D01*
X8015D02*
X8337Y22881D01*
X7990Y23203D02*
X8015D01*
X7806Y23045D02*
X7965Y23203D01*
X7142Y23045D02*
X7806D01*
X8444Y22486D02*
X8552Y22379D01*
X8591D02*
X8650Y22320D01*
X8552Y22379D02*
X8591D01*
X8337Y22613D02*
X8444Y22506D01*
X8337Y22613D02*
Y22881D01*
X8444Y22486D02*
Y22506D01*
X10132Y23248D02*
X10372Y23008D01*
X10392D01*
X9424Y23153D02*
X9519Y23248D01*
X9544D02*
X10132D01*
X9519D02*
X9544D01*
X9424Y22915D02*
Y23153D01*
X9035Y22526D02*
X9424Y22915D01*
X8928Y22379D02*
X9035Y22486D01*
X8888Y22379D02*
X8928D01*
X8830Y22320D02*
X8888Y22379D01*
X25299Y22386D02*
X25406Y22279D01*
X25445D01*
X25504Y22220D01*
Y22135D02*
Y22220D01*
X25299Y22386D02*
Y22426D01*
X24914Y22811D02*
X25299Y22426D01*
X17136Y17998D02*
Y18470D01*
X20340Y22221D02*
Y22260D01*
X19954Y21536D02*
Y22055D01*
X19857Y22113D02*
Y22113D01*
X20232Y22113D02*
X20340Y22221D01*
X19857Y22113D02*
X19896D01*
X20134Y21461D02*
Y22055D01*
X16956Y17998D02*
Y18545D01*
X19896Y22113D02*
X19954Y22055D01*
X20193Y22113D02*
X20232D01*
X19381Y20708D02*
X20134Y21461D01*
X19857Y22113D02*
X19857Y22113D01*
X20134Y22055D02*
X20193Y22113D01*
X16947Y17903D02*
Y17990D01*
X17144Y17903D02*
Y17990D01*
X17136Y17998D02*
X17144Y17990D01*
X16947D02*
X16956Y17998D01*
X15955D02*
X15963Y17990D01*
X14152Y22263D02*
X14191D01*
X14488D02*
X14528D01*
X15766Y17903D02*
Y17990D01*
X14430Y22205D02*
X14488Y22263D01*
X14528D02*
X14743Y22478D01*
X15766Y17990D02*
X15775Y17998D01*
X14044Y22371D02*
Y22390D01*
X14191Y22263D02*
X14250Y22205D01*
X14743Y22478D02*
Y22751D01*
X14044Y22371D02*
X14152Y22263D01*
X15963Y17903D02*
Y17990D01*
X8619Y17950D02*
X8719Y17850D01*
X9500D01*
X21018Y22945D02*
X21740D01*
X20915Y23048D02*
X21018Y22945D01*
X20890Y23048D02*
X20915D01*
X15915Y13769D02*
X18643D01*
X17400Y16269D02*
X17781D01*
X18097Y15527D02*
Y15909D01*
X18000Y16007D02*
Y16050D01*
Y16007D02*
X18097Y15909D01*
Y15527D02*
X18146Y15479D01*
X17781Y16269D02*
X18000Y16050D01*
X12376Y12793D02*
X12385Y12784D01*
X11300Y12793D02*
X12376D01*
X12385Y12784D02*
X12450D01*
X7446Y12250D02*
X9196Y10500D01*
X19950Y17334D02*
X20434D01*
X20850Y17750D02*
Y19200D01*
X20434Y17334D02*
X20850Y17750D01*
X16600Y11800D02*
Y11818D01*
X16789Y12007D02*
Y12382D01*
X15983Y11800D02*
X16526D01*
X16550Y11776D01*
Y11750D02*
Y11776D01*
X16600Y11818D02*
X16789Y12007D01*
X16550Y11750D02*
X16600Y11800D01*
X17193Y12400D02*
X17201D01*
X13387Y15370D02*
X13493Y15263D01*
X13693Y14850D02*
X13787Y14944D01*
X14084Y14615D02*
Y15015D01*
X12800Y16299D02*
X14084Y15015D01*
X13387Y15370D02*
Y15387D01*
X13787Y14944D02*
Y14987D01*
X9200Y16400D02*
X9231Y16369D01*
X9291D01*
X12283Y13378D01*
X12447D01*
X7357Y16300D02*
X7850D01*
X8050Y16500D01*
X14984Y16859D02*
X15510D01*
X14820Y16695D02*
X14984Y16859D01*
X14800Y16695D02*
X14820D01*
Y16105D02*
X15330Y16615D01*
X15423Y16663D02*
X16160D01*
X15330Y16615D02*
X15376D01*
X14800Y16105D02*
X14820D01*
X15376Y16615D02*
X15423Y16663D01*
X16850Y15350D02*
Y15393D01*
Y14995D02*
Y15350D01*
X16050D02*
X16356Y15656D01*
X15738Y15038D02*
X16050Y15350D01*
X8350Y18800D02*
X9338D01*
X8412Y18950D02*
X9400D01*
X11329Y15415D02*
Y17929D01*
X11155Y15354D02*
Y18205D01*
X10817Y17533D02*
X10855D01*
X10981Y17619D02*
X11005D01*
X11479Y17627D02*
X12181Y18329D01*
X9338Y18800D02*
X10705Y17433D01*
X11329Y17929D02*
X11950Y18550D01*
X9400Y18950D02*
X10817Y17533D01*
X9488Y19112D02*
X10981Y17619D01*
X11155Y18205D02*
X11725Y18775D01*
X11737D01*
X8462Y19112D02*
X9488D01*
X13905Y18195D02*
X14847Y17253D01*
X14049Y15801D02*
Y15951D01*
X13900Y16100D02*
X14049Y15951D01*
X13424Y17309D02*
X14297D01*
X13129Y17605D02*
X13424Y17309D01*
X13050Y18195D02*
X13905D01*
X14847Y17253D02*
X16160D01*
X14049Y15801D02*
X14281Y15569D01*
X14478Y15323D02*
X15423Y16269D01*
X14550Y17056D02*
X15510D01*
X14297Y17309D02*
X14550Y17056D01*
X15153Y15338D02*
X15408D01*
X16159Y15877D02*
Y16012D01*
X15766Y16013D02*
Y16269D01*
X15408Y15338D02*
X15962Y15892D01*
Y16012D02*
X15963Y16013D01*
X15962Y15892D02*
Y16012D01*
X16159D02*
X16160Y16013D01*
X15423Y16269D02*
X15510D01*
X16947Y16013D02*
X16947Y16466D01*
X16750Y16663D02*
X16947Y16466D01*
X16750Y16663D02*
X17400D01*
X21157Y11696D02*
X22300D01*
X20657D02*
X21062D01*
X21157D01*
X20657D02*
X21062Y11737D01*
X21157Y11746D01*
X21050Y11854D02*
X21157Y11746D01*
X20093Y11800D02*
X20996D01*
X21050Y11854D01*
X17400Y17450D02*
X17487D01*
X17495Y17458D01*
X18281D01*
X18288Y17253D02*
X19001Y17966D01*
X17495Y17638D02*
X18207D01*
X17487Y17647D02*
X17495Y17638D01*
X17400Y17647D02*
X17487D01*
X19001Y17966D02*
X19950D01*
X18667Y12500D02*
X19307D01*
X19350Y12543D02*
X20093Y11800D01*
X19607Y12857D02*
X20296Y13546D01*
X21050D01*
X21057Y13554D01*
X22300D01*
X15915Y12391D02*
X16691D01*
X16506Y15349D02*
Y15878D01*
X16400Y15200D02*
Y15243D01*
X16506Y15349D01*
X16350Y17909D02*
X16357Y17903D01*
X16160D02*
Y18461D01*
X16554Y17903D02*
Y18463D01*
X16350Y17909D02*
Y18461D01*
X16160D02*
X16214Y18514D01*
X16296D02*
X16350Y18461D01*
X16554Y18463D02*
X16610Y18519D01*
X16214Y18514D02*
X16296D01*
X16610Y18519D02*
X16693D01*
X16750Y18463D01*
X18654Y15404D02*
X18657Y15400D01*
X18654Y15404D02*
Y16331D01*
X18650Y16334D02*
X18654Y16331D01*
X18090Y16334D02*
X18650D01*
X17959Y16466D02*
X18090Y16334D01*
X16947Y16466D02*
X17959D01*
X17400Y16859D02*
X17487D01*
X17493Y16866D01*
X18650D01*
X16750Y17253D02*
X18288D01*
X16750Y17903D02*
X16750Y17903D01*
X16750Y17903D02*
Y18463D01*
X16455Y16958D02*
X16750Y17253D01*
X16160Y16663D02*
X16455Y16958D01*
X16750Y16663D01*
X16160Y17253D02*
X16455Y16958D01*
X16356Y16012D02*
X16357Y16013D01*
X14677Y14683D02*
Y14861D01*
X14874Y14846D02*
X15216Y15188D01*
X15068Y14828D02*
X15278Y15038D01*
X15738D01*
X14677Y14861D02*
X15153Y15338D01*
X15216Y15188D02*
X15470D01*
X14874Y14683D02*
Y14846D01*
X15915Y13965D02*
X15980D01*
X16020Y14165D02*
X16850Y14995D01*
X15983Y14165D02*
X16020D01*
X16006Y13939D02*
X17260Y15193D01*
X15983Y14165D02*
X15983Y14165D01*
X16506Y15878D02*
X16553Y15925D01*
X16088Y14888D02*
X16400Y15200D01*
X15470Y15188D02*
X16159Y15877D01*
X17260Y15193D02*
Y15609D01*
X17144Y15725D02*
X17260Y15609D01*
X16356Y15656D02*
Y16012D01*
X17144Y15725D02*
Y16013D01*
X15520Y14888D02*
X16088D01*
X16750Y15493D02*
X16850Y15393D01*
X16750Y15493D02*
Y16013D01*
X8503Y12150D02*
X9950D01*
X7503Y13619D02*
Y13650D01*
X7589Y13736D01*
X8503Y14150D02*
X10070D01*
X6500Y16300D02*
X7043D01*
X9196Y10500D02*
X12500D01*
X11450Y10650D02*
X12400D01*
X9950Y12150D02*
X11450Y10650D01*
X11300Y12407D02*
X11798D01*
X11978Y12587D01*
X11043Y13178D02*
X12450D01*
X10070Y14150D02*
X11043Y13178D01*
X10705Y15168D02*
X12298Y13574D01*
X10855Y15230D02*
X12314Y13771D01*
X11005Y15292D02*
X12285Y14012D01*
X11155Y15354D02*
X12297Y14212D01*
X11329Y15415D02*
X12385Y14359D01*
X11479Y15477D02*
X12341Y14615D01*
X10705Y15168D02*
Y17433D01*
X10855Y15230D02*
Y17533D01*
X11005Y15292D02*
Y17619D01*
X11479Y15477D02*
Y17627D01*
X13054Y10004D02*
Y10446D01*
X13057Y10450D01*
X13097Y10490D01*
X13390Y10503D02*
X13443Y10450D01*
X13390Y10503D02*
Y10742D01*
X13296Y10835D02*
X13390Y10742D01*
X13097Y10490D02*
Y11148D01*
X13296Y10835D02*
Y11150D01*
X12903Y10903D02*
Y11150D01*
X12706Y10956D02*
Y11150D01*
X13097Y11148D02*
X13100Y11150D01*
X12500Y10500D02*
X12903Y10903D01*
X12400Y10650D02*
X12706Y10956D01*
X11978Y12587D02*
X12450D01*
X12447Y13378D02*
X12450Y13375D01*
X12298Y13574D02*
X12382D01*
X12314Y13771D02*
X12382D01*
X12338Y14012D02*
X12382Y13968D01*
X12285Y14012D02*
X12338D01*
X12385Y14162D02*
X12450D01*
X12335Y14212D02*
X12385Y14162D01*
X12297Y14212D02*
X12335D01*
X12385Y14359D02*
X12450D01*
X12341Y14615D02*
X12706D01*
X13296Y11150D02*
Y11997D01*
X14084Y12784D01*
X12903Y14615D02*
Y14680D01*
X12853Y14730D02*
X12903Y14680D01*
X12853Y14730D02*
Y14768D01*
X12788Y14833D02*
X12853Y14768D01*
X13100Y14615D02*
Y15031D01*
X12335Y14833D02*
X12788D01*
X12000Y15168D02*
X12335Y14833D01*
X13100Y15243D02*
X13296Y15047D01*
X13100Y15243D02*
Y15650D01*
X12000Y15168D02*
Y17200D01*
X12800Y16299D02*
Y16307D01*
X13050Y17605D02*
X13129D01*
X13690Y14615D02*
X13693Y14618D01*
Y14850D01*
X13296Y14615D02*
Y15047D01*
X13493Y14615D02*
Y15263D01*
X14596Y10004D02*
Y10446D01*
X14593Y10450D02*
X14596Y10446D01*
X14593Y10450D02*
Y10756D01*
X14207Y10450D02*
Y10777D01*
X14478Y10871D02*
X14593Y10756D01*
X14207Y10777D02*
X14281Y10850D01*
Y11150D01*
X14478Y10871D02*
Y11150D01*
X14281D02*
Y12784D01*
X14182Y12883D02*
X14281Y12784D01*
Y14615D02*
Y15569D01*
X14182Y12883D02*
X15360D01*
X14478Y14615D02*
Y15323D01*
X15360Y12883D02*
X15458Y12981D01*
X15915D01*
X15068Y14615D02*
Y14828D01*
X15462Y14615D02*
Y14829D01*
X15520Y14888D01*
X21150Y30427D02*
X21163Y30440D01*
X13440Y30364D02*
X13478Y30325D01*
X13347Y30150D02*
X13527D01*
X13440Y30364D02*
Y30590D01*
X13241Y30000D02*
X13464D01*
X12681Y30091D02*
X13079Y29694D01*
X12638Y30091D02*
X12681D01*
X12455Y30274D02*
X12638Y30091D01*
X13270Y27874D02*
Y29635D01*
X13079Y29694D02*
X13211D01*
X13270Y29635D01*
Y27874D02*
X13790Y27354D01*
Y26595D02*
Y27354D01*
X12455Y30274D02*
Y30552D01*
X12416Y30590D02*
X12455Y30552D01*
X12711Y30274D02*
X13135Y29850D01*
X13400D01*
X12967Y30274D02*
X13241Y30000D01*
X13222Y30274D02*
X13347Y30150D01*
X12711Y30274D02*
Y30552D01*
X12672Y30590D02*
X12711Y30552D01*
X12967Y30274D02*
Y30552D01*
X12928Y30590D02*
X12967Y30552D01*
X13222Y30274D02*
Y30552D01*
X13184Y30590D02*
X13222Y30552D01*
X8332Y26782D02*
X10550Y29000D01*
X8227Y26782D02*
X8332D01*
X8090Y26645D02*
X8227Y26782D01*
X20893Y24890D02*
X20894Y24891D01*
X9547Y24990D02*
X9548Y24990D01*
X15140Y24692D02*
X15147Y24684D01*
X14358Y24692D02*
X15140D01*
X14350Y24700D02*
X14358Y24692D01*
X26447Y24890D02*
X26484Y24853D01*
X23978Y30440D02*
X23997Y30421D01*
X23761Y29999D02*
Y30402D01*
X23722Y30440D02*
X23761Y30402D01*
X25742Y22279D02*
X25782D01*
X23994Y22945D02*
X24653D01*
X25782Y22279D02*
X25889Y22386D01*
X24769Y23061D02*
X24794D01*
X24653Y22945D02*
X24769Y23061D01*
X6745Y23855D02*
X6903D01*
X7122Y23636D01*
X6730Y23869D02*
X6745Y23855D01*
X7122Y23636D02*
X7142D01*
X26444Y23085D02*
X26469D01*
X26659Y22895D01*
X26324Y22990D02*
X26419Y23085D01*
X26444D01*
X26659Y22895D02*
X27292D01*
X26324Y22861D02*
Y22990D01*
X25889Y22426D02*
X26324Y22861D01*
X24914Y22811D02*
Y22966D01*
X24794Y23061D02*
X24819D01*
X24914Y22966D01*
X8817Y24717D02*
X9530D01*
X8800Y24700D02*
X8817Y24717D01*
X9530D02*
X9547Y24734D01*
X19749Y22221D02*
X19857Y22113D01*
X19749Y22221D02*
Y22240D01*
Y22564D01*
X19265Y23048D02*
X19749Y22564D01*
X19240Y23048D02*
X19265D01*
X19215D02*
X19240D01*
X19106Y22940D02*
X19215Y23048D01*
X18390Y22940D02*
X19106D01*
X12694Y22995D02*
X12713D01*
X12872Y23154D01*
X13542D01*
X13567D01*
X13937Y22783D01*
Y22498D02*
Y22783D01*
Y22498D02*
X14044Y22390D01*
X14743Y22751D02*
X15020Y23028D01*
Y23053D01*
X15115Y23148D01*
X15140D01*
X15165D01*
X15355Y22958D01*
X15992D01*
X20100Y24650D02*
X20108Y24642D01*
X20886D01*
X20893Y24634D01*
X25700Y24650D02*
X25708Y24642D01*
X26440D01*
X26447Y24634D01*
X22265Y25133D02*
X22277Y25121D01*
D16*
X5800Y30150D02*
X8150D01*
X8774Y30774D01*
X8990Y31100D02*
Y31190D01*
X8774Y30944D02*
X8930Y31100D01*
X8990D01*
X8774Y30774D02*
Y30944D01*
X8244Y24706D02*
X8750Y24200D01*
Y23850D02*
Y24200D01*
X7898Y24730D02*
X8220D01*
X8244Y24706D01*
X13494Y24684D02*
X13499Y24679D01*
X13821D01*
X14300Y24200D01*
Y23800D02*
Y24200D01*
X24798Y24630D02*
X25120D01*
X25450Y23400D02*
Y24300D01*
X25120Y24630D02*
X25450Y24300D01*
X20063Y23787D02*
Y24137D01*
X19600Y24600D02*
X20063Y24137D01*
X19274Y24600D02*
X19600D01*
X19750Y34060D02*
X19996Y33813D01*
X12450Y12784D02*
X14084D01*
X5981Y16819D02*
X6500Y16300D01*
X5981Y16819D02*
Y17950D01*
X6500Y16300D02*
X8482Y14318D01*
X14084Y12784D02*
X14182Y12883D01*
X25693Y33804D02*
X25940Y34050D01*
X22974Y32902D02*
X22983Y32870D01*
X22954Y32842D02*
X22983Y32870D01*
D17*
X6425Y29400D02*
D03*
X5775D02*
D03*
X6425Y28611D02*
D03*
X5775D02*
D03*
X6425Y27822D02*
D03*
X5775D02*
D03*
X6425Y27033D02*
D03*
X5775D02*
D03*
X27325Y27000D02*
D03*
X27975D02*
D03*
X27325Y27800D02*
D03*
X27975D02*
D03*
X27325Y28589D02*
D03*
X27975D02*
D03*
X27325Y29378D02*
D03*
X27975D02*
D03*
D18*
X6723Y24484D02*
D03*
Y25271D02*
D03*
X24650Y34694D02*
D03*
Y33907D02*
D03*
X20895Y34694D02*
D03*
Y33907D02*
D03*
X13995Y34844D02*
D03*
Y34057D02*
D03*
X9950Y34844D02*
D03*
Y34057D02*
D03*
X10731Y25237D02*
D03*
Y24449D02*
D03*
X16300Y25194D02*
D03*
Y24406D02*
D03*
X22077Y25171D02*
D03*
Y24384D02*
D03*
X27622Y25123D02*
D03*
Y24336D02*
D03*
X12301Y25237D02*
D03*
Y24449D02*
D03*
X18068Y24378D02*
D03*
Y25166D02*
D03*
X23625Y24384D02*
D03*
Y25171D02*
D03*
D19*
X15510Y16269D02*
D03*
Y17647D02*
D03*
Y16466D02*
D03*
Y16663D02*
D03*
Y16859D02*
D03*
Y17056D02*
D03*
Y17253D02*
D03*
Y17450D02*
D03*
X17400Y16269D02*
D03*
Y16466D02*
D03*
Y16663D02*
D03*
Y16859D02*
D03*
Y17056D02*
D03*
Y17253D02*
D03*
Y17450D02*
D03*
Y17647D02*
D03*
D20*
X16357Y16013D02*
D03*
X16160D02*
D03*
X15766D02*
D03*
X16947D02*
D03*
X17144D02*
D03*
X16750D02*
D03*
X16554D02*
D03*
X16357Y17903D02*
D03*
X16160D02*
D03*
X15766D02*
D03*
X15963D02*
D03*
X16947D02*
D03*
X17144D02*
D03*
X16750D02*
D03*
X16554D02*
D03*
X15963Y16013D02*
D03*
D21*
X16455Y16958D02*
D03*
D22*
X18590Y26545D02*
D03*
Y25935D02*
D03*
X24190Y25940D02*
D03*
Y26551D02*
D03*
X7290Y26040D02*
D03*
Y26651D02*
D03*
X12940Y26035D02*
D03*
Y26645D02*
D03*
D23*
X22201Y9100D02*
D03*
Y9600D02*
D03*
Y8600D02*
D03*
Y8100D02*
D03*
X20299D02*
D03*
Y8600D02*
D03*
Y9100D02*
D03*
D24*
Y9600D02*
D03*
D25*
X19755Y10700D02*
D03*
X20345D02*
D03*
X18205Y15400D02*
D03*
X18795D02*
D03*
X9035Y22506D02*
D03*
X8444D02*
D03*
X14044Y22390D02*
D03*
X14635D02*
D03*
X19749Y22240D02*
D03*
X20340D02*
D03*
X25299Y22406D02*
D03*
X25889D02*
D03*
D26*
X22376Y10750D02*
D03*
X21924D02*
D03*
D27*
X12400Y28805D02*
D03*
Y29395D02*
D03*
X11200Y28809D02*
D03*
Y29400D02*
D03*
X14800Y16105D02*
D03*
Y16695D02*
D03*
X12250Y34900D02*
D03*
Y34309D02*
D03*
X23390Y29236D02*
D03*
Y28645D02*
D03*
X22240Y29236D02*
D03*
Y28645D02*
D03*
X11402Y34305D02*
D03*
Y34895D02*
D03*
X23290Y34145D02*
D03*
Y34736D02*
D03*
X22390D02*
D03*
Y34145D02*
D03*
X7142Y23045D02*
D03*
Y23636D02*
D03*
X12694Y22995D02*
D03*
Y23586D02*
D03*
X18390Y23530D02*
D03*
Y22940D02*
D03*
X23994Y22945D02*
D03*
Y23536D02*
D03*
X10392Y23008D02*
D03*
Y23598D02*
D03*
X15992Y23548D02*
D03*
Y22958D02*
D03*
X21740Y23536D02*
D03*
Y22945D02*
D03*
X27292Y22895D02*
D03*
Y23486D02*
D03*
D28*
X22300Y13554D02*
D03*
Y13246D02*
D03*
Y11696D02*
D03*
Y12004D02*
D03*
D29*
X17193Y12400D02*
D03*
X16807D02*
D03*
X14207Y10450D02*
D03*
X14593D02*
D03*
X13443D02*
D03*
X13057D02*
D03*
D30*
X11300Y12407D02*
D03*
Y12793D02*
D03*
X12800Y16793D02*
D03*
Y16407D02*
D03*
D31*
X12706Y11150D02*
D03*
X12903D02*
D03*
X13100D02*
D03*
X13296D02*
D03*
X13493D02*
D03*
X13690D02*
D03*
X13887D02*
D03*
X14084D02*
D03*
X14281D02*
D03*
X14478D02*
D03*
X14674D02*
D03*
X14871D02*
D03*
X15068D02*
D03*
X15265D02*
D03*
X15462D02*
D03*
X15659D02*
D03*
Y14615D02*
D03*
X15462D02*
D03*
X15265D02*
D03*
X15068D02*
D03*
X14871D02*
D03*
X14674D02*
D03*
X14478D02*
D03*
X14281D02*
D03*
X14084D02*
D03*
X13887D02*
D03*
X13690D02*
D03*
X13493D02*
D03*
X13296D02*
D03*
X13100D02*
D03*
X12903D02*
D03*
X12706D02*
D03*
D32*
X12450Y13178D02*
D03*
Y12981D02*
D03*
Y12784D02*
D03*
Y12587D02*
D03*
Y12391D02*
D03*
Y12194D02*
D03*
Y11997D02*
D03*
Y11800D02*
D03*
Y11603D02*
D03*
Y11406D02*
D03*
X15915D02*
D03*
Y11603D02*
D03*
Y11800D02*
D03*
Y11997D02*
D03*
Y12194D02*
D03*
Y12391D02*
D03*
Y12587D02*
D03*
Y12784D02*
D03*
Y12981D02*
D03*
Y13965D02*
D03*
Y14162D02*
D03*
Y14359D02*
D03*
X12450Y13769D02*
D03*
Y13572D02*
D03*
Y14359D02*
D03*
Y14162D02*
D03*
Y13965D02*
D03*
Y13375D02*
D03*
X15915Y13178D02*
D03*
Y13375D02*
D03*
Y13572D02*
D03*
Y13769D02*
D03*
D34*
X21050Y11854D02*
D03*
Y13546D02*
D03*
D35*
X7357Y16300D02*
D03*
X7043D02*
D03*
D36*
X19350Y12857D02*
D03*
Y12543D02*
D03*
D37*
X18333Y12500D02*
D03*
X18667D02*
D03*
D38*
X5981Y17950D02*
D03*
X8619D02*
D03*
D39*
X13900Y16731D02*
D03*
Y16100D02*
D03*
X19950Y17966D02*
D03*
Y17334D02*
D03*
D40*
X22826Y31641D02*
D03*
X11776Y31791D02*
D03*
D41*
X23978Y30440D02*
D03*
X13184Y30590D02*
D03*
X24490Y32842D02*
D03*
X24234D02*
D03*
X23978D02*
D03*
X23722D02*
D03*
X23466D02*
D03*
X23210D02*
D03*
X22954D02*
D03*
X22698D02*
D03*
X22443D02*
D03*
X22187D02*
D03*
X21931D02*
D03*
X21675D02*
D03*
X21419D02*
D03*
X21163D02*
D03*
Y30440D02*
D03*
X21419D02*
D03*
X21675D02*
D03*
X21931D02*
D03*
X22187D02*
D03*
X22443D02*
D03*
X22698D02*
D03*
X22954D02*
D03*
X23210D02*
D03*
X23466D02*
D03*
X23722D02*
D03*
X24234D02*
D03*
X24490D02*
D03*
X13440Y32992D02*
D03*
X13184D02*
D03*
X12928D02*
D03*
X12672D02*
D03*
X12416D02*
D03*
X12160D02*
D03*
X11904D02*
D03*
X11648D02*
D03*
X11393D02*
D03*
X11137D02*
D03*
X10881D02*
D03*
X10625D02*
D03*
X10369D02*
D03*
X10113D02*
D03*
Y30590D02*
D03*
X10369D02*
D03*
X10625D02*
D03*
X10881D02*
D03*
X11137D02*
D03*
X11393D02*
D03*
X11648D02*
D03*
X11904D02*
D03*
X12160D02*
D03*
X12416D02*
D03*
X12672D02*
D03*
X12928D02*
D03*
X13440D02*
D03*
D42*
X19300Y30990D02*
D03*
X19980D02*
D03*
X8990Y31190D02*
D03*
X8309D02*
D03*
D43*
X19750Y34060D02*
D03*
Y34740D02*
D03*
X25940Y34050D02*
D03*
Y34730D02*
D03*
X15140Y34630D02*
D03*
Y33950D02*
D03*
X8750Y34790D02*
D03*
Y34110D02*
D03*
D44*
X26447Y25146D02*
D03*
X24794Y24378D02*
D03*
Y24890D02*
D03*
Y25146D02*
D03*
X26447Y24634D02*
D03*
Y24890D02*
D03*
X24794Y24634D02*
D03*
X19240Y25146D02*
D03*
Y24890D02*
D03*
Y24634D02*
D03*
Y24378D02*
D03*
X20893Y24634D02*
D03*
Y24890D02*
D03*
Y25146D02*
D03*
X13494Y25196D02*
D03*
Y24940D02*
D03*
Y24684D02*
D03*
Y24429D02*
D03*
X15147Y24684D02*
D03*
Y24940D02*
D03*
Y25196D02*
D03*
X7894Y25246D02*
D03*
Y24990D02*
D03*
Y24734D02*
D03*
Y24478D02*
D03*
X9547Y24734D02*
D03*
Y24990D02*
D03*
Y25246D02*
D03*
D45*
X26447Y24378D02*
D03*
X20893D02*
D03*
X15147Y24429D02*
D03*
X9547Y24478D02*
D03*
D46*
X18895Y32340D02*
D03*
X20058D02*
D03*
X7845Y32540D02*
D03*
X9008D02*
D03*
D47*
X14614Y32371D02*
D03*
Y31209D02*
D03*
X25664Y31059D02*
D03*
Y32222D02*
D03*
D48*
X7990Y23688D02*
D03*
Y23203D02*
D03*
X9544Y23733D02*
D03*
Y23248D02*
D03*
X13542Y23638D02*
D03*
Y23154D02*
D03*
X15140Y23633D02*
D03*
Y23148D02*
D03*
X19240Y23533D02*
D03*
Y23048D02*
D03*
X20890Y23533D02*
D03*
Y23048D02*
D03*
X24794Y23546D02*
D03*
Y23061D02*
D03*
X26444Y23570D02*
D03*
Y23085D02*
D03*
D49*
X9290Y26035D02*
D03*
Y26645D02*
D03*
X14890Y25985D02*
D03*
Y26595D02*
D03*
X20640Y25969D02*
D03*
Y26580D02*
D03*
X26194Y25935D02*
D03*
Y26545D02*
D03*
X8090Y26035D02*
D03*
Y26645D02*
D03*
X13790Y25985D02*
D03*
Y26595D02*
D03*
X19440Y25985D02*
D03*
Y26595D02*
D03*
X24994D02*
D03*
Y25985D02*
D03*
D50*
X13050Y18195D02*
D03*
Y17605D02*
D03*
D51*
X18650Y16866D02*
D03*
Y16334D02*
D03*
D52*
X14182Y12883D02*
D03*
D53*
X15922Y37700D02*
D03*
X17300D02*
D03*
X18678D02*
D03*
X20056D02*
D03*
X21434D02*
D03*
X14544D02*
D03*
X13166D02*
D03*
X11788D02*
D03*
D54*
X22812D02*
D03*
D55*
X16454Y17484D02*
D03*
X13909Y13156D02*
D03*
X14456D02*
D03*
X13909Y12609D02*
D03*
X14456D02*
D03*
X13909Y13621D02*
D03*
X14456D02*
D03*
X13909Y12144D02*
D03*
X14456D02*
D03*
X13444Y13156D02*
D03*
Y12609D02*
D03*
X14920Y13156D02*
D03*
Y12609D02*
D03*
X15927Y17484D02*
D03*
X16980D02*
D03*
X15927Y16783D02*
D03*
X16183Y17134D02*
D03*
X16178Y16433D02*
D03*
X16718D02*
D03*
X16741Y17134D02*
D03*
X16454Y16783D02*
D03*
X16976D02*
D03*
D56*
X26250Y14850D02*
D03*
D57*
X27250D02*
D03*
X26250Y13850D02*
D03*
X27250D02*
D03*
X26250Y12850D02*
D03*
X27250D02*
D03*
X26250Y11850D02*
D03*
X27250D02*
D03*
X26250Y10850D02*
D03*
X27250D02*
D03*
X7503Y11650D02*
D03*
D58*
X21779Y31299D02*
D03*
X22179D02*
D03*
X22579D02*
D03*
X21776Y31991D02*
D03*
Y31641D02*
D03*
X22176Y31991D02*
D03*
Y31641D02*
D03*
X22576D02*
D03*
Y31991D02*
D03*
X23076Y31291D02*
D03*
Y31991D02*
D03*
Y31641D02*
D03*
X23426Y31991D02*
D03*
Y31641D02*
D03*
Y31291D02*
D03*
X23826D02*
D03*
Y31641D02*
D03*
Y31991D02*
D03*
X12776Y32141D02*
D03*
Y31791D02*
D03*
Y31441D02*
D03*
X12376D02*
D03*
Y31791D02*
D03*
Y32141D02*
D03*
X12026Y31791D02*
D03*
Y32141D02*
D03*
Y31441D02*
D03*
X11526Y32141D02*
D03*
Y31791D02*
D03*
X11126D02*
D03*
Y32141D02*
D03*
X10726Y31791D02*
D03*
Y32141D02*
D03*
X11529Y31449D02*
D03*
X11129D02*
D03*
X10729D02*
D03*
D59*
X7503Y13650D02*
D03*
X8503Y12150D02*
D03*
X7503Y12650D02*
D03*
X8503Y13150D02*
D03*
D60*
X5003Y14898D02*
D03*
Y10898D02*
D03*
D61*
X8503Y14150D02*
D03*
D62*
X12600Y27750D02*
D03*
X6150Y26300D02*
D03*
X5800Y30150D02*
D03*
X12750Y35600D02*
D03*
X11250Y35550D02*
D03*
X13900Y33150D02*
D03*
X28250Y24650D02*
D03*
X27013Y24765D02*
D03*
X24222Y24776D02*
D03*
X21462Y24757D02*
D03*
X18679Y24799D02*
D03*
X15708Y24800D02*
D03*
X12914Y24822D02*
D03*
X10100Y24850D02*
D03*
X7350Y24900D02*
D03*
X20800Y28200D02*
D03*
X20400Y28600D02*
D03*
X20000Y29000D02*
D03*
X19600Y29400D02*
D03*
X13600Y28200D02*
D03*
X13950Y28600D02*
D03*
X14300Y29000D02*
D03*
X14650Y29400D02*
D03*
X12231Y16144D02*
D03*
X20700Y31687D02*
D03*
X22850Y35150D02*
D03*
X25050Y35750D02*
D03*
X22435Y29850D02*
D03*
X20700Y30250D02*
D03*
X25800Y27000D02*
D03*
X20050Y26550D02*
D03*
X17900Y26600D02*
D03*
X17942Y25938D02*
D03*
X7850Y27100D02*
D03*
X9300Y27150D02*
D03*
X14500D02*
D03*
X13250D02*
D03*
Y16750D02*
D03*
X12720Y15900D02*
D03*
X22300Y12850D02*
D03*
Y12300D02*
D03*
X17700Y11950D02*
D03*
X23308Y27483D02*
D03*
X19100Y8100D02*
D03*
X23050Y10750D02*
D03*
X19050Y10700D02*
D03*
X21000D02*
D03*
X11800Y35500D02*
D03*
X23300Y28050D02*
D03*
X22400D02*
D03*
X12200Y28200D02*
D03*
X11350D02*
D03*
X18710Y34710D02*
D03*
X22100Y35600D02*
D03*
X9500Y17850D02*
D03*
X9160Y35660D02*
D03*
X16250Y35750D02*
D03*
X25450Y23400D02*
D03*
X8750Y23850D02*
D03*
X14300Y23800D02*
D03*
X20063Y23787D02*
D03*
X26900Y23950D02*
D03*
X18000Y16050D02*
D03*
X20850Y19200D02*
D03*
X16600Y11800D02*
D03*
X13787Y14987D02*
D03*
X13387Y15387D02*
D03*
X9200Y16400D02*
D03*
X8050Y16500D02*
D03*
X11737Y18775D02*
D03*
X11950Y18550D02*
D03*
X12000Y17200D02*
D03*
X12181Y18329D02*
D03*
X13100Y15650D02*
D03*
X16050Y15350D02*
D03*
X16850D02*
D03*
X16400Y15200D02*
D03*
X13054Y10004D02*
D03*
X14596D02*
D03*
X25150Y33150D02*
D03*
X17800Y22900D02*
D03*
X18200Y32350D02*
D03*
X7150Y32550D02*
D03*
X23300Y35850D02*
D03*
X14350Y24700D02*
D03*
X6783Y26008D02*
D03*
X6730Y23869D02*
D03*
X11300Y23600D02*
D03*
X22542Y23540D02*
D03*
X8800Y24700D02*
D03*
X20100Y24650D02*
D03*
X25700D02*
D03*
X23540Y25940D02*
D03*
X12292Y26038D02*
D03*
D63*
X26750Y9450D02*
D03*
Y8450D02*
D03*
D64*
X13841Y20809D02*
D03*
X24571Y20279D02*
D03*
X23779Y21071D02*
D03*
X18629Y20771D02*
D03*
X19351Y20060D02*
D03*
X14809Y20850D02*
D03*
X11750Y20150D02*
D03*
Y21100D02*
D03*
D65*
X10950Y27950D02*
X11150Y27750D01*
X12600D01*
Y28605D01*
X12502Y28703D02*
X12600Y28605D01*
X12502Y28703D02*
Y28722D01*
X12400Y28805D02*
X12420D01*
X12502Y28722D01*
X10900Y34176D02*
X11380Y33696D01*
Y33005D02*
Y33696D01*
X11150Y33005D02*
Y33600D01*
X10670Y34080D02*
X11150Y33600D01*
X10900Y34176D02*
Y35774D01*
X10670Y34080D02*
Y35870D01*
X13379Y34602D02*
Y35354D01*
X14131Y36106D02*
X15440D01*
X13149Y34697D02*
Y35449D01*
X14036Y36336D01*
X13379Y35354D02*
X14131Y36106D01*
X14036Y36336D02*
X15344D01*
X10670Y35870D02*
X11453Y36653D01*
X11548Y36423D02*
X13001D01*
X10900Y35774D02*
X11548Y36423D01*
X11453Y36653D02*
X12905D01*
X13740Y37488D01*
Y37612D01*
X13652Y37700D02*
X13740Y37612D01*
X13166Y37700D02*
X13652D01*
X13001Y36423D02*
X13970Y37393D01*
Y37612D01*
X14058Y37700D01*
X14544D01*
X11380Y33005D02*
X11393Y32992D01*
X11137D02*
X11150Y33005D01*
X12403D02*
X12416Y32992D01*
X16726Y37612D02*
X16814Y37700D01*
X16726Y37393D02*
Y37612D01*
X15440Y36106D02*
X16726Y37393D01*
X12403Y33626D02*
X13379Y34602D01*
X12173Y33005D02*
Y33721D01*
X12160Y32992D02*
X12173Y33005D01*
X15922Y37700D02*
X16408D01*
X16496Y37612D01*
Y37488D02*
Y37612D01*
X16814Y37700D02*
X17300D01*
X15344Y36336D02*
X16496Y37488D01*
X12173Y33721D02*
X13149Y34697D01*
X12403Y33005D02*
Y33626D01*
X19252Y37348D02*
Y37612D01*
X19482Y37443D02*
Y37612D01*
X19164Y37700D02*
X19252Y37612D01*
X19570Y37700D02*
X20056D01*
X19482Y37612D02*
X19570Y37700D01*
X18678D02*
X19164D01*
X19482Y37443D02*
X21873Y35053D01*
X19252Y37348D02*
X21643Y34957D01*
X12750Y34790D02*
Y35600D01*
X11100Y34587D02*
Y35120D01*
X11229Y35529D02*
X11250Y35550D01*
X11229Y35249D02*
Y35529D01*
X11100Y35120D02*
X11229Y35249D01*
X13184Y32992D02*
X13452D01*
X14111Y31643D02*
X14545Y31209D01*
X13900Y33120D02*
X14111Y32909D01*
X13453Y32990D02*
X13740D01*
X14111Y31643D02*
Y32909D01*
X13740Y32990D02*
X13900Y33150D01*
Y33120D02*
Y33150D01*
X13452Y32992D02*
X13453Y32990D01*
X14545Y31209D02*
X14614D01*
X12776Y31441D02*
X12790D01*
X26461Y24365D02*
X26673D01*
X26447Y24378D02*
X26461Y24365D01*
X26673D02*
X26702Y24336D01*
X27622D01*
X26190Y25640D02*
Y25940D01*
X27410Y25146D02*
X27420Y25156D01*
X26447Y25146D02*
X27410D01*
X23812Y24360D02*
X23831Y24378D01*
X24794D01*
X23812Y25147D02*
X23823D01*
X23835Y25160D01*
X24780D01*
X24251Y24776D02*
X24352Y24877D01*
X24780D01*
X24222Y24776D02*
X24251D01*
X24780Y24877D02*
X24794Y24890D01*
X21049Y24378D02*
X21894D01*
X21055Y25146D02*
X21879D01*
X19226Y24877D02*
X19240Y24890D01*
X18787Y24877D02*
X19226D01*
X18679Y24799D02*
X18709D01*
X18787Y24877D01*
X15465Y25234D02*
X16059D01*
X16100Y25194D01*
X15441Y25210D02*
X15465Y25234D01*
X15147Y25196D02*
X15161Y25210D01*
X15441D01*
X15144Y23636D02*
Y24437D01*
X16300Y24406D02*
X16350D01*
X15590D02*
X16300D01*
X13740Y25940D02*
X13790Y25990D01*
X12500Y25194D02*
X12511Y25205D01*
X13485D01*
X12500Y24406D02*
X12522Y24429D01*
X13494D01*
X13049Y24927D02*
X13480D01*
X12944Y24822D02*
X13049Y24927D01*
X13480D02*
X13494Y24940D01*
X12914Y24822D02*
X12944D01*
X9703Y24465D02*
X9981D01*
X9990Y24456D02*
X10702D01*
X9546Y23734D02*
Y24485D01*
X9540Y24490D02*
X9703D01*
X9553Y25241D02*
X9892D01*
X9894Y25244D02*
X10106D01*
X10108Y25241D02*
X10702D01*
X10106Y25244D02*
X10108Y25241D01*
X9892D02*
X9894Y25244D01*
X9503Y25246D02*
X9547D01*
X6900Y25244D02*
X6918D01*
X6934Y25260D02*
X7880D01*
X6918Y25244D02*
X6934Y25260D01*
X7880D02*
X7890Y25250D01*
X7894Y25246D01*
X6900Y24456D02*
X6901Y24455D01*
X7526D01*
X21500Y28301D02*
Y29250D01*
X22195Y29945D01*
Y30432D01*
X18690Y31640D02*
X20590D01*
X20690Y31740D01*
Y32640D01*
X20891Y32842D02*
X21163D01*
X20690Y32640D02*
X20891Y32842D01*
X20058Y32340D02*
Y32410D01*
X20899Y33251D01*
Y33902D01*
Y33251D02*
X20980Y33331D01*
X21190Y32840D02*
X21417D01*
X22409Y34736D02*
X22824Y35150D01*
X22856D02*
X23270Y34736D01*
X22390D02*
X22409D01*
X22824Y35150D02*
X22856D01*
X23270Y34736D02*
X23290D01*
X25401Y35729D02*
X25940Y35190D01*
X25050Y35750D02*
X25071Y35729D01*
X25401D01*
X22187Y30440D02*
X22195Y30432D01*
X22690Y29240D02*
Y30490D01*
X23308Y27483D02*
X23333D01*
X22317D02*
X23308D01*
X17942Y25938D02*
X18587D01*
X18590Y25935D01*
X11776Y31791D02*
X12160Y31407D01*
X23333Y27483D02*
X23700Y27850D01*
X22000Y27800D02*
X22317Y27483D01*
X23700Y27850D02*
Y28340D01*
X13995Y33683D02*
X14083Y33595D01*
X14086D02*
X14600Y33081D01*
Y32395D02*
Y33081D01*
X13995Y33683D02*
Y34057D01*
X14083Y33595D02*
X14086D01*
X19100Y8100D02*
X20299D01*
X22345Y10750D02*
X23050D01*
X19050Y10700D02*
X19755D01*
X11800Y35500D02*
X11821Y35479D01*
Y35285D02*
Y35479D01*
Y35285D02*
X11825Y35281D01*
X23492Y28548D02*
X23700Y28340D01*
X23043Y28275D02*
X23045D01*
X23270Y28050D02*
X23300D01*
X22955Y28363D02*
X23043Y28275D01*
X23045D02*
X23270Y28050D01*
X22955Y28363D02*
Y28516D01*
X22000Y27800D02*
Y28413D01*
X22690Y28368D02*
Y29240D01*
X22400Y28050D02*
Y28079D01*
X22690Y28368D01*
X22220Y28645D02*
X22240D01*
X22138Y28563D02*
X22220Y28645D01*
X22138Y28550D02*
Y28563D01*
X22000Y28413D02*
X22138Y28550D01*
X23409Y28645D02*
X23492Y28563D01*
Y28548D02*
Y28563D01*
X23390Y28645D02*
X23409D01*
X11904Y28512D02*
Y29700D01*
X12200Y28200D02*
Y28217D01*
X11904Y28512D02*
X12200Y28217D01*
X11350Y28200D02*
Y28211D01*
X11648Y28510D02*
Y29700D01*
X11350Y28211D02*
X11648Y28510D01*
X10950Y27950D02*
Y28559D01*
X11180Y28809D02*
X11200D01*
X11098Y28727D02*
X11180Y28809D01*
X10950Y28559D02*
X11098Y28707D01*
Y28727D01*
X22200Y32855D02*
Y33375D01*
X21650Y33925D02*
Y34928D01*
X21880Y34020D02*
X22430Y33470D01*
X21880Y34020D02*
Y35024D01*
X21650Y33925D02*
X22200Y33375D01*
X22430Y32855D02*
Y33470D01*
X21873Y35031D02*
Y35053D01*
Y35031D02*
X21880Y35024D01*
X21643Y34936D02*
X21650Y34928D01*
X21643Y34936D02*
Y34957D01*
X21400Y33850D02*
Y34189D01*
X21931Y32842D02*
Y33319D01*
X21400Y33850D02*
X21931Y33319D01*
X20944Y34694D02*
X21105Y34533D01*
Y34484D02*
X21400Y34189D01*
X20895Y34694D02*
X20944D01*
X21105Y34484D02*
Y34533D01*
X20980Y33331D02*
X21498D01*
X19519Y33828D02*
X19750Y34060D01*
X19519Y33802D02*
Y33828D01*
X18221Y32505D02*
X19519Y33802D01*
X18221Y32065D02*
X19295Y30990D01*
X18710Y34710D02*
X19720D01*
X9008Y32610D02*
X9950Y33552D01*
Y34057D01*
X9008Y32540D02*
Y32610D01*
X9999Y34057D02*
X10611Y33445D01*
Y33005D02*
Y33445D01*
X10450Y33950D02*
X10867Y33533D01*
X10450Y33950D02*
Y34393D01*
X10867Y33005D02*
Y33533D01*
X9950Y34057D02*
X9999D01*
Y34844D02*
X10450Y34393D01*
X10867Y33005D02*
X10881Y32992D01*
X9950Y34844D02*
X9999D01*
X8640Y34000D02*
X8750Y34110D01*
X8300Y34000D02*
X8640D01*
X10611Y33005D02*
X10625Y32992D01*
X22954Y28516D02*
X22955Y28516D01*
X22954Y28516D02*
Y29240D01*
X22240D02*
X22690D01*
X22240Y29236D02*
Y29240D01*
X12850Y29000D02*
Y29600D01*
X12755Y28805D02*
X12859Y28909D01*
X12850Y29000D02*
X12859Y28991D01*
Y28909D02*
Y28991D01*
X12160Y30290D02*
Y30590D01*
Y30290D02*
X12850Y29600D01*
X12400Y28805D02*
X12755D01*
X11904Y29700D02*
X12022Y29582D01*
X11904Y29700D02*
Y30590D01*
X11599Y29651D02*
X11648Y29700D01*
X11526Y29578D02*
X11599Y29651D01*
X11648Y29700D02*
Y30590D01*
X11332Y29578D02*
X11526D01*
X24459Y33820D02*
Y33883D01*
X24483Y33907D02*
X24699D01*
X23992Y33352D02*
X24459Y33820D01*
X23992Y32855D02*
Y33352D01*
X24459Y33883D02*
X24483Y33907D01*
X22088Y35588D02*
X22100Y35600D01*
X22088Y34427D02*
Y35588D01*
X12270Y34309D02*
X12750Y34790D01*
X13845Y34545D02*
X13995Y34695D01*
Y34894D01*
X13735Y34545D02*
X13845D01*
X13550Y34360D02*
X13735Y34545D01*
X13550Y34250D02*
Y34360D01*
X12686Y33005D02*
Y33386D01*
X13550Y34250D01*
X23390Y29236D02*
Y29240D01*
X22954D02*
Y30426D01*
Y29240D02*
X23390D01*
X23224Y29913D02*
X23692Y29445D01*
Y28928D02*
Y29445D01*
X23224Y29913D02*
Y30427D01*
X12022Y29582D02*
X12218D01*
X11250Y29495D02*
X11332Y29578D01*
X8750Y34790D02*
X8981Y35022D01*
Y35451D01*
X9160Y35630D01*
Y35660D01*
X15140Y34630D02*
Y34635D01*
X16250Y35745D02*
Y35750D01*
X15140Y34635D02*
X16250Y35745D01*
X12230Y34309D02*
X12270D01*
X11846Y35284D02*
X12230Y34900D01*
X11422Y34895D02*
X11804Y35278D01*
X11382Y34305D02*
X11422D01*
X19720Y34710D02*
X19750Y34740D01*
X22370Y34145D02*
X22390D01*
X22088Y34427D02*
X22370Y34145D01*
X27272Y23486D02*
X27292D01*
X26921Y23837D02*
Y23929D01*
Y23837D02*
X27272Y23486D01*
X26900Y23950D02*
X26921Y23929D01*
X18676Y17334D02*
X19950D01*
X19307Y12500D02*
X19350Y12543D01*
X17400Y17056D02*
X18398D01*
X18676Y17334D01*
X23409Y28645D02*
X23692Y28928D01*
X23210Y30440D02*
X23224Y30427D01*
X12218Y29582D02*
X12300Y29500D01*
X25379Y33471D02*
X25400Y33450D01*
X25410D01*
X25135Y33471D02*
X25379D01*
X25410Y33450D02*
X25664Y33196D01*
X24699Y33907D02*
X25135Y33471D01*
X24842Y32842D02*
X25150Y33150D01*
X23978Y32842D02*
X23992Y32855D01*
X23722Y33442D02*
X24222Y33942D01*
Y34315D01*
X23722Y32842D02*
Y33442D01*
X24222Y34315D02*
X24601Y34694D01*
X24650D01*
X21661Y32855D02*
X21675Y32842D01*
X21498Y33331D02*
X21661Y33168D01*
Y32855D02*
Y33168D01*
X11422Y34305D02*
X11648Y34078D01*
Y32992D02*
Y34078D01*
X11402Y34895D02*
X11422D01*
X12230Y34900D02*
X12250D01*
X11904Y33983D02*
X12230Y34309D01*
X11904Y32992D02*
Y33983D01*
X11100Y34587D02*
X11382Y34305D01*
X12942Y33342D02*
X13573Y33973D01*
X13911D02*
X13995Y34057D01*
X12942Y33005D02*
Y33342D01*
X14577Y32371D02*
X14600Y32395D01*
X13573Y33973D02*
X13911D01*
X12928Y32992D02*
X12942Y33005D01*
X12679Y23600D02*
X12694Y23586D01*
X10394Y23594D02*
X11300D01*
Y23600D02*
X12679D01*
X17556Y23544D02*
X17800Y23300D01*
Y22900D02*
Y23300D01*
X25649Y31044D02*
X25886Y31281D01*
X25150Y31504D02*
X25595Y31059D01*
X25150Y31504D02*
Y33150D01*
X24490Y32842D02*
X24842D01*
X18200Y32350D02*
X18886D01*
X18200D02*
X18221Y32371D01*
Y32505D01*
Y32065D02*
Y32329D01*
X18200Y32350D02*
X18221Y32329D01*
X18886Y32350D02*
X18895Y32340D01*
X14618Y31212D02*
X14836Y31430D01*
X7150Y32345D02*
X7672Y31823D01*
X7150Y32345D02*
Y32550D01*
X7171Y32571D01*
Y32872D02*
X8300Y34000D01*
X7150Y32550D02*
X7160Y32540D01*
X7269D01*
X7171Y32571D02*
Y32872D01*
X7268Y32540D02*
X7269Y32540D01*
X23592Y34427D02*
Y35534D01*
X23300Y35826D02*
Y35850D01*
Y35826D02*
X23592Y35534D01*
X22326Y37700D02*
X22812D01*
X22238Y37612D02*
X22326Y37700D01*
X22921Y36700D02*
X23216D01*
X22238Y37383D02*
X22921Y36700D01*
X22238Y37383D02*
Y37612D01*
X23453Y32855D02*
Y33472D01*
X24022Y34041D01*
Y35894D01*
X23216Y36700D02*
X24022Y35894D01*
X21920Y37700D02*
X22008Y37612D01*
X21434Y37700D02*
X21920D01*
X23453Y32855D02*
X23466Y32842D01*
X23210D02*
X23223Y32855D01*
Y33567D01*
X23792Y34136D01*
Y35799D01*
X23121Y36470D02*
X23792Y35799D01*
X22826Y36470D02*
X23121D01*
X22008Y37288D02*
X22826Y36470D01*
X22008Y37288D02*
Y37612D01*
X23290Y34140D02*
Y34145D01*
Y34140D02*
X23305D01*
X23592Y34427D01*
X22187Y32842D02*
X22200Y32855D01*
X22430D02*
X22443Y32842D01*
X25886Y31281D02*
X26121D01*
X26209Y31368D01*
Y32655D01*
X25940Y32925D02*
X26209Y32655D01*
X15052Y31430D02*
X15140Y31518D01*
X14836Y31430D02*
X15052D01*
X15140Y31518D02*
Y33950D01*
X19519Y26595D02*
X20244Y27321D01*
X19440Y26595D02*
X19519D01*
X17556Y23544D02*
X17686D01*
X17225D02*
X17556D01*
X17695Y23535D02*
X18385D01*
X17686Y23544D02*
X17695Y23535D01*
X20244Y27321D02*
X20521D01*
X21500Y28301D01*
X24780Y25160D02*
X24794Y25146D01*
X20890Y24390D02*
X21049D01*
X20892Y23534D02*
Y24389D01*
X21894Y24378D02*
X21896Y24376D01*
X20893Y24378D02*
X21049D01*
X20893Y25140D02*
X21055D01*
X20926Y25146D02*
X21055D01*
X20893D02*
X20926D01*
X21879D02*
X21896Y25164D01*
X18304Y24378D02*
X19240D01*
X18295Y24387D02*
X18304Y24378D01*
X19072Y25146D02*
X19240D01*
X18964Y25255D02*
X19072Y25146D01*
X18375Y25255D02*
X18964D01*
X18295Y25175D02*
X18375Y25255D01*
X15161Y24415D02*
X15581D01*
X15147Y24429D02*
X15161Y24415D01*
X15581D02*
X15590Y24406D01*
X13485Y25205D02*
X13494Y25196D01*
X7890Y25250D02*
Y25440D01*
X7536Y24465D02*
X7880D01*
X7894Y24478D01*
X7526Y24455D02*
X7536Y24465D01*
X9547Y24478D02*
X9561Y24465D01*
X9703D01*
X9981D02*
X9990Y24456D01*
X15993Y23549D02*
X17224D01*
X15992Y23548D02*
X15993Y23549D01*
X21740Y23486D02*
X21794Y23540D01*
X24990Y25640D02*
Y25990D01*
X22947Y30433D02*
X22954Y30426D01*
X22940Y30440D02*
X22947Y30433D01*
X10392Y23598D02*
X10394Y23594D01*
X24234Y32842D02*
X24490D01*
X25940Y32925D02*
Y34050D01*
X19295Y30990D02*
X19300D01*
X21417Y32840D02*
X21419Y32842D01*
X7672Y31823D02*
X8305Y31190D01*
X7268Y32540D02*
X7845D01*
X10141Y32992D02*
X10369D01*
X7690Y31840D02*
X9490D01*
X9640Y31990D01*
Y32740D01*
X9790Y32890D01*
X10099D01*
X10113Y32904D01*
Y32992D01*
X18385Y23535D02*
X18390Y23530D01*
X21794Y23540D02*
X23290D01*
X23292Y23538D01*
X23991D01*
X23994Y23536D01*
X24794Y25146D02*
Y25444D01*
X24990Y25640D01*
X24136Y25940D02*
X24136Y25940D01*
X23540Y25940D02*
X24136D01*
X24794Y23546D02*
Y24378D01*
X26444Y23570D02*
Y24365D01*
X26447Y25146D02*
Y25383D01*
X26190Y25640D02*
X26447Y25383D01*
X26190Y25940D02*
X26194Y25935D01*
X27622Y25123D02*
X27737D01*
X19240Y25146D02*
Y25390D01*
X19440Y25590D01*
Y25985D01*
X19231Y23557D02*
X19240Y23533D01*
X19231Y23557D02*
Y24313D01*
X20890Y24390D02*
X20892Y24389D01*
X20890Y23533D02*
X20892Y23534D01*
Y24389D02*
X20893Y24378D01*
Y25140D02*
Y25146D01*
X20926D02*
X20940Y25160D01*
Y25340D01*
X20640Y25640D02*
X20940Y25340D01*
X20640Y25640D02*
Y25969D01*
X13494Y25196D02*
Y25444D01*
X13740Y25690D01*
Y25940D01*
X13790Y25985D02*
Y25990D01*
X12937Y26038D02*
X12940Y26035D01*
X12292Y26038D02*
X12937D01*
X13518Y23662D02*
X13542Y23638D01*
X13518Y23662D02*
Y24418D01*
X15140Y24440D02*
X15144Y24437D01*
X15147Y24429D01*
X15140Y23633D02*
X15144Y23636D01*
X15140Y25204D02*
X15147Y25196D01*
X15140Y25204D02*
Y25390D01*
X14890Y25640D02*
X15140Y25390D01*
X14890Y25640D02*
Y25985D01*
X7890Y25440D02*
X8090Y25640D01*
Y26035D01*
X7990Y23688D02*
Y24465D01*
X9540Y24490D02*
X9546Y24485D01*
X9544Y23733D02*
X9546Y23734D01*
Y24485D02*
X9547Y24478D01*
X9490Y25260D02*
X9503Y25246D01*
X9490Y25260D02*
Y25440D01*
X9290Y25640D02*
X9490Y25440D01*
X9290Y25640D02*
Y26035D01*
X23722Y32842D02*
X23736Y32855D01*
X23466Y30440D02*
X23480Y30427D01*
Y30033D02*
Y30427D01*
Y30033D02*
X24190Y29323D01*
Y28390D02*
Y29323D01*
Y28390D02*
X24994Y27586D01*
Y26595D02*
Y27586D01*
X22698Y32842D02*
Y33828D01*
X22492Y34034D02*
X22698Y33828D01*
X22492Y34034D02*
Y34063D01*
X22440Y34114D02*
X22492Y34063D01*
X25940Y34730D02*
Y35190D01*
X22974Y33839D02*
X23240Y34105D01*
X22974Y32902D02*
Y33839D01*
X22940Y30440D02*
X22954D01*
X25664Y32222D02*
Y33196D01*
D66*
X8922Y31127D02*
X8985Y31190D01*
X8990D01*
X11393Y30590D02*
Y30887D01*
X12800Y16399D02*
Y16407D01*
X12688Y16287D02*
X12800Y16399D01*
X20043Y23807D02*
X20063Y23787D01*
X16789Y12382D02*
X16807Y12400D01*
X6783Y26008D02*
X7257D01*
X7290Y26040D01*
M02*
