G04*
G04 #@! TF.GenerationSoftware,Altium Limited,Altium Designer,22.9.1 (49)*
G04*
G04 Layer_Color=16711935*
%FSLAX24Y24*%
%MOIN*%
G70*
G04*
G04 #@! TF.SameCoordinates,6D7A1F5F-4F27-45E7-A4E1-8399A659D1EC*
G04*
G04*
G04 #@! TF.FilePolarity,Positive*
G04*
G01*
G75*
%ADD12C,0.0079*%
%ADD14C,0.0050*%
%ADD79C,0.0032*%
%ADD80C,0.0039*%
%ADD81C,0.0020*%
%ADD82R,0.0095X0.0413*%
D12*
X12058Y14359D02*
G03*
X12058Y14359I-39J0D01*
G01*
X11099Y37149D02*
Y38251D01*
X23501Y37215D02*
Y38185D01*
X11099Y38251D02*
X23501D01*
X18403Y25896D02*
X18777D01*
Y26585D01*
X18403D02*
X18777D01*
X18403Y25896D02*
Y26585D01*
X20482Y7885D02*
Y9815D01*
Y7885D02*
X22018D01*
Y9815D01*
X20482D02*
X22018D01*
X20385Y10523D02*
Y10877D01*
X19715D02*
X20385D01*
X19715Y10523D02*
Y10877D01*
Y10523D02*
X20385D01*
X12223Y29435D02*
X12577D01*
X12223Y28765D02*
Y29435D01*
Y28765D02*
X12577D01*
Y29435D01*
X11023Y29439D02*
X11377D01*
X11023Y28770D02*
Y29439D01*
Y28770D02*
X11377D01*
Y29439D01*
X18835Y15223D02*
Y15577D01*
X18165D02*
X18835D01*
X18165Y15223D02*
Y15577D01*
Y15223D02*
X18835D01*
X14623Y16735D02*
X14977D01*
X14623Y16065D02*
Y16735D01*
Y16065D02*
X14977D01*
Y16735D01*
X20322Y13920D02*
X21778D01*
X20322Y11480D02*
Y13920D01*
Y11480D02*
X21778D01*
Y13920D01*
X13743Y16101D02*
X14057D01*
Y16731D01*
X13743D02*
X14057D01*
X13743Y16101D02*
Y16731D01*
X12073Y34270D02*
X12427D01*
Y34939D01*
X12073D02*
X12427D01*
X12073Y34270D02*
Y34939D01*
X23567Y28606D02*
Y29275D01*
X23213Y28606D02*
X23567D01*
X23213D02*
Y29275D01*
X23567D01*
X22417Y28606D02*
Y29275D01*
X22063Y28606D02*
X22417D01*
X22063D02*
Y29275D01*
X22417D01*
X20033Y30744D02*
Y31236D01*
X19246D02*
X20033D01*
X19246Y30744D02*
Y31236D01*
Y30744D02*
X20033D01*
X19504Y34794D02*
X19996D01*
X19504Y34006D02*
Y34794D01*
Y34006D02*
X19996D01*
Y34794D01*
X25694Y34784D02*
X26186D01*
X25694Y33997D02*
Y34784D01*
Y33997D02*
X26186D01*
Y34784D01*
X24003Y25901D02*
Y26590D01*
X24377D01*
Y25901D02*
Y26590D01*
X24003Y25901D02*
X24377D01*
X20107Y32025D02*
Y32655D01*
X18847D02*
X20107D01*
X18847Y32025D02*
Y32655D01*
Y32025D02*
X20107D01*
X14929Y31160D02*
Y32420D01*
X14299Y31160D02*
X14929D01*
X14299D02*
Y32420D01*
X14929D01*
X9057Y32225D02*
Y32855D01*
X7797D02*
X9057D01*
X7797Y32225D02*
Y32855D01*
Y32225D02*
X9057D01*
X8157Y23141D02*
Y23751D01*
X7822Y23141D02*
X8157D01*
X7822D02*
Y23751D01*
X8157D01*
X9711Y23185D02*
Y23795D01*
X9376Y23185D02*
X9711D01*
X9376D02*
Y23795D01*
X9711D01*
X13709Y23091D02*
Y23701D01*
X13375Y23091D02*
X13709D01*
X13375D02*
Y23701D01*
X13709D01*
X15307Y23085D02*
Y23695D01*
X14972Y23085D02*
X15307D01*
X14972D02*
Y23695D01*
X15307D01*
X19407Y22985D02*
Y23595D01*
X19072Y22985D02*
X19407D01*
X19072D02*
Y23595D01*
X19407D01*
X21057Y22985D02*
Y23595D01*
X20722Y22985D02*
X21057D01*
X20722D02*
Y23595D01*
X21057D01*
X24961Y22998D02*
Y23608D01*
X24626Y22998D02*
X24961D01*
X24626D02*
Y23608D01*
X24961D01*
X26611Y23022D02*
Y23632D01*
X26276Y23022D02*
X26611D01*
X26276D02*
Y23632D01*
X26611D01*
X8256Y30944D02*
X9043D01*
X8256D02*
Y31436D01*
X9043D01*
Y30944D02*
Y31436D01*
X15386Y33897D02*
Y34684D01*
X14894Y33897D02*
X15386D01*
X14894D02*
Y34684D01*
X15386D01*
X8996Y34056D02*
Y34844D01*
X8504Y34056D02*
X8996D01*
X8504D02*
Y34844D01*
X8996D01*
X11225Y34265D02*
Y34935D01*
X11579D01*
Y34265D02*
Y34935D01*
X11225Y34265D02*
X11579D01*
X23113Y34106D02*
Y34775D01*
X23467D01*
Y34106D02*
Y34775D01*
X23113Y34106D02*
X23467D01*
X22213D02*
X22567D01*
Y34775D01*
X22213D02*
X22567D01*
X22213Y34106D02*
Y34775D01*
X6964Y23006D02*
Y23675D01*
X7319D01*
Y23006D02*
Y23675D01*
X6964Y23006D02*
X7319D01*
X12517Y22956D02*
Y23625D01*
X12871D01*
Y22956D02*
Y23625D01*
X12517Y22956D02*
X12871D01*
X18213Y22900D02*
Y23570D01*
X18567D01*
Y22900D02*
Y23570D01*
X18213Y22900D02*
X18567D01*
X23817Y22906D02*
Y23575D01*
X24171D01*
Y22906D02*
Y23575D01*
X23817Y22906D02*
X24171D01*
X8405Y22329D02*
X9074D01*
X8405D02*
Y22683D01*
X9074D01*
Y22329D02*
Y22683D01*
X14005Y22567D02*
X14674D01*
Y22213D02*
Y22567D01*
X14005Y22213D02*
X14674D01*
X14005D02*
Y22567D01*
X19710Y22063D02*
X20379D01*
X19710D02*
Y22417D01*
X20379D01*
Y22063D02*
Y22417D01*
X25259Y22229D02*
Y22583D01*
Y22229D02*
X25928D01*
Y22583D01*
X25259D02*
X25928D01*
X10215Y22969D02*
Y23638D01*
X10569D01*
Y22969D02*
Y23638D01*
X10215Y22969D02*
X10569D01*
X15815Y22919D02*
Y23588D01*
X16169D01*
Y22919D02*
Y23588D01*
X15815Y22919D02*
X16169D01*
X21563Y22906D02*
Y23575D01*
X21917D01*
Y22906D02*
Y23575D01*
X21563Y22906D02*
X21917D01*
X27115Y22856D02*
Y23525D01*
X27469D01*
Y22856D02*
Y23525D01*
X27115Y22856D02*
X27469D01*
X7103Y26001D02*
Y26690D01*
X7477D01*
Y26001D02*
Y26690D01*
X7103Y26001D02*
X7477D01*
X12753Y25996D02*
Y26685D01*
X13127D01*
Y25996D02*
Y26685D01*
X12753Y25996D02*
X13127D01*
X25979Y31010D02*
Y32270D01*
X25349Y31010D02*
X25979D01*
X25349D02*
Y32270D01*
X25979D01*
X12765Y17467D02*
X13335D01*
Y18333D01*
X12765D02*
X13335D01*
X12765Y17467D02*
Y18333D01*
X20107Y17335D02*
Y17965D01*
X19793Y17335D02*
X20107D01*
X19793D02*
Y17965D01*
X20107D01*
X18473Y16265D02*
X18827D01*
Y16935D01*
X18473D02*
X18827D01*
X18473Y16265D02*
Y16935D01*
D14*
X12411Y11111D02*
X15954D01*
X12411Y14654D02*
X15954D01*
Y11111D02*
Y14654D01*
X12411Y11111D02*
Y14654D01*
X8481Y17261D02*
Y18639D01*
X6119Y17261D02*
X8481D01*
X6119D02*
Y18639D01*
X8481D01*
D79*
X17171Y17608D02*
G03*
X17171Y17608I-66J0D01*
G01*
X15471Y17942D02*
X17439D01*
Y15974D02*
Y17942D01*
X15471Y15974D02*
X17439D01*
X15471D02*
Y17942D01*
D80*
X25562Y25018D02*
G03*
X25562Y25018I-197J0D01*
G01*
X20007D02*
G03*
X20007Y25018I-197J0D01*
G01*
X24598Y32173D02*
G03*
X24598Y32173I-197J0D01*
G01*
X14262Y25068D02*
G03*
X14262Y25068I-197J0D01*
G01*
X8662Y25118D02*
G03*
X8662Y25118I-197J0D01*
G01*
X13548Y32323D02*
G03*
X13548Y32323I-197J0D01*
G01*
X6533Y29115D02*
Y29685D01*
X5667Y29115D02*
Y29685D01*
Y29115D02*
X6533D01*
X5667Y29685D02*
X6533D01*
Y28325D02*
Y28896D01*
X5667Y28325D02*
Y28896D01*
Y28325D02*
X6533D01*
X5667Y28896D02*
X6533D01*
Y27536D02*
Y28107D01*
X5667Y27536D02*
Y28107D01*
Y27536D02*
X6533D01*
X5667Y28107D02*
X6533D01*
Y26747D02*
Y27318D01*
X5667Y26747D02*
Y27318D01*
Y26747D02*
X6533D01*
X5667Y27318D02*
X6533D01*
X27217Y26715D02*
Y27285D01*
X28083Y26715D02*
Y27285D01*
X27217D02*
X28083D01*
X27217Y26715D02*
X28083D01*
X27217Y27515D02*
Y28085D01*
X28083Y27515D02*
Y28085D01*
X27217D02*
X28083D01*
X27217Y27515D02*
X28083D01*
X27217Y28304D02*
Y28875D01*
X28083Y28304D02*
Y28875D01*
X27217D02*
X28083D01*
X27217Y28304D02*
X28083D01*
X27217Y29093D02*
Y29664D01*
X28083Y29093D02*
Y29664D01*
X27217D02*
X28083D01*
X27217Y29093D02*
X28083D01*
X6458Y24464D02*
Y25291D01*
X6989Y24464D02*
Y25291D01*
X6458Y24464D02*
X6989D01*
X6458Y25291D02*
X6989D01*
X21796Y10543D02*
X22504D01*
X21796Y10957D02*
X22504D01*
Y10543D02*
Y10957D01*
X21796Y10543D02*
Y10957D01*
X24916Y33887D02*
Y34714D01*
X24384Y33887D02*
Y34714D01*
X24916D01*
X24384Y33887D02*
X24916D01*
X21160D02*
Y34714D01*
X20629Y33887D02*
Y34714D01*
X21160D01*
X20629Y33887D02*
X21160D01*
X14261Y34037D02*
Y34864D01*
X13729Y34037D02*
Y34864D01*
X14261D01*
X13729Y34037D02*
X14261D01*
X10216D02*
Y34864D01*
X9684Y34037D02*
Y34864D01*
X10216D01*
X9684Y34037D02*
X10216D01*
X22192Y13607D02*
X22408D01*
X22192Y13193D02*
X22408D01*
Y13607D01*
X22192Y13193D02*
Y13607D01*
Y11643D02*
X22408D01*
X22192Y12057D02*
X22408D01*
X22192Y11643D02*
Y12057D01*
X22408Y11643D02*
Y12057D01*
X17207Y12292D02*
Y12508D01*
X16793Y12292D02*
Y12508D01*
Y12292D02*
X17207D01*
X16793Y12508D02*
X17207D01*
X14193Y10342D02*
Y10558D01*
X14607Y10342D02*
Y10558D01*
X14193D02*
X14607D01*
X14193Y10342D02*
X14607D01*
X13457D02*
Y10558D01*
X13043Y10342D02*
Y10558D01*
Y10342D02*
X13457D01*
X13043Y10558D02*
X13457D01*
X11192Y12393D02*
Y12807D01*
X11408Y12393D02*
Y12807D01*
X11192Y12393D02*
X11408D01*
X11192Y12807D02*
X11408D01*
X6993Y16192D02*
X7407D01*
X6993Y16408D02*
X7407D01*
Y16192D02*
Y16408D01*
X6993Y16192D02*
Y16408D01*
X19242Y12907D02*
X19458D01*
X19242Y12493D02*
X19458D01*
Y12907D01*
X19242Y12493D02*
Y12907D01*
X18293Y12392D02*
Y12608D01*
X18707Y12392D02*
Y12608D01*
X18293D02*
X18707D01*
X18293Y12392D02*
X18707D01*
X12692Y16807D02*
X12908D01*
X12692Y16393D02*
X12908D01*
Y16807D01*
X12692Y16393D02*
Y16807D01*
X25010Y24152D02*
X26231D01*
X25010Y25373D02*
X26231D01*
Y24152D02*
Y25373D01*
X25010Y24152D02*
Y25373D01*
X19456Y24152D02*
X20677D01*
X19456Y25373D02*
X20677D01*
Y24152D02*
Y25373D01*
X19456Y24152D02*
Y25373D01*
X20897Y30755D02*
Y32527D01*
X24756Y30755D02*
Y32527D01*
X20897Y30755D02*
X24756D01*
X20897Y32527D02*
X24756D01*
X13710Y24202D02*
Y25423D01*
X14931Y24202D02*
Y25423D01*
X13710D02*
X14931D01*
X13710Y24202D02*
X14931D01*
X8110Y24252D02*
Y25473D01*
X9331Y24252D02*
Y25473D01*
X8110D02*
X9331D01*
X8110Y24252D02*
X9331D01*
X9847Y32677D02*
X13706D01*
X9847Y30905D02*
X13706D01*
Y32677D01*
X9847Y30905D02*
Y32677D01*
X9004Y25907D02*
Y26773D01*
X9575Y25907D02*
Y26773D01*
X9004Y25907D02*
X9575D01*
X9004Y26773D02*
X9575D01*
X14604Y25857D02*
Y26723D01*
X15175Y25857D02*
Y26723D01*
X14604Y25857D02*
X15175D01*
X14604Y26723D02*
X15175D01*
X20354Y25841D02*
Y26708D01*
X20925Y25841D02*
Y26708D01*
X20354Y25841D02*
X20925D01*
X20354Y26708D02*
X20925D01*
X25908Y25807D02*
Y26673D01*
X26479Y25807D02*
Y26673D01*
X25908Y25807D02*
X26479D01*
X25908Y26673D02*
X26479D01*
X10466Y25256D02*
X10997D01*
X10466Y24429D02*
X10997D01*
Y25256D01*
X10466Y24429D02*
Y25256D01*
X16034Y25213D02*
X16566D01*
X16034Y24387D02*
X16566D01*
Y25213D01*
X16034Y24387D02*
Y25213D01*
X21811Y25191D02*
X22343D01*
X21811Y24364D02*
X22343D01*
Y25191D01*
X21811Y24364D02*
Y25191D01*
X27356Y25143D02*
X27887D01*
X27356Y24316D02*
X27887D01*
Y25143D01*
X27356Y24316D02*
Y25143D01*
X12035Y25256D02*
X12567D01*
X12035Y24429D02*
X12567D01*
Y25256D01*
X12035Y24429D02*
Y25256D01*
X17803Y24359D02*
Y25185D01*
X18334Y24359D02*
Y25185D01*
X17803Y24359D02*
X18334D01*
X17803Y25185D02*
X18334D01*
X23359Y24364D02*
Y25191D01*
X23890Y24364D02*
Y25191D01*
X23359Y24364D02*
X23890D01*
X23359Y25191D02*
X23890D01*
X7804Y25907D02*
Y26773D01*
X8375Y25907D02*
Y26773D01*
X7804Y25907D02*
X8375D01*
X7804Y26773D02*
X8375D01*
X13504Y25857D02*
Y26723D01*
X14075Y25857D02*
Y26723D01*
X13504Y25857D02*
X14075D01*
X13504Y26723D02*
X14075D01*
X19154Y25857D02*
Y26723D01*
X19725Y25857D02*
Y26723D01*
X19154Y25857D02*
X19725D01*
X19154Y26723D02*
X19725D01*
X24708D02*
X25279D01*
X24708Y25857D02*
X25279D01*
Y26723D01*
X24708Y25857D02*
Y26723D01*
X9054Y10225D02*
Y15575D01*
X802D02*
X9054D01*
X802Y10225D02*
X9054D01*
X802D02*
Y15575D01*
D81*
X9054Y9800D02*
Y16000D01*
D82*
X21843Y10750D02*
D03*
M02*
