G04*
G04 #@! TF.GenerationSoftware,Altium Limited,Altium Designer,22.9.1 (49)*
G04*
G04 Layer_Color=2752767*
%FSLAX24Y24*%
%MOIN*%
G70*
G04*
G04 #@! TF.SameCoordinates,1C4C81CE-4E44-4544-AACE-53C2D62CD198*
G04*
G04*
G04 #@! TF.FilePolarity,Positive*
G04*
G01*
G75*
%ADD15C,0.0070*%
%ADD112C,0.0020*%
%ADD113C,0.0027*%
%ADD114C,0.0013*%
D15*
X48066Y28296D02*
X49116D01*
X48066Y24596D02*
X49116D01*
X44526Y28286D02*
X45676D01*
X44526Y24606D02*
X45676D01*
X48066Y28296D02*
Y29321D01*
X45666D02*
X48066D01*
X45666Y23571D02*
X48066D01*
Y24596D01*
X44526Y24606D02*
Y28286D01*
X45666Y28296D02*
Y29321D01*
Y23571D02*
Y24596D01*
X49116D02*
Y28296D01*
X22750Y21356D02*
Y21023D01*
X22816Y20956D01*
X22950D01*
X23016Y21023D01*
Y21356D01*
X23416D02*
X23150D01*
Y21156D01*
X23283Y21223D01*
X23349D01*
X23416Y21156D01*
Y21023D01*
X23349Y20956D01*
X23216D01*
X23150Y21023D01*
X22750Y26863D02*
Y26530D01*
X22816Y26463D01*
X22950D01*
X23016Y26530D01*
Y26863D01*
X23349Y26463D02*
Y26863D01*
X23150Y26663D01*
X23416D01*
D112*
X46156Y28756D02*
Y28716D01*
X46236D01*
Y28756D01*
X46276D01*
Y28836D01*
X46236D01*
Y28876D01*
X46156D01*
Y28836D01*
X46116D01*
Y28756D01*
X46156D01*
X40050Y13520D02*
X40090Y13560D01*
X40130D01*
X40090Y13600D01*
X40130Y13640D01*
X40090D01*
X40050Y13680D01*
X40010Y13640D01*
X39970D01*
X40010Y13600D01*
X39970Y13560D01*
X40010D01*
X40050Y13520D01*
Y14170D02*
X40090Y14210D01*
X40130D01*
X40090Y14250D01*
X40130Y14290D01*
X40090D01*
X40050Y14330D01*
X40010Y14290D01*
X39970D01*
X40010Y14250D01*
X39970Y14210D01*
X40010D01*
X40050Y14170D01*
Y14820D02*
X40090Y14860D01*
X40130D01*
X40090Y14900D01*
X40130Y14940D01*
X40090D01*
X40050Y14980D01*
X40010Y14940D01*
X39970D01*
X40010Y14900D01*
X39970Y14860D01*
X40010D01*
X40050Y14820D01*
Y15370D02*
X40090Y15410D01*
X40130D01*
X40090Y15450D01*
X40130Y15490D01*
X40090D01*
X40050Y15530D01*
X40010Y15490D01*
X39970D01*
X40010Y15450D01*
X39970Y15410D01*
X40010D01*
X40050Y15370D01*
X22050Y12870D02*
X22090Y12910D01*
X22130D01*
X22090Y12950D01*
X22130Y12990D01*
X22090D01*
X22050Y13030D01*
X22010Y12990D01*
X21970D01*
X22010Y12950D01*
X21970Y12910D01*
X22010D01*
X22050Y12870D01*
Y12370D02*
X22090Y12410D01*
X22130D01*
X22090Y12450D01*
X22130Y12490D01*
X22090D01*
X22050Y12530D01*
X22010Y12490D01*
X21970D01*
X22010Y12450D01*
X21970Y12410D01*
X22010D01*
X22050Y12370D01*
X22550D02*
X22590Y12410D01*
X22630D01*
X22590Y12450D01*
X22630Y12490D01*
X22590D01*
X22550Y12530D01*
X22510Y12490D01*
X22470D01*
X22510Y12450D01*
X22470Y12410D01*
X22510D01*
X22550Y12370D01*
X22555Y12877D02*
X22595Y12917D01*
X22635D01*
X22595Y12957D01*
X22635Y12997D01*
X22595D01*
X22555Y13037D01*
X22515Y12997D01*
X22475D01*
X22515Y12957D01*
X22475Y12917D01*
X22515D01*
X22555Y12877D01*
X21698Y14353D02*
X21738Y14393D01*
X21778D01*
X21738Y14433D01*
X21778Y14473D01*
X21738D01*
X21698Y14513D01*
X21658Y14473D01*
X21618D01*
X21658Y14433D01*
X21618Y14393D01*
X21658D01*
X21698Y14353D01*
X21400Y14020D02*
X21440Y14060D01*
X21480D01*
X21440Y14100D01*
X21480Y14140D01*
X21440D01*
X21400Y14180D01*
X21360Y14140D01*
X21320D01*
X21360Y14100D01*
X21320Y14060D01*
X21360D01*
X21400Y14020D01*
X22000D02*
X22040Y14060D01*
X22080D01*
X22040Y14100D01*
X22080Y14140D01*
X22040D01*
X22000Y14180D01*
X21960Y14140D01*
X21920D01*
X21960Y14100D01*
X21920Y14060D01*
X21960D01*
X22000Y14020D01*
Y14670D02*
X22040Y14710D01*
X22080D01*
X22040Y14750D01*
X22080Y14790D01*
X22040D01*
X22000Y14830D01*
X21960Y14790D01*
X21920D01*
X21960Y14750D01*
X21920Y14710D01*
X21960D01*
X22000Y14670D01*
X21400D02*
X21440Y14710D01*
X21480D01*
X21440Y14750D01*
X21480Y14790D01*
X21440D01*
X21400Y14830D01*
X21360Y14790D01*
X21320D01*
X21360Y14750D01*
X21320Y14710D01*
X21360D01*
X21400Y14670D01*
X23441Y19315D02*
X23481Y19355D01*
X23521D01*
X23481Y19395D01*
X23521Y19435D01*
X23481D01*
X23441Y19475D01*
X23401Y19435D01*
X23361D01*
X23401Y19395D01*
X23361Y19355D01*
X23401D01*
X23441Y19315D01*
X23099Y19313D02*
X23139Y19353D01*
X23179D01*
X23139Y19393D01*
X23179Y19433D01*
X23139D01*
X23099Y19473D01*
X23059Y19433D01*
X23019D01*
X23059Y19393D01*
X23019Y19353D01*
X23059D01*
X23099Y19313D01*
X22749D02*
X22789Y19353D01*
X22829D01*
X22789Y19393D01*
X22829Y19433D01*
X22789D01*
X22749Y19473D01*
X22709Y19433D01*
X22669D01*
X22709Y19393D01*
X22669Y19353D01*
X22709D01*
X22749Y19313D01*
X23441Y19715D02*
X23481Y19755D01*
X23521D01*
X23481Y19795D01*
X23521Y19835D01*
X23481D01*
X23441Y19875D01*
X23401Y19835D01*
X23361D01*
X23401Y19795D01*
X23361Y19755D01*
X23401D01*
X23441Y19715D01*
X23099Y19713D02*
X23139Y19753D01*
X23179D01*
X23139Y19793D01*
X23179Y19833D01*
X23139D01*
X23099Y19873D01*
X23059Y19833D01*
X23019D01*
X23059Y19793D01*
X23019Y19753D01*
X23059D01*
X23099Y19713D01*
X22749D02*
X22789Y19753D01*
X22829D01*
X22789Y19793D01*
X22829Y19833D01*
X22789D01*
X22749Y19873D01*
X22709Y19833D01*
X22669D01*
X22709Y19793D01*
X22669Y19753D01*
X22709D01*
X22749Y19713D01*
X23441Y20115D02*
X23481Y20155D01*
X23521D01*
X23481Y20195D01*
X23521Y20235D01*
X23481D01*
X23441Y20275D01*
X23401Y20235D01*
X23361D01*
X23401Y20195D01*
X23361Y20155D01*
X23401D01*
X23441Y20115D01*
X23099Y20113D02*
X23139Y20153D01*
X23179D01*
X23139Y20193D01*
X23179Y20233D01*
X23139D01*
X23099Y20273D01*
X23059Y20233D01*
X23019D01*
X23059Y20193D01*
X23019Y20153D01*
X23059D01*
X23099Y20113D01*
X22749D02*
X22789Y20153D01*
X22829D01*
X22789Y20193D01*
X22829Y20233D01*
X22789D01*
X22749Y20273D01*
X22709Y20233D01*
X22669D01*
X22709Y20193D01*
X22669Y20153D01*
X22709D01*
X22749Y20113D01*
X23449Y20613D02*
X23489Y20653D01*
X23529D01*
X23489Y20693D01*
X23529Y20733D01*
X23489D01*
X23449Y20773D01*
X23409Y20733D01*
X23369D01*
X23409Y20693D01*
X23369Y20653D01*
X23409D01*
X23449Y20613D01*
X23099D02*
X23139Y20653D01*
X23179D01*
X23139Y20693D01*
X23179Y20733D01*
X23139D01*
X23099Y20773D01*
X23059Y20733D01*
X23019D01*
X23059Y20693D01*
X23019Y20653D01*
X23059D01*
X23099Y20613D01*
X22749D02*
X22789Y20653D01*
X22829D01*
X22789Y20693D01*
X22829Y20733D01*
X22789D01*
X22749Y20773D01*
X22709Y20733D01*
X22669D01*
X22709Y20693D01*
X22669Y20653D01*
X22709D01*
X22749Y20613D01*
X23449Y20963D02*
X23489Y21003D01*
X23529D01*
X23489Y21043D01*
X23529Y21083D01*
X23489D01*
X23449Y21123D01*
X23409Y21083D01*
X23369D01*
X23409Y21043D01*
X23369Y21003D01*
X23409D01*
X23449Y20963D01*
X23099D02*
X23139Y21003D01*
X23179D01*
X23139Y21043D01*
X23179Y21083D01*
X23139D01*
X23099Y21123D01*
X23059Y21083D01*
X23019D01*
X23059Y21043D01*
X23019Y21003D01*
X23059D01*
X23099Y20963D01*
X22749D02*
X22789Y21003D01*
X22829D01*
X22789Y21043D01*
X22829Y21083D01*
X22789D01*
X22749Y21123D01*
X22709Y21083D01*
X22669D01*
X22709Y21043D01*
X22669Y21003D01*
X22709D01*
X22749Y20963D01*
X23449Y21363D02*
X23489Y21403D01*
X23529D01*
X23489Y21443D01*
X23529Y21483D01*
X23489D01*
X23449Y21523D01*
X23409Y21483D01*
X23369D01*
X23409Y21443D01*
X23369Y21403D01*
X23409D01*
X23449Y21363D01*
X23099D02*
X23139Y21403D01*
X23179D01*
X23139Y21443D01*
X23179Y21483D01*
X23139D01*
X23099Y21523D01*
X23059Y21483D01*
X23019D01*
X23059Y21443D01*
X23019Y21403D01*
X23059D01*
X23099Y21363D01*
X22749D02*
X22789Y21403D01*
X22829D01*
X22789Y21443D01*
X22829Y21483D01*
X22789D01*
X22749Y21523D01*
X22709Y21483D01*
X22669D01*
X22709Y21443D01*
X22669Y21403D01*
X22709D01*
X22749Y21363D01*
X23441Y24822D02*
X23481Y24862D01*
X23521D01*
X23481Y24902D01*
X23521Y24942D01*
X23481D01*
X23441Y24982D01*
X23401Y24942D01*
X23361D01*
X23401Y24902D01*
X23361Y24862D01*
X23401D01*
X23441Y24822D01*
X23099Y24820D02*
X23139Y24860D01*
X23179D01*
X23139Y24900D01*
X23179Y24940D01*
X23139D01*
X23099Y24980D01*
X23059Y24940D01*
X23019D01*
X23059Y24900D01*
X23019Y24860D01*
X23059D01*
X23099Y24820D01*
X22749D02*
X22789Y24860D01*
X22829D01*
X22789Y24900D01*
X22829Y24940D01*
X22789D01*
X22749Y24980D01*
X22709Y24940D01*
X22669D01*
X22709Y24900D01*
X22669Y24860D01*
X22709D01*
X22749Y24820D01*
X23441Y25222D02*
X23481Y25262D01*
X23521D01*
X23481Y25302D01*
X23521Y25342D01*
X23481D01*
X23441Y25382D01*
X23401Y25342D01*
X23361D01*
X23401Y25302D01*
X23361Y25262D01*
X23401D01*
X23441Y25222D01*
X23099Y25220D02*
X23139Y25260D01*
X23179D01*
X23139Y25300D01*
X23179Y25340D01*
X23139D01*
X23099Y25380D01*
X23059Y25340D01*
X23019D01*
X23059Y25300D01*
X23019Y25260D01*
X23059D01*
X23099Y25220D01*
X22749D02*
X22789Y25260D01*
X22829D01*
X22789Y25300D01*
X22829Y25340D01*
X22789D01*
X22749Y25380D01*
X22709Y25340D01*
X22669D01*
X22709Y25300D01*
X22669Y25260D01*
X22709D01*
X22749Y25220D01*
X23441Y25622D02*
X23481Y25662D01*
X23521D01*
X23481Y25702D01*
X23521Y25742D01*
X23481D01*
X23441Y25782D01*
X23401Y25742D01*
X23361D01*
X23401Y25702D01*
X23361Y25662D01*
X23401D01*
X23441Y25622D01*
X23099Y25620D02*
X23139Y25660D01*
X23179D01*
X23139Y25700D01*
X23179Y25740D01*
X23139D01*
X23099Y25780D01*
X23059Y25740D01*
X23019D01*
X23059Y25700D01*
X23019Y25660D01*
X23059D01*
X23099Y25620D01*
X22749D02*
X22789Y25660D01*
X22829D01*
X22789Y25700D01*
X22829Y25740D01*
X22789D01*
X22749Y25780D01*
X22709Y25740D01*
X22669D01*
X22709Y25700D01*
X22669Y25660D01*
X22709D01*
X22749Y25620D01*
X23449Y26120D02*
X23489Y26160D01*
X23529D01*
X23489Y26200D01*
X23529Y26240D01*
X23489D01*
X23449Y26280D01*
X23409Y26240D01*
X23369D01*
X23409Y26200D01*
X23369Y26160D01*
X23409D01*
X23449Y26120D01*
X23099D02*
X23139Y26160D01*
X23179D01*
X23139Y26200D01*
X23179Y26240D01*
X23139D01*
X23099Y26280D01*
X23059Y26240D01*
X23019D01*
X23059Y26200D01*
X23019Y26160D01*
X23059D01*
X23099Y26120D01*
X22749D02*
X22789Y26160D01*
X22829D01*
X22789Y26200D01*
X22829Y26240D01*
X22789D01*
X22749Y26280D01*
X22709Y26240D01*
X22669D01*
X22709Y26200D01*
X22669Y26160D01*
X22709D01*
X22749Y26120D01*
X23449Y26470D02*
X23489Y26510D01*
X23529D01*
X23489Y26550D01*
X23529Y26590D01*
X23489D01*
X23449Y26630D01*
X23409Y26590D01*
X23369D01*
X23409Y26550D01*
X23369Y26510D01*
X23409D01*
X23449Y26470D01*
X23099D02*
X23139Y26510D01*
X23179D01*
X23139Y26550D01*
X23179Y26590D01*
X23139D01*
X23099Y26630D01*
X23059Y26590D01*
X23019D01*
X23059Y26550D01*
X23019Y26510D01*
X23059D01*
X23099Y26470D01*
X22749D02*
X22789Y26510D01*
X22829D01*
X22789Y26550D01*
X22829Y26590D01*
X22789D01*
X22749Y26630D01*
X22709Y26590D01*
X22669D01*
X22709Y26550D01*
X22669Y26510D01*
X22709D01*
X22749Y26470D01*
X23449Y26870D02*
X23489Y26910D01*
X23529D01*
X23489Y26950D01*
X23529Y26990D01*
X23489D01*
X23449Y27030D01*
X23409Y26990D01*
X23369D01*
X23409Y26950D01*
X23369Y26910D01*
X23409D01*
X23449Y26870D01*
X23099D02*
X23139Y26910D01*
X23179D01*
X23139Y26950D01*
X23179Y26990D01*
X23139D01*
X23099Y27030D01*
X23059Y26990D01*
X23019D01*
X23059Y26950D01*
X23019Y26910D01*
X23059D01*
X23099Y26870D01*
X22749D02*
X22789Y26910D01*
X22829D01*
X22789Y26950D01*
X22829Y26990D01*
X22789D01*
X22749Y27030D01*
X22709Y26990D01*
X22669D01*
X22709Y26950D01*
X22669Y26910D01*
X22709D01*
X22749Y26870D01*
X45296Y25746D02*
X45336Y25826D01*
X45296Y25906D01*
X45376Y25866D01*
X45456Y25906D01*
X45416Y25826D01*
X45456Y25746D01*
X45376Y25786D01*
X45296Y25746D01*
Y26746D02*
X45336Y26826D01*
X45296Y26906D01*
X45376Y26866D01*
X45456Y26906D01*
X45416Y26826D01*
X45456Y26746D01*
X45376Y26786D01*
X45296Y26746D01*
Y27246D02*
X45336Y27326D01*
X45296Y27406D01*
X45376Y27366D01*
X45456Y27406D01*
X45416Y27326D01*
X45456Y27246D01*
X45376Y27286D01*
X45296Y27246D01*
X44796Y24996D02*
X44836Y25076D01*
X44796Y25156D01*
X44876Y25116D01*
X44956Y25156D01*
X44916Y25076D01*
X44956Y24996D01*
X44876Y25036D01*
X44796Y24996D01*
Y26996D02*
X44836Y27076D01*
X44796Y27156D01*
X44876Y27116D01*
X44956Y27156D01*
X44916Y27076D01*
X44956Y26996D01*
X44876Y27036D01*
X44796Y26996D01*
Y27496D02*
X44836Y27576D01*
X44796Y27656D01*
X44876Y27616D01*
X44956Y27656D01*
X44916Y27576D01*
X44956Y27496D01*
X44876Y27536D01*
X44796Y27496D01*
X45296Y25246D02*
X45336Y25326D01*
X45296Y25406D01*
X45376Y25366D01*
X45456Y25406D01*
X45416Y25326D01*
X45456Y25246D01*
X45376Y25286D01*
X45296Y25246D01*
Y27746D02*
X45336Y27826D01*
X45296Y27906D01*
X45376Y27866D01*
X45456Y27906D01*
X45416Y27826D01*
X45456Y27746D01*
X45376Y27786D01*
X45296Y27746D01*
X44796Y25996D02*
X44836Y26076D01*
X44796Y26156D01*
X44876Y26116D01*
X44956Y26156D01*
X44916Y26076D01*
X44956Y25996D01*
X44876Y26036D01*
X44796Y25996D01*
Y25496D02*
X44836Y25576D01*
X44796Y25656D01*
X44876Y25616D01*
X44956Y25656D01*
X44916Y25576D01*
X44956Y25496D01*
X44876Y25536D01*
X44796Y25496D01*
X45296Y26246D02*
X45336Y26326D01*
X45296Y26406D01*
X45376Y26366D01*
X45456Y26406D01*
X45416Y26326D01*
X45456Y26246D01*
X45376Y26286D01*
X45296Y26246D01*
X44796Y26496D02*
X44836Y26576D01*
X44796Y26656D01*
X44876Y26616D01*
X44956Y26656D01*
X44916Y26576D01*
X44956Y26496D01*
X44876Y26536D01*
X44796Y26496D01*
X46296Y27866D02*
X46336Y27946D01*
X46296Y28026D01*
X46376Y27986D01*
X46456Y28026D01*
X46416Y27946D01*
X46456Y27866D01*
X46376Y27906D01*
X46296Y27866D01*
Y25866D02*
X46336Y25946D01*
X46296Y26026D01*
X46376Y25986D01*
X46456Y26026D01*
X46416Y25946D01*
X46456Y25866D01*
X46376Y25906D01*
X46296Y25866D01*
Y26866D02*
X46336Y26946D01*
X46296Y27026D01*
X46376Y26986D01*
X46456Y27026D01*
X46416Y26946D01*
X46456Y26866D01*
X46376Y26906D01*
X46296Y26866D01*
Y25366D02*
X46336Y25446D01*
X46296Y25526D01*
X46376Y25486D01*
X46456Y25526D01*
X46416Y25446D01*
X46456Y25366D01*
X46376Y25406D01*
X46296Y25366D01*
Y26366D02*
X46336Y26446D01*
X46296Y26526D01*
X46376Y26486D01*
X46456Y26526D01*
X46416Y26446D01*
X46456Y26366D01*
X46376Y26406D01*
X46296Y26366D01*
X45796Y25116D02*
X45836Y25196D01*
X45796Y25276D01*
X45876Y25236D01*
X45956Y25276D01*
X45916Y25196D01*
X45956Y25116D01*
X45876Y25156D01*
X45796Y25116D01*
Y27616D02*
X45836Y27696D01*
X45796Y27776D01*
X45876Y27736D01*
X45956Y27776D01*
X45916Y27696D01*
X45956Y27616D01*
X45876Y27656D01*
X45796Y27616D01*
Y27116D02*
X45836Y27196D01*
X45796Y27276D01*
X45876Y27236D01*
X45956Y27276D01*
X45916Y27196D01*
X45956Y27116D01*
X45876Y27156D01*
X45796Y27116D01*
Y25616D02*
X45836Y25696D01*
X45796Y25776D01*
X45876Y25736D01*
X45956Y25776D01*
X45916Y25696D01*
X45956Y25616D01*
X45876Y25656D01*
X45796Y25616D01*
Y26116D02*
X45836Y26196D01*
X45796Y26276D01*
X45876Y26236D01*
X45956Y26276D01*
X45916Y26196D01*
X45956Y26116D01*
X45876Y26156D01*
X45796Y26116D01*
X46296Y27366D02*
X46336Y27446D01*
X46296Y27526D01*
X46376Y27486D01*
X46456Y27526D01*
X46416Y27446D01*
X46456Y27366D01*
X46376Y27406D01*
X46296Y27366D01*
X46156Y24056D02*
Y24016D01*
X46236D01*
Y24056D01*
X46276D01*
Y24136D01*
X46236D01*
Y24176D01*
X46156D01*
Y24136D01*
X46116D01*
Y24056D01*
X46156D01*
X45796Y26616D02*
X45836Y26696D01*
X45796Y26776D01*
X45876Y26736D01*
X45956Y26776D01*
X45916Y26696D01*
X45956Y26616D01*
X45876Y26656D01*
X45796Y26616D01*
X46296Y24866D02*
X46336Y24946D01*
X46296Y25026D01*
X46376Y24986D01*
X46456Y25026D01*
X46416Y24946D01*
X46456Y24866D01*
X46376Y24906D01*
X46296Y24866D01*
X44817Y13022D02*
X44857D01*
X44897Y13062D01*
X44937Y13022D01*
X44977D01*
Y13062D01*
X44937Y13102D01*
X44977Y13142D01*
Y13182D01*
X44937D01*
X44897Y13142D01*
X44857Y13182D01*
X44817D01*
Y13142D01*
X44857Y13102D01*
X44817Y13062D01*
Y13022D01*
Y17022D02*
X44857D01*
X44897Y17062D01*
X44937Y17022D01*
X44977D01*
Y17062D01*
X44937Y17102D01*
X44977Y17142D01*
Y17182D01*
X44937D01*
X44897Y17142D01*
X44857Y17182D01*
X44817D01*
Y17142D01*
X44857Y17102D01*
X44817Y17062D01*
Y17022D01*
X41397Y15770D02*
X41317Y15930D01*
X41477D01*
X41397Y15770D01*
Y15810D02*
X41357Y15890D01*
X41437D01*
X41397Y15810D01*
X42397Y15270D02*
X42317Y15430D01*
X42477D01*
X42397Y15270D01*
Y15310D02*
X42357Y15390D01*
X42437D01*
X42397Y15310D01*
X41397Y14770D02*
X41317Y14930D01*
X41477D01*
X41397Y14770D01*
Y14810D02*
X41357Y14890D01*
X41437D01*
X41397Y14810D01*
X42397Y14270D02*
X42317Y14430D01*
X42477D01*
X42397Y14270D01*
Y14310D02*
X42357Y14390D01*
X42437D01*
X42397Y14310D01*
X41397Y13770D02*
X41317Y13930D01*
X41477D01*
X41397Y13770D01*
Y13810D02*
X41357Y13890D01*
X41437D01*
X41397Y13810D01*
X14770Y23798D02*
Y23958D01*
X14930D01*
Y23798D01*
X14770D01*
Y25176D02*
Y25336D01*
X14930D01*
Y25176D01*
X14770D01*
Y18286D02*
Y18446D01*
X14930D01*
Y18286D01*
X14770D01*
Y19664D02*
Y19824D01*
X14930D01*
Y19664D01*
X14770D01*
Y16908D02*
Y17068D01*
X14930D01*
Y16908D01*
X14770D01*
Y27932D02*
Y28092D01*
X14930D01*
Y27932D01*
X14770D01*
Y26554D02*
Y26714D01*
X14930D01*
Y26554D01*
X14770D01*
Y22420D02*
Y22580D01*
X14930D01*
Y22420D01*
X14770D01*
Y21042D02*
Y21202D01*
X14930D01*
Y21042D01*
X14770D01*
X29499Y18681D02*
Y18841D01*
X29659D01*
Y18681D01*
X29499D01*
X29539Y18721D02*
Y18801D01*
X29619D01*
Y18721D01*
X29539D01*
X29022Y18681D02*
Y18841D01*
X29182D01*
Y18681D01*
X29022D01*
X29062Y18721D02*
Y18801D01*
X29142D01*
Y18721D01*
X29062D01*
X41620Y25520D02*
Y25680D01*
X41780D01*
Y25520D01*
X41620D01*
X41660Y25560D02*
Y25640D01*
X41740D01*
Y25560D01*
X41660D01*
X40820Y25570D02*
Y25730D01*
X40980D01*
Y25570D01*
X40820D01*
X40860Y25610D02*
Y25690D01*
X40940D01*
Y25610D01*
X40860D01*
X21070Y10620D02*
Y10780D01*
X21230D01*
Y10620D01*
X21070D01*
X21110Y10660D02*
Y10740D01*
X21190D01*
Y10660D01*
X21110D01*
X20420Y10120D02*
Y10280D01*
X20580D01*
Y10120D01*
X20420D01*
X20460Y10160D02*
Y10240D01*
X20540D01*
Y10160D01*
X20460D01*
X33370Y9870D02*
Y10030D01*
X33530D01*
Y9870D01*
X33370D01*
X33410Y9910D02*
Y9990D01*
X33490D01*
Y9910D01*
X33410D01*
X33370Y10670D02*
Y10830D01*
X33530D01*
Y10670D01*
X33370D01*
X33410Y10710D02*
Y10790D01*
X33490D01*
Y10710D01*
X33410D01*
X34370Y9870D02*
Y10030D01*
X34530D01*
Y9870D01*
X34370D01*
X34410Y9910D02*
Y9990D01*
X34490D01*
Y9910D01*
X34410D01*
X32420Y9870D02*
Y10030D01*
X32580D01*
Y9870D01*
X32420D01*
X32460Y9910D02*
Y9990D01*
X32540D01*
Y9910D01*
X32460D01*
X34357Y10695D02*
Y10855D01*
X34517D01*
Y10695D01*
X34357D01*
X34397Y10735D02*
Y10815D01*
X34477D01*
Y10735D01*
X34397D01*
X32420Y10670D02*
Y10830D01*
X32580D01*
Y10670D01*
X32420D01*
X32460Y10710D02*
Y10790D01*
X32540D01*
Y10710D01*
X32460D01*
X19820Y24470D02*
Y24630D01*
X19980D01*
Y24470D01*
X19820D01*
X19860Y24510D02*
Y24590D01*
X19940D01*
Y24510D01*
X19860D01*
X14770Y15720D02*
Y15880D01*
X14930D01*
Y15720D01*
X14770D01*
X14810Y15760D02*
Y15840D01*
X14890D01*
Y15760D01*
X14810D01*
X19370Y17870D02*
Y18030D01*
X19530D01*
Y17870D01*
X19370D01*
X19410Y17910D02*
Y17990D01*
X19490D01*
Y17910D01*
X19410D01*
X15770Y21320D02*
Y21480D01*
X15930D01*
Y21320D01*
X15770D01*
X15810Y21360D02*
Y21440D01*
X15890D01*
Y21360D01*
X15810D01*
X15820Y25120D02*
Y25280D01*
X15980D01*
Y25120D01*
X15820D01*
X15860Y25160D02*
Y25240D01*
X15940D01*
Y25160D01*
X15860D01*
X21620Y18220D02*
Y18380D01*
X21780D01*
Y18220D01*
X21620D01*
X21660Y18260D02*
Y18340D01*
X21740D01*
Y18260D01*
X21660D01*
X44820Y22770D02*
Y22930D01*
X44980D01*
Y22770D01*
X44820D01*
X44860Y22810D02*
Y22890D01*
X44940D01*
Y22810D01*
X44860D01*
X34347Y21520D02*
Y21680D01*
X34507D01*
Y21520D01*
X34347D01*
X34387Y21560D02*
Y21640D01*
X34467D01*
Y21560D01*
X34387D01*
X35570Y22270D02*
Y22430D01*
X35730D01*
Y22270D01*
X35570D01*
X35610Y22310D02*
Y22390D01*
X35690D01*
Y22310D01*
X35610D01*
X35570Y23720D02*
Y23880D01*
X35730D01*
Y23720D01*
X35570D01*
X35610Y23760D02*
Y23840D01*
X35690D01*
Y23760D01*
X35610D01*
X36070Y25170D02*
Y25330D01*
X36230D01*
Y25170D01*
X36070D01*
X36110Y25210D02*
Y25290D01*
X36190D01*
Y25210D01*
X36110D01*
X44320Y24000D02*
X44400Y24080D01*
X44480Y24000D01*
X44400Y23920D01*
X44320Y24000D01*
X33320Y24720D02*
Y24880D01*
X33480D01*
Y24720D01*
X33320D01*
X33360Y24760D02*
Y24840D01*
X33440D01*
Y24760D01*
X33360D01*
X43820Y31720D02*
Y31880D01*
X43980D01*
Y31720D01*
X43820D01*
X43860Y31760D02*
Y31840D01*
X43940D01*
Y31760D01*
X43860D01*
X42220Y33770D02*
Y33930D01*
X42380D01*
Y33770D01*
X42220D01*
X42260Y33810D02*
Y33890D01*
X42340D01*
Y33810D01*
X42260D01*
X43620Y24470D02*
Y24630D01*
X43780D01*
Y24470D01*
X43620D01*
X43660Y24510D02*
Y24590D01*
X43740D01*
Y24510D01*
X43660D01*
X16420Y11520D02*
Y11680D01*
X16580D01*
Y11520D01*
X16420D01*
X16460Y11560D02*
Y11640D01*
X16540D01*
Y11560D01*
X16460D01*
X44820Y21062D02*
Y21222D01*
X44980D01*
Y21062D01*
X44820D01*
X44860Y21102D02*
Y21182D01*
X44940D01*
Y21102D01*
X44860D01*
X44820Y19462D02*
Y19622D01*
X44980D01*
Y19462D01*
X44820D01*
X44860Y19502D02*
Y19582D01*
X44940D01*
Y19502D01*
X44860D01*
X37320Y12350D02*
X37400Y12430D01*
X37480Y12350D01*
X37400Y12270D01*
X37320Y12350D01*
X26570Y10450D02*
X26650Y10530D01*
X26730Y10450D01*
X26650Y10370D01*
X26570Y10450D01*
X34570Y30750D02*
X34650Y30830D01*
X34730Y30750D01*
X34650Y30670D01*
X34570Y30750D01*
X17520Y32150D02*
X17600Y32230D01*
X17680Y32150D01*
X17600Y32070D01*
X17520Y32150D01*
X19820Y19120D02*
Y19280D01*
X19980D01*
Y19120D01*
X19820D01*
X19860Y19160D02*
Y19240D01*
X19940D01*
Y19160D01*
X19860D01*
X27520Y11470D02*
Y11630D01*
X27680D01*
Y11470D01*
X27520D01*
X27560Y11510D02*
Y11590D01*
X27640D01*
Y11510D01*
X27560D01*
X17320Y11370D02*
Y11530D01*
X17480D01*
Y11370D01*
X17320D01*
X17360Y11410D02*
Y11490D01*
X17440D01*
Y11410D01*
X17360D01*
X18320Y13970D02*
Y14130D01*
X18480D01*
Y13970D01*
X18320D01*
X18360Y14010D02*
Y14090D01*
X18440D01*
Y14010D01*
X18360D01*
X26120Y17750D02*
X26200Y17830D01*
X26280Y17750D01*
X26200Y17670D01*
X26120Y17750D01*
X25834Y16407D02*
Y16567D01*
X25994D01*
Y16407D01*
X25834D01*
X25874Y16447D02*
Y16527D01*
X25954D01*
Y16447D01*
X25874D01*
X26220Y15450D02*
X26300Y15530D01*
X26380Y15450D01*
X26300Y15370D01*
X26220Y15450D01*
X19520Y32150D02*
X19600Y32230D01*
X19680Y32150D01*
X19600Y32070D01*
X19520Y32150D01*
X33512Y32130D02*
X33592Y32210D01*
X33672Y32130D01*
X33592Y32050D01*
X33512Y32130D01*
X19692Y15286D02*
X19732Y15326D01*
X19772D01*
X19732Y15366D01*
X19772Y15406D01*
X19732D01*
X19692Y15446D01*
X19652Y15406D01*
X19612D01*
X19652Y15366D01*
X19612Y15326D01*
X19652D01*
X19692Y15286D01*
X19705Y14497D02*
X19745Y14537D01*
X19785D01*
X19745Y14577D01*
X19785Y14617D01*
X19745D01*
X19705Y14657D01*
X19665Y14617D01*
X19625D01*
X19665Y14577D01*
X19625Y14537D01*
X19665D01*
X19705Y14497D01*
X30680Y11313D02*
Y11473D01*
X30840D01*
Y11313D01*
X30680D01*
X30720Y11353D02*
Y11433D01*
X30800D01*
Y11353D01*
X30720D01*
X22993Y14586D02*
Y14746D01*
X23153D01*
Y14586D01*
X22993D01*
X23033Y14626D02*
Y14706D01*
X23113D01*
Y14626D01*
X23033D01*
X44766Y29602D02*
Y29762D01*
X44926D01*
Y29602D01*
X44766D01*
X44806Y29642D02*
Y29722D01*
X44886D01*
Y29642D01*
X44806D01*
X32652Y12328D02*
Y12488D01*
X32812D01*
Y12328D01*
X32652D01*
X32692Y12368D02*
Y12448D01*
X32772D01*
Y12368D01*
X32692D01*
X41126Y30322D02*
Y30482D01*
X41286D01*
Y30322D01*
X41126D01*
X41166Y30362D02*
Y30442D01*
X41246D01*
Y30362D01*
X41166D01*
X35444Y13060D02*
Y13220D01*
X35604D01*
Y13060D01*
X35444D01*
X35484Y13100D02*
Y13180D01*
X35564D01*
Y13100D01*
X35484D01*
X35126Y16138D02*
Y16298D01*
X35286D01*
Y16138D01*
X35126D01*
X35166Y16178D02*
Y16258D01*
X35246D01*
Y16178D01*
X35166D01*
X34024Y16060D02*
Y16220D01*
X34184D01*
Y16060D01*
X34024D01*
X34064Y16100D02*
Y16180D01*
X34144D01*
Y16100D01*
X34064D01*
X34634Y16614D02*
Y16774D01*
X34794D01*
Y16614D01*
X34634D01*
X34674Y16654D02*
Y16734D01*
X34754D01*
Y16654D01*
X34674D01*
X33170Y17237D02*
X33250Y17317D01*
X33330Y17237D01*
X33250Y17157D01*
X33170Y17237D01*
X35607Y32928D02*
Y33088D01*
X35767D01*
Y32928D01*
X35607D01*
X35647Y32968D02*
Y33048D01*
X35727D01*
Y32968D01*
X35647D01*
X23803Y17670D02*
Y17830D01*
X23963D01*
Y17670D01*
X23803D01*
X23843Y17710D02*
Y17790D01*
X23923D01*
Y17710D01*
X23843D01*
X18288Y19982D02*
Y20142D01*
X18448D01*
Y19982D01*
X18288D01*
X18328Y20022D02*
Y20102D01*
X18408D01*
Y20022D01*
X18328D01*
X26092Y30019D02*
X26172Y30099D01*
X26252Y30019D01*
X26172Y29939D01*
X26092Y30019D01*
X27114Y13457D02*
Y13617D01*
X27274D01*
Y13457D01*
X27114D01*
X27154Y13497D02*
Y13577D01*
X27234D01*
Y13497D01*
X27154D01*
X29307Y14835D02*
Y14995D01*
X29467D01*
Y14835D01*
X29307D01*
X29347Y14875D02*
Y14955D01*
X29427D01*
Y14875D01*
X29347D01*
X26237Y27631D02*
Y27791D01*
X26397D01*
Y27631D01*
X26237D01*
X26277Y27671D02*
Y27751D01*
X26357D01*
Y27671D01*
X26277D01*
X25335Y21770D02*
Y21930D01*
X25495D01*
Y21770D01*
X25335D01*
X25375Y21810D02*
Y21890D01*
X25455D01*
Y21810D01*
X25375D01*
X25292Y19220D02*
Y19380D01*
X25452D01*
Y19220D01*
X25292D01*
X25332Y19260D02*
Y19340D01*
X25412D01*
Y19260D01*
X25332D01*
X25477Y27872D02*
Y28032D01*
X25637D01*
Y27872D01*
X25477D01*
X25517Y27912D02*
Y27992D01*
X25597D01*
Y27912D01*
X25517D01*
X27254Y29682D02*
Y29842D01*
X27414D01*
Y29682D01*
X27254D01*
X27294Y29722D02*
Y29802D01*
X27374D01*
Y29722D01*
X27294D01*
X39269Y18661D02*
Y18821D01*
X39429D01*
Y18661D01*
X39269D01*
X39309Y18701D02*
Y18781D01*
X39389D01*
Y18701D01*
X39309D01*
X30420Y18270D02*
Y18430D01*
X30580D01*
Y18270D01*
X30420D01*
X30460Y18310D02*
Y18390D01*
X30540D01*
Y18310D01*
X30460D01*
X36701Y18302D02*
Y18462D01*
X36861D01*
Y18302D01*
X36701D01*
X36741Y18342D02*
Y18422D01*
X36821D01*
Y18342D01*
X36741D01*
X37024Y18583D02*
Y18743D01*
X37184D01*
Y18583D01*
X37024D01*
X37064Y18623D02*
Y18703D01*
X37144D01*
Y18623D01*
X37064D01*
X36701Y18865D02*
Y19025D01*
X36861D01*
Y18865D01*
X36701D01*
X36741Y18905D02*
Y18985D01*
X36821D01*
Y18905D01*
X36741D01*
X37024Y20271D02*
Y20431D01*
X37184D01*
Y20271D01*
X37024D01*
X37064Y20311D02*
Y20391D01*
X37144D01*
Y20311D01*
X37064D01*
X37024Y19708D02*
Y19868D01*
X37184D01*
Y19708D01*
X37024D01*
X37064Y19748D02*
Y19828D01*
X37144D01*
Y19748D01*
X37064D01*
X36701Y19990D02*
Y20150D01*
X36861D01*
Y19990D01*
X36701D01*
X36741Y20030D02*
Y20110D01*
X36821D01*
Y20030D01*
X36741D01*
X37334Y21240D02*
Y21400D01*
X37494D01*
Y21240D01*
X37334D01*
X37374Y21280D02*
Y21360D01*
X37454D01*
Y21280D01*
X37374D01*
X37405Y21582D02*
Y21742D01*
X37565D01*
Y21582D01*
X37405D01*
X37445Y21622D02*
Y21702D01*
X37525D01*
Y21622D01*
X37445D01*
X38320Y24820D02*
Y24980D01*
X38480D01*
Y24820D01*
X38320D01*
X38360Y24860D02*
Y24940D01*
X38440D01*
Y24860D01*
X38360D01*
X36701Y19427D02*
Y19587D01*
X36861D01*
Y19427D01*
X36701D01*
X36741Y19467D02*
Y19547D01*
X36821D01*
Y19467D01*
X36741D01*
X37024Y19146D02*
Y19306D01*
X37184D01*
Y19146D01*
X37024D01*
X37064Y19186D02*
Y19266D01*
X37144D01*
Y19186D01*
X37064D01*
X39360Y19113D02*
Y19273D01*
X39520D01*
Y19113D01*
X39360D01*
X39400Y19153D02*
Y19233D01*
X39480D01*
Y19153D01*
X39400D01*
X26970Y18970D02*
Y19130D01*
X27130D01*
Y18970D01*
X26970D01*
X27010Y19010D02*
Y19090D01*
X27090D01*
Y19010D01*
X27010D01*
X26970Y25320D02*
Y25480D01*
X27130D01*
Y25320D01*
X26970D01*
X27010Y25360D02*
Y25440D01*
X27090D01*
Y25360D01*
X27010D01*
X26820Y24770D02*
Y24930D01*
X26980D01*
Y24770D01*
X26820D01*
X26860Y24810D02*
Y24890D01*
X26940D01*
Y24810D01*
X26860D01*
X34446Y26573D02*
Y26733D01*
X34606D01*
Y26573D01*
X34446D01*
X34485Y26613D02*
Y26693D01*
X34565D01*
Y26613D01*
X34485D01*
X27501Y21920D02*
Y22080D01*
X27661D01*
Y21920D01*
X27501D01*
X27541Y21960D02*
Y22040D01*
X27621D01*
Y21960D01*
X27541D01*
X29405Y32464D02*
Y32624D01*
X29565D01*
Y32464D01*
X29405D01*
X29445Y32504D02*
Y32584D01*
X29525D01*
Y32504D01*
X29445D01*
X28938Y32409D02*
Y32569D01*
X29098D01*
Y32409D01*
X28938D01*
X28978Y32449D02*
Y32529D01*
X29058D01*
Y32449D01*
X28978D01*
X32470Y24900D02*
X32550Y24980D01*
X32630Y24900D01*
X32550Y24820D01*
X32470Y24900D01*
X32020Y24450D02*
X32100Y24530D01*
X32180Y24450D01*
X32100Y24370D01*
X32020Y24450D01*
X28346Y29705D02*
Y29865D01*
X28506D01*
Y29705D01*
X28346D01*
X28386Y29745D02*
Y29825D01*
X28466D01*
Y29745D01*
X28386D01*
X29051Y29680D02*
Y29840D01*
X29211D01*
Y29680D01*
X29051D01*
X29091Y29720D02*
Y29800D01*
X29171D01*
Y29720D01*
X29091D01*
X29480Y29792D02*
Y29952D01*
X29640D01*
Y29792D01*
X29480D01*
X29520Y29832D02*
Y29912D01*
X29600D01*
Y29832D01*
X29520D01*
X29455Y24518D02*
Y24678D01*
X29615D01*
Y24518D01*
X29455D01*
X29495Y24558D02*
Y24638D01*
X29575D01*
Y24558D01*
X29495D01*
X29157Y24220D02*
Y24380D01*
X29317D01*
Y24220D01*
X29157D01*
X29197Y24260D02*
Y24340D01*
X29277D01*
Y24260D01*
X29197D01*
X22987Y17670D02*
Y17830D01*
X23147D01*
Y17670D01*
X22987D01*
X23027Y17710D02*
Y17790D01*
X23107D01*
Y17710D01*
X23027D01*
X38712Y14330D02*
X38792Y14410D01*
X38872Y14330D01*
X38792Y14250D01*
X38712Y14330D01*
X29948Y16177D02*
Y16337D01*
X30108D01*
Y16177D01*
X29948D01*
X29988Y16217D02*
Y16297D01*
X30068D01*
Y16217D01*
X29988D01*
X33494Y22663D02*
Y22823D01*
X33654D01*
Y22663D01*
X33494D01*
X33534Y22703D02*
Y22783D01*
X33614D01*
Y22703D01*
X33534D01*
X32581Y17237D02*
X32661Y17317D01*
X32741Y17237D01*
X32661Y17157D01*
X32581Y17237D01*
X32470Y21759D02*
X32550Y21839D01*
X32630Y21759D01*
X32550Y21679D01*
X32470Y21759D01*
X32020Y22156D02*
X32100Y22236D01*
X32180Y22156D01*
X32100Y22076D01*
X32020Y22156D01*
X35096Y21715D02*
X35176Y21795D01*
X35256Y21715D01*
X35176Y21635D01*
X35096Y21715D01*
X32520Y29900D02*
X32600Y29980D01*
X32680Y29900D01*
X32600Y29820D01*
X32520Y29900D01*
X33070D02*
X33150Y29980D01*
X33230Y29900D01*
X33150Y29820D01*
X33070Y29900D01*
X33470Y23592D02*
Y23752D01*
X33630D01*
Y23592D01*
X33470D01*
X33510Y23632D02*
Y23712D01*
X33590D01*
Y23632D01*
X33510D01*
X33857Y24743D02*
Y24903D01*
X34017D01*
Y24743D01*
X33857D01*
X33897Y24783D02*
Y24863D01*
X33977D01*
Y24783D01*
X33897D01*
X34420Y24386D02*
Y24546D01*
X34580D01*
Y24386D01*
X34420D01*
X34460Y24426D02*
Y24506D01*
X34540D01*
Y24426D01*
X34460D01*
X30920Y27920D02*
Y28080D01*
X31080D01*
Y27920D01*
X30920D01*
X30960Y27960D02*
Y28040D01*
X31040D01*
Y27960D01*
X30960D01*
X24620Y28870D02*
Y29030D01*
X24780D01*
Y28870D01*
X24620D01*
X24660Y28910D02*
Y28990D01*
X24740D01*
Y28910D01*
X24660D01*
X23370Y15420D02*
Y15580D01*
X23530D01*
Y15420D01*
X23370D01*
X23410Y15460D02*
Y15540D01*
X23490D01*
Y15460D01*
X23410D01*
X22170Y17670D02*
Y17830D01*
X22330D01*
Y17670D01*
X22170D01*
X22210Y17710D02*
Y17790D01*
X22290D01*
Y17710D01*
X22210D01*
X24620Y17670D02*
Y17830D01*
X24780D01*
Y17670D01*
X24620D01*
X24660Y17710D02*
Y17790D01*
X24740D01*
Y17710D01*
X24660D01*
X23803Y28870D02*
Y29030D01*
X23963D01*
Y28870D01*
X23803D01*
X23843Y28910D02*
Y28990D01*
X23923D01*
Y28910D01*
X23843D01*
X22987Y28870D02*
Y29030D01*
X23147D01*
Y28870D01*
X22987D01*
X23027Y28910D02*
Y28990D01*
X23107D01*
Y28910D01*
X23027D01*
X22170Y28870D02*
Y29030D01*
X22330D01*
Y28870D01*
X22170D01*
X22210Y28910D02*
Y28990D01*
X22290D01*
Y28910D01*
X22210D01*
X30370Y28620D02*
Y28780D01*
X30530D01*
Y28620D01*
X30370D01*
X30410Y28660D02*
Y28740D01*
X30490D01*
Y28660D01*
X30410D01*
X37770Y25420D02*
Y25580D01*
X37930D01*
Y25420D01*
X37770D01*
X37810Y25460D02*
Y25540D01*
X37890D01*
Y25460D01*
X37810D01*
X37520Y25720D02*
Y25880D01*
X37680D01*
Y25720D01*
X37520D01*
X37560Y25760D02*
Y25840D01*
X37640D01*
Y25760D01*
X37560D01*
X38070Y25120D02*
Y25280D01*
X38230D01*
Y25120D01*
X38070D01*
X38110Y25160D02*
Y25240D01*
X38190D01*
Y25160D01*
X38110D01*
X28404Y18734D02*
Y18894D01*
X28564D01*
Y18734D01*
X28404D01*
X28444Y18774D02*
Y18854D01*
X28524D01*
Y18774D01*
X28444D01*
X26220Y21720D02*
Y21880D01*
X26380D01*
Y21720D01*
X26220D01*
X26260Y21760D02*
Y21840D01*
X26340D01*
Y21760D01*
X26260D01*
X36620Y20970D02*
Y21130D01*
X36780D01*
Y20970D01*
X36620D01*
X36660Y21010D02*
Y21090D01*
X36740D01*
Y21010D01*
X36660D01*
X24823Y25048D02*
Y25208D01*
X24983D01*
Y25048D01*
X24823D01*
X24863Y25088D02*
Y25168D01*
X24943D01*
Y25088D01*
X24863D01*
X24970Y24346D02*
Y24506D01*
X25130D01*
Y24346D01*
X24970D01*
X25010Y24386D02*
Y24466D01*
X25090D01*
Y24386D01*
X25010D01*
X36829Y23717D02*
X36909Y23797D01*
X36989Y23717D01*
X36909Y23637D01*
X36829Y23717D01*
X29020Y27170D02*
Y27330D01*
X29180D01*
Y27170D01*
X29020D01*
X29060Y27210D02*
Y27290D01*
X29140D01*
Y27210D01*
X29060D01*
X29030Y21670D02*
Y21830D01*
X29190D01*
Y21670D01*
X29030D01*
X29070Y21710D02*
Y21790D01*
X29151D01*
Y21710D01*
X29070D01*
X29270Y13520D02*
Y13680D01*
X29430D01*
Y13520D01*
X29270D01*
X29310Y13560D02*
Y13640D01*
X29390D01*
Y13560D01*
X29310D01*
X29170Y16220D02*
Y16380D01*
X29330D01*
Y16220D01*
X29170D01*
X29210Y16260D02*
Y16340D01*
X29290D01*
Y16260D01*
X29210D01*
X24972Y24696D02*
Y24856D01*
X25132D01*
Y24696D01*
X24972D01*
X25012Y24736D02*
Y24816D01*
X25092D01*
Y24736D01*
X25012D01*
X24703Y23317D02*
Y23477D01*
X24863D01*
Y23317D01*
X24703D01*
X24743Y23357D02*
Y23437D01*
X24823D01*
Y23357D01*
X24743D01*
X24892Y23018D02*
Y23178D01*
X25052D01*
Y23018D01*
X24892D01*
X24932Y23058D02*
Y23138D01*
X25012D01*
Y23058D01*
X24932D01*
X25081Y22719D02*
Y22879D01*
X25241D01*
Y22719D01*
X25081D01*
X25121Y22759D02*
Y22839D01*
X25201D01*
Y22759D01*
X25121D01*
X25270Y22420D02*
Y22580D01*
X25430D01*
Y22420D01*
X25270D01*
X25310Y22460D02*
Y22540D01*
X25390D01*
Y22460D01*
X25310D01*
X27784Y17364D02*
Y17524D01*
X27944D01*
Y17364D01*
X27784D01*
X27824Y17404D02*
Y17484D01*
X27904D01*
Y17404D01*
X27824D01*
X19820Y20420D02*
Y20580D01*
X19980D01*
Y20420D01*
X19820D01*
X19860Y20460D02*
Y20540D01*
X19940D01*
Y20460D01*
X19860D01*
X19820Y25870D02*
Y26030D01*
X19980D01*
Y25870D01*
X19820D01*
X19860Y25910D02*
Y25990D01*
X19940D01*
Y25910D01*
X19860D01*
X18120Y25870D02*
Y26030D01*
X18280D01*
Y25870D01*
X18120D01*
X18160Y25910D02*
Y25990D01*
X18240D01*
Y25910D01*
X18160D01*
X27020Y20320D02*
Y20480D01*
X27180D01*
Y20320D01*
X27020D01*
X27060Y20360D02*
Y20440D01*
X27140D01*
Y20360D01*
X27060D01*
X27320Y26720D02*
Y26880D01*
X27480D01*
Y26720D01*
X27320D01*
X27360Y26760D02*
Y26840D01*
X27440D01*
Y26760D01*
X27360D01*
X24970Y23970D02*
Y24130D01*
X25130D01*
Y23970D01*
X24970D01*
X25010Y24010D02*
Y24090D01*
X25090D01*
Y24010D01*
X25010D01*
X19820Y21720D02*
Y21880D01*
X19980D01*
Y21720D01*
X19820D01*
X19860Y21760D02*
Y21840D01*
X19940D01*
Y21760D01*
X19860D01*
X21570Y22370D02*
Y22530D01*
X21730D01*
Y22370D01*
X21570D01*
X21610Y22410D02*
Y22490D01*
X21690D01*
Y22410D01*
X21610D01*
X21620Y23870D02*
Y24030D01*
X21780D01*
Y23870D01*
X21620D01*
X21660Y23910D02*
Y23990D01*
X21740D01*
Y23910D01*
X21660D01*
X19820Y27209D02*
Y27369D01*
X19980D01*
Y27209D01*
X19820D01*
X19860Y27249D02*
Y27329D01*
X19940D01*
Y27249D01*
X19860D01*
X21820Y28120D02*
Y28280D01*
X21980D01*
Y28120D01*
X21820D01*
X21860Y28160D02*
Y28240D01*
X21940D01*
Y28160D01*
X21860D01*
X23391Y31349D02*
Y31509D01*
X23551D01*
Y31349D01*
X23391D01*
X23431Y31389D02*
Y31469D01*
X23511D01*
Y31389D01*
X23431D01*
X30318Y12422D02*
Y12582D01*
X30478D01*
Y12422D01*
X30318D01*
X30358Y12462D02*
Y12542D01*
X30438D01*
Y12462D01*
X30358D01*
X29270Y20470D02*
Y20630D01*
X29430D01*
Y20470D01*
X29270D01*
X29310Y20510D02*
Y20590D01*
X29390D01*
Y20510D01*
X29310D01*
X33568Y21520D02*
Y21680D01*
X33728D01*
Y21520D01*
X33568D01*
X33608Y21560D02*
Y21640D01*
X33688D01*
Y21560D01*
X33608D01*
X40070Y18520D02*
Y18680D01*
X40230D01*
Y18520D01*
X40070D01*
X40110Y18560D02*
Y18640D01*
X40190D01*
Y18560D01*
X40110D01*
X43520Y21620D02*
Y21780D01*
X43680D01*
Y21620D01*
X43520D01*
X43560Y21660D02*
Y21740D01*
X43640D01*
Y21660D01*
X43560D01*
X27970Y22820D02*
Y22980D01*
X28130D01*
Y22820D01*
X27970D01*
X28010Y22860D02*
Y22940D01*
X28090D01*
Y22860D01*
X28010D01*
X30158Y23158D02*
Y23318D01*
X30318D01*
Y23158D01*
X30158D01*
X30198Y23198D02*
Y23278D01*
X30278D01*
Y23198D01*
X30198D01*
X30293Y22543D02*
Y22703D01*
X30453D01*
Y22543D01*
X30293D01*
X30333Y22583D02*
Y22663D01*
X30413D01*
Y22583D01*
X30333D01*
X29292Y25840D02*
Y26000D01*
X29452D01*
Y25840D01*
X29292D01*
X29332Y25880D02*
Y25960D01*
X29412D01*
Y25880D01*
X29332D01*
X30170Y33520D02*
Y33680D01*
X30330D01*
Y33520D01*
X30170D01*
X30210Y33560D02*
Y33640D01*
X30290D01*
Y33560D01*
X30210D01*
X34470Y22642D02*
Y22802D01*
X34630D01*
Y22642D01*
X34470D01*
X34510Y22682D02*
Y22762D01*
X34590D01*
Y22682D01*
X34510D01*
X33970Y23142D02*
Y23302D01*
X34130D01*
Y23142D01*
X33970D01*
X34010Y23182D02*
Y23262D01*
X34090D01*
Y23182D01*
X34010D01*
X34470Y23592D02*
Y23752D01*
X34630D01*
Y23592D01*
X34470D01*
X34510Y23632D02*
Y23712D01*
X34590D01*
Y23632D01*
X34510D01*
X40220Y28270D02*
Y28430D01*
X40380D01*
Y28270D01*
X40220D01*
X40260Y28310D02*
Y28390D01*
X40340D01*
Y28310D01*
X40260D01*
X43300Y26920D02*
X43220Y27080D01*
X43380D01*
X43300Y26920D01*
X43100Y33770D02*
X43020Y33930D01*
X43180D01*
X43100Y33770D01*
X42975Y24525D02*
Y24685D01*
X43135D01*
Y24525D01*
X42975D01*
X43015Y24565D02*
Y24645D01*
X43095D01*
Y24565D01*
X43015D01*
X43820Y22270D02*
Y22430D01*
X43980D01*
Y22270D01*
X43820D01*
X43860Y22310D02*
Y22390D01*
X43940D01*
Y22310D01*
X43860D01*
X36620Y21520D02*
Y21680D01*
X36780D01*
Y21520D01*
X36620D01*
X36660Y21560D02*
Y21640D01*
X36740D01*
Y21560D01*
X36660D01*
X43820Y20970D02*
Y21130D01*
X43980D01*
Y20970D01*
X43820D01*
X43860Y21010D02*
Y21090D01*
X43940D01*
Y21010D01*
X43860D01*
X36383Y24050D02*
X36463Y24130D01*
X36543Y24050D01*
X36463Y23970D01*
X36383Y24050D01*
X36829Y22385D02*
X36909Y22465D01*
X36989Y22385D01*
X36909Y22305D01*
X36829Y22385D01*
Y23051D02*
X36909Y23131D01*
X36989Y23051D01*
X36909Y22971D01*
X36829Y23051D01*
X36383Y22718D02*
X36463Y22798D01*
X36543Y22718D01*
X36463Y22638D01*
X36383Y22718D01*
Y23384D02*
X36463Y23464D01*
X36543Y23384D01*
X36463Y23304D01*
X36383Y23384D01*
X28370Y13170D02*
Y13330D01*
X28530D01*
Y13170D01*
X28370D01*
X28410Y13210D02*
Y13290D01*
X28490D01*
Y13210D01*
X28410D01*
X29120Y13170D02*
Y13330D01*
X29280D01*
Y13170D01*
X29120D01*
X29160Y13210D02*
Y13290D01*
X29240D01*
Y13210D01*
X29160D01*
X28435Y24220D02*
Y24380D01*
X28595D01*
Y24220D01*
X28435D01*
X28475Y24260D02*
Y24340D01*
X28555D01*
Y24260D01*
X28475D01*
X40520Y18520D02*
Y18680D01*
X40680D01*
Y18520D01*
X40520D01*
X40560Y18560D02*
Y18640D01*
X40640D01*
Y18560D01*
X40560D01*
X35690Y33886D02*
X35610Y34046D01*
X35770D01*
X35690Y33886D01*
X36628Y33836D02*
X36548Y33996D01*
X36708D01*
X36628Y33836D01*
X36593Y32893D02*
X36513Y33053D01*
X36673D01*
X36593Y32893D01*
D113*
X42477Y16350D02*
G03*
X42477Y16350I-80J0D01*
G01*
X45780Y33700D02*
G03*
X45780Y33700I-80J0D01*
G01*
Y10150D02*
G03*
X45780Y10150I-80J0D01*
G01*
X15230D02*
G03*
X15230Y10150I-80J0D01*
G01*
Y33700D02*
G03*
X15230Y33700I-80J0D01*
G01*
D114*
X42437Y16350D02*
G03*
X42437Y16350I-40J0D01*
G01*
M02*
