%FSTAX23Y23*%
%MOIN*%
%SFA1B1*%

%IPPOS*%
%ADD9500C,0.012000*%
%ADD9501C,0.015000*%
%ADD9502C,0.051200*%
G54D9500*
X0469Y01701D03*
X04755Y02007D03*
X04436Y02042D03*
X04526Y0216D03*
X0461Y02225D03*
X04539Y02332D03*
X0449Y02285D03*
X04442Y02329D03*
X04346Y02735D03*
X04295Y02861D03*
X04366Y02961D03*
X04227Y02655D03*
X03827Y0271D03*
X03683Y02681D03*
X03629D03*
X03607Y02739D03*
X03648Y02765D03*
Y02806D03*
X03565Y02779D03*
X03534Y02833D03*
X03618Y02947D03*
X03307Y0263D03*
X03253Y02621D03*
X03795Y02425D03*
X03039Y02626D03*
X0292Y02846D03*
X02718Y03048D03*
X02539Y02994D03*
X02523Y02866D03*
X02511Y02777D03*
X02549Y03163D03*
X0255Y03293D03*
X02562Y03452D03*
X02587Y03615D03*
X02855Y03625D03*
X02995Y03644D03*
X02746Y03485D03*
X02744Y03338D03*
X0273Y03191D03*
X03296Y03635D03*
X03542Y03623D03*
X03757Y03605D03*
X03857Y03437D03*
X04002Y03532D03*
X03999Y03296D03*
X04211Y03349D03*
X04359Y03139D03*
X04212Y0395D03*
X04257Y04289D03*
X04018Y04257D03*
X04092Y04455D03*
X04063Y04572D03*
X03982Y0458D03*
X03989Y04516D03*
G54D9501*
X03238Y02852D03*
X03371Y028D03*
X03412Y02801D03*
X03409Y02753D03*
X03364Y02755D03*
G54D9502*
X05019Y01576D03*
Y01776D03*
X04797Y02584D03*
Y02784D03*
X02579Y02258D03*
X02379D03*
X04459Y03804D03*
Y04004D03*
M02*