G04*
G04 #@! TF.GenerationSoftware,Altium Limited,Altium Designer,22.10.1 (41)*
G04*
G04 Layer_Color=8421504*
%FSLAX24Y24*%
%MOIN*%
G70*
G04*
G04 #@! TF.SameCoordinates,F22EFE63-58D3-4984-8651-CE55CF2E9756*
G04*
G04*
G04 #@! TF.FilePolarity,Positive*
G04*
G01*
G75*
%ADD15R,0.0965X0.0965*%
%ADD16R,0.0236X0.0098*%
%ADD17R,0.0098X0.0236*%
%ADD18R,0.0669X0.0787*%
%ADD19R,0.1181X0.2165*%
%ADD20R,0.0374X0.0669*%
%ADD21R,0.0669X0.0374*%
%ADD22R,0.0354X0.0728*%
%ADD23R,0.0728X0.0354*%
%ADD24R,0.0512X0.1102*%
%ADD25R,0.0709X0.0295*%
%ADD26R,0.0828X0.1105*%
%ADD27R,0.0669X0.0394*%
%ADD28R,0.0610X0.1378*%
%ADD29R,0.1102X0.0512*%
%ADD30R,0.0866X0.0591*%
%ADD31R,0.0512X0.0354*%
%ADD32R,0.0354X0.0748*%
%ADD33R,0.0433X0.0236*%
%ADD34R,0.0554X0.0615*%
%ADD35R,0.0576X0.0494*%
%ADD36R,0.0536X0.0455*%
%ADD37R,0.0531X0.0374*%
%ADD38R,0.0500X0.0300*%
%ADD39R,0.1000X0.1051*%
%ADD40R,0.1051X0.1000*%
%ADD41R,0.0300X0.0500*%
%ADD42R,0.0236X0.0236*%
D15*
X33888Y27766D02*
D03*
D16*
X34636Y27478D02*
D03*
Y27675D02*
D03*
Y27872D02*
D03*
Y28069D02*
D03*
Y28266D02*
D03*
Y27281D02*
D03*
X33140Y27472D02*
D03*
Y27669D02*
D03*
Y27866D02*
D03*
Y28063D02*
D03*
Y28259D02*
D03*
Y27275D02*
D03*
D17*
X34181Y28514D02*
D03*
X33985D02*
D03*
X33788D02*
D03*
X33591D02*
D03*
X33394D02*
D03*
X34378D02*
D03*
X34181Y27018D02*
D03*
X33985D02*
D03*
X33788D02*
D03*
X33591D02*
D03*
X33394D02*
D03*
X34378D02*
D03*
D18*
X40532Y30197D02*
D03*
Y28228D02*
D03*
X30719Y23386D02*
D03*
Y21417D02*
D03*
D19*
X39518Y40522D02*
D03*
X35778D02*
D03*
X40502Y18986D02*
D03*
X44242D02*
D03*
D20*
X42851Y44689D02*
D03*
X41748D02*
D03*
X47677Y21575D02*
D03*
X46575D02*
D03*
X29715Y30226D02*
D03*
X28612D02*
D03*
D21*
X33976Y26152D02*
D03*
Y25049D02*
D03*
D22*
X35156Y24026D02*
D03*
X36220D02*
D03*
D23*
X32854Y24587D02*
D03*
Y25651D02*
D03*
D24*
X34911Y25620D02*
D03*
X36801D02*
D03*
D25*
X30531Y26791D02*
D03*
Y27657D02*
D03*
D26*
X40492Y26447D02*
D03*
X39508D02*
D03*
X31122Y28858D02*
D03*
X30138D02*
D03*
X25325Y26398D02*
D03*
X26309D02*
D03*
D27*
X35276Y29469D02*
D03*
Y30728D02*
D03*
X29144Y26447D02*
D03*
Y27707D02*
D03*
D28*
X31555Y34094D02*
D03*
X34094D02*
D03*
D29*
X33553Y31545D02*
D03*
Y29656D02*
D03*
D30*
X31024Y31555D02*
D03*
Y30492D02*
D03*
D31*
X27638Y27648D02*
D03*
Y26742D02*
D03*
X43632Y43022D02*
D03*
Y42195D02*
D03*
D32*
X42530Y21831D02*
D03*
X43593D02*
D03*
X42520Y23041D02*
D03*
X43583D02*
D03*
X39331Y44360D02*
D03*
X38268D02*
D03*
X39350Y43081D02*
D03*
X38287D02*
D03*
D33*
X45689Y20098D02*
D03*
Y19724D02*
D03*
X46752D02*
D03*
Y20094D02*
D03*
X45689Y20472D02*
D03*
X46752D02*
D03*
X40846Y42894D02*
D03*
X41909Y43268D02*
D03*
X40846D02*
D03*
X41909Y42890D02*
D03*
Y42520D02*
D03*
X40846D02*
D03*
D34*
X46419Y18701D02*
D03*
X45669D02*
D03*
X40885Y41555D02*
D03*
X41635D02*
D03*
D35*
X50167Y19803D02*
D03*
Y20610D02*
D03*
X45138Y42283D02*
D03*
Y43091D02*
D03*
D36*
X48780Y20483D02*
D03*
Y19793D02*
D03*
D37*
X36880Y30197D02*
D03*
Y29606D02*
D03*
D38*
X38209Y28248D02*
D03*
D39*
Y29173D02*
D03*
D40*
X29632Y24813D02*
D03*
D41*
X30557D02*
D03*
D42*
X37343Y23691D02*
D03*
X37854D02*
D03*
X37598Y23022D02*
D03*
M02*
