G04*
G04 #@! TF.GenerationSoftware,Altium Limited,Altium Designer,22.10.1 (41)*
G04*
G04 Layer_Color=128*
%FSLAX24Y24*%
%MOIN*%
G70*
G04*
G04 #@! TF.SameCoordinates,F22EFE63-58D3-4984-8651-CE55CF2E9756*
G04*
G04*
G04 #@! TF.FilePolarity,Positive*
G04*
G01*
G75*
%ADD77C,0.0020*%
D77*
X47717Y25841D02*
X48228D01*
X47972Y25585D02*
Y26096D01*
X47717Y27841D02*
X48228D01*
X47972Y27585D02*
Y28096D01*
X49941Y15766D02*
X50453D01*
X50197Y15510D02*
Y16022D01*
X44341Y40049D02*
X44852D01*
X44596Y39793D02*
Y40305D01*
X44341Y38049D02*
X44852D01*
X44596Y37793D02*
Y38305D01*
X25541Y22589D02*
X26053D01*
X25797Y22333D02*
Y22844D01*
X23541Y22589D02*
X24053D01*
X23797Y22333D02*
Y22844D01*
X49941Y17766D02*
X50453D01*
X50197Y17510D02*
Y18022D01*
X28430Y31630D02*
X28550D01*
X28490Y31570D02*
Y31690D01*
X33635Y28000D02*
X33785D01*
X33710Y27925D02*
Y28075D01*
X34045Y28010D02*
X34195D01*
X34120Y27935D02*
Y28085D01*
X34015Y27530D02*
X34165D01*
X34090Y27455D02*
Y27605D01*
X33565Y27550D02*
X33715D01*
X33640Y27475D02*
Y27625D01*
X32305Y28520D02*
X32455D01*
X32380Y28445D02*
Y28595D01*
X27125Y30482D02*
X27245D01*
X27185Y30422D02*
Y30542D01*
X29143Y28465D02*
X29263D01*
X29203Y28405D02*
Y28525D01*
X44842Y22854D02*
X44962D01*
X44902Y22794D02*
Y22914D01*
X45206Y21604D02*
X45326D01*
X45266Y21544D02*
Y21664D01*
X45334Y23327D02*
X45454D01*
X45394Y23267D02*
Y23387D01*
X44369Y23297D02*
X44489D01*
X44429Y23237D02*
Y23357D01*
X25058Y27776D02*
X25178D01*
X25118Y27716D02*
Y27836D01*
X25176Y28661D02*
X25296D01*
X25236Y28601D02*
Y28721D01*
X25334Y29941D02*
X25454D01*
X25394Y29881D02*
Y30001D01*
X27243Y31919D02*
X27363D01*
X27303Y31859D02*
Y31979D01*
X25432Y31634D02*
X25552D01*
X25492Y31574D02*
Y31694D01*
X27381Y33386D02*
X27501D01*
X27441Y33326D02*
Y33446D01*
X25442Y32933D02*
X25562D01*
X25502Y32873D02*
Y32993D01*
X27409Y34850D02*
X27529D01*
X27469Y34790D02*
Y34910D01*
X25560Y34528D02*
X25680D01*
X25620Y34468D02*
Y34588D01*
X25816Y36152D02*
X25936D01*
X25876Y36092D02*
Y36212D01*
X28493Y36250D02*
X28613D01*
X28553Y36190D02*
Y36310D01*
X29891Y36447D02*
X30011D01*
X29951Y36387D02*
Y36507D01*
X32903Y36358D02*
X33023D01*
X32963Y36298D02*
Y36418D01*
X35364Y36239D02*
X35484D01*
X35424Y36179D02*
Y36299D01*
X37519Y36053D02*
X37639D01*
X37579Y35993D02*
Y36113D01*
X39960Y35325D02*
X40080D01*
X40020Y35265D02*
Y35385D01*
X38513Y34370D02*
X38633D01*
X38573Y34310D02*
Y34430D01*
X42058Y33495D02*
X42178D01*
X42118Y33435D02*
Y33555D01*
X42214Y26555D02*
X42334D01*
X42274Y26495D02*
Y26615D01*
X42893Y28612D02*
X43013D01*
X42953Y28552D02*
Y28672D01*
X43405Y27352D02*
X43525D01*
X43465Y27292D02*
Y27412D01*
X39832Y45167D02*
X39952D01*
X39892Y45107D02*
Y45227D01*
X40570Y45728D02*
X40690D01*
X40630Y45668D02*
Y45788D01*
X39763Y45807D02*
X39883D01*
X39823Y45747D02*
Y45867D01*
X40127Y42579D02*
X40247D01*
X40187Y42519D02*
Y42639D01*
X37893Y24252D02*
X38013D01*
X37953Y24192D02*
Y24312D01*
X36013Y27392D02*
X36133D01*
X36073Y27332D02*
Y27452D01*
X43533Y31398D02*
X43653D01*
X43593Y31338D02*
Y31458D01*
X39930Y32963D02*
X40050D01*
X39990Y32903D02*
Y33023D01*
X43601Y29616D02*
X43721D01*
X43661Y29556D02*
Y29676D01*
X38218Y27106D02*
X38338D01*
X38278Y27046D02*
Y27166D01*
X36121Y29478D02*
X36241D01*
X36181Y29418D02*
Y29538D01*
X36233Y26815D02*
X36353D01*
X36293Y26755D02*
Y26875D01*
X36774Y26815D02*
X36894D01*
X36834Y26755D02*
Y26875D01*
X36426Y27657D02*
X36546D01*
X36486Y27597D02*
Y27717D01*
X36426Y28061D02*
X36546D01*
X36486Y28001D02*
Y28121D01*
X35599Y27795D02*
X35719D01*
X35659Y27735D02*
Y27855D01*
X35284Y28337D02*
X35404D01*
X35344Y28277D02*
Y28397D01*
X30334Y26260D02*
X30454D01*
X30394Y26200D02*
Y26320D01*
X33011Y26309D02*
X33131D01*
X33071Y26249D02*
Y26369D01*
X32479Y26211D02*
X32599D01*
X32539Y26151D02*
Y26271D01*
X40865Y44557D02*
X40985D01*
X40925Y44497D02*
Y44617D01*
X42066Y39508D02*
X42186D01*
X42126Y39448D02*
Y39568D01*
X42519Y42894D02*
X42639D01*
X42579Y42834D02*
Y42954D01*
X44300Y20423D02*
X44420D01*
X44360Y20363D02*
Y20483D01*
X46042Y22254D02*
X46162D01*
X46102Y22194D02*
Y22314D01*
X47492Y20078D02*
X47612D01*
X47552Y20018D02*
Y20138D01*
X46842Y17017D02*
X46962D01*
X46902Y16957D02*
Y17077D01*
M02*
