%FSTAX23Y23*%
%MOIN*%
%SFA1B1*%

%IPPOS*%
%ADD11C,0.009800*%
%ADD12C,0.010000*%
%ADD13C,0.007900*%
%ADD14C,0.007000*%
G54D11*
X03825Y02991D02*
D01*
X03825Y02991*
X03825Y02992*
X03825Y02992*
X03825Y02992*
X03825Y02993*
X03825Y02993*
X03825Y02993*
X03825Y02994*
X03824Y02994*
X03824Y02994*
X03824Y02994*
X03824Y02995*
X03823Y02995*
X03823Y02995*
X03823Y02995*
X03823Y02995*
X03822Y02996*
X03822Y02996*
X03822Y02996*
X03821Y02996*
X03821Y02996*
X03821Y02996*
X0382*
X0382Y02996*
X0382Y02996*
X03819Y02996*
X03819Y02996*
X03819Y02996*
X03818Y02995*
X03818Y02995*
X03818Y02995*
X03817Y02995*
X03817Y02995*
X03817Y02994*
X03817Y02994*
X03816Y02994*
X03816Y02994*
X03816Y02993*
X03816Y02993*
X03816Y02993*
X03816Y02992*
X03816Y02992*
X03816Y02992*
X03816Y02991*
X03816Y02991*
X03816Y02991*
X03816Y0299*
X03816Y0299*
X03816Y0299*
X03816Y02989*
X03816Y02989*
X03816Y02989*
X03816Y02988*
X03816Y02988*
X03817Y02988*
X03817Y02988*
X03817Y02987*
X03817Y02987*
X03818Y02987*
X03818Y02987*
X03818Y02987*
X03819Y02986*
X03819Y02986*
X03819Y02986*
X0382Y02986*
X0382Y02986*
X0382Y02986*
X03821*
X03821Y02986*
X03821Y02986*
X03822Y02986*
X03822Y02986*
X03822Y02986*
X03823Y02987*
X03823Y02987*
X03823Y02987*
X03823Y02987*
X03824Y02987*
X03824Y02988*
X03824Y02988*
X03824Y02988*
X03825Y02988*
X03825Y02989*
X03825Y02989*
X03825Y02989*
X03825Y0299*
X03825Y0299*
X03825Y0299*
X03825Y02991*
X03825Y02991*
X02893Y02481D02*
D01*
X02893Y02481*
X02893Y02481*
X02893Y02482*
X02893Y02482*
X02893Y02482*
X02893Y02483*
X02893Y02483*
X02893Y02483*
X02892Y02484*
X02892Y02484*
X02892Y02484*
X02892Y02484*
X02892Y02485*
X02891Y02485*
X02891Y02485*
X02891Y02485*
X0289Y02485*
X0289Y02485*
X0289Y02486*
X02889Y02486*
X02889Y02486*
X02889Y02486*
X02888*
X02888Y02486*
X02888Y02486*
X02887Y02486*
X02887Y02485*
X02887Y02485*
X02886Y02485*
X02886Y02485*
X02886Y02485*
X02885Y02485*
X02885Y02484*
X02885Y02484*
X02885Y02484*
X02885Y02484*
X02884Y02483*
X02884Y02483*
X02884Y02483*
X02884Y02482*
X02884Y02482*
X02884Y02482*
X02884Y02481*
X02884Y02481*
X02884Y02481*
X02884Y0248*
X02884Y0248*
X02884Y0248*
X02884Y02479*
X02884Y02479*
X02884Y02479*
X02884Y02478*
X02884Y02478*
X02885Y02478*
X02885Y02478*
X02885Y02477*
X02885Y02477*
X02885Y02477*
X02886Y02477*
X02886Y02477*
X02886Y02476*
X02887Y02476*
X02887Y02476*
X02887Y02476*
X02888Y02476*
X02888Y02476*
X02888Y02476*
X02889*
X02889Y02476*
X02889Y02476*
X0289Y02476*
X0289Y02476*
X0289Y02476*
X02891Y02476*
X02891Y02477*
X02891Y02477*
X02892Y02477*
X02892Y02477*
X02892Y02477*
X02892Y02478*
X02892Y02478*
X02893Y02478*
X02893Y02478*
X02893Y02479*
X02893Y02479*
X02893Y02479*
X02893Y0248*
X02893Y0248*
X02893Y0248*
X02893Y02481*
G54D12*
X03493Y02841D02*
Y02881D01*
X03453D02*
X03493D01*
Y02671D02*
Y02711D01*
X03452Y02671D02*
X03493D01*
X03278Y02841D02*
Y02886D01*
X03318*
X03283Y02666D02*
X03324D01*
X03283D02*
Y02711D01*
X03516Y04222D02*
X04016D01*
X03526Y03862D02*
X04011D01*
X03985Y01728D02*
X04485D01*
X0399Y02088D02*
X04475D01*
X03495Y02452D02*
X0364D01*
X03495Y02352D02*
X03641D01*
X03235Y02439D02*
Y02585D01*
X03335Y0244D02*
Y02585D01*
X03463Y02483D02*
X03703D01*
X03463Y02644D02*
X03707D01*
X03104Y02663D02*
Y02781D01*
X02998Y02667D02*
Y02785D01*
X03467Y02927D02*
Y03097D01*
X03587Y02927D02*
Y03097D01*
X03124Y03511D02*
X03435D01*
X03124Y03303D02*
X03435D01*
X03276Y02941D02*
Y03182D01*
X03438Y02938D02*
Y03182D01*
X03177Y0303D02*
Y0318D01*
X03027Y0303D02*
Y0318D01*
X02718Y02654D02*
Y02789D01*
X02818Y02654D02*
Y02784D01*
X02854Y02625D02*
Y02795D01*
X02974Y02625D02*
Y02795D01*
X04244Y02231D02*
X0437D01*
X04242Y02133D02*
X04368D01*
X04243Y02352D02*
X04369D01*
X04241Y02254D02*
X04367D01*
X04588Y01948D02*
X04651D01*
X04585Y02069D02*
X04648D01*
X04101Y04349D02*
X04164D01*
X04104Y04228D02*
X04167D01*
X044Y04201D02*
Y04319D01*
X04323Y04201D02*
Y04319D01*
X03815Y04386D02*
X03941D01*
X03817Y04484D02*
X03943D01*
X03817Y04258D02*
X03943D01*
X03819Y04356D02*
X03945D01*
X03712Y02286D02*
Y02388D01*
X03807Y0229D02*
Y02388D01*
X03194Y02812D02*
Y02762D01*
X03204Y02752*
X03224*
X03234Y02762*
Y02812*
X03254Y02752D02*
X03274D01*
X03264*
Y02812*
X03254Y02802*
X04915Y01436D02*
X04925Y01446D01*
X04945*
X04955Y01436*
Y01426*
X04945Y01416*
X04935*
X04945*
X04955Y01406*
Y01396*
X04945Y01386*
X04925*
X04915Y01396*
X04975Y01386D02*
Y01396D01*
X04985*
Y01386*
X04975*
X05025Y01436D02*
X05035Y01446D01*
X05055*
X05065Y01436*
Y01426*
X05055Y01416*
X05045*
X05055*
X05065Y01406*
Y01396*
X05055Y01386*
X05035*
X05025Y01396*
X05084Y01446D02*
Y01406D01*
X05104Y01386*
X05124Y01406*
Y01446*
X02714Y02388D02*
Y02368D01*
Y02378*
X02774*
X02764Y02388*
Y02338D02*
X02774Y02328D01*
Y02308*
X02764Y02298*
X02724*
X02714Y02308*
Y02328*
X02724Y02338*
X02764*
X02714Y02278D02*
X02724D01*
Y02268*
X02714*
Y02278*
X02774Y02188D02*
Y02228D01*
X02744*
X02754Y02208*
Y02198*
X02744Y02188*
X02724*
X02714Y02198*
Y02218*
X02724Y02228*
X02774Y02168D02*
X02734D01*
X02714Y02148*
X02734Y02128*
X02774*
X04856Y02421D02*
X04896D01*
X04916Y02391D02*
X04936D01*
X04926*
Y02451*
X04916Y02441*
X04966D02*
X04976Y02451D01*
X04996*
X05006Y02441*
Y02401*
X04996Y02391*
X04976*
X04966Y02401*
Y02441*
X05025Y02451D02*
Y02411D01*
X05045Y02391*
X05065Y02411*
Y02451*
X0445Y03662D02*
X0441D01*
Y03632*
X0443Y03642*
X0444*
X0445Y03632*
Y03612*
X0444Y03602*
X0442*
X0441Y03612*
X0447Y03662D02*
Y03622D01*
X0449Y03602*
X0451Y03622*
Y03662*
X05032Y02553D02*
X05092D01*
X05062*
Y02593*
X05032*
X05092*
Y02643D02*
Y02623D01*
X05082Y02613*
X05062*
X05052Y02623*
Y02643*
X05062Y02653*
X05072*
Y02613*
X05052Y02683D02*
Y02703D01*
X05062Y02713*
X05092*
Y02683*
X05082Y02673*
X05072Y02683*
Y02713*
X05032Y02772D02*
X05092D01*
Y02743*
X05082Y02733*
X05062*
X05052Y02743*
Y02772*
X05092Y02822D02*
Y02802D01*
X05082Y02792*
X05062*
X05052Y02802*
Y02822*
X05062Y02832*
X05072*
Y02792*
X05052Y02852D02*
X05092D01*
X05072*
X05062Y02862*
X05052Y02872*
Y02882*
X05092Y02942D02*
X05032D01*
X05062Y02912*
Y02952*
X04661Y0369D02*
X0472D01*
X0469*
Y0373*
X04661*
X0472*
Y0378D02*
Y0376D01*
X0471Y0375*
X0469*
X0468Y0376*
Y0378*
X0469Y0379*
X047*
Y0375*
X0468Y0382D02*
Y0384D01*
X0469Y0385*
X0472*
Y0382*
X0471Y0381*
X047Y0382*
Y0385*
X04661Y0391D02*
X0472D01*
Y0388*
X0471Y0387*
X0469*
X0468Y0388*
Y0391*
X0472Y0396D02*
Y0394D01*
X0471Y0393*
X0469*
X0468Y0394*
Y0396*
X0469Y0397*
X047*
Y0393*
X0468Y0399D02*
X0472D01*
X047*
X0469Y04*
X0468Y0401*
Y0402*
X0472Y0409D02*
Y0405D01*
X0468Y0409*
X04671*
X04661Y0408*
Y0406*
X04671Y0405*
X02262Y02045D02*
Y01985D01*
Y02015*
X02302*
Y02045*
Y01985*
X02352D02*
X02332D01*
X02322Y01995*
Y02015*
X02332Y02025*
X02352*
X02362Y02015*
Y02005*
X02322*
X02392Y02025D02*
X02412D01*
X02422Y02015*
Y01985*
X02392*
X02382Y01995*
X02392Y02005*
X02422*
X02482Y02045D02*
Y01985D01*
X02452*
X02442Y01995*
Y02015*
X02452Y02025*
X02482*
X02532Y01985D02*
X02512D01*
X02502Y01995*
Y02015*
X02512Y02025*
X02532*
X02542Y02015*
Y02005*
X02502*
X02562Y02025D02*
Y01985D01*
Y02005*
X02572Y02015*
X02582Y02025*
X02592*
X02622Y02035D02*
X02632Y02045D01*
X02652*
X02662Y02035*
Y02025*
X02652Y02015*
X02642*
X02652*
X02662Y02005*
Y01995*
X02652Y01985*
X02632*
X02622Y01995*
X04757Y01488D02*
X04817D01*
X04787*
Y01528*
X04757*
X04817*
Y01578D02*
Y01558D01*
X04807Y01548*
X04787*
X04777Y01558*
Y01578*
X04787Y01588*
X04797*
Y01548*
X04777Y01618D02*
Y01638D01*
X04787Y01648*
X04817*
Y01618*
X04807Y01608*
X04797Y01618*
Y01648*
X04757Y01708D02*
X04817D01*
Y01678*
X04807Y01668*
X04787*
X04777Y01678*
Y01708*
X04817Y01758D02*
Y01738D01*
X04807Y01728*
X04787*
X04777Y01738*
Y01758*
X04787Y01768*
X04797*
Y01728*
X04777Y01788D02*
X04817D01*
X04797*
X04787Y01798*
X04777Y01808*
Y01818*
X04817Y01848D02*
Y01868D01*
Y01858*
X04757*
X04767Y01848*
X03706Y03834D02*
Y03774D01*
X03746*
X03796D02*
Y03834D01*
X03766Y03804*
X03806*
X0418Y01695D02*
Y01635D01*
X0422*
X0424Y01685D02*
X0425Y01695D01*
X0427*
X0428Y01685*
Y01675*
X0427Y01665*
X0426*
X0427*
X0428Y01655*
Y01645*
X0427Y01635*
X0425*
X0424Y01645*
X0421Y04594D02*
X042Y04604D01*
X0418*
X0417Y04594*
Y04554*
X0418Y04544*
X042*
X0421Y04554*
X0423Y04544D02*
X0425D01*
X0424*
Y04604*
X0423Y04594*
X0432Y04604D02*
X043Y04594D01*
X0428Y04574*
Y04554*
X0429Y04544*
X0431*
X0432Y04554*
Y04564*
X0431Y04574*
X0428*
X04693Y02282D02*
X04683Y02292D01*
X04663*
X04653Y02282*
Y02242*
X04663Y02232*
X04683*
X04693Y02242*
X04713Y02232D02*
X04733D01*
X04723*
Y02292*
X04713Y02282*
X04803Y02232D02*
X04763D01*
X04803Y02272*
Y02282*
X04793Y02292*
X04773*
X04763Y02282*
X03398Y02455D02*
X03388Y02465D01*
X03368*
X03358Y02455*
Y02415*
X03368Y02405*
X03388*
X03398Y02415*
X03418Y02455D02*
X03428Y02465D01*
X03448*
X03458Y02455*
Y02445*
X03448Y02435*
X03438*
X03448*
X03458Y02425*
Y02415*
X03448Y02405*
X03428*
X03418Y02415*
X0356Y0232D02*
X0355Y0233D01*
X0353*
X0352Y0232*
Y0228*
X0353Y0227*
X0355*
X0356Y0228*
X0362Y0227D02*
X0358D01*
X0362Y0231*
Y0232*
X0361Y0233*
X0359*
X0358Y0232*
X03288Y02407D02*
X03278Y02417D01*
X03258*
X03248Y02407*
Y02367*
X03258Y02357*
X03278*
X03288Y02367*
X03308Y02357D02*
X03328D01*
X03318*
Y02417*
X03308Y02407*
X0382Y02519D02*
X0376D01*
Y02549*
X0377Y02559*
X0379*
X038Y02549*
Y02519*
Y02539D02*
X0382Y02559D01*
X0376Y02579D02*
Y02619D01*
X0377*
X0381Y02579*
X0382*
X03082Y02571D02*
Y02631D01*
X03112*
X03122Y02621*
Y02601*
X03112Y02591*
X03082*
X03102D02*
X03122Y02571D01*
X03182D02*
X03142D01*
X03182Y02611*
Y02621*
X03172Y02631*
X03152*
X03142Y02621*
X03993Y02531D02*
X03983Y02541D01*
X03963*
X03954Y02531*
Y02491*
X03963Y02481*
X03983*
X03993Y02491*
X04053Y02541D02*
X04013D01*
Y02511*
X04033Y02521*
X04043*
X04053Y02511*
Y02491*
X04043Y02481*
X04023*
X04013Y02491*
X03488Y03111D02*
Y03171D01*
X03518*
X03528Y03161*
Y03141*
X03518Y03131*
X03488*
X03508D02*
X03528Y03111D01*
X03548Y03161D02*
X03558Y03171D01*
X03578*
X03588Y03161*
Y03151*
X03578Y03141*
X03568*
X03578*
X03588Y03131*
Y03121*
X03578Y03111*
X03558*
X03548Y03121*
X03028Y03544D02*
Y03604D01*
X03058*
X03068Y03594*
Y03574*
X03058Y03564*
X03028*
X03048D02*
X03068Y03544D01*
X03118D02*
Y03604D01*
X03088Y03574*
X03128*
X03148Y03534D02*
X03188D01*
X03208Y03544D02*
X03228D01*
X03218*
Y03604*
X03208Y03594*
X03258Y03534D02*
X03298D01*
X03318Y03544D02*
X03338D01*
X03328*
Y03604*
X03318Y03594*
X03408Y03544D02*
X03368D01*
X03408Y03584*
Y03594*
X03398Y03604*
X03378*
X03368Y03594*
X03427Y03544D02*
X03447D01*
X03437*
Y03604*
X03427Y03594*
X03477Y03544D02*
Y03604D01*
Y03564D02*
X03507Y03584D01*
X03477Y03564D02*
X03507Y03544D01*
X0322Y0322D02*
Y0328D01*
X0325*
X0326Y0327*
Y0325*
X0325Y0324*
X0322*
X0324D02*
X0326Y0322D01*
X0331D02*
Y0328D01*
X0328Y0325*
X0332*
X0334Y0321D02*
X0338D01*
X034Y0322D02*
X0342D01*
X0341*
Y0328*
X034Y0327*
X0345Y0321D02*
X0349D01*
X0355Y0322D02*
X0351D01*
X0355Y0326*
Y0327*
X0354Y0328*
X0352*
X0351Y0327*
X0357D02*
X0358Y0328D01*
X036*
X03609Y0327*
Y0323*
X036Y0322*
X0358*
X0357Y0323*
Y0327*
X03629D02*
X03639Y0328D01*
X03659*
X03669Y0327*
Y0323*
X03659Y0322*
X03639*
X03629Y0323*
Y0327*
X03095Y03256D02*
X03085Y03266D01*
X03065*
X03055Y03256*
Y03216*
X03065Y03206*
X03085*
X03095Y03216*
X03115Y03256D02*
X03125Y03266D01*
X03145*
X03155Y03256*
Y03246*
X03145Y03236*
X03155Y03226*
Y03216*
X03145Y03206*
X03125*
X03115Y03216*
Y03226*
X03125Y03236*
X03115Y03246*
Y03256*
X03125Y03236D02*
X03145D01*
X02755Y02871D02*
X02745Y02881D01*
X02725*
X02715Y02871*
Y02831*
X02725Y02821*
X02745*
X02755Y02831*
X02775D02*
X02785Y02821D01*
X02805*
X02815Y02831*
Y02871*
X02805Y02881*
X02785*
X02775Y02871*
Y02861*
X02785Y02851*
X02815*
X0287Y02927D02*
X0286Y02937D01*
X0284*
X0283Y02927*
Y02887*
X0284Y02877*
X0286*
X0287Y02887*
X0293Y02937D02*
X0291Y02927D01*
X0289Y02907*
Y02887*
X029Y02877*
X0292*
X0293Y02887*
Y02897*
X0292Y02907*
X0289*
X02925Y03152D02*
X02915Y03162D01*
X02895*
X02885Y03152*
Y03112*
X02895Y03102*
X02915*
X02925Y03112*
X02945Y03162D02*
X02985D01*
Y03152*
X02945Y03112*
Y03102*
X02856Y02543D02*
Y02603D01*
X02886*
X02896Y02593*
Y02573*
X02886Y02563*
X02856*
X02876D02*
X02896Y02543D01*
X02916D02*
X02936D01*
X02926*
Y02603*
X02916Y02593*
X02582Y02529D02*
X02572Y02539D01*
X02552*
X02542Y02529*
Y02489*
X02552Y02479*
X02572*
X02582Y02489*
X02632Y02479D02*
Y02539D01*
X02602Y02509*
X02642*
G54D13*
X04102Y0307D02*
X04202D01*
X04102Y02771D02*
X04202D01*
X03903Y0307D02*
X04003D01*
X03903Y02771D02*
X04003D01*
X04202D02*
Y0307D01*
X03903Y02771D02*
Y0307D01*
X03121Y02389D02*
X03221D01*
X03121Y0209D02*
X03221D01*
X02922Y02389D02*
X03022D01*
X02922Y0209D02*
X03022D01*
X03221D02*
Y02389D01*
X02922Y0209D02*
Y02389D01*
X04637Y02884D02*
X04956D01*
X04637Y02484D02*
X04956D01*
Y02884*
X04637Y02484D02*
Y02884D01*
X043Y03704D02*
Y04104D01*
X04619Y03704D02*
Y04104D01*
X043Y03704D02*
X04619D01*
X043Y04104D02*
X04619D01*
X02279Y02418D02*
X02679D01*
X02279Y02099D02*
X02679D01*
X02279D02*
Y02418D01*
X02679Y02099D02*
Y02418D01*
X0486Y01476D02*
Y01876D01*
X05179Y01476D02*
Y01876D01*
X0486Y01476D02*
X05179D01*
X0486Y01876D02*
X05179D01*
X04208Y04433D02*
X04251D01*
X04208Y04504D02*
X04251D01*
X0469Y02122D02*
X04734D01*
X0469Y02192D02*
X04734D01*
X03433Y02538D02*
Y02581D01*
X03362Y02538D02*
Y02581D01*
X03909Y02715D02*
X0409D01*
X03909Y02573D02*
X0409D01*
X02972Y02956D02*
X03153D01*
X02972Y02814D02*
X03153D01*
X02894Y02987D02*
X02938D01*
X02894Y03058D02*
X02938D01*
X02491Y02568D02*
X02672D01*
X02491Y0271D02*
X02672D01*
X04539Y01916D02*
X04669D01*
X04539Y01823D02*
X04669D01*
X05061Y01955D02*
Y02085D01*
X04972Y01955D02*
Y02085D01*
X04835Y01956D02*
Y02071D01*
X0492Y01956D02*
Y02071D01*
X04558Y04203D02*
Y04333D01*
X04469Y04203D02*
Y04333D01*
X0406Y04109D02*
X04191D01*
X0406Y04202D02*
X04191D01*
X0373Y02946D02*
Y03033D01*
X03645Y02946D02*
Y03033D01*
G54D14*
X04066Y04409D02*
Y04379D01*
X0408*
X04085Y04384*
Y04389*
X0408Y04394*
X04066*
X0408*
X04085Y04399*
Y04404*
X0408Y04409*
X04066*
X04115Y04379D02*
X04095D01*
X04115Y04399*
Y04404*
X0411Y04409*
X041*
X04095Y04404*
X04555Y02129D02*
Y02099D01*
X0457*
X04575Y02104*
Y02109*
X0457Y02114*
X04555*
X0457*
X04575Y02119*
Y02124*
X0457Y02129*
X04555*
X04585Y02099D02*
X04595D01*
X0459*
Y02129*
X04585Y02124*
X04875Y02097D02*
Y02127D01*
X0489*
X04895Y02122*
Y02112*
X0489Y02107*
X04875*
X04885D02*
X04895Y02097D01*
X04905Y02122D02*
X0491Y02127D01*
X0492*
X04925Y02122*
Y02117*
X0492Y02112*
X04925Y02107*
Y02102*
X0492Y02097*
X0491*
X04905Y02102*
Y02107*
X0491Y02112*
X04905Y02117*
Y02122*
X0491Y02112D02*
X0492D01*
X05004Y0212D02*
Y0215D01*
X05019*
X05024Y02145*
Y02135*
X05019Y0213*
X05004*
X05014D02*
X05024Y0212D01*
X05034Y02125D02*
X05039Y0212D01*
X05049*
X05054Y02125*
Y02145*
X05049Y0215*
X05039*
X05034Y02145*
Y0214*
X05039Y02135*
X05054*
X04606Y0176D02*
X04611Y01755D01*
X04621*
X04626Y0176*
Y0178*
X04621Y01785*
X04611*
X04606Y0178*
X04596Y01785D02*
X04586D01*
X04591*
Y01755*
X04596Y0176*
X04571Y01785D02*
X04561D01*
X04566*
Y01755*
X04571Y0176*
X04166Y02177D02*
X04161Y02172D01*
Y02162*
X04166Y02157*
X04186*
X04191Y02162*
Y02172*
X04186Y02177*
X04191Y02187D02*
Y02197D01*
Y02192*
X04161*
X04166Y02187*
Y02212D02*
X04161Y02217D01*
Y02227*
X04166Y02232*
X04171*
X04176Y02227*
Y02222*
Y02227*
X04181Y02232*
X04186*
X04191Y02227*
Y02217*
X04186Y02212*
X04165Y02298D02*
X0416Y02293D01*
Y02283*
X04165Y02278*
X04185*
X0419Y02283*
Y02293*
X04185Y02298*
X0419Y02308D02*
Y02318D01*
Y02313*
X0416*
X04165Y02308*
X0419Y02348D02*
X0416D01*
X04175Y02333*
Y02353*
X0433Y04339D02*
Y04369D01*
X04345*
X0435Y04364*
Y04354*
X04345Y04349*
X0433*
X0434D02*
X0435Y04339D01*
X0436D02*
X0437D01*
X04365*
Y04369*
X0436Y04364*
X04385D02*
X0439Y04369D01*
X044*
X04405Y04364*
Y04344*
X044Y04339*
X0439*
X04385Y04344*
Y04364*
X04485Y04379D02*
Y04409D01*
X045*
X04505Y04404*
Y04394*
X045Y04389*
X04485*
X04495D02*
X04505Y04379D01*
X04515D02*
X04525D01*
X0452*
Y04409*
X04515Y04404*
X0454Y04379D02*
X0455D01*
X04545*
Y04409*
X0454Y04404*
X03715Y04451D02*
X0371Y04456D01*
X037*
X03695Y04451*
Y04431*
X037Y04426*
X0371*
X03715Y04431*
X03725Y04426D02*
X03735D01*
X0373*
Y04456*
X03725Y04451*
X0375Y04456D02*
X0377D01*
Y04451*
X0375Y04431*
Y04426*
X03717Y04323D02*
X03712Y04328D01*
X03702*
X03697Y04323*
Y04303*
X03702Y04298*
X03712*
X03717Y04303*
X03727Y04298D02*
X03737D01*
X03732*
Y04328*
X03727Y04323*
X03752D02*
X03757Y04328D01*
X03767*
X03772Y04323*
Y04318*
X03767Y04313*
X03772Y04308*
Y04303*
X03767Y04298*
X03757*
X03752Y04303*
Y04308*
X03757Y04313*
X03752Y04318*
Y04323*
X03757Y04313D02*
X03767D01*
X04133Y04045D02*
X04138Y0404D01*
X04148*
X04153Y04045*
Y04065*
X04148Y0407*
X04138*
X04133Y04065*
X04123Y0407D02*
X04113D01*
X04118*
Y0404*
X04123Y04045*
X04078Y0404D02*
X04098D01*
Y04055*
X04088Y0405*
X04083*
X04078Y04055*
Y04065*
X04083Y0407*
X04093*
X04098Y04065*
X03675Y03089D02*
X0367Y03094D01*
X0366*
X03655Y03089*
Y03069*
X0366Y03064*
X0367*
X03675Y03069*
X03685Y03064D02*
X03695D01*
X0369*
Y03094*
X03685Y03089*
X0371D02*
X03715Y03094D01*
X03725*
X0373Y03089*
Y03069*
X03725Y03064*
X03715*
X0371Y03069*
Y03089*
X03784Y02792D02*
Y02762D01*
X03799*
X03804Y02767*
Y02787*
X03799Y02792*
X03784*
X03834Y02762D02*
X03814D01*
X03834Y02782*
Y02787*
X03829Y02792*
X03819*
X03814Y02787*
X02835Y0245D02*
Y0242D01*
X0285*
X02855Y02425*
Y02445*
X0285Y0245*
X02835*
X02865Y0242D02*
X02875D01*
X0287*
Y0245*
X02865Y02445*
X02853Y0226D02*
Y0223D01*
X02873*
X02883D02*
X02893D01*
X02888*
Y0226*
X02883Y02255*
X04155Y0315D02*
Y0312D01*
X04175*
X04205D02*
X04185D01*
X04205Y0314*
Y03145*
X042Y0315*
X0419*
X04185Y03145*
X03859Y02339D02*
Y02359D01*
X03854Y02364*
X03844*
X03839Y02359*
Y02339*
X03844Y02334*
X03854*
X03849Y02344D02*
X03859Y02334D01*
X03854D02*
X03859Y02339D01*
X03869Y02334D02*
X03879D01*
X03874*
Y02364*
X03869Y02359*
M02*