%FSTAX23Y23*%
%MOIN*%
%SFA1B1*%

%IPPOS*%
%ADD15R,0.096500X0.096500*%
%ADD16R,0.023600X0.009800*%
%ADD17R,0.009800X0.023600*%
%ADD18R,0.066900X0.078700*%
%ADD19R,0.118100X0.216500*%
%ADD20R,0.037400X0.066900*%
%ADD21R,0.066900X0.037400*%
%ADD22R,0.035400X0.072800*%
%ADD23R,0.072800X0.035400*%
%ADD24R,0.051200X0.110200*%
%ADD25R,0.070900X0.029500*%
%ADD26R,0.082800X0.110500*%
%ADD27R,0.066900X0.039400*%
%ADD28R,0.061000X0.137800*%
%ADD29R,0.110200X0.051200*%
%ADD30R,0.086600X0.059100*%
%ADD31R,0.051200X0.035400*%
%ADD32R,0.035400X0.074800*%
%ADD33R,0.043300X0.023600*%
%ADD34R,0.055400X0.061500*%
%ADD35R,0.057600X0.049400*%
%ADD36R,0.053600X0.045500*%
%ADD37R,0.053100X0.037400*%
%ADD38R,0.050000X0.030000*%
%ADD39R,0.100000X0.105100*%
%ADD40R,0.105100X0.100000*%
%ADD41R,0.030000X0.050000*%
%ADD42R,0.023600X0.023600*%
G54D15*
X03388Y02776D03*
G54D16*
X03463Y02747D03*
Y02767D03*
Y02787D03*
Y02806D03*
Y02826D03*
Y02728D03*
X03314Y02747D03*
Y02766D03*
Y02786D03*
Y02806D03*
Y02825D03*
Y02727D03*
G54D17*
X03418Y02851D03*
X03398D03*
X03378D03*
X03359D03*
X03339D03*
X03437D03*
X03418Y02701D03*
X03398D03*
X03378D03*
X03359D03*
X03339D03*
X03437D03*
G54D18*
X04053Y03019D03*
Y02822D03*
X03071Y02338D03*
Y02141D03*
G54D19*
X03951Y04052D03*
X03577D03*
X0405Y01898D03*
X04424D03*
G54D20*
X04285Y04468D03*
X04174D03*
X04767Y02157D03*
X04657D03*
X02971Y03022D03*
X02861D03*
G54D21*
X03397Y02615D03*
Y02504D03*
G54D22*
X03515Y02402D03*
X03622D03*
G54D23*
X03285Y02458D03*
Y02565D03*
G54D24*
X03491Y02562D03*
X0368D03*
G54D25*
X03053Y02679D03*
Y02765D03*
G54D26*
X04049Y02644D03*
X0395D03*
X03112Y02885D03*
X03013D03*
X02532Y02639D03*
X0263D03*
G54D27*
X03527Y02946D03*
Y03072D03*
X02914Y02644D03*
Y0277D03*
G54D28*
X03155Y03409D03*
X03409D03*
G54D29*
X03355Y03154D03*
Y02965D03*
G54D30*
X03102Y03155D03*
Y03049D03*
G54D31*
X02763Y02764D03*
Y02674D03*
X04363Y04302D03*
Y04219D03*
G54D32*
X04253Y02183D03*
X04359D03*
X04252Y02304D03*
X04358D03*
X03933Y04436D03*
X03826D03*
X03935Y04308D03*
X03828D03*
G54D33*
X04568Y02009D03*
Y01972D03*
X04675D03*
Y02009D03*
X04568Y02047D03*
X04675D03*
X04084Y04289D03*
X0419Y04326D03*
X04084D03*
X0419Y04289D03*
Y04252D03*
X04084D03*
G54D34*
X04641Y0187D03*
X04566D03*
X04088Y04155D03*
X04163D03*
G54D35*
X05016Y0198D03*
Y02061D03*
X04513Y04228D03*
Y04309D03*
G54D36*
X04878Y02048D03*
Y01979D03*
G54D37*
X03688Y03019D03*
Y0296D03*
G54D38*
X0382Y02824D03*
G54D39*
X0382Y02917D03*
G54D40*
X02963Y02481D03*
G54D41*
X03055Y02481D03*
G54D42*
X03734Y02369D03*
X03785D03*
X03759Y02302D03*
M02*