%FSTAX23Y23*%
%MOIN*%
%SFA1B1*%

%IPPOS*%
%ADD76C,0.002000*%
%ADD77C,0.002700*%
G54D76*
X04789Y02576D02*
Y02592D01*
X04805*
Y02576*
X04789*
Y02776D02*
Y02792D01*
X04805*
Y02776*
X04789*
X05011Y01568D02*
Y01584D01*
X05027*
Y01568*
X05011*
X04451Y03996D02*
Y04012D01*
X04467*
Y03996*
X04451*
Y03796D02*
Y03812D01*
X04467*
Y03796*
X04451*
X02571Y0225D02*
Y02266D01*
X02587*
Y0225*
X02571*
X02371D02*
Y02266D01*
X02387*
Y0225*
X02371*
X05011Y01768D02*
Y01784D01*
X05027*
Y01768*
X05011*
X02718Y0304D02*
X0271Y03056D01*
X02726*
X02718Y0304*
X0292Y02838D02*
X02912Y02854D01*
X02928*
X0292Y02838*
X0449Y02277D02*
X04482Y02293D01*
X04498*
X0449Y02277*
X04526Y02152D02*
X04518Y02168D01*
X04534*
X04526Y02152*
X04539Y02324D02*
X04531Y0234D01*
X04547*
X04539Y02324*
X04442Y02321D02*
X04434Y02337D01*
X0445*
X04442Y02321*
X02511Y02769D02*
X02503Y02785D01*
X02519*
X02511Y02769*
X02523Y02858D02*
X02515Y02874D01*
X02531*
X02523Y02858*
X02539Y02986D02*
X02531Y03002D01*
X02547*
X02539Y02986*
X0273Y03183D02*
X02722Y03199D01*
X02738*
X0273Y03183*
X02549Y03155D02*
X02541Y03171D01*
X02557*
X02549Y03155*
X02744Y0333D02*
X02736Y03346D01*
X02752*
X02744Y0333*
X0255Y03285D02*
X02542Y03301D01*
X02558*
X0255Y03285*
X02746Y03477D02*
X02738Y03493D01*
X02754*
X02746Y03477*
X02562Y03444D02*
X02554Y0346D01*
X0257*
X02562Y03444*
X02587Y03607D02*
X02579Y03623D01*
X02595*
X02587Y03607*
X02855Y03617D02*
X02847Y03633D01*
X02863*
X02855Y03617*
X02995Y03636D02*
X02987Y03652D01*
X03003*
X02995Y03636*
X03296Y03627D02*
X03288Y03643D01*
X03304*
X03296Y03627*
X03542Y03615D02*
X03534Y03631D01*
X0355*
X03542Y03615*
X03757Y03597D02*
X03749Y03613D01*
X03765*
X03757Y03597*
X04002Y03524D02*
X03994Y0354D01*
X0401*
X04002Y03524*
X03857Y03429D02*
X03849Y03445D01*
X03865*
X03857Y03429*
X04211Y03341D02*
X04203Y03357D01*
X04219*
X04211Y03341*
X04227Y02647D02*
X04219Y02663D01*
X04235*
X04227Y02647*
X04295Y02853D02*
X04287Y02869D01*
X04303*
X04295Y02853*
X04346Y02727D02*
X04338Y02743D01*
X04354*
X04346Y02727*
X03989Y04508D02*
X03981Y04524D01*
X03997*
X03989Y04508*
X04063Y04564D02*
X04055Y0458D01*
X04071*
X04063Y04564*
X03982Y04572D02*
X03974Y04588D01*
X0399*
X03982Y04572*
X04018Y04249D02*
X0401Y04265D01*
X04026*
X04018Y04249*
X03795Y02417D02*
X03787Y02433D01*
X03803*
X03795Y02417*
X03607Y02731D02*
X03599Y02747D01*
X03615*
X03607Y02731*
X04359Y03131D02*
X04351Y03147D01*
X04367*
X04359Y03131*
X03999Y03288D02*
X03991Y03304D01*
X04007*
X03999Y03288*
X04366Y02953D02*
X04358Y02969D01*
X04374*
X04366Y02953*
X03827Y02702D02*
X03819Y02718D01*
X03835*
X03827Y02702*
X03618Y02939D02*
X0361Y02955D01*
X03626*
X03618Y02939*
X03629Y02673D02*
X03621Y02689D01*
X03637*
X03629Y02673*
X03683D02*
X03675Y02689D01*
X03691*
X03683Y02673*
X03648Y02757D02*
X0364Y02773D01*
X03656*
X03648Y02757*
Y02798D02*
X0364Y02814D01*
X03656*
X03648Y02798*
X03565Y02771D02*
X03557Y02787D01*
X03573*
X03565Y02771*
X03534Y02825D02*
X03526Y02841D01*
X03542*
X03534Y02825*
X03039Y02618D02*
X03031Y02634D01*
X03047*
X03039Y02618*
X03307Y02622D02*
X03299Y02638D01*
X03315*
X03307Y02622*
X03253Y02613D02*
X03245Y02629D01*
X03261*
X03253Y02613*
X04092Y04447D02*
X04084Y04463D01*
X041*
X04092Y04447*
X04212Y03942D02*
X04204Y03958D01*
X0422*
X04212Y03942*
X04257Y04281D02*
X04249Y04297D01*
X04265*
X04257Y04281*
X04436Y02034D02*
X04428Y0205D01*
X04444*
X04436Y02034*
X0461Y02217D02*
X04602Y02233D01*
X04618*
X0461Y02217*
X04755Y01999D02*
X04747Y02015D01*
X04763*
X04755Y01999*
X0469Y01693D02*
X04682Y01709D01*
X04698*
X0469Y01693*
G54D77*
X03379Y028D02*
D01*
X03378Y028*
X03378Y02801*
X03378Y02801*
X03378Y02802*
X03378Y02802*
X03378Y02803*
X03378Y02803*
X03377Y02804*
X03377Y02804*
X03377Y02805*
X03376Y02805*
X03376Y02805*
X03375Y02806*
X03375Y02806*
X03375Y02806*
X03374Y02807*
X03373Y02807*
X03373Y02807*
X03372Y02807*
X03372Y02807*
X03371Y02807*
X03371Y02807*
X0337*
X0337Y02807*
X03369Y02807*
X03369Y02807*
X03368Y02807*
X03368Y02807*
X03367Y02807*
X03367Y02806*
X03366Y02806*
X03366Y02806*
X03365Y02805*
X03365Y02805*
X03364Y02805*
X03364Y02804*
X03364Y02804*
X03363Y02803*
X03363Y02803*
X03363Y02802*
X03363Y02802*
X03363Y02801*
X03363Y02801*
X03363Y028*
X03363Y028*
X03363Y02799*
X03363Y02798*
X03363Y02798*
X03363Y02797*
X03363Y02797*
X03363Y02796*
X03363Y02796*
X03364Y02795*
X03364Y02795*
X03364Y02794*
X03365Y02794*
X03365Y02794*
X03366Y02793*
X03366Y02793*
X03367Y02793*
X03367Y02792*
X03368Y02792*
X03368Y02792*
X03369Y02792*
X03369Y02792*
X0337Y02792*
X0337Y02792*
X03371*
X03371Y02792*
X03372Y02792*
X03372Y02792*
X03373Y02792*
X03373Y02792*
X03374Y02792*
X03375Y02793*
X03375Y02793*
X03375Y02793*
X03376Y02794*
X03376Y02794*
X03377Y02794*
X03377Y02795*
X03377Y02795*
X03378Y02796*
X03378Y02796*
X03378Y02797*
X03378Y02797*
X03378Y02798*
X03378Y02798*
X03378Y02799*
X03379Y028*
X0342Y02801D02*
D01*
X03419Y02801*
X03419Y02802*
X03419Y02802*
X03419Y02803*
X03419Y02803*
X03419Y02804*
X03419Y02804*
X03418Y02805*
X03418Y02805*
X03418Y02806*
X03417Y02806*
X03417Y02806*
X03416Y02807*
X03416Y02807*
X03416Y02807*
X03415Y02808*
X03414Y02808*
X03414Y02808*
X03413Y02808*
X03413Y02808*
X03412Y02808*
X03412Y02808*
X03411*
X03411Y02808*
X0341Y02808*
X0341Y02808*
X03409Y02808*
X03409Y02808*
X03408Y02808*
X03408Y02807*
X03407Y02807*
X03407Y02807*
X03406Y02806*
X03406Y02806*
X03405Y02806*
X03405Y02805*
X03405Y02805*
X03404Y02804*
X03404Y02804*
X03404Y02803*
X03404Y02803*
X03404Y02802*
X03404Y02802*
X03404Y02801*
X03404Y02801*
X03404Y028*
X03404Y02799*
X03404Y02799*
X03404Y02798*
X03404Y02798*
X03404Y02797*
X03404Y02797*
X03405Y02796*
X03405Y02796*
X03405Y02795*
X03406Y02795*
X03406Y02795*
X03407Y02794*
X03407Y02794*
X03408Y02794*
X03408Y02793*
X03409Y02793*
X03409Y02793*
X0341Y02793*
X0341Y02793*
X03411Y02793*
X03411Y02793*
X03412*
X03412Y02793*
X03413Y02793*
X03413Y02793*
X03414Y02793*
X03414Y02793*
X03415Y02793*
X03416Y02794*
X03416Y02794*
X03416Y02794*
X03417Y02795*
X03417Y02795*
X03418Y02795*
X03418Y02796*
X03418Y02796*
X03419Y02797*
X03419Y02797*
X03419Y02798*
X03419Y02798*
X03419Y02799*
X03419Y02799*
X03419Y028*
X0342Y02801*
X03417Y02753D02*
D01*
X03416Y02753*
X03416Y02754*
X03416Y02754*
X03416Y02755*
X03416Y02755*
X03416Y02756*
X03416Y02756*
X03415Y02757*
X03415Y02757*
X03415Y02758*
X03414Y02758*
X03414Y02758*
X03413Y02759*
X03413Y02759*
X03413Y02759*
X03412Y0276*
X03411Y0276*
X03411Y0276*
X0341Y0276*
X0341Y0276*
X03409Y0276*
X03409Y0276*
X03408*
X03408Y0276*
X03407Y0276*
X03407Y0276*
X03406Y0276*
X03406Y0276*
X03405Y0276*
X03405Y02759*
X03404Y02759*
X03404Y02759*
X03403Y02758*
X03403Y02758*
X03402Y02758*
X03402Y02757*
X03402Y02757*
X03401Y02756*
X03401Y02756*
X03401Y02755*
X03401Y02755*
X03401Y02754*
X03401Y02754*
X03401Y02753*
X03401Y02753*
X03401Y02752*
X03401Y02751*
X03401Y02751*
X03401Y0275*
X03401Y0275*
X03401Y02749*
X03401Y02749*
X03402Y02748*
X03402Y02748*
X03402Y02747*
X03403Y02747*
X03403Y02747*
X03404Y02746*
X03404Y02746*
X03405Y02746*
X03405Y02745*
X03406Y02745*
X03406Y02745*
X03407Y02745*
X03407Y02745*
X03408Y02745*
X03408Y02745*
X03409*
X03409Y02745*
X0341Y02745*
X0341Y02745*
X03411Y02745*
X03411Y02745*
X03412Y02745*
X03413Y02746*
X03413Y02746*
X03413Y02746*
X03414Y02747*
X03414Y02747*
X03415Y02747*
X03415Y02748*
X03415Y02748*
X03416Y02749*
X03416Y02749*
X03416Y0275*
X03416Y0275*
X03416Y02751*
X03416Y02751*
X03416Y02752*
X03417Y02753*
X03372Y02755D02*
D01*
X03371Y02755*
X03371Y02756*
X03371Y02756*
X03371Y02757*
X03371Y02757*
X03371Y02758*
X03371Y02758*
X0337Y02759*
X0337Y02759*
X0337Y0276*
X03369Y0276*
X03369Y0276*
X03368Y02761*
X03368Y02761*
X03368Y02761*
X03367Y02762*
X03366Y02762*
X03366Y02762*
X03365Y02762*
X03365Y02762*
X03364Y02762*
X03364Y02762*
X03363*
X03363Y02762*
X03362Y02762*
X03362Y02762*
X03361Y02762*
X03361Y02762*
X0336Y02762*
X0336Y02761*
X03359Y02761*
X03359Y02761*
X03358Y0276*
X03358Y0276*
X03357Y0276*
X03357Y02759*
X03357Y02759*
X03356Y02758*
X03356Y02758*
X03356Y02757*
X03356Y02757*
X03356Y02756*
X03356Y02756*
X03356Y02755*
X03356Y02755*
X03356Y02754*
X03356Y02753*
X03356Y02753*
X03356Y02752*
X03356Y02752*
X03356Y02751*
X03356Y02751*
X03357Y0275*
X03357Y0275*
X03357Y02749*
X03358Y02749*
X03358Y02749*
X03359Y02748*
X03359Y02748*
X0336Y02748*
X0336Y02747*
X03361Y02747*
X03361Y02747*
X03362Y02747*
X03362Y02747*
X03363Y02747*
X03363Y02747*
X03364*
X03364Y02747*
X03365Y02747*
X03365Y02747*
X03366Y02747*
X03366Y02747*
X03367Y02747*
X03368Y02748*
X03368Y02748*
X03368Y02748*
X03369Y02749*
X03369Y02749*
X0337Y02749*
X0337Y0275*
X0337Y0275*
X03371Y02751*
X03371Y02751*
X03371Y02752*
X03371Y02752*
X03371Y02753*
X03371Y02753*
X03371Y02754*
X03372Y02755*
X03246Y02852D02*
D01*
X03245Y02852*
X03245Y02853*
X03245Y02853*
X03245Y02854*
X03245Y02854*
X03245Y02855*
X03245Y02855*
X03244Y02856*
X03244Y02856*
X03244Y02857*
X03243Y02857*
X03243Y02857*
X03242Y02858*
X03242Y02858*
X03242Y02858*
X03241Y02859*
X0324Y02859*
X0324Y02859*
X03239Y02859*
X03239Y02859*
X03238Y02859*
X03238Y02859*
X03237*
X03237Y02859*
X03236Y02859*
X03236Y02859*
X03235Y02859*
X03235Y02859*
X03234Y02859*
X03234Y02858*
X03233Y02858*
X03233Y02858*
X03232Y02857*
X03232Y02857*
X03231Y02857*
X03231Y02856*
X03231Y02856*
X0323Y02855*
X0323Y02855*
X0323Y02854*
X0323Y02854*
X0323Y02853*
X0323Y02853*
X0323Y02852*
X0323Y02852*
X0323Y02851*
X0323Y0285*
X0323Y0285*
X0323Y02849*
X0323Y02849*
X0323Y02848*
X0323Y02848*
X03231Y02847*
X03231Y02847*
X03231Y02846*
X03232Y02846*
X03232Y02846*
X03233Y02845*
X03233Y02845*
X03234Y02845*
X03234Y02844*
X03235Y02844*
X03235Y02844*
X03236Y02844*
X03236Y02844*
X03237Y02844*
X03237Y02844*
X03238*
X03238Y02844*
X03239Y02844*
X03239Y02844*
X0324Y02844*
X0324Y02844*
X03241Y02844*
X03242Y02845*
X03242Y02845*
X03242Y02845*
X03243Y02846*
X03243Y02846*
X03244Y02846*
X03244Y02847*
X03244Y02847*
X03245Y02848*
X03245Y02848*
X03245Y02849*
X03245Y02849*
X03245Y0285*
X03245Y0285*
X03245Y02851*
X03246Y02852*
M02*