%FSTAX23Y23*%
%MOIN*%
%SFA1B1*%

%IPPOS*%
%ADD76C,0.002000*%
G54D76*
X04771Y02584D02*
X04822D01*
X04797Y02558D02*
Y02609D01*
X04771Y02784D02*
X04822D01*
X04797Y02758D02*
Y02809D01*
X04994Y01576D02*
X05045D01*
X05019Y01551D02*
Y01602D01*
X04434Y04004D02*
X04485D01*
X04459Y03979D02*
Y0403D01*
X04434Y03804D02*
X04485D01*
X04459Y03779D02*
Y0383D01*
X02554Y02258D02*
X02605D01*
X02579Y02233D02*
Y02284D01*
X02354Y02258D02*
X02405D01*
X02379Y02233D02*
Y02284D01*
X04994Y01776D02*
X05045D01*
X05019Y01751D02*
Y01802D01*
X03363Y028D02*
X03378D01*
X03371Y02792D02*
Y02807D01*
X03404Y02801D02*
X03419D01*
X03412Y02793D02*
Y02808D01*
X03401Y02753D02*
X03416D01*
X03409Y02745D02*
Y0276D01*
X03356Y02755D02*
X03371D01*
X03364Y02747D02*
Y02762D01*
X0323Y02852D02*
X03245D01*
X03238Y02844D02*
Y02859D01*
X02712Y03048D02*
X02724D01*
X02718Y03042D02*
Y03054D01*
X02914Y02846D02*
X02926D01*
X0292Y0284D02*
Y02852D01*
X04484Y02285D02*
X04496D01*
X0449Y02279D02*
Y02291D01*
X0452Y0216D02*
X04532D01*
X04526Y02154D02*
Y02166D01*
X04533Y02332D02*
X04545D01*
X04539Y02326D02*
Y02338D01*
X04436Y02329D02*
X04448D01*
X04442Y02323D02*
Y02335D01*
X02505Y02777D02*
X02517D01*
X02511Y02771D02*
Y02783D01*
X02517Y02866D02*
X02529D01*
X02523Y0286D02*
Y02872D01*
X02533Y02994D02*
X02545D01*
X02539Y02988D02*
Y03D01*
X02724Y03191D02*
X02736D01*
X0273Y03185D02*
Y03197D01*
X02543Y03163D02*
X02555D01*
X02549Y03157D02*
Y03169D01*
X02738Y03338D02*
X0275D01*
X02744Y03332D02*
Y03344D01*
X02544Y03293D02*
X02556D01*
X0255Y03287D02*
Y03299D01*
X0274Y03485D02*
X02752D01*
X02746Y03479D02*
Y03491D01*
X02556Y03452D02*
X02568D01*
X02562Y03446D02*
Y03458D01*
X02581Y03615D02*
X02593D01*
X02587Y03609D02*
Y03621D01*
X02849Y03625D02*
X02861D01*
X02855Y03619D02*
Y03631D01*
X02989Y03644D02*
X03001D01*
X02995Y03638D02*
Y0365D01*
X0329Y03635D02*
X03302D01*
X03296Y03629D02*
Y03641D01*
X03536Y03623D02*
X03548D01*
X03542Y03617D02*
Y03629D01*
X03751Y03605D02*
X03763D01*
X03757Y03599D02*
Y03611D01*
X03996Y03532D02*
X04008D01*
X04002Y03526D02*
Y03538D01*
X03851Y03437D02*
X03863D01*
X03857Y03431D02*
Y03443D01*
X04205Y03349D02*
X04217D01*
X04211Y03343D02*
Y03355D01*
X04221Y02655D02*
X04233D01*
X04227Y02649D02*
Y02661D01*
X04289Y02861D02*
X04301D01*
X04295Y02855D02*
Y02867D01*
X0434Y02735D02*
X04352D01*
X04346Y02729D02*
Y02741D01*
X03983Y04516D02*
X03995D01*
X03989Y0451D02*
Y04522D01*
X04057Y04572D02*
X04069D01*
X04063Y04566D02*
Y04578D01*
X03976Y0458D02*
X03988D01*
X03982Y04574D02*
Y04586D01*
X04012Y04257D02*
X04024D01*
X04018Y04251D02*
Y04263D01*
X03789Y02425D02*
X03801D01*
X03795Y02419D02*
Y02431D01*
X03601Y02739D02*
X03613D01*
X03607Y02733D02*
Y02745D01*
X04353Y03139D02*
X04365D01*
X04359Y03133D02*
Y03145D01*
X03993Y03296D02*
X04005D01*
X03999Y0329D02*
Y03302D01*
X0436Y02961D02*
X04372D01*
X04366Y02955D02*
Y02967D01*
X03821Y0271D02*
X03833D01*
X03827Y02704D02*
Y02716D01*
X03612Y02947D02*
X03624D01*
X03618Y02941D02*
Y02953D01*
X03623Y02681D02*
X03635D01*
X03629Y02675D02*
Y02687D01*
X03677Y02681D02*
X03689D01*
X03683Y02675D02*
Y02687D01*
X03642Y02765D02*
X03654D01*
X03648Y02759D02*
Y02771D01*
X03642Y02806D02*
X03654D01*
X03648Y028D02*
Y02812D01*
X03559Y02779D02*
X03571D01*
X03565Y02773D02*
Y02785D01*
X03528Y02833D02*
X0354D01*
X03534Y02827D02*
Y02839D01*
X03033Y02626D02*
X03045D01*
X03039Y0262D02*
Y02632D01*
X03301Y0263D02*
X03313D01*
X03307Y02624D02*
Y02636D01*
X03247Y02621D02*
X03259D01*
X03253Y02615D02*
Y02627D01*
X04086Y04455D02*
X04098D01*
X04092Y04449D02*
Y04461D01*
X04206Y0395D02*
X04218D01*
X04212Y03944D02*
Y03956D01*
X04251Y04289D02*
X04263D01*
X04257Y04283D02*
Y04295D01*
X0443Y02042D02*
X04442D01*
X04436Y02036D02*
Y02048D01*
X04604Y02225D02*
X04616D01*
X0461Y02219D02*
Y02231D01*
X04749Y02007D02*
X04761D01*
X04755Y02001D02*
Y02013D01*
X04684Y01701D02*
X04696D01*
X0469Y01695D02*
Y01707D01*
M02*