G04*
G04 #@! TF.GenerationSoftware,Altium Limited,Altium Designer,22.10.1 (41)*
G04*
G04 Layer_Physical_Order=4*
G04 Layer_Color=16711680*
%FSLAX24Y24*%
%MOIN*%
G70*
G04*
G04 #@! TF.SameCoordinates,311B607A-AF6E-4672-A97B-97A4B5460F7E*
G04*
G04*
G04 #@! TF.FilePolarity,Positive*
G04*
G01*
G75*
%ADD11C,0.0100*%
%ADD53C,0.0617*%
%ADD54R,0.0617X0.0617*%
%ADD55C,0.0300*%
%ADD56R,0.0591X0.0591*%
%ADD57C,0.0591*%
%ADD58C,0.0200*%
%ADD59C,0.0551*%
%ADD60C,0.1181*%
%ADD61R,0.0551X0.0551*%
%ADD62C,0.0260*%
%ADD63C,0.0600*%
%ADD64C,0.0420*%
%ADD65C,0.0150*%
%ADD66C,0.0060*%
D11*
X13800Y16950D02*
X21437Y24587D01*
Y24731D01*
X13800Y15000D02*
Y16950D01*
X8650Y26300D02*
X10100Y24850D01*
X6150Y26300D02*
X8650D01*
X10100Y22546D02*
Y24850D01*
X28207Y24650D02*
X28250D01*
X28091Y24765D02*
X28207Y24650D01*
X27013Y24765D02*
X28091D01*
X21437Y24731D02*
X21462Y24757D01*
Y28053D01*
X21279Y28235D02*
X21462Y28053D01*
X11200Y18600D02*
X15708Y23108D01*
Y27792D01*
X15300Y28200D02*
X15708Y27792D01*
X9000Y21446D02*
X10100Y22546D01*
X21079Y28235D02*
X21279D01*
X13600Y28200D02*
X15300D01*
X20800D02*
X20831Y28231D01*
X21074D01*
X21079Y28235D01*
X17500Y27750D02*
X18350Y28600D01*
X20400D01*
X17300Y27850D02*
X18450Y29000D01*
X20000D01*
X18550Y29400D02*
X19600D01*
X17100Y27950D02*
X18550Y29400D01*
X15750Y28600D02*
X16550Y27800D01*
X13950Y28600D02*
X15750D01*
X15600Y29000D02*
X16750Y27850D01*
X14300Y29000D02*
X15600D01*
X15450Y29400D02*
X16900Y27950D01*
X14650Y29400D02*
X15450D01*
X12450Y17136D02*
X17100Y21786D01*
X12450Y16213D02*
Y17136D01*
Y16213D02*
X12720Y15943D01*
X13387Y15387D02*
Y15409D01*
X13504Y15526D02*
Y17766D01*
X17500Y21762D01*
X13387Y15409D02*
X13504Y15526D01*
X12927Y16634D02*
Y17401D01*
Y16634D02*
X13100Y16461D01*
X12927Y17401D02*
X17300Y21774D01*
X13100Y15650D02*
Y16461D01*
X12720Y15900D02*
Y15943D01*
X18965Y15035D02*
X20400Y13600D01*
X25367D01*
X26117Y12850D01*
X26250D01*
X16900Y21799D02*
Y27950D01*
X16750Y21861D02*
Y27850D01*
X16550Y21873D02*
Y27800D01*
X9000Y16600D02*
Y21446D01*
Y16600D02*
X9200Y16400D01*
X16400Y15225D02*
X16755Y15580D01*
X16050Y15350D02*
X16430Y15730D01*
X21018D02*
X21898Y14850D01*
X20956Y15580D02*
X22686Y13850D01*
X16430Y15730D02*
X21018D01*
X16755Y15580D02*
X20956D01*
X17165Y15035D02*
X18965D01*
X16850Y15350D02*
X17165Y15035D01*
X13787Y14987D02*
X13800Y15000D01*
X21898Y14850D02*
X26250D01*
X16400Y15200D02*
Y15225D01*
X22686Y13850D02*
X26250D01*
X13027Y10023D02*
X13054Y10004D01*
X13050Y10000D02*
X13054Y10004D01*
X11200Y18413D02*
Y18600D01*
Y18413D02*
X12000Y17613D01*
X11737Y18775D02*
X11742Y18780D01*
X11950Y18550D02*
X11981Y18581D01*
X12000Y17200D02*
Y17613D01*
X12181Y18329D02*
X12212Y18360D01*
X12310D01*
X12320Y18370D01*
X11742Y18780D02*
X13457D01*
X11981Y18581D02*
X13470D01*
X12320Y18370D02*
X13471D01*
X14596Y10000D02*
Y10004D01*
X13470Y18581D02*
X16750Y21861D01*
X13471Y18370D02*
X16900Y21799D01*
X13457Y18780D02*
X16550Y21873D01*
X17500Y21762D02*
Y27750D01*
X17300Y21774D02*
Y27850D01*
X17100Y21786D02*
Y27950D01*
D53*
X15922Y37700D02*
D03*
X17300D02*
D03*
X18678D02*
D03*
X20056D02*
D03*
X21434D02*
D03*
X14544D02*
D03*
X13166D02*
D03*
X11788D02*
D03*
D54*
X22812D02*
D03*
D55*
X16454Y17484D02*
D03*
X13909Y13156D02*
D03*
X14456D02*
D03*
X13909Y12609D02*
D03*
X14456D02*
D03*
X13909Y13621D02*
D03*
X14456D02*
D03*
X13909Y12144D02*
D03*
X14456D02*
D03*
X13444Y13156D02*
D03*
Y12609D02*
D03*
X14920Y13156D02*
D03*
Y12609D02*
D03*
X15927Y17484D02*
D03*
X16980D02*
D03*
X15927Y16783D02*
D03*
X16183Y17134D02*
D03*
X16178Y16433D02*
D03*
X16718D02*
D03*
X16741Y17134D02*
D03*
X16454Y16783D02*
D03*
X16976D02*
D03*
D56*
X26250Y14850D02*
D03*
D57*
X27250D02*
D03*
X26250Y13850D02*
D03*
X27250D02*
D03*
X26250Y12850D02*
D03*
X27250D02*
D03*
X26250Y11850D02*
D03*
X27250D02*
D03*
X26250Y10850D02*
D03*
X27250D02*
D03*
X7503Y11650D02*
D03*
D58*
X21779Y31299D02*
D03*
X22179D02*
D03*
X22579D02*
D03*
X21776Y31991D02*
D03*
Y31641D02*
D03*
X22176Y31991D02*
D03*
Y31641D02*
D03*
X22576D02*
D03*
Y31991D02*
D03*
X23076Y31291D02*
D03*
Y31991D02*
D03*
Y31641D02*
D03*
X23426Y31991D02*
D03*
Y31641D02*
D03*
Y31291D02*
D03*
X23826D02*
D03*
Y31641D02*
D03*
Y31991D02*
D03*
X12776Y32141D02*
D03*
Y31791D02*
D03*
Y31441D02*
D03*
X12376D02*
D03*
Y31791D02*
D03*
Y32141D02*
D03*
X12026Y31791D02*
D03*
Y32141D02*
D03*
Y31441D02*
D03*
X11526Y32141D02*
D03*
Y31791D02*
D03*
X11126D02*
D03*
Y32141D02*
D03*
X10726Y31791D02*
D03*
Y32141D02*
D03*
X11529Y31449D02*
D03*
X11129D02*
D03*
X10729D02*
D03*
D59*
X7503Y13650D02*
D03*
X8503Y12150D02*
D03*
X7503Y12650D02*
D03*
X8503Y13150D02*
D03*
D60*
X5003Y14898D02*
D03*
Y10898D02*
D03*
D61*
X8503Y14150D02*
D03*
D62*
X12600Y27750D02*
D03*
X6150Y26300D02*
D03*
X5800Y30150D02*
D03*
X12750Y35600D02*
D03*
X11250Y35550D02*
D03*
X13900Y33150D02*
D03*
X28250Y24650D02*
D03*
X27013Y24765D02*
D03*
X24222Y24776D02*
D03*
X21462Y24757D02*
D03*
X18679Y24799D02*
D03*
X15708Y24800D02*
D03*
X12914Y24822D02*
D03*
X10100Y24850D02*
D03*
X7350Y24900D02*
D03*
X20800Y28200D02*
D03*
X20400Y28600D02*
D03*
X20000Y29000D02*
D03*
X19600Y29400D02*
D03*
X13600Y28200D02*
D03*
X13950Y28600D02*
D03*
X14300Y29000D02*
D03*
X14650Y29400D02*
D03*
X12231Y16144D02*
D03*
X20700Y31687D02*
D03*
X22850Y35150D02*
D03*
X25050Y35750D02*
D03*
X22435Y29850D02*
D03*
X20700Y30250D02*
D03*
X25800Y27000D02*
D03*
X20050Y26550D02*
D03*
X17900Y26600D02*
D03*
X17942Y25938D02*
D03*
X7850Y27100D02*
D03*
X9300Y27150D02*
D03*
X14500D02*
D03*
X13250D02*
D03*
Y16750D02*
D03*
X12720Y15900D02*
D03*
X22300Y12850D02*
D03*
Y12300D02*
D03*
X17700Y11950D02*
D03*
X23308Y27483D02*
D03*
X19100Y8100D02*
D03*
X23050Y10750D02*
D03*
X19050Y10700D02*
D03*
X21000D02*
D03*
X11800Y35500D02*
D03*
X23300Y28050D02*
D03*
X22400D02*
D03*
X12200Y28200D02*
D03*
X11350D02*
D03*
X18710Y34710D02*
D03*
X22100Y35600D02*
D03*
X9500Y17850D02*
D03*
X9160Y35660D02*
D03*
X16250Y35750D02*
D03*
X25450Y23400D02*
D03*
X8750Y23850D02*
D03*
X14300Y23800D02*
D03*
X20063Y23787D02*
D03*
X26900Y23950D02*
D03*
X18000Y16050D02*
D03*
X20850Y19200D02*
D03*
X16600Y11800D02*
D03*
X13787Y14987D02*
D03*
X13387Y15387D02*
D03*
X9200Y16400D02*
D03*
X8050Y16500D02*
D03*
X11737Y18775D02*
D03*
X11950Y18550D02*
D03*
X12000Y17200D02*
D03*
X12181Y18329D02*
D03*
X13100Y15650D02*
D03*
X16050Y15350D02*
D03*
X16850D02*
D03*
X16400Y15200D02*
D03*
X13054Y10004D02*
D03*
X14596D02*
D03*
X25150Y33150D02*
D03*
X17800Y22900D02*
D03*
X18200Y32350D02*
D03*
X7150Y32550D02*
D03*
X23300Y35850D02*
D03*
X14350Y24700D02*
D03*
X6783Y26008D02*
D03*
X6730Y23869D02*
D03*
X11300Y23600D02*
D03*
X22542Y23540D02*
D03*
X8800Y24700D02*
D03*
X20100Y24650D02*
D03*
X25700D02*
D03*
X23540Y25940D02*
D03*
X12292Y26038D02*
D03*
D63*
X26750Y9450D02*
D03*
Y8450D02*
D03*
D64*
X13841Y20809D02*
D03*
X24571Y20279D02*
D03*
X23779Y21071D02*
D03*
X18629Y20771D02*
D03*
X19351Y20060D02*
D03*
X14809Y20850D02*
D03*
X11750Y20150D02*
D03*
Y21100D02*
D03*
D65*
X24222Y24776D02*
X24243Y24797D01*
Y25061D02*
X24256Y25074D01*
X24243Y24797D02*
Y25061D01*
X24256Y25074D02*
Y25224D01*
X23540Y25940D02*
X24256Y25224D01*
X23540Y25940D02*
X23540Y25940D01*
X18679Y24799D02*
Y25201D01*
X17942Y25938D02*
X18679Y25201D01*
X12292Y25444D02*
X12914Y24822D01*
X12292Y25444D02*
Y26038D01*
D66*
X6783Y25467D02*
Y26008D01*
Y25467D02*
X7350Y24900D01*
M02*
