G04*
G04 #@! TF.GenerationSoftware,Altium Limited,Altium Designer,22.10.1 (41)*
G04*
G04 Layer_Physical_Order=3*
G04 Layer_Color=128*
%FSLAX24Y24*%
%MOIN*%
G70*
G04*
G04 #@! TF.SameCoordinates,1A49A545-8501-46E2-8B4D-154AAFE9D792*
G04*
G04*
G04 #@! TF.FilePolarity,Negative*
G04*
G01*
G75*
%ADD11C,0.0100*%
%ADD67C,0.0400*%
%ADD68C,0.0872*%
%ADD69C,0.0754*%
%ADD70C,0.0750*%
%ADD71C,0.1680*%
%ADD72C,0.0794*%
%ADD73C,0.0520*%
%ADD74C,0.0800*%
%ADD75C,0.0640*%
%ADD76C,0.0200*%
%ADD77C,0.0550*%
%ADD78C,0.0500*%
D11*
X11750Y28900D02*
X12150Y28500D01*
D67*
X3650Y6800D02*
X30950D01*
X3650D02*
Y40000D01*
X30950D01*
Y6800D02*
Y40000D01*
D68*
X15922Y37700D02*
D03*
X17300D02*
D03*
X18678D02*
D03*
X20056D02*
D03*
X21434D02*
D03*
X22812D02*
D03*
X14544D02*
D03*
X13166D02*
D03*
X11788D02*
D03*
D69*
X26250Y14850D02*
D03*
Y13850D02*
D03*
Y12850D02*
D03*
Y11850D02*
D03*
Y10850D02*
D03*
X27250D02*
D03*
D70*
X8503Y12150D02*
D03*
X7503Y12650D02*
D03*
X8503Y13150D02*
D03*
Y14150D02*
D03*
D71*
X5003Y14898D02*
D03*
Y10898D02*
D03*
D72*
X7503Y11650D02*
D03*
D73*
X12600Y27750D02*
D03*
X6150Y26300D02*
D03*
X13900Y33150D02*
D03*
X28250Y24650D02*
D03*
X27013Y24765D02*
D03*
X24222Y24776D02*
D03*
X21462Y24757D02*
D03*
X18679Y24799D02*
D03*
X15708Y24800D02*
D03*
X12914Y24822D02*
D03*
X10100Y24850D02*
D03*
X7350Y24900D02*
D03*
X20800Y28200D02*
D03*
X20400Y28600D02*
D03*
X20000Y29000D02*
D03*
X19600Y29400D02*
D03*
X13600Y28200D02*
D03*
X13950Y28600D02*
D03*
X14300Y29000D02*
D03*
X14650Y29400D02*
D03*
X20700Y31687D02*
D03*
X22850Y35150D02*
D03*
X25800Y27000D02*
D03*
X20050Y26550D02*
D03*
X17900Y26600D02*
D03*
X17942Y25938D02*
D03*
X7850Y27100D02*
D03*
X9300Y27150D02*
D03*
X14500D02*
D03*
X13250D02*
D03*
Y16750D02*
D03*
X12720Y15900D02*
D03*
X22300Y12850D02*
D03*
Y12300D02*
D03*
X17700Y11950D02*
D03*
X23308Y27483D02*
D03*
X19100Y8100D02*
D03*
X23050Y10750D02*
D03*
X19050Y10700D02*
D03*
X11800Y35500D02*
D03*
X9500Y17850D02*
D03*
X26900Y23950D02*
D03*
X13787Y14987D02*
D03*
X13387Y15387D02*
D03*
X9200Y16400D02*
D03*
X11737Y18775D02*
D03*
X11950Y18550D02*
D03*
X12000Y17200D02*
D03*
X12181Y18329D02*
D03*
X13100Y15650D02*
D03*
X16050Y15350D02*
D03*
X16850D02*
D03*
X16400Y15200D02*
D03*
X25150Y33150D02*
D03*
X17800Y22900D02*
D03*
X18200Y32350D02*
D03*
X7150Y32550D02*
D03*
X14350Y24700D02*
D03*
X6783Y26008D02*
D03*
X6730Y23869D02*
D03*
X11300Y23600D02*
D03*
X22542Y23540D02*
D03*
X8800Y24700D02*
D03*
X20100Y24650D02*
D03*
X25700D02*
D03*
X23540Y25940D02*
D03*
X12292Y26038D02*
D03*
D74*
X26750Y9450D02*
D03*
Y8450D02*
D03*
D75*
X13841Y20809D02*
D03*
X24571Y20279D02*
D03*
X23779Y21071D02*
D03*
X18629Y20771D02*
D03*
X19351Y20060D02*
D03*
X14809Y20850D02*
D03*
X11750Y20150D02*
D03*
Y21100D02*
D03*
D76*
X22850Y35300D02*
X25550D01*
X25600Y35350D01*
Y37250D01*
Y38800D01*
X10800Y25900D02*
X13575D01*
X5650Y31050D02*
X10800Y25900D01*
X5650Y31050D02*
Y38800D01*
X10966Y27725D02*
X11750D01*
X7850Y30841D02*
X10966Y27725D01*
X7850Y30841D02*
Y36250D01*
X24350Y29100D02*
Y29200D01*
X5650Y38800D02*
X25600D01*
X24350Y29100D02*
X26700Y26750D01*
X23950Y29500D02*
X24300Y29150D01*
X20200Y29500D02*
X23950D01*
X19025Y30675D02*
X20200Y29500D01*
X19025Y30675D02*
X22850Y34500D01*
X13575Y25900D02*
X23500D01*
X11750Y27725D02*
Y28900D01*
X7850Y36250D02*
X11450D01*
X13200Y34500D01*
X15900D01*
X17500Y36100D01*
X22850Y34500D02*
Y36100D01*
X17500D02*
X22850D01*
X12150Y28500D02*
X21800D01*
X22850Y27500D02*
Y28500D01*
X21800Y27500D02*
X22850D01*
X23500Y25900D02*
X26750Y22650D01*
X28600Y24850D02*
X28600Y13400D01*
X26750D02*
X28600D01*
X26750D02*
Y14350D01*
X27950D01*
X26750D02*
Y22650D01*
X27950Y14350D02*
Y24100D01*
X21800Y27500D02*
Y28500D01*
X24300Y29150D02*
X28600Y24850D01*
X23550Y28500D02*
X27950Y24100D01*
X22850Y28500D02*
X23550D01*
X25200Y12350D02*
X28050D01*
X25200D02*
Y18750D01*
X28050Y12350D02*
X28050Y6850D01*
X5150Y18750D02*
X25200D01*
X5150Y17750D02*
Y18750D01*
Y17750D02*
X5150Y6850D01*
D77*
X16454Y17484D02*
D03*
X13909Y13156D02*
D03*
X14456D02*
D03*
X13909Y12609D02*
D03*
X14456D02*
D03*
X13909Y13621D02*
D03*
X14456D02*
D03*
X13909Y12144D02*
D03*
X14456D02*
D03*
X13444Y13156D02*
D03*
Y12609D02*
D03*
X14920Y13156D02*
D03*
Y12609D02*
D03*
X15927Y17484D02*
D03*
X16980D02*
D03*
X15927Y16783D02*
D03*
X16183Y17134D02*
D03*
X16178Y16433D02*
D03*
X16718D02*
D03*
X16741Y17134D02*
D03*
X16454Y16783D02*
D03*
X16976D02*
D03*
D78*
X21779Y31299D02*
D03*
X22179D02*
D03*
X22579D02*
D03*
X21776Y31991D02*
D03*
Y31641D02*
D03*
X22176Y31991D02*
D03*
Y31641D02*
D03*
X22576D02*
D03*
Y31991D02*
D03*
X23076Y31291D02*
D03*
Y31991D02*
D03*
Y31641D02*
D03*
X23426Y31991D02*
D03*
Y31641D02*
D03*
Y31291D02*
D03*
X23826D02*
D03*
Y31641D02*
D03*
Y31991D02*
D03*
X12776Y32141D02*
D03*
Y31791D02*
D03*
Y31441D02*
D03*
X12376D02*
D03*
Y31791D02*
D03*
Y32141D02*
D03*
X12026Y31791D02*
D03*
Y32141D02*
D03*
Y31441D02*
D03*
X11526Y32141D02*
D03*
Y31791D02*
D03*
X11126D02*
D03*
Y32141D02*
D03*
X10726Y31791D02*
D03*
Y32141D02*
D03*
X11529Y31449D02*
D03*
X11129D02*
D03*
X10729D02*
D03*
M02*
