G04*
G04 #@! TF.GenerationSoftware,Altium Limited,Altium Designer,22.10.1 (41)*
G04*
G04 Layer_Color=16711935*
%FSLAX24Y24*%
%MOIN*%
G70*
G04*
G04 #@! TF.SameCoordinates,D3DE9D1E-BBEA-47A5-8CCE-E8523334BBBC*
G04*
G04*
G04 #@! TF.FilePolarity,Negative*
G04*
G01*
G75*
%ADD21R,0.0394X0.0315*%
%ADD37R,0.0576X0.0494*%
%ADD39R,0.0354X0.0748*%
%ADD42R,0.0554X0.0615*%
%ADD43R,0.0374X0.0669*%
%ADD44R,0.0433X0.0236*%
%ADD63C,0.0200*%
%ADD64C,0.0260*%
%ADD65C,0.0700*%
%ADD66C,0.1181*%
%ADD67C,0.0591*%
%ADD68C,0.0551*%
%ADD69R,0.0551X0.0551*%
%ADD70C,0.0617*%
%ADD71R,0.0617X0.0617*%
%ADD72C,0.0300*%
%ADD73C,0.0450*%
%ADD74C,0.0220*%
%ADD93R,0.0315X0.0394*%
%ADD94R,0.0551X0.1142*%
%ADD95R,0.0500X0.0300*%
%ADD96R,0.1000X0.1051*%
%ADD97R,0.0236X0.0236*%
%ADD98R,0.0669X0.0787*%
%ADD99R,0.0315X0.0197*%
%ADD100R,0.0098X0.0236*%
%ADD101R,0.0236X0.0098*%
%ADD102R,0.0965X0.0965*%
%ADD103R,0.0374X0.0591*%
%ADD104R,0.0591X0.0374*%
%ADD105R,0.0394X0.0394*%
%ADD106R,0.0394X0.0394*%
%ADD107R,0.0531X0.0374*%
%ADD108R,0.0512X0.0354*%
%ADD109R,0.1181X0.2165*%
%ADD110R,0.0536X0.0455*%
D21*
X26200Y24255D02*
D03*
Y24845D02*
D03*
D37*
X31300Y14357D02*
D03*
Y13550D02*
D03*
D39*
X36950Y15250D02*
D03*
X35887D02*
D03*
X35900Y14000D02*
D03*
X36963D02*
D03*
D42*
X34525Y12100D02*
D03*
X33775D02*
D03*
D43*
X34700Y15150D02*
D03*
X33598D02*
D03*
D44*
X34550Y13076D02*
D03*
X33487D02*
D03*
Y13446D02*
D03*
X34550Y13824D02*
D03*
X33487D02*
D03*
X34550Y13450D02*
D03*
D63*
X23441Y19395D02*
D03*
X23099Y19393D02*
D03*
X22749D02*
D03*
X23441Y19795D02*
D03*
X23099Y19793D02*
D03*
X22749D02*
D03*
X23441Y20195D02*
D03*
X23099Y20193D02*
D03*
X22749D02*
D03*
X23449Y20693D02*
D03*
X23099D02*
D03*
X22749D02*
D03*
X23449Y21043D02*
D03*
X23099D02*
D03*
X22749D02*
D03*
X23449Y21443D02*
D03*
X23099D02*
D03*
X22749D02*
D03*
X23441Y24902D02*
D03*
X23099Y24900D02*
D03*
X22749D02*
D03*
X23441Y25302D02*
D03*
X23099Y25300D02*
D03*
X22749D02*
D03*
X23441Y25702D02*
D03*
X23099Y25700D02*
D03*
X22749D02*
D03*
X23449Y26200D02*
D03*
X23099D02*
D03*
X22749D02*
D03*
X23449Y26550D02*
D03*
X23099D02*
D03*
X22749D02*
D03*
X23449Y26950D02*
D03*
X23099D02*
D03*
X22749D02*
D03*
D64*
X45376Y25826D02*
D03*
Y26826D02*
D03*
Y27326D02*
D03*
X44876Y25076D02*
D03*
Y27076D02*
D03*
Y27576D02*
D03*
X45376Y25326D02*
D03*
Y27826D02*
D03*
X44876Y26076D02*
D03*
Y25576D02*
D03*
X45376Y26326D02*
D03*
X44876Y26576D02*
D03*
X46376Y27946D02*
D03*
Y25946D02*
D03*
Y26946D02*
D03*
Y25446D02*
D03*
Y26446D02*
D03*
X45876Y25196D02*
D03*
Y27696D02*
D03*
Y27196D02*
D03*
Y25696D02*
D03*
Y26196D02*
D03*
X46376Y27446D02*
D03*
X45876Y26696D02*
D03*
X46376Y24946D02*
D03*
X43300Y27000D02*
D03*
X44379Y34417D02*
D03*
X35690Y33966D02*
D03*
X36628Y33916D02*
D03*
X36593Y32973D02*
D03*
D65*
X46196Y28796D02*
D03*
Y24096D02*
D03*
X45700Y33700D02*
D03*
Y10150D02*
D03*
X15150D02*
D03*
Y33700D02*
D03*
D66*
X44897Y13102D02*
D03*
Y17102D02*
D03*
D67*
X42397Y16350D02*
D03*
D68*
X41397Y15850D02*
D03*
X42397Y15350D02*
D03*
X41397Y14850D02*
D03*
X42397Y14350D02*
D03*
D69*
X41397Y13850D02*
D03*
D70*
X14850Y23878D02*
D03*
Y25256D02*
D03*
Y18366D02*
D03*
Y19744D02*
D03*
Y16988D02*
D03*
Y26634D02*
D03*
Y22500D02*
D03*
Y21122D02*
D03*
D71*
Y28012D02*
D03*
D72*
X44900Y22850D02*
D03*
X34427Y21600D02*
D03*
X35650Y22350D02*
D03*
Y23800D02*
D03*
X36150Y25250D02*
D03*
X33400Y24800D02*
D03*
X21400Y14150D02*
D03*
X22000Y14750D02*
D03*
Y14150D02*
D03*
X21400Y14750D02*
D03*
X43900Y31800D02*
D03*
X41550Y34050D02*
D03*
X43700Y24550D02*
D03*
X16500Y11600D02*
D03*
X44900Y21142D02*
D03*
Y19542D02*
D03*
X17100Y18850D02*
D03*
X19900Y19200D02*
D03*
X18496Y18353D02*
D03*
X27600Y11550D02*
D03*
X17800Y10800D02*
D03*
X17400Y11450D02*
D03*
X18400Y14050D02*
D03*
X20750Y10550D02*
D03*
X25914Y16487D02*
D03*
X22100Y12500D02*
D03*
X22505Y13007D02*
D03*
X30760Y11393D02*
D03*
X23073Y14666D02*
D03*
X15069Y15547D02*
D03*
X34500Y10500D02*
D03*
X44846Y29682D02*
D03*
X32732Y12408D02*
D03*
X41206Y30402D02*
D03*
X35524Y13140D02*
D03*
X35206Y16218D02*
D03*
X34104Y16140D02*
D03*
X34714Y16694D02*
D03*
X35687Y33008D02*
D03*
X23883Y17750D02*
D03*
X16727Y17617D02*
D03*
X16656Y21594D02*
D03*
X18368Y20062D02*
D03*
X27194Y13537D02*
D03*
X29387Y14915D02*
D03*
X26317Y27711D02*
D03*
X25415Y21850D02*
D03*
X25372Y19300D02*
D03*
X25557Y27952D02*
D03*
X27334Y29762D02*
D03*
X39349Y18741D02*
D03*
X30500Y18350D02*
D03*
X36781Y18382D02*
D03*
X37104Y18663D02*
D03*
X36781Y18945D02*
D03*
X37104Y20351D02*
D03*
Y19788D02*
D03*
X36781Y20070D02*
D03*
X37414Y21320D02*
D03*
X37485Y21662D02*
D03*
X38400Y24900D02*
D03*
X36781Y19507D02*
D03*
X37104Y19226D02*
D03*
X29500Y18761D02*
D03*
X29150Y18760D02*
D03*
X39440Y19193D02*
D03*
X27050Y19050D02*
D03*
Y25400D02*
D03*
X26900Y24850D02*
D03*
X34525Y26653D02*
D03*
X27581Y22000D02*
D03*
X29485Y32544D02*
D03*
X29018Y32489D02*
D03*
X28426Y29785D02*
D03*
X29131Y29760D02*
D03*
X29560Y29872D02*
D03*
X29535Y24598D02*
D03*
X29237Y24300D02*
D03*
X23067Y17750D02*
D03*
X30028Y16257D02*
D03*
X33574Y22743D02*
D03*
X33550Y23672D02*
D03*
X33937Y24823D02*
D03*
X34500Y24466D02*
D03*
X31000Y28000D02*
D03*
X24700Y28950D02*
D03*
X23450Y15500D02*
D03*
X22250Y17750D02*
D03*
X24700D02*
D03*
X23883Y28950D02*
D03*
X23067D02*
D03*
X22250D02*
D03*
X30450Y28700D02*
D03*
X37850Y25500D02*
D03*
X37600Y25800D02*
D03*
X38150Y25200D02*
D03*
X28484Y18814D02*
D03*
X26300Y21800D02*
D03*
X36700Y21050D02*
D03*
X24903Y25128D02*
D03*
X25050Y24426D02*
D03*
X29100Y27250D02*
D03*
X29111Y21750D02*
D03*
X29350Y13600D02*
D03*
X29250Y16300D02*
D03*
X25052Y24776D02*
D03*
X24783Y23397D02*
D03*
X24972Y23098D02*
D03*
X25161Y22799D02*
D03*
X25350Y22500D02*
D03*
X27864Y17444D02*
D03*
X19900Y20500D02*
D03*
Y25950D02*
D03*
X18200D02*
D03*
X27100Y20400D02*
D03*
X27400Y26800D02*
D03*
X25050Y24050D02*
D03*
X21600Y18350D02*
D03*
X19900Y21800D02*
D03*
Y24550D02*
D03*
X21650Y22450D02*
D03*
X21700Y23950D02*
D03*
X19900Y27289D02*
D03*
X21900Y28200D02*
D03*
X23471Y31429D02*
D03*
X30398Y12502D02*
D03*
X29350Y20550D02*
D03*
X33648Y21600D02*
D03*
X40150Y18600D02*
D03*
X43600Y21700D02*
D03*
X28050Y22900D02*
D03*
X30238Y23238D02*
D03*
X30373Y22623D02*
D03*
X29372Y25920D02*
D03*
X30250Y33600D02*
D03*
X34550Y22722D02*
D03*
X34050Y23222D02*
D03*
X34550Y23672D02*
D03*
X41450Y25950D02*
D03*
X40300Y28350D02*
D03*
X43055Y24605D02*
D03*
X41100Y25950D02*
D03*
X43900Y22350D02*
D03*
X36700Y21600D02*
D03*
X43900Y21050D02*
D03*
X40100Y13550D02*
D03*
Y15500D02*
D03*
X28450Y13250D02*
D03*
X29200D02*
D03*
X28515Y24300D02*
D03*
X40100Y14850D02*
D03*
Y14200D02*
D03*
X40600Y18600D02*
D03*
D73*
X44400Y24000D02*
D03*
X37400Y12350D02*
D03*
X26650Y10450D02*
D03*
X34650Y30750D02*
D03*
X17600Y32150D02*
D03*
X26200Y17750D02*
D03*
X26300Y15450D02*
D03*
X19600Y32150D02*
D03*
X33592Y32130D02*
D03*
X33250Y17237D02*
D03*
X26172Y30019D02*
D03*
X32550Y24900D02*
D03*
X32100Y24450D02*
D03*
X38792Y14330D02*
D03*
X32661Y17237D02*
D03*
X32550Y21759D02*
D03*
X32100Y22156D02*
D03*
X35176Y21715D02*
D03*
X32600Y29900D02*
D03*
X33150D02*
D03*
X36909Y23717D02*
D03*
X36463Y24050D02*
D03*
X36909Y22385D02*
D03*
Y23051D02*
D03*
X36463Y22718D02*
D03*
Y23384D02*
D03*
D74*
X19692Y15366D02*
D03*
X19705Y14577D02*
D03*
D93*
X27295Y23950D02*
D03*
X26705D02*
D03*
X27295Y23150D02*
D03*
X26705D02*
D03*
X27295Y22350D02*
D03*
X26705D02*
D03*
X22855Y24300D02*
D03*
X23445D02*
D03*
X22855Y23550D02*
D03*
X23445D02*
D03*
X22855Y22800D02*
D03*
X23445D02*
D03*
X22855Y22050D02*
D03*
X23445D02*
D03*
D94*
X18491Y10990D02*
D03*
X19908D02*
D03*
X28349Y11348D02*
D03*
X29766D02*
D03*
D95*
X18579Y14546D02*
D03*
X26660Y12912D02*
D03*
D96*
X18579Y15471D02*
D03*
X26660Y11987D02*
D03*
D97*
X18657Y12300D02*
D03*
X18401Y12970D02*
D03*
X18913D02*
D03*
D98*
X16350Y12566D02*
D03*
Y14534D02*
D03*
X24495Y10885D02*
D03*
Y12854D02*
D03*
D99*
X23886Y14464D02*
D03*
Y13874D02*
D03*
D100*
X21207Y13685D02*
D03*
X22192D02*
D03*
X21995D02*
D03*
X21798D02*
D03*
X21601D02*
D03*
X21404D02*
D03*
X21207Y15181D02*
D03*
X22192D02*
D03*
X21995D02*
D03*
X21798D02*
D03*
X21601D02*
D03*
X21404D02*
D03*
D101*
X22446Y13942D02*
D03*
Y14926D02*
D03*
Y14533D02*
D03*
Y14336D02*
D03*
Y14139D02*
D03*
X20950Y13948D02*
D03*
Y14933D02*
D03*
Y14736D02*
D03*
Y14539D02*
D03*
Y14342D02*
D03*
Y14145D02*
D03*
X22446Y14730D02*
D03*
D102*
X21698Y14433D02*
D03*
D103*
X22252Y16354D02*
D03*
X22882D02*
D03*
X20737Y11514D02*
D03*
X21367D02*
D03*
X24584Y16067D02*
D03*
X25214D02*
D03*
D104*
X22306Y11227D02*
D03*
Y11857D02*
D03*
X21281Y13005D02*
D03*
Y12375D02*
D03*
X23682Y16756D02*
D03*
Y16126D02*
D03*
D105*
X21563Y15985D02*
D03*
Y16655D02*
D03*
X20751Y16625D02*
D03*
Y17295D02*
D03*
X25296Y14611D02*
D03*
Y13941D02*
D03*
D106*
X19388Y13628D02*
D03*
X20057D02*
D03*
D107*
X19463Y17254D02*
D03*
Y16664D02*
D03*
D108*
X26271Y14805D02*
D03*
Y13899D02*
D03*
D109*
X39514Y11339D02*
D03*
X35774D02*
D03*
D110*
X32400Y14345D02*
D03*
Y13655D02*
D03*
M02*
