G04*
G04 #@! TF.GenerationSoftware,Altium Limited,Altium Designer,22.10.1 (41)*
G04*
G04 Layer_Color=16711935*
%FSLAX24Y24*%
%MOIN*%
G70*
G04*
G04 #@! TF.SameCoordinates,4128C902-B1CE-41BE-A870-E6BD5CF3549D*
G04*
G04*
G04 #@! TF.FilePolarity,Positive*
G04*
G01*
G75*
%ADD14C,0.0070*%
D14*
X48066Y28296D02*
X49116D01*
X48066Y24596D02*
X49116D01*
X44526Y28286D02*
X45676D01*
X44526Y24606D02*
X45676D01*
X48066Y28296D02*
Y29321D01*
X45666D02*
X48066D01*
X45666Y23571D02*
X48066D01*
Y24596D01*
X44526Y24606D02*
Y28286D01*
X45666Y28296D02*
Y29321D01*
Y23571D02*
Y24596D01*
X49116D02*
Y28296D01*
X22750Y21356D02*
Y21023D01*
X22816Y20956D01*
X22950D01*
X23016Y21023D01*
Y21356D01*
X23416D02*
X23150D01*
Y21156D01*
X23283Y21223D01*
X23349D01*
X23416Y21156D01*
Y21023D01*
X23349Y20956D01*
X23216D01*
X23150Y21023D01*
X22750Y26863D02*
Y26530D01*
X22816Y26463D01*
X22950D01*
X23016Y26530D01*
Y26863D01*
X23349Y26463D02*
Y26863D01*
X23150Y26663D01*
X23416D01*
M02*
