G04*
G04 #@! TF.GenerationSoftware,Altium Limited,Altium Designer,22.10.1 (41)*
G04*
G04 Layer_Physical_Order=1*
G04 Layer_Color=255*
%FSLAX24Y24*%
%MOIN*%
G70*
G04*
G04 #@! TF.SameCoordinates,D3DE9D1E-BBEA-47A5-8CCE-E8523334BBBC*
G04*
G04*
G04 #@! TF.FilePolarity,Positive*
G04*
G01*
G75*
%ADD13C,0.0100*%
%ADD15C,0.0150*%
G04:AMPARAMS|DCode=17|XSize=9.8mil|YSize=27.6mil|CornerRadius=2mil|HoleSize=0mil|Usage=FLASHONLY|Rotation=180.000|XOffset=0mil|YOffset=0mil|HoleType=Round|Shape=RoundedRectangle|*
%AMROUNDEDRECTD17*
21,1,0.0098,0.0236,0,0,180.0*
21,1,0.0059,0.0276,0,0,180.0*
1,1,0.0039,-0.0030,0.0118*
1,1,0.0039,0.0030,0.0118*
1,1,0.0039,0.0030,-0.0118*
1,1,0.0039,-0.0030,-0.0118*
%
%ADD17ROUNDEDRECTD17*%
G04:AMPARAMS|DCode=18|XSize=9.8mil|YSize=27.6mil|CornerRadius=2mil|HoleSize=0mil|Usage=FLASHONLY|Rotation=90.000|XOffset=0mil|YOffset=0mil|HoleType=Round|Shape=RoundedRectangle|*
%AMROUNDEDRECTD18*
21,1,0.0098,0.0236,0,0,90.0*
21,1,0.0059,0.0276,0,0,90.0*
1,1,0.0039,0.0118,0.0030*
1,1,0.0039,0.0118,-0.0030*
1,1,0.0039,-0.0118,-0.0030*
1,1,0.0039,-0.0118,0.0030*
%
%ADD18ROUNDEDRECTD18*%
%ADD19R,0.0315X0.0315*%
%ADD20R,0.0600X0.0600*%
%ADD21R,0.0394X0.0315*%
%ADD22R,0.0315X0.0354*%
%ADD23R,0.0295X0.0394*%
%ADD24R,0.0533X0.0710*%
%ADD25R,0.0236X0.0492*%
%ADD26R,0.0613X0.0500*%
%ADD27R,0.0354X0.0315*%
%ADD28R,0.0368X0.0379*%
%ADD29R,0.0315X0.0354*%
G04:AMPARAMS|DCode=30|XSize=17.7mil|YSize=63mil|CornerRadius=1.9mil|HoleSize=0mil|Usage=FLASHONLY|Rotation=90.000|XOffset=0mil|YOffset=0mil|HoleType=Round|Shape=RoundedRectangle|*
%AMROUNDEDRECTD30*
21,1,0.0177,0.0591,0,0,90.0*
21,1,0.0138,0.0630,0,0,90.0*
1,1,0.0039,0.0295,0.0069*
1,1,0.0039,0.0295,-0.0069*
1,1,0.0039,-0.0295,-0.0069*
1,1,0.0039,-0.0295,0.0069*
%
%ADD30ROUNDEDRECTD30*%
G04:AMPARAMS|DCode=31|XSize=94.5mil|YSize=242.9mil|CornerRadius=1.9mil|HoleSize=0mil|Usage=FLASHONLY|Rotation=0.000|XOffset=0mil|YOffset=0mil|HoleType=Round|Shape=RoundedRectangle|*
%AMROUNDEDRECTD31*
21,1,0.0945,0.2391,0,0,0.0*
21,1,0.0907,0.2429,0,0,0.0*
1,1,0.0038,0.0454,-0.1196*
1,1,0.0038,-0.0454,-0.1196*
1,1,0.0038,-0.0454,0.1196*
1,1,0.0038,0.0454,0.1196*
%
%ADD31ROUNDEDRECTD31*%
%ADD32R,0.0535X0.0575*%
%ADD33R,0.0394X0.0295*%
%ADD34R,0.0094X0.0492*%
%ADD35R,0.0492X0.0094*%
%ADD36R,0.0374X0.0217*%
%ADD37R,0.0576X0.0494*%
%ADD38R,0.0906X0.0591*%
%ADD39R,0.0354X0.0748*%
%ADD40R,0.2165X0.1181*%
%ADD41R,0.0276X0.0335*%
%ADD42R,0.0554X0.0615*%
%ADD43R,0.0374X0.0669*%
%ADD44R,0.0433X0.0236*%
G04:AMPARAMS|DCode=45|XSize=97.4mil|YSize=24.5mil|CornerRadius=12.2mil|HoleSize=0mil|Usage=FLASHONLY|Rotation=90.000|XOffset=0mil|YOffset=0mil|HoleType=Round|Shape=RoundedRectangle|*
%AMROUNDEDRECTD45*
21,1,0.0974,0.0000,0,0,90.0*
21,1,0.0729,0.0245,0,0,90.0*
1,1,0.0245,0.0000,0.0365*
1,1,0.0245,0.0000,-0.0365*
1,1,0.0245,0.0000,-0.0365*
1,1,0.0245,0.0000,0.0365*
%
%ADD45ROUNDEDRECTD45*%
%ADD46R,0.0245X0.0974*%
%ADD47R,0.0531X0.0374*%
G04:AMPARAMS|DCode=48|XSize=17.7mil|YSize=51.2mil|CornerRadius=4.4mil|HoleSize=0mil|Usage=FLASHONLY|Rotation=180.000|XOffset=0mil|YOffset=0mil|HoleType=Round|Shape=RoundedRectangle|*
%AMROUNDEDRECTD48*
21,1,0.0177,0.0423,0,0,180.0*
21,1,0.0089,0.0512,0,0,180.0*
1,1,0.0089,-0.0044,0.0212*
1,1,0.0089,0.0044,0.0212*
1,1,0.0089,0.0044,-0.0212*
1,1,0.0089,-0.0044,-0.0212*
%
%ADD48ROUNDEDRECTD48*%
G04:AMPARAMS|DCode=49|XSize=17.7mil|YSize=51.2mil|CornerRadius=4.4mil|HoleSize=0mil|Usage=FLASHONLY|Rotation=180.000|XOffset=0mil|YOffset=0mil|HoleType=Round|Shape=RoundedRectangle|*
%AMROUNDEDRECTD49*
21,1,0.0177,0.0423,0,0,180.0*
21,1,0.0089,0.0512,0,0,180.0*
1,1,0.0089,-0.0044,0.0212*
1,1,0.0089,0.0044,0.0212*
1,1,0.0089,0.0044,-0.0212*
1,1,0.0089,-0.0044,-0.0212*
%
%ADD49ROUNDEDRECTD49*%
%ADD50R,0.0283X0.0299*%
%ADD51R,0.1358X0.1358*%
%ADD52R,0.0299X0.0283*%
%ADD53R,0.0354X0.0295*%
%ADD54R,0.0472X0.0571*%
%ADD55R,0.0398X0.0476*%
%ADD56R,0.0374X0.0531*%
%ADD57R,0.0217X0.0236*%
%ADD58R,0.0748X0.1024*%
%ADD59R,0.0177X0.0177*%
%ADD60R,0.0220X0.0205*%
%ADD61R,0.0276X0.0256*%
%ADD62R,0.0551X0.0394*%
%ADD63C,0.0200*%
%ADD64C,0.0260*%
%ADD65C,0.0700*%
%ADD66C,0.1181*%
%ADD67C,0.0591*%
%ADD68C,0.0551*%
%ADD69R,0.0551X0.0551*%
%ADD70C,0.0617*%
%ADD71R,0.0617X0.0617*%
%ADD72C,0.0300*%
%ADD73C,0.0450*%
%ADD74C,0.0220*%
G36*
X23774Y18943D02*
X22424D01*
Y21943D01*
X23774D01*
Y18943D01*
D02*
G37*
G36*
X23749Y24425D02*
X22449D01*
Y27475D01*
X23749D01*
Y24425D01*
D02*
G37*
G36*
X40883Y34547D02*
Y31266D01*
X40845Y31233D01*
X40840Y31238D01*
X39841D01*
Y31964D01*
X39841Y32012D01*
X39833Y32020D01*
X39816Y32004D01*
X39791Y32004D01*
X35146D01*
Y34546D01*
X35192Y34592D01*
X40883Y34547D01*
D02*
G37*
G36*
X41320Y34239D02*
X41339Y34193D01*
X41338Y34192D01*
X41300Y34100D01*
X41800D01*
X41765Y34183D01*
X41786Y34233D01*
X41943Y34231D01*
X41943Y34231D01*
Y31392D01*
X41124D01*
X41082Y31412D01*
Y34207D01*
X41118Y34242D01*
X41320Y34239D01*
D02*
G37*
%LPC*%
G36*
X23552Y21760D02*
X23149D01*
Y20493D01*
X23674D01*
Y21639D01*
X23664Y21685D01*
X23638Y21724D01*
X23599Y21751D01*
X23552Y21760D01*
D02*
G37*
G36*
X23049D02*
X22645D01*
X22599Y21751D01*
X22560Y21724D01*
X22533Y21685D01*
X22524Y21639D01*
Y20493D01*
X23049D01*
Y21760D01*
D02*
G37*
G36*
X23674Y20393D02*
X23149D01*
Y19126D01*
X23552D01*
X23599Y19135D01*
X23638Y19162D01*
X23664Y19201D01*
X23674Y19247D01*
Y20393D01*
D02*
G37*
G36*
X23049D02*
X22524D01*
Y19247D01*
X22533Y19201D01*
X22560Y19162D01*
X22599Y19135D01*
X22645Y19126D01*
X23049D01*
Y20393D01*
D02*
G37*
G36*
X23552Y27267D02*
X23149D01*
Y26000D01*
X23674D01*
Y27146D01*
X23664Y27192D01*
X23638Y27231D01*
X23599Y27258D01*
X23552Y27267D01*
D02*
G37*
G36*
X23049D02*
X22645D01*
X22599Y27258D01*
X22560Y27231D01*
X22533Y27192D01*
X22524Y27146D01*
Y26000D01*
X23049D01*
Y27267D01*
D02*
G37*
G36*
X23674Y25900D02*
X23149D01*
Y24633D01*
X23552D01*
X23599Y24642D01*
X23638Y24669D01*
X23664Y24708D01*
X23674Y24754D01*
Y25900D01*
D02*
G37*
G36*
X23049D02*
X22524D01*
Y24754D01*
X22533Y24708D01*
X22560Y24669D01*
X22599Y24642D01*
X22645Y24633D01*
X23049D01*
Y25900D01*
D02*
G37*
G36*
X35740Y34194D02*
Y34016D01*
X35919D01*
X35885Y34097D01*
X35821Y34161D01*
X35740Y34194D01*
D02*
G37*
G36*
X35640D02*
X35560Y34161D01*
X35495Y34097D01*
X35462Y34016D01*
X35640D01*
Y34194D01*
D02*
G37*
G36*
X36678Y34144D02*
Y33966D01*
X36857D01*
X36823Y34047D01*
X36759Y34111D01*
X36678Y34144D01*
D02*
G37*
G36*
X36578D02*
X36498Y34111D01*
X36433Y34047D01*
X36400Y33966D01*
X36578D01*
Y34144D01*
D02*
G37*
G36*
X35919Y33916D02*
X35740D01*
Y33738D01*
X35821Y33771D01*
X35885Y33836D01*
X35919Y33916D01*
D02*
G37*
G36*
X35640D02*
X35462D01*
X35495Y33836D01*
X35560Y33771D01*
X35640Y33738D01*
Y33916D01*
D02*
G37*
G36*
X36857Y33866D02*
X36678D01*
Y33688D01*
X36759Y33721D01*
X36823Y33786D01*
X36857Y33866D01*
D02*
G37*
G36*
X36578D02*
X36400D01*
X36433Y33786D01*
X36498Y33721D01*
X36578Y33688D01*
Y33866D01*
D02*
G37*
G36*
X39698Y34184D02*
X38565D01*
Y33543D01*
X39698D01*
Y34184D01*
D02*
G37*
G36*
X38465D02*
X37332D01*
Y33543D01*
X38465D01*
Y34184D01*
D02*
G37*
G36*
X40799Y33809D02*
X40572D01*
Y33385D01*
X40799D01*
Y33809D01*
D02*
G37*
G36*
X40472D02*
X40245D01*
Y33385D01*
X40472D01*
Y33809D01*
D02*
G37*
G36*
X35737Y33258D02*
Y33058D01*
X35937D01*
X35899Y33150D01*
X35828Y33220D01*
X35737Y33258D01*
D02*
G37*
G36*
X35637D02*
X35545Y33220D01*
X35475Y33150D01*
X35437Y33058D01*
X35637D01*
Y33258D01*
D02*
G37*
G36*
X36643Y33201D02*
Y33023D01*
X36821D01*
X36788Y33103D01*
X36723Y33168D01*
X36643Y33201D01*
D02*
G37*
G36*
X36543D02*
X36462Y33168D01*
X36398Y33103D01*
X36365Y33023D01*
X36543D01*
Y33201D01*
D02*
G37*
G36*
X40799Y33285D02*
X40572D01*
Y32861D01*
X40799D01*
Y33285D01*
D02*
G37*
G36*
X40472D02*
X40245D01*
Y32861D01*
X40472D01*
Y33285D01*
D02*
G37*
G36*
X39698Y33443D02*
X38565D01*
Y32803D01*
X39698D01*
Y33443D01*
D02*
G37*
G36*
X38465D02*
X37332D01*
Y32803D01*
X38465D01*
Y33443D01*
D02*
G37*
G36*
X35937Y32958D02*
X35737D01*
Y32758D01*
X35828Y32796D01*
X35899Y32867D01*
X35937Y32958D01*
D02*
G37*
G36*
X35637D02*
X35437D01*
X35475Y32867D01*
X35545Y32796D01*
X35637Y32758D01*
Y32958D01*
D02*
G37*
G36*
X36821Y32923D02*
X36643D01*
Y32744D01*
X36723Y32778D01*
X36788Y32842D01*
X36821Y32923D01*
D02*
G37*
G36*
X36543D02*
X36365D01*
X36398Y32842D01*
X36462Y32778D01*
X36543Y32744D01*
Y32923D01*
D02*
G37*
G36*
X40822Y32666D02*
X40595D01*
Y32242D01*
X40822D01*
Y32666D01*
D02*
G37*
G36*
X40495D02*
X40268D01*
Y32242D01*
X40495D01*
Y32666D01*
D02*
G37*
G36*
X40822Y32142D02*
X40595D01*
Y31718D01*
X40822D01*
Y32142D01*
D02*
G37*
G36*
X40495D02*
X40268D01*
Y31718D01*
X40495D01*
Y32142D01*
D02*
G37*
G36*
X41800Y34000D02*
X41300D01*
X41338Y33908D01*
X41388Y33859D01*
X41367Y33809D01*
X41308D01*
Y33385D01*
X41585D01*
X41862D01*
Y33809D01*
X41733D01*
X41712Y33859D01*
X41762Y33908D01*
X41800Y34000D01*
D02*
G37*
G36*
X41862Y33285D02*
X41635D01*
Y32861D01*
X41862D01*
Y33285D01*
D02*
G37*
G36*
X41535D02*
X41308D01*
Y32861D01*
X41535D01*
Y33285D01*
D02*
G37*
G36*
X41885Y32666D02*
X41658D01*
Y32242D01*
X41885D01*
Y32666D01*
D02*
G37*
G36*
X41558D02*
X41331D01*
Y32242D01*
X41558D01*
Y32666D01*
D02*
G37*
G36*
X41885Y32142D02*
X41658D01*
Y31718D01*
X41885D01*
Y32142D01*
D02*
G37*
G36*
X41558D02*
X41331D01*
Y31718D01*
X41558D01*
Y32142D01*
D02*
G37*
%LPD*%
D13*
X44938Y22740D02*
X45424Y22255D01*
X44900Y22850D02*
X44938Y22812D01*
Y22740D02*
Y22812D01*
X44018Y23184D02*
X44797Y22406D01*
X44400Y20900D02*
Y22590D01*
X42438Y22987D02*
X44003D01*
X44797Y22406D02*
Y22406D01*
X42438Y23184D02*
X44018D01*
X44003Y22987D02*
X44400Y22590D01*
X44797Y22406D02*
X45477Y21725D01*
X45375Y19925D02*
X45639D01*
X44400Y20900D02*
X45375Y19925D01*
X35047Y21048D02*
Y21198D01*
X34431Y21469D02*
X34776D01*
X35047Y21198D01*
Y21048D02*
X35145Y20950D01*
X34400Y21500D02*
X34431Y21469D01*
X34400Y21543D02*
X34542Y21685D01*
X34400Y21500D02*
Y21543D01*
X34148Y21376D02*
Y22105D01*
Y21376D02*
X34555Y20970D01*
Y20950D02*
Y20970D01*
X34392Y21635D02*
Y21901D01*
Y21635D02*
X34427Y21600D01*
X25127Y20827D02*
X25246Y20946D01*
X25253Y20953D02*
X25879D01*
X25889Y20955D02*
X25900D01*
X25309Y20609D02*
X26609D01*
X25015Y20315D02*
X25309Y20609D01*
X26609D02*
X26706Y20706D01*
X24300Y20315D02*
X25015D01*
X24910Y20610D02*
X25127Y20827D01*
X24300D02*
X25127D01*
X24338Y20610D02*
X24910D01*
X26172Y30021D02*
X27709Y31558D01*
X25165Y29013D02*
X26172Y30019D01*
X25165Y27178D02*
Y29013D01*
X27709Y31558D02*
X27813D01*
X27950Y31695D01*
X35596Y22350D02*
X35650D01*
X34995Y22511D02*
X35435D01*
X35596Y22350D01*
X35488Y23692D02*
X35596Y23800D01*
X34995Y23692D02*
X35488D01*
X35596Y23800D02*
X35650D01*
X35328Y25250D02*
X36150D01*
X34750Y24094D02*
Y24702D01*
X35303Y25255D02*
X35323D01*
X34750Y24702D02*
X35303Y25255D01*
X35323D02*
X35328Y25250D01*
X44416Y24016D02*
Y24630D01*
X44333Y23720D02*
Y23933D01*
X44416Y24016D01*
X44191Y23578D02*
X44333Y23720D01*
X33574Y25028D02*
Y25401D01*
X33723Y25550D01*
X33400Y24854D02*
X33574Y25028D01*
X33400Y24800D02*
Y24854D01*
X44421Y31300D02*
X44500D01*
X43900Y31800D02*
X43921D01*
X44421Y31300D01*
X43850Y25784D02*
Y26513D01*
X43300Y27000D02*
X43331Y26969D01*
X43394D02*
X43850Y26513D01*
X43525Y25521D02*
X44416Y24630D01*
X43331Y26969D02*
X43394D01*
X43178Y25521D02*
X43525D01*
X43700Y24055D02*
Y24550D01*
X43645Y24000D02*
X43700Y24055D01*
X43555Y25050D02*
X43613Y24992D01*
Y24913D02*
Y24992D01*
X43676Y24574D02*
Y24850D01*
X43476Y25050D02*
X43555D01*
X43613Y24913D02*
X43676Y24850D01*
Y24574D02*
X43700Y24550D01*
X34523Y26650D02*
X34885Y26287D01*
X34523Y26650D02*
X34525Y26653D01*
X34054Y26181D02*
X34523Y26650D01*
X33723Y26181D02*
X34054D01*
X18159Y17589D02*
X18217Y17530D01*
X44938Y19440D02*
X45424Y18955D01*
X44938Y19440D02*
Y19504D01*
X44900Y19542D02*
X44938Y19504D01*
X45424Y18925D02*
Y18955D01*
X44938Y21040D02*
Y21104D01*
X44900Y21142D02*
X44938Y21104D01*
X45424Y20525D02*
Y20555D01*
X44938Y21040D02*
X45424Y20555D01*
Y22225D02*
Y22255D01*
X45639Y19925D02*
X45989Y19575D01*
X46650D01*
X45876Y18925D02*
X46650D01*
X45876Y20525D02*
X46650D01*
X46100Y21725D02*
X46650Y21175D01*
X45477Y21725D02*
X46100D01*
X46550Y22225D02*
X46650Y22125D01*
X45876Y22225D02*
X46550D01*
X42438Y23381D02*
X46044D01*
X46650Y22775D01*
X18256Y19744D02*
X19088Y18912D01*
X20937D01*
X15456Y19744D02*
X18256D01*
X17100Y18850D02*
X18388D01*
X18475Y18762D02*
X21037D01*
X18388Y18850D02*
X18475Y18762D01*
X14850Y19744D02*
X15456D01*
X17670Y17530D02*
X18100D01*
X15456Y19744D02*
X17670Y17530D01*
X20937Y18912D02*
X21033Y19009D01*
Y19783D01*
X21037Y18762D02*
X21183Y18909D01*
X21099Y18612D02*
X21333Y18847D01*
X21145Y18446D02*
X21483Y18785D01*
X20972Y18446D02*
X21145D01*
X21333Y18847D02*
Y19260D01*
X21183Y18909D02*
Y19553D01*
X20185Y18367D02*
X20430Y18612D01*
X21483Y18785D02*
Y19154D01*
X20430Y18612D02*
X21099D01*
X19842Y19229D02*
X19870Y19200D01*
X19480Y19621D02*
X19500D01*
X19870Y19200D02*
X20440D01*
X19520Y19621D02*
X19842Y19299D01*
Y19229D02*
Y19299D01*
X15069Y15547D02*
X17497D01*
X18100Y16150D01*
X21033Y19783D02*
X21271Y20021D01*
X21433Y19803D02*
X21898D01*
X21183Y19553D02*
X21433Y19803D01*
X21483Y19154D02*
X21582Y19253D01*
X21333Y19260D02*
X21582Y19509D01*
X21860D01*
X20904Y18378D02*
X20972Y18446D01*
X21271Y20021D02*
X21860D01*
X20904Y18122D02*
Y18378D01*
X21582Y19253D02*
X21860D01*
X20341Y20104D02*
X20500Y19944D01*
X19520Y20211D02*
X19627Y20104D01*
X20341D01*
X14850Y28012D02*
X17243D01*
X27450Y14776D02*
X27771Y14455D01*
X26200Y17750D02*
X27450Y16500D01*
Y14776D02*
Y16500D01*
X25627Y18323D02*
X26200Y17750D01*
X25122Y19196D02*
X25627Y18691D01*
Y18323D02*
Y18691D01*
X15069Y15547D02*
X15840Y16318D01*
X16758D01*
X44421Y30473D02*
X44500D01*
X43413Y30702D02*
X44193D01*
X44421Y30473D01*
X43413Y31450D02*
Y32719D01*
X43487Y32794D01*
X42448Y31076D02*
X42604Y31232D01*
X42385Y32041D02*
X42667Y31759D01*
X42385Y32041D02*
Y32794D01*
X42667Y31290D02*
Y31759D01*
X42608Y31232D02*
X42667Y31290D01*
X42604Y31232D02*
X42608D01*
X42350Y31076D02*
X42448D01*
X38515Y29753D02*
X39007D01*
X43280Y29718D02*
X43316Y29682D01*
X44846D01*
X42448Y30702D02*
X42531Y30620D01*
X42350Y30702D02*
X42448D01*
X42531Y29718D02*
Y30620D01*
X42404Y30756D02*
X42717D01*
X42350Y30702D02*
X42404Y30756D01*
X43032Y31072D02*
X43413D01*
X42717Y30756D02*
X43032Y31072D01*
X44500Y30473D02*
X45877D01*
X45900Y30496D01*
X33229Y17303D02*
X33250D01*
Y17210D02*
Y17237D01*
X33061Y17471D02*
X33229Y17303D01*
X33043Y17003D02*
X33250Y17210D01*
X41788Y34124D02*
X41805Y34107D01*
X40773Y34454D02*
X40876Y34558D01*
X43425D01*
X45900Y31304D02*
Y32083D01*
X43425Y34558D02*
X45900Y32083D01*
X43413Y31450D02*
X43511D01*
X23912Y17750D02*
X24356Y18194D01*
X23986Y18036D02*
X24541Y18591D01*
X23073Y17788D02*
X23321Y18036D01*
X23883Y17750D02*
X23912D01*
X23321Y18036D02*
X23986D01*
X23883Y16996D02*
Y17750D01*
X23855Y18221D02*
X24233Y18600D01*
X22721Y18221D02*
X23855D01*
X22250Y17750D02*
X22721Y18221D01*
X16695Y21633D02*
X16749D01*
X16656Y21594D02*
X16695Y21633D01*
X17261Y22144D02*
Y22194D01*
X16749Y21633D02*
X17261Y22144D01*
X16727Y17018D02*
Y17617D01*
Y17018D02*
X16758Y16987D01*
X18600Y22333D02*
X19793D01*
X17939D02*
X18600D01*
X17842Y22235D02*
Y22243D01*
Y22194D02*
Y22235D01*
X17464Y22620D02*
X17842Y22243D01*
X16811Y23117D02*
Y23205D01*
Y23117D02*
X17307Y22620D01*
X17464D01*
X18269Y23205D02*
X18551Y22923D01*
X18600D01*
X17776Y23205D02*
X18269D01*
X17845Y24149D02*
X17949Y24045D01*
X17845Y24149D02*
Y24154D01*
X17949Y24045D02*
X18600D01*
X17842Y22235D02*
X17939Y22333D01*
X16945Y22500D02*
X17251Y22194D01*
X18600Y24045D02*
X18849D01*
X18091Y21417D02*
X18943D01*
X17845Y21171D02*
X18091Y21417D01*
X17845Y21122D02*
Y21171D01*
X14850Y21122D02*
X17233D01*
X17255Y21100D01*
X14850Y22500D02*
X16945D01*
X18368Y20062D02*
Y20109D01*
X18998Y20739D01*
X27771Y14455D02*
X27850D01*
X29367Y14935D02*
X29387Y14915D01*
X29007Y15295D02*
X29367Y14935D01*
X27900Y15295D02*
X29007D01*
X25122Y19196D02*
Y19259D01*
X24616Y19765D02*
X25122Y19259D01*
X24338Y19765D02*
X24616D01*
X24300Y19803D02*
X24338Y19765D01*
X21898Y19036D02*
X21937Y19074D01*
X27870Y18095D02*
X27900D01*
X27088Y18877D02*
X27870Y18095D01*
X20826Y17526D02*
X21600Y18301D01*
Y18350D01*
X20826Y17477D02*
Y17526D01*
X20406Y17624D02*
X20904Y18122D01*
X20333Y17624D02*
X20406D01*
X20235Y17526D02*
X20333Y17624D01*
X20235Y17477D02*
Y17526D01*
X21860Y20021D02*
X21898Y20059D01*
X21860Y19253D02*
X21898Y19291D01*
X21860Y19509D02*
X21898Y19547D01*
X28973Y25521D02*
X29372Y25920D01*
X28077Y25521D02*
X28973D01*
X27088Y18877D02*
Y19012D01*
X27050Y19050D02*
X27088Y19012D01*
X27194Y13221D02*
Y13537D01*
X27820Y12595D02*
X27850D01*
X27194Y13221D02*
X27820Y12595D01*
X29367Y14935D02*
Y15724D01*
X29347Y15744D02*
X29367Y15724D01*
X27050Y19050D02*
X27345Y19345D01*
X28050D01*
X25165Y21483D02*
Y21954D01*
X27712Y21082D02*
Y21634D01*
X27831Y21753D02*
Y22104D01*
X27685Y22250D02*
X27831Y22104D01*
X25461Y22250D02*
X27685D01*
X27999Y20795D02*
X28077D01*
X25165Y21954D02*
X25461Y22250D01*
X27712Y21082D02*
X27999Y20795D01*
X24765Y21083D02*
X25165Y21483D01*
X27712Y21634D02*
X27831Y21753D01*
X24300Y21083D02*
X24765D01*
X24300Y26078D02*
X25191D01*
X25617Y26505D02*
X25900D01*
X25191Y26078D02*
X25617Y26505D01*
X25557Y26828D02*
X25880Y26505D01*
X25557Y26828D02*
Y27313D01*
X24300Y26334D02*
X24338Y26372D01*
X24616D02*
X25557Y27313D01*
Y27952D01*
X24338Y26372D02*
X24616D01*
Y26628D02*
X25165Y27178D01*
X26027Y27421D02*
X26226Y27620D01*
X26250Y27595D02*
Y27644D01*
X26027Y27203D02*
Y27421D01*
X26250Y27644D02*
X26317Y27711D01*
X26250Y27595D02*
X26623Y27222D01*
Y27203D02*
Y27222D01*
X26025Y27201D02*
X26027Y27203D01*
X25775Y27201D02*
X26025D01*
X25415Y21420D02*
X25880Y20955D01*
X25415Y21420D02*
Y21850D01*
X33558Y24233D02*
Y24265D01*
X33150Y24673D02*
X33558Y24265D01*
X33150Y24673D02*
Y29900D01*
X19629Y24821D02*
X19900Y24550D01*
X19627Y24890D02*
X19629Y24889D01*
Y24821D02*
Y24889D01*
X19627Y24890D02*
Y24947D01*
Y26963D02*
Y27016D01*
X19520Y26856D02*
X19627Y26963D01*
Y27016D02*
X19900Y27289D01*
X19500Y26856D02*
X19520D01*
X19800Y27300D02*
X20426D01*
X19480Y26856D02*
X19520D01*
X19491Y25044D02*
X19530D01*
X19627Y24947D01*
X19900Y24550D02*
X20376D01*
X14850Y23878D02*
X16980D01*
X17261Y24159D01*
X14850Y25256D02*
X17255D01*
X17255Y25256D01*
X14850Y26634D02*
X17221D01*
X17255Y26600D01*
X17243Y28012D02*
X17255Y28000D01*
X25384Y24949D02*
X25762Y24571D01*
X24300Y25310D02*
X24732D01*
X27418Y25714D02*
X27999Y26295D01*
X27418Y25015D02*
Y25714D01*
X26975Y24571D02*
X27418Y25015D01*
X25762Y24571D02*
X26975D01*
X25384Y24949D02*
Y25000D01*
X25007Y25378D02*
X25384Y25000D01*
X24800Y25378D02*
X25007D01*
X27999Y26295D02*
X28077D01*
X24732Y25310D02*
X24800Y25378D01*
X27334Y29381D02*
X27870Y28845D01*
X27334Y29381D02*
Y29762D01*
X27870Y28845D02*
X27900D01*
X27334Y29762D02*
X27373Y29800D01*
X27771Y30278D02*
X27850D01*
X27373Y29879D02*
X27771Y30278D01*
X27373Y29800D02*
Y29879D01*
X24300Y26590D02*
X24338Y26628D01*
X24616D01*
X20350Y27949D02*
X20467Y27833D01*
X20133Y28167D02*
X20217D01*
X19972Y28033D02*
X20105Y28167D01*
X20217D02*
X20350Y28033D01*
X20133Y28167D02*
Y28271D01*
X19972Y27892D02*
Y28033D01*
X20350Y27949D02*
Y28033D01*
X18600Y27833D02*
X19913D01*
X20105Y28167D02*
X20133D01*
X19913Y27833D02*
X19972Y27892D01*
X20467Y27833D02*
X20863D01*
X22124Y27102D02*
X22192Y27169D01*
X21795Y28658D02*
X22313Y28141D01*
X21898Y27102D02*
X22124D01*
X22192Y27169D02*
X22243D01*
X22313Y27239D01*
Y28141D01*
X19824Y28658D02*
X21795D01*
X19589Y28423D02*
X19824Y28658D01*
X18600Y28423D02*
X19589D01*
X37039Y17486D02*
X38530D01*
X39896Y18852D01*
X36881Y17486D02*
X37039D01*
X39896Y18852D02*
Y19855D01*
X39702Y19094D02*
Y19857D01*
X39349Y18741D02*
X39702Y19094D01*
X30500Y18350D02*
Y18713D01*
X30487Y18726D02*
X30500Y18713D01*
X36820Y18382D02*
X36821Y18383D01*
X38102D01*
X37104Y18663D02*
X38170D01*
X38239Y18945D02*
X38865Y19570D01*
X36781Y18945D02*
X38239D01*
X38170Y18663D02*
X39065Y19557D01*
Y19617D02*
X39111Y19664D01*
X39065Y19557D02*
Y19617D01*
X39111Y19664D02*
Y19857D01*
X38915Y19664D02*
Y19857D01*
X38865Y19615D02*
X38915Y19664D01*
X38865Y19570D02*
Y19615D01*
X37107Y19226D02*
X37739Y19857D01*
X37104Y19226D02*
X37107D01*
X37739Y19857D02*
X38718D01*
X37950Y20281D02*
Y20625D01*
X36781Y19507D02*
X37177D01*
X37950Y20281D01*
X37080Y19851D02*
X37104D01*
X37107Y19788D02*
X37579Y20260D01*
Y20689D02*
X37663Y20772D01*
X37104Y19788D02*
X37107D01*
X37579Y20260D02*
Y20689D01*
X37663Y20772D02*
X37707D01*
X37757Y20822D01*
X37950D01*
X36781Y20033D02*
X36800Y20052D01*
X36813Y20101D02*
X37208D01*
X37429Y20322D01*
Y20751D02*
X37650Y20972D01*
X37710D02*
X37757Y21019D01*
X37650Y20972D02*
X37710D01*
X36781Y20070D02*
X36813Y20101D01*
X37429Y20322D02*
Y20751D01*
X37757Y21019D02*
X37950D01*
X37117Y20363D02*
Y20651D01*
X37679Y21213D01*
X37104Y20351D02*
X37117Y20363D01*
X37679Y21213D02*
X37947D01*
X37950Y21216D01*
X37468Y21320D02*
X37558Y21410D01*
X37414Y21320D02*
X37468D01*
X37558Y21410D02*
X37754D01*
X37063Y21596D02*
Y21613D01*
X36702Y21602D02*
X37057D01*
X37472Y22003D02*
X37754D01*
X37229Y21760D02*
X37472Y22003D01*
X36256Y21910D02*
X37167D01*
X35866Y22060D02*
X37104D01*
X37394Y22350D01*
X37063Y21613D02*
X37210Y21760D01*
X37057Y21602D02*
X37063Y21596D01*
X37167Y21910D02*
X37456Y22200D01*
X37589Y21612D02*
X37947D01*
X37485Y21662D02*
X37539D01*
X37589Y21612D01*
X37947D02*
X37950Y21609D01*
X36700Y21600D02*
X36702Y21602D01*
X37210Y21760D02*
X37229D01*
X37394Y22350D02*
X37710D01*
X37456Y22200D02*
X37950D01*
X36704Y21000D02*
X36823Y21119D01*
X36975D01*
X37063Y21207D01*
X36700Y21000D02*
X36704D01*
X38557Y23750D02*
X38912Y24105D01*
Y24343D01*
X36900Y23750D02*
X38557D01*
X38912Y24343D02*
X38915Y24346D01*
X37994Y24591D02*
X38529D01*
X36475Y24075D02*
X37478D01*
X37994Y24591D01*
X36875Y23725D02*
X36900Y23750D01*
X36450Y24050D02*
X36475Y24075D01*
X38529Y24591D02*
X38629Y24692D01*
X38400Y24900D02*
X39007D01*
X29462Y18800D02*
X29500Y18761D01*
X29141Y18769D02*
Y19060D01*
Y18769D02*
X29150Y18760D01*
X29462Y18800D02*
Y19038D01*
X39440Y19193D02*
Y19247D01*
X39505Y19311D02*
Y19857D01*
X39440Y19247D02*
X39505Y19311D01*
X39896Y19855D02*
X39899Y19857D01*
X29091Y19110D02*
Y19598D01*
Y19110D02*
X29141Y19060D01*
X29347Y19153D02*
X29462Y19038D01*
X29626Y18276D02*
X29787Y18437D01*
Y18698D01*
X29875Y18786D02*
Y19159D01*
X29787Y18698D02*
X29875Y18786D01*
X38102Y18383D02*
X39306Y19586D01*
X26668Y19432D02*
X27050Y19050D01*
X26100Y19432D02*
X26668D01*
X26727Y25723D02*
X27050Y25400D01*
X26110Y25723D02*
X26727D01*
X25848Y25700D02*
X26100D01*
X25714Y25566D02*
X25848Y25700D01*
X24300Y25566D02*
X25714D01*
X26192Y24850D02*
X26900D01*
X26100Y24942D02*
X26192Y24850D01*
X34523Y25816D02*
Y26650D01*
X27521Y21650D02*
X27543Y21672D01*
X27521Y20259D02*
Y21650D01*
X27543Y21672D02*
Y21962D01*
X27581Y22000D01*
X29735Y32318D02*
Y32648D01*
X29616Y32199D02*
X29735Y32318D01*
X29616Y33214D02*
X29626Y33223D01*
X29616Y32019D02*
Y32199D01*
X29400Y32276D02*
X29447Y32323D01*
Y32506D01*
X29485Y32544D01*
X29616Y32767D02*
Y33214D01*
Y32767D02*
X29735Y32648D01*
X28848Y32672D02*
Y33214D01*
X28835Y32019D02*
Y32187D01*
X28838Y33223D02*
X28848Y33214D01*
X29018Y32489D02*
X29055Y32452D01*
Y32056D02*
X29091Y32019D01*
X28768Y32254D02*
X28835Y32187D01*
X28768Y32592D02*
X28848Y32672D01*
X29055Y32056D02*
Y32452D01*
X28768Y32254D02*
Y32592D01*
X29344Y32016D02*
X29347Y32019D01*
X32159Y24450D02*
X32917Y23692D01*
X32092Y24458D02*
Y24766D01*
Y24458D02*
X32100Y24450D01*
X32800Y24194D02*
Y24650D01*
X32550Y24900D02*
X32800Y24650D01*
X32100Y24450D02*
X32159D01*
X31975Y24884D02*
X32092Y24766D01*
X32175Y24966D02*
X32234Y24908D01*
X32542D01*
X31975Y24884D02*
Y25190D01*
X32542Y24908D02*
X32550Y24900D01*
X32175Y24966D02*
Y25107D01*
X31975Y25190D02*
X32218Y25432D01*
X32175Y25107D02*
X32418Y25350D01*
X32800Y24194D02*
X33105Y23889D01*
X41479Y25071D02*
X41818Y24733D01*
X40096Y24152D02*
X40145Y24103D01*
X41471Y25071D02*
X41479D01*
X41818Y24058D02*
Y24733D01*
X41759Y24000D02*
X41818Y24058D01*
X40145D02*
X40204Y24000D01*
X40145Y24058D02*
Y24103D01*
X40204Y24000D02*
X41759D01*
X40096Y24152D02*
Y24346D01*
X27900Y29455D02*
X27930D01*
X28231Y29756D01*
X28397D02*
X28426Y29785D01*
X28231Y29756D02*
X28397D01*
X29105Y29785D02*
X29131Y29760D01*
X29105Y29785D02*
Y30352D01*
X29386Y30100D02*
X29560Y29926D01*
X29347Y30366D02*
X29386Y30327D01*
Y30100D02*
Y30327D01*
X29560Y29872D02*
Y29926D01*
X29603Y30198D02*
Y30366D01*
Y30198D02*
X29617Y30185D01*
X29636D02*
X29835Y29986D01*
Y29684D02*
Y29986D01*
X29787Y29636D02*
X29835Y29684D01*
X29626Y29123D02*
X29787Y29285D01*
X29617Y30185D02*
X29636D01*
X29787Y29285D02*
Y29636D01*
X28848Y29133D02*
Y29753D01*
X28849Y30185D02*
Y30413D01*
X28822Y30440D02*
X28849Y30413D01*
X29091Y30366D02*
X29105Y30352D01*
X28849Y30185D02*
X28855Y30179D01*
Y29760D02*
Y30179D01*
X28848Y29753D02*
X28855Y29760D01*
X29386Y24802D02*
X29535Y24652D01*
X29347Y25098D02*
X29386Y25059D01*
Y24802D02*
Y25059D01*
X29535Y24598D02*
Y24652D01*
X29612Y24921D02*
Y25098D01*
X29810Y24484D02*
Y24723D01*
X29612Y24286D02*
X29810Y24484D01*
X29612Y23847D02*
Y24286D01*
Y24921D02*
X29810Y24723D01*
X29091Y24486D02*
Y25098D01*
Y24486D02*
X29237Y24341D01*
Y24300D02*
Y24341D01*
X23067Y17750D02*
Y17795D01*
Y16996D02*
Y17750D01*
X24356Y18194D02*
X24459D01*
X24865Y18599D01*
X24715Y18661D02*
Y18898D01*
X24541Y18591D02*
X24645D01*
X24715Y18661D01*
X23883Y16996D02*
X23884Y16995D01*
X24233Y18600D02*
Y18741D01*
X24272Y18780D02*
X24300D01*
X24233Y18741D02*
X24272Y18780D01*
X23067Y17795D02*
X23073Y17788D01*
X23067Y16996D02*
X23067Y16995D01*
X30028Y16257D02*
X30269Y16498D01*
X30372D01*
X30455Y16580D01*
X30028Y16257D02*
X30028D01*
X30455Y16580D02*
Y16600D01*
X32808Y21397D02*
X33358Y21946D01*
X32722Y17332D02*
X32861Y17471D01*
X32661Y17332D02*
X32722D01*
X33061Y17471D02*
Y17673D01*
X32808Y17643D02*
X32861Y17590D01*
X33008Y21314D02*
X33558Y21863D01*
X33008Y17726D02*
X33061Y17673D01*
X33008Y17726D02*
Y21314D01*
X32808Y17643D02*
Y21397D01*
X32861Y17471D02*
Y17590D01*
X32843Y15843D02*
Y16450D01*
X32195Y15195D02*
X32843Y15843D01*
X31750Y15195D02*
X32195D01*
X32110Y14800D02*
X33043Y15733D01*
Y17003D01*
X32840Y16453D02*
Y16963D01*
Y16453D02*
X32843Y16450D01*
X32661Y17142D02*
X32840Y16963D01*
X32661Y17142D02*
Y17237D01*
X33358Y21946D02*
Y22153D01*
X33558Y21863D02*
Y22255D01*
X32661Y17237D02*
Y17332D01*
X33700Y21650D02*
X33727Y21677D01*
X33700Y21377D02*
Y21650D01*
X33650Y21327D02*
X33700Y21377D01*
X33650Y21274D02*
Y21327D01*
X33305Y20929D02*
X33650Y21274D01*
X32489Y21698D02*
X32617Y21826D01*
X31990Y20829D02*
X32036D01*
X31991Y21217D02*
X32095Y21114D01*
X31882Y20721D02*
X31990Y20829D01*
X32100Y21830D02*
Y22156D01*
X32295Y20658D02*
Y21197D01*
X31991Y21722D02*
X32100Y21830D01*
X32191Y21300D02*
X32295Y21197D01*
X32191Y21300D02*
Y21639D01*
X32101Y20464D02*
X32295Y20658D01*
X32036Y20829D02*
X32095Y20887D01*
X31991Y21217D02*
Y21722D01*
X32191Y21639D02*
X32250Y21698D01*
X32489D01*
X32095Y20887D02*
Y21114D01*
X32158Y22214D02*
X32475D01*
X32972Y22711D01*
X32100Y22156D02*
X32158Y22214D01*
X32972Y22711D02*
X33022D01*
X32617Y22110D02*
X33018Y22511D01*
X32617Y21826D02*
Y22110D01*
X33018Y22511D02*
X33105D01*
X32550Y22900D02*
X32555Y22905D01*
X33105D01*
X32500Y23043D02*
X32559Y23102D01*
X32500Y22950D02*
X32550Y22900D01*
X32500Y22950D02*
Y23043D01*
X32559Y23102D02*
X33105D01*
X32008Y20464D02*
X32101D01*
X31882Y20338D02*
X32008Y20464D01*
X31882Y20131D02*
Y20338D01*
X31064Y19631D02*
X31563Y20131D01*
X31882D01*
X31064Y19626D02*
Y19631D01*
Y19626D02*
X31077Y19612D01*
Y18726D02*
Y19612D01*
X31775Y20829D02*
X31882Y20721D01*
X31064Y21326D02*
X31077Y21340D01*
Y22126D01*
X31064Y21321D02*
X31556Y20829D01*
X31775D01*
X31064Y21321D02*
Y21326D01*
X35176Y21731D02*
X35287D01*
X34739Y22168D02*
X35176Y21731D01*
Y21715D02*
Y21731D01*
X35287D02*
X35456Y21900D01*
X35706D01*
X34739Y22168D02*
Y22255D01*
X31775Y26312D02*
X31882Y26205D01*
X31556Y26312D02*
X31775D01*
X31902Y26205D02*
X32009Y26097D01*
X31882Y26205D02*
X31902D01*
X31064Y26809D02*
X31077Y26823D01*
Y27609D01*
X31064Y26804D02*
X31556Y26312D01*
X32068Y26009D02*
X32242D01*
X32009Y26068D02*
Y26097D01*
Y26068D02*
X32068Y26009D01*
X32242D02*
X32418Y25834D01*
Y25350D02*
Y25834D01*
X31064Y24264D02*
X31077Y24250D01*
X31064Y24264D02*
Y25109D01*
Y25115D01*
X31563Y25614D01*
X31882D02*
X31902D01*
X31563D02*
X31882D01*
X31902D02*
X32009Y25722D01*
Y25751D02*
X32068Y25809D01*
X32009Y25722D02*
Y25751D01*
X32218Y25432D02*
Y25751D01*
X32068Y25809D02*
X32159D01*
X32218Y25751D01*
X32917Y23692D02*
X33105D01*
X32552Y23298D02*
X33105D01*
X32555Y23495D02*
X33105D01*
X32496Y23354D02*
Y23437D01*
X32555Y23495D01*
X32496Y23354D02*
X32552Y23298D01*
X33361Y24145D02*
Y24179D01*
X32950Y24590D02*
X33361Y24179D01*
X32667Y29683D02*
Y29833D01*
X32950Y24590D02*
Y29400D01*
X32667Y29683D02*
X32950Y29400D01*
X32600Y29900D02*
X32667Y29833D01*
X32600Y29900D02*
Y30156D01*
X31077Y32005D02*
Y32923D01*
X31882Y30873D02*
X32600Y30156D01*
X31775Y30766D02*
X31882Y30873D01*
X31501Y30766D02*
X31775D01*
X31064Y30329D02*
X31501Y30766D01*
X31064Y30323D02*
Y30329D01*
Y29537D02*
Y30323D01*
Y29537D02*
X31077Y29523D01*
X33150Y29900D02*
Y30196D01*
X31882Y31464D02*
X33150Y30196D01*
X31775Y31572D02*
X31882Y31464D01*
X31510Y31572D02*
X31775D01*
X31077Y32005D02*
X31510Y31572D01*
X31936Y14800D02*
X32110D01*
X31877Y14741D02*
X31936Y14800D01*
X31877Y14712D02*
Y14741D01*
X31770Y14605D02*
X31877Y14712D01*
X31643Y14497D02*
X31750Y14605D01*
X31770D01*
X31424Y14497D02*
X31643D01*
X31032Y14105D02*
X31424Y14497D01*
X31032Y13264D02*
X31045Y13250D01*
X31032Y14100D02*
Y14105D01*
Y13264D02*
Y14100D01*
X33937Y24769D02*
Y24823D01*
X33754Y24146D02*
X33755Y24145D01*
Y24146D02*
Y24586D01*
X34148Y24468D02*
X34350Y24670D01*
X33754Y24146D02*
X33755Y24146D01*
X33952Y24145D02*
Y24484D01*
X34148Y24233D02*
Y24468D01*
X33755Y24586D02*
X33937Y24769D01*
X33952Y24484D02*
X34200Y24732D01*
X34538Y24466D02*
X34538Y24466D01*
X34538Y24374D02*
Y24466D01*
Y24374D02*
X34541Y24371D01*
Y24146D02*
Y24371D01*
X34393Y24280D02*
Y24305D01*
X34500Y24412D02*
Y24466D01*
X34393Y24305D02*
X34500Y24412D01*
X34345Y24232D02*
X34393Y24280D01*
X34200Y24732D02*
Y25034D01*
X34350Y24670D02*
Y25111D01*
X34541Y24146D02*
X34542Y24145D01*
X34345D02*
Y24232D01*
X34350Y25111D02*
X34435Y25196D01*
Y25206D02*
X34513Y25284D01*
X34435Y25196D02*
Y25206D01*
X33723Y25511D02*
X34200Y25034D01*
X34513Y25284D02*
X34523D01*
X33723Y25511D02*
Y25550D01*
X30971Y27971D02*
X31000Y28000D01*
X31032Y15745D02*
X31474Y15303D01*
X31643D01*
X31750Y15195D01*
X31032Y15745D02*
Y15750D01*
X31045Y15764D01*
Y16600D01*
X24700Y28345D02*
Y28950D01*
X23800Y15850D02*
Y16320D01*
X23450Y15500D02*
X23800Y15850D01*
Y16320D02*
X23884Y16405D01*
X23067Y15883D02*
X23412Y15538D01*
X22289Y16409D02*
X23161Y15538D01*
X22250Y16409D02*
X22289D01*
X23161Y15538D02*
X23412D01*
X23450Y15500D01*
X23753D01*
X24662Y16409D02*
X24702D01*
X23753Y15500D02*
X24662Y16409D01*
X23067Y15883D02*
Y16405D01*
X25015Y18065D02*
Y19022D01*
X24616Y19509D02*
X24972Y19153D01*
X24700Y17750D02*
X25015Y18065D01*
X24972Y19065D02*
X25015Y19022D01*
X24972Y19065D02*
Y19153D01*
X24338Y19509D02*
X24616D01*
X24700Y17002D02*
Y17750D01*
Y17002D02*
X24702Y17000D01*
X24865Y18599D02*
Y18960D01*
X24814Y19011D02*
X24865Y18960D01*
X24814Y19011D02*
Y19055D01*
X24338Y19253D02*
X24616D01*
X24814Y19055D01*
X24300Y19291D02*
X24338Y19253D01*
Y18997D02*
X24616D01*
X24715Y18898D01*
X24300Y19036D02*
X24338Y18997D01*
X22250Y17000D02*
Y17750D01*
X24700Y28345D02*
X25015Y28031D01*
X24616Y26884D02*
X25015Y27283D01*
Y28031D01*
X24338Y26884D02*
X24616D01*
X24300Y26846D02*
X24338Y26884D01*
X24700Y29803D02*
X24702Y29805D01*
X24700Y28950D02*
Y29803D01*
X24865Y27389D02*
Y27969D01*
X24616Y27140D02*
X24865Y27389D01*
X24489Y27140D02*
X24616D01*
X23883Y28950D02*
X24865Y27969D01*
X24450Y27102D02*
X24489Y27140D01*
X23883Y29804D02*
X23884Y29805D01*
X23883Y28950D02*
Y29804D01*
X23067Y28950D02*
X23497D01*
X24715Y27732D01*
X24616Y27396D02*
X24715Y27495D01*
Y27732D01*
X23067Y28950D02*
Y29804D01*
X23067Y29805D01*
X23587Y27613D02*
X24300D01*
X22250Y28950D02*
X23587Y27613D01*
X22250Y28950D02*
Y29805D01*
X24338Y27396D02*
X24616D01*
X24300Y27357D02*
X24338Y27396D01*
X30450Y28700D02*
X30468Y28718D01*
Y29505D01*
X30487Y27629D02*
X30829Y27971D01*
X30971D01*
X37600Y25800D02*
X38743D01*
X39896Y24647D01*
Y24348D02*
Y24647D01*
Y24348D02*
X39899Y24346D01*
X37850Y25500D02*
X38831D01*
X39699Y24632D01*
X38919Y25200D02*
X39502Y24617D01*
X39699Y24348D02*
Y24632D01*
X38150Y25200D02*
X38919D01*
X39699Y24348D02*
X39702Y24346D01*
X39007Y24900D02*
X39261Y24646D01*
X39502Y24348D02*
Y24617D01*
Y24348D02*
X39505Y24346D01*
X39261Y24586D02*
Y24646D01*
Y24586D02*
X39308Y24539D01*
Y24346D02*
Y24539D01*
X28375Y18705D02*
X28484Y18814D01*
X27900Y18705D02*
X28375D01*
X36249Y20546D02*
X36700Y20998D01*
Y21050D01*
X24336Y25091D02*
X24867D01*
X24903Y25128D01*
X24300Y25054D02*
X24336Y25091D01*
X24881Y24543D02*
X24998Y24426D01*
X25050D01*
X36084Y23725D02*
X36875D01*
X29091Y26751D02*
X29096Y26755D01*
Y27246D01*
X29100Y27250D01*
X29101Y21261D02*
Y21740D01*
X29111Y21750D01*
X29091Y21251D02*
X29101Y21261D01*
X29347Y19153D02*
Y19598D01*
X28835Y18279D02*
X28838Y18276D01*
X28835Y19598D02*
Y19646D01*
Y18279D02*
Y19598D01*
X29603Y19431D02*
Y19598D01*
Y19431D02*
X29875Y19159D01*
X29347Y14090D02*
X29349Y14089D01*
Y13601D02*
Y14089D01*
Y13601D02*
X29350Y13600D01*
X29617Y13909D02*
Y14076D01*
Y13909D02*
X29625Y13901D01*
Y13455D02*
Y13901D01*
X29603Y13433D02*
X29625Y13455D01*
X29075Y13416D02*
X29200Y13291D01*
X29075Y13416D02*
Y13714D01*
X29078Y13717D01*
Y14076D01*
X29603Y12798D02*
Y13433D01*
X29078Y14076D02*
X29091Y14090D01*
X29603Y12798D02*
X29626Y12776D01*
X29603Y14090D02*
X29617Y14076D01*
X29091Y15744D02*
Y16141D01*
X29250Y16300D01*
X28835Y15892D02*
Y16973D01*
X39306Y19586D02*
Y19661D01*
X24300Y24798D02*
X24311Y24787D01*
X25040D02*
X25052Y24776D01*
X24311Y24787D02*
X25040D01*
X26112Y20125D02*
X27387D01*
X27521Y20259D01*
X24300Y22106D02*
Y22914D01*
X24783Y23397D01*
X24865Y22503D02*
X25161Y22799D01*
X24715Y22841D02*
X24972Y23098D01*
X24715Y21988D02*
Y22841D01*
X24616Y21377D02*
X25015Y21776D01*
X24616Y21633D02*
X24865Y21882D01*
X24300Y21850D02*
X24338Y21889D01*
X25015Y22380D02*
X25096Y22462D01*
X24338Y21889D02*
X24616D01*
X24715Y21988D01*
X25015Y21776D02*
Y22380D01*
X24865Y21882D02*
Y22503D01*
X25312Y22462D02*
X25350Y22500D01*
X25096Y22462D02*
X25312D01*
X24338Y21633D02*
X24616D01*
X24300Y21595D02*
X24338Y21633D01*
Y21377D02*
X24616D01*
X24300Y21339D02*
X24338Y21377D01*
X25920Y21545D02*
X26136Y21762D01*
X26262D02*
X26300Y21800D01*
X26319Y21781D01*
X26495D02*
X26730Y21545D01*
X26319Y21781D02*
X26495D01*
X26136Y21762D02*
X26262D01*
X26730Y21545D02*
X26750D01*
X25900D02*
X25920D01*
X24300Y20571D02*
X24338Y20610D01*
X24300Y20059D02*
X26046D01*
X26112Y20125D01*
X26706Y20911D02*
X26750Y20955D01*
X26706Y20706D02*
Y20911D01*
X19500Y20211D02*
X19520D01*
X19780Y20471D01*
X19871D01*
X19900Y20500D01*
X20500Y19944D02*
X20871Y20315D01*
X21898D01*
X18998Y20739D02*
X19500D01*
X19769Y20988D02*
X20500D01*
X19520Y20739D02*
X19769Y20988D01*
X19500Y20739D02*
X19520D01*
X20500Y20984D02*
Y20988D01*
X20913Y20571D02*
X21898D01*
X20500Y20984D02*
X20913Y20571D01*
X19796Y25921D02*
X19871D01*
X19500Y25645D02*
X19520D01*
X19796Y25921D01*
X19871D02*
X19900Y25950D01*
X19520Y25645D02*
X19739Y25426D01*
X20500D01*
Y25430D02*
X20892Y25822D01*
X21898D01*
X20500Y25426D02*
Y25430D01*
X18200Y25950D02*
X19165D01*
X19480Y26265D01*
X19627Y26377D02*
X19749Y26499D01*
X20500D01*
X19627Y26372D02*
Y26377D01*
X19502Y26248D02*
X19627Y26372D01*
X19480Y26265D02*
X19500D01*
X20426Y27300D02*
X20500Y27226D01*
X18980Y26355D02*
X19480Y26856D01*
X18600Y26355D02*
X18980D01*
X20500Y26495D02*
Y26499D01*
X20917Y26078D02*
X21898D01*
X20500Y26495D02*
X20917Y26078D01*
X27071Y20429D02*
X27100Y20400D01*
X26770Y20955D02*
X27071Y20653D01*
Y20429D02*
Y20653D01*
X26750Y20955D02*
X26770D01*
X26832Y26587D02*
X27147D01*
X27359Y26800D01*
X27400D01*
X26750Y26505D02*
X26832Y26587D01*
X26730Y27095D02*
X26750D01*
X26623Y27203D02*
X26730Y27095D01*
X26425Y26600D02*
X26800D01*
X24813Y24287D02*
X25050Y24050D01*
X24300Y24287D02*
X24813D01*
X24300Y24543D02*
X24881D01*
X26398Y26573D02*
X26425Y26600D01*
X26063Y26088D02*
X26398Y26422D01*
Y26573D01*
X25476Y25822D02*
X25742Y26088D01*
X24300Y25822D02*
X25476D01*
X25742Y26088D02*
X26063D01*
X21600Y18350D02*
Y18391D01*
X20440Y19200D02*
X20500Y19260D01*
X21600Y18391D02*
X21675Y18466D01*
Y18766D01*
X21689Y18780D01*
X21898D02*
Y19036D01*
X21689Y18780D02*
X21898D01*
X19500Y19621D02*
X19520D01*
X18600Y20827D02*
X18649D01*
X18722Y20899D01*
Y20949D02*
X19102Y21329D01*
X18722Y20899D02*
Y20949D01*
X19102Y21329D02*
X19500D01*
X19520D01*
X19871Y21681D01*
Y21771D01*
X20408Y21800D02*
X20500Y21708D01*
X19871Y21771D02*
X19900Y21800D01*
X20408D01*
X21112Y22537D02*
X21132D01*
X21220Y22450D01*
X20920Y22730D02*
X21112Y22537D01*
X20920Y22730D02*
Y22750D01*
Y23750D02*
X21459D01*
X20376Y24550D02*
X20500Y24674D01*
X21664Y22120D02*
Y22436D01*
Y22120D02*
X21677Y22106D01*
X21220Y22450D02*
X21650D01*
X21664Y22436D01*
X21898Y21850D02*
Y22106D01*
X21677D02*
X21898D01*
X21459Y23750D02*
X21659Y23950D01*
X21700D01*
Y24273D02*
X21714Y24287D01*
X21700Y23950D02*
Y24273D01*
X21714Y24287D02*
X21898D01*
Y24543D01*
X21912Y24529D01*
X18600Y25495D02*
X19040D01*
X19491Y25044D01*
X21750Y27357D02*
X21860D01*
X21898Y27396D01*
Y27575D02*
X21900Y27577D01*
X21898Y27357D02*
Y27613D01*
X20920Y28130D02*
X21789D01*
X21900Y27577D02*
Y28200D01*
X21789Y28130D02*
X21859Y28200D01*
X21900D01*
X22250Y30395D02*
X22289D01*
X22372Y30478D01*
X22289Y30395D02*
X23064Y31170D01*
X22372Y30478D02*
Y30517D01*
X23262Y31407D01*
X23067Y30395D02*
Y31167D01*
X23262Y31407D02*
X23449D01*
X23471Y31429D01*
X23521Y31412D02*
X23684D01*
X23505Y31429D02*
X23521Y31412D01*
X23797Y31300D02*
X24580Y30517D01*
X23884Y30395D02*
Y31173D01*
X23797Y31300D02*
X23797D01*
X23684Y31412D02*
X23797Y31300D01*
X30398Y12502D02*
X30426Y12530D01*
Y13222D01*
X30455Y13250D01*
X29309Y20550D02*
X29350D01*
X29349D02*
Y21250D01*
X29347Y21251D02*
X29349Y21250D01*
X30487Y22126D02*
X30493Y22132D01*
X33305Y20850D02*
Y20929D01*
X33648Y21600D02*
X33700D01*
X33700Y21704D02*
X33755Y21759D01*
Y22255D01*
X34345Y21948D02*
Y22255D01*
Y21948D02*
X34392Y21901D01*
X34542Y21685D02*
Y22255D01*
X39910Y16688D02*
X41322Y15276D01*
X39910Y16688D02*
Y17095D01*
X39899Y17106D02*
Y17241D01*
Y17106D02*
X39910Y17095D01*
X39519Y17486D02*
Y17969D01*
X39690Y17450D02*
X39899Y17241D01*
X39519Y17969D02*
X40150Y18600D01*
Y19363D02*
X40290Y19503D01*
X41322Y14925D02*
X41397Y14850D01*
X41322Y14925D02*
Y15276D01*
X40150Y18600D02*
X40154Y18604D01*
Y19075D01*
X40150Y19085D02*
Y19363D01*
X40154Y19075D02*
X40157Y19078D01*
X40150Y19085D02*
X40157Y19078D01*
X35950Y20696D02*
X36099Y20546D01*
X36249D01*
X35950Y20696D02*
Y20734D01*
X40290Y19855D02*
X40293Y19857D01*
X40290Y19503D02*
Y19855D01*
X42438Y21216D02*
X42857D01*
X42958Y21317D02*
X43174D01*
X42857Y21216D02*
X42958Y21317D01*
X43174D02*
X43250Y21393D01*
Y21999D02*
Y22007D01*
Y21393D02*
Y21401D01*
X42848Y22200D02*
X42941Y22107D01*
X43250Y22007D02*
Y22107D01*
X42941D02*
X43250D01*
Y21401D02*
X43549Y21700D01*
X43600D01*
X43250Y21999D02*
X43549Y21700D01*
X28050Y22900D02*
Y23545D01*
X30238Y23238D02*
Y23259D01*
X30373Y22586D02*
Y22623D01*
X30238Y23259D02*
X30493Y23514D01*
Y24243D01*
X30373Y22586D02*
X30493Y22466D01*
Y22132D02*
Y22466D01*
X29347Y25975D02*
X29372Y25920D01*
X29347Y25975D02*
Y26751D01*
X30487Y24250D02*
X30493Y24243D01*
X30487Y27609D02*
Y27629D01*
X24662Y30395D02*
X24702D01*
X24580Y30478D02*
Y30517D01*
Y30478D02*
X24662Y30395D01*
X30468Y29505D02*
X30487Y29523D01*
X30250Y33559D02*
Y33600D01*
X30484Y32926D02*
X30487Y32923D01*
X30484Y32926D02*
Y33326D01*
X30250Y33559D02*
X30484Y33326D01*
X42438Y22200D02*
X42848D01*
X34885Y26263D02*
X35303Y25845D01*
X34885Y26263D02*
Y26287D01*
X35303Y25845D02*
X35323D01*
X41450Y25950D02*
X41471Y25929D01*
X39554Y28350D02*
X40300D01*
X41146D01*
X41471Y25071D02*
Y25929D01*
X18600Y26945D02*
X19114D01*
X19718Y27550D01*
X18239Y26634D02*
X18551Y26945D01*
X17845Y26634D02*
X18239D01*
X18551Y26945D02*
X18600D01*
X18943Y21417D02*
X19030Y21504D01*
X19199D02*
X19814Y22119D01*
X19030Y21504D02*
X19199D01*
X19814Y22119D02*
X20848D01*
X21400Y23138D02*
X22313Y22225D01*
X19881Y23138D02*
X21400D01*
X22313Y21732D02*
Y22225D01*
X20190Y23750D02*
Y23770D01*
X20651Y22269D02*
X20910D01*
X20848Y22119D02*
X21079Y21887D01*
X21246Y21457D02*
Y21933D01*
X21079Y21368D02*
Y21887D01*
X20910Y22269D02*
X21246Y21933D01*
Y21457D02*
X21582Y21121D01*
X21860Y20865D02*
X21898Y20827D01*
X21582Y20865D02*
X21860D01*
X21079Y21368D02*
X21582Y20865D01*
X20190Y22730D02*
X20651Y22269D01*
X19793Y22333D02*
X20190Y22730D01*
Y22750D01*
X21860Y21121D02*
X21898Y21083D01*
X21582Y21121D02*
X21860D01*
X21898Y21339D02*
Y21595D01*
X22124D01*
X22192Y21662D01*
X22243D01*
X22313Y21732D01*
X19667Y22923D02*
X19881Y23138D01*
X18600Y22923D02*
X19667D01*
X19005Y23850D02*
X20219D01*
Y23802D02*
X20222D01*
X20557Y24138D01*
X20190Y23770D02*
X20222Y23802D01*
X20557Y24138D02*
X20882D01*
X19696Y24300D02*
X20833D01*
X21116Y24584D01*
X19092Y24905D02*
X19696Y24300D01*
X18690Y23337D02*
X21740D01*
X18600Y23427D02*
X18690Y23337D01*
X21740D02*
X22313Y23909D01*
X21116Y24584D02*
Y25062D01*
X22214Y24760D02*
X22313Y24661D01*
Y23909D02*
Y24661D01*
X21898Y24798D02*
X21937Y24760D01*
X22214D01*
X21116Y25062D02*
X21582Y25528D01*
X21860Y25272D02*
X21898Y25310D01*
X21266Y24956D02*
X21582Y25272D01*
X21860D01*
X20882Y24138D02*
X21266Y24522D01*
Y24956D01*
X21582Y25528D02*
X21860D01*
X20908Y27550D02*
X20934D01*
X19718D02*
X20092D01*
X20152Y27610D01*
X20934Y27550D02*
X21183Y27301D01*
X20152Y27610D02*
X20848D01*
X20908Y27550D01*
X21183Y26771D02*
Y27301D01*
Y26771D02*
X21582Y26372D01*
X18013Y27833D02*
X18600D01*
X18649Y25033D02*
X18747Y24935D01*
Y24905D02*
Y24935D01*
Y24905D02*
X19092D01*
X18600D02*
X18747D01*
X21860Y25528D02*
X21898Y25566D01*
X18947Y23909D02*
Y23948D01*
Y23909D02*
X19005Y23850D01*
X17845Y27951D02*
Y28000D01*
Y27951D02*
X17943Y27853D01*
X17992D01*
X18013Y27833D01*
X20863D02*
X21333Y27363D01*
Y26877D02*
X21582Y26628D01*
X21333Y26877D02*
Y27363D01*
X21898Y26846D02*
Y27102D01*
X21582Y26628D02*
X21860D01*
X21898Y26590D01*
X21582Y26372D02*
X21860D01*
X21898Y26334D01*
X18551Y25033D02*
X18649D01*
X17845Y25200D02*
Y25200D01*
Y25200D02*
X18383D01*
X18551Y25033D01*
X18849Y24045D02*
X18947Y23948D01*
X21898Y24798D02*
Y25054D01*
X42350Y24724D02*
Y26149D01*
X41104Y25096D02*
Y25946D01*
X41100Y25950D02*
X41104Y25946D01*
Y25096D02*
X41150Y25050D01*
X40504Y25796D02*
X40507Y25800D01*
X41196Y26489D01*
Y27150D01*
X41454Y27407D01*
X43162Y22397D02*
X43187Y22371D01*
X43879D01*
X43900Y22350D01*
X38629Y24692D02*
X39003D01*
X39062Y24633D01*
Y24589D02*
X39111Y24539D01*
Y24346D02*
Y24539D01*
X39062Y24589D02*
Y24633D01*
X42350Y28051D02*
Y28397D01*
X42500Y28547D02*
Y28712D01*
X42350Y28397D02*
X42500Y28547D01*
Y28712D02*
X42676Y28888D01*
X45238D01*
X46180Y27946D02*
X46376D01*
X42700Y28547D02*
Y28630D01*
X42850Y28051D02*
Y28397D01*
X42759Y28688D02*
X45155D01*
X42700Y28547D02*
X42850Y28397D01*
X45880Y27700D02*
X45911Y27731D01*
X45238Y28888D02*
X46180Y27946D01*
X45155Y28688D02*
X45922Y27921D01*
X45911Y27827D02*
X45922Y27839D01*
Y27921D01*
X42700Y28630D02*
X42759Y28688D01*
X46376Y27946D02*
X46380Y27950D01*
X45911Y27731D02*
Y27827D01*
X43055Y24000D02*
Y24605D01*
X43079Y24629D02*
Y25045D01*
X42350Y25774D02*
X43079Y25045D01*
X42350Y24724D02*
X43055Y24020D01*
Y24000D02*
Y24020D01*
Y24000D02*
X43162Y24107D01*
X42900Y25799D02*
X43178Y25521D01*
X42438Y23578D02*
X44191D01*
X41189Y14058D02*
X41397Y13850D01*
X41042Y14058D02*
X41189D01*
X40484Y14616D02*
X41042Y14058D01*
X40484Y14616D02*
Y15666D01*
X40162Y16200D02*
X40675Y15687D01*
X38357Y16200D02*
X40162D01*
X40313Y15837D02*
X40484Y15666D01*
X38402Y15837D02*
X40313D01*
X38157Y16082D02*
X38402Y15837D01*
X38043Y16200D02*
X38157Y16086D01*
Y16082D02*
Y16086D01*
X37039Y17486D02*
X37284Y17241D01*
Y16959D02*
Y17241D01*
Y16959D02*
X38004Y16239D01*
X30005Y19625D02*
X30539D01*
X29617Y19626D02*
X30004D01*
X29617Y19611D02*
Y19626D01*
X29603Y19598D02*
X29617Y19611D01*
X30004Y19626D02*
X30005Y19625D01*
X35950Y21604D02*
X36256Y21910D01*
X35950Y21566D02*
Y21604D01*
X43264Y21029D02*
X43879D01*
X43250Y21015D02*
X43264Y21029D01*
X43879D02*
X43900Y21050D01*
X43250Y21007D02*
Y21015D01*
X42438Y21019D02*
X42441Y21016D01*
X43241D01*
X42438Y22397D02*
X43162D01*
X40686Y24346D02*
Y24686D01*
X40767Y24767D01*
Y24900D02*
X40825Y24958D01*
X40767Y24767D02*
Y24900D01*
X40825Y24958D02*
X41015D01*
X41165Y25000D02*
X41227Y24938D01*
Y24589D02*
Y24938D01*
Y24589D02*
X41274Y24542D01*
X41015Y24958D02*
X41107Y25050D01*
X28838Y29123D02*
X28848Y29133D01*
X28162Y30888D02*
X28610Y30440D01*
X27850Y30888D02*
X28162D01*
X28610Y30440D02*
X28822D01*
X28844Y26886D02*
Y26909D01*
X28760Y26994D02*
Y27381D01*
X28844Y27466D02*
Y28002D01*
X28835Y26877D02*
X28844Y26886D01*
X28837Y28009D02*
X28844Y28002D01*
X28760Y27381D02*
X28844Y27466D01*
X28760Y26994D02*
X28844Y26909D01*
X28835Y26751D02*
Y26877D01*
Y16973D02*
X28838Y16976D01*
X37610Y22710D02*
X37691Y22791D01*
X37950D01*
X36471Y22710D02*
X37610D01*
X36463Y22718D02*
X36471Y22710D01*
X36918Y22368D02*
X37002Y22452D01*
X36828Y23016D02*
X37204D01*
X37233Y22987D02*
X37950D01*
X36792Y23053D02*
X36828Y23016D01*
X37204D02*
X37233Y22987D01*
X36466Y23381D02*
X37950D01*
X35707Y22708D02*
X36030Y22385D01*
X37002Y22452D02*
X37234D01*
X37329Y22547D01*
X36030Y22385D02*
X36900D01*
X37329Y22547D02*
X37710D01*
X36400Y24100D02*
X36450Y24050D01*
X35293Y24100D02*
X36400D01*
X35854Y23495D02*
X36084Y23725D01*
X36409Y22728D02*
X36451D01*
X34995Y23298D02*
X36038D01*
X36088Y23348D01*
X36276Y23102D02*
X36325Y23053D01*
X36792D01*
X36434Y23348D02*
X36463Y23378D01*
X34995Y23102D02*
X36276D01*
X36232Y22905D02*
X36409Y22728D01*
X36088Y23348D02*
X36434D01*
X34995Y22905D02*
X36232D01*
X40675Y15041D02*
X41366Y14350D01*
X40675Y15041D02*
Y15687D01*
X41366Y14350D02*
X42397D01*
Y15791D02*
X42793Y16186D01*
X42726Y20772D02*
X42793Y20706D01*
X42631Y20822D02*
X42681Y20772D01*
X42438Y20822D02*
X42631D01*
X42793Y16186D02*
Y20706D01*
X42397Y15350D02*
Y15791D01*
X42681Y20772D02*
X42726D01*
X42242Y16754D02*
Y20622D01*
X41397Y15909D02*
X42242Y16754D01*
X41397Y15850D02*
Y15909D01*
X28409Y13250D02*
X28450D01*
X27909Y13205D02*
X28365D01*
X29200Y13250D02*
Y13291D01*
X28365Y13205D02*
X28409Y13250D01*
X28835Y14090D02*
X28838Y14087D01*
Y12776D02*
Y14087D01*
X29603Y15744D02*
Y16953D01*
X28123Y24228D02*
X28402D01*
X28474Y24300D01*
X28515D01*
X28835Y21392D02*
Y22573D01*
X28072Y24178D02*
X28123Y24228D01*
X33952Y22105D02*
X33977Y22080D01*
X33911Y21000D02*
X33977Y21066D01*
X33895Y21000D02*
X33911D01*
X33977Y21066D02*
Y22080D01*
X29603Y21251D02*
Y21326D01*
Y21251D02*
Y21312D01*
X29617Y21326D01*
X30540D01*
X29603D02*
Y22553D01*
X35706Y21900D02*
X35866Y22060D01*
X40571Y18629D02*
X40600Y18600D01*
X40489Y19132D02*
Y19857D01*
X40571Y18629D02*
Y19050D01*
X40489Y19132D02*
X40571Y19050D01*
X42242Y20622D02*
X42245Y20625D01*
X42438D01*
X37710Y22350D02*
X37757Y22397D01*
X37950D01*
X37757Y22594D02*
X37950D01*
X37710Y22547D02*
X37757Y22594D01*
X34995Y22708D02*
X35707D01*
X34995Y23495D02*
X35854D01*
X35082Y23889D02*
X35293Y24100D01*
X34995Y23889D02*
X35082D01*
X29603Y14090D02*
X29608Y14095D01*
X30503D01*
X30505Y15747D02*
X30508Y15750D01*
X29603Y15744D02*
X29606Y15747D01*
X30505D01*
X29612Y26751D02*
Y26796D01*
X28006Y26900D02*
X28822D01*
X28787Y23809D02*
X28844Y23867D01*
X28109Y24943D02*
X28835D01*
X27850Y13795D02*
X28115Y14059D01*
X28835Y15744D02*
Y15892D01*
Y21251D02*
Y21392D01*
X39504Y26489D02*
Y27150D01*
Y26489D02*
X40193Y25800D01*
X39246Y27407D02*
X39504Y27150D01*
X39246Y27407D02*
Y28350D01*
X40193Y25200D02*
Y25800D01*
Y25200D02*
X40292Y25101D01*
Y24346D02*
Y25101D01*
Y24346D02*
X40293Y24346D01*
X40500Y25367D02*
X40504Y25371D01*
Y25796D01*
X41454Y27407D02*
Y28350D01*
X28050Y24155D02*
X28072Y24178D01*
X40489Y24346D02*
Y24539D01*
X40500Y24550D01*
Y25033D01*
X28790Y14073D02*
X28835Y14090D01*
X28777Y14059D02*
X28790Y14073D01*
X28115Y14059D02*
X28777D01*
X27900Y15905D02*
X28822D01*
X28835Y15892D01*
X29603Y16953D02*
X29626Y16976D01*
X28050Y19955D02*
X28346Y19659D01*
X28822D01*
X28835Y19646D01*
X28077Y21405D02*
X28822D01*
X28835Y21392D01*
Y22573D02*
X28838Y22576D01*
X29603Y22553D02*
X29626Y22576D01*
X28844Y23867D02*
Y24929D01*
X28077Y24911D02*
X28109Y24943D01*
X28835D02*
Y25098D01*
X30433Y25104D02*
X30439Y25109D01*
X29618Y25104D02*
X30433D01*
X29612Y25098D02*
X29618Y25104D01*
X29603Y25098D02*
X29612D01*
X29626Y26809D02*
X30439D01*
X29612Y26796D02*
X29626Y26809D01*
X29612Y26796D02*
Y27997D01*
X29625Y28009D01*
X29603Y26751D02*
X29612D01*
X28236Y32019D02*
X28835D01*
X28141Y32114D02*
X28236Y32019D01*
X28141Y32114D02*
Y32193D01*
X28029Y32305D02*
X28141Y32193D01*
X27950Y32305D02*
X28029D01*
X29629Y30323D02*
X30540D01*
X29616Y30337D02*
X29629Y30323D01*
X29616Y32019D02*
X29618Y32021D01*
X30440D01*
X30443Y32023D01*
D15*
X41681Y31543D02*
X41774Y31450D01*
X42350D01*
X40330Y31076D02*
X42350D01*
X39007Y29753D02*
X40330Y31076D01*
X41951Y30402D02*
X42252Y30702D01*
X41206Y30402D02*
X41951D01*
X42252Y30702D02*
X42350D01*
X41206Y30402D02*
X41234Y30430D01*
D17*
X33361Y24145D02*
D03*
X33558D02*
D03*
Y22255D02*
D03*
X33361D02*
D03*
X34739D02*
D03*
X33755Y24145D02*
D03*
X33952D02*
D03*
X34148D02*
D03*
X34345D02*
D03*
X34542D02*
D03*
X34739D02*
D03*
X33755Y22255D02*
D03*
X33952D02*
D03*
X34148D02*
D03*
X34345D02*
D03*
X34542D02*
D03*
D18*
X33105Y22511D02*
D03*
Y22708D02*
D03*
Y23692D02*
D03*
Y23889D02*
D03*
X34995D02*
D03*
Y22905D02*
D03*
Y22708D02*
D03*
X33105Y23298D02*
D03*
Y23495D02*
D03*
Y22905D02*
D03*
Y23102D02*
D03*
X34995Y23298D02*
D03*
Y23495D02*
D03*
Y23692D02*
D03*
Y22511D02*
D03*
Y23102D02*
D03*
D19*
X46650Y22125D02*
D03*
Y22775D02*
D03*
Y19575D02*
D03*
Y18925D02*
D03*
Y21175D02*
D03*
Y20525D02*
D03*
D20*
X18100Y17530D02*
D03*
Y16150D02*
D03*
D21*
X23884Y16995D02*
D03*
Y16405D02*
D03*
X22250Y30395D02*
D03*
Y29805D02*
D03*
X23067Y30395D02*
D03*
Y29805D02*
D03*
X23884Y30395D02*
D03*
Y29805D02*
D03*
X24702Y16409D02*
D03*
Y17000D02*
D03*
X23067Y16405D02*
D03*
Y16995D02*
D03*
X22250Y16409D02*
D03*
Y17000D02*
D03*
X24702Y30395D02*
D03*
Y29805D02*
D03*
D22*
X16758Y16987D02*
D03*
Y16318D02*
D03*
D23*
X17851Y21122D02*
D03*
X17261D02*
D03*
X17851Y22194D02*
D03*
X17261D02*
D03*
X20826Y17477D02*
D03*
X20235D02*
D03*
X17261Y24159D02*
D03*
X17851D02*
D03*
X17261Y28012D02*
D03*
X17851D02*
D03*
X17261Y25256D02*
D03*
X17851D02*
D03*
X17261Y26634D02*
D03*
X17851D02*
D03*
D24*
X16811Y23205D02*
D03*
X17776D02*
D03*
D25*
X20904Y18250D02*
D03*
X20196D02*
D03*
D26*
X26069Y20175D02*
D03*
Y19373D02*
D03*
X26110Y25723D02*
D03*
Y24921D02*
D03*
X20500Y26436D02*
D03*
Y27238D02*
D03*
Y20064D02*
D03*
Y19262D02*
D03*
Y20936D02*
D03*
Y21738D02*
D03*
Y25489D02*
D03*
Y24687D02*
D03*
D27*
X25900Y26505D02*
D03*
Y27095D02*
D03*
X31882Y20131D02*
D03*
Y20721D02*
D03*
Y30873D02*
D03*
Y25614D02*
D03*
X31750Y14605D02*
D03*
X26750Y21545D02*
D03*
Y20955D02*
D03*
X19500Y26265D02*
D03*
Y26856D02*
D03*
X31750Y15195D02*
D03*
X35323Y25255D02*
D03*
Y25845D02*
D03*
X26750Y27095D02*
D03*
Y26505D02*
D03*
X19500Y25055D02*
D03*
Y25645D02*
D03*
Y21329D02*
D03*
Y20739D02*
D03*
Y19621D02*
D03*
Y20211D02*
D03*
X25900Y20955D02*
D03*
Y21545D02*
D03*
X31882Y31464D02*
D03*
Y26205D02*
D03*
D28*
X31064Y30323D02*
D03*
Y25109D02*
D03*
Y19626D02*
D03*
X31032Y14100D02*
D03*
X31064Y32023D02*
D03*
X30500D02*
D03*
Y30323D02*
D03*
X31064Y26809D02*
D03*
X30500D02*
D03*
Y25109D02*
D03*
X31064Y21326D02*
D03*
X30500D02*
D03*
Y19626D02*
D03*
X31032Y15750D02*
D03*
X30468D02*
D03*
Y14100D02*
D03*
D29*
X31077Y29523D02*
D03*
Y24250D02*
D03*
Y18726D02*
D03*
X31045Y13250D02*
D03*
X43055Y24000D02*
D03*
X43645D02*
D03*
X30455Y13250D02*
D03*
X30487Y18726D02*
D03*
Y29523D02*
D03*
Y24250D02*
D03*
X34555Y20950D02*
D03*
X35145D02*
D03*
X31077Y22126D02*
D03*
X30487D02*
D03*
Y32923D02*
D03*
X31077D02*
D03*
X30487Y27609D02*
D03*
X31077D02*
D03*
X31045Y16600D02*
D03*
X30455D02*
D03*
D30*
X21898Y22106D02*
D03*
Y21850D02*
D03*
Y19036D02*
D03*
Y18780D02*
D03*
X24300Y20059D02*
D03*
Y20827D02*
D03*
X21898Y20315D02*
D03*
X24300D02*
D03*
X21898Y20571D02*
D03*
X24300D02*
D03*
Y22106D02*
D03*
Y21850D02*
D03*
Y21595D02*
D03*
Y18780D02*
D03*
Y19036D02*
D03*
Y19291D02*
D03*
Y21083D02*
D03*
Y19803D02*
D03*
X21898Y20827D02*
D03*
Y20059D02*
D03*
X24300Y21339D02*
D03*
Y19547D02*
D03*
X21898Y19291D02*
D03*
Y21595D02*
D03*
Y19803D02*
D03*
Y21083D02*
D03*
Y21339D02*
D03*
Y19547D02*
D03*
Y25054D02*
D03*
Y26846D02*
D03*
Y26590D02*
D03*
Y25310D02*
D03*
Y27102D02*
D03*
Y24798D02*
D03*
X24300Y26334D02*
D03*
Y25566D02*
D03*
X21898Y24287D02*
D03*
Y24543D02*
D03*
Y27357D02*
D03*
Y27613D02*
D03*
X24300Y25822D02*
D03*
X21898D02*
D03*
X24300Y26078D02*
D03*
X21898D02*
D03*
X24300Y27613D02*
D03*
Y27357D02*
D03*
Y27102D02*
D03*
Y24287D02*
D03*
Y24543D02*
D03*
Y24798D02*
D03*
Y26590D02*
D03*
Y25310D02*
D03*
X21898Y26334D02*
D03*
Y25566D02*
D03*
X24300Y26846D02*
D03*
Y25054D02*
D03*
D31*
X23099Y20443D02*
D03*
Y25950D02*
D03*
D32*
X20920Y23750D02*
D03*
X20190D02*
D03*
X20863Y28271D02*
D03*
X20133D02*
D03*
X20920Y22750D02*
D03*
X20190D02*
D03*
D33*
X18600Y21417D02*
D03*
Y20827D02*
D03*
Y22333D02*
D03*
Y22923D02*
D03*
Y27833D02*
D03*
Y28423D02*
D03*
Y24017D02*
D03*
Y23427D02*
D03*
Y26355D02*
D03*
Y26945D02*
D03*
Y25495D02*
D03*
Y24905D02*
D03*
D34*
X41670Y19857D02*
D03*
X41474D02*
D03*
X41277D02*
D03*
X41080D02*
D03*
X40883D02*
D03*
X40686D02*
D03*
X40489D02*
D03*
X40293D02*
D03*
X40096D02*
D03*
X39899D02*
D03*
X39702D02*
D03*
X39505D02*
D03*
X39308D02*
D03*
X39111D02*
D03*
X38915D02*
D03*
X38718D02*
D03*
X41670Y24346D02*
D03*
X41474D02*
D03*
X41277D02*
D03*
X41080D02*
D03*
X40883D02*
D03*
X40686D02*
D03*
X40489D02*
D03*
X40293D02*
D03*
X40096D02*
D03*
X39899D02*
D03*
X39702D02*
D03*
X39505D02*
D03*
X39308D02*
D03*
X38915D02*
D03*
X38718D02*
D03*
X39111D02*
D03*
D35*
X42438Y20625D02*
D03*
Y20822D02*
D03*
Y21019D02*
D03*
Y21216D02*
D03*
Y21413D02*
D03*
Y21609D02*
D03*
Y21806D02*
D03*
Y22003D02*
D03*
Y22200D02*
D03*
Y22397D02*
D03*
Y22594D02*
D03*
Y22791D02*
D03*
Y22987D02*
D03*
Y23184D02*
D03*
Y23381D02*
D03*
Y23578D02*
D03*
X37950D02*
D03*
Y23381D02*
D03*
Y23184D02*
D03*
Y22987D02*
D03*
Y22200D02*
D03*
Y22003D02*
D03*
Y21806D02*
D03*
Y21609D02*
D03*
Y21413D02*
D03*
Y21216D02*
D03*
Y21019D02*
D03*
Y20822D02*
D03*
Y20625D02*
D03*
Y22397D02*
D03*
Y22594D02*
D03*
Y22791D02*
D03*
D36*
X43024Y25050D02*
D03*
X43476D02*
D03*
D37*
X45900Y31304D02*
D03*
Y30496D02*
D03*
D38*
X39519Y17486D02*
D03*
X36881D02*
D03*
D39*
X41585Y33335D02*
D03*
X40522D02*
D03*
X41608Y32192D02*
D03*
X40545D02*
D03*
D40*
X38515Y29753D02*
D03*
Y33493D02*
D03*
D41*
X45876Y18925D02*
D03*
X45424D02*
D03*
X45876Y20525D02*
D03*
X45424D02*
D03*
X45876Y22225D02*
D03*
X45424D02*
D03*
D42*
X43280Y29718D02*
D03*
X42531D02*
D03*
D43*
X42385Y32794D02*
D03*
X43487D02*
D03*
D44*
X42350Y31076D02*
D03*
X43413Y31450D02*
D03*
X42350D02*
D03*
X43413Y31072D02*
D03*
Y30702D02*
D03*
X42350D02*
D03*
D45*
X42850Y26149D02*
D03*
Y28051D02*
D03*
X42350D02*
D03*
X43350D02*
D03*
X43850D02*
D03*
X43350Y26149D02*
D03*
X43850D02*
D03*
D46*
X42350D02*
D03*
D47*
X27850Y13845D02*
D03*
Y14455D02*
D03*
X28050Y19345D02*
D03*
Y19955D02*
D03*
X28077Y20795D02*
D03*
Y21405D02*
D03*
X27850Y30888D02*
D03*
Y30278D02*
D03*
X27900Y15905D02*
D03*
Y15295D02*
D03*
X27950Y31695D02*
D03*
Y32305D02*
D03*
X28077Y24911D02*
D03*
Y25521D02*
D03*
Y26905D02*
D03*
Y26295D02*
D03*
D48*
X29091Y26751D02*
D03*
X29603Y25098D02*
D03*
X28835Y26751D02*
D03*
Y25098D02*
D03*
X29091D02*
D03*
X29347D02*
D03*
Y26751D02*
D03*
X29091Y21251D02*
D03*
X29603Y19598D02*
D03*
X28835Y21251D02*
D03*
Y19598D02*
D03*
X29091D02*
D03*
X29347D02*
D03*
Y21251D02*
D03*
X29091Y15744D02*
D03*
X29603Y14090D02*
D03*
X28835Y15744D02*
D03*
Y14090D02*
D03*
X29091D02*
D03*
X29347Y15744D02*
D03*
Y14090D02*
D03*
Y30366D02*
D03*
Y32019D02*
D03*
X29091Y30366D02*
D03*
X28835D02*
D03*
Y32019D02*
D03*
X29603Y30366D02*
D03*
X29091Y32019D02*
D03*
D49*
X29603Y26751D02*
D03*
Y21251D02*
D03*
Y15744D02*
D03*
Y32019D02*
D03*
D50*
X43250Y22007D02*
D03*
Y22393D02*
D03*
X37063Y21219D02*
D03*
Y21605D02*
D03*
X43250Y21007D02*
D03*
Y21393D02*
D03*
D51*
X34050Y23200D02*
D03*
D52*
X40157Y19078D02*
D03*
X40543D02*
D03*
X41107Y25050D02*
D03*
X41493D02*
D03*
D53*
X27900Y28845D02*
D03*
Y29455D02*
D03*
X28050Y23545D02*
D03*
Y24155D02*
D03*
X27850Y13205D02*
D03*
Y12595D02*
D03*
X27900Y18705D02*
D03*
Y18095D02*
D03*
D54*
X29626Y18276D02*
D03*
X28838D02*
D03*
Y23809D02*
D03*
X29626D02*
D03*
Y22576D02*
D03*
X28838D02*
D03*
X28837Y28009D02*
D03*
X29625D02*
D03*
X29626Y12776D02*
D03*
X28838D02*
D03*
X29626Y29123D02*
D03*
X28838D02*
D03*
Y16976D02*
D03*
X29626D02*
D03*
X28838Y33223D02*
D03*
X29626D02*
D03*
D55*
X33723Y26181D02*
D03*
Y25550D02*
D03*
X35950Y21366D02*
D03*
Y20734D02*
D03*
D56*
X33895Y20850D02*
D03*
X33305D02*
D03*
D57*
X40500Y25367D02*
D03*
Y25033D02*
D03*
D58*
X39504Y27150D02*
D03*
X41196D02*
D03*
D59*
X40193Y25800D02*
D03*
X40507D02*
D03*
X38043Y16200D02*
D03*
X38357D02*
D03*
D60*
X39554Y28350D02*
D03*
X39246D02*
D03*
X41146D02*
D03*
X41454D02*
D03*
D61*
X34523Y25816D02*
D03*
Y25284D02*
D03*
D62*
X44500Y30473D02*
D03*
Y31300D02*
D03*
D63*
X23441Y19395D02*
D03*
X23099Y19393D02*
D03*
X22749D02*
D03*
X23441Y19795D02*
D03*
X23099Y19793D02*
D03*
X22749D02*
D03*
X23441Y20195D02*
D03*
X23099Y20193D02*
D03*
X22749D02*
D03*
X23449Y20693D02*
D03*
X23099D02*
D03*
X22749D02*
D03*
X23449Y21043D02*
D03*
X23099D02*
D03*
X22749D02*
D03*
X23449Y21443D02*
D03*
X23099D02*
D03*
X22749D02*
D03*
X23441Y24902D02*
D03*
X23099Y24900D02*
D03*
X22749D02*
D03*
X23441Y25302D02*
D03*
X23099Y25300D02*
D03*
X22749D02*
D03*
X23441Y25702D02*
D03*
X23099Y25700D02*
D03*
X22749D02*
D03*
X23449Y26200D02*
D03*
X23099D02*
D03*
X22749D02*
D03*
X23449Y26550D02*
D03*
X23099D02*
D03*
X22749D02*
D03*
X23449Y26950D02*
D03*
X23099D02*
D03*
X22749D02*
D03*
D64*
X45376Y25826D02*
D03*
Y26826D02*
D03*
Y27326D02*
D03*
X44876Y25076D02*
D03*
Y27076D02*
D03*
Y27576D02*
D03*
X45376Y25326D02*
D03*
Y27826D02*
D03*
X44876Y26076D02*
D03*
Y25576D02*
D03*
X45376Y26326D02*
D03*
X44876Y26576D02*
D03*
X46376Y27946D02*
D03*
Y25946D02*
D03*
Y26946D02*
D03*
Y25446D02*
D03*
Y26446D02*
D03*
X45876Y25196D02*
D03*
Y27696D02*
D03*
Y27196D02*
D03*
Y25696D02*
D03*
Y26196D02*
D03*
X46376Y27446D02*
D03*
X45876Y26696D02*
D03*
X46376Y24946D02*
D03*
X43300Y27000D02*
D03*
X44379Y34417D02*
D03*
X35690Y33966D02*
D03*
X36628Y33916D02*
D03*
X36593Y32973D02*
D03*
D65*
X46196Y28796D02*
D03*
Y24096D02*
D03*
X45700Y33700D02*
D03*
Y10150D02*
D03*
X15150D02*
D03*
Y33700D02*
D03*
D66*
X44897Y13102D02*
D03*
Y17102D02*
D03*
D67*
X42397Y16350D02*
D03*
D68*
X41397Y15850D02*
D03*
X42397Y15350D02*
D03*
X41397Y14850D02*
D03*
X42397Y14350D02*
D03*
D69*
X41397Y13850D02*
D03*
D70*
X14850Y23878D02*
D03*
Y25256D02*
D03*
Y18366D02*
D03*
Y19744D02*
D03*
Y16988D02*
D03*
Y26634D02*
D03*
Y22500D02*
D03*
Y21122D02*
D03*
D71*
Y28012D02*
D03*
D72*
X44900Y22850D02*
D03*
X34427Y21600D02*
D03*
X35650Y22350D02*
D03*
Y23800D02*
D03*
X36150Y25250D02*
D03*
X33400Y24800D02*
D03*
X21400Y14150D02*
D03*
X22000Y14750D02*
D03*
Y14150D02*
D03*
X21400Y14750D02*
D03*
X43900Y31800D02*
D03*
X41550Y34050D02*
D03*
X43700Y24550D02*
D03*
X16500Y11600D02*
D03*
X44900Y21142D02*
D03*
Y19542D02*
D03*
X17100Y18850D02*
D03*
X19900Y19200D02*
D03*
X18496Y18353D02*
D03*
X27600Y11550D02*
D03*
X17800Y10800D02*
D03*
X17400Y11450D02*
D03*
X18400Y14050D02*
D03*
X20750Y10550D02*
D03*
X25914Y16487D02*
D03*
X22100Y12500D02*
D03*
X22505Y13007D02*
D03*
X30760Y11393D02*
D03*
X23073Y14666D02*
D03*
X15069Y15547D02*
D03*
X34500Y10500D02*
D03*
X44846Y29682D02*
D03*
X32732Y12408D02*
D03*
X41206Y30402D02*
D03*
X35524Y13140D02*
D03*
X35206Y16218D02*
D03*
X34104Y16140D02*
D03*
X34714Y16694D02*
D03*
X35687Y33008D02*
D03*
X23883Y17750D02*
D03*
X16727Y17617D02*
D03*
X16656Y21594D02*
D03*
X18368Y20062D02*
D03*
X27194Y13537D02*
D03*
X29387Y14915D02*
D03*
X26317Y27711D02*
D03*
X25415Y21850D02*
D03*
X25372Y19300D02*
D03*
X25557Y27952D02*
D03*
X27334Y29762D02*
D03*
X39349Y18741D02*
D03*
X30500Y18350D02*
D03*
X36781Y18382D02*
D03*
X37104Y18663D02*
D03*
X36781Y18945D02*
D03*
X37104Y20351D02*
D03*
Y19788D02*
D03*
X36781Y20070D02*
D03*
X37414Y21320D02*
D03*
X37485Y21662D02*
D03*
X38400Y24900D02*
D03*
X36781Y19507D02*
D03*
X37104Y19226D02*
D03*
X29500Y18761D02*
D03*
X29150Y18760D02*
D03*
X39440Y19193D02*
D03*
X27050Y19050D02*
D03*
Y25400D02*
D03*
X26900Y24850D02*
D03*
X34525Y26653D02*
D03*
X27581Y22000D02*
D03*
X29485Y32544D02*
D03*
X29018Y32489D02*
D03*
X28426Y29785D02*
D03*
X29131Y29760D02*
D03*
X29560Y29872D02*
D03*
X29535Y24598D02*
D03*
X29237Y24300D02*
D03*
X23067Y17750D02*
D03*
X30028Y16257D02*
D03*
X33574Y22743D02*
D03*
X33550Y23672D02*
D03*
X33937Y24823D02*
D03*
X34500Y24466D02*
D03*
X31000Y28000D02*
D03*
X24700Y28950D02*
D03*
X23450Y15500D02*
D03*
X22250Y17750D02*
D03*
X24700D02*
D03*
X23883Y28950D02*
D03*
X23067D02*
D03*
X22250D02*
D03*
X30450Y28700D02*
D03*
X37850Y25500D02*
D03*
X37600Y25800D02*
D03*
X38150Y25200D02*
D03*
X28484Y18814D02*
D03*
X26300Y21800D02*
D03*
X36700Y21050D02*
D03*
X24903Y25128D02*
D03*
X25050Y24426D02*
D03*
X29100Y27250D02*
D03*
X29111Y21750D02*
D03*
X29350Y13600D02*
D03*
X29250Y16300D02*
D03*
X25052Y24776D02*
D03*
X24783Y23397D02*
D03*
X24972Y23098D02*
D03*
X25161Y22799D02*
D03*
X25350Y22500D02*
D03*
X27864Y17444D02*
D03*
X19900Y20500D02*
D03*
Y25950D02*
D03*
X18200D02*
D03*
X27100Y20400D02*
D03*
X27400Y26800D02*
D03*
X25050Y24050D02*
D03*
X21600Y18350D02*
D03*
X19900Y21800D02*
D03*
Y24550D02*
D03*
X21650Y22450D02*
D03*
X21700Y23950D02*
D03*
X19900Y27289D02*
D03*
X21900Y28200D02*
D03*
X23471Y31429D02*
D03*
X30398Y12502D02*
D03*
X29350Y20550D02*
D03*
X33648Y21600D02*
D03*
X40150Y18600D02*
D03*
X43600Y21700D02*
D03*
X28050Y22900D02*
D03*
X30238Y23238D02*
D03*
X30373Y22623D02*
D03*
X29372Y25920D02*
D03*
X30250Y33600D02*
D03*
X34550Y22722D02*
D03*
X34050Y23222D02*
D03*
X34550Y23672D02*
D03*
X41450Y25950D02*
D03*
X40300Y28350D02*
D03*
X43055Y24605D02*
D03*
X41100Y25950D02*
D03*
X43900Y22350D02*
D03*
X36700Y21600D02*
D03*
X43900Y21050D02*
D03*
X40100Y13550D02*
D03*
Y15500D02*
D03*
X28450Y13250D02*
D03*
X29200D02*
D03*
X28515Y24300D02*
D03*
X40100Y14850D02*
D03*
Y14200D02*
D03*
X40600Y18600D02*
D03*
D73*
X44400Y24000D02*
D03*
X37400Y12350D02*
D03*
X26650Y10450D02*
D03*
X34650Y30750D02*
D03*
X17600Y32150D02*
D03*
X26200Y17750D02*
D03*
X26300Y15450D02*
D03*
X19600Y32150D02*
D03*
X33592Y32130D02*
D03*
X33250Y17237D02*
D03*
X26172Y30019D02*
D03*
X32550Y24900D02*
D03*
X32100Y24450D02*
D03*
X38792Y14330D02*
D03*
X32661Y17237D02*
D03*
X32550Y21759D02*
D03*
X32100Y22156D02*
D03*
X35176Y21715D02*
D03*
X32600Y29900D02*
D03*
X33150D02*
D03*
X36909Y23717D02*
D03*
X36463Y24050D02*
D03*
X36909Y22385D02*
D03*
Y23051D02*
D03*
X36463Y22718D02*
D03*
Y23384D02*
D03*
D74*
X19692Y15366D02*
D03*
X19705Y14577D02*
D03*
M02*
