G04*
G04 #@! TF.GenerationSoftware,Altium Limited,Altium Designer,22.10.1 (41)*
G04*
G04 Layer_Color=128*
%FSLAX24Y24*%
%MOIN*%
G70*
G04*
G04 #@! TF.SameCoordinates,4128C902-B1CE-41BE-A870-E6BD5CF3549D*
G04*
G04*
G04 #@! TF.FilePolarity,Positive*
G04*
G01*
G75*
%ADD21R,0.0394X0.0315*%
%ADD37R,0.0576X0.0494*%
%ADD39R,0.0354X0.0748*%
%ADD42R,0.0554X0.0615*%
%ADD43R,0.0374X0.0669*%
%ADD44R,0.0433X0.0236*%
%ADD93R,0.0315X0.0394*%
%ADD94R,0.0551X0.1142*%
%ADD95R,0.0500X0.0300*%
%ADD96R,0.1000X0.1051*%
%ADD97R,0.0236X0.0236*%
%ADD98R,0.0669X0.0787*%
%ADD99R,0.0315X0.0197*%
%ADD100R,0.0098X0.0236*%
%ADD101R,0.0236X0.0098*%
%ADD102R,0.0965X0.0965*%
%ADD103R,0.0374X0.0591*%
%ADD104R,0.0591X0.0374*%
%ADD105R,0.0394X0.0394*%
%ADD106R,0.0394X0.0394*%
%ADD107R,0.0531X0.0374*%
%ADD108R,0.0512X0.0354*%
%ADD109R,0.1181X0.2165*%
%ADD110R,0.0536X0.0455*%
D21*
X26200Y24255D02*
D03*
Y24845D02*
D03*
D37*
X31300Y14357D02*
D03*
Y13550D02*
D03*
D39*
X36950Y15250D02*
D03*
X35887D02*
D03*
X35900Y14000D02*
D03*
X36963D02*
D03*
D42*
X34525Y12100D02*
D03*
X33775D02*
D03*
D43*
X34700Y15150D02*
D03*
X33598D02*
D03*
D44*
X34550Y13076D02*
D03*
X33487D02*
D03*
Y13446D02*
D03*
X34550Y13824D02*
D03*
X33487D02*
D03*
X34550Y13450D02*
D03*
D93*
X27295Y23950D02*
D03*
X26705D02*
D03*
X27295Y23150D02*
D03*
X26705D02*
D03*
X27295Y22350D02*
D03*
X26705D02*
D03*
X22855Y24300D02*
D03*
X23445D02*
D03*
X22855Y23550D02*
D03*
X23445D02*
D03*
X22855Y22800D02*
D03*
X23445D02*
D03*
X22855Y22050D02*
D03*
X23445D02*
D03*
D94*
X18491Y10990D02*
D03*
X19908D02*
D03*
X28349Y11348D02*
D03*
X29766D02*
D03*
D95*
X18579Y14546D02*
D03*
X26660Y12912D02*
D03*
D96*
X18579Y15471D02*
D03*
X26660Y11987D02*
D03*
D97*
X18657Y12300D02*
D03*
X18401Y12970D02*
D03*
X18913D02*
D03*
D98*
X16350Y12566D02*
D03*
Y14534D02*
D03*
X24495Y10885D02*
D03*
Y12854D02*
D03*
D99*
X23886Y14464D02*
D03*
Y13874D02*
D03*
D100*
X21207Y13685D02*
D03*
X22192D02*
D03*
X21995D02*
D03*
X21798D02*
D03*
X21601D02*
D03*
X21404D02*
D03*
X21207Y15181D02*
D03*
X22192D02*
D03*
X21995D02*
D03*
X21798D02*
D03*
X21601D02*
D03*
X21404D02*
D03*
D101*
X22446Y13942D02*
D03*
Y14926D02*
D03*
Y14533D02*
D03*
Y14336D02*
D03*
Y14139D02*
D03*
X20950Y13948D02*
D03*
Y14933D02*
D03*
Y14736D02*
D03*
Y14539D02*
D03*
Y14342D02*
D03*
Y14145D02*
D03*
X22446Y14730D02*
D03*
D102*
X21698Y14433D02*
D03*
D103*
X22252Y16354D02*
D03*
X22882D02*
D03*
X20737Y11514D02*
D03*
X21367D02*
D03*
X24584Y16067D02*
D03*
X25214D02*
D03*
D104*
X22306Y11227D02*
D03*
Y11857D02*
D03*
X21281Y13005D02*
D03*
Y12375D02*
D03*
X23682Y16756D02*
D03*
Y16126D02*
D03*
D105*
X21563Y15985D02*
D03*
Y16655D02*
D03*
X20751Y16625D02*
D03*
Y17295D02*
D03*
X25296Y14611D02*
D03*
Y13941D02*
D03*
D106*
X19388Y13628D02*
D03*
X20057D02*
D03*
D107*
X19463Y17254D02*
D03*
Y16664D02*
D03*
D108*
X26271Y14805D02*
D03*
Y13899D02*
D03*
D109*
X39514Y11339D02*
D03*
X35774D02*
D03*
D110*
X32400Y14345D02*
D03*
Y13655D02*
D03*
M02*
