%FSTAX23Y23*%
%MOIN*%
%SFA1B1*%

%IPPOS*%
%ADD9500C,0.010000*%
%ADD9501C,0.012000*%
%ADD9502C,0.015000*%
%ADD9503C,0.024000*%
%ADD9504C,0.035000*%
%ADD9505C,0.035400*%
%ADD9506C,0.039400*%
%ADD9507C,0.040000*%
%ADD9508C,0.047200*%
G54D9500*
X01072Y03144D03*
X01072Y03179D03*
Y03214D03*
X01112D03*
Y03179D03*
X01112Y03144D03*
X01152D03*
X01152Y03179D03*
Y03214D03*
X01202D03*
X01237D03*
Y03179D03*
Y03144D03*
X01202D03*
Y03179D03*
X01277D03*
Y03214D03*
Y03144D03*
X02177Y03129D03*
X02177Y03164D03*
Y03199D03*
X02217D03*
Y03164D03*
X02217Y03129D03*
X02257D03*
X02257Y03164D03*
Y03199D03*
X02307D03*
Y03164D03*
Y03129D03*
X02342D03*
Y03164D03*
Y03199D03*
X02382D03*
Y03164D03*
Y03129D03*
G54D9501*
X01305Y01D03*
X01459D03*
X01378Y01498D03*
X01338Y01538D03*
X01605Y01535D03*
X0164Y0152D03*
X01685Y01535D03*
X0166Y0118D03*
X0177Y01195D03*
X01905Y0107D03*
X021D03*
X02305Y01075D03*
X0223Y0123D03*
Y01285D03*
X0191Y0081D03*
X018Y01605D03*
X02085Y0192D03*
X02006Y02378D03*
X0201Y02465D03*
X02146Y02475D03*
X02254Y02354D03*
X02422Y02477D03*
X0257Y02465D03*
X02701Y02476D03*
X0269Y02395D03*
X02545Y0234D03*
X0258Y027D03*
X0233Y02748D03*
X0233Y02805D03*
X0224D03*
X0208Y0282D03*
X0204Y0286D03*
X02Y029D03*
X0196Y0294D03*
X0207Y03025D03*
X02243Y02985D03*
X02354Y02594D03*
X02005Y02655D03*
X0179Y0266D03*
X01794Y02593D03*
X01867Y02479D03*
X0178Y0229D03*
X0157Y0248D03*
X02825Y02465D03*
X01435Y0247D03*
X0143Y0238D03*
X01291Y02482D03*
X01229Y02603D03*
X0126Y02775D03*
X0122Y0282D03*
X01135D03*
X0136D03*
X01395Y0286D03*
X0143Y029D03*
X01465Y0294D03*
X0145Y02715D03*
X01325D03*
X0093D03*
X00785Y0271D03*
X00678Y026D03*
X00615Y0263D03*
X00735Y0249D03*
X0088Y0247D03*
X00875Y02385D03*
X00673Y02386D03*
X0101Y02485D03*
X0113Y0236D03*
X01173Y01877D03*
X01195Y01855D03*
X01218Y01832D03*
X012Y0172D03*
X01223Y01614D03*
X01272Y0159D03*
X0131Y01565D03*
X01325Y01675D03*
X0092Y0164D03*
X00805Y0165D03*
X0095Y01785D03*
X0058Y03015D03*
X00715Y03255D03*
X00916Y03566D03*
X01125Y03555D03*
X0118Y0355D03*
X01275Y0356D03*
X0139Y03315D03*
X01625Y03575D03*
X01871Y03471D03*
X0182Y03235D03*
X0207Y03168D03*
X0221Y0356D03*
X02285Y03515D03*
X0233Y03585D03*
X02505Y03575D03*
X02515Y03315D03*
G54D9502*
X0139Y01214D03*
Y0126D03*
X01344D03*
Y01315D03*
X0139D03*
Y01362D03*
X01445D03*
Y01315D03*
X01492D03*
Y0126D03*
X01445D03*
Y01214D03*
X01617Y01643D03*
X01671D03*
X01697Y01678D03*
X01645D03*
X01592D03*
X01618Y01713D03*
X01674D03*
X01698Y01748D03*
X01645D03*
X01592D03*
G54D9503*
X01862Y02077D03*
X01935Y02006D03*
X02457Y02027D03*
X02377Y02107D03*
X0148Y02085D03*
X01384Y0208D03*
X01175Y0211D03*
Y02015D03*
G54D9504*
X0075Y01265D03*
Y01365D03*
X0085Y01315D03*
Y01215D03*
Y01415D03*
G54D9505*
X02625Y01085D03*
Y01185D03*
Y01285D03*
Y01385D03*
Y01485D03*
X02725D03*
Y01385D03*
Y01285D03*
Y01185D03*
Y01085D03*
G54D9506*
X0075Y01165D03*
G54D9507*
X02675Y00845D03*
Y00945D03*
G54D9508*
X01178Y0377D03*
X01316D03*
X01454D03*
X01592D03*
X0173D03*
X01867D03*
X02005D03*
X02143D03*
X02281D03*
M02*