M48
;Layer_Color=9474304
;FILE_FORMAT=2:4
INCH,TZ
;TYPE=PLATED
T1F00S00C0.0100
T2F00S00C0.0120
T3F00S00C0.0150
T4F00S00C0.0240
T5F00S00C0.0350
T6F00S00C0.0354
T7F00S00C0.0394
T8F00S00C0.0400
T9F00S00C0.0472
%
T01
X10729Y31449
X10726Y31791
Y32141
X11126
Y31791
X11129Y31449
X11529
X11526Y31791
Y32141
X12026
X12376
Y31791
Y31441
X12026
Y31791
X12776
Y32141
Y31441
X21779Y31299
X21776Y31641
Y31991
X22176
Y31641
X22179Y31299
X22579
X22576Y31641
Y31991
X23076
Y31641
Y31291
X23426
Y31641
Y31991
X23826
Y31641
Y31291
T02
X13054Y10004
X14596
X13787Y14987
X13387Y15387
X16050Y15350
X16400Y15200
X16850Y15350
X16600Y11800
X17700Y11950
X19050Y10700
X21000
X23050Y10750
X22300Y12300
Y12850
X19100Y8100
X18000Y16050
X20850Y19200
X20063Y23787
X20100Y24650
X21462Y24757
X22542Y23540
X24222Y24776
X25700Y24650
X27013Y24765
X26900Y23950
X25450Y23400
X25800Y27000
X23308Y27483
X23300Y28050
X22400
X20800Y28200
X20400Y28600
X20000Y29000
X19600Y29400
X20700Y30250
X22435Y29850
X23540Y25940
X20050Y26550
X17900Y26600
X17942Y25938
X18679Y24799
X17800Y22900
X15708Y24800
X28250Y24650
X14350Y24700
X14300Y23800
X12914Y24822
X12292Y26038
X12600Y27750
X12200Y28200
X11350
X13600
X13950Y28600
X14300Y29000
X14650Y29400
X14500Y27150
X13250
X9300
X7850Y27100
X6783Y26008
X6150Y26300
X7350Y24900
X8800Y24700
X8750Y23850
X6730Y23869
X10100Y24850
X11300Y23600
X11737Y18775
X11950Y18550
X12181Y18329
X12000Y17200
X12231Y16144
X12720Y15900
X13100Y15650
X13250Y16750
X9200Y16400
X8050Y16500
X9500Y17850
X5800Y30150
X7150Y32550
X9160Y35660
X11250Y35550
X11800Y35500
X12750Y35600
X13900Y33150
X16250Y35750
X18710Y34710
X18200Y32350
X20700Y31687
X22100Y35600
X22850Y35150
X23300Y35850
X25050Y35750
X25150Y33150
T03
X13909Y12144
Y12609
X13444
Y13156
X13909
Y13621
X14456
Y13156
X14920
Y12609
X14456
Y12144
X16178Y16433
X16718
X16976Y16783
X16454
X15927
X16183Y17134
X16741
X16980Y17484
X16454
X15927
T04
X18629Y20771
X19351Y20060
X24571Y20279
X23779Y21071
X14809Y20850
X13841Y20809
X11750Y21100
Y20150
T05
X7503Y12650
Y13650
X8503Y13150
Y12150
Y14150
T06
X26250Y10850
Y11850
Y12850
Y13850
Y14850
X27250
Y13850
Y12850
Y11850
Y10850
T07
X7503Y11650
T08
X26750Y8450
Y9450
T09
X11788Y37700
X13166
X14544
X15922
X17300
X18678
X20056
X21434
X22812
M30
