%FSTAX23Y23*%
%MOIN*%
%SFA1B1*%

%IPPOS*%
%ADD20R,0.037400X0.066900*%
%ADD21R,0.066900X0.037400*%
%ADD26R,0.082800X0.110500*%
%ADD34R,0.055400X0.061500*%
%ADD35R,0.057600X0.049400*%
%ADD36R,0.053600X0.045500*%
%ADD37R,0.053100X0.037400*%
%ADD43R,0.104500X0.104500*%
%ADD44R,0.031600X0.017800*%
%ADD45R,0.017800X0.031600*%
%ADD46R,0.074900X0.086700*%
%ADD47R,0.126100X0.224500*%
%ADD48R,0.043400X0.080800*%
%ADD49R,0.080800X0.043400*%
%ADD50R,0.059200X0.118200*%
%ADD51R,0.078900X0.037500*%
%ADD52R,0.074900X0.047400*%
%ADD53R,0.069000X0.145800*%
%ADD54R,0.118200X0.059200*%
%ADD55R,0.094600X0.067100*%
%ADD56R,0.059200X0.043400*%
%ADD57R,0.043400X0.082800*%
%ADD58R,0.051300X0.031600*%
%ADD59R,0.058000X0.038000*%
%ADD60R,0.108000X0.113100*%
%ADD61R,0.113100X0.108000*%
%ADD62R,0.038000X0.058000*%
%ADD63R,0.031600X0.031600*%
%ADD64R,0.078900X0.078900*%
%ADD65C,0.078900*%
%ADD66R,0.078900X0.078900*%
%ADD67C,0.034000*%
G54D20*
X04285Y04468D03*
X04174D03*
X04767Y02157D03*
X04657D03*
X02971Y03022D03*
X02861D03*
G54D21*
X03397Y02615D03*
Y02504D03*
G54D26*
X04049Y02644D03*
X0395D03*
X03112Y02885D03*
X03013D03*
X02532Y02639D03*
X0263D03*
G54D34*
X04641Y0187D03*
X04566D03*
X04088Y04155D03*
X04163D03*
G54D35*
X05016Y0198D03*
Y02061D03*
X04513Y04228D03*
Y04309D03*
G54D36*
X04878Y02048D03*
Y01979D03*
G54D37*
X03688Y03019D03*
Y0296D03*
G54D43*
X03388Y02776D03*
G54D44*
X03463Y02747D03*
Y02767D03*
Y02787D03*
Y02806D03*
Y02826D03*
Y02728D03*
X03314Y02747D03*
Y02766D03*
Y02786D03*
Y02806D03*
Y02825D03*
Y02727D03*
G54D45*
X03418Y02851D03*
X03398D03*
X03378D03*
X03359D03*
X03339D03*
X03437D03*
X03418Y02701D03*
X03398D03*
X03378D03*
X03359D03*
X03339D03*
X03437D03*
G54D46*
X04053Y03019D03*
Y02822D03*
X03071Y02338D03*
Y02141D03*
G54D47*
X03951Y04052D03*
X03577D03*
X0405Y01898D03*
X04424D03*
G54D48*
X03515Y02402D03*
X03622D03*
G54D49*
X03285Y02458D03*
Y02565D03*
G54D50*
X03491Y02562D03*
X0368D03*
G54D51*
X03053Y02679D03*
Y02765D03*
G54D52*
X03527Y02946D03*
Y03072D03*
X02914Y02644D03*
Y0277D03*
G54D53*
X03155Y03409D03*
X03409D03*
G54D54*
X03355Y03154D03*
Y02965D03*
G54D55*
X03102Y03155D03*
Y03049D03*
G54D56*
X02763Y02764D03*
Y02674D03*
X04363Y04302D03*
Y04219D03*
G54D57*
X04253Y02183D03*
X04359D03*
X04252Y02304D03*
X04358D03*
X03933Y04436D03*
X03826D03*
X03935Y04308D03*
X03828D03*
G54D58*
X04568Y02009D03*
Y01972D03*
X04675D03*
Y02009D03*
X04568Y02047D03*
X04675D03*
X04084Y04289D03*
X0419Y04326D03*
X04084D03*
X0419Y04289D03*
Y04252D03*
X04084D03*
G54D59*
X0382Y02824D03*
G54D60*
X0382Y02917D03*
G54D61*
X02963Y02481D03*
G54D62*
X03055Y02481D03*
G54D63*
X03734Y02369D03*
X03785D03*
X03759Y02302D03*
G54D64*
X04797Y02584D03*
X05019Y01576D03*
X04459Y03804D03*
G54D65*
X04797Y02784D03*
X04459Y04004D03*
X02579Y02258D03*
X05019Y01776D03*
G54D66*
X02379Y02258D03*
G54D67*
X02849Y03163D03*
X03371Y028D03*
X03412Y02801D03*
X03409Y02753D03*
X03364Y02755D03*
X03238Y02852D03*
X02718Y03048D03*
X0292Y02846D03*
X0449Y02285D03*
X04526Y0216D03*
X04539Y02332D03*
X04442Y02329D03*
X02511Y02777D03*
X02523Y02866D03*
X02539Y02994D03*
X0273Y03191D03*
X02549Y03163D03*
X02744Y03338D03*
X0255Y03293D03*
X02746Y03485D03*
X02562Y03452D03*
X02587Y03615D03*
X02855Y03625D03*
X02995Y03644D03*
X03296Y03635D03*
X03542Y03623D03*
X03757Y03605D03*
X04002Y03532D03*
X03857Y03437D03*
X04211Y03349D03*
X04227Y02655D03*
X04295Y02861D03*
X04346Y02735D03*
X03989Y04516D03*
X04063Y04572D03*
X03982Y0458D03*
X04018Y04257D03*
X03795Y02425D03*
X03607Y02739D03*
X04359Y03139D03*
X03999Y03296D03*
X04366Y02961D03*
X03827Y0271D03*
X03618Y02947D03*
X03629Y02681D03*
X03683D03*
X03648Y02765D03*
Y02806D03*
X03565Y02779D03*
X03534Y02833D03*
X03039Y02626D03*
X03307Y0263D03*
X03253Y02621D03*
X04092Y04455D03*
X04212Y0395D03*
X04257Y04289D03*
X04436Y02042D03*
X0461Y02225D03*
X04755Y02007D03*
X0469Y01701D03*
M02*