%FSTAX23Y23*%
%MOIN*%
%SFA1B1*%

%IPPOS*%
%ADD10C,0.009800*%
%ADD11C,0.010000*%
%ADD12C,0.007900*%
%ADD13C,0.015700*%
%ADD14C,0.005000*%
%ADD15C,0.007000*%
%ADD16C,0.012000*%
G54D10*
X02389Y0377D02*
D01*
X02389Y0377*
X02389Y0377*
X02389Y03771*
X02389Y03771*
X02389Y03771*
X02389Y03771*
X02389Y03772*
X02389Y03772*
X02388Y03772*
X02388Y03773*
X02388Y03773*
X02388Y03773*
X02388Y03773*
X02387Y03774*
X02387Y03774*
X02387Y03774*
X02386Y03774*
X02386Y03774*
X02386Y03774*
X02385Y03774*
X02385Y03774*
X02385Y03774*
X02384*
X02384Y03774*
X02384Y03774*
X02383Y03774*
X02383Y03774*
X02383Y03774*
X02382Y03774*
X02382Y03774*
X02382Y03774*
X02381Y03773*
X02381Y03773*
X02381Y03773*
X02381Y03773*
X02381Y03772*
X0238Y03772*
X0238Y03772*
X0238Y03771*
X0238Y03771*
X0238Y03771*
X0238Y03771*
X0238Y0377*
X0238Y0377*
X0238Y0377*
X0238Y03769*
X0238Y03769*
X0238Y03768*
X0238Y03768*
X0238Y03768*
X0238Y03768*
X0238Y03767*
X0238Y03767*
X02381Y03767*
X02381Y03766*
X02381Y03766*
X02381Y03766*
X02381Y03766*
X02382Y03765*
X02382Y03765*
X02382Y03765*
X02383Y03765*
X02383Y03765*
X02383Y03765*
X02384Y03765*
X02384Y03765*
X02384Y03765*
X02385*
X02385Y03765*
X02385Y03765*
X02386Y03765*
X02386Y03765*
X02386Y03765*
X02387Y03765*
X02387Y03765*
X02387Y03765*
X02388Y03766*
X02388Y03766*
X02388Y03766*
X02388Y03766*
X02388Y03767*
X02389Y03767*
X02389Y03767*
X02389Y03768*
X02389Y03768*
X02389Y03768*
X02389Y03768*
X02389Y03769*
X02389Y03769*
X02389Y0377*
X01945Y00962D02*
D01*
X01945Y00962*
X01945Y00962*
X01945Y00963*
X01945Y00963*
X01945Y00963*
X01945Y00963*
X01945Y00964*
X01944Y00964*
X01944Y00964*
X01944Y00965*
X01944Y00965*
X01944Y00965*
X01943Y00965*
X01943Y00966*
X01943Y00966*
X01942Y00966*
X01942Y00966*
X01942Y00966*
X01941Y00966*
X01941Y00966*
X01941Y00966*
X0194Y00966*
X0194*
X0194Y00966*
X01939Y00966*
X01939Y00966*
X01939Y00966*
X01938Y00966*
X01938Y00966*
X01938Y00966*
X01938Y00966*
X01937Y00965*
X01937Y00965*
X01937Y00965*
X01937Y00965*
X01936Y00964*
X01936Y00964*
X01936Y00964*
X01936Y00963*
X01936Y00963*
X01936Y00963*
X01936Y00963*
X01935Y00962*
X01935Y00962*
X01935Y00962*
X01935Y00961*
X01935Y00961*
X01936Y0096*
X01936Y0096*
X01936Y0096*
X01936Y0096*
X01936Y00959*
X01936Y00959*
X01936Y00959*
X01937Y00958*
X01937Y00958*
X01937Y00958*
X01937Y00958*
X01938Y00957*
X01938Y00957*
X01938Y00957*
X01938Y00957*
X01939Y00957*
X01939Y00957*
X01939Y00957*
X0194Y00957*
X0194Y00957*
X0194*
X01941Y00957*
X01941Y00957*
X01941Y00957*
X01942Y00957*
X01942Y00957*
X01942Y00957*
X01943Y00957*
X01943Y00957*
X01943Y00958*
X01944Y00958*
X01944Y00958*
X01944Y00958*
X01944Y00959*
X01944Y00959*
X01945Y00959*
X01945Y0096*
X01945Y0096*
X01945Y0096*
X01945Y0096*
X01945Y00961*
X01945Y00961*
X01945Y00962*
X02484Y02545D02*
D01*
X02484Y02545*
X02484Y02545*
X02484Y02546*
X02484Y02546*
X02484Y02546*
X02483Y02547*
X02483Y02547*
X02483Y02547*
X02483Y02547*
X02483Y02548*
X02482Y02548*
X02482Y02548*
X02482Y02548*
X02482Y02549*
X02481Y02549*
X02481Y02549*
X02481Y02549*
X0248Y02549*
X0248Y02549*
X0248Y02549*
X02479Y02549*
X02479Y02549*
X02479*
X02478Y02549*
X02478Y02549*
X02478Y02549*
X02477Y02549*
X02477Y02549*
X02477Y02549*
X02476Y02549*
X02476Y02549*
X02476Y02548*
X02476Y02548*
X02475Y02548*
X02475Y02548*
X02475Y02547*
X02475Y02547*
X02475Y02547*
X02474Y02547*
X02474Y02546*
X02474Y02546*
X02474Y02546*
X02474Y02545*
X02474Y02545*
X02474Y02545*
X02474Y02544*
X02474Y02544*
X02474Y02544*
X02474Y02543*
X02474Y02543*
X02474Y02543*
X02475Y02542*
X02475Y02542*
X02475Y02542*
X02475Y02541*
X02475Y02541*
X02476Y02541*
X02476Y02541*
X02476Y02541*
X02476Y0254*
X02477Y0254*
X02477Y0254*
X02477Y0254*
X02478Y0254*
X02478Y0254*
X02478Y0254*
X02479Y0254*
X02479*
X02479Y0254*
X0248Y0254*
X0248Y0254*
X0248Y0254*
X02481Y0254*
X02481Y0254*
X02481Y0254*
X02482Y02541*
X02482Y02541*
X02482Y02541*
X02482Y02541*
X02483Y02541*
X02483Y02542*
X02483Y02542*
X02483Y02542*
X02483Y02543*
X02484Y02543*
X02484Y02543*
X02484Y02544*
X02484Y02544*
X02484Y02544*
X02484Y02545*
X01928D02*
D01*
X01928Y02545*
X01928Y02545*
X01928Y02546*
X01928Y02546*
X01928Y02546*
X01928Y02547*
X01928Y02547*
X01928Y02547*
X01927Y02547*
X01927Y02548*
X01927Y02548*
X01927Y02548*
X01927Y02548*
X01926Y02549*
X01926Y02549*
X01926Y02549*
X01925Y02549*
X01925Y02549*
X01925Y02549*
X01924Y02549*
X01924Y02549*
X01924Y02549*
X01923*
X01923Y02549*
X01923Y02549*
X01922Y02549*
X01922Y02549*
X01922Y02549*
X01921Y02549*
X01921Y02549*
X01921Y02549*
X0192Y02548*
X0192Y02548*
X0192Y02548*
X0192Y02548*
X0192Y02547*
X01919Y02547*
X01919Y02547*
X01919Y02547*
X01919Y02546*
X01919Y02546*
X01919Y02546*
X01919Y02545*
X01919Y02545*
X01919Y02545*
X01919Y02544*
X01919Y02544*
X01919Y02544*
X01919Y02543*
X01919Y02543*
X01919Y02543*
X01919Y02542*
X01919Y02542*
X0192Y02542*
X0192Y02541*
X0192Y02541*
X0192Y02541*
X0192Y02541*
X01921Y02541*
X01921Y0254*
X01921Y0254*
X01922Y0254*
X01922Y0254*
X01922Y0254*
X01923Y0254*
X01923Y0254*
X01923Y0254*
X01924*
X01924Y0254*
X01924Y0254*
X01925Y0254*
X01925Y0254*
X01925Y0254*
X01926Y0254*
X01926Y0254*
X01926Y02541*
X01927Y02541*
X01927Y02541*
X01927Y02541*
X01927Y02541*
X01927Y02542*
X01928Y02542*
X01928Y02542*
X01928Y02543*
X01928Y02543*
X01928Y02543*
X01928Y02544*
X01928Y02544*
X01928Y02544*
X01928Y02545*
X02484Y03284D02*
D01*
X02484Y03284*
X02484Y03284*
X02484Y03285*
X02484Y03285*
X02484Y03285*
X02483Y03286*
X02483Y03286*
X02483Y03286*
X02483Y03287*
X02483Y03287*
X02483Y03287*
X02482Y03287*
X02482Y03288*
X02482Y03288*
X02481Y03288*
X02481Y03288*
X02481Y03288*
X02481Y03288*
X0248Y03288*
X0248Y03289*
X0248Y03289*
X02479Y03289*
X02479*
X02478Y03289*
X02478Y03289*
X02478Y03288*
X02477Y03288*
X02477Y03288*
X02477Y03288*
X02477Y03288*
X02476Y03288*
X02476Y03288*
X02476Y03287*
X02475Y03287*
X02475Y03287*
X02475Y03287*
X02475Y03286*
X02475Y03286*
X02475Y03286*
X02474Y03285*
X02474Y03285*
X02474Y03285*
X02474Y03284*
X02474Y03284*
X02474Y03284*
X02474Y03283*
X02474Y03283*
X02474Y03283*
X02474Y03282*
X02474Y03282*
X02475Y03282*
X02475Y03281*
X02475Y03281*
X02475Y03281*
X02475Y03281*
X02475Y0328*
X02476Y0328*
X02476Y0328*
X02476Y0328*
X02477Y03279*
X02477Y03279*
X02477Y03279*
X02477Y03279*
X02478Y03279*
X02478Y03279*
X02478Y03279*
X02479Y03279*
X02479*
X0248Y03279*
X0248Y03279*
X0248Y03279*
X02481Y03279*
X02481Y03279*
X02481Y03279*
X02481Y03279*
X02482Y0328*
X02482Y0328*
X02482Y0328*
X02483Y0328*
X02483Y03281*
X02483Y03281*
X02483Y03281*
X02483Y03281*
X02483Y03282*
X02484Y03282*
X02484Y03282*
X02484Y03283*
X02484Y03283*
X02484Y03283*
X02484Y03284*
X01354Y0255D02*
D01*
X01354Y0255*
X01354Y0255*
X01354Y02551*
X01354Y02551*
X01354Y02551*
X01353Y02552*
X01353Y02552*
X01353Y02552*
X01353Y02552*
X01353Y02553*
X01352Y02553*
X01352Y02553*
X01352Y02553*
X01352Y02554*
X01351Y02554*
X01351Y02554*
X01351Y02554*
X0135Y02554*
X0135Y02554*
X0135Y02554*
X01349Y02554*
X01349Y02554*
X01349*
X01348Y02554*
X01348Y02554*
X01348Y02554*
X01347Y02554*
X01347Y02554*
X01347Y02554*
X01346Y02554*
X01346Y02554*
X01346Y02553*
X01346Y02553*
X01345Y02553*
X01345Y02553*
X01345Y02552*
X01345Y02552*
X01345Y02552*
X01344Y02552*
X01344Y02551*
X01344Y02551*
X01344Y02551*
X01344Y0255*
X01344Y0255*
X01344Y0255*
X01344Y02549*
X01344Y02549*
X01344Y02549*
X01344Y02548*
X01344Y02548*
X01344Y02548*
X01345Y02547*
X01345Y02547*
X01345Y02547*
X01345Y02546*
X01345Y02546*
X01346Y02546*
X01346Y02546*
X01346Y02546*
X01346Y02545*
X01347Y02545*
X01347Y02545*
X01347Y02545*
X01348Y02545*
X01348Y02545*
X01348Y02545*
X01349Y02545*
X01349*
X01349Y02545*
X0135Y02545*
X0135Y02545*
X0135Y02545*
X01351Y02545*
X01351Y02545*
X01351Y02545*
X01352Y02546*
X01352Y02546*
X01352Y02546*
X01352Y02546*
X01353Y02546*
X01353Y02547*
X01353Y02547*
X01353Y02547*
X01353Y02548*
X01354Y02548*
X01354Y02548*
X01354Y02549*
X01354Y02549*
X01354Y02549*
X01354Y0255*
X00794Y02555D02*
D01*
X00794Y02555*
X00794Y02555*
X00794Y02556*
X00794Y02556*
X00794Y02556*
X00793Y02557*
X00793Y02557*
X00793Y02557*
X00793Y02557*
X00793Y02558*
X00792Y02558*
X00792Y02558*
X00792Y02558*
X00792Y02559*
X00791Y02559*
X00791Y02559*
X00791Y02559*
X0079Y02559*
X0079Y02559*
X0079Y02559*
X00789Y02559*
X00789Y02559*
X00789*
X00788Y02559*
X00788Y02559*
X00788Y02559*
X00787Y02559*
X00787Y02559*
X00787Y02559*
X00786Y02559*
X00786Y02559*
X00786Y02558*
X00786Y02558*
X00785Y02558*
X00785Y02558*
X00785Y02557*
X00785Y02557*
X00785Y02557*
X00784Y02557*
X00784Y02556*
X00784Y02556*
X00784Y02556*
X00784Y02555*
X00784Y02555*
X00784Y02555*
X00784Y02554*
X00784Y02554*
X00784Y02554*
X00784Y02553*
X00784Y02553*
X00784Y02553*
X00785Y02552*
X00785Y02552*
X00785Y02552*
X00785Y02551*
X00785Y02551*
X00786Y02551*
X00786Y02551*
X00786Y02551*
X00786Y0255*
X00787Y0255*
X00787Y0255*
X00787Y0255*
X00788Y0255*
X00788Y0255*
X00788Y0255*
X00789Y0255*
X00789*
X00789Y0255*
X0079Y0255*
X0079Y0255*
X0079Y0255*
X00791Y0255*
X00791Y0255*
X00791Y0255*
X00792Y02551*
X00792Y02551*
X00792Y02551*
X00792Y02551*
X00793Y02551*
X00793Y02552*
X00793Y02552*
X00793Y02552*
X00793Y02553*
X00794Y02553*
X00794Y02553*
X00794Y02554*
X00794Y02554*
X00794Y02554*
X00794Y02555*
X01379Y03299D02*
D01*
X01379Y03299*
X01379Y03299*
X01379Y033*
X01379Y033*
X01379Y033*
X01378Y03301*
X01378Y03301*
X01378Y03301*
X01378Y03302*
X01378Y03302*
X01378Y03302*
X01377Y03302*
X01377Y03303*
X01377Y03303*
X01376Y03303*
X01376Y03303*
X01376Y03303*
X01376Y03303*
X01375Y03303*
X01375Y03304*
X01375Y03304*
X01374Y03304*
X01374*
X01373Y03304*
X01373Y03304*
X01373Y03303*
X01372Y03303*
X01372Y03303*
X01372Y03303*
X01372Y03303*
X01371Y03303*
X01371Y03303*
X01371Y03302*
X0137Y03302*
X0137Y03302*
X0137Y03302*
X0137Y03301*
X0137Y03301*
X0137Y03301*
X01369Y033*
X01369Y033*
X01369Y033*
X01369Y03299*
X01369Y03299*
X01369Y03299*
X01369Y03298*
X01369Y03298*
X01369Y03298*
X01369Y03297*
X01369Y03297*
X0137Y03297*
X0137Y03296*
X0137Y03296*
X0137Y03296*
X0137Y03296*
X0137Y03295*
X01371Y03295*
X01371Y03295*
X01371Y03295*
X01372Y03294*
X01372Y03294*
X01372Y03294*
X01372Y03294*
X01373Y03294*
X01373Y03294*
X01373Y03294*
X01374Y03294*
X01374*
X01375Y03294*
X01375Y03294*
X01375Y03294*
X01376Y03294*
X01376Y03294*
X01376Y03294*
X01376Y03294*
X01377Y03295*
X01377Y03295*
X01377Y03295*
X01378Y03295*
X01378Y03296*
X01378Y03296*
X01378Y03296*
X01378Y03296*
X01378Y03297*
X01379Y03297*
X01379Y03297*
X01379Y03298*
X01379Y03298*
X01379Y03298*
X01379Y03299*
X00933Y01415D02*
D01*
X00933Y01415*
X00933Y01415*
X00933Y01416*
X00933Y01416*
X00933Y01416*
X00933Y01416*
X00933Y01417*
X00933Y01417*
X00932Y01417*
X00932Y01418*
X00932Y01418*
X00932Y01418*
X00932Y01418*
X00931Y01419*
X00931Y01419*
X00931Y01419*
X0093Y01419*
X0093Y01419*
X0093Y01419*
X00929Y01419*
X00929Y01419*
X00929Y01419*
X00928*
X00928Y01419*
X00928Y01419*
X00927Y01419*
X00927Y01419*
X00927Y01419*
X00926Y01419*
X00926Y01419*
X00926Y01419*
X00925Y01418*
X00925Y01418*
X00925Y01418*
X00925Y01418*
X00925Y01417*
X00924Y01417*
X00924Y01417*
X00924Y01416*
X00924Y01416*
X00924Y01416*
X00924Y01416*
X00924Y01415*
X00924Y01415*
X00924Y01415*
X00924Y01414*
X00924Y01414*
X00924Y01413*
X00924Y01413*
X00924Y01413*
X00924Y01413*
X00924Y01412*
X00924Y01412*
X00925Y01412*
X00925Y01411*
X00925Y01411*
X00925Y01411*
X00925Y01411*
X00926Y0141*
X00926Y0141*
X00926Y0141*
X00927Y0141*
X00927Y0141*
X00927Y0141*
X00928Y0141*
X00928Y0141*
X00928Y0141*
X00929*
X00929Y0141*
X00929Y0141*
X0093Y0141*
X0093Y0141*
X0093Y0141*
X00931Y0141*
X00931Y0141*
X00931Y0141*
X00932Y01411*
X00932Y01411*
X00932Y01411*
X00932Y01411*
X00932Y01412*
X00933Y01412*
X00933Y01412*
X00933Y01413*
X00933Y01413*
X00933Y01413*
X00933Y01413*
X00933Y01414*
X00933Y01414*
X00933Y01415*
G54D11*
X01745Y0182D02*
D01*
X01745Y01821*
X01745Y01821*
X01745Y01821*
X01745Y01822*
X01745Y01822*
X01745Y01822*
X01744Y01823*
X01744Y01823*
X01744Y01823*
X01744Y01824*
X01744Y01824*
X01743Y01824*
X01743Y01824*
X01743Y01824*
X01743Y01825*
X01742Y01825*
X01742Y01825*
X01742Y01825*
X01741Y01825*
X01741Y01825*
X01741Y01825*
X0174Y01825*
X0174*
X01739Y01825*
X01739Y01825*
X01739Y01825*
X01738Y01825*
X01738Y01825*
X01738Y01825*
X01738Y01825*
X01737Y01824*
X01737Y01824*
X01737Y01824*
X01736Y01824*
X01736Y01824*
X01736Y01823*
X01736Y01823*
X01736Y01823*
X01735Y01822*
X01735Y01822*
X01735Y01822*
X01735Y01821*
X01735Y01821*
X01735Y01821*
X01735Y0182*
X01735Y0182*
X01735Y0182*
X01735Y01819*
X01735Y01819*
X01735Y01819*
X01735Y01818*
X01736Y01818*
X01736Y01818*
X01736Y01817*
X01736Y01817*
X01736Y01817*
X01737Y01817*
X01737Y01816*
X01737Y01816*
X01738Y01816*
X01738Y01816*
X01738Y01816*
X01738Y01816*
X01739Y01815*
X01739Y01815*
X01739Y01815*
X0174Y01815*
X0174*
X01741Y01815*
X01741Y01815*
X01741Y01815*
X01742Y01816*
X01742Y01816*
X01742Y01816*
X01743Y01816*
X01743Y01816*
X01743Y01816*
X01743Y01817*
X01744Y01817*
X01744Y01817*
X01744Y01817*
X01744Y01818*
X01744Y01818*
X01745Y01818*
X01745Y01819*
X01745Y01819*
X01745Y01819*
X01745Y0182*
X01745Y0182*
X01745Y0182*
X0261Y0079D02*
X0274D01*
X0261Y00995D02*
X0274D01*
Y0079D02*
Y00995D01*
X0261Y0079D02*
Y00995D01*
X02589Y02596D02*
Y02656D01*
X02649Y02596D02*
Y02656D01*
X02529Y02599D02*
Y02659D01*
X02469Y02599D02*
Y02659D01*
X01339Y02599D02*
Y02659D01*
X01529Y02601D02*
Y02661D01*
X01449Y02601D02*
Y02661D01*
X00894Y02604D02*
Y02664D01*
X00964Y02604D02*
Y02664D01*
X00844Y02604D02*
Y02664D01*
X00774Y02604D02*
Y02664D01*
X01419Y02599D02*
Y02659D01*
X01974Y02604D02*
Y02654D01*
X01914Y02604D02*
Y02654D01*
X02034Y02604D02*
Y02654D01*
X02094Y02604D02*
Y02654D01*
G54D12*
X01205Y01435D02*
D01*
X01205Y01436*
X01205Y01436*
X01205Y01436*
X01205Y01436*
X01205Y01437*
X01205Y01437*
X01205Y01437*
X01205Y01437*
X01205Y01438*
X01204Y01438*
X01204Y01438*
X01204Y01438*
X01204Y01438*
X01204Y01439*
X01203Y01439*
X01203Y01439*
X01203Y01439*
X01203Y01439*
X01202Y01439*
X01202Y01439*
X01202Y01439*
X01202Y01439*
X01201*
X01201Y01439*
X01201Y01439*
X012Y01439*
X012Y01439*
X012Y01439*
X012Y01439*
X01199Y01439*
X01199Y01439*
X01199Y01438*
X01199Y01438*
X01199Y01438*
X01198Y01438*
X01198Y01438*
X01198Y01437*
X01198Y01437*
X01198Y01437*
X01198Y01437*
X01198Y01436*
X01198Y01436*
X01198Y01436*
X01198Y01436*
X01198Y01435*
X01198Y01435*
X01198Y01435*
X01198Y01435*
X01198Y01434*
X01198Y01434*
X01198Y01434*
X01198Y01434*
X01198Y01433*
X01198Y01433*
X01198Y01433*
X01199Y01433*
X01199Y01433*
X01199Y01432*
X01199Y01432*
X01199Y01432*
X012Y01432*
X012Y01432*
X012Y01432*
X012Y01432*
X01201Y01432*
X01201Y01432*
X01201Y01432*
X01202*
X01202Y01432*
X01202Y01432*
X01202Y01432*
X01203Y01432*
X01203Y01432*
X01203Y01432*
X01203Y01432*
X01204Y01432*
X01204Y01432*
X01204Y01433*
X01204Y01433*
X01204Y01433*
X01205Y01433*
X01205Y01433*
X01205Y01434*
X01205Y01434*
X01205Y01434*
X01205Y01434*
X01205Y01435*
X01205Y01435*
X01205Y01435*
X01205Y01435*
X02472Y0269D02*
D01*
X02471Y0269*
X02471Y0269*
X02471Y0269*
X02471Y0269*
X02471Y0269*
X02471Y0269*
X02471Y0269*
X02471Y02691*
X02471Y02691*
X02471Y02691*
X02471Y02691*
X02471Y02691*
X02471Y02691*
X02471Y02691*
X02471Y02691*
X0247Y02691*
X0247Y02691*
X0247Y02691*
X0247Y02691*
X0247Y02691*
X0247Y02691*
X0247Y02691*
X02469*
X02469Y02691*
X02469Y02691*
X02469Y02691*
X02469Y02691*
X02469Y02691*
X02469Y02691*
X02469Y02691*
X02468Y02691*
X02468Y02691*
X02468Y02691*
X02468Y02691*
X02468Y02691*
X02468Y02691*
X02468Y02691*
X02468Y0269*
X02468Y0269*
X02468Y0269*
X02468Y0269*
X02468Y0269*
X02468Y0269*
X02468Y0269*
X02468Y0269*
X02468Y02689*
X02468Y02689*
X02468Y02689*
X02468Y02689*
X02468Y02689*
X02468Y02689*
X02468Y02689*
X02468Y02688*
X02468Y02688*
X02468Y02688*
X02468Y02688*
X02468Y02688*
X02468Y02688*
X02468Y02688*
X02469Y02688*
X02469Y02688*
X02469Y02688*
X02469Y02688*
X02469Y02688*
X02469Y02688*
X02469Y02688*
X02469Y02688*
X0247*
X0247Y02688*
X0247Y02688*
X0247Y02688*
X0247Y02688*
X0247Y02688*
X0247Y02688*
X02471Y02688*
X02471Y02688*
X02471Y02688*
X02471Y02688*
X02471Y02688*
X02471Y02688*
X02471Y02688*
X02471Y02688*
X02471Y02689*
X02471Y02689*
X02471Y02689*
X02471Y02689*
X02471Y02689*
X02471Y02689*
X02471Y02689*
X02472Y0269*
X01887Y02276D02*
D01*
X01887Y02276*
X01887Y02276*
X01887Y02276*
X01887Y02276*
X01886Y02276*
X01886Y02276*
X01886Y02276*
X01886Y02277*
X01886Y02277*
X01886Y02277*
X01886Y02277*
X01886Y02277*
X01886Y02277*
X01886Y02277*
X01886Y02277*
X01885Y02277*
X01885Y02277*
X01885Y02277*
X01885Y02277*
X01885Y02277*
X01885Y02277*
X01885Y02277*
X01885*
X01884Y02277*
X01884Y02277*
X01884Y02277*
X01884Y02277*
X01884Y02277*
X01884Y02277*
X01884Y02277*
X01883Y02277*
X01883Y02277*
X01883Y02277*
X01883Y02277*
X01883Y02277*
X01883Y02277*
X01883Y02277*
X01883Y02276*
X01883Y02276*
X01883Y02276*
X01883Y02276*
X01883Y02276*
X01883Y02276*
X01883Y02276*
X01883Y02276*
X01883Y02275*
X01883Y02275*
X01883Y02275*
X01883Y02275*
X01883Y02275*
X01883Y02275*
X01883Y02275*
X01883Y02274*
X01883Y02274*
X01883Y02274*
X01883Y02274*
X01883Y02274*
X01883Y02274*
X01883Y02274*
X01884Y02274*
X01884Y02274*
X01884Y02274*
X01884Y02274*
X01884Y02274*
X01884Y02274*
X01884Y02274*
X01885Y02274*
X01885*
X01885Y02274*
X01885Y02274*
X01885Y02274*
X01885Y02274*
X01885Y02274*
X01885Y02274*
X01886Y02274*
X01886Y02274*
X01886Y02274*
X01886Y02274*
X01886Y02274*
X01886Y02274*
X01886Y02274*
X01886Y02274*
X01886Y02275*
X01886Y02275*
X01886Y02275*
X01887Y02275*
X01887Y02275*
X01887Y02275*
X01887Y02275*
X01887Y02276*
X01322Y02381D02*
D01*
X01322Y02381*
X01322Y02381*
X01322Y02381*
X01322Y02381*
X01321Y02381*
X01321Y02381*
X01321Y02381*
X01321Y02382*
X01321Y02382*
X01321Y02382*
X01321Y02382*
X01321Y02382*
X01321Y02382*
X01321Y02382*
X01321Y02382*
X0132Y02382*
X0132Y02382*
X0132Y02382*
X0132Y02382*
X0132Y02382*
X0132Y02382*
X0132Y02382*
X0132*
X01319Y02382*
X01319Y02382*
X01319Y02382*
X01319Y02382*
X01319Y02382*
X01319Y02382*
X01319Y02382*
X01318Y02382*
X01318Y02382*
X01318Y02382*
X01318Y02382*
X01318Y02382*
X01318Y02382*
X01318Y02382*
X01318Y02381*
X01318Y02381*
X01318Y02381*
X01318Y02381*
X01318Y02381*
X01318Y02381*
X01318Y02381*
X01318Y02381*
X01318Y0238*
X01318Y0238*
X01318Y0238*
X01318Y0238*
X01318Y0238*
X01318Y0238*
X01318Y0238*
X01318Y02379*
X01318Y02379*
X01318Y02379*
X01318Y02379*
X01318Y02379*
X01318Y02379*
X01318Y02379*
X01319Y02379*
X01319Y02379*
X01319Y02379*
X01319Y02379*
X01319Y02379*
X01319Y02379*
X01319Y02379*
X0132Y02379*
X0132*
X0132Y02379*
X0132Y02379*
X0132Y02379*
X0132Y02379*
X0132Y02379*
X0132Y02379*
X01321Y02379*
X01321Y02379*
X01321Y02379*
X01321Y02379*
X01321Y02379*
X01321Y02379*
X01321Y02379*
X01321Y02379*
X01321Y0238*
X01321Y0238*
X01321Y0238*
X01322Y0238*
X01322Y0238*
X01322Y0238*
X01322Y0238*
X01322Y02381*
X00652Y02556D02*
D01*
X00652Y02556*
X00652Y02556*
X00652Y02556*
X00652Y02556*
X00651Y02556*
X00651Y02556*
X00651Y02556*
X00651Y02557*
X00651Y02557*
X00651Y02557*
X00651Y02557*
X00651Y02557*
X00651Y02557*
X00651Y02557*
X00651Y02557*
X0065Y02557*
X0065Y02557*
X0065Y02557*
X0065Y02557*
X0065Y02557*
X0065Y02557*
X0065Y02557*
X0065*
X00649Y02557*
X00649Y02557*
X00649Y02557*
X00649Y02557*
X00649Y02557*
X00649Y02557*
X00649Y02557*
X00648Y02557*
X00648Y02557*
X00648Y02557*
X00648Y02557*
X00648Y02557*
X00648Y02557*
X00648Y02557*
X00648Y02556*
X00648Y02556*
X00648Y02556*
X00648Y02556*
X00648Y02556*
X00648Y02556*
X00648Y02556*
X00648Y02556*
X00648Y02555*
X00648Y02555*
X00648Y02555*
X00648Y02555*
X00648Y02555*
X00648Y02555*
X00648Y02555*
X00648Y02554*
X00648Y02554*
X00648Y02554*
X00648Y02554*
X00648Y02554*
X00648Y02554*
X00648Y02554*
X00649Y02554*
X00649Y02554*
X00649Y02554*
X00649Y02554*
X00649Y02554*
X00649Y02554*
X00649Y02554*
X0065Y02554*
X0065*
X0065Y02554*
X0065Y02554*
X0065Y02554*
X0065Y02554*
X0065Y02554*
X0065Y02554*
X00651Y02554*
X00651Y02554*
X00651Y02554*
X00651Y02554*
X00651Y02554*
X00651Y02554*
X00651Y02554*
X00651Y02554*
X00651Y02555*
X00651Y02555*
X00651Y02555*
X00652Y02555*
X00652Y02555*
X00652Y02555*
X00652Y02555*
X00652Y02556*
X0076Y02284D02*
D01*
X0076Y02284*
X0076Y02284*
X0076Y02284*
X0076Y02284*
X0076Y02284*
X0076Y02284*
X0076Y02284*
X0076Y02285*
X0076Y02285*
X0076Y02285*
X0076Y02285*
X0076Y02285*
X0076Y02285*
X0076Y02285*
X00759Y02285*
X00759Y02285*
X00759Y02285*
X00759Y02285*
X00759Y02285*
X00759Y02285*
X00759Y02285*
X00758Y02285*
X00758*
X00758Y02285*
X00758Y02285*
X00758Y02285*
X00758Y02285*
X00758Y02285*
X00758Y02285*
X00757Y02285*
X00757Y02285*
X00757Y02285*
X00757Y02285*
X00757Y02285*
X00757Y02285*
X00757Y02285*
X00757Y02285*
X00757Y02284*
X00757Y02284*
X00757Y02284*
X00756Y02284*
X00756Y02284*
X00756Y02284*
X00756Y02284*
X00756Y02284*
X00756Y02283*
X00756Y02283*
X00756Y02283*
X00756Y02283*
X00757Y02283*
X00757Y02283*
X00757Y02283*
X00757Y02282*
X00757Y02282*
X00757Y02282*
X00757Y02282*
X00757Y02282*
X00757Y02282*
X00757Y02282*
X00757Y02282*
X00758Y02282*
X00758Y02282*
X00758Y02282*
X00758Y02282*
X00758Y02282*
X00758Y02282*
X00758Y02282*
X00758*
X00759Y02282*
X00759Y02282*
X00759Y02282*
X00759Y02282*
X00759Y02282*
X00759Y02282*
X00759Y02282*
X0076Y02282*
X0076Y02282*
X0076Y02282*
X0076Y02282*
X0076Y02282*
X0076Y02282*
X0076Y02282*
X0076Y02283*
X0076Y02283*
X0076Y02283*
X0076Y02283*
X0076Y02283*
X0076Y02283*
X0076Y02283*
X0076Y02284*
X02137Y0255D02*
D01*
X02136Y0255*
X02136Y0255*
X02136Y0255*
X02136Y0255*
X02136Y0255*
X02136Y0255*
X02136Y0255*
X02136Y02551*
X02136Y02551*
X02136Y02551*
X02136Y02551*
X02136Y02551*
X02136Y02551*
X02136Y02551*
X02136Y02551*
X02135Y02551*
X02135Y02551*
X02135Y02551*
X02135Y02551*
X02135Y02551*
X02135Y02551*
X02135Y02551*
X02134*
X02134Y02551*
X02134Y02551*
X02134Y02551*
X02134Y02551*
X02134Y02551*
X02134Y02551*
X02134Y02551*
X02133Y02551*
X02133Y02551*
X02133Y02551*
X02133Y02551*
X02133Y02551*
X02133Y02551*
X02133Y02551*
X02133Y0255*
X02133Y0255*
X02133Y0255*
X02133Y0255*
X02133Y0255*
X02133Y0255*
X02133Y0255*
X02133Y0255*
X02133Y02549*
X02133Y02549*
X02133Y02549*
X02133Y02549*
X02133Y02549*
X02133Y02549*
X02133Y02549*
X02133Y02548*
X02133Y02548*
X02133Y02548*
X02133Y02548*
X02133Y02548*
X02133Y02548*
X02133Y02548*
X02134Y02548*
X02134Y02548*
X02134Y02548*
X02134Y02548*
X02134Y02548*
X02134Y02548*
X02134Y02548*
X02134Y02548*
X02135*
X02135Y02548*
X02135Y02548*
X02135Y02548*
X02135Y02548*
X02135Y02548*
X02135Y02548*
X02136Y02548*
X02136Y02548*
X02136Y02548*
X02136Y02548*
X02136Y02548*
X02136Y02548*
X02136Y02548*
X02136Y02548*
X02136Y02549*
X02136Y02549*
X02136Y02549*
X02136Y02549*
X02136Y02549*
X02136Y02549*
X02136Y02549*
X02137Y0255*
X025Y03259D02*
D01*
X025Y03259*
X025Y03259*
X025Y03259*
X025Y03259*
X025Y03259*
X025Y03259*
X025Y03259*
X025Y0326*
X025Y0326*
X025Y0326*
X025Y0326*
X025Y0326*
X025Y0326*
X025Y0326*
X02499Y0326*
X02499Y0326*
X02499Y0326*
X02499Y0326*
X02499Y0326*
X02499Y0326*
X02499Y0326*
X02498Y0326*
X02498*
X02498Y0326*
X02498Y0326*
X02498Y0326*
X02498Y0326*
X02498Y0326*
X02498Y0326*
X02497Y0326*
X02497Y0326*
X02497Y0326*
X02497Y0326*
X02497Y0326*
X02497Y0326*
X02497Y0326*
X02497Y0326*
X02497Y03259*
X02497Y03259*
X02497Y03259*
X02496Y03259*
X02496Y03259*
X02496Y03259*
X02496Y03259*
X02496Y03259*
X02496Y03258*
X02496Y03258*
X02496Y03258*
X02496Y03258*
X02497Y03258*
X02497Y03258*
X02497Y03258*
X02497Y03257*
X02497Y03257*
X02497Y03257*
X02497Y03257*
X02497Y03257*
X02497Y03257*
X02497Y03257*
X02497Y03257*
X02498Y03257*
X02498Y03257*
X02498Y03257*
X02498Y03257*
X02498Y03257*
X02498Y03257*
X02498Y03257*
X02498*
X02499Y03257*
X02499Y03257*
X02499Y03257*
X02499Y03257*
X02499Y03257*
X02499Y03257*
X02499Y03257*
X025Y03257*
X025Y03257*
X025Y03257*
X025Y03257*
X025Y03257*
X025Y03257*
X025Y03257*
X025Y03258*
X025Y03258*
X025Y03258*
X025Y03258*
X025Y03258*
X025Y03258*
X025Y03258*
X025Y03259*
X02512Y03375D02*
D01*
X02511Y03375*
X02511Y03375*
X02511Y03375*
X02511Y03375*
X02511Y03375*
X02511Y03375*
X02511Y03375*
X02511Y03376*
X02511Y03376*
X02511Y03376*
X02511Y03376*
X02511Y03376*
X02511Y03376*
X02511Y03376*
X02511Y03376*
X0251Y03376*
X0251Y03376*
X0251Y03376*
X0251Y03376*
X0251Y03376*
X0251Y03376*
X0251Y03376*
X02509*
X02509Y03376*
X02509Y03376*
X02509Y03376*
X02509Y03376*
X02509Y03376*
X02509Y03376*
X02509Y03376*
X02508Y03376*
X02508Y03376*
X02508Y03376*
X02508Y03376*
X02508Y03376*
X02508Y03376*
X02508Y03376*
X02508Y03375*
X02508Y03375*
X02508Y03375*
X02508Y03375*
X02508Y03375*
X02508Y03375*
X02508Y03375*
X02508Y03375*
X02508Y03374*
X02508Y03374*
X02508Y03374*
X02508Y03374*
X02508Y03374*
X02508Y03374*
X02508Y03374*
X02508Y03373*
X02508Y03373*
X02508Y03373*
X02508Y03373*
X02508Y03373*
X02508Y03373*
X02508Y03373*
X02509Y03373*
X02509Y03373*
X02509Y03373*
X02509Y03373*
X02509Y03373*
X02509Y03373*
X02509Y03373*
X02509Y03373*
X0251*
X0251Y03373*
X0251Y03373*
X0251Y03373*
X0251Y03373*
X0251Y03373*
X0251Y03373*
X02511Y03373*
X02511Y03373*
X02511Y03373*
X02511Y03373*
X02511Y03373*
X02511Y03373*
X02511Y03373*
X02511Y03373*
X02511Y03374*
X02511Y03374*
X02511Y03374*
X02511Y03374*
X02511Y03374*
X02511Y03374*
X02511Y03374*
X02512Y03375*
X0253Y03519D02*
D01*
X0253Y03519*
X0253Y03519*
X0253Y03519*
X0253Y03519*
X0253Y03519*
X0253Y03519*
X0253Y03519*
X0253Y0352*
X0253Y0352*
X0253Y0352*
X0253Y0352*
X0253Y0352*
X0253Y0352*
X0253Y0352*
X02529Y0352*
X02529Y0352*
X02529Y0352*
X02529Y0352*
X02529Y0352*
X02529Y0352*
X02529Y0352*
X02528Y0352*
X02528*
X02528Y0352*
X02528Y0352*
X02528Y0352*
X02528Y0352*
X02528Y0352*
X02528Y0352*
X02527Y0352*
X02527Y0352*
X02527Y0352*
X02527Y0352*
X02527Y0352*
X02527Y0352*
X02527Y0352*
X02527Y0352*
X02527Y03519*
X02527Y03519*
X02527Y03519*
X02526Y03519*
X02526Y03519*
X02526Y03519*
X02526Y03519*
X02526Y03519*
X02526Y03518*
X02526Y03518*
X02526Y03518*
X02526Y03518*
X02527Y03518*
X02527Y03518*
X02527Y03518*
X02527Y03517*
X02527Y03517*
X02527Y03517*
X02527Y03517*
X02527Y03517*
X02527Y03517*
X02527Y03517*
X02527Y03517*
X02528Y03517*
X02528Y03517*
X02528Y03517*
X02528Y03517*
X02528Y03517*
X02528Y03517*
X02528Y03517*
X02528*
X02529Y03517*
X02529Y03517*
X02529Y03517*
X02529Y03517*
X02529Y03517*
X02529Y03517*
X02529Y03517*
X0253Y03517*
X0253Y03517*
X0253Y03517*
X0253Y03517*
X0253Y03517*
X0253Y03517*
X0253Y03517*
X0253Y03518*
X0253Y03518*
X0253Y03518*
X0253Y03518*
X0253Y03518*
X0253Y03518*
X0253Y03518*
X0253Y03519*
X02687Y0255D02*
D01*
X02686Y0255*
X02686Y0255*
X02686Y0255*
X02686Y0255*
X02686Y0255*
X02686Y0255*
X02686Y0255*
X02686Y02551*
X02686Y02551*
X02686Y02551*
X02686Y02551*
X02686Y02551*
X02686Y02551*
X02686Y02551*
X02686Y02551*
X02685Y02551*
X02685Y02551*
X02685Y02551*
X02685Y02551*
X02685Y02551*
X02685Y02551*
X02685Y02551*
X02684*
X02684Y02551*
X02684Y02551*
X02684Y02551*
X02684Y02551*
X02684Y02551*
X02684Y02551*
X02684Y02551*
X02683Y02551*
X02683Y02551*
X02683Y02551*
X02683Y02551*
X02683Y02551*
X02683Y02551*
X02683Y02551*
X02683Y0255*
X02683Y0255*
X02683Y0255*
X02683Y0255*
X02683Y0255*
X02683Y0255*
X02683Y0255*
X02683Y0255*
X02683Y02549*
X02683Y02549*
X02683Y02549*
X02683Y02549*
X02683Y02549*
X02683Y02549*
X02683Y02549*
X02683Y02548*
X02683Y02548*
X02683Y02548*
X02683Y02548*
X02683Y02548*
X02683Y02548*
X02683Y02548*
X02684Y02548*
X02684Y02548*
X02684Y02548*
X02684Y02548*
X02684Y02548*
X02684Y02548*
X02684Y02548*
X02684Y02548*
X02685*
X02685Y02548*
X02685Y02548*
X02685Y02548*
X02685Y02548*
X02685Y02548*
X02685Y02548*
X02686Y02548*
X02686Y02548*
X02686Y02548*
X02686Y02548*
X02686Y02548*
X02686Y02548*
X02686Y02548*
X02686Y02548*
X02686Y02549*
X02686Y02549*
X02686Y02549*
X02686Y02549*
X02686Y02549*
X02686Y02549*
X02686Y02549*
X02687Y0255*
X02586Y02674D02*
D01*
X02586Y02674*
X02586Y02674*
X02586Y02674*
X02586Y02674*
X02586Y02674*
X02586Y02674*
X02586Y02674*
X02585Y02675*
X02585Y02675*
X02585Y02675*
X02585Y02675*
X02585Y02675*
X02585Y02675*
X02585Y02675*
X02585Y02675*
X02585Y02675*
X02585Y02675*
X02584Y02675*
X02584Y02675*
X02584Y02675*
X02584Y02675*
X02584Y02675*
X02584*
X02584Y02675*
X02583Y02675*
X02583Y02675*
X02583Y02675*
X02583Y02675*
X02583Y02675*
X02583Y02675*
X02583Y02675*
X02583Y02675*
X02582Y02675*
X02582Y02675*
X02582Y02675*
X02582Y02675*
X02582Y02675*
X02582Y02674*
X02582Y02674*
X02582Y02674*
X02582Y02674*
X02582Y02674*
X02582Y02674*
X02582Y02674*
X02582Y02674*
X02582Y02673*
X02582Y02673*
X02582Y02673*
X02582Y02673*
X02582Y02673*
X02582Y02673*
X02582Y02673*
X02582Y02672*
X02582Y02672*
X02582Y02672*
X02582Y02672*
X02582Y02672*
X02583Y02672*
X02583Y02672*
X02583Y02672*
X02583Y02672*
X02583Y02672*
X02583Y02672*
X02583Y02672*
X02583Y02672*
X02584Y02672*
X02584Y02672*
X02584*
X02584Y02672*
X02584Y02672*
X02584Y02672*
X02584Y02672*
X02585Y02672*
X02585Y02672*
X02585Y02672*
X02585Y02672*
X02585Y02672*
X02585Y02672*
X02585Y02672*
X02585Y02672*
X02585Y02672*
X02585Y02672*
X02586Y02673*
X02586Y02673*
X02586Y02673*
X02586Y02673*
X02586Y02673*
X02586Y02673*
X02586Y02673*
X02586Y02674*
X02512Y02195D02*
D01*
X02511Y02195*
X02511Y02195*
X02511Y02195*
X02511Y02195*
X02511Y02195*
X02511Y02195*
X02511Y02195*
X02511Y02196*
X02511Y02196*
X02511Y02196*
X02511Y02196*
X02511Y02196*
X02511Y02196*
X02511Y02196*
X02511Y02196*
X0251Y02196*
X0251Y02196*
X0251Y02196*
X0251Y02196*
X0251Y02196*
X0251Y02196*
X0251Y02196*
X02509*
X02509Y02196*
X02509Y02196*
X02509Y02196*
X02509Y02196*
X02509Y02196*
X02509Y02196*
X02509Y02196*
X02508Y02196*
X02508Y02196*
X02508Y02196*
X02508Y02196*
X02508Y02196*
X02508Y02196*
X02508Y02196*
X02508Y02195*
X02508Y02195*
X02508Y02195*
X02508Y02195*
X02508Y02195*
X02508Y02195*
X02508Y02195*
X02508Y02195*
X02508Y02194*
X02508Y02194*
X02508Y02194*
X02508Y02194*
X02508Y02194*
X02508Y02194*
X02508Y02194*
X02508Y02193*
X02508Y02193*
X02508Y02193*
X02508Y02193*
X02508Y02193*
X02508Y02193*
X02508Y02193*
X02509Y02193*
X02509Y02193*
X02509Y02193*
X02509Y02193*
X02509Y02193*
X02509Y02193*
X02509Y02193*
X02509Y02193*
X0251*
X0251Y02193*
X0251Y02193*
X0251Y02193*
X0251Y02193*
X0251Y02193*
X0251Y02193*
X02511Y02193*
X02511Y02193*
X02511Y02193*
X02511Y02193*
X02511Y02193*
X02511Y02193*
X02511Y02193*
X02511Y02193*
X02511Y02194*
X02511Y02194*
X02511Y02194*
X02511Y02194*
X02511Y02194*
X02511Y02194*
X02511Y02194*
X02512Y02195*
X02447Y02565D02*
D01*
X02446Y02565*
X02446Y02565*
X02446Y02565*
X02446Y02565*
X02446Y02565*
X02446Y02565*
X02446Y02565*
X02446Y02566*
X02446Y02566*
X02446Y02566*
X02446Y02566*
X02446Y02566*
X02446Y02566*
X02446Y02566*
X02446Y02566*
X02445Y02566*
X02445Y02566*
X02445Y02566*
X02445Y02566*
X02445Y02566*
X02445Y02566*
X02445Y02566*
X02444*
X02444Y02566*
X02444Y02566*
X02444Y02566*
X02444Y02566*
X02444Y02566*
X02444Y02566*
X02444Y02566*
X02443Y02566*
X02443Y02566*
X02443Y02566*
X02443Y02566*
X02443Y02566*
X02443Y02566*
X02443Y02566*
X02443Y02565*
X02443Y02565*
X02443Y02565*
X02443Y02565*
X02443Y02565*
X02443Y02565*
X02443Y02565*
X02443Y02565*
X02443Y02564*
X02443Y02564*
X02443Y02564*
X02443Y02564*
X02443Y02564*
X02443Y02564*
X02443Y02564*
X02443Y02563*
X02443Y02563*
X02443Y02563*
X02443Y02563*
X02443Y02563*
X02443Y02563*
X02443Y02563*
X02444Y02563*
X02444Y02563*
X02444Y02563*
X02444Y02563*
X02444Y02563*
X02444Y02563*
X02444Y02563*
X02444Y02563*
X02445*
X02445Y02563*
X02445Y02563*
X02445Y02563*
X02445Y02563*
X02445Y02563*
X02445Y02563*
X02446Y02563*
X02446Y02563*
X02446Y02563*
X02446Y02563*
X02446Y02563*
X02446Y02563*
X02446Y02563*
X02446Y02563*
X02446Y02564*
X02446Y02564*
X02446Y02564*
X02446Y02564*
X02446Y02564*
X02446Y02564*
X02446Y02564*
X02447Y02565*
X02322Y0255D02*
D01*
X02321Y0255*
X02321Y0255*
X02321Y0255*
X02321Y0255*
X02321Y0255*
X02321Y0255*
X02321Y0255*
X02321Y02551*
X02321Y02551*
X02321Y02551*
X02321Y02551*
X02321Y02551*
X02321Y02551*
X02321Y02551*
X02321Y02551*
X0232Y02551*
X0232Y02551*
X0232Y02551*
X0232Y02551*
X0232Y02551*
X0232Y02551*
X0232Y02551*
X02319*
X02319Y02551*
X02319Y02551*
X02319Y02551*
X02319Y02551*
X02319Y02551*
X02319Y02551*
X02319Y02551*
X02318Y02551*
X02318Y02551*
X02318Y02551*
X02318Y02551*
X02318Y02551*
X02318Y02551*
X02318Y02551*
X02318Y0255*
X02318Y0255*
X02318Y0255*
X02318Y0255*
X02318Y0255*
X02318Y0255*
X02318Y0255*
X02318Y0255*
X02318Y02549*
X02318Y02549*
X02318Y02549*
X02318Y02549*
X02318Y02549*
X02318Y02549*
X02318Y02549*
X02318Y02548*
X02318Y02548*
X02318Y02548*
X02318Y02548*
X02318Y02548*
X02318Y02548*
X02318Y02548*
X02319Y02548*
X02319Y02548*
X02319Y02548*
X02319Y02548*
X02319Y02548*
X02319Y02548*
X02319Y02548*
X02319Y02548*
X0232*
X0232Y02548*
X0232Y02548*
X0232Y02548*
X0232Y02548*
X0232Y02548*
X0232Y02548*
X02321Y02548*
X02321Y02548*
X02321Y02548*
X02321Y02548*
X02321Y02548*
X02321Y02548*
X02321Y02548*
X02321Y02548*
X02321Y02549*
X02321Y02549*
X02321Y02549*
X02321Y02549*
X02321Y02549*
X02321Y02549*
X02321Y02549*
X02322Y0255*
X01787Y0254D02*
D01*
X01786Y0254*
X01786Y0254*
X01786Y0254*
X01786Y0254*
X01786Y0254*
X01786Y0254*
X01786Y0254*
X01786Y02541*
X01786Y02541*
X01786Y02541*
X01786Y02541*
X01786Y02541*
X01786Y02541*
X01786Y02541*
X01786Y02541*
X01785Y02541*
X01785Y02541*
X01785Y02541*
X01785Y02541*
X01785Y02541*
X01785Y02541*
X01785Y02541*
X01784*
X01784Y02541*
X01784Y02541*
X01784Y02541*
X01784Y02541*
X01784Y02541*
X01784Y02541*
X01784Y02541*
X01783Y02541*
X01783Y02541*
X01783Y02541*
X01783Y02541*
X01783Y02541*
X01783Y02541*
X01783Y02541*
X01783Y0254*
X01783Y0254*
X01783Y0254*
X01783Y0254*
X01783Y0254*
X01783Y0254*
X01783Y0254*
X01783Y0254*
X01783Y02539*
X01783Y02539*
X01783Y02539*
X01783Y02539*
X01783Y02539*
X01783Y02539*
X01783Y02539*
X01783Y02538*
X01783Y02538*
X01783Y02538*
X01783Y02538*
X01783Y02538*
X01783Y02538*
X01783Y02538*
X01784Y02538*
X01784Y02538*
X01784Y02538*
X01784Y02538*
X01784Y02538*
X01784Y02538*
X01784Y02538*
X01784Y02538*
X01785*
X01785Y02538*
X01785Y02538*
X01785Y02538*
X01785Y02538*
X01785Y02538*
X01785Y02538*
X01786Y02538*
X01786Y02538*
X01786Y02538*
X01786Y02538*
X01786Y02538*
X01786Y02538*
X01786Y02538*
X01786Y02538*
X01786Y02539*
X01786Y02539*
X01786Y02539*
X01786Y02539*
X01786Y02539*
X01786Y02539*
X01786Y02539*
X01787Y0254*
X02447Y02275D02*
D01*
X02446Y02275*
X02446Y02275*
X02446Y02275*
X02446Y02275*
X02446Y02275*
X02446Y02275*
X02446Y02275*
X02446Y02276*
X02446Y02276*
X02446Y02276*
X02446Y02276*
X02446Y02276*
X02446Y02276*
X02446Y02276*
X02446Y02276*
X02445Y02276*
X02445Y02276*
X02445Y02276*
X02445Y02276*
X02445Y02276*
X02445Y02276*
X02445Y02276*
X02444*
X02444Y02276*
X02444Y02276*
X02444Y02276*
X02444Y02276*
X02444Y02276*
X02444Y02276*
X02444Y02276*
X02443Y02276*
X02443Y02276*
X02443Y02276*
X02443Y02276*
X02443Y02276*
X02443Y02276*
X02443Y02276*
X02443Y02275*
X02443Y02275*
X02443Y02275*
X02443Y02275*
X02443Y02275*
X02443Y02275*
X02443Y02275*
X02443Y02275*
X02443Y02274*
X02443Y02274*
X02443Y02274*
X02443Y02274*
X02443Y02274*
X02443Y02274*
X02443Y02274*
X02443Y02273*
X02443Y02273*
X02443Y02273*
X02443Y02273*
X02443Y02273*
X02443Y02273*
X02443Y02273*
X02444Y02273*
X02444Y02273*
X02444Y02273*
X02444Y02273*
X02444Y02273*
X02444Y02273*
X02444Y02273*
X02444Y02273*
X02445*
X02445Y02273*
X02445Y02273*
X02445Y02273*
X02445Y02273*
X02445Y02273*
X02445Y02273*
X02446Y02273*
X02446Y02273*
X02446Y02273*
X02446Y02273*
X02446Y02273*
X02446Y02273*
X02446Y02273*
X02446Y02273*
X02446Y02274*
X02446Y02274*
X02446Y02274*
X02446Y02274*
X02446Y02274*
X02446Y02274*
X02446Y02274*
X02447Y02275*
Y02375D02*
D01*
X02446Y02375*
X02446Y02375*
X02446Y02375*
X02446Y02375*
X02446Y02375*
X02446Y02375*
X02446Y02375*
X02446Y02376*
X02446Y02376*
X02446Y02376*
X02446Y02376*
X02446Y02376*
X02446Y02376*
X02446Y02376*
X02446Y02376*
X02445Y02376*
X02445Y02376*
X02445Y02376*
X02445Y02376*
X02445Y02376*
X02445Y02376*
X02445Y02376*
X02444*
X02444Y02376*
X02444Y02376*
X02444Y02376*
X02444Y02376*
X02444Y02376*
X02444Y02376*
X02444Y02376*
X02443Y02376*
X02443Y02376*
X02443Y02376*
X02443Y02376*
X02443Y02376*
X02443Y02376*
X02443Y02376*
X02443Y02375*
X02443Y02375*
X02443Y02375*
X02443Y02375*
X02443Y02375*
X02443Y02375*
X02443Y02375*
X02443Y02375*
X02443Y02374*
X02443Y02374*
X02443Y02374*
X02443Y02374*
X02443Y02374*
X02443Y02374*
X02443Y02374*
X02443Y02373*
X02443Y02373*
X02443Y02373*
X02443Y02373*
X02443Y02373*
X02443Y02373*
X02443Y02373*
X02444Y02373*
X02444Y02373*
X02444Y02373*
X02444Y02373*
X02444Y02373*
X02444Y02373*
X02444Y02373*
X02444Y02373*
X02445*
X02445Y02373*
X02445Y02373*
X02445Y02373*
X02445Y02373*
X02445Y02373*
X02445Y02373*
X02446Y02373*
X02446Y02373*
X02446Y02373*
X02446Y02373*
X02446Y02373*
X02446Y02373*
X02446Y02373*
X02446Y02373*
X02446Y02374*
X02446Y02374*
X02446Y02374*
X02446Y02374*
X02446Y02374*
X02446Y02374*
X02446Y02374*
X02447Y02375*
X02612D02*
D01*
X02611Y02375*
X02611Y02375*
X02611Y02375*
X02611Y02375*
X02611Y02375*
X02611Y02375*
X02611Y02375*
X02611Y02376*
X02611Y02376*
X02611Y02376*
X02611Y02376*
X02611Y02376*
X02611Y02376*
X02611Y02376*
X02611Y02376*
X0261Y02376*
X0261Y02376*
X0261Y02376*
X0261Y02376*
X0261Y02376*
X0261Y02376*
X0261Y02376*
X02609*
X02609Y02376*
X02609Y02376*
X02609Y02376*
X02609Y02376*
X02609Y02376*
X02609Y02376*
X02609Y02376*
X02608Y02376*
X02608Y02376*
X02608Y02376*
X02608Y02376*
X02608Y02376*
X02608Y02376*
X02608Y02376*
X02608Y02375*
X02608Y02375*
X02608Y02375*
X02608Y02375*
X02608Y02375*
X02608Y02375*
X02608Y02375*
X02608Y02375*
X02608Y02374*
X02608Y02374*
X02608Y02374*
X02608Y02374*
X02608Y02374*
X02608Y02374*
X02608Y02374*
X02608Y02373*
X02608Y02373*
X02608Y02373*
X02608Y02373*
X02608Y02373*
X02608Y02373*
X02608Y02373*
X02609Y02373*
X02609Y02373*
X02609Y02373*
X02609Y02373*
X02609Y02373*
X02609Y02373*
X02609Y02373*
X02609Y02373*
X0261*
X0261Y02373*
X0261Y02373*
X0261Y02373*
X0261Y02373*
X0261Y02373*
X0261Y02373*
X02611Y02373*
X02611Y02373*
X02611Y02373*
X02611Y02373*
X02611Y02373*
X02611Y02373*
X02611Y02373*
X02611Y02373*
X02611Y02374*
X02611Y02374*
X02611Y02374*
X02611Y02374*
X02611Y02374*
X02611Y02374*
X02611Y02374*
X02612Y02375*
X02152Y03375D02*
D01*
X02151Y03375*
X02151Y03375*
X02151Y03375*
X02151Y03375*
X02151Y03375*
X02151Y03375*
X02151Y03375*
X02151Y03376*
X02151Y03376*
X02151Y03376*
X02151Y03376*
X02151Y03376*
X02151Y03376*
X02151Y03376*
X02151Y03376*
X0215Y03376*
X0215Y03376*
X0215Y03376*
X0215Y03376*
X0215Y03376*
X0215Y03376*
X0215Y03376*
X02149*
X02149Y03376*
X02149Y03376*
X02149Y03376*
X02149Y03376*
X02149Y03376*
X02149Y03376*
X02149Y03376*
X02148Y03376*
X02148Y03376*
X02148Y03376*
X02148Y03376*
X02148Y03376*
X02148Y03376*
X02148Y03376*
X02148Y03375*
X02148Y03375*
X02148Y03375*
X02148Y03375*
X02148Y03375*
X02148Y03375*
X02148Y03375*
X02148Y03375*
X02148Y03374*
X02148Y03374*
X02148Y03374*
X02148Y03374*
X02148Y03374*
X02148Y03374*
X02148Y03374*
X02148Y03373*
X02148Y03373*
X02148Y03373*
X02148Y03373*
X02148Y03373*
X02148Y03373*
X02148Y03373*
X02149Y03373*
X02149Y03373*
X02149Y03373*
X02149Y03373*
X02149Y03373*
X02149Y03373*
X02149Y03373*
X02149Y03373*
X0215*
X0215Y03373*
X0215Y03373*
X0215Y03373*
X0215Y03373*
X0215Y03373*
X0215Y03373*
X02151Y03373*
X02151Y03373*
X02151Y03373*
X02151Y03373*
X02151Y03373*
X02151Y03373*
X02151Y03373*
X02151Y03373*
X02151Y03374*
X02151Y03374*
X02151Y03374*
X02151Y03374*
X02151Y03374*
X02151Y03374*
X02151Y03374*
X02152Y03375*
X02275Y03394D02*
D01*
X02275Y03394*
X02275Y03394*
X02275Y03394*
X02275Y03394*
X02275Y03394*
X02275Y03394*
X02275Y03394*
X02275Y03395*
X02275Y03395*
X02275Y03395*
X02275Y03395*
X02275Y03395*
X02275Y03395*
X02275Y03395*
X02274Y03395*
X02274Y03395*
X02274Y03395*
X02274Y03395*
X02274Y03395*
X02274Y03395*
X02274Y03395*
X02273Y03395*
X02273*
X02273Y03395*
X02273Y03395*
X02273Y03395*
X02273Y03395*
X02273Y03395*
X02273Y03395*
X02272Y03395*
X02272Y03395*
X02272Y03395*
X02272Y03395*
X02272Y03395*
X02272Y03395*
X02272Y03395*
X02272Y03395*
X02272Y03394*
X02272Y03394*
X02272Y03394*
X02271Y03394*
X02271Y03394*
X02271Y03394*
X02271Y03394*
X02271Y03394*
X02271Y03393*
X02271Y03393*
X02271Y03393*
X02271Y03393*
X02272Y03393*
X02272Y03393*
X02272Y03393*
X02272Y03392*
X02272Y03392*
X02272Y03392*
X02272Y03392*
X02272Y03392*
X02272Y03392*
X02272Y03392*
X02272Y03392*
X02273Y03392*
X02273Y03392*
X02273Y03392*
X02273Y03392*
X02273Y03392*
X02273Y03392*
X02273Y03392*
X02273*
X02274Y03392*
X02274Y03392*
X02274Y03392*
X02274Y03392*
X02274Y03392*
X02274Y03392*
X02274Y03392*
X02275Y03392*
X02275Y03392*
X02275Y03392*
X02275Y03392*
X02275Y03392*
X02275Y03392*
X02275Y03392*
X02275Y03393*
X02275Y03393*
X02275Y03393*
X02275Y03393*
X02275Y03393*
X02275Y03393*
X02275Y03393*
X02275Y03394*
X01491Y02374D02*
D01*
X01491Y02374*
X01491Y02374*
X01491Y02374*
X01491Y02374*
X01491Y02374*
X01491Y02374*
X01491Y02374*
X0149Y02375*
X0149Y02375*
X0149Y02375*
X0149Y02375*
X0149Y02375*
X0149Y02375*
X0149Y02375*
X0149Y02375*
X0149Y02375*
X0149Y02375*
X01489Y02375*
X01489Y02375*
X01489Y02375*
X01489Y02375*
X01489Y02375*
X01489*
X01489Y02375*
X01488Y02375*
X01488Y02375*
X01488Y02375*
X01488Y02375*
X01488Y02375*
X01488Y02375*
X01488Y02375*
X01488Y02375*
X01487Y02375*
X01487Y02375*
X01487Y02375*
X01487Y02375*
X01487Y02375*
X01487Y02374*
X01487Y02374*
X01487Y02374*
X01487Y02374*
X01487Y02374*
X01487Y02374*
X01487Y02374*
X01487Y02374*
X01487Y02373*
X01487Y02373*
X01487Y02373*
X01487Y02373*
X01487Y02373*
X01487Y02373*
X01487Y02373*
X01487Y02372*
X01487Y02372*
X01487Y02372*
X01487Y02372*
X01487Y02372*
X01488Y02372*
X01488Y02372*
X01488Y02372*
X01488Y02372*
X01488Y02372*
X01488Y02372*
X01488Y02372*
X01488Y02372*
X01489Y02372*
X01489Y02372*
X01489*
X01489Y02372*
X01489Y02372*
X01489Y02372*
X01489Y02372*
X0149Y02372*
X0149Y02372*
X0149Y02372*
X0149Y02372*
X0149Y02372*
X0149Y02372*
X0149Y02372*
X0149Y02372*
X0149Y02372*
X0149Y02372*
X01491Y02373*
X01491Y02373*
X01491Y02373*
X01491Y02373*
X01491Y02373*
X01491Y02373*
X01491Y02373*
X01491Y02374*
X01307Y0228D02*
D01*
X01306Y0228*
X01306Y0228*
X01306Y0228*
X01306Y0228*
X01306Y0228*
X01306Y0228*
X01306Y0228*
X01306Y02281*
X01306Y02281*
X01306Y02281*
X01306Y02281*
X01306Y02281*
X01306Y02281*
X01306Y02281*
X01306Y02281*
X01305Y02281*
X01305Y02281*
X01305Y02281*
X01305Y02281*
X01305Y02281*
X01305Y02281*
X01305Y02281*
X01304*
X01304Y02281*
X01304Y02281*
X01304Y02281*
X01304Y02281*
X01304Y02281*
X01304Y02281*
X01304Y02281*
X01303Y02281*
X01303Y02281*
X01303Y02281*
X01303Y02281*
X01303Y02281*
X01303Y02281*
X01303Y02281*
X01303Y0228*
X01303Y0228*
X01303Y0228*
X01303Y0228*
X01303Y0228*
X01303Y0228*
X01303Y0228*
X01303Y0228*
X01303Y02279*
X01303Y02279*
X01303Y02279*
X01303Y02279*
X01303Y02279*
X01303Y02279*
X01303Y02279*
X01303Y02278*
X01303Y02278*
X01303Y02278*
X01303Y02278*
X01303Y02278*
X01303Y02278*
X01303Y02278*
X01304Y02278*
X01304Y02278*
X01304Y02278*
X01304Y02278*
X01304Y02278*
X01304Y02278*
X01304Y02278*
X01304Y02278*
X01305*
X01305Y02278*
X01305Y02278*
X01305Y02278*
X01305Y02278*
X01305Y02278*
X01305Y02278*
X01306Y02278*
X01306Y02278*
X01306Y02278*
X01306Y02278*
X01306Y02278*
X01306Y02278*
X01306Y02278*
X01306Y02278*
X01306Y02279*
X01306Y02279*
X01306Y02279*
X01306Y02279*
X01306Y02279*
X01306Y02279*
X01306Y02279*
X01307Y0228*
X0134Y02679D02*
D01*
X0134Y02679*
X0134Y02679*
X0134Y02679*
X0134Y02679*
X0134Y02679*
X0134Y02679*
X0134Y02679*
X0134Y0268*
X0134Y0268*
X0134Y0268*
X0134Y0268*
X0134Y0268*
X0134Y0268*
X0134Y0268*
X01339Y0268*
X01339Y0268*
X01339Y0268*
X01339Y0268*
X01339Y0268*
X01339Y0268*
X01339Y0268*
X01338Y0268*
X01338*
X01338Y0268*
X01338Y0268*
X01338Y0268*
X01338Y0268*
X01338Y0268*
X01338Y0268*
X01337Y0268*
X01337Y0268*
X01337Y0268*
X01337Y0268*
X01337Y0268*
X01337Y0268*
X01337Y0268*
X01337Y0268*
X01337Y02679*
X01337Y02679*
X01337Y02679*
X01336Y02679*
X01336Y02679*
X01336Y02679*
X01336Y02679*
X01336Y02679*
X01336Y02678*
X01336Y02678*
X01336Y02678*
X01336Y02678*
X01337Y02678*
X01337Y02678*
X01337Y02678*
X01337Y02677*
X01337Y02677*
X01337Y02677*
X01337Y02677*
X01337Y02677*
X01337Y02677*
X01337Y02677*
X01337Y02677*
X01338Y02677*
X01338Y02677*
X01338Y02677*
X01338Y02677*
X01338Y02677*
X01338Y02677*
X01338Y02677*
X01338*
X01339Y02677*
X01339Y02677*
X01339Y02677*
X01339Y02677*
X01339Y02677*
X01339Y02677*
X01339Y02677*
X0134Y02677*
X0134Y02677*
X0134Y02677*
X0134Y02677*
X0134Y02677*
X0134Y02677*
X0134Y02677*
X0134Y02678*
X0134Y02678*
X0134Y02678*
X0134Y02678*
X0134Y02678*
X0134Y02678*
X0134Y02678*
X0134Y02679*
X0138Y02189D02*
D01*
X0138Y02189*
X0138Y02189*
X0138Y02189*
X0138Y02189*
X0138Y02189*
X0138Y02189*
X0138Y02189*
X0138Y0219*
X0138Y0219*
X0138Y0219*
X0138Y0219*
X0138Y0219*
X0138Y0219*
X0138Y0219*
X01379Y0219*
X01379Y0219*
X01379Y0219*
X01379Y0219*
X01379Y0219*
X01379Y0219*
X01379Y0219*
X01378Y0219*
X01378*
X01378Y0219*
X01378Y0219*
X01378Y0219*
X01378Y0219*
X01378Y0219*
X01378Y0219*
X01377Y0219*
X01377Y0219*
X01377Y0219*
X01377Y0219*
X01377Y0219*
X01377Y0219*
X01377Y0219*
X01377Y0219*
X01377Y02189*
X01377Y02189*
X01377Y02189*
X01376Y02189*
X01376Y02189*
X01376Y02189*
X01376Y02189*
X01376Y02189*
X01376Y02188*
X01376Y02188*
X01376Y02188*
X01376Y02188*
X01377Y02188*
X01377Y02188*
X01377Y02188*
X01377Y02187*
X01377Y02187*
X01377Y02187*
X01377Y02187*
X01377Y02187*
X01377Y02187*
X01377Y02187*
X01377Y02187*
X01378Y02187*
X01378Y02187*
X01378Y02187*
X01378Y02187*
X01378Y02187*
X01378Y02187*
X01378Y02187*
X01378*
X01379Y02187*
X01379Y02187*
X01379Y02187*
X01379Y02187*
X01379Y02187*
X01379Y02187*
X01379Y02187*
X0138Y02187*
X0138Y02187*
X0138Y02187*
X0138Y02187*
X0138Y02187*
X0138Y02187*
X0138Y02187*
X0138Y02188*
X0138Y02188*
X0138Y02188*
X0138Y02188*
X0138Y02188*
X0138Y02188*
X0138Y02188*
X0138Y02189*
X01456Y02679D02*
D01*
X01456Y02679*
X01456Y02679*
X01456Y02679*
X01456Y02679*
X01456Y02679*
X01456Y02679*
X01456Y02679*
X01455Y0268*
X01455Y0268*
X01455Y0268*
X01455Y0268*
X01455Y0268*
X01455Y0268*
X01455Y0268*
X01455Y0268*
X01455Y0268*
X01455Y0268*
X01454Y0268*
X01454Y0268*
X01454Y0268*
X01454Y0268*
X01454Y0268*
X01454*
X01454Y0268*
X01453Y0268*
X01453Y0268*
X01453Y0268*
X01453Y0268*
X01453Y0268*
X01453Y0268*
X01453Y0268*
X01453Y0268*
X01452Y0268*
X01452Y0268*
X01452Y0268*
X01452Y0268*
X01452Y0268*
X01452Y02679*
X01452Y02679*
X01452Y02679*
X01452Y02679*
X01452Y02679*
X01452Y02679*
X01452Y02679*
X01452Y02679*
X01452Y02678*
X01452Y02678*
X01452Y02678*
X01452Y02678*
X01452Y02678*
X01452Y02678*
X01452Y02678*
X01452Y02677*
X01452Y02677*
X01452Y02677*
X01452Y02677*
X01452Y02677*
X01453Y02677*
X01453Y02677*
X01453Y02677*
X01453Y02677*
X01453Y02677*
X01453Y02677*
X01453Y02677*
X01453Y02677*
X01454Y02677*
X01454Y02677*
X01454*
X01454Y02677*
X01454Y02677*
X01454Y02677*
X01454Y02677*
X01455Y02677*
X01455Y02677*
X01455Y02677*
X01455Y02677*
X01455Y02677*
X01455Y02677*
X01455Y02677*
X01455Y02677*
X01455Y02677*
X01455Y02677*
X01456Y02678*
X01456Y02678*
X01456Y02678*
X01456Y02678*
X01456Y02678*
X01456Y02678*
X01456Y02678*
X01456Y02679*
X01605Y02574D02*
D01*
X01605Y02574*
X01605Y02574*
X01605Y02574*
X01605Y02574*
X01605Y02574*
X01605Y02574*
X01605Y02574*
X01605Y02575*
X01605Y02575*
X01605Y02575*
X01605Y02575*
X01605Y02575*
X01605Y02575*
X01605Y02575*
X01604Y02575*
X01604Y02575*
X01604Y02575*
X01604Y02575*
X01604Y02575*
X01604Y02575*
X01604Y02575*
X01603Y02575*
X01603*
X01603Y02575*
X01603Y02575*
X01603Y02575*
X01603Y02575*
X01603Y02575*
X01603Y02575*
X01602Y02575*
X01602Y02575*
X01602Y02575*
X01602Y02575*
X01602Y02575*
X01602Y02575*
X01602Y02575*
X01602Y02575*
X01602Y02574*
X01602Y02574*
X01602Y02574*
X01601Y02574*
X01601Y02574*
X01601Y02574*
X01601Y02574*
X01601Y02574*
X01601Y02573*
X01601Y02573*
X01601Y02573*
X01601Y02573*
X01602Y02573*
X01602Y02573*
X01602Y02573*
X01602Y02572*
X01602Y02572*
X01602Y02572*
X01602Y02572*
X01602Y02572*
X01602Y02572*
X01602Y02572*
X01602Y02572*
X01603Y02572*
X01603Y02572*
X01603Y02572*
X01603Y02572*
X01603Y02572*
X01603Y02572*
X01603Y02572*
X01603*
X01604Y02572*
X01604Y02572*
X01604Y02572*
X01604Y02572*
X01604Y02572*
X01604Y02572*
X01604Y02572*
X01605Y02572*
X01605Y02572*
X01605Y02572*
X01605Y02572*
X01605Y02572*
X01605Y02572*
X01605Y02572*
X01605Y02573*
X01605Y02573*
X01605Y02573*
X01605Y02573*
X01605Y02573*
X01605Y02573*
X01605Y02573*
X01605Y02574*
X01012Y0256D02*
D01*
X01011Y0256*
X01011Y0256*
X01011Y0256*
X01011Y0256*
X01011Y0256*
X01011Y0256*
X01011Y0256*
X01011Y02561*
X01011Y02561*
X01011Y02561*
X01011Y02561*
X01011Y02561*
X01011Y02561*
X01011Y02561*
X01011Y02561*
X0101Y02561*
X0101Y02561*
X0101Y02561*
X0101Y02561*
X0101Y02561*
X0101Y02561*
X0101Y02561*
X01009*
X01009Y02561*
X01009Y02561*
X01009Y02561*
X01009Y02561*
X01009Y02561*
X01009Y02561*
X01009Y02561*
X01008Y02561*
X01008Y02561*
X01008Y02561*
X01008Y02561*
X01008Y02561*
X01008Y02561*
X01008Y02561*
X01008Y0256*
X01008Y0256*
X01008Y0256*
X01008Y0256*
X01008Y0256*
X01008Y0256*
X01008Y0256*
X01008Y0256*
X01008Y02559*
X01008Y02559*
X01008Y02559*
X01008Y02559*
X01008Y02559*
X01008Y02559*
X01008Y02559*
X01008Y02558*
X01008Y02558*
X01008Y02558*
X01008Y02558*
X01008Y02558*
X01008Y02558*
X01008Y02558*
X01009Y02558*
X01009Y02558*
X01009Y02558*
X01009Y02558*
X01009Y02558*
X01009Y02558*
X01009Y02558*
X01009Y02558*
X0101*
X0101Y02558*
X0101Y02558*
X0101Y02558*
X0101Y02558*
X0101Y02558*
X0101Y02558*
X01011Y02558*
X01011Y02558*
X01011Y02558*
X01011Y02558*
X01011Y02558*
X01011Y02558*
X01011Y02558*
X01011Y02558*
X01011Y02559*
X01011Y02559*
X01011Y02559*
X01011Y02559*
X01011Y02559*
X01011Y02559*
X01011Y02559*
X01012Y0256*
X00892Y02685D02*
D01*
X00891Y02685*
X00891Y02685*
X00891Y02685*
X00891Y02685*
X00891Y02685*
X00891Y02685*
X00891Y02685*
X00891Y02686*
X00891Y02686*
X00891Y02686*
X00891Y02686*
X00891Y02686*
X00891Y02686*
X00891Y02686*
X00891Y02686*
X0089Y02686*
X0089Y02686*
X0089Y02686*
X0089Y02686*
X0089Y02686*
X0089Y02686*
X0089Y02686*
X00889*
X00889Y02686*
X00889Y02686*
X00889Y02686*
X00889Y02686*
X00889Y02686*
X00889Y02686*
X00889Y02686*
X00888Y02686*
X00888Y02686*
X00888Y02686*
X00888Y02686*
X00888Y02686*
X00888Y02686*
X00888Y02686*
X00888Y02685*
X00888Y02685*
X00888Y02685*
X00888Y02685*
X00888Y02685*
X00888Y02685*
X00888Y02685*
X00888Y02685*
X00888Y02684*
X00888Y02684*
X00888Y02684*
X00888Y02684*
X00888Y02684*
X00888Y02684*
X00888Y02684*
X00888Y02683*
X00888Y02683*
X00888Y02683*
X00888Y02683*
X00888Y02683*
X00888Y02683*
X00888Y02683*
X00889Y02683*
X00889Y02683*
X00889Y02683*
X00889Y02683*
X00889Y02683*
X00889Y02683*
X00889Y02683*
X00889Y02683*
X0089*
X0089Y02683*
X0089Y02683*
X0089Y02683*
X0089Y02683*
X0089Y02683*
X0089Y02683*
X00891Y02683*
X00891Y02683*
X00891Y02683*
X00891Y02683*
X00891Y02683*
X00891Y02683*
X00891Y02683*
X00891Y02683*
X00891Y02684*
X00891Y02684*
X00891Y02684*
X00891Y02684*
X00891Y02684*
X00891Y02684*
X00891Y02684*
X00892Y02685*
X00922Y02295D02*
D01*
X00921Y02295*
X00921Y02295*
X00921Y02295*
X00921Y02295*
X00921Y02295*
X00921Y02295*
X00921Y02295*
X00921Y02296*
X00921Y02296*
X00921Y02296*
X00921Y02296*
X00921Y02296*
X00921Y02296*
X00921Y02296*
X00921Y02296*
X0092Y02296*
X0092Y02296*
X0092Y02296*
X0092Y02296*
X0092Y02296*
X0092Y02296*
X0092Y02296*
X00919*
X00919Y02296*
X00919Y02296*
X00919Y02296*
X00919Y02296*
X00919Y02296*
X00919Y02296*
X00919Y02296*
X00918Y02296*
X00918Y02296*
X00918Y02296*
X00918Y02296*
X00918Y02296*
X00918Y02296*
X00918Y02296*
X00918Y02295*
X00918Y02295*
X00918Y02295*
X00918Y02295*
X00918Y02295*
X00918Y02295*
X00918Y02295*
X00918Y02295*
X00918Y02294*
X00918Y02294*
X00918Y02294*
X00918Y02294*
X00918Y02294*
X00918Y02294*
X00918Y02294*
X00918Y02293*
X00918Y02293*
X00918Y02293*
X00918Y02293*
X00918Y02293*
X00918Y02293*
X00918Y02293*
X00919Y02293*
X00919Y02293*
X00919Y02293*
X00919Y02293*
X00919Y02293*
X00919Y02293*
X00919Y02293*
X00919Y02293*
X0092*
X0092Y02293*
X0092Y02293*
X0092Y02293*
X0092Y02293*
X0092Y02293*
X0092Y02293*
X00921Y02293*
X00921Y02293*
X00921Y02293*
X00921Y02293*
X00921Y02293*
X00921Y02293*
X00921Y02293*
X00921Y02293*
X00921Y02294*
X00921Y02294*
X00921Y02294*
X00921Y02294*
X00921Y02294*
X00921Y02294*
X00921Y02294*
X00922Y02295*
X00765Y02589D02*
D01*
X00765Y02589*
X00765Y02589*
X00765Y02589*
X00765Y02589*
X00765Y02589*
X00765Y02589*
X00765Y02589*
X00765Y0259*
X00765Y0259*
X00765Y0259*
X00765Y0259*
X00765Y0259*
X00765Y0259*
X00765Y0259*
X00764Y0259*
X00764Y0259*
X00764Y0259*
X00764Y0259*
X00764Y0259*
X00764Y0259*
X00764Y0259*
X00763Y0259*
X00763*
X00763Y0259*
X00763Y0259*
X00763Y0259*
X00763Y0259*
X00763Y0259*
X00763Y0259*
X00762Y0259*
X00762Y0259*
X00762Y0259*
X00762Y0259*
X00762Y0259*
X00762Y0259*
X00762Y0259*
X00762Y0259*
X00762Y02589*
X00762Y02589*
X00762Y02589*
X00761Y02589*
X00761Y02589*
X00761Y02589*
X00761Y02589*
X00761Y02589*
X00761Y02588*
X00761Y02588*
X00761Y02588*
X00761Y02588*
X00762Y02588*
X00762Y02588*
X00762Y02588*
X00762Y02587*
X00762Y02587*
X00762Y02587*
X00762Y02587*
X00762Y02587*
X00762Y02587*
X00762Y02587*
X00762Y02587*
X00763Y02587*
X00763Y02587*
X00763Y02587*
X00763Y02587*
X00763Y02587*
X00763Y02587*
X00763Y02587*
X00763*
X00764Y02587*
X00764Y02587*
X00764Y02587*
X00764Y02587*
X00764Y02587*
X00764Y02587*
X00764Y02587*
X00765Y02587*
X00765Y02587*
X00765Y02587*
X00765Y02587*
X00765Y02587*
X00765Y02587*
X00765Y02587*
X00765Y02588*
X00765Y02588*
X00765Y02588*
X00765Y02588*
X00765Y02588*
X00765Y02588*
X00765Y02588*
X00765Y02589*
X00925Y02394D02*
D01*
X00925Y02394*
X00925Y02394*
X00925Y02394*
X00925Y02394*
X00925Y02394*
X00925Y02394*
X00925Y02394*
X00925Y02395*
X00925Y02395*
X00925Y02395*
X00925Y02395*
X00925Y02395*
X00925Y02395*
X00925Y02395*
X00924Y02395*
X00924Y02395*
X00924Y02395*
X00924Y02395*
X00924Y02395*
X00924Y02395*
X00924Y02395*
X00923Y02395*
X00923*
X00923Y02395*
X00923Y02395*
X00923Y02395*
X00923Y02395*
X00923Y02395*
X00923Y02395*
X00922Y02395*
X00922Y02395*
X00922Y02395*
X00922Y02395*
X00922Y02395*
X00922Y02395*
X00922Y02395*
X00922Y02395*
X00922Y02394*
X00922Y02394*
X00922Y02394*
X00921Y02394*
X00921Y02394*
X00921Y02394*
X00921Y02394*
X00921Y02394*
X00921Y02393*
X00921Y02393*
X00921Y02393*
X00921Y02393*
X00922Y02393*
X00922Y02393*
X00922Y02393*
X00922Y02392*
X00922Y02392*
X00922Y02392*
X00922Y02392*
X00922Y02392*
X00922Y02392*
X00922Y02392*
X00922Y02392*
X00923Y02392*
X00923Y02392*
X00923Y02392*
X00923Y02392*
X00923Y02392*
X00923Y02392*
X00923Y02392*
X00923*
X00924Y02392*
X00924Y02392*
X00924Y02392*
X00924Y02392*
X00924Y02392*
X00924Y02392*
X00924Y02392*
X00925Y02392*
X00925Y02392*
X00925Y02392*
X00925Y02392*
X00925Y02392*
X00925Y02392*
X00925Y02392*
X00925Y02393*
X00925Y02393*
X00925Y02393*
X00925Y02393*
X00925Y02393*
X00925Y02393*
X00925Y02393*
X00925Y02394*
X01085Y02279D02*
D01*
X01085Y02279*
X01085Y02279*
X01085Y02279*
X01085Y02279*
X01085Y02279*
X01085Y02279*
X01085Y02279*
X01085Y0228*
X01085Y0228*
X01085Y0228*
X01085Y0228*
X01085Y0228*
X01085Y0228*
X01085Y0228*
X01084Y0228*
X01084Y0228*
X01084Y0228*
X01084Y0228*
X01084Y0228*
X01084Y0228*
X01084Y0228*
X01083Y0228*
X01083*
X01083Y0228*
X01083Y0228*
X01083Y0228*
X01083Y0228*
X01083Y0228*
X01083Y0228*
X01082Y0228*
X01082Y0228*
X01082Y0228*
X01082Y0228*
X01082Y0228*
X01082Y0228*
X01082Y0228*
X01082Y0228*
X01082Y02279*
X01082Y02279*
X01082Y02279*
X01081Y02279*
X01081Y02279*
X01081Y02279*
X01081Y02279*
X01081Y02279*
X01081Y02278*
X01081Y02278*
X01081Y02278*
X01081Y02278*
X01082Y02278*
X01082Y02278*
X01082Y02278*
X01082Y02277*
X01082Y02277*
X01082Y02277*
X01082Y02277*
X01082Y02277*
X01082Y02277*
X01082Y02277*
X01082Y02277*
X01083Y02277*
X01083Y02277*
X01083Y02277*
X01083Y02277*
X01083Y02277*
X01083Y02277*
X01083Y02277*
X01083*
X01084Y02277*
X01084Y02277*
X01084Y02277*
X01084Y02277*
X01084Y02277*
X01084Y02277*
X01084Y02277*
X01085Y02277*
X01085Y02277*
X01085Y02277*
X01085Y02277*
X01085Y02277*
X01085Y02277*
X01085Y02277*
X01085Y02278*
X01085Y02278*
X01085Y02278*
X01085Y02278*
X01085Y02278*
X01085Y02278*
X01085Y02278*
X01085Y02279*
X0165Y02269D02*
D01*
X0165Y02269*
X0165Y02269*
X0165Y02269*
X0165Y02269*
X0165Y02269*
X0165Y02269*
X0165Y02269*
X0165Y0227*
X0165Y0227*
X0165Y0227*
X0165Y0227*
X0165Y0227*
X0165Y0227*
X0165Y0227*
X01649Y0227*
X01649Y0227*
X01649Y0227*
X01649Y0227*
X01649Y0227*
X01649Y0227*
X01649Y0227*
X01648Y0227*
X01648*
X01648Y0227*
X01648Y0227*
X01648Y0227*
X01648Y0227*
X01648Y0227*
X01648Y0227*
X01647Y0227*
X01647Y0227*
X01647Y0227*
X01647Y0227*
X01647Y0227*
X01647Y0227*
X01647Y0227*
X01647Y0227*
X01647Y02269*
X01647Y02269*
X01647Y02269*
X01646Y02269*
X01646Y02269*
X01646Y02269*
X01646Y02269*
X01646Y02269*
X01646Y02268*
X01646Y02268*
X01646Y02268*
X01646Y02268*
X01647Y02268*
X01647Y02268*
X01647Y02268*
X01647Y02267*
X01647Y02267*
X01647Y02267*
X01647Y02267*
X01647Y02267*
X01647Y02267*
X01647Y02267*
X01647Y02267*
X01648Y02267*
X01648Y02267*
X01648Y02267*
X01648Y02267*
X01648Y02267*
X01648Y02267*
X01648Y02267*
X01648*
X01649Y02267*
X01649Y02267*
X01649Y02267*
X01649Y02267*
X01649Y02267*
X01649Y02267*
X01649Y02267*
X0165Y02267*
X0165Y02267*
X0165Y02267*
X0165Y02267*
X0165Y02267*
X0165Y02267*
X0165Y02267*
X0165Y02268*
X0165Y02268*
X0165Y02268*
X0165Y02268*
X0165Y02268*
X0165Y02268*
X0165Y02268*
X0165Y02269*
X00765Y02389D02*
D01*
X00765Y02389*
X00765Y02389*
X00765Y02389*
X00765Y02389*
X00765Y02389*
X00765Y02389*
X00765Y02389*
X00765Y0239*
X00765Y0239*
X00765Y0239*
X00765Y0239*
X00765Y0239*
X00765Y0239*
X00765Y0239*
X00764Y0239*
X00764Y0239*
X00764Y0239*
X00764Y0239*
X00764Y0239*
X00764Y0239*
X00764Y0239*
X00763Y0239*
X00763*
X00763Y0239*
X00763Y0239*
X00763Y0239*
X00763Y0239*
X00763Y0239*
X00763Y0239*
X00762Y0239*
X00762Y0239*
X00762Y0239*
X00762Y0239*
X00762Y0239*
X00762Y0239*
X00762Y0239*
X00762Y0239*
X00762Y02389*
X00762Y02389*
X00762Y02389*
X00761Y02389*
X00761Y02389*
X00761Y02389*
X00761Y02389*
X00761Y02389*
X00761Y02388*
X00761Y02388*
X00761Y02388*
X00761Y02388*
X00762Y02388*
X00762Y02388*
X00762Y02388*
X00762Y02387*
X00762Y02387*
X00762Y02387*
X00762Y02387*
X00762Y02387*
X00762Y02387*
X00762Y02387*
X00762Y02387*
X00763Y02387*
X00763Y02387*
X00763Y02387*
X00763Y02387*
X00763Y02387*
X00763Y02387*
X00763Y02387*
X00763*
X00764Y02387*
X00764Y02387*
X00764Y02387*
X00764Y02387*
X00764Y02387*
X00764Y02387*
X00764Y02387*
X00765Y02387*
X00765Y02387*
X00765Y02387*
X00765Y02387*
X00765Y02387*
X00765Y02387*
X00765Y02387*
X00765Y02388*
X00765Y02388*
X00765Y02388*
X00765Y02388*
X00765Y02388*
X00765Y02388*
X00765Y02388*
X00765Y02389*
X0204Y03304D02*
D01*
X0204Y03304*
X0204Y03304*
X0204Y03304*
X0204Y03304*
X0204Y03304*
X0204Y03304*
X0204Y03304*
X0204Y03305*
X0204Y03305*
X0204Y03305*
X0204Y03305*
X0204Y03305*
X0204Y03305*
X0204Y03305*
X02039Y03305*
X02039Y03305*
X02039Y03305*
X02039Y03305*
X02039Y03305*
X02039Y03305*
X02039Y03305*
X02038Y03305*
X02038*
X02038Y03305*
X02038Y03305*
X02038Y03305*
X02038Y03305*
X02038Y03305*
X02038Y03305*
X02037Y03305*
X02037Y03305*
X02037Y03305*
X02037Y03305*
X02037Y03305*
X02037Y03305*
X02037Y03305*
X02037Y03305*
X02037Y03304*
X02037Y03304*
X02037Y03304*
X02036Y03304*
X02036Y03304*
X02036Y03304*
X02036Y03304*
X02036Y03304*
X02036Y03303*
X02036Y03303*
X02036Y03303*
X02036Y03303*
X02037Y03303*
X02037Y03303*
X02037Y03303*
X02037Y03302*
X02037Y03302*
X02037Y03302*
X02037Y03302*
X02037Y03302*
X02037Y03302*
X02037Y03302*
X02037Y03302*
X02038Y03302*
X02038Y03302*
X02038Y03302*
X02038Y03302*
X02038Y03302*
X02038Y03302*
X02038Y03302*
X02038*
X02039Y03302*
X02039Y03302*
X02039Y03302*
X02039Y03302*
X02039Y03302*
X02039Y03302*
X02039Y03302*
X0204Y03302*
X0204Y03302*
X0204Y03302*
X0204Y03302*
X0204Y03302*
X0204Y03302*
X0204Y03302*
X0204Y03303*
X0204Y03303*
X0204Y03303*
X0204Y03303*
X0204Y03303*
X0204Y03303*
X0204Y03303*
X0204Y03304*
X0236Y03394D02*
D01*
X0236Y03394*
X0236Y03394*
X0236Y03394*
X0236Y03394*
X0236Y03394*
X0236Y03394*
X0236Y03394*
X0236Y03395*
X0236Y03395*
X0236Y03395*
X0236Y03395*
X0236Y03395*
X0236Y03395*
X0236Y03395*
X02359Y03395*
X02359Y03395*
X02359Y03395*
X02359Y03395*
X02359Y03395*
X02359Y03395*
X02359Y03395*
X02358Y03395*
X02358*
X02358Y03395*
X02358Y03395*
X02358Y03395*
X02358Y03395*
X02358Y03395*
X02358Y03395*
X02357Y03395*
X02357Y03395*
X02357Y03395*
X02357Y03395*
X02357Y03395*
X02357Y03395*
X02357Y03395*
X02357Y03395*
X02357Y03394*
X02357Y03394*
X02357Y03394*
X02356Y03394*
X02356Y03394*
X02356Y03394*
X02356Y03394*
X02356Y03394*
X02356Y03393*
X02356Y03393*
X02356Y03393*
X02356Y03393*
X02357Y03393*
X02357Y03393*
X02357Y03393*
X02357Y03392*
X02357Y03392*
X02357Y03392*
X02357Y03392*
X02357Y03392*
X02357Y03392*
X02357Y03392*
X02357Y03392*
X02358Y03392*
X02358Y03392*
X02358Y03392*
X02358Y03392*
X02358Y03392*
X02358Y03392*
X02358Y03392*
X02358*
X02359Y03392*
X02359Y03392*
X02359Y03392*
X02359Y03392*
X02359Y03392*
X02359Y03392*
X02359Y03392*
X0236Y03392*
X0236Y03392*
X0236Y03392*
X0236Y03392*
X0236Y03392*
X0236Y03392*
X0236Y03392*
X0236Y03393*
X0236Y03393*
X0236Y03393*
X0236Y03393*
X0236Y03393*
X0236Y03393*
X0236Y03393*
X0236Y03394*
X02045Y02249D02*
D01*
X02045Y02249*
X02045Y02249*
X02045Y02249*
X02045Y02249*
X02045Y02249*
X02045Y02249*
X02045Y02249*
X02045Y0225*
X02045Y0225*
X02045Y0225*
X02045Y0225*
X02045Y0225*
X02045Y0225*
X02045Y0225*
X02044Y0225*
X02044Y0225*
X02044Y0225*
X02044Y0225*
X02044Y0225*
X02044Y0225*
X02044Y0225*
X02043Y0225*
X02043*
X02043Y0225*
X02043Y0225*
X02043Y0225*
X02043Y0225*
X02043Y0225*
X02043Y0225*
X02042Y0225*
X02042Y0225*
X02042Y0225*
X02042Y0225*
X02042Y0225*
X02042Y0225*
X02042Y0225*
X02042Y0225*
X02042Y02249*
X02042Y02249*
X02042Y02249*
X02041Y02249*
X02041Y02249*
X02041Y02249*
X02041Y02249*
X02041Y02249*
X02041Y02248*
X02041Y02248*
X02041Y02248*
X02041Y02248*
X02042Y02248*
X02042Y02248*
X02042Y02248*
X02042Y02247*
X02042Y02247*
X02042Y02247*
X02042Y02247*
X02042Y02247*
X02042Y02247*
X02042Y02247*
X02042Y02247*
X02043Y02247*
X02043Y02247*
X02043Y02247*
X02043Y02247*
X02043Y02247*
X02043Y02247*
X02043Y02247*
X02043*
X02044Y02247*
X02044Y02247*
X02044Y02247*
X02044Y02247*
X02044Y02247*
X02044Y02247*
X02044Y02247*
X02045Y02247*
X02045Y02247*
X02045Y02247*
X02045Y02247*
X02045Y02247*
X02045Y02247*
X02045Y02247*
X02045Y02248*
X02045Y02248*
X02045Y02248*
X02045Y02248*
X02045Y02248*
X02045Y02248*
X02045Y02248*
X02045Y02249*
X0222Y02264D02*
D01*
X0222Y02264*
X0222Y02264*
X0222Y02264*
X0222Y02264*
X0222Y02264*
X0222Y02264*
X0222Y02264*
X0222Y02265*
X0222Y02265*
X0222Y02265*
X0222Y02265*
X0222Y02265*
X0222Y02265*
X0222Y02265*
X02219Y02265*
X02219Y02265*
X02219Y02265*
X02219Y02265*
X02219Y02265*
X02219Y02265*
X02219Y02265*
X02218Y02265*
X02218*
X02218Y02265*
X02218Y02265*
X02218Y02265*
X02218Y02265*
X02218Y02265*
X02218Y02265*
X02217Y02265*
X02217Y02265*
X02217Y02265*
X02217Y02265*
X02217Y02265*
X02217Y02265*
X02217Y02265*
X02217Y02265*
X02217Y02264*
X02217Y02264*
X02217Y02264*
X02216Y02264*
X02216Y02264*
X02216Y02264*
X02216Y02264*
X02216Y02264*
X02216Y02263*
X02216Y02263*
X02216Y02263*
X02216Y02263*
X02217Y02263*
X02217Y02263*
X02217Y02263*
X02217Y02262*
X02217Y02262*
X02217Y02262*
X02217Y02262*
X02217Y02262*
X02217Y02262*
X02217Y02262*
X02217Y02262*
X02218Y02262*
X02218Y02262*
X02218Y02262*
X02218Y02262*
X02218Y02262*
X02218Y02262*
X02218Y02262*
X02218*
X02219Y02262*
X02219Y02262*
X02219Y02262*
X02219Y02262*
X02219Y02262*
X02219Y02262*
X02219Y02262*
X0222Y02262*
X0222Y02262*
X0222Y02262*
X0222Y02262*
X0222Y02262*
X0222Y02262*
X0222Y02262*
X0222Y02263*
X0222Y02263*
X0222Y02263*
X0222Y02263*
X0222Y02263*
X0222Y02263*
X0222Y02263*
X0222Y02264*
X0187Y02249D02*
D01*
X0187Y02249*
X0187Y02249*
X0187Y02249*
X0187Y02249*
X0187Y02249*
X0187Y02249*
X0187Y02249*
X0187Y0225*
X0187Y0225*
X0187Y0225*
X0187Y0225*
X0187Y0225*
X0187Y0225*
X0187Y0225*
X01869Y0225*
X01869Y0225*
X01869Y0225*
X01869Y0225*
X01869Y0225*
X01869Y0225*
X01869Y0225*
X01868Y0225*
X01868*
X01868Y0225*
X01868Y0225*
X01868Y0225*
X01868Y0225*
X01868Y0225*
X01868Y0225*
X01867Y0225*
X01867Y0225*
X01867Y0225*
X01867Y0225*
X01867Y0225*
X01867Y0225*
X01867Y0225*
X01867Y0225*
X01867Y02249*
X01867Y02249*
X01867Y02249*
X01866Y02249*
X01866Y02249*
X01866Y02249*
X01866Y02249*
X01866Y02249*
X01866Y02248*
X01866Y02248*
X01866Y02248*
X01866Y02248*
X01867Y02248*
X01867Y02248*
X01867Y02248*
X01867Y02247*
X01867Y02247*
X01867Y02247*
X01867Y02247*
X01867Y02247*
X01867Y02247*
X01867Y02247*
X01867Y02247*
X01868Y02247*
X01868Y02247*
X01868Y02247*
X01868Y02247*
X01868Y02247*
X01868Y02247*
X01868Y02247*
X01868*
X01869Y02247*
X01869Y02247*
X01869Y02247*
X01869Y02247*
X01869Y02247*
X01869Y02247*
X01869Y02247*
X0187Y02247*
X0187Y02247*
X0187Y02247*
X0187Y02247*
X0187Y02247*
X0187Y02247*
X0187Y02247*
X0187Y02248*
X0187Y02248*
X0187Y02248*
X0187Y02248*
X0187Y02248*
X0187Y02248*
X0187Y02248*
X0187Y02249*
X01905Y02674D02*
D01*
X01905Y02674*
X01905Y02674*
X01905Y02674*
X01905Y02674*
X01905Y02674*
X01905Y02674*
X01905Y02674*
X01905Y02675*
X01905Y02675*
X01905Y02675*
X01905Y02675*
X01905Y02675*
X01905Y02675*
X01905Y02675*
X01904Y02675*
X01904Y02675*
X01904Y02675*
X01904Y02675*
X01904Y02675*
X01904Y02675*
X01904Y02675*
X01903Y02675*
X01903*
X01903Y02675*
X01903Y02675*
X01903Y02675*
X01903Y02675*
X01903Y02675*
X01903Y02675*
X01902Y02675*
X01902Y02675*
X01902Y02675*
X01902Y02675*
X01902Y02675*
X01902Y02675*
X01902Y02675*
X01902Y02675*
X01902Y02674*
X01902Y02674*
X01902Y02674*
X01901Y02674*
X01901Y02674*
X01901Y02674*
X01901Y02674*
X01901Y02674*
X01901Y02673*
X01901Y02673*
X01901Y02673*
X01901Y02673*
X01902Y02673*
X01902Y02673*
X01902Y02673*
X01902Y02672*
X01902Y02672*
X01902Y02672*
X01902Y02672*
X01902Y02672*
X01902Y02672*
X01902Y02672*
X01902Y02672*
X01903Y02672*
X01903Y02672*
X01903Y02672*
X01903Y02672*
X01903Y02672*
X01903Y02672*
X01903Y02672*
X01903*
X01904Y02672*
X01904Y02672*
X01904Y02672*
X01904Y02672*
X01904Y02672*
X01904Y02672*
X01904Y02672*
X01905Y02672*
X01905Y02672*
X01905Y02672*
X01905Y02672*
X01905Y02672*
X01905Y02672*
X01905Y02672*
X01905Y02673*
X01905Y02673*
X01905Y02673*
X01905Y02673*
X01905Y02673*
X01905Y02673*
X01905Y02673*
X01905Y02674*
X01895Y02579D02*
D01*
X01895Y02579*
X01895Y02579*
X01895Y02579*
X01895Y02579*
X01895Y02579*
X01895Y02579*
X01895Y02579*
X01895Y0258*
X01895Y0258*
X01895Y0258*
X01895Y0258*
X01895Y0258*
X01895Y0258*
X01895Y0258*
X01894Y0258*
X01894Y0258*
X01894Y0258*
X01894Y0258*
X01894Y0258*
X01894Y0258*
X01894Y0258*
X01893Y0258*
X01893*
X01893Y0258*
X01893Y0258*
X01893Y0258*
X01893Y0258*
X01893Y0258*
X01893Y0258*
X01892Y0258*
X01892Y0258*
X01892Y0258*
X01892Y0258*
X01892Y0258*
X01892Y0258*
X01892Y0258*
X01892Y0258*
X01892Y02579*
X01892Y02579*
X01892Y02579*
X01891Y02579*
X01891Y02579*
X01891Y02579*
X01891Y02579*
X01891Y02579*
X01891Y02578*
X01891Y02578*
X01891Y02578*
X01891Y02578*
X01892Y02578*
X01892Y02578*
X01892Y02578*
X01892Y02577*
X01892Y02577*
X01892Y02577*
X01892Y02577*
X01892Y02577*
X01892Y02577*
X01892Y02577*
X01892Y02577*
X01893Y02577*
X01893Y02577*
X01893Y02577*
X01893Y02577*
X01893Y02577*
X01893Y02577*
X01893Y02577*
X01893*
X01894Y02577*
X01894Y02577*
X01894Y02577*
X01894Y02577*
X01894Y02577*
X01894Y02577*
X01894Y02577*
X01895Y02577*
X01895Y02577*
X01895Y02577*
X01895Y02577*
X01895Y02577*
X01895Y02577*
X01895Y02577*
X01895Y02578*
X01895Y02578*
X01895Y02578*
X01895Y02578*
X01895Y02578*
X01895Y02578*
X01895Y02578*
X01895Y02579*
X01892Y02375D02*
D01*
X01891Y02375*
X01891Y02375*
X01891Y02375*
X01891Y02375*
X01891Y02375*
X01891Y02375*
X01891Y02375*
X01891Y02376*
X01891Y02376*
X01891Y02376*
X01891Y02376*
X01891Y02376*
X01891Y02376*
X01891Y02376*
X01891Y02376*
X0189Y02376*
X0189Y02376*
X0189Y02376*
X0189Y02376*
X0189Y02376*
X0189Y02376*
X0189Y02376*
X01889*
X01889Y02376*
X01889Y02376*
X01889Y02376*
X01889Y02376*
X01889Y02376*
X01889Y02376*
X01889Y02376*
X01888Y02376*
X01888Y02376*
X01888Y02376*
X01888Y02376*
X01888Y02376*
X01888Y02376*
X01888Y02376*
X01888Y02375*
X01888Y02375*
X01888Y02375*
X01888Y02375*
X01888Y02375*
X01888Y02375*
X01888Y02375*
X01888Y02375*
X01888Y02374*
X01888Y02374*
X01888Y02374*
X01888Y02374*
X01888Y02374*
X01888Y02374*
X01888Y02374*
X01888Y02373*
X01888Y02373*
X01888Y02373*
X01888Y02373*
X01888Y02373*
X01888Y02373*
X01888Y02373*
X01889Y02373*
X01889Y02373*
X01889Y02373*
X01889Y02373*
X01889Y02373*
X01889Y02373*
X01889Y02373*
X01889Y02373*
X0189*
X0189Y02373*
X0189Y02373*
X0189Y02373*
X0189Y02373*
X0189Y02373*
X0189Y02373*
X01891Y02373*
X01891Y02373*
X01891Y02373*
X01891Y02373*
X01891Y02373*
X01891Y02373*
X01891Y02373*
X01891Y02373*
X01891Y02374*
X01891Y02374*
X01891Y02374*
X01891Y02374*
X01891Y02374*
X01891Y02374*
X01891Y02374*
X01892Y02375*
X02057D02*
D01*
X02056Y02375*
X02056Y02375*
X02056Y02375*
X02056Y02375*
X02056Y02375*
X02056Y02375*
X02056Y02375*
X02056Y02376*
X02056Y02376*
X02056Y02376*
X02056Y02376*
X02056Y02376*
X02056Y02376*
X02056Y02376*
X02056Y02376*
X02055Y02376*
X02055Y02376*
X02055Y02376*
X02055Y02376*
X02055Y02376*
X02055Y02376*
X02055Y02376*
X02054*
X02054Y02376*
X02054Y02376*
X02054Y02376*
X02054Y02376*
X02054Y02376*
X02054Y02376*
X02054Y02376*
X02053Y02376*
X02053Y02376*
X02053Y02376*
X02053Y02376*
X02053Y02376*
X02053Y02376*
X02053Y02376*
X02053Y02375*
X02053Y02375*
X02053Y02375*
X02053Y02375*
X02053Y02375*
X02053Y02375*
X02053Y02375*
X02053Y02375*
X02053Y02374*
X02053Y02374*
X02053Y02374*
X02053Y02374*
X02053Y02374*
X02053Y02374*
X02053Y02374*
X02053Y02373*
X02053Y02373*
X02053Y02373*
X02053Y02373*
X02053Y02373*
X02053Y02373*
X02053Y02373*
X02054Y02373*
X02054Y02373*
X02054Y02373*
X02054Y02373*
X02054Y02373*
X02054Y02373*
X02054Y02373*
X02054Y02373*
X02055*
X02055Y02373*
X02055Y02373*
X02055Y02373*
X02055Y02373*
X02055Y02373*
X02055Y02373*
X02056Y02373*
X02056Y02373*
X02056Y02373*
X02056Y02373*
X02056Y02373*
X02056Y02373*
X02056Y02373*
X02056Y02373*
X02056Y02374*
X02056Y02374*
X02056Y02374*
X02056Y02374*
X02056Y02374*
X02056Y02374*
X02056Y02374*
X02057Y02375*
X02025Y02669D02*
D01*
X02025Y02669*
X02025Y02669*
X02025Y02669*
X02025Y02669*
X02025Y02669*
X02025Y02669*
X02025Y02669*
X02025Y0267*
X02025Y0267*
X02025Y0267*
X02025Y0267*
X02025Y0267*
X02025Y0267*
X02025Y0267*
X02024Y0267*
X02024Y0267*
X02024Y0267*
X02024Y0267*
X02024Y0267*
X02024Y0267*
X02024Y0267*
X02023Y0267*
X02023*
X02023Y0267*
X02023Y0267*
X02023Y0267*
X02023Y0267*
X02023Y0267*
X02023Y0267*
X02022Y0267*
X02022Y0267*
X02022Y0267*
X02022Y0267*
X02022Y0267*
X02022Y0267*
X02022Y0267*
X02022Y0267*
X02022Y02669*
X02022Y02669*
X02022Y02669*
X02021Y02669*
X02021Y02669*
X02021Y02669*
X02021Y02669*
X02021Y02669*
X02021Y02668*
X02021Y02668*
X02021Y02668*
X02021Y02668*
X02022Y02668*
X02022Y02668*
X02022Y02668*
X02022Y02667*
X02022Y02667*
X02022Y02667*
X02022Y02667*
X02022Y02667*
X02022Y02667*
X02022Y02667*
X02022Y02667*
X02023Y02667*
X02023Y02667*
X02023Y02667*
X02023Y02667*
X02023Y02667*
X02023Y02667*
X02023Y02667*
X02023*
X02024Y02667*
X02024Y02667*
X02024Y02667*
X02024Y02667*
X02024Y02667*
X02024Y02667*
X02024Y02667*
X02025Y02667*
X02025Y02667*
X02025Y02667*
X02025Y02667*
X02025Y02667*
X02025Y02667*
X02025Y02667*
X02025Y02668*
X02025Y02668*
X02025Y02668*
X02025Y02668*
X02025Y02668*
X02025Y02668*
X02025Y02668*
X02025Y02669*
X02775Y02269D02*
D01*
X02775Y02269*
X02775Y02269*
X02775Y02269*
X02775Y02269*
X02775Y02269*
X02775Y02269*
X02775Y02269*
X02775Y0227*
X02775Y0227*
X02775Y0227*
X02775Y0227*
X02775Y0227*
X02775Y0227*
X02775Y0227*
X02774Y0227*
X02774Y0227*
X02774Y0227*
X02774Y0227*
X02774Y0227*
X02774Y0227*
X02774Y0227*
X02773Y0227*
X02773*
X02773Y0227*
X02773Y0227*
X02773Y0227*
X02773Y0227*
X02773Y0227*
X02773Y0227*
X02772Y0227*
X02772Y0227*
X02772Y0227*
X02772Y0227*
X02772Y0227*
X02772Y0227*
X02772Y0227*
X02772Y0227*
X02772Y02269*
X02772Y02269*
X02772Y02269*
X02771Y02269*
X02771Y02269*
X02771Y02269*
X02771Y02269*
X02771Y02269*
X02771Y02268*
X02771Y02268*
X02771Y02268*
X02771Y02268*
X02772Y02268*
X02772Y02268*
X02772Y02268*
X02772Y02267*
X02772Y02267*
X02772Y02267*
X02772Y02267*
X02772Y02267*
X02772Y02267*
X02772Y02267*
X02772Y02267*
X02773Y02267*
X02773Y02267*
X02773Y02267*
X02773Y02267*
X02773Y02267*
X02773Y02267*
X02773Y02267*
X02773*
X02774Y02267*
X02774Y02267*
X02774Y02267*
X02774Y02267*
X02774Y02267*
X02774Y02267*
X02774Y02267*
X02775Y02267*
X02775Y02267*
X02775Y02267*
X02775Y02267*
X02775Y02267*
X02775Y02267*
X02775Y02267*
X02775Y02268*
X02775Y02268*
X02775Y02268*
X02775Y02268*
X02775Y02268*
X02775Y02268*
X02775Y02268*
X02775Y02269*
X0204Y03159D02*
D01*
X0204Y03159*
X0204Y03159*
X0204Y03159*
X0204Y03159*
X0204Y03159*
X0204Y03159*
X0204Y03159*
X0204Y0316*
X0204Y0316*
X0204Y0316*
X0204Y0316*
X0204Y0316*
X0204Y0316*
X0204Y0316*
X02039Y0316*
X02039Y0316*
X02039Y0316*
X02039Y0316*
X02039Y0316*
X02039Y0316*
X02039Y0316*
X02038Y0316*
X02038*
X02038Y0316*
X02038Y0316*
X02038Y0316*
X02038Y0316*
X02038Y0316*
X02038Y0316*
X02037Y0316*
X02037Y0316*
X02037Y0316*
X02037Y0316*
X02037Y0316*
X02037Y0316*
X02037Y0316*
X02037Y0316*
X02037Y03159*
X02037Y03159*
X02037Y03159*
X02036Y03159*
X02036Y03159*
X02036Y03159*
X02036Y03159*
X02036Y03159*
X02036Y03158*
X02036Y03158*
X02036Y03158*
X02036Y03158*
X02037Y03158*
X02037Y03158*
X02037Y03158*
X02037Y03157*
X02037Y03157*
X02037Y03157*
X02037Y03157*
X02037Y03157*
X02037Y03157*
X02037Y03157*
X02037Y03157*
X02038Y03157*
X02038Y03157*
X02038Y03157*
X02038Y03157*
X02038Y03157*
X02038Y03157*
X02038Y03157*
X02038*
X02039Y03157*
X02039Y03157*
X02039Y03157*
X02039Y03157*
X02039Y03157*
X02039Y03157*
X02039Y03157*
X0204Y03157*
X0204Y03157*
X0204Y03157*
X0204Y03157*
X0204Y03157*
X0204Y03157*
X0204Y03157*
X0204Y03158*
X0204Y03158*
X0204Y03158*
X0204Y03158*
X0204Y03158*
X0204Y03158*
X0204Y03158*
X0204Y03159*
X01935Y03524D02*
D01*
X01935Y03524*
X01935Y03524*
X01935Y03524*
X01935Y03524*
X01935Y03524*
X01935Y03524*
X01935Y03524*
X01935Y03525*
X01935Y03525*
X01935Y03525*
X01935Y03525*
X01935Y03525*
X01935Y03525*
X01935Y03525*
X01934Y03525*
X01934Y03525*
X01934Y03525*
X01934Y03525*
X01934Y03525*
X01934Y03525*
X01934Y03525*
X01933Y03525*
X01933*
X01933Y03525*
X01933Y03525*
X01933Y03525*
X01933Y03525*
X01933Y03525*
X01933Y03525*
X01932Y03525*
X01932Y03525*
X01932Y03525*
X01932Y03525*
X01932Y03525*
X01932Y03525*
X01932Y03525*
X01932Y03525*
X01932Y03524*
X01932Y03524*
X01932Y03524*
X01931Y03524*
X01931Y03524*
X01931Y03524*
X01931Y03524*
X01931Y03524*
X01931Y03523*
X01931Y03523*
X01931Y03523*
X01931Y03523*
X01932Y03523*
X01932Y03523*
X01932Y03523*
X01932Y03522*
X01932Y03522*
X01932Y03522*
X01932Y03522*
X01932Y03522*
X01932Y03522*
X01932Y03522*
X01932Y03522*
X01933Y03522*
X01933Y03522*
X01933Y03522*
X01933Y03522*
X01933Y03522*
X01933Y03522*
X01933Y03522*
X01933*
X01934Y03522*
X01934Y03522*
X01934Y03522*
X01934Y03522*
X01934Y03522*
X01934Y03522*
X01934Y03522*
X01935Y03522*
X01935Y03522*
X01935Y03522*
X01935Y03522*
X01935Y03522*
X01935Y03522*
X01935Y03522*
X01935Y03523*
X01935Y03523*
X01935Y03523*
X01935Y03523*
X01935Y03523*
X01935Y03523*
X01935Y03523*
X01935Y03524*
X00606Y02917D02*
X00613D01*
X00606Y02962D02*
X00613D01*
X00606Y02838D02*
X00613D01*
X00606Y02883D02*
X00613D01*
X00606Y02759D02*
X00613D01*
X00606Y02804D02*
X00613D01*
X00606Y0268D02*
X00613D01*
X00606Y02725D02*
X00613D01*
X02761Y02722D02*
X02768D01*
X02761Y02677D02*
X02768D01*
X02761Y02802D02*
X02768D01*
X02761Y02757D02*
X02768D01*
X02761Y02881D02*
X02768D01*
X02761Y02836D02*
X02768D01*
X02761Y0296D02*
X02768D01*
X02761Y02915D02*
X02768D01*
X02348Y03716D02*
Y03823D01*
X01111D02*
X02348D01*
X01111Y03716D02*
Y03823D01*
Y03716D02*
X02348D01*
X00647Y02483D02*
Y02491D01*
X00697Y02483D02*
Y02491D01*
X01885Y02584D02*
Y02663D01*
X01832Y02584D02*
Y02663D01*
X02575Y01035D02*
X02775D01*
X02575Y01535D02*
X02775D01*
Y01035D02*
Y01535D01*
X02575Y01035D02*
Y01535D01*
X02098Y00788D02*
Y00981D01*
Y00788D02*
X02151D01*
Y00981*
X02098D02*
X02151D01*
X01971Y01103D02*
X02038D01*
X01971Y01036D02*
X02038D01*
X01206Y02876D02*
Y02943D01*
X01273Y02876D02*
Y02943D01*
X01086Y02877D02*
Y02943D01*
X01153Y02877D02*
Y02943D01*
X02489Y03426D02*
Y03434D01*
X0244Y03426D02*
Y03434D01*
X02114Y03426D02*
Y03434D01*
X02064Y03426D02*
Y03434D01*
X01424Y03441D02*
Y03449D01*
X01374Y03441D02*
Y03449D01*
X01019Y03441D02*
Y03449D01*
X0097Y03441D02*
Y03449D01*
X01816Y01573D02*
X01883D01*
X01816Y01506D02*
X01883D01*
X01446Y01606D02*
Y01673D01*
X01513Y01606D02*
Y01673D01*
X0217Y01392D02*
X02177D01*
X02032D02*
X02039D01*
X02032Y01148D02*
Y01392D01*
X0217Y01148D02*
X02177D01*
X02032D02*
X02039D01*
X02177D02*
Y01392D01*
X01354Y01586D02*
Y01696D01*
X01425Y01586D02*
Y01696D01*
X01258Y03427D02*
Y03493D01*
X01191Y03427D02*
Y03493D01*
X02372Y0286D02*
Y02927D01*
X02305Y0286D02*
Y02927D01*
X02257Y0286D02*
Y02927D01*
X0219Y0286D02*
Y02927D01*
X01898Y03052D02*
X02029D01*
X01898Y03145D02*
X02029D01*
X02021Y03374D02*
Y03505D01*
X01928Y03374D02*
Y03505D01*
X0252Y02415D02*
X02603D01*
X0252Y02537D02*
X02603D01*
Y02415D02*
Y02537D01*
X0252Y02415D02*
Y02537D01*
X0264Y03373D02*
Y03504D01*
X02547Y03373D02*
Y03504D01*
X02392Y02585D02*
Y02663D01*
X02445Y02585D02*
Y02663D01*
X01965Y02415D02*
X02048D01*
X01965Y02537D02*
X02048D01*
Y02415D02*
Y02537D01*
X01965Y02415D02*
Y02537D01*
X01931Y03197D02*
X01964D01*
X01931Y0327D02*
X01964D01*
X02089Y03091D02*
Y03236D01*
X02475Y03091D02*
Y03236D01*
X02089Y03091D02*
X02475D01*
X02089Y03236D02*
X02475D01*
X01424Y03162D02*
Y03195D01*
X01498Y03162D02*
Y03195D01*
X00826Y03217D02*
X00859D01*
X00826Y0329D02*
X00859D01*
X0139Y0242D02*
Y02542D01*
X01473Y0242D02*
Y02542D01*
X0139D02*
X01473D01*
X0139Y0242D02*
X01473D01*
X0083Y02425D02*
Y02547D01*
X00913Y02425D02*
Y02547D01*
X0083D02*
X00913D01*
X0083Y02425D02*
X00913D01*
X00984Y03251D02*
X0137D01*
X00984Y03106D02*
X0137D01*
Y03251*
X00984Y03106D02*
Y03251D01*
X00832Y02315D02*
Y02374D01*
X00765Y02315D02*
Y02374D01*
X00987Y02319D02*
Y02378D01*
X0092Y02319D02*
Y02378D01*
X01387Y0231D02*
Y02369D01*
X0132Y0231D02*
Y02369D01*
X01547Y02309D02*
Y02368D01*
X0148Y02309D02*
Y02368D01*
X01957Y02299D02*
Y02358D01*
X0189Y02299D02*
Y02358D01*
X02122Y02299D02*
Y02358D01*
X02055Y02299D02*
Y02358D01*
X02512Y023D02*
Y02359D01*
X02445Y023D02*
Y02359D01*
X02677Y02303D02*
Y02362D01*
X0261Y02303D02*
Y02362D01*
X01097Y0248D02*
Y02488D01*
X01048Y0248D02*
Y02488D01*
X01654Y02476D02*
Y02483D01*
X01605Y02476D02*
Y02483D01*
X02232Y02473D02*
Y02481D01*
X02183Y02473D02*
Y02481D01*
X02786Y02469D02*
Y02476D01*
X02737Y02469D02*
Y02476D01*
X01254Y0248D02*
Y02488D01*
X01205Y0248D02*
Y02488D01*
X01782Y02473D02*
Y02481D01*
X01831Y02473D02*
Y02481D01*
X02337Y02473D02*
Y02481D01*
X02387Y02473D02*
Y02481D01*
X00799Y03165D02*
X0093D01*
X00799Y03072D02*
X0093D01*
X01467Y03363D02*
Y03494D01*
X0156Y03363D02*
Y03494D01*
X00828Y03379D02*
Y0351D01*
X00921Y03379D02*
Y0351D01*
X01106Y03426D02*
Y03493D01*
X01173Y03426D02*
Y03493D01*
X02295Y0341D02*
Y03477D01*
X02362Y0341D02*
Y03477D01*
X02272Y0341D02*
Y03477D01*
X02205Y0341D02*
Y03477D01*
X0068Y023D02*
Y02367D01*
X00747Y023D02*
Y02367D01*
X01235Y02295D02*
Y02362D01*
X01302Y02295D02*
Y02362D01*
X01805Y0229D02*
Y02357D01*
X01872Y0229D02*
Y02357D01*
X02365Y0229D02*
Y02357D01*
X02432Y0229D02*
Y02357D01*
X0084Y02217D02*
X00907D01*
X0084Y02284D02*
X00907D01*
X014Y02272D02*
X01467D01*
X014Y02205D02*
X01467D01*
X01971Y0219D02*
X02037D01*
X01971Y02257D02*
X02037D01*
X02525Y02207D02*
X02592D01*
X02525Y02274D02*
X02592D01*
X01005Y02296D02*
Y02363D01*
X01072Y02296D02*
Y02363D01*
X01565Y02291D02*
Y02358D01*
X01632Y02291D02*
Y02358D01*
X0214Y0229D02*
Y02357D01*
X02207Y0229D02*
Y02357D01*
X02695Y02285D02*
Y02352D01*
X02762Y02285D02*
Y02352D01*
X00702Y02595D02*
Y02673D01*
X00755Y02595D02*
Y02673D01*
X01267Y02594D02*
Y02673D01*
X0132Y02594D02*
Y02673D01*
X02529Y03147D02*
Y0318D01*
X02603Y03147D02*
Y0318D01*
X01346Y0174D02*
Y01839D01*
X01263Y0174D02*
Y01839D01*
X01959Y01709D02*
Y0182D01*
X0203Y01709D02*
Y0182D01*
X01835Y01626D02*
Y01693D01*
X01894Y01626D02*
Y01693D01*
X0008Y01022D02*
X00456D01*
X0008Y01557D02*
X00456D01*
X00543Y01022D02*
X00905D01*
X00543Y01557D02*
X00905D01*
X0008Y01022D02*
Y01557D01*
X00905Y01022D02*
Y01557D01*
G54D13*
X0256Y02505D02*
D01*
X0256Y02506*
X0256Y02506*
X02559Y02507*
X02559Y02507*
X02559Y02508*
X02559Y02509*
X02559Y02509*
X02558Y02509*
X02558Y0251*
X02558Y0251*
X02557Y02511*
X02557Y02511*
X02557Y02512*
X02556Y02512*
X02556Y02512*
X02555Y02512*
X02555Y02513*
X02554Y02513*
X02554Y02513*
X02553Y02513*
X02553Y02513*
X02552Y02513*
X02551*
X02551Y02513*
X0255Y02513*
X0255Y02513*
X02549Y02513*
X02549Y02513*
X02548Y02512*
X02548Y02512*
X02547Y02512*
X02547Y02512*
X02546Y02511*
X02546Y02511*
X02546Y0251*
X02545Y0251*
X02545Y02509*
X02545Y02509*
X02544Y02509*
X02544Y02508*
X02544Y02507*
X02544Y02507*
X02544Y02506*
X02544Y02506*
X02544Y02505*
X02544Y02505*
X02544Y02504*
X02544Y02504*
X02544Y02503*
X02544Y02503*
X02544Y02502*
X02545Y02502*
X02545Y02501*
X02545Y02501*
X02546Y025*
X02546Y025*
X02546Y02499*
X02547Y02499*
X02547Y02499*
X02548Y02498*
X02548Y02498*
X02549Y02498*
X02549Y02498*
X0255Y02498*
X0255Y02498*
X02551Y02497*
X02551Y02497*
X02552*
X02553Y02497*
X02553Y02498*
X02554Y02498*
X02554Y02498*
X02555Y02498*
X02555Y02498*
X02556Y02498*
X02556Y02499*
X02557Y02499*
X02557Y02499*
X02557Y025*
X02558Y025*
X02558Y02501*
X02558Y02501*
X02559Y02502*
X02559Y02502*
X02559Y02503*
X02559Y02503*
X02559Y02504*
X0256Y02504*
X0256Y02505*
X0256Y02505*
X02004D02*
D01*
X02004Y02506*
X02004Y02506*
X02004Y02507*
X02004Y02507*
X02004Y02508*
X02004Y02509*
X02003Y02509*
X02003Y02509*
X02003Y0251*
X02002Y0251*
X02002Y02511*
X02002Y02511*
X02001Y02512*
X02001Y02512*
X02Y02512*
X02Y02512*
X01999Y02513*
X01999Y02513*
X01998Y02513*
X01998Y02513*
X01997Y02513*
X01997Y02513*
X01996*
X01995Y02513*
X01995Y02513*
X01994Y02513*
X01994Y02513*
X01993Y02513*
X01993Y02512*
X01992Y02512*
X01992Y02512*
X01991Y02512*
X01991Y02511*
X01991Y02511*
X0199Y0251*
X0199Y0251*
X0199Y02509*
X01989Y02509*
X01989Y02509*
X01989Y02508*
X01989Y02507*
X01989Y02507*
X01988Y02506*
X01988Y02506*
X01988Y02505*
X01988Y02505*
X01988Y02504*
X01989Y02504*
X01989Y02503*
X01989Y02503*
X01989Y02502*
X01989Y02502*
X0199Y02501*
X0199Y02501*
X0199Y025*
X01991Y025*
X01991Y02499*
X01991Y02499*
X01992Y02499*
X01992Y02498*
X01993Y02498*
X01993Y02498*
X01994Y02498*
X01994Y02498*
X01995Y02498*
X01995Y02497*
X01996Y02497*
X01997*
X01997Y02497*
X01998Y02498*
X01998Y02498*
X01999Y02498*
X01999Y02498*
X02Y02498*
X02Y02498*
X02001Y02499*
X02001Y02499*
X02002Y02499*
X02002Y025*
X02002Y025*
X02003Y02501*
X02003Y02501*
X02003Y02502*
X02004Y02502*
X02004Y02503*
X02004Y02503*
X02004Y02504*
X02004Y02504*
X02004Y02505*
X02004Y02505*
X0143Y0251D02*
D01*
X0143Y02511*
X0143Y02511*
X01429Y02512*
X01429Y02512*
X01429Y02513*
X01429Y02514*
X01429Y02514*
X01428Y02514*
X01428Y02515*
X01428Y02515*
X01427Y02516*
X01427Y02516*
X01427Y02517*
X01426Y02517*
X01426Y02517*
X01425Y02517*
X01425Y02518*
X01424Y02518*
X01424Y02518*
X01423Y02518*
X01423Y02518*
X01422Y02518*
X01421*
X01421Y02518*
X0142Y02518*
X0142Y02518*
X01419Y02518*
X01419Y02518*
X01418Y02517*
X01418Y02517*
X01417Y02517*
X01417Y02517*
X01416Y02516*
X01416Y02516*
X01416Y02515*
X01415Y02515*
X01415Y02514*
X01415Y02514*
X01414Y02514*
X01414Y02513*
X01414Y02512*
X01414Y02512*
X01414Y02511*
X01414Y02511*
X01414Y0251*
X01414Y0251*
X01414Y02509*
X01414Y02509*
X01414Y02508*
X01414Y02508*
X01414Y02507*
X01415Y02507*
X01415Y02506*
X01415Y02506*
X01416Y02505*
X01416Y02505*
X01416Y02504*
X01417Y02504*
X01417Y02504*
X01418Y02503*
X01418Y02503*
X01419Y02503*
X01419Y02503*
X0142Y02503*
X0142Y02503*
X01421Y02502*
X01421Y02502*
X01422*
X01423Y02502*
X01423Y02503*
X01424Y02503*
X01424Y02503*
X01425Y02503*
X01425Y02503*
X01426Y02503*
X01426Y02504*
X01427Y02504*
X01427Y02504*
X01427Y02505*
X01428Y02505*
X01428Y02506*
X01428Y02506*
X01429Y02507*
X01429Y02507*
X01429Y02508*
X01429Y02508*
X01429Y02509*
X0143Y02509*
X0143Y0251*
X0143Y0251*
X0087Y02515D02*
D01*
X0087Y02516*
X0087Y02516*
X00869Y02517*
X00869Y02517*
X00869Y02518*
X00869Y02519*
X00869Y02519*
X00868Y02519*
X00868Y0252*
X00868Y0252*
X00867Y02521*
X00867Y02521*
X00867Y02522*
X00866Y02522*
X00866Y02522*
X00865Y02522*
X00865Y02523*
X00864Y02523*
X00864Y02523*
X00863Y02523*
X00863Y02523*
X00862Y02523*
X00861*
X00861Y02523*
X0086Y02523*
X0086Y02523*
X00859Y02523*
X00859Y02523*
X00858Y02522*
X00858Y02522*
X00857Y02522*
X00857Y02522*
X00856Y02521*
X00856Y02521*
X00856Y0252*
X00855Y0252*
X00855Y02519*
X00855Y02519*
X00854Y02519*
X00854Y02518*
X00854Y02517*
X00854Y02517*
X00854Y02516*
X00854Y02516*
X00854Y02515*
X00854Y02515*
X00854Y02514*
X00854Y02514*
X00854Y02513*
X00854Y02513*
X00854Y02512*
X00855Y02512*
X00855Y02511*
X00855Y02511*
X00856Y0251*
X00856Y0251*
X00856Y02509*
X00857Y02509*
X00857Y02509*
X00858Y02508*
X00858Y02508*
X00859Y02508*
X00859Y02508*
X0086Y02508*
X0086Y02508*
X00861Y02507*
X00861Y02507*
X00862*
X00863Y02507*
X00863Y02508*
X00864Y02508*
X00864Y02508*
X00865Y02508*
X00865Y02508*
X00866Y02508*
X00866Y02509*
X00867Y02509*
X00867Y02509*
X00867Y0251*
X00868Y0251*
X00868Y02511*
X00868Y02511*
X00869Y02512*
X00869Y02512*
X00869Y02513*
X00869Y02513*
X00869Y02514*
X0087Y02514*
X0087Y02515*
X0087Y02515*
X02154Y01054D02*
Y01095D01*
G54D14*
X01583Y01111D02*
X01595D01*
X01583Y01465D02*
X01595D01*
X01241Y01111D02*
X01252D01*
X01241Y01465D02*
X01252D01*
X01595Y01111D02*
Y01122D01*
Y01453D02*
Y01465D01*
X01241Y01111D02*
Y01122D01*
Y01453D02*
Y01465D01*
X00611Y01726D02*
Y01755D01*
Y01834D02*
Y01863D01*
X00848Y01834D02*
Y01863D01*
Y01726D02*
Y01755D01*
X00674Y01765D02*
X00785D01*
X00674D02*
Y01824D01*
X00785*
Y01765D02*
Y01824D01*
X00611Y01726D02*
X00848D01*
X00611Y01863D02*
X00848D01*
G54D15*
X01302Y03877D02*
Y03847D01*
X01317*
X01322Y03852*
Y03872*
X01317Y03877*
X01302*
X01332Y03862D02*
X01352D01*
X01432Y03877D02*
Y03847D01*
X01447*
X01452Y03852*
Y03872*
X01447Y03877*
X01432*
X01462Y03862D02*
X01482D01*
X01472Y03872D02*
Y03852D01*
X01592Y03872D02*
X01587Y03877D01*
X01577*
X01572Y03872*
Y03852*
X01577Y03847*
X01587*
X01592Y03852*
X01602Y03862D02*
X01622D01*
X01612Y03872D02*
Y03852D01*
X01732Y03872D02*
X01727Y03877D01*
X01717*
X01712Y03872*
Y03852*
X01717Y03847*
X01727*
X01732Y03852*
X01742Y03862D02*
X01762D01*
X01852Y03877D02*
Y03847D01*
X01867*
X01872Y03852*
Y03857*
X01867Y03862*
X01852*
X01867*
X01872Y03867*
Y03872*
X01867Y03877*
X01852*
X01882Y03862D02*
X01902D01*
X01987Y03877D02*
Y03847D01*
X02002*
X02007Y03852*
Y03857*
X02002Y03862*
X01987*
X02002*
X02007Y03867*
Y03872*
X02002Y03877*
X01987*
X02017Y03862D02*
X02037D01*
X02027Y03872D02*
Y03852D01*
X02127Y03847D02*
Y03867D01*
X02137Y03877*
X02147Y03867*
Y03847*
Y03862*
X02127*
X02157D02*
X02177D01*
X02167Y03872D02*
Y03852D01*
X02262Y03847D02*
Y03867D01*
X02272Y03877*
X02282Y03867*
Y03847*
Y03862*
X02262*
X02292D02*
X02312D01*
X01002Y02022D02*
X00997Y02027D01*
X00987*
X00982Y02022*
Y02002*
X00987Y01997*
X00997*
X01002Y02002*
X01012Y02027D02*
Y01997D01*
Y02012*
X01032*
Y02027*
Y01997*
X01042Y02027D02*
X01062D01*
Y02022*
X01042Y02002*
Y01997*
X01082D02*
X01072Y02007D01*
Y02017*
X01082Y02027*
X01097Y02012D02*
X01117D01*
X01127Y01997D02*
X01137Y02007D01*
Y02017*
X01127Y02027*
X01262Y02137D02*
X01257Y02142D01*
X01247*
X01242Y02137*
Y02117*
X01247Y02112*
X01257*
X01262Y02117*
X01272Y02142D02*
Y02112D01*
Y02127*
X01292*
Y02142*
Y02112*
X01322Y02142D02*
X01302D01*
Y02127*
X01312Y02132*
X01317*
X01322Y02127*
Y02117*
X01317Y02112*
X01307*
X01302Y02117*
X01342Y02112D02*
X01332Y02122D01*
Y02132*
X01342Y02142*
X01357Y02127D02*
X01377D01*
X01387Y02112D02*
X01397Y02122D01*
Y02132*
X01387Y02142*
X01512D02*
X01507Y02147D01*
X01497*
X01492Y02142*
Y02122*
X01497Y02117*
X01507*
X01512Y02122*
X01522Y02147D02*
Y02117D01*
Y02132*
X01542*
Y02147*
Y02117*
X01567D02*
Y02147D01*
X01552Y02132*
X01572*
X01592Y02117D02*
X01582Y02127D01*
Y02137*
X01592Y02147*
X01607Y02132D02*
X01627D01*
X01617Y02142D02*
Y02122D01*
X01637Y02117D02*
X01647Y02127D01*
Y02137*
X01637Y02147*
X01792Y02142D02*
X01787Y02147D01*
X01777*
X01772Y02142*
Y02122*
X01777Y02117*
X01787*
X01792Y02122*
X01802Y02147D02*
Y02117D01*
Y02132*
X01822*
Y02147*
Y02117*
X01832Y02142D02*
X01837Y02147D01*
X01847*
X01852Y02142*
Y02137*
X01847Y02132*
X01842*
X01847*
X01852Y02127*
Y02122*
X01847Y02117*
X01837*
X01832Y02122*
X01872Y02117D02*
X01862Y02127D01*
Y02137*
X01872Y02147*
X01887Y02132D02*
X01907D01*
X01917Y02117D02*
X01926Y02127D01*
Y02137*
X01917Y02147*
X01987Y02067D02*
X01982Y02072D01*
X01972*
X01967Y02067*
Y02047*
X01972Y02042*
X01982*
X01987Y02047*
X01997Y02072D02*
Y02042D01*
Y02057*
X02017*
Y02072*
Y02042*
X02047D02*
X02027D01*
X02047Y02062*
Y02067*
X02042Y02072*
X02032*
X02027Y02067*
X02067Y02042D02*
X02057Y02052D01*
Y02062*
X02067Y02072*
X02082Y02057D02*
X02102D01*
X02092Y02067D02*
Y02047D01*
X02112Y02042D02*
X02121Y02052D01*
Y02062*
X02112Y02072*
X02272Y02167D02*
X02267Y02172D01*
X02257*
X02252Y02167*
Y02147*
X02257Y02142*
X02267*
X02272Y02147*
X02282Y02172D02*
Y02142D01*
Y02157*
X02302*
Y02172*
Y02142*
X02312D02*
X02322D01*
X02317*
Y02172*
X02312Y02167*
X02347Y02142D02*
X02337Y02152D01*
Y02162*
X02347Y02172*
X02362Y02157D02*
X02382D01*
X02392Y02142D02*
X02402Y02152D01*
Y02162*
X02392Y02172*
X02302Y01982D02*
X02297Y01987D01*
X02287*
X02282Y01982*
Y01962*
X02287Y01957*
X02297*
X02302Y01962*
X02312Y01987D02*
Y01957D01*
Y01972*
X02332*
Y01987*
Y01957*
X02342Y01982D02*
X02347Y01987D01*
X02357*
X02362Y01982*
Y01962*
X02357Y01957*
X02347*
X02342Y01962*
Y01982*
X02382Y01957D02*
X02372Y01967D01*
Y01977*
X02382Y01987*
X02397Y01972D02*
X02417D01*
X02407Y01982D02*
Y01962D01*
X02427Y01957D02*
X02436Y01967D01*
Y01977*
X02427Y01987*
X01047Y02172D02*
X01042Y02177D01*
X01032*
X01027Y02172*
Y02152*
X01032Y02147*
X01042*
X01047Y02152*
X01057Y02177D02*
Y02147D01*
Y02162*
X01077*
Y02177*
Y02147*
X01107Y02177D02*
X01097Y02172D01*
X01087Y02162*
Y02152*
X01092Y02147*
X01102*
X01107Y02152*
Y02157*
X01102Y02162*
X01087*
X01127Y02147D02*
X01117Y02157D01*
Y02167*
X01127Y02177*
X01142Y02162D02*
X01162D01*
X01152Y02172D02*
Y02152D01*
X01172Y02147D02*
X01181Y02157D01*
Y02167*
X01172Y02177*
X02817Y01097D02*
X02812Y01102D01*
X02802*
X02797Y01097*
Y01077*
X02802Y01072*
X02812*
X02817Y01077*
Y01087*
X02807*
X02827Y01072D02*
Y01102D01*
X02847Y01072*
Y01102*
X02857D02*
Y01072D01*
X02872*
X02877Y01077*
Y01097*
X02872Y01102*
X02857*
X02797Y01187D02*
X02817D01*
X02807Y01197D02*
Y01177D01*
X02827Y01197D02*
X02832Y01202D01*
X02842*
X02847Y01197*
Y01192*
X02842Y01187*
X02837*
X02842*
X02847Y01182*
Y01177*
X02842Y01172*
X02832*
X02827Y01177*
X02857Y01172D02*
Y01177D01*
X02862*
Y01172*
X02857*
X02882Y01197D02*
X02887Y01202D01*
X02897*
X02902Y01197*
Y01192*
X02897Y01187*
X02892*
X02897*
X02902Y01182*
Y01177*
X02897Y01172*
X02887*
X02882Y01177*
X02912Y01202D02*
Y01182D01*
X02922Y01172*
X02932Y01182*
Y01202*
X02797Y01292D02*
X02817D01*
X02807Y01302D02*
Y01282D01*
X02847Y01307D02*
X02827D01*
Y01292*
X02837Y01297*
X02842*
X02847Y01292*
Y01282*
X02842Y01277*
X02832*
X02827Y01282*
X02857Y01307D02*
Y01287D01*
X02867Y01277*
X02877Y01287*
Y01307*
X02797Y01387D02*
X02817D01*
X02807Y01397D02*
Y01377D01*
X02827Y01372D02*
X02837D01*
X02832*
Y01402*
X02827Y01397*
X02852D02*
X02857Y01402D01*
X02867*
X02872Y01397*
Y01377*
X02867Y01372*
X02857*
X02852Y01377*
Y01397*
X02882Y01372D02*
Y01377D01*
X02887*
Y01372*
X02882*
X02927Y01402D02*
X02907D01*
Y01387*
X02917Y01392*
X02922*
X02927Y01387*
Y01377*
X02922Y01372*
X02912*
X02907Y01377*
X02937Y01402D02*
Y01382D01*
X02947Y01372*
X02956Y01382*
Y01402*
X02797Y01482D02*
X02817D01*
X02827Y01467D02*
X02837D01*
X02832*
Y01497*
X02827Y01492*
X02852D02*
X02857Y01497D01*
X02867*
X02872Y01492*
Y01472*
X02867Y01467*
X02857*
X02852Y01472*
Y01492*
X02882Y01497D02*
Y01477D01*
X02892Y01467*
X02902Y01477*
Y01497*
X02452Y01197D02*
Y01172D01*
X02457Y01167*
X02467*
X02472Y01172*
Y01197*
X02482Y01167D02*
X02492D01*
X02487*
Y01197*
X02482Y01192*
X02507Y01197D02*
X02527D01*
X02517*
Y01167*
X02537Y01197D02*
X02557Y01167D01*
Y01197D02*
X02537Y01167D01*
X02502Y01302D02*
X02497Y01307D01*
X02487*
X02482Y01302*
Y01297*
X02487Y01292*
X02497*
X02502Y01287*
Y01282*
X02497Y01277*
X02487*
X02482Y01282*
X02512Y01307D02*
Y01277D01*
X02527*
X02532Y01282*
Y01302*
X02527Y01307*
X02512*
X02542D02*
X02552D01*
X02547*
Y01277*
X02542*
X02552*
X02492Y01397D02*
X02487Y01402D01*
X02477*
X02472Y01397*
Y01392*
X02477Y01387*
X02487*
X02492Y01382*
Y01377*
X02487Y01372*
X02477*
X02472Y01377*
X02522Y01397D02*
X02517Y01402D01*
X02507*
X02502Y01397*
Y01377*
X02507Y01372*
X02517*
X02522Y01377*
X02532Y01402D02*
Y01372D01*
Y01382*
X02552Y01402*
X02537Y01387*
X02552Y01372*
X02492Y01492D02*
X02487Y01497D01*
X02477*
X02472Y01492*
Y01487*
X02477Y01482*
X02487*
X02492Y01477*
Y01472*
X02487Y01467*
X02477*
X02472Y01472*
X02502Y01497D02*
Y01467D01*
X02517*
X02522Y01472*
Y01492*
X02517Y01497*
X02502*
X02547D02*
X02537D01*
X02532Y01492*
Y01472*
X02537Y01467*
X02547*
X02552Y01472*
Y01492*
X02547Y01497*
X02537Y00857D02*
Y00827D01*
X02552*
X02557Y00832*
Y00852*
X02552Y00857*
X02537*
X02567Y00842D02*
X02587D01*
X02577Y00852D02*
Y00832D01*
X02537Y00962D02*
Y00932D01*
X02552*
X02557Y00937*
Y00957*
X02552Y00962*
X02537*
X02567Y00947D02*
X02587D01*
X00405Y02957D02*
Y02927D01*
X0042*
X00425Y02932*
Y02952*
X0042Y02957*
X00405*
X00435Y02922D02*
X00455D01*
X00485Y02952D02*
X0048Y02957D01*
X0047*
X00465Y02952*
Y02932*
X0047Y02927*
X0048*
X00485Y02932*
Y02942*
X00475*
X00495Y02927D02*
Y02957D01*
X0051*
X00515Y02952*
Y02942*
X0051Y02937*
X00495*
X00525Y02952D02*
X0053Y02957D01*
X0054*
X00545Y02952*
Y02932*
X0054Y02927*
X0053*
X00525Y02932*
Y02952*
X00405Y02877D02*
Y02847D01*
X0042*
X00425Y02852*
Y02872*
X0042Y02877*
X00405*
X00435Y02842D02*
X00455D01*
X00485Y02872D02*
X0048Y02877D01*
X0047*
X00465Y02872*
Y02852*
X0047Y02847*
X0048*
X00485Y02852*
Y02862*
X00475*
X00495Y02847D02*
Y02877D01*
X0051*
X00515Y02872*
Y02862*
X0051Y02857*
X00495*
X00545Y02847D02*
X00525D01*
X00545Y02867*
Y02872*
X0054Y02877*
X0053*
X00525Y02872*
X00405Y02797D02*
Y02767D01*
X0042*
X00425Y02772*
Y02792*
X0042Y02797*
X00405*
X00435Y02762D02*
X00455D01*
X00485Y02792D02*
X0048Y02797D01*
X0047*
X00465Y02792*
Y02772*
X0047Y02767*
X0048*
X00485Y02772*
Y02782*
X00475*
X00495Y02767D02*
Y02797D01*
X0051*
X00515Y02792*
Y02782*
X0051Y02777*
X00495*
X00545Y02767D02*
X00525D01*
X00545Y02787*
Y02792*
X0054Y02797*
X0053*
X00525Y02792*
X00425Y02647D02*
X0042Y02652D01*
X0041*
X00405Y02647*
Y02642*
X0041Y02637*
X0042*
X00425Y02632*
Y02627*
X0042Y02622*
X0041*
X00405Y02627*
X00435Y02652D02*
Y02622D01*
Y02637*
X00455*
Y02652*
Y02622*
X00465Y02652D02*
Y02622D01*
X0048*
X00485Y02627*
Y02647*
X0048Y02652*
X00465*
X00495Y02622D02*
Y02652D01*
X00515Y02622*
Y02652*
X00525Y02617D02*
X00545D01*
X00555Y02652D02*
Y02622D01*
X0057*
X00575Y02627*
Y02647*
X0057Y02652*
X00555*
X0285Y02717D02*
X02845Y02722D01*
X02835*
X0283Y02717*
Y02712*
X02835Y02707*
X02845*
X0285Y02702*
Y02697*
X02845Y02692*
X02835*
X0283Y02697*
X0286Y02722D02*
Y02692D01*
Y02707*
X0288*
Y02722*
Y02692*
X0289Y02722D02*
Y02692D01*
X02905*
X0291Y02697*
Y02717*
X02905Y02722*
X0289*
X0292Y02692D02*
Y02722D01*
X0294Y02692*
Y02722*
X0295Y02687D02*
X0297D01*
X0298Y02692D02*
Y02712D01*
X0299Y02722*
X03Y02712*
Y02692*
Y02707*
X0298*
X0283Y02777D02*
Y02797D01*
X0284Y02807*
X0285Y02797*
Y02777*
Y02792*
X0283*
X0286Y02772D02*
X0288D01*
X0291Y02802D02*
X02905Y02807D01*
X02895*
X0289Y02802*
Y02782*
X02895Y02777*
X02905*
X0291Y02782*
Y02792*
X029*
X0292Y02777D02*
Y02807D01*
X02935*
X0294Y02802*
Y02792*
X02935Y02787*
X0292*
X0297Y02777D02*
X0295D01*
X0297Y02797*
Y02802*
X02965Y02807*
X02955*
X0295Y02802*
X0283Y02857D02*
Y02877D01*
X0284Y02887*
X0285Y02877*
Y02857*
Y02872*
X0283*
X0286Y02852D02*
X0288D01*
X0291Y02882D02*
X02905Y02887D01*
X02895*
X0289Y02882*
Y02862*
X02895Y02857*
X02905*
X0291Y02862*
Y02872*
X029*
X0292Y02857D02*
Y02887D01*
X02935*
X0294Y02882*
Y02872*
X02935Y02867*
X0292*
X0297Y02857D02*
X0295D01*
X0297Y02877*
Y02882*
X02965Y02887*
X02955*
X0295Y02882*
X0283Y02942D02*
Y02962D01*
X0284Y02972*
X0285Y02962*
Y02942*
Y02957*
X0283*
X0286Y02937D02*
X0288D01*
X0291Y02967D02*
X02905Y02972D01*
X02895*
X0289Y02967*
Y02947*
X02895Y02942*
X02905*
X0291Y02947*
Y02957*
X029*
X0292Y02942D02*
Y02972D01*
X02935*
X0294Y02967*
Y02957*
X02935Y02952*
X0292*
X0295Y02967D02*
X02955Y02972D01*
X02965*
X0297Y02967*
Y02947*
X02965Y02942*
X02955*
X0295Y02947*
Y02967*
X01505Y0185D02*
Y01825D01*
X0151Y0182*
X0152*
X01525Y01825*
Y0185*
X01555Y0182D02*
X01535D01*
X01555Y0184*
Y01845*
X0155Y0185*
X0154*
X01535Y01845*
X01915Y01155D02*
X0191Y0116D01*
X019*
X01895Y01155*
Y01135*
X019Y0113*
X0191*
X01915Y01135*
X0194Y0113D02*
Y0116D01*
X01925Y01145*
X01945*
X01955Y01155D02*
X0196Y0116D01*
X0197*
X01975Y01155*
Y0115*
X0197Y01145*
X01975Y0114*
Y01135*
X0197Y0113*
X0196*
X01955Y01135*
Y0114*
X0196Y01145*
X01955Y0115*
Y01155*
X0196Y01145D02*
X0197D01*
X0222Y0114D02*
X02215Y01145D01*
X02205*
X022Y0114*
Y0112*
X02205Y01115*
X02215*
X0222Y0112*
X02245Y01115D02*
Y01145D01*
X0223Y0113*
X0225*
X0226Y01145D02*
X0228D01*
Y0114*
X0226Y0112*
Y01115*
X01311Y02931D02*
X01316Y02936D01*
Y02946*
X01311Y02951*
X01291*
X01286Y02946*
Y02936*
X01291Y02931*
X01286Y02901D02*
Y02921D01*
X01306Y02901*
X01311*
X01316Y02906*
Y02916*
X01311Y02921*
X01286Y02871D02*
Y02891D01*
X01306Y02871*
X01311*
X01316Y02876*
Y02886*
X01311Y02891*
X01051Y02896D02*
X01046Y02891D01*
Y02881*
X01051Y02876*
X01071*
X01076Y02881*
Y02891*
X01071Y02896*
X01076Y02926D02*
Y02906D01*
X01056Y02926*
X01051*
X01046Y02921*
Y02911*
X01051Y02906*
X01076Y02936D02*
Y02946D01*
Y02941*
X01046*
X01051Y02936*
X02441Y03505D02*
Y03535D01*
X02456*
X02461Y0353*
Y0352*
X02456Y03515*
X02441*
X02451D02*
X02461Y03505D01*
X02471Y03535D02*
X02491D01*
Y0353*
X02471Y0351*
Y03505*
X02066D02*
Y03535D01*
X02081*
X02086Y0353*
Y0352*
X02081Y03515*
X02066*
X02076D02*
X02086Y03505D01*
X02116Y03535D02*
X02106Y0353D01*
X02096Y0352*
Y0351*
X02101Y03505*
X02111*
X02116Y0351*
Y03515*
X02111Y0352*
X02096*
X01375D02*
Y0355D01*
X0139*
X01395Y03545*
Y03535*
X0139Y0353*
X01375*
X01385D02*
X01395Y0352D01*
X01425Y0355D02*
X01405D01*
Y03535*
X01415Y0354*
X0142*
X01425Y03535*
Y03525*
X0142Y0352*
X0141*
X01405Y03525*
X0097Y0352D02*
Y0355D01*
X00985*
X0099Y03545*
Y03535*
X00985Y0353*
X0097*
X0098D02*
X0099Y0352D01*
X01015D02*
Y0355D01*
X01Y03535*
X0102*
X0258Y01585D02*
Y01555D01*
Y0157*
X026*
Y01585*
Y01555*
X0261Y01585D02*
Y01555D01*
X02625*
X0263Y0156*
Y0158*
X02625Y01585*
X0261*
X0264Y01555D02*
Y01585D01*
X02655*
X0266Y0158*
Y0157*
X02655Y01565*
X0264*
X0265D02*
X0266Y01555D01*
X0267D02*
X0268D01*
X02675*
Y01585*
X0267Y0158*
X02535Y0257D02*
Y02545D01*
X0254Y0254*
X0255*
X02555Y02545*
Y0257*
X02585D02*
X02575Y02565D01*
X02565Y02555*
Y02545*
X0257Y0254*
X0258*
X02585Y02545*
Y0255*
X0258Y02555*
X02565*
X0239Y02715D02*
X02385Y0272D01*
X02375*
X0237Y02715*
Y02695*
X02375Y0269*
X02385*
X0239Y02695*
X02415Y0269D02*
Y0272D01*
X024Y02705*
X0242*
X0243Y02715D02*
X02435Y0272D01*
X02445*
X0245Y02715*
Y0271*
X02445Y02705*
X0244*
X02445*
X0245Y027*
Y02695*
X02445Y0269*
X02435*
X0243Y02695*
X0184Y02715D02*
X01835Y0272D01*
X01825*
X0182Y02715*
Y02695*
X01825Y0269*
X01835*
X0184Y02695*
X0185Y02715D02*
X01855Y0272D01*
X01865*
X0187Y02715*
Y0271*
X01865Y02705*
X0186*
X01865*
X0187Y027*
Y02695*
X01865Y0269*
X01855*
X0185Y02695*
X0188D02*
X01885Y0269D01*
X01895*
X019Y02695*
Y02715*
X01895Y0272*
X01885*
X0188Y02715*
Y0271*
X01885Y02705*
X019*
X0198Y02575D02*
Y0255D01*
X01985Y02545*
X01995*
X02Y0255*
Y02575*
X0201D02*
X0203D01*
Y0257*
X0201Y0255*
Y02545*
X01925Y03324D02*
X0192Y03329D01*
X0191*
X01905Y03324*
Y03304*
X0191Y03299*
X0192*
X01925Y03304*
X01955Y03299D02*
X01935D01*
X01955Y03319*
Y03324*
X0195Y03329*
X0194*
X01935Y03324*
X01965Y03329D02*
X01985D01*
Y03324*
X01965Y03304*
Y03299*
X01065Y03785D02*
X01035D01*
Y0377*
X0104Y03765*
X01045*
X0105Y0377*
Y03785*
Y0377*
X01055Y03765*
X0106*
X01065Y0377*
Y03785*
X01035Y03755D02*
Y03745D01*
Y0375*
X01065*
X0106Y03755*
X0253Y0303D02*
Y03005D01*
X02535Y03*
X02545*
X0255Y03005*
Y0303*
X02575Y03D02*
Y0303D01*
X0256Y03015*
X0258*
X0156Y03225D02*
X01555Y0323D01*
X01545*
X0154Y03225*
Y03205*
X01545Y032*
X01555*
X0156Y03205*
X0159Y032D02*
X0157D01*
X0159Y0322*
Y03225*
X01585Y0323*
X01575*
X0157Y03225*
X016D02*
X01605Y0323D01*
X01615*
X0162Y03225*
Y03205*
X01615Y032*
X01605*
X016Y03205*
Y03225*
X00817Y03345D02*
X00812Y0335D01*
X00802*
X00797Y03345*
Y03325*
X00802Y0332*
X00812*
X00817Y03325*
X00827Y0332D02*
X00837D01*
X00832*
Y0335*
X00827Y03345*
X00852D02*
X00857Y0335D01*
X00867*
X00872Y03345*
Y0334*
X00867Y03335*
X00872Y0333*
Y03325*
X00867Y0332*
X00857*
X00852Y03325*
Y0333*
X00857Y03335*
X00852Y0334*
Y03345*
X00857Y03335D02*
X00867D01*
X0141Y02575D02*
Y0255D01*
X01415Y02545*
X01425*
X0143Y0255*
Y02575*
X0144Y0257D02*
X01445Y02575D01*
X01455*
X0146Y0257*
Y02565*
X01455Y0256*
X0146Y02555*
Y0255*
X01455Y02545*
X01445*
X0144Y0255*
Y02555*
X01445Y0256*
X0144Y02565*
Y0257*
X01445Y0256D02*
X01455D01*
X00845Y02585D02*
Y0256D01*
X0085Y02555*
X0086*
X00865Y0256*
Y02585*
X00875Y0256D02*
X0088Y02555D01*
X0089*
X00895Y0256*
Y0258*
X0089Y02585*
X0088*
X00875Y0258*
Y02575*
X0088Y0257*
X00895*
X0143Y03045D02*
Y0302D01*
X01435Y03015*
X01445*
X0145Y0302*
Y03045*
X0148D02*
X0146D01*
Y0303*
X0147Y03035*
X01475*
X0148Y0303*
Y0302*
X01475Y03015*
X01465*
X0146Y0302*
X00841Y02387D02*
X00871D01*
Y02372*
X00866Y02367*
X00856*
X00851Y02372*
Y02387*
Y02377D02*
X00841Y02367D01*
Y02357D02*
Y02347D01*
Y02352*
X00871*
X00866Y02357*
X00841Y02312D02*
Y02332D01*
X00861Y02312*
X00866*
X00871Y02317*
Y02327*
X00866Y02332*
X00879Y02386D02*
X00909D01*
Y02371*
X00904Y02366*
X00894*
X00889Y02371*
Y02386*
Y02376D02*
X00879Y02366D01*
Y02356D02*
Y02346D01*
Y02351*
X00909*
X00904Y02356*
Y02331D02*
X00909Y02326D01*
Y02316*
X00904Y02311*
X00899*
X00894Y02316*
Y02321*
Y02316*
X00889Y02311*
X00884*
X00879Y02316*
Y02326*
X00884Y02331*
X01395Y02372D02*
X01425D01*
Y02357*
X0142Y02352*
X0141*
X01405Y02357*
Y02372*
Y02362D02*
X01395Y02352D01*
Y02342D02*
Y02332D01*
Y02337*
X01425*
X0142Y02342*
Y02317D02*
X01425Y02312D01*
Y02302*
X0142Y02297*
X01415*
X0141Y02302*
X01405Y02297*
X014*
X01395Y02302*
Y02312*
X014Y02317*
X01405*
X0141Y02312*
X01415Y02317*
X0142*
X0141Y02312D02*
Y02302D01*
X01445Y02372D02*
X01475D01*
Y02357*
X0147Y02352*
X0146*
X01455Y02357*
Y02372*
Y02362D02*
X01445Y02352D01*
Y02342D02*
Y02332D01*
Y02337*
X01475*
X0147Y02342*
X0145Y02317D02*
X01445Y02312D01*
Y02302*
X0145Y02297*
X0147*
X01475Y02302*
Y02312*
X0147Y02317*
X01465*
X0146Y02312*
Y02297*
X01969Y02364D02*
X01999D01*
Y02349*
X01994Y02344*
X01984*
X01979Y02349*
Y02364*
Y02354D02*
X01969Y02344D01*
Y02314D02*
Y02334D01*
X01989Y02314*
X01994*
X01999Y02319*
Y02329*
X01994Y02334*
X01969Y02289D02*
X01999D01*
X01984Y02304*
Y02284*
X02014Y02364D02*
X02044D01*
Y02349*
X02039Y02344*
X02029*
X02024Y02349*
Y02364*
Y02354D02*
X02014Y02344D01*
Y02314D02*
Y02334D01*
X02034Y02314*
X02039*
X02044Y02319*
Y02329*
X02039Y02334*
X02044Y02284D02*
Y02304D01*
X02029*
X02034Y02294*
Y02289*
X02029Y02284*
X02019*
X02014Y02289*
Y02299*
X02019Y02304*
X02525Y02365D02*
X02555D01*
Y0235*
X0255Y02345*
X0254*
X02535Y0235*
Y02365*
Y02355D02*
X02525Y02345D01*
X0255Y02335D02*
X02555Y0233D01*
Y0232*
X0255Y02315*
X02545*
X0254Y0232*
Y02325*
Y0232*
X02535Y02315*
X0253*
X02525Y0232*
Y0233*
X0253Y02335*
X0255Y02305D02*
X02555Y023D01*
Y0229*
X0255Y02285*
X0253*
X02525Y0229*
Y023*
X0253Y02305*
X0255*
X02574Y02374D02*
X02604D01*
Y02359*
X02599Y02354*
X02589*
X02584Y02359*
Y02374*
Y02364D02*
X02574Y02354D01*
X02599Y02344D02*
X02604Y02339D01*
Y02329*
X02599Y02324*
X02594*
X02589Y02329*
Y02334*
Y02329*
X02584Y02324*
X02579*
X02574Y02329*
Y02339*
X02579Y02344*
X02574Y02314D02*
Y02304D01*
Y02309*
X02604*
X02599Y02314*
X00955Y02695D02*
Y02725D01*
X0097*
X00975Y0272*
Y0271*
X0097Y02705*
X00955*
X00965D02*
X00975Y02695D01*
X00985Y027D02*
X0099Y02695D01*
X01*
X01005Y027*
Y0272*
X01Y02725*
X0099*
X00985Y0272*
Y02715*
X0099Y0271*
X01005*
X01477Y02695D02*
Y02725D01*
X01492*
X01497Y0272*
Y0271*
X01492Y02705*
X01477*
X01487D02*
X01497Y02695D01*
X01507D02*
X01517D01*
X01512*
Y02725*
X01507Y0272*
X01552Y02725D02*
X01532D01*
Y0271*
X01542Y02715*
X01547*
X01552Y0271*
Y027*
X01547Y02695*
X01537*
X01532Y027*
X0203Y0269D02*
Y0272D01*
X02045*
X0205Y02715*
Y02705*
X02045Y027*
X0203*
X0204D02*
X0205Y0269D01*
X0208D02*
X0206D01*
X0208Y0271*
Y02715*
X02075Y0272*
X02065*
X0206Y02715*
X0209Y0269D02*
X021D01*
X02095*
Y0272*
X0209Y02715*
X02615Y02685D02*
Y02715D01*
X0263*
X02635Y0271*
Y027*
X0263Y02695*
X02615*
X02625D02*
X02635Y02685D01*
X02665D02*
X02645D01*
X02665Y02705*
Y0271*
X0266Y02715*
X0265*
X02645Y0271*
X02675Y02715D02*
X02695D01*
Y0271*
X02675Y0269*
Y02685*
X01041Y0257D02*
Y026D01*
X01056*
X01061Y02595*
Y02585*
X01056Y0258*
X01041*
X01051D02*
X01061Y0257D01*
X01071D02*
X01081D01*
X01076*
Y026*
X01071Y02595*
X01096Y0257D02*
X01106D01*
X01101*
Y026*
X01096Y02595*
X01593Y02561D02*
Y02591D01*
X01608*
X01613Y02586*
Y02576*
X01608Y02571*
X01593*
X01603D02*
X01613Y02561D01*
X01623D02*
X01633D01*
X01628*
Y02591*
X01623Y02586*
X01648Y02591D02*
X01668D01*
Y02586*
X01648Y02566*
Y02561*
X02168Y02563D02*
Y02593D01*
X02183*
X02188Y02588*
Y02578*
X02183Y02573*
X02168*
X02178D02*
X02188Y02563D01*
X02218D02*
X02198D01*
X02218Y02583*
Y02588*
X02213Y02593*
X02203*
X02198Y02588*
X02228D02*
X02233Y02593D01*
X02243*
X02248Y02588*
Y02583*
X02243Y02578*
X02238*
X02243*
X02248Y02573*
Y02568*
X02243Y02563*
X02233*
X02228Y02568*
X02723Y02563D02*
Y02593D01*
X02738*
X02743Y02588*
Y02578*
X02738Y02573*
X02723*
X02733D02*
X02743Y02563D01*
X02773D02*
X02753D01*
X02773Y02583*
Y02588*
X02768Y02593*
X02758*
X02753Y02588*
X02783Y02568D02*
X02788Y02563D01*
X02798*
X02803Y02568*
Y02588*
X02798Y02593*
X02788*
X02783Y02588*
Y02583*
X02788Y02578*
X02803*
X00593Y02527D02*
X00623D01*
Y02512*
X00618Y02507*
X00608*
X00603Y02512*
Y02527*
Y02517D02*
X00593Y02507D01*
Y02497D02*
Y02487D01*
Y02492*
X00623*
X00618Y02497*
Y02472D02*
X00623Y02467D01*
Y02457*
X00618Y02452*
X00598*
X00593Y02457*
Y02467*
X00598Y02472*
X00618*
X0116Y02523D02*
X0119D01*
Y02508*
X01185Y02503*
X01175*
X0117Y02508*
Y02523*
Y02513D02*
X0116Y02503D01*
Y02493D02*
Y02483D01*
Y02488*
X0119*
X01185Y02493*
X0119Y02448D02*
X01185Y02458D01*
X01175Y02468*
X01165*
X0116Y02463*
Y02453*
X01165Y02448*
X0117*
X01175Y02453*
Y02468*
X01731Y02519D02*
X01761D01*
Y02504*
X01756Y02499*
X01746*
X01741Y02504*
Y02519*
Y02509D02*
X01731Y02499D01*
Y02469D02*
Y02489D01*
X01751Y02469*
X01756*
X01761Y02474*
Y02484*
X01756Y02489*
X01731Y02439D02*
Y02459D01*
X01751Y02439*
X01756*
X01761Y02444*
Y02454*
X01756Y02459*
X02328Y02435D02*
X02298D01*
Y0245*
X02303Y02455*
X02313*
X02318Y0245*
Y02435*
Y02445D02*
X02328Y02455D01*
Y02485D02*
Y02465D01*
X02308Y02485*
X02303*
X02298Y0248*
Y0247*
X02303Y02465*
Y02495D02*
X02298Y025D01*
Y0251*
X02303Y02515*
X02308*
X02313Y0251*
X02318Y02515*
X02323*
X02328Y0251*
Y025*
X02323Y02495*
X02318*
X02313Y025*
X02308Y02495*
X02303*
X02313Y025D02*
Y0251D01*
X00805Y02705D02*
Y02735D01*
X0082*
X00825Y0273*
Y0272*
X0082Y02715*
X00805*
X00815D02*
X00825Y02705D01*
X00835Y0273D02*
X0084Y02735D01*
X0085*
X00855Y0273*
Y02725*
X0085Y0272*
X00855Y02715*
Y0271*
X0085Y02705*
X0084*
X00835Y0271*
Y02715*
X0084Y0272*
X00835Y02725*
Y0273*
X0084Y0272D02*
X0085D01*
X01395Y02762D02*
X01425D01*
Y02747*
X0142Y02742*
X0141*
X01405Y02747*
Y02762*
Y02752D02*
X01395Y02742D01*
Y02732D02*
Y02722D01*
Y02727*
X01425*
X0142Y02732*
X01395Y02692D02*
X01425D01*
X0141Y02707*
Y02687*
X01905Y027D02*
Y0273D01*
X0192*
X01925Y02725*
Y02715*
X0192Y0271*
X01905*
X01915D02*
X01925Y027D01*
X01955D02*
X01935D01*
X01955Y0272*
Y02725*
X0195Y0273*
X0194*
X01935Y02725*
X01965D02*
X0197Y0273D01*
X0198*
X01985Y02725*
Y02705*
X0198Y027*
X0197*
X01965Y02705*
Y02725*
X02475Y0269D02*
Y0272D01*
X0249*
X02495Y02715*
Y02705*
X0249Y027*
X02475*
X02485D02*
X02495Y0269D01*
X02525D02*
X02505D01*
X02525Y0271*
Y02715*
X0252Y0272*
X0251*
X02505Y02715*
X02555Y0272D02*
X02545Y02715D01*
X02535Y02705*
Y02695*
X0254Y0269*
X0255*
X02555Y02695*
Y027*
X0255Y02705*
X02535*
X0241Y0289D02*
X02415Y02895D01*
Y02905*
X0241Y0291*
X0239*
X02385Y02905*
Y02895*
X0239Y0289*
X0241Y0288D02*
X02415Y02875D01*
Y02865*
X0241Y0286*
X02405*
X024Y02865*
Y0287*
Y02865*
X02395Y0286*
X0239*
X02385Y02865*
Y02875*
X0239Y0288*
X02385Y0285D02*
Y0284D01*
Y02845*
X02415*
X0241Y0285*
X02155Y02865D02*
X0215Y0286D01*
Y0285*
X02155Y02845*
X02175*
X0218Y0285*
Y0286*
X02175Y02865*
X02155Y02875D02*
X0215Y0288D01*
Y0289*
X02155Y02895*
X0216*
X02165Y0289*
Y02885*
Y0289*
X0217Y02895*
X02175*
X0218Y0289*
Y0288*
X02175Y02875*
X02155Y02905D02*
X0215Y0291D01*
Y0292*
X02155Y02925*
X02175*
X0218Y0292*
Y0291*
X02175Y02905*
X02155*
X00807Y03055D02*
X00802Y0306D01*
X00792*
X00787Y03055*
Y03035*
X00792Y0303*
X00802*
X00807Y03035*
X00817Y0303D02*
X00827D01*
X00822*
Y0306*
X00817Y03055*
X00842Y03035D02*
X00847Y0303D01*
X00857*
X00862Y03035*
Y03055*
X00857Y0306*
X00847*
X00842Y03055*
Y0305*
X00847Y03045*
X00862*
X01527Y03555D02*
X01522Y0356D01*
X01512*
X01507Y03555*
Y03535*
X01512Y0353*
X01522*
X01527Y03535*
X01537Y0353D02*
X01547D01*
X01542*
Y0356*
X01537Y03555*
X01562Y0356D02*
X01582D01*
Y03555*
X01562Y03535*
Y0353*
X00828Y03571D02*
X00823Y03576D01*
X00813*
X00808Y03571*
Y03551*
X00813Y03546*
X00823*
X00828Y03551*
X00838Y03546D02*
X00848D01*
X00843*
Y03576*
X00838Y03571*
X00878Y03546D02*
Y03576D01*
X00863Y03561*
X00883*
X0181Y031D02*
X01805Y03105D01*
X01795*
X0179Y031*
Y0308*
X01795Y03075*
X01805*
X0181Y0308*
X0184Y03075D02*
X0182D01*
X0184Y03095*
Y031*
X01835Y03105*
X01825*
X0182Y031*
X0185D02*
X01855Y03105D01*
X01865*
X0187Y031*
Y03095*
X01865Y0309*
X0187Y03085*
Y0308*
X01865Y03075*
X01855*
X0185Y0308*
Y03085*
X01855Y0309*
X0185Y03095*
Y031*
X01855Y0309D02*
X01865D01*
X01229Y03384D02*
X01224Y03389D01*
X01214*
X01209Y03384*
Y03364*
X01214Y03359*
X01224*
X01229Y03364*
X01239Y03359D02*
X01249D01*
X01244*
Y03389*
X01239Y03384*
X01284Y03389D02*
X01274Y03384D01*
X01264Y03374*
Y03364*
X01269Y03359*
X01279*
X01284Y03364*
Y03369*
X01279Y03374*
X01264*
X01092Y03385D02*
X01087Y0339D01*
X01077*
X01072Y03385*
Y03365*
X01077Y0336*
X01087*
X01092Y03365*
X01102Y0336D02*
X01112D01*
X01107*
Y0339*
X01102Y03385*
X01147Y0339D02*
X01127D01*
Y03375*
X01137Y0338*
X01142*
X01147Y03375*
Y03365*
X01142Y0336*
X01132*
X01127Y03365*
X0269Y03455D02*
X02685Y0346D01*
X02675*
X0267Y03455*
Y03435*
X02675Y0343*
X02685*
X0269Y03435*
X0272Y0343D02*
X027D01*
X0272Y0345*
Y03455*
X02715Y0346*
X02705*
X027Y03455*
X0275Y0346D02*
X0274Y03455D01*
X0273Y03445*
Y03435*
X02735Y0343*
X02745*
X0275Y03435*
Y0344*
X02745Y03445*
X0273*
X01911Y03561D02*
X01906Y03566D01*
X01896*
X01891Y03561*
Y03541*
X01896Y03536*
X01906*
X01911Y03541*
X01941Y03536D02*
X01921D01*
X01941Y03556*
Y03561*
X01936Y03566*
X01926*
X01921Y03561*
X01951D02*
X01956Y03566D01*
X01966*
X01971Y03561*
Y03556*
X01966Y03551*
X01961*
X01966*
X01971Y03546*
Y03541*
X01966Y03536*
X01956*
X01951Y03541*
X0231Y03525D02*
X02305Y0353D01*
X02295*
X0229Y03525*
Y03505*
X02295Y035*
X02305*
X0231Y03505*
X0234Y035D02*
X0232D01*
X0234Y0352*
Y03525*
X02335Y0353*
X02325*
X0232Y03525*
X0237Y0353D02*
X0235D01*
Y03515*
X0236Y0352*
X02365*
X0237Y03515*
Y03505*
X02365Y035*
X02355*
X0235Y03505*
X0222Y03525D02*
X02215Y0353D01*
X02205*
X022Y03525*
Y03505*
X02205Y035*
X02215*
X0222Y03505*
X0225Y035D02*
X0223D01*
X0225Y0352*
Y03525*
X02245Y0353*
X02235*
X0223Y03525*
X02275Y035D02*
Y0353D01*
X0226Y03515*
X0228*
X00695Y0226D02*
X0069Y02265D01*
X0068*
X00675Y0226*
Y0224*
X0068Y02235*
X0069*
X00695Y0224*
X00705Y0226D02*
X0071Y02265D01*
X0072*
X00725Y0226*
Y02255*
X0072Y0225*
X00715*
X0072*
X00725Y02245*
Y0224*
X0072Y02235*
X0071*
X00705Y0224*
X00735Y0226D02*
X0074Y02265D01*
X0075*
X00755Y0226*
Y02255*
X0075Y0225*
X00745*
X0075*
X00755Y02245*
Y0224*
X0075Y02235*
X0074*
X00735Y0224*
X0125Y0225D02*
X01245Y02255D01*
X01235*
X0123Y0225*
Y0223*
X01235Y02225*
X01245*
X0125Y0223*
X0126Y0225D02*
X01265Y02255D01*
X01275*
X0128Y0225*
Y02245*
X01275Y0224*
X0127*
X01275*
X0128Y02235*
Y0223*
X01275Y02225*
X01265*
X0126Y0223*
X0131Y02255D02*
X013Y0225D01*
X0129Y0224*
Y0223*
X01295Y02225*
X01305*
X0131Y0223*
Y02235*
X01305Y0224*
X0129*
X0182Y02245D02*
X01815Y0225D01*
X01805*
X018Y02245*
Y02225*
X01805Y0222*
X01815*
X0182Y02225*
X01845Y0222D02*
Y0225D01*
X0183Y02235*
X0185*
X0186Y02245D02*
X01865Y0225D01*
X01875*
X0188Y02245*
Y02225*
X01875Y0222*
X01865*
X0186Y02225*
Y02245*
X0238Y0225D02*
X02375Y02255D01*
X02365*
X0236Y0225*
Y0223*
X02365Y02225*
X02375*
X0238Y0223*
X02405Y02225D02*
Y02255D01*
X0239Y0224*
X0241*
X02435Y02225D02*
Y02255D01*
X0242Y0224*
X0244*
X00855Y02195D02*
X0085Y022D01*
X0084*
X00835Y02195*
Y02175*
X0084Y0217*
X0085*
X00855Y02175*
X00865Y02195D02*
X0087Y022D01*
X0088*
X00885Y02195*
Y0219*
X0088Y02185*
X00875*
X0088*
X00885Y0218*
Y02175*
X0088Y0217*
X0087*
X00865Y02175*
X0091Y0217D02*
Y022D01*
X00895Y02185*
X00915*
X01415D02*
X0141Y0219D01*
X014*
X01395Y02185*
Y02165*
X014Y0216*
X0141*
X01415Y02165*
X01425Y02185D02*
X0143Y0219D01*
X0144*
X01445Y02185*
Y0218*
X0144Y02175*
X01435*
X0144*
X01445Y0217*
Y02165*
X0144Y0216*
X0143*
X01425Y02165*
X01455Y0219D02*
X01475D01*
Y02185*
X01455Y02165*
Y0216*
X01987Y02169D02*
X01982Y02174D01*
X01972*
X01967Y02169*
Y02149*
X01972Y02144*
X01982*
X01987Y02149*
X02012Y02144D02*
Y02174D01*
X01997Y02159*
X02017*
X02027Y02144D02*
X02037D01*
X02032*
Y02174*
X02027Y02169*
X02539Y0219D02*
X02534Y02195D01*
X02524*
X02519Y0219*
Y0217*
X02524Y02165*
X02534*
X02539Y0217*
X02564Y02165D02*
Y02195D01*
X02549Y0218*
X02569*
X02599Y02195D02*
X02579D01*
Y0218*
X02589Y02185*
X02594*
X02599Y0218*
Y0217*
X02594Y02165*
X02584*
X02579Y0217*
X0102Y02255D02*
X01015Y0226D01*
X01005*
X01Y02255*
Y02235*
X01005Y0223*
X01015*
X0102Y02235*
X0103Y02255D02*
X01035Y0226D01*
X01045*
X0105Y02255*
Y0225*
X01045Y02245*
X0104*
X01045*
X0105Y0224*
Y02235*
X01045Y0223*
X01035*
X0103Y02235*
X0108Y0226D02*
X0106D01*
Y02245*
X0107Y0225*
X01075*
X0108Y02245*
Y02235*
X01075Y0223*
X01065*
X0106Y02235*
X01585Y0225D02*
X0158Y02255D01*
X0157*
X01565Y0225*
Y0223*
X0157Y02225*
X0158*
X01585Y0223*
X01595Y0225D02*
X016Y02255D01*
X0161*
X01615Y0225*
Y02245*
X0161Y0224*
X01605*
X0161*
X01615Y02235*
Y0223*
X0161Y02225*
X016*
X01595Y0223*
X01625Y0225D02*
X0163Y02255D01*
X0164*
X01645Y0225*
Y02245*
X0164Y0224*
X01645Y02235*
Y0223*
X0164Y02225*
X0163*
X01625Y0223*
Y02235*
X0163Y0224*
X01625Y02245*
Y0225*
X0163Y0224D02*
X0164D01*
X02155Y0225D02*
X0215Y02255D01*
X0214*
X02135Y0225*
Y0223*
X0214Y02225*
X0215*
X02155Y0223*
X0218Y02225D02*
Y02255D01*
X02165Y0224*
X02185*
X02215Y02225D02*
X02195D01*
X02215Y02245*
Y0225*
X0221Y02255*
X022*
X02195Y0225*
X0271Y0224D02*
X02705Y02245D01*
X02695*
X0269Y0224*
Y0222*
X02695Y02215*
X02705*
X0271Y0222*
X02735Y02215D02*
Y02245D01*
X0272Y0223*
X0274*
X0277Y02245D02*
X0276Y0224D01*
X0275Y0223*
Y0222*
X02755Y02215*
X02765*
X0277Y0222*
Y02225*
X02765Y0223*
X0275*
X00705Y0273D02*
X007Y02735D01*
X0069*
X00685Y0273*
Y0271*
X0069Y02705*
X007*
X00705Y0271*
X00715Y0273D02*
X0072Y02735D01*
X0073*
X00735Y0273*
Y02725*
X0073Y0272*
X00725*
X0073*
X00735Y02715*
Y0271*
X0073Y02705*
X0072*
X00715Y0271*
X00765Y02705D02*
X00745D01*
X00765Y02725*
Y0273*
X0076Y02735*
X0075*
X00745Y0273*
X01232Y02725D02*
X01227Y0273D01*
X01217*
X01212Y02725*
Y02705*
X01217Y027*
X01227*
X01232Y02705*
X01242Y027D02*
X01252D01*
X01247*
Y0273*
X01242Y02725*
X01287Y0273D02*
X01267D01*
Y02715*
X01277Y0272*
X01282*
X01287Y02715*
Y02705*
X01282Y027*
X01272*
X01267Y02705*
X02675Y0321D02*
X0267Y03215D01*
X0266*
X02655Y0321*
Y0319*
X0266Y03185*
X0267*
X02675Y0319*
X02705Y03185D02*
X02685D01*
X02705Y03205*
Y0321*
X027Y03215*
X0269*
X02685Y0321*
X02715Y0319D02*
X0272Y03185D01*
X0273*
X02735Y0319*
Y0321*
X0273Y03215*
X0272*
X02715Y0321*
Y03205*
X0272Y032*
X02735*
X01952Y01545D02*
X01947Y0155D01*
X01937*
X01932Y01545*
Y01525*
X01937Y0152*
X01947*
X01952Y01525*
X01962Y0152D02*
X01972D01*
X01967*
Y0155*
X01962Y01545*
X01987Y0152D02*
X01997D01*
X01992*
Y0155*
X01987Y01545*
X01972Y0167D02*
X01967Y01675D01*
X01957*
X01952Y0167*
Y0165*
X01957Y01645*
X01967*
X01972Y0165*
X01982Y01645D02*
X01992D01*
X01987*
Y01675*
X01982Y0167*
X02027Y01645D02*
X02007D01*
X02027Y01665*
Y0167*
X02022Y01675*
X02012*
X02007Y0167*
X01457Y0157D02*
X01452Y01575D01*
X01442*
X01437Y0157*
Y0155*
X01442Y01545*
X01452*
X01457Y0155*
X01467Y01545D02*
X01477D01*
X01472*
Y01575*
X01467Y0157*
X01492D02*
X01497Y01575D01*
X01507*
X01512Y0157*
Y0155*
X01507Y01545*
X01497*
X01492Y0155*
Y0157*
X01205Y018D02*
X012Y01805D01*
X0119*
X01185Y018*
Y0178*
X0119Y01775*
X012*
X01205Y0178*
X01215D02*
X0122Y01775D01*
X0123*
X01235Y0178*
Y018*
X0123Y01805*
X0122*
X01215Y018*
Y01795*
X0122Y0179*
X01235*
X01695Y013D02*
X0169Y01305D01*
X0168*
X01675Y013*
Y0128*
X0168Y01275*
X0169*
X01695Y0128*
X01705Y013D02*
X0171Y01305D01*
X0172*
X01725Y013*
Y01295*
X0172Y0129*
X01725Y01285*
Y0128*
X0172Y01275*
X0171*
X01705Y0128*
Y01285*
X0171Y0129*
X01705Y01295*
Y013*
X0171Y0129D02*
X0172D01*
X01515Y01055D02*
X0151Y0106D01*
X015*
X01495Y01055*
Y01035*
X015Y0103*
X0151*
X01515Y01035*
X01525Y01055D02*
X0153Y0106D01*
X0154*
X01545Y01055*
Y0105*
X0154Y01045*
X01535*
X0154*
X01545Y0104*
Y01035*
X0154Y0103*
X0153*
X01525Y01035*
X01235Y01055D02*
X0123Y0106D01*
X0122*
X01215Y01055*
Y01035*
X0122Y0103*
X0123*
X01235Y01035*
X01265Y0103D02*
X01245D01*
X01265Y0105*
Y01055*
X0126Y0106*
X0125*
X01245Y01055*
X01132Y01356D02*
X01127Y01361D01*
X01117*
X01112Y01356*
Y01336*
X01117Y01331*
X01127*
X01132Y01336*
X01142Y01331D02*
X01152D01*
X01147*
Y01361*
X01142Y01356*
X01165Y01515D02*
Y0149D01*
X0117Y01485*
X0118*
X01185Y0149*
Y01515*
X01195Y01485D02*
X01205D01*
X012*
Y01515*
X01195Y0151*
X0197Y01385D02*
X0199Y01355D01*
Y01385D02*
X0197Y01355D01*
X02D02*
X0201D01*
X02005*
Y01385*
X02Y0138*
X0189Y01015D02*
Y0099D01*
X01895Y00985*
X01905*
X0191Y0099*
Y01015*
X0192Y0101D02*
X01925Y01015D01*
X01935*
X0194Y0101*
Y01005*
X01935Y01*
X0193*
X01935*
X0194Y00995*
Y0099*
X01935Y00985*
X01925*
X0192Y0099*
X0069Y0166D02*
Y0169D01*
X00705*
X0071Y01685*
Y01675*
X00705Y0167*
X0069*
X007D02*
X0071Y0166D01*
X0072Y01685D02*
X00725Y0169D01*
X00735*
X0074Y01685*
Y0168*
X00735Y01675*
X0073*
X00735*
X0074Y0167*
Y01665*
X00735Y0166*
X00725*
X0072Y01665*
X0186Y01285D02*
Y01315D01*
X01875*
X0188Y0131*
Y013*
X01875Y01295*
X0186*
X0187D02*
X0188Y01285D01*
X0191D02*
X0189D01*
X0191Y01305*
Y0131*
X01905Y01315*
X01895*
X0189Y0131*
X0183Y0119D02*
Y0122D01*
X01845*
X0185Y01215*
Y01205*
X01845Y012*
X0183*
X0184D02*
X0185Y0119D01*
X0186D02*
X0187D01*
X01865*
Y0122*
X0186Y01215*
X0061Y019D02*
Y0193D01*
X0062Y0192*
X0063Y0193*
Y019*
X0066Y01925D02*
X00655Y0193D01*
X00645*
X0064Y01925*
Y01905*
X00645Y019*
X00655*
X0066Y01905*
X0067Y0193D02*
Y019D01*
X0069*
X007D02*
Y0193D01*
X00715*
X0072Y01925*
Y01915*
X00715Y0191*
X007*
X0071D02*
X0072Y019D01*
X00102Y01662D02*
X00092D01*
X00097*
Y01637*
X00092Y01632*
X00087*
X00082Y01637*
X00132Y01632D02*
X00112D01*
X00132Y01652*
Y01657*
X00127Y01662*
X00117*
X00112Y01657*
X0121Y0168D02*
X01205Y01685D01*
X01195*
X0119Y0168*
Y0166*
X01195Y01655*
X01205*
X0121Y0166*
X01235Y01655D02*
Y01685D01*
X0122Y0167*
X0124*
X02285Y0135D02*
X0228Y01355D01*
X0227*
X02265Y0135*
Y0133*
X0227Y01325*
X0228*
X02285Y0133*
X02315Y01355D02*
X02305Y0135D01*
X02295Y0134*
Y0133*
X023Y01325*
X0231*
X02315Y0133*
Y01335*
X0231Y0134*
X02295*
X02285Y01195D02*
X0228Y012D01*
X0227*
X02265Y01195*
Y01175*
X0227Y0117*
X0228*
X02285Y01175*
X02295Y012D02*
X02315D01*
Y01195*
X02295Y01175*
Y0117*
X01385Y0155D02*
X0138Y01555D01*
X0137*
X01365Y0155*
Y0153*
X0137Y01525*
X0138*
X01385Y0153*
X01415Y01555D02*
X01395D01*
Y0154*
X01405Y01545*
X0141*
X01415Y0154*
Y0153*
X0141Y01525*
X014*
X01395Y0153*
X02107Y0177D02*
X02102Y01775D01*
X02092*
X02087Y0177*
Y0175*
X02092Y01745*
X02102*
X02107Y0175*
X02117Y01745D02*
X02127D01*
X02122*
Y01775*
X02117Y0177*
X02142D02*
X02147Y01775D01*
X02157*
X02162Y0177*
Y01765*
X02157Y0176*
X02152*
X02157*
X02162Y01755*
Y0175*
X02157Y01745*
X02147*
X02142Y0175*
G54D16*
X00427Y00787D02*
Y00745D01*
X00435Y00737*
X00452*
X0046Y00745*
Y00787*
X00477D02*
Y00737D01*
X0051*
X00527Y00762D02*
X0056D01*
X0061Y00778D02*
X00601Y00787D01*
X00585*
X00577Y00778*
Y0077*
X00585Y00762*
X00601*
X0061Y00753*
Y00745*
X00601Y00737*
X00585*
X00577Y00745*
X00626Y00787D02*
Y00737D01*
X00643Y00753*
X0066Y00737*
Y00787*
X00676Y00737D02*
Y0077D01*
X00693Y00787*
X0071Y0077*
Y00737*
Y00762*
X00676*
X00726Y00737D02*
Y00787D01*
X00751*
X0076Y00778*
Y00762*
X00751Y00753*
X00726*
X00776Y00762D02*
X0081D01*
X00826Y00787D02*
Y00737D01*
X00851*
X0086Y00745*
Y00778*
X00851Y00787*
X00826*
X00876Y00737D02*
Y0077D01*
X00893Y00787*
X0091Y0077*
Y00737*
Y00762*
X00876*
X0096Y00745D02*
Y00778D01*
X00951Y00787*
X00935*
X00926Y00778*
Y00745*
X00935Y00737*
X00951*
X00943Y00753D02*
X0096Y00737D01*
X00951D02*
X0096Y00745D01*
X00976Y00762D02*
X0101D01*
X01026Y00737D02*
X01043D01*
X01035*
Y00787*
X01026Y00778*
M02*