%FSTAX23Y23*%
%MOIN*%
%SFA1B1*%

%IPPOS*%
%ADD11C,0.010000*%
%ADD67C,0.040000*%
%ADD68C,0.087200*%
%ADD69C,0.075400*%
%ADD70C,0.075000*%
%ADD71C,0.168000*%
%ADD72C,0.079400*%
%ADD73C,0.052000*%
%ADD74C,0.080000*%
%ADD75C,0.064000*%
%ADD76C,0.020000*%
%ADD77C,0.055000*%
%ADD78C,0.050000*%
G54D11*
X01175Y0289D02*
X01215Y0285D01*
G54D67*
X00365Y0068D02*
X03095D01*
X00365D02*
Y04D01*
X03095*
Y0068D02*
Y04D01*
G54D68*
X01592Y0377D03*
X0173D03*
X01867D03*
X02005D03*
X02143D03*
X02281D03*
X01454D03*
X01316D03*
X01178D03*
G54D69*
X02625Y01485D03*
Y01385D03*
Y01285D03*
Y01185D03*
Y01085D03*
X02725D03*
G54D70*
X0085Y01215D03*
X0075Y01265D03*
X0085Y01315D03*
Y01415D03*
G54D71*
X005Y01489D03*
Y01089D03*
G54D72*
X0075Y01165D03*
G54D73*
X0126Y02775D03*
X00615Y0263D03*
X0139Y03315D03*
X02825Y02465D03*
X02701Y02476D03*
X02422Y02477D03*
X02146Y02475D03*
X01867Y02479D03*
X0157Y0248D03*
X01291Y02482D03*
X0101Y02485D03*
X00735Y0249D03*
X0208Y0282D03*
X0204Y0286D03*
X02Y029D03*
X0196Y0294D03*
X0136Y0282D03*
X01395Y0286D03*
X0143Y029D03*
X01465Y0294D03*
X0207Y03168D03*
X02285Y03515D03*
X0258Y027D03*
X02005Y02655D03*
X0179Y0266D03*
X01794Y02593D03*
X00785Y0271D03*
X0093Y02715D03*
X0145D03*
X01325D03*
Y01675D03*
X01272Y0159D03*
X0223Y01285D03*
Y0123D03*
X0177Y01195D03*
X0233Y02748D03*
X0191Y0081D03*
X02305Y01075D03*
X01905Y0107D03*
X0118Y0355D03*
X0095Y01785D03*
X0269Y02395D03*
X01378Y01498D03*
X01338Y01538D03*
X0092Y0164D03*
X01173Y01877D03*
X01195Y01855D03*
X012Y0172D03*
X01218Y01832D03*
X0131Y01565D03*
X01605Y01535D03*
X01685D03*
X0164Y0152D03*
X02515Y03315D03*
X0178Y0229D03*
X0182Y03235D03*
X00715Y03255D03*
X01435Y0247D03*
X00678Y026D03*
X00673Y02386D03*
X0113Y0236D03*
X02254Y02354D03*
X0088Y0247D03*
X0201Y02465D03*
X0257D03*
X02354Y02594D03*
X01229Y02603D03*
G54D74*
X02675Y00945D03*
Y00845D03*
G54D75*
X01384Y0208D03*
X02457Y02027D03*
X02377Y02107D03*
X01862Y02077D03*
X01935Y02006D03*
X0148Y02085D03*
X01175Y02015D03*
Y0211D03*
G54D76*
X02285Y0353D02*
X02555D01*
X0256Y03535*
Y03725*
Y0388*
X0108Y0259D02*
X01357D01*
X00565Y03105D02*
X0108Y0259D01*
X00565Y03105D02*
Y0388D01*
X01096Y02772D02*
X01175D01*
X00785Y03084D02*
X01096Y02772D01*
X00785Y03084D02*
Y03625D01*
X02435Y0291D02*
Y0292D01*
X00565Y0388D02*
X0256D01*
X02435Y0291D02*
X0267Y02675D01*
X02395Y0295D02*
X0243Y02915D01*
X0202Y0295D02*
X02395D01*
X01902Y03067D02*
X0202Y0295D01*
X01902Y03067D02*
X02285Y0345D01*
X01357Y0259D02*
X0235D01*
X01175Y02772D02*
Y0289D01*
X00785Y03625D02*
X01145D01*
X0132Y0345*
X0159*
X0175Y0361*
X02285Y0345D02*
Y0361D01*
X0175D02*
X02285D01*
X01215Y0285D02*
X0218D01*
X02285Y0275D02*
Y0285D01*
X0218Y0275D02*
X02285D01*
X0235Y0259D02*
X02675Y02265D01*
X0286Y02485D02*
Y0134D01*
X02675D02*
X0286D01*
X02675D02*
Y01435D01*
X02795*
X02675D02*
Y02265D01*
X02795Y01435D02*
Y0241D01*
X0218Y0275D02*
Y0285D01*
X0243Y02915D02*
X0286Y02485D01*
X02355Y0285D02*
X02795Y0241D01*
X02285Y0285D02*
X02355D01*
X0252Y01235D02*
X02805D01*
X0252D02*
Y01875D01*
X02805Y01235D02*
Y00685D01*
X00515Y01875D02*
X0252D01*
X00515Y01775D02*
Y01875D01*
Y01775D02*
Y00685D01*
G54D77*
X01645Y01748D03*
X0139Y01315D03*
X01445D03*
X0139Y0126D03*
X01445D03*
X0139Y01362D03*
X01445D03*
X0139Y01214D03*
X01445D03*
X01344Y01315D03*
Y0126D03*
X01492Y01315D03*
Y0126D03*
X01592Y01748D03*
X01698D03*
X01592Y01678D03*
X01618Y01713D03*
X01617Y01643D03*
X01671D03*
X01674Y01713D03*
X01645Y01678D03*
X01697D03*
G54D78*
X02177Y03129D03*
X02217D03*
X02257D03*
X02177Y03199D03*
Y03164D03*
X02217Y03199D03*
Y03164D03*
X02257D03*
Y03199D03*
X02307Y03129D03*
Y03199D03*
Y03164D03*
X02342Y03199D03*
Y03164D03*
Y03129D03*
X02382D03*
Y03164D03*
Y03199D03*
X01277Y03214D03*
Y03179D03*
Y03144D03*
X01237D03*
Y03179D03*
Y03214D03*
X01202Y03179D03*
Y03214D03*
Y03144D03*
X01152Y03214D03*
Y03179D03*
X01112D03*
Y03214D03*
X01072Y03179D03*
Y03214D03*
X01152Y03144D03*
X01112D03*
X01072D03*
M02*