%FSTAX23Y23*%
%MOIN*%
%SFA1B1*%

%IPPOS*%
%ADD79C,0.002000*%
%ADD80C,0.002700*%
%ADD81C,0.001300*%
G54D79*
X01584Y03762D02*
X01588D01*
X01592Y03766*
X01596Y03762*
X016*
Y03766*
X01596Y0377*
X016Y03774*
Y03778*
X01596*
X01592Y03774*
X01588Y03778*
X01584*
Y03774*
X01588Y0377*
X01584Y03766*
Y03762*
X01722D02*
X01726D01*
X0173Y03766*
X01734Y03762*
X01738*
Y03766*
X01734Y0377*
X01738Y03774*
Y03778*
X01734*
X0173Y03774*
X01726Y03778*
X01722*
Y03774*
X01726Y0377*
X01722Y03766*
Y03762*
X01859D02*
X01863D01*
X01867Y03766*
X01871Y03762*
X01875*
Y03766*
X01871Y0377*
X01875Y03774*
Y03778*
X01871*
X01867Y03774*
X01863Y03778*
X01859*
Y03774*
X01863Y0377*
X01859Y03766*
Y03762*
X01997D02*
X02001D01*
X02005Y03766*
X02009Y03762*
X02013*
Y03766*
X02009Y0377*
X02013Y03774*
Y03778*
X02009*
X02005Y03774*
X02001Y03778*
X01997*
Y03774*
X02001Y0377*
X01997Y03766*
Y03762*
X02135D02*
X02139D01*
X02143Y03766*
X02147Y03762*
X02151*
Y03766*
X02147Y0377*
X02151Y03774*
Y03778*
X02147*
X02143Y03774*
X02139Y03778*
X02135*
Y03774*
X02139Y0377*
X02135Y03766*
Y03762*
X02273D02*
X02277D01*
X02281Y03766*
X02285Y03762*
X02289*
Y03766*
X02285Y0377*
X02289Y03774*
Y03778*
X02285*
X02281Y03774*
X02277Y03778*
X02273*
Y03774*
X02277Y0377*
X02273Y03766*
Y03762*
X01446D02*
X0145D01*
X01454Y03766*
X01458Y03762*
X01462*
Y03766*
X01458Y0377*
X01462Y03774*
Y03778*
X01458*
X01454Y03774*
X0145Y03778*
X01446*
Y03774*
X0145Y0377*
X01446Y03766*
Y03762*
X01308D02*
X01312D01*
X01316Y03766*
X0132Y03762*
X01324*
Y03766*
X0132Y0377*
X01324Y03774*
Y03778*
X0132*
X01316Y03774*
X01312Y03778*
X01308*
Y03774*
X01312Y0377*
X01308Y03766*
Y03762*
X0117D02*
X01174D01*
X01178Y03766*
X01182Y03762*
X01186*
Y03766*
X01182Y0377*
X01186Y03774*
Y03778*
X01182*
X01178Y03774*
X01174Y03778*
X0117*
Y03774*
X01174Y0377*
X0117Y03766*
Y03762*
X02617Y01477D02*
Y01493D01*
X02633*
Y01477*
X02617*
X02621Y01481D02*
Y01489D01*
X02629*
Y01481*
X02621*
X02717Y01477D02*
Y01493D01*
X02733*
Y01477*
X02717*
X02721Y01481D02*
Y01489D01*
X02729*
Y01481*
X02721*
X02617Y01377D02*
Y01393D01*
X02633*
Y01377*
X02617*
X02621Y01381D02*
Y01389D01*
X02629*
Y01381*
X02621*
X02717Y01377D02*
Y01393D01*
X02733*
Y01377*
X02717*
X02721Y01381D02*
Y01389D01*
X02729*
Y01381*
X02721*
X02617Y01277D02*
Y01293D01*
X02633*
Y01277*
X02617*
X02621Y01281D02*
Y01289D01*
X02629*
Y01281*
X02621*
X02717Y01277D02*
Y01293D01*
X02733*
Y01277*
X02717*
X02721Y01281D02*
Y01289D01*
X02729*
Y01281*
X02721*
X02617Y01177D02*
Y01193D01*
X02633*
Y01177*
X02617*
X02621Y01181D02*
Y01189D01*
X02629*
Y01181*
X02621*
X02717Y01177D02*
Y01193D01*
X02733*
Y01177*
X02717*
X02721Y01181D02*
Y01189D01*
X02729*
Y01181*
X02721*
X02617Y01077D02*
Y01093D01*
X02633*
Y01077*
X02617*
X02621Y01081D02*
Y01089D01*
X02629*
Y01081*
X02621*
X02717Y01077D02*
Y01093D01*
X02733*
Y01077*
X02717*
X02721Y01081D02*
Y01089D01*
X02729*
Y01081*
X02721*
X02169Y03129D02*
X02177Y03137D01*
X02185Y03129*
X02177Y03121*
X02169Y03129*
X02209D02*
X02217Y03137D01*
X02225Y03129*
X02217Y03121*
X02209Y03129*
X02249D02*
X02257Y03137D01*
X02265Y03129*
X02257Y03121*
X02249Y03129*
X02169Y03199D02*
X02177Y03207D01*
X02185Y03199*
X02177Y03191*
X02169Y03199*
Y03164D02*
X02177Y03172D01*
X02185Y03164*
X02177Y03156*
X02169Y03164*
X02209Y03199D02*
X02217Y03207D01*
X02225Y03199*
X02217Y03191*
X02209Y03199*
Y03164D02*
X02217Y03172D01*
X02225Y03164*
X02217Y03156*
X02209Y03164*
X02249D02*
X02257Y03172D01*
X02265Y03164*
X02257Y03156*
X02249Y03164*
Y03199D02*
X02257Y03207D01*
X02265Y03199*
X02257Y03191*
X02249Y03199*
X02299Y03129D02*
X02307Y03137D01*
X02315Y03129*
X02307Y03121*
X02299Y03129*
Y03199D02*
X02307Y03207D01*
X02315Y03199*
X02307Y03191*
X02299Y03199*
Y03164D02*
X02307Y03172D01*
X02315Y03164*
X02307Y03156*
X02299Y03164*
X02334Y03199D02*
X02342Y03207D01*
X0235Y03199*
X02342Y03191*
X02334Y03199*
Y03164D02*
X02342Y03172D01*
X0235Y03164*
X02342Y03156*
X02334Y03164*
Y03129D02*
X02342Y03137D01*
X0235Y03129*
X02342Y03121*
X02334Y03129*
X02374D02*
X02382Y03137D01*
X0239Y03129*
X02382Y03121*
X02374Y03129*
Y03164D02*
X02382Y03172D01*
X0239Y03164*
X02382Y03156*
X02374Y03164*
Y03199D02*
X02382Y03207D01*
X0239Y03199*
X02382Y03191*
X02374Y03199*
X0075Y01357D02*
X00754Y01361D01*
X00758*
X00754Y01365*
X00758Y01369*
X00754*
X0075Y01373*
X00746Y01369*
X00742*
X00746Y01365*
X00742Y01361*
X00746*
X0075Y01357*
X01269Y03214D02*
X01277Y03222D01*
X01285Y03214*
X01277Y03206*
X01269Y03214*
Y03179D02*
X01277Y03187D01*
X01285Y03179*
X01277Y03171*
X01269Y03179*
Y03144D02*
X01277Y03152D01*
X01285Y03144*
X01277Y03136*
X01269Y03144*
X01229D02*
X01237Y03152D01*
X01245Y03144*
X01237Y03136*
X01229Y03144*
Y03179D02*
X01237Y03187D01*
X01245Y03179*
X01237Y03171*
X01229Y03179*
Y03214D02*
X01237Y03222D01*
X01245Y03214*
X01237Y03206*
X01229Y03214*
X01194Y03179D02*
X01202Y03187D01*
X0121Y03179*
X01202Y03171*
X01194Y03179*
Y03214D02*
X01202Y03222D01*
X0121Y03214*
X01202Y03206*
X01194Y03214*
Y03144D02*
X01202Y03152D01*
X0121Y03144*
X01202Y03136*
X01194Y03144*
X01144Y03214D02*
X01152Y03222D01*
X0116Y03214*
X01152Y03206*
X01144Y03214*
Y03179D02*
X01152Y03187D01*
X0116Y03179*
X01152Y03171*
X01144Y03179*
X01104D02*
X01112Y03187D01*
X0112Y03179*
X01112Y03171*
X01104Y03179*
Y03214D02*
X01112Y03222D01*
X0112Y03214*
X01112Y03206*
X01104Y03214*
X01064Y03179D02*
X01072Y03187D01*
X0108Y03179*
X01072Y03171*
X01064Y03179*
Y03214D02*
X01072Y03222D01*
X0108Y03214*
X01072Y03206*
X01064Y03214*
X01144Y03144D02*
X01152Y03152D01*
X0116Y03144*
X01152Y03136*
X01144Y03144*
X01104D02*
X01112Y03152D01*
X0112Y03144*
X01112Y03136*
X01104Y03144*
X01064D02*
X01072Y03152D01*
X0108Y03144*
X01072Y03136*
X01064Y03144*
X0075Y01157D02*
X00742Y01173D01*
X00758*
X0075Y01157*
X0085Y01207D02*
X00854Y01211D01*
X00858*
X00854Y01215*
X00858Y01219*
X00854*
X0085Y01223*
X00846Y01219*
X00842*
X00846Y01215*
X00842Y01211*
X00846*
X0085Y01207*
X0075Y01257D02*
X00754Y01261D01*
X00758*
X00754Y01265*
X00758Y01269*
X00754*
X0075Y01273*
X00746Y01269*
X00742*
X00746Y01265*
X00742Y01261*
X00746*
X0075Y01257*
X0085Y01307D02*
X00854Y01311D01*
X00858*
X00854Y01315*
X00858Y01319*
X00854*
X0085Y01323*
X00846Y01319*
X00842*
X00846Y01315*
X00842Y01311*
X00846*
X0085Y01307*
Y01407D02*
X00854Y01411D01*
X00858*
X00854Y01415*
X00858Y01419*
X00854*
X0085Y01423*
X00846Y01419*
X00842*
X00846Y01415*
X00842Y01411*
X00846*
X0085Y01407*
X01256Y02771D02*
Y02767D01*
X01264*
Y02771*
X01268*
Y02779*
X01264*
Y02783*
X01256*
Y02779*
X01252*
Y02771*
X01256*
X00611Y02626D02*
Y02622D01*
X00619*
Y02626*
X00623*
Y02634*
X00619*
Y02638*
X00611*
Y02634*
X00607*
Y02626*
X00611*
X00576Y03011D02*
Y03007D01*
X00584*
Y03011*
X00588*
Y03019*
X00584*
Y03023*
X00576*
Y03019*
X00572*
Y03011*
X00576*
X01271Y03556D02*
Y03552D01*
X01279*
Y03556*
X01283*
Y03564*
X01279*
Y03568*
X01271*
Y03564*
X01267*
Y03556*
X01271*
X01121Y03551D02*
Y03547D01*
X01129*
Y03551*
X01133*
Y03559*
X01129*
Y03563*
X01121*
Y03559*
X01117*
Y03551*
X01121*
X01386Y03311D02*
Y03307D01*
X01394*
Y03311*
X01398*
Y03319*
X01394*
Y03323*
X01386*
Y03319*
X01382*
Y03311*
X01386*
X02821Y02461D02*
Y02457D01*
X02829*
Y02461*
X02833*
Y02469*
X02829*
Y02473*
X02821*
Y02469*
X02817*
Y02461*
X02821*
X02697Y02472D02*
Y02468D01*
X02705*
Y02472*
X02709*
Y0248*
X02705*
Y02484*
X02697*
Y0248*
X02693*
Y02472*
X02697*
X02418Y02473D02*
Y02469D01*
X02426*
Y02473*
X0243*
Y02481*
X02426*
Y02485*
X02418*
Y02481*
X02414*
Y02473*
X02418*
X02142Y02471D02*
Y02467D01*
X0215*
Y02471*
X02154*
Y02479*
X0215*
Y02483*
X02142*
Y02479*
X02138*
Y02471*
X02142*
X01863Y02475D02*
Y02471D01*
X01871*
Y02475*
X01875*
Y02483*
X01871*
Y02487*
X01863*
Y02483*
X01859*
Y02475*
X01863*
X01566Y02476D02*
Y02472D01*
X01574*
Y02476*
X01578*
Y02484*
X01574*
Y02488*
X01566*
Y02484*
X01562*
Y02476*
X01566*
X01287Y02478D02*
Y02474D01*
X01295*
Y02478*
X01299*
Y02486*
X01295*
Y0249*
X01287*
Y02486*
X01283*
Y02478*
X01287*
X01006Y02481D02*
Y02477D01*
X01014*
Y02481*
X01018*
Y02489*
X01014*
Y02493*
X01006*
Y02489*
X01002*
Y02481*
X01006*
X00731Y02486D02*
Y02482D01*
X00739*
Y02486*
X00743*
Y02494*
X00739*
Y02498*
X00731*
Y02494*
X00727*
Y02486*
X00731*
X02076Y02816D02*
Y02812D01*
X02084*
Y02816*
X02088*
Y02824*
X02084*
Y02828*
X02076*
Y02824*
X02072*
Y02816*
X02076*
X02036Y02856D02*
Y02852D01*
X02044*
Y02856*
X02048*
Y02864*
X02044*
Y02868*
X02036*
Y02864*
X02032*
Y02856*
X02036*
X01996Y02896D02*
Y02892D01*
X02004*
Y02896*
X02008*
Y02904*
X02004*
Y02908*
X01996*
Y02904*
X01992*
Y02896*
X01996*
X01956Y02936D02*
Y02932D01*
X01964*
Y02936*
X01968*
Y02944*
X01964*
Y02948*
X01956*
Y02944*
X01952*
Y02936*
X01956*
X01356Y02816D02*
Y02812D01*
X01364*
Y02816*
X01368*
Y02824*
X01364*
Y02828*
X01356*
Y02824*
X01352*
Y02816*
X01356*
X01391Y02856D02*
Y02852D01*
X01399*
Y02856*
X01403*
Y02864*
X01399*
Y02868*
X01391*
Y02864*
X01387*
Y02856*
X01391*
X01426Y02896D02*
Y02892D01*
X01434*
Y02896*
X01438*
Y02904*
X01434*
Y02908*
X01426*
Y02904*
X01422*
Y02896*
X01426*
X01461Y02936D02*
Y02932D01*
X01469*
Y02936*
X01473*
Y02944*
X01469*
Y02948*
X01461*
Y02944*
X01457*
Y02936*
X01461*
X01219Y0161D02*
Y01606D01*
X01227*
Y0161*
X01231*
Y01618*
X01227*
Y01622*
X01219*
Y01618*
X01215*
Y0161*
X01219*
X02066Y03164D02*
Y0316D01*
X02074*
Y03164*
X02078*
Y03172*
X02074*
Y03176*
X02066*
Y03172*
X02062*
Y03164*
X02066*
X02281Y03511D02*
Y03507D01*
X02289*
Y03511*
X02293*
Y03519*
X02289*
Y03523*
X02281*
Y03519*
X02277*
Y03511*
X02281*
X02501Y03571D02*
Y03567D01*
X02509*
Y03571*
X02513*
Y03579*
X02509*
Y03583*
X02501*
Y03579*
X02497*
Y03571*
X02501*
X02239Y02981D02*
Y02977D01*
X02247*
Y02981*
X02251*
Y02989*
X02247*
Y02993*
X02239*
Y02989*
X02235*
Y02981*
X02239*
X02066Y03021D02*
Y03017D01*
X02074*
Y03021*
X02078*
Y03029*
X02074*
Y03033*
X02066*
Y03029*
X02062*
Y03021*
X02066*
X02576Y02696D02*
Y02692D01*
X02584*
Y02696*
X02588*
Y02704*
X02584*
Y02708*
X02576*
Y02704*
X02572*
Y02696*
X02576*
X02001Y02651D02*
Y02647D01*
X02009*
Y02651*
X02013*
Y02659*
X02009*
Y02663*
X02001*
Y02659*
X01997*
Y02651*
X02001*
X01786Y02656D02*
Y02652D01*
X01794*
Y02656*
X01798*
Y02664*
X01794*
Y02668*
X01786*
Y02664*
X01782*
Y02656*
X01786*
X0179Y02589D02*
Y02585D01*
X01798*
Y02589*
X01802*
Y02597*
X01798*
Y02601*
X0179*
Y02597*
X01786*
Y02589*
X0179*
X00781Y02706D02*
Y02702D01*
X00789*
Y02706*
X00793*
Y02714*
X00789*
Y02718*
X00781*
Y02714*
X00777*
Y02706*
X00781*
X00926Y02711D02*
Y02707D01*
X00934*
Y02711*
X00938*
Y02719*
X00934*
Y02723*
X00926*
Y02719*
X00922*
Y02711*
X00926*
X01446D02*
Y02707D01*
X01454*
Y02711*
X01458*
Y02719*
X01454*
Y02723*
X01446*
Y02719*
X01442*
Y02711*
X01446*
X01321D02*
Y02707D01*
X01329*
Y02711*
X01333*
Y02719*
X01329*
Y02723*
X01321*
Y02719*
X01317*
Y02711*
X01321*
Y01671D02*
Y01667D01*
X01329*
Y01671*
X01333*
Y01679*
X01329*
Y01683*
X01321*
Y01679*
X01317*
Y01671*
X01321*
X01268Y01586D02*
Y01582D01*
X01276*
Y01586*
X0128*
Y01594*
X01276*
Y01598*
X01268*
Y01594*
X01264*
Y01586*
X01268*
X02226Y01281D02*
Y01277D01*
X02234*
Y01281*
X02238*
Y01289*
X02234*
Y01293*
X02226*
Y01289*
X02222*
Y01281*
X02226*
Y01226D02*
Y01222D01*
X02234*
Y01226*
X02238*
Y01234*
X02234*
Y01238*
X02226*
Y01234*
X02222*
Y01226*
X02226*
X01766Y01191D02*
Y01187D01*
X01774*
Y01191*
X01778*
Y01199*
X01774*
Y01203*
X01766*
Y01199*
X01762*
Y01191*
X01766*
X02326Y02744D02*
Y0274D01*
X02334*
Y02744*
X02338*
Y02752*
X02334*
Y02756*
X02326*
Y02752*
X02322*
Y02744*
X02326*
X02675Y00937D02*
X02679Y00941D01*
X02683*
X02679Y00945*
X02683Y00949*
X02679*
X02675Y00953*
X02671Y00949*
X02667*
X02671Y00945*
X02667Y00941*
X02671*
X02675Y00937*
Y00941D02*
X02677Y00943D01*
X02679*
X02677Y00945*
X02679Y00947*
X02677*
X02675Y00949*
X02673Y00947*
X02671*
X02673Y00945*
X02671Y00943*
X02673*
X02675Y00941*
Y00837D02*
X02679Y00841D01*
X02683*
X02679Y00845*
X02683Y00849*
X02679*
X02675Y00853*
X02671Y00849*
X02667*
X02671Y00845*
X02667Y00841*
X02671*
X02675Y00837*
Y00841D02*
X02677Y00843D01*
X02679*
X02677Y00845*
X02679Y00847*
X02677*
X02675Y00849*
X02673Y00847*
X02671*
X02673Y00845*
X02671Y00843*
X02673*
X02675Y00841*
X01906Y00806D02*
Y00802D01*
X01914*
Y00806*
X01918*
Y00814*
X01914*
Y00818*
X01906*
Y00814*
X01902*
Y00806*
X01906*
X02301Y01071D02*
Y01067D01*
X02309*
Y01071*
X02313*
Y01079*
X02309*
Y01083*
X02301*
Y01079*
X02297*
Y01071*
X02301*
X01901Y01066D02*
Y01062D01*
X01909*
Y01066*
X01913*
Y01074*
X01909*
Y01078*
X01901*
Y01074*
X01897*
Y01066*
X01901*
X02096D02*
Y01062D01*
X02104*
Y01066*
X02108*
Y01074*
X02104*
Y01078*
X02096*
Y01074*
X02092*
Y01066*
X02096*
X01376Y02072D02*
X0138Y0208D01*
X01376Y02088*
X01384Y02084*
X01392Y02088*
X01388Y0208*
X01392Y02072*
X01384Y02076*
X01376Y02072*
X02449Y02019D02*
X02453Y02027D01*
X02449Y02035*
X02457Y02031*
X02465Y02035*
X02461Y02027*
X02465Y02019*
X02457Y02023*
X02449Y02019*
X02369Y02099D02*
X02373Y02107D01*
X02369Y02115*
X02377Y02111*
X02385Y02115*
X02381Y02107*
X02385Y02099*
X02377Y02103*
X02369Y02099*
X01854Y02069D02*
X01858Y02077D01*
X01854Y02085*
X01862Y02081*
X0187Y02085*
X01866Y02077*
X0187Y02069*
X01862Y02073*
X01854Y02069*
X01927Y01998D02*
X01931Y02006D01*
X01927Y02014*
X01935Y0201*
X01943Y02014*
X01939Y02006*
X01943Y01998*
X01935Y02002*
X01927Y01998*
X01472Y02077D02*
X01476Y02085D01*
X01472Y02093*
X0148Y02089*
X01488Y02093*
X01484Y02085*
X01488Y02077*
X0148Y02081*
X01472Y02077*
X01167Y02007D02*
X01171Y02015D01*
X01167Y02023*
X01175Y02019*
X01183Y02023*
X01179Y02015*
X01183Y02007*
X01175Y02011*
X01167Y02007*
Y02102D02*
X01171Y0211D01*
X01167Y02118*
X01175Y02114*
X01183Y02118*
X01179Y0211*
X01183Y02102*
X01175Y02106*
X01167Y02102*
X01176Y03546D02*
Y03542D01*
X01184*
Y03546*
X01188*
Y03554*
X01184*
Y03558*
X01176*
Y03554*
X01172*
Y03546*
X01176*
X02326Y02801D02*
Y02797D01*
X02334*
Y02801*
X02338*
Y02809*
X02334*
Y02813*
X02326*
Y02809*
X02322*
Y02801*
X02326*
X02236D02*
Y02797D01*
X02244*
Y02801*
X02248*
Y02809*
X02244*
Y02813*
X02236*
Y02809*
X02232*
Y02801*
X02236*
X01216Y02816D02*
Y02812D01*
X01224*
Y02816*
X01228*
Y02824*
X01224*
Y02828*
X01216*
Y02824*
X01212*
Y02816*
X01216*
X01131D02*
Y02812D01*
X01139*
Y02816*
X01143*
Y02824*
X01139*
Y02828*
X01131*
Y02824*
X01127*
Y02816*
X01131*
X01867Y03467D02*
Y03463D01*
X01875*
Y03467*
X01879*
Y03475*
X01875*
Y03479*
X01867*
Y03475*
X01863*
Y03467*
X01867*
X02206Y03556D02*
Y03552D01*
X02214*
Y03556*
X02218*
Y03564*
X02214*
Y03568*
X02206*
Y03564*
X02202*
Y03556*
X02206*
X00946Y01781D02*
Y01777D01*
X00954*
Y01781*
X00958*
Y01789*
X00954*
Y01793*
X00946*
Y01789*
X00942*
Y01781*
X00946*
X00912Y03562D02*
Y03558D01*
X0092*
Y03562*
X00924*
Y0357*
X0092*
Y03574*
X00912*
Y0357*
X00908*
Y03562*
X00912*
X01621Y03571D02*
Y03567D01*
X01629*
Y03571*
X01633*
Y03579*
X01629*
Y03583*
X01621*
Y03579*
X01617*
Y03571*
X01621*
X02541Y02336D02*
Y02332D01*
X02549*
Y02336*
X02553*
Y02344*
X02549*
Y02348*
X02541*
Y02344*
X02537*
Y02336*
X02541*
X00871Y02381D02*
Y02377D01*
X00879*
Y02381*
X00883*
Y02389*
X00879*
Y02393*
X00871*
Y02389*
X00867*
Y02381*
X00871*
X01426Y02376D02*
Y02372D01*
X01434*
Y02376*
X01438*
Y02384*
X01434*
Y02388*
X01426*
Y02384*
X01422*
Y02376*
X01426*
X02002Y02374D02*
Y0237D01*
X0201*
Y02374*
X02014*
Y02382*
X0201*
Y02386*
X02002*
Y02382*
X01998*
Y02374*
X02002*
X02686Y02391D02*
Y02387D01*
X02694*
Y02391*
X02698*
Y02399*
X02694*
Y02403*
X02686*
Y02399*
X02682*
Y02391*
X02686*
X01796Y01601D02*
Y01597D01*
X01804*
Y01601*
X01808*
Y01609*
X01804*
Y01613*
X01796*
Y01609*
X01792*
Y01601*
X01796*
X02081Y01916D02*
Y01912D01*
X02089*
Y01916*
X02093*
Y01924*
X02089*
Y01928*
X02081*
Y01924*
X02077*
Y01916*
X02081*
X01656Y01176D02*
Y01172D01*
X01664*
Y01176*
X01668*
Y01184*
X01664*
Y01188*
X01656*
Y01184*
X01652*
Y01176*
X01656*
X01374Y01494D02*
Y0149D01*
X01382*
Y01494*
X01386*
Y01502*
X01382*
Y01506*
X01374*
Y01502*
X0137*
Y01494*
X01374*
X01334Y01534D02*
Y0153D01*
X01342*
Y01534*
X01346*
Y01542*
X01342*
Y01546*
X01334*
Y01542*
X0133*
Y01534*
X01334*
X00916Y01636D02*
Y01632D01*
X00924*
Y01636*
X00928*
Y01644*
X00924*
Y01648*
X00916*
Y01644*
X00912*
Y01636*
X00916*
X00801Y01646D02*
Y01642D01*
X00809*
Y01646*
X00813*
Y01654*
X00809*
Y01658*
X00801*
Y01654*
X00797*
Y01646*
X00801*
X01169Y01873D02*
Y01869D01*
X01177*
Y01873*
X01181*
Y01881*
X01177*
Y01885*
X01169*
Y01881*
X01165*
Y01873*
X01169*
X01191Y01851D02*
Y01847D01*
X01199*
Y01851*
X01203*
Y01859*
X01199*
Y01863*
X01191*
Y01859*
X01187*
Y01851*
X01191*
X01196Y01716D02*
Y01712D01*
X01204*
Y01716*
X01208*
Y01724*
X01204*
Y01728*
X01196*
Y01724*
X01192*
Y01716*
X01196*
X01214Y01828D02*
Y01824D01*
X01222*
Y01828*
X01226*
Y01836*
X01222*
Y0184*
X01214*
Y01836*
X0121*
Y01828*
X01214*
X01306Y01561D02*
Y01557D01*
X01314*
Y01561*
X01318*
Y01569*
X01314*
Y01573*
X01306*
Y01569*
X01302*
Y01561*
X01306*
X01601Y01531D02*
Y01527D01*
X01609*
Y01531*
X01613*
Y01539*
X01609*
Y01543*
X01601*
Y01539*
X01597*
Y01531*
X01601*
X01681D02*
Y01527D01*
X01689*
Y01531*
X01693*
Y01539*
X01689*
Y01543*
X01681*
Y01539*
X01677*
Y01531*
X01681*
X01636Y01516D02*
Y01512D01*
X01644*
Y01516*
X01648*
Y01524*
X01644*
Y01528*
X01636*
Y01524*
X01632*
Y01516*
X01636*
X01301Y00996D02*
Y00992D01*
X01309*
Y00996*
X01313*
Y01004*
X01309*
Y01008*
X01301*
Y01004*
X01297*
Y00996*
X01301*
X01455D02*
Y00992D01*
X01463*
Y00996*
X01467*
Y01004*
X01463*
Y01008*
X01455*
Y01004*
X01451*
Y00996*
X01455*
X02511Y03311D02*
Y03307D01*
X02519*
Y03311*
X02523*
Y03319*
X02519*
Y03323*
X02511*
Y03319*
X02507*
Y03311*
X02511*
X01776Y02286D02*
Y02282D01*
X01784*
Y02286*
X01788*
Y02294*
X01784*
Y02298*
X01776*
Y02294*
X01772*
Y02286*
X01776*
X01816Y03231D02*
Y03227D01*
X01824*
Y03231*
X01828*
Y03239*
X01824*
Y03243*
X01816*
Y03239*
X01812*
Y03231*
X01816*
X00711Y03251D02*
Y03247D01*
X00719*
Y03251*
X00723*
Y03259*
X00719*
Y03263*
X00711*
Y03259*
X00707*
Y03251*
X00711*
X02326Y03581D02*
Y03577D01*
X02334*
Y03581*
X02338*
Y03589*
X02334*
Y03593*
X02326*
Y03589*
X02322*
Y03581*
X02326*
X01431Y02466D02*
Y02462D01*
X01439*
Y02466*
X01443*
Y02474*
X01439*
Y02478*
X01431*
Y02474*
X01427*
Y02466*
X01431*
X00674Y02596D02*
Y02592D01*
X00682*
Y02596*
X00686*
Y02604*
X00682*
Y02608*
X00674*
Y02604*
X0067*
Y02596*
X00674*
X00669Y02382D02*
Y02378D01*
X00677*
Y02382*
X00681*
Y0239*
X00677*
Y02394*
X00669*
Y0239*
X00665*
Y02382*
X00669*
X01126Y02356D02*
Y02352D01*
X01134*
Y02356*
X01138*
Y02364*
X01134*
Y02368*
X01126*
Y02364*
X01122*
Y02356*
X01126*
X0225Y0235D02*
Y02346D01*
X02258*
Y0235*
X02262*
Y02358*
X02258*
Y02362*
X0225*
Y02358*
X02246*
Y0235*
X0225*
X00876Y02466D02*
Y02462D01*
X00884*
Y02466*
X00888*
Y02474*
X00884*
Y02478*
X00876*
Y02474*
X00872*
Y02466*
X00876*
X02006Y02461D02*
Y02457D01*
X02014*
Y02461*
X02018*
Y02469*
X02014*
Y02473*
X02006*
Y02469*
X02002*
Y02461*
X02006*
X02566D02*
Y02457D01*
X02574*
Y02461*
X02578*
Y02469*
X02574*
Y02473*
X02566*
Y02469*
X02562*
Y02461*
X02566*
X0235Y0259D02*
Y02586D01*
X02358*
Y0259*
X02362*
Y02598*
X02358*
Y02602*
X0235*
Y02598*
X02346*
Y0259*
X0235*
X01225Y02599D02*
Y02595D01*
X01233*
Y02599*
X01237*
Y02607*
X01233*
Y02611*
X01225*
Y02607*
X01221*
Y02599*
X01225*
G54D80*
X01653Y01748D02*
D01*
X01653Y01748*
X01653Y01749*
X01653Y0175*
X01653Y0175*
X01652Y01751*
X01652Y01751*
X01652Y01752*
X01652Y01752*
X01651Y01753*
X01651Y01753*
X01651Y01753*
X0165Y01754*
X0165Y01754*
X01649Y01755*
X01649Y01755*
X01648Y01755*
X01648Y01755*
X01647Y01756*
X01647Y01756*
X01646Y01756*
X01646Y01756*
X01645Y01756*
X01645*
X01644Y01756*
X01644Y01756*
X01643Y01756*
X01642Y01756*
X01642Y01755*
X01641Y01755*
X01641Y01755*
X0164Y01755*
X0164Y01754*
X0164Y01754*
X01639Y01753*
X01639Y01753*
X01638Y01753*
X01638Y01752*
X01638Y01752*
X01638Y01751*
X01637Y01751*
X01637Y0175*
X01637Y0175*
X01637Y01749*
X01637Y01748*
X01637Y01748*
X01637Y01747*
X01637Y01747*
X01637Y01746*
X01637Y01746*
X01637Y01745*
X01638Y01745*
X01638Y01744*
X01638Y01744*
X01638Y01743*
X01639Y01743*
X01639Y01742*
X0164Y01742*
X0164Y01742*
X0164Y01741*
X01641Y01741*
X01641Y01741*
X01642Y0174*
X01642Y0174*
X01643Y0174*
X01644Y0174*
X01644Y0174*
X01645Y0174*
X01645*
X01646Y0174*
X01646Y0174*
X01647Y0174*
X01647Y0174*
X01648Y0174*
X01648Y01741*
X01649Y01741*
X01649Y01741*
X0165Y01742*
X0165Y01742*
X01651Y01742*
X01651Y01743*
X01651Y01743*
X01652Y01744*
X01652Y01744*
X01652Y01745*
X01652Y01745*
X01653Y01746*
X01653Y01746*
X01653Y01747*
X01653Y01747*
X01653Y01748*
X01398Y01315D02*
D01*
X01398Y01316*
X01398Y01316*
X01398Y01317*
X01398Y01317*
X01398Y01318*
X01398Y01318*
X01397Y01319*
X01397Y01319*
X01397Y0132*
X01397Y0132*
X01396Y01321*
X01396Y01321*
X01395Y01321*
X01395Y01322*
X01394Y01322*
X01394Y01322*
X01393Y01323*
X01393Y01323*
X01392Y01323*
X01392Y01323*
X01391Y01323*
X01391Y01323*
X0139*
X0139Y01323*
X01389Y01323*
X01388Y01323*
X01388Y01323*
X01387Y01323*
X01387Y01322*
X01386Y01322*
X01386Y01322*
X01385Y01321*
X01385Y01321*
X01385Y01321*
X01384Y0132*
X01384Y0132*
X01384Y01319*
X01383Y01319*
X01383Y01318*
X01383Y01318*
X01383Y01317*
X01383Y01317*
X01382Y01316*
X01382Y01316*
X01382Y01315*
X01382Y01315*
X01382Y01314*
X01383Y01313*
X01383Y01313*
X01383Y01312*
X01383Y01312*
X01383Y01311*
X01384Y01311*
X01384Y0131*
X01384Y0131*
X01385Y0131*
X01385Y01309*
X01385Y01309*
X01386Y01308*
X01386Y01308*
X01387Y01308*
X01387Y01308*
X01388Y01307*
X01388Y01307*
X01389Y01307*
X0139Y01307*
X0139Y01307*
X01391*
X01391Y01307*
X01392Y01307*
X01392Y01307*
X01393Y01307*
X01393Y01308*
X01394Y01308*
X01394Y01308*
X01395Y01308*
X01395Y01309*
X01396Y01309*
X01396Y0131*
X01397Y0131*
X01397Y0131*
X01397Y01311*
X01397Y01311*
X01398Y01312*
X01398Y01312*
X01398Y01313*
X01398Y01313*
X01398Y01314*
X01398Y01315*
X01398Y01315*
X01453D02*
D01*
X01453Y01316*
X01453Y01316*
X01453Y01317*
X01453Y01317*
X01453Y01318*
X01452Y01318*
X01452Y01319*
X01452Y01319*
X01452Y0132*
X01451Y0132*
X01451Y01321*
X0145Y01321*
X0145Y01321*
X0145Y01322*
X01449Y01322*
X01449Y01322*
X01448Y01323*
X01448Y01323*
X01447Y01323*
X01446Y01323*
X01446Y01323*
X01445Y01323*
X01445*
X01444Y01323*
X01444Y01323*
X01443Y01323*
X01443Y01323*
X01442Y01323*
X01442Y01322*
X01441Y01322*
X01441Y01322*
X0144Y01321*
X0144Y01321*
X01439Y01321*
X01439Y0132*
X01439Y0132*
X01438Y01319*
X01438Y01319*
X01438Y01318*
X01438Y01318*
X01437Y01317*
X01437Y01317*
X01437Y01316*
X01437Y01316*
X01437Y01315*
X01437Y01315*
X01437Y01314*
X01437Y01313*
X01437Y01313*
X01438Y01312*
X01438Y01312*
X01438Y01311*
X01438Y01311*
X01439Y0131*
X01439Y0131*
X01439Y0131*
X0144Y01309*
X0144Y01309*
X01441Y01308*
X01441Y01308*
X01442Y01308*
X01442Y01308*
X01443Y01307*
X01443Y01307*
X01444Y01307*
X01444Y01307*
X01445Y01307*
X01445*
X01446Y01307*
X01446Y01307*
X01447Y01307*
X01448Y01307*
X01448Y01308*
X01449Y01308*
X01449Y01308*
X0145Y01308*
X0145Y01309*
X0145Y01309*
X01451Y0131*
X01451Y0131*
X01452Y0131*
X01452Y01311*
X01452Y01311*
X01452Y01312*
X01453Y01312*
X01453Y01313*
X01453Y01313*
X01453Y01314*
X01453Y01315*
X01453Y01315*
X01398Y0126D02*
D01*
X01398Y01261*
X01398Y01262*
X01398Y01262*
X01398Y01263*
X01398Y01263*
X01398Y01264*
X01397Y01264*
X01397Y01265*
X01397Y01265*
X01397Y01266*
X01396Y01266*
X01396Y01266*
X01395Y01267*
X01395Y01267*
X01394Y01267*
X01394Y01268*
X01393Y01268*
X01393Y01268*
X01392Y01268*
X01392Y01268*
X01391Y01268*
X01391Y01268*
X0139*
X0139Y01268*
X01389Y01268*
X01388Y01268*
X01388Y01268*
X01387Y01268*
X01387Y01268*
X01386Y01267*
X01386Y01267*
X01385Y01267*
X01385Y01266*
X01385Y01266*
X01384Y01266*
X01384Y01265*
X01384Y01265*
X01383Y01264*
X01383Y01264*
X01383Y01263*
X01383Y01263*
X01383Y01262*
X01382Y01262*
X01382Y01261*
X01382Y0126*
X01382Y0126*
X01382Y01259*
X01383Y01259*
X01383Y01258*
X01383Y01258*
X01383Y01257*
X01383Y01257*
X01384Y01256*
X01384Y01256*
X01384Y01255*
X01385Y01255*
X01385Y01254*
X01385Y01254*
X01386Y01254*
X01386Y01253*
X01387Y01253*
X01387Y01253*
X01388Y01253*
X01388Y01253*
X01389Y01253*
X0139Y01252*
X0139Y01252*
X01391*
X01391Y01252*
X01392Y01253*
X01392Y01253*
X01393Y01253*
X01393Y01253*
X01394Y01253*
X01394Y01253*
X01395Y01254*
X01395Y01254*
X01396Y01254*
X01396Y01255*
X01397Y01255*
X01397Y01256*
X01397Y01256*
X01397Y01257*
X01398Y01257*
X01398Y01258*
X01398Y01258*
X01398Y01259*
X01398Y01259*
X01398Y0126*
X01398Y0126*
X01453D02*
D01*
X01453Y01261*
X01453Y01262*
X01453Y01262*
X01453Y01263*
X01453Y01263*
X01452Y01264*
X01452Y01264*
X01452Y01265*
X01452Y01265*
X01451Y01266*
X01451Y01266*
X0145Y01266*
X0145Y01267*
X0145Y01267*
X01449Y01267*
X01449Y01268*
X01448Y01268*
X01448Y01268*
X01447Y01268*
X01446Y01268*
X01446Y01268*
X01445Y01268*
X01445*
X01444Y01268*
X01444Y01268*
X01443Y01268*
X01443Y01268*
X01442Y01268*
X01442Y01268*
X01441Y01267*
X01441Y01267*
X0144Y01267*
X0144Y01266*
X01439Y01266*
X01439Y01266*
X01439Y01265*
X01438Y01265*
X01438Y01264*
X01438Y01264*
X01438Y01263*
X01437Y01263*
X01437Y01262*
X01437Y01262*
X01437Y01261*
X01437Y0126*
X01437Y0126*
X01437Y01259*
X01437Y01259*
X01437Y01258*
X01438Y01258*
X01438Y01257*
X01438Y01257*
X01438Y01256*
X01439Y01256*
X01439Y01255*
X01439Y01255*
X0144Y01254*
X0144Y01254*
X01441Y01254*
X01441Y01253*
X01442Y01253*
X01442Y01253*
X01443Y01253*
X01443Y01253*
X01444Y01253*
X01444Y01252*
X01445Y01252*
X01445*
X01446Y01252*
X01446Y01253*
X01447Y01253*
X01448Y01253*
X01448Y01253*
X01449Y01253*
X01449Y01253*
X0145Y01254*
X0145Y01254*
X0145Y01254*
X01451Y01255*
X01451Y01255*
X01452Y01256*
X01452Y01256*
X01452Y01257*
X01452Y01257*
X01453Y01258*
X01453Y01258*
X01453Y01259*
X01453Y01259*
X01453Y0126*
X01453Y0126*
X01398Y01362D02*
D01*
X01398Y01362*
X01398Y01363*
X01398Y01363*
X01398Y01364*
X01398Y01364*
X01398Y01365*
X01397Y01365*
X01397Y01366*
X01397Y01366*
X01397Y01367*
X01396Y01367*
X01396Y01368*
X01395Y01368*
X01395Y01368*
X01394Y01369*
X01394Y01369*
X01393Y01369*
X01393Y01369*
X01392Y01369*
X01392Y01369*
X01391Y0137*
X01391Y0137*
X0139*
X0139Y0137*
X01389Y01369*
X01388Y01369*
X01388Y01369*
X01387Y01369*
X01387Y01369*
X01386Y01369*
X01386Y01368*
X01385Y01368*
X01385Y01368*
X01385Y01367*
X01384Y01367*
X01384Y01366*
X01384Y01366*
X01383Y01365*
X01383Y01365*
X01383Y01364*
X01383Y01364*
X01383Y01363*
X01382Y01363*
X01382Y01362*
X01382Y01362*
X01382Y01361*
X01382Y0136*
X01383Y0136*
X01383Y01359*
X01383Y01359*
X01383Y01358*
X01383Y01358*
X01384Y01357*
X01384Y01357*
X01384Y01356*
X01385Y01356*
X01385Y01356*
X01385Y01355*
X01386Y01355*
X01386Y01355*
X01387Y01354*
X01387Y01354*
X01388Y01354*
X01388Y01354*
X01389Y01354*
X0139Y01354*
X0139Y01354*
X01391*
X01391Y01354*
X01392Y01354*
X01392Y01354*
X01393Y01354*
X01393Y01354*
X01394Y01354*
X01394Y01355*
X01395Y01355*
X01395Y01355*
X01396Y01356*
X01396Y01356*
X01397Y01356*
X01397Y01357*
X01397Y01357*
X01397Y01358*
X01398Y01358*
X01398Y01359*
X01398Y01359*
X01398Y0136*
X01398Y0136*
X01398Y01361*
X01398Y01362*
X01453D02*
D01*
X01453Y01362*
X01453Y01363*
X01453Y01363*
X01453Y01364*
X01453Y01364*
X01452Y01365*
X01452Y01365*
X01452Y01366*
X01452Y01366*
X01451Y01367*
X01451Y01367*
X0145Y01368*
X0145Y01368*
X0145Y01368*
X01449Y01369*
X01449Y01369*
X01448Y01369*
X01448Y01369*
X01447Y01369*
X01446Y01369*
X01446Y0137*
X01445Y0137*
X01445*
X01444Y0137*
X01444Y01369*
X01443Y01369*
X01443Y01369*
X01442Y01369*
X01442Y01369*
X01441Y01369*
X01441Y01368*
X0144Y01368*
X0144Y01368*
X01439Y01367*
X01439Y01367*
X01439Y01366*
X01438Y01366*
X01438Y01365*
X01438Y01365*
X01438Y01364*
X01437Y01364*
X01437Y01363*
X01437Y01363*
X01437Y01362*
X01437Y01362*
X01437Y01361*
X01437Y0136*
X01437Y0136*
X01437Y01359*
X01438Y01359*
X01438Y01358*
X01438Y01358*
X01438Y01357*
X01439Y01357*
X01439Y01356*
X01439Y01356*
X0144Y01356*
X0144Y01355*
X01441Y01355*
X01441Y01355*
X01442Y01354*
X01442Y01354*
X01443Y01354*
X01443Y01354*
X01444Y01354*
X01444Y01354*
X01445Y01354*
X01445*
X01446Y01354*
X01446Y01354*
X01447Y01354*
X01448Y01354*
X01448Y01354*
X01449Y01354*
X01449Y01355*
X0145Y01355*
X0145Y01355*
X0145Y01356*
X01451Y01356*
X01451Y01356*
X01452Y01357*
X01452Y01357*
X01452Y01358*
X01452Y01358*
X01453Y01359*
X01453Y01359*
X01453Y0136*
X01453Y0136*
X01453Y01361*
X01453Y01362*
X01398Y01214D02*
D01*
X01398Y01214*
X01398Y01215*
X01398Y01216*
X01398Y01216*
X01398Y01217*
X01398Y01217*
X01397Y01218*
X01397Y01218*
X01397Y01219*
X01397Y01219*
X01396Y01219*
X01396Y0122*
X01395Y0122*
X01395Y01221*
X01394Y01221*
X01394Y01221*
X01393Y01221*
X01393Y01222*
X01392Y01222*
X01392Y01222*
X01391Y01222*
X01391Y01222*
X0139*
X0139Y01222*
X01389Y01222*
X01388Y01222*
X01388Y01222*
X01387Y01221*
X01387Y01221*
X01386Y01221*
X01386Y01221*
X01385Y0122*
X01385Y0122*
X01385Y01219*
X01384Y01219*
X01384Y01219*
X01384Y01218*
X01383Y01218*
X01383Y01217*
X01383Y01217*
X01383Y01216*
X01383Y01216*
X01382Y01215*
X01382Y01214*
X01382Y01214*
X01382Y01213*
X01382Y01213*
X01383Y01212*
X01383Y01212*
X01383Y01211*
X01383Y01211*
X01383Y0121*
X01384Y0121*
X01384Y01209*
X01384Y01209*
X01385Y01208*
X01385Y01208*
X01385Y01208*
X01386Y01207*
X01386Y01207*
X01387Y01207*
X01387Y01206*
X01388Y01206*
X01388Y01206*
X01389Y01206*
X0139Y01206*
X0139Y01206*
X01391*
X01391Y01206*
X01392Y01206*
X01392Y01206*
X01393Y01206*
X01393Y01206*
X01394Y01207*
X01394Y01207*
X01395Y01207*
X01395Y01208*
X01396Y01208*
X01396Y01208*
X01397Y01209*
X01397Y01209*
X01397Y0121*
X01397Y0121*
X01398Y01211*
X01398Y01211*
X01398Y01212*
X01398Y01212*
X01398Y01213*
X01398Y01213*
X01398Y01214*
X01453D02*
D01*
X01453Y01214*
X01453Y01215*
X01453Y01216*
X01453Y01216*
X01453Y01217*
X01452Y01217*
X01452Y01218*
X01452Y01218*
X01452Y01219*
X01451Y01219*
X01451Y01219*
X0145Y0122*
X0145Y0122*
X0145Y01221*
X01449Y01221*
X01449Y01221*
X01448Y01221*
X01448Y01222*
X01447Y01222*
X01446Y01222*
X01446Y01222*
X01445Y01222*
X01445*
X01444Y01222*
X01444Y01222*
X01443Y01222*
X01443Y01222*
X01442Y01221*
X01442Y01221*
X01441Y01221*
X01441Y01221*
X0144Y0122*
X0144Y0122*
X01439Y01219*
X01439Y01219*
X01439Y01219*
X01438Y01218*
X01438Y01218*
X01438Y01217*
X01438Y01217*
X01437Y01216*
X01437Y01216*
X01437Y01215*
X01437Y01214*
X01437Y01214*
X01437Y01213*
X01437Y01213*
X01437Y01212*
X01437Y01212*
X01438Y01211*
X01438Y01211*
X01438Y0121*
X01438Y0121*
X01439Y01209*
X01439Y01209*
X01439Y01208*
X0144Y01208*
X0144Y01208*
X01441Y01207*
X01441Y01207*
X01442Y01207*
X01442Y01206*
X01443Y01206*
X01443Y01206*
X01444Y01206*
X01444Y01206*
X01445Y01206*
X01445*
X01446Y01206*
X01446Y01206*
X01447Y01206*
X01448Y01206*
X01448Y01206*
X01449Y01207*
X01449Y01207*
X0145Y01207*
X0145Y01208*
X0145Y01208*
X01451Y01208*
X01451Y01209*
X01452Y01209*
X01452Y0121*
X01452Y0121*
X01452Y01211*
X01453Y01211*
X01453Y01212*
X01453Y01212*
X01453Y01213*
X01453Y01213*
X01453Y01214*
X01352Y01315D02*
D01*
X01352Y01316*
X01352Y01316*
X01352Y01317*
X01352Y01317*
X01351Y01318*
X01351Y01318*
X01351Y01319*
X01351Y01319*
X0135Y0132*
X0135Y0132*
X0135Y01321*
X01349Y01321*
X01349Y01321*
X01348Y01322*
X01348Y01322*
X01347Y01322*
X01347Y01323*
X01346Y01323*
X01346Y01323*
X01345Y01323*
X01345Y01323*
X01344Y01323*
X01344*
X01343Y01323*
X01343Y01323*
X01342Y01323*
X01341Y01323*
X01341Y01323*
X0134Y01322*
X0134Y01322*
X01339Y01322*
X01339Y01321*
X01339Y01321*
X01338Y01321*
X01338Y0132*
X01337Y0132*
X01337Y01319*
X01337Y01319*
X01337Y01318*
X01336Y01318*
X01336Y01317*
X01336Y01317*
X01336Y01316*
X01336Y01316*
X01336Y01315*
X01336Y01315*
X01336Y01314*
X01336Y01313*
X01336Y01313*
X01336Y01312*
X01337Y01312*
X01337Y01311*
X01337Y01311*
X01337Y0131*
X01338Y0131*
X01338Y0131*
X01339Y01309*
X01339Y01309*
X01339Y01308*
X0134Y01308*
X0134Y01308*
X01341Y01308*
X01341Y01307*
X01342Y01307*
X01343Y01307*
X01343Y01307*
X01344Y01307*
X01344*
X01345Y01307*
X01345Y01307*
X01346Y01307*
X01346Y01307*
X01347Y01308*
X01347Y01308*
X01348Y01308*
X01348Y01308*
X01349Y01309*
X01349Y01309*
X0135Y0131*
X0135Y0131*
X0135Y0131*
X01351Y01311*
X01351Y01311*
X01351Y01312*
X01351Y01312*
X01352Y01313*
X01352Y01313*
X01352Y01314*
X01352Y01315*
X01352Y01315*
Y0126D02*
D01*
X01352Y01261*
X01352Y01262*
X01352Y01262*
X01352Y01263*
X01351Y01263*
X01351Y01264*
X01351Y01264*
X01351Y01265*
X0135Y01265*
X0135Y01266*
X0135Y01266*
X01349Y01266*
X01349Y01267*
X01348Y01267*
X01348Y01267*
X01347Y01268*
X01347Y01268*
X01346Y01268*
X01346Y01268*
X01345Y01268*
X01345Y01268*
X01344Y01268*
X01344*
X01343Y01268*
X01343Y01268*
X01342Y01268*
X01341Y01268*
X01341Y01268*
X0134Y01268*
X0134Y01267*
X01339Y01267*
X01339Y01267*
X01339Y01266*
X01338Y01266*
X01338Y01266*
X01337Y01265*
X01337Y01265*
X01337Y01264*
X01337Y01264*
X01336Y01263*
X01336Y01263*
X01336Y01262*
X01336Y01262*
X01336Y01261*
X01336Y0126*
X01336Y0126*
X01336Y01259*
X01336Y01259*
X01336Y01258*
X01336Y01258*
X01337Y01257*
X01337Y01257*
X01337Y01256*
X01337Y01256*
X01338Y01255*
X01338Y01255*
X01339Y01254*
X01339Y01254*
X01339Y01254*
X0134Y01253*
X0134Y01253*
X01341Y01253*
X01341Y01253*
X01342Y01253*
X01343Y01253*
X01343Y01252*
X01344Y01252*
X01344*
X01345Y01252*
X01345Y01253*
X01346Y01253*
X01346Y01253*
X01347Y01253*
X01347Y01253*
X01348Y01253*
X01348Y01254*
X01349Y01254*
X01349Y01254*
X0135Y01255*
X0135Y01255*
X0135Y01256*
X01351Y01256*
X01351Y01257*
X01351Y01257*
X01351Y01258*
X01352Y01258*
X01352Y01259*
X01352Y01259*
X01352Y0126*
X01352Y0126*
X015Y01315D02*
D01*
X01499Y01316*
X01499Y01316*
X01499Y01317*
X01499Y01317*
X01499Y01318*
X01499Y01318*
X01499Y01319*
X01498Y01319*
X01498Y0132*
X01498Y0132*
X01497Y01321*
X01497Y01321*
X01496Y01321*
X01496Y01322*
X01496Y01322*
X01495Y01322*
X01494Y01323*
X01494Y01323*
X01493Y01323*
X01493Y01323*
X01492Y01323*
X01492Y01323*
X01491*
X01491Y01323*
X0149Y01323*
X0149Y01323*
X01489Y01323*
X01489Y01323*
X01488Y01322*
X01488Y01322*
X01487Y01322*
X01487Y01321*
X01486Y01321*
X01486Y01321*
X01485Y0132*
X01485Y0132*
X01485Y01319*
X01484Y01319*
X01484Y01318*
X01484Y01318*
X01484Y01317*
X01484Y01317*
X01484Y01316*
X01484Y01316*
X01484Y01315*
X01484Y01315*
X01484Y01314*
X01484Y01313*
X01484Y01313*
X01484Y01312*
X01484Y01312*
X01484Y01311*
X01485Y01311*
X01485Y0131*
X01485Y0131*
X01486Y0131*
X01486Y01309*
X01487Y01309*
X01487Y01308*
X01488Y01308*
X01488Y01308*
X01489Y01308*
X01489Y01307*
X0149Y01307*
X0149Y01307*
X01491Y01307*
X01491Y01307*
X01492*
X01492Y01307*
X01493Y01307*
X01493Y01307*
X01494Y01307*
X01494Y01308*
X01495Y01308*
X01496Y01308*
X01496Y01308*
X01496Y01309*
X01497Y01309*
X01497Y0131*
X01498Y0131*
X01498Y0131*
X01498Y01311*
X01499Y01311*
X01499Y01312*
X01499Y01312*
X01499Y01313*
X01499Y01313*
X01499Y01314*
X01499Y01315*
X015Y01315*
Y0126D02*
D01*
X01499Y01261*
X01499Y01262*
X01499Y01262*
X01499Y01263*
X01499Y01263*
X01499Y01264*
X01499Y01264*
X01498Y01265*
X01498Y01265*
X01498Y01266*
X01497Y01266*
X01497Y01266*
X01496Y01267*
X01496Y01267*
X01496Y01267*
X01495Y01268*
X01494Y01268*
X01494Y01268*
X01493Y01268*
X01493Y01268*
X01492Y01268*
X01492Y01268*
X01491*
X01491Y01268*
X0149Y01268*
X0149Y01268*
X01489Y01268*
X01489Y01268*
X01488Y01268*
X01488Y01267*
X01487Y01267*
X01487Y01267*
X01486Y01266*
X01486Y01266*
X01485Y01266*
X01485Y01265*
X01485Y01265*
X01484Y01264*
X01484Y01264*
X01484Y01263*
X01484Y01263*
X01484Y01262*
X01484Y01262*
X01484Y01261*
X01484Y0126*
X01484Y0126*
X01484Y01259*
X01484Y01259*
X01484Y01258*
X01484Y01258*
X01484Y01257*
X01484Y01257*
X01485Y01256*
X01485Y01256*
X01485Y01255*
X01486Y01255*
X01486Y01254*
X01487Y01254*
X01487Y01254*
X01488Y01253*
X01488Y01253*
X01489Y01253*
X01489Y01253*
X0149Y01253*
X0149Y01253*
X01491Y01252*
X01491Y01252*
X01492*
X01492Y01252*
X01493Y01253*
X01493Y01253*
X01494Y01253*
X01494Y01253*
X01495Y01253*
X01496Y01253*
X01496Y01254*
X01496Y01254*
X01497Y01254*
X01497Y01255*
X01498Y01255*
X01498Y01256*
X01498Y01256*
X01499Y01257*
X01499Y01257*
X01499Y01258*
X01499Y01258*
X01499Y01259*
X01499Y01259*
X01499Y0126*
X015Y0126*
X016Y01748D02*
D01*
X016Y01748*
X016Y01749*
X016Y0175*
X016Y0175*
X016Y01751*
X016Y01751*
X01599Y01752*
X01599Y01752*
X01599Y01753*
X01598Y01753*
X01598Y01753*
X01598Y01754*
X01597Y01754*
X01597Y01755*
X01596Y01755*
X01596Y01755*
X01595Y01755*
X01595Y01756*
X01594Y01756*
X01594Y01756*
X01593Y01756*
X01592Y01756*
X01592*
X01591Y01756*
X01591Y01756*
X0159Y01756*
X0159Y01756*
X01589Y01755*
X01589Y01755*
X01588Y01755*
X01588Y01755*
X01587Y01754*
X01587Y01754*
X01586Y01753*
X01586Y01753*
X01586Y01753*
X01585Y01752*
X01585Y01752*
X01585Y01751*
X01585Y01751*
X01585Y0175*
X01584Y0175*
X01584Y01749*
X01584Y01748*
X01584Y01748*
X01584Y01747*
X01584Y01747*
X01584Y01746*
X01585Y01746*
X01585Y01745*
X01585Y01745*
X01585Y01744*
X01585Y01744*
X01586Y01743*
X01586Y01743*
X01586Y01742*
X01587Y01742*
X01587Y01742*
X01588Y01741*
X01588Y01741*
X01589Y01741*
X01589Y0174*
X0159Y0174*
X0159Y0174*
X01591Y0174*
X01591Y0174*
X01592Y0174*
X01592*
X01593Y0174*
X01594Y0174*
X01594Y0174*
X01595Y0174*
X01595Y0174*
X01596Y01741*
X01596Y01741*
X01597Y01741*
X01597Y01742*
X01598Y01742*
X01598Y01742*
X01598Y01743*
X01599Y01743*
X01599Y01744*
X01599Y01744*
X016Y01745*
X016Y01745*
X016Y01746*
X016Y01746*
X016Y01747*
X016Y01747*
X016Y01748*
X01706D02*
D01*
X01705Y01748*
X01705Y01749*
X01705Y0175*
X01705Y0175*
X01705Y01751*
X01705Y01751*
X01705Y01752*
X01704Y01752*
X01704Y01753*
X01704Y01753*
X01703Y01753*
X01703Y01754*
X01702Y01754*
X01702Y01755*
X01702Y01755*
X01701Y01755*
X017Y01755*
X017Y01756*
X01699Y01756*
X01699Y01756*
X01698Y01756*
X01698Y01756*
X01697*
X01697Y01756*
X01696Y01756*
X01696Y01756*
X01695Y01756*
X01695Y01755*
X01694Y01755*
X01694Y01755*
X01693Y01755*
X01693Y01754*
X01692Y01754*
X01692Y01753*
X01691Y01753*
X01691Y01753*
X01691Y01752*
X0169Y01752*
X0169Y01751*
X0169Y01751*
X0169Y0175*
X0169Y0175*
X0169Y01749*
X0169Y01748*
X0169Y01748*
X0169Y01747*
X0169Y01747*
X0169Y01746*
X0169Y01746*
X0169Y01745*
X0169Y01745*
X0169Y01744*
X01691Y01744*
X01691Y01743*
X01691Y01743*
X01692Y01742*
X01692Y01742*
X01693Y01742*
X01693Y01741*
X01694Y01741*
X01694Y01741*
X01695Y0174*
X01695Y0174*
X01696Y0174*
X01696Y0174*
X01697Y0174*
X01697Y0174*
X01698*
X01698Y0174*
X01699Y0174*
X01699Y0174*
X017Y0174*
X017Y0174*
X01701Y01741*
X01702Y01741*
X01702Y01741*
X01702Y01742*
X01703Y01742*
X01703Y01742*
X01704Y01743*
X01704Y01743*
X01704Y01744*
X01705Y01744*
X01705Y01745*
X01705Y01745*
X01705Y01746*
X01705Y01746*
X01705Y01747*
X01705Y01747*
X01706Y01748*
X016Y01678D02*
D01*
X016Y01678*
X016Y01679*
X016Y01679*
X016Y0168*
X016Y01681*
X016Y01681*
X01599Y01682*
X01599Y01682*
X01599Y01683*
X01598Y01683*
X01598Y01683*
X01598Y01684*
X01597Y01684*
X01597Y01684*
X01596Y01685*
X01596Y01685*
X01595Y01685*
X01595Y01685*
X01594Y01686*
X01594Y01686*
X01593Y01686*
X01592Y01686*
X01592*
X01591Y01686*
X01591Y01686*
X0159Y01686*
X0159Y01685*
X01589Y01685*
X01589Y01685*
X01588Y01685*
X01588Y01684*
X01587Y01684*
X01587Y01684*
X01586Y01683*
X01586Y01683*
X01586Y01683*
X01585Y01682*
X01585Y01682*
X01585Y01681*
X01585Y01681*
X01585Y0168*
X01584Y01679*
X01584Y01679*
X01584Y01678*
X01584Y01678*
X01584Y01677*
X01584Y01677*
X01584Y01676*
X01585Y01676*
X01585Y01675*
X01585Y01675*
X01585Y01674*
X01585Y01674*
X01586Y01673*
X01586Y01673*
X01586Y01672*
X01587Y01672*
X01587Y01671*
X01588Y01671*
X01588Y01671*
X01589Y01671*
X01589Y0167*
X0159Y0167*
X0159Y0167*
X01591Y0167*
X01591Y0167*
X01592Y0167*
X01592*
X01593Y0167*
X01594Y0167*
X01594Y0167*
X01595Y0167*
X01595Y0167*
X01596Y01671*
X01596Y01671*
X01597Y01671*
X01597Y01671*
X01598Y01672*
X01598Y01672*
X01598Y01673*
X01599Y01673*
X01599Y01674*
X01599Y01674*
X016Y01675*
X016Y01675*
X016Y01676*
X016Y01676*
X016Y01677*
X016Y01677*
X016Y01678*
X01626Y01713D02*
D01*
X01626Y01713*
X01626Y01714*
X01626Y01715*
X01625Y01715*
X01625Y01716*
X01625Y01716*
X01625Y01717*
X01625Y01717*
X01624Y01718*
X01624Y01718*
X01624Y01718*
X01623Y01719*
X01623Y01719*
X01622Y0172*
X01622Y0172*
X01621Y0172*
X01621Y0172*
X0162Y01721*
X0162Y01721*
X01619Y01721*
X01619Y01721*
X01618Y01721*
X01618*
X01617Y01721*
X01616Y01721*
X01616Y01721*
X01615Y01721*
X01615Y0172*
X01614Y0172*
X01614Y0172*
X01613Y0172*
X01613Y01719*
X01612Y01719*
X01612Y01718*
X01612Y01718*
X01611Y01718*
X01611Y01717*
X01611Y01717*
X0161Y01716*
X0161Y01716*
X0161Y01715*
X0161Y01715*
X0161Y01714*
X0161Y01713*
X0161Y01713*
X0161Y01712*
X0161Y01712*
X0161Y01711*
X0161Y01711*
X0161Y0171*
X0161Y0171*
X01611Y01709*
X01611Y01709*
X01611Y01708*
X01612Y01708*
X01612Y01707*
X01612Y01707*
X01613Y01707*
X01613Y01706*
X01614Y01706*
X01614Y01706*
X01615Y01705*
X01615Y01705*
X01616Y01705*
X01616Y01705*
X01617Y01705*
X01618Y01705*
X01618*
X01619Y01705*
X01619Y01705*
X0162Y01705*
X0162Y01705*
X01621Y01705*
X01621Y01706*
X01622Y01706*
X01622Y01706*
X01623Y01707*
X01623Y01707*
X01624Y01707*
X01624Y01708*
X01624Y01708*
X01625Y01709*
X01625Y01709*
X01625Y0171*
X01625Y0171*
X01625Y01711*
X01626Y01711*
X01626Y01712*
X01626Y01712*
X01626Y01713*
X01625Y01643D02*
D01*
X01625Y01643*
X01625Y01644*
X01625Y01644*
X01625Y01645*
X01625Y01646*
X01625Y01646*
X01624Y01647*
X01624Y01647*
X01624Y01648*
X01623Y01648*
X01623Y01648*
X01623Y01649*
X01622Y01649*
X01622Y01649*
X01621Y0165*
X01621Y0165*
X0162Y0165*
X0162Y0165*
X01619Y01651*
X01619Y01651*
X01618Y01651*
X01617Y01651*
X01617*
X01616Y01651*
X01616Y01651*
X01615Y01651*
X01615Y0165*
X01614Y0165*
X01614Y0165*
X01613Y0165*
X01613Y01649*
X01612Y01649*
X01612Y01649*
X01611Y01648*
X01611Y01648*
X01611Y01648*
X0161Y01647*
X0161Y01647*
X0161Y01646*
X0161Y01646*
X0161Y01645*
X01609Y01644*
X01609Y01644*
X01609Y01643*
X01609Y01643*
X01609Y01642*
X01609Y01642*
X01609Y01641*
X0161Y01641*
X0161Y0164*
X0161Y0164*
X0161Y01639*
X0161Y01639*
X01611Y01638*
X01611Y01638*
X01611Y01637*
X01612Y01637*
X01612Y01636*
X01613Y01636*
X01613Y01636*
X01614Y01636*
X01614Y01635*
X01615Y01635*
X01615Y01635*
X01616Y01635*
X01616Y01635*
X01617Y01635*
X01617*
X01618Y01635*
X01619Y01635*
X01619Y01635*
X0162Y01635*
X0162Y01635*
X01621Y01636*
X01621Y01636*
X01622Y01636*
X01622Y01636*
X01623Y01637*
X01623Y01637*
X01623Y01638*
X01624Y01638*
X01624Y01639*
X01624Y01639*
X01625Y0164*
X01625Y0164*
X01625Y01641*
X01625Y01641*
X01625Y01642*
X01625Y01642*
X01625Y01643*
X01679D02*
D01*
X01679Y01643*
X01679Y01644*
X01679Y01644*
X01679Y01645*
X01679Y01646*
X01679Y01646*
X01678Y01647*
X01678Y01647*
X01678Y01648*
X01677Y01648*
X01677Y01648*
X01677Y01649*
X01676Y01649*
X01676Y01649*
X01675Y0165*
X01675Y0165*
X01674Y0165*
X01674Y0165*
X01673Y01651*
X01673Y01651*
X01672Y01651*
X01672Y01651*
X01671*
X0167Y01651*
X0167Y01651*
X01669Y01651*
X01669Y0165*
X01668Y0165*
X01668Y0165*
X01667Y0165*
X01667Y01649*
X01666Y01649*
X01666Y01649*
X01666Y01648*
X01665Y01648*
X01665Y01648*
X01665Y01647*
X01664Y01647*
X01664Y01646*
X01664Y01646*
X01664Y01645*
X01663Y01644*
X01663Y01644*
X01663Y01643*
X01663Y01643*
X01663Y01642*
X01663Y01642*
X01663Y01641*
X01664Y01641*
X01664Y0164*
X01664Y0164*
X01664Y01639*
X01665Y01639*
X01665Y01638*
X01665Y01638*
X01666Y01637*
X01666Y01637*
X01666Y01636*
X01667Y01636*
X01667Y01636*
X01668Y01636*
X01668Y01635*
X01669Y01635*
X01669Y01635*
X0167Y01635*
X0167Y01635*
X01671Y01635*
X01672*
X01672Y01635*
X01673Y01635*
X01673Y01635*
X01674Y01635*
X01674Y01635*
X01675Y01636*
X01675Y01636*
X01676Y01636*
X01676Y01636*
X01677Y01637*
X01677Y01637*
X01677Y01638*
X01678Y01638*
X01678Y01639*
X01678Y01639*
X01679Y0164*
X01679Y0164*
X01679Y01641*
X01679Y01641*
X01679Y01642*
X01679Y01642*
X01679Y01643*
X01682Y01713D02*
D01*
X01682Y01713*
X01682Y01714*
X01682Y01715*
X01681Y01715*
X01681Y01716*
X01681Y01716*
X01681Y01717*
X0168Y01717*
X0168Y01718*
X0168Y01718*
X01679Y01718*
X01679Y01719*
X01679Y01719*
X01678Y0172*
X01678Y0172*
X01677Y0172*
X01677Y0172*
X01676Y01721*
X01676Y01721*
X01675Y01721*
X01675Y01721*
X01674Y01721*
X01673*
X01673Y01721*
X01672Y01721*
X01672Y01721*
X01671Y01721*
X01671Y0172*
X0167Y0172*
X0167Y0172*
X01669Y0172*
X01669Y01719*
X01668Y01719*
X01668Y01718*
X01668Y01718*
X01667Y01718*
X01667Y01717*
X01667Y01717*
X01666Y01716*
X01666Y01716*
X01666Y01715*
X01666Y01715*
X01666Y01714*
X01666Y01713*
X01666Y01713*
X01666Y01712*
X01666Y01712*
X01666Y01711*
X01666Y01711*
X01666Y0171*
X01666Y0171*
X01667Y01709*
X01667Y01709*
X01667Y01708*
X01668Y01708*
X01668Y01707*
X01668Y01707*
X01669Y01707*
X01669Y01706*
X0167Y01706*
X0167Y01706*
X01671Y01705*
X01671Y01705*
X01672Y01705*
X01672Y01705*
X01673Y01705*
X01673Y01705*
X01674*
X01675Y01705*
X01675Y01705*
X01676Y01705*
X01676Y01705*
X01677Y01705*
X01677Y01706*
X01678Y01706*
X01678Y01706*
X01679Y01707*
X01679Y01707*
X01679Y01707*
X0168Y01708*
X0168Y01708*
X0168Y01709*
X01681Y01709*
X01681Y0171*
X01681Y0171*
X01681Y01711*
X01682Y01711*
X01682Y01712*
X01682Y01712*
X01682Y01713*
X01653Y01678D02*
D01*
X01653Y01678*
X01653Y01679*
X01653Y01679*
X01653Y0168*
X01652Y01681*
X01652Y01681*
X01652Y01682*
X01652Y01682*
X01651Y01683*
X01651Y01683*
X01651Y01683*
X0165Y01684*
X0165Y01684*
X01649Y01684*
X01649Y01685*
X01648Y01685*
X01648Y01685*
X01647Y01685*
X01647Y01686*
X01646Y01686*
X01646Y01686*
X01645Y01686*
X01645*
X01644Y01686*
X01644Y01686*
X01643Y01686*
X01642Y01685*
X01642Y01685*
X01641Y01685*
X01641Y01685*
X0164Y01684*
X0164Y01684*
X0164Y01684*
X01639Y01683*
X01639Y01683*
X01638Y01683*
X01638Y01682*
X01638Y01682*
X01638Y01681*
X01637Y01681*
X01637Y0168*
X01637Y01679*
X01637Y01679*
X01637Y01678*
X01637Y01678*
X01637Y01677*
X01637Y01677*
X01637Y01676*
X01637Y01676*
X01637Y01675*
X01638Y01675*
X01638Y01674*
X01638Y01674*
X01638Y01673*
X01639Y01673*
X01639Y01672*
X0164Y01672*
X0164Y01671*
X0164Y01671*
X01641Y01671*
X01641Y01671*
X01642Y0167*
X01642Y0167*
X01643Y0167*
X01644Y0167*
X01644Y0167*
X01645Y0167*
X01645*
X01646Y0167*
X01646Y0167*
X01647Y0167*
X01647Y0167*
X01648Y0167*
X01648Y01671*
X01649Y01671*
X01649Y01671*
X0165Y01671*
X0165Y01672*
X01651Y01672*
X01651Y01673*
X01651Y01673*
X01652Y01674*
X01652Y01674*
X01652Y01675*
X01652Y01675*
X01653Y01676*
X01653Y01676*
X01653Y01677*
X01653Y01677*
X01653Y01678*
X01705D02*
D01*
X01705Y01678*
X01705Y01679*
X01705Y01679*
X01705Y0168*
X01705Y01681*
X01704Y01681*
X01704Y01682*
X01704Y01682*
X01704Y01683*
X01703Y01683*
X01703Y01683*
X01702Y01684*
X01702Y01684*
X01702Y01684*
X01701Y01685*
X01701Y01685*
X017Y01685*
X017Y01685*
X01699Y01686*
X01698Y01686*
X01698Y01686*
X01697Y01686*
X01697*
X01696Y01686*
X01696Y01686*
X01695Y01686*
X01695Y01685*
X01694Y01685*
X01694Y01685*
X01693Y01685*
X01693Y01684*
X01692Y01684*
X01692Y01684*
X01691Y01683*
X01691Y01683*
X01691Y01683*
X0169Y01682*
X0169Y01682*
X0169Y01681*
X0169Y01681*
X01689Y0168*
X01689Y01679*
X01689Y01679*
X01689Y01678*
X01689Y01678*
X01689Y01677*
X01689Y01677*
X01689Y01676*
X01689Y01676*
X0169Y01675*
X0169Y01675*
X0169Y01674*
X0169Y01674*
X01691Y01673*
X01691Y01673*
X01691Y01672*
X01692Y01672*
X01692Y01671*
X01693Y01671*
X01693Y01671*
X01694Y01671*
X01694Y0167*
X01695Y0167*
X01695Y0167*
X01696Y0167*
X01696Y0167*
X01697Y0167*
X01697*
X01698Y0167*
X01698Y0167*
X01699Y0167*
X017Y0167*
X017Y0167*
X01701Y01671*
X01701Y01671*
X01702Y01671*
X01702Y01671*
X01702Y01672*
X01703Y01672*
X01703Y01673*
X01704Y01673*
X01704Y01674*
X01704Y01674*
X01704Y01675*
X01705Y01675*
X01705Y01676*
X01705Y01676*
X01705Y01677*
X01705Y01677*
X01705Y01678*
X00508Y01489D02*
D01*
X00508Y0149*
X00508Y0149*
X00508Y01491*
X00507Y01492*
X00507Y01492*
X00507Y01493*
X00507Y01493*
X00507Y01494*
X00506Y01494*
X00506Y01494*
X00506Y01495*
X00505Y01495*
X00505Y01496*
X00504Y01496*
X00504Y01496*
X00503Y01496*
X00503Y01497*
X00502Y01497*
X00502Y01497*
X00501Y01497*
X00501Y01497*
X005Y01497*
X005*
X00499Y01497*
X00498Y01497*
X00498Y01497*
X00497Y01497*
X00497Y01497*
X00496Y01496*
X00496Y01496*
X00495Y01496*
X00495Y01496*
X00494Y01495*
X00494Y01495*
X00494Y01494*
X00493Y01494*
X00493Y01494*
X00493Y01493*
X00492Y01493*
X00492Y01492*
X00492Y01492*
X00492Y01491*
X00492Y0149*
X00492Y0149*
X00492Y01489*
X00492Y01489*
X00492Y01488*
X00492Y01488*
X00492Y01487*
X00492Y01487*
X00492Y01486*
X00493Y01486*
X00493Y01485*
X00493Y01485*
X00494Y01484*
X00494Y01484*
X00494Y01483*
X00495Y01483*
X00495Y01483*
X00496Y01482*
X00496Y01482*
X00497Y01482*
X00497Y01482*
X00498Y01482*
X00498Y01481*
X00499Y01481*
X005Y01481*
X005*
X00501Y01481*
X00501Y01481*
X00502Y01482*
X00502Y01482*
X00503Y01482*
X00503Y01482*
X00504Y01482*
X00504Y01483*
X00505Y01483*
X00505Y01483*
X00506Y01484*
X00506Y01484*
X00506Y01485*
X00507Y01485*
X00507Y01486*
X00507Y01486*
X00507Y01487*
X00507Y01487*
X00508Y01488*
X00508Y01488*
X00508Y01489*
X00508Y01489*
Y01089D02*
D01*
X00508Y0109*
X00508Y0109*
X00508Y01091*
X00507Y01092*
X00507Y01092*
X00507Y01093*
X00507Y01093*
X00507Y01094*
X00506Y01094*
X00506Y01094*
X00506Y01095*
X00505Y01095*
X00505Y01096*
X00504Y01096*
X00504Y01096*
X00503Y01096*
X00503Y01097*
X00502Y01097*
X00502Y01097*
X00501Y01097*
X00501Y01097*
X005Y01097*
X005*
X00499Y01097*
X00498Y01097*
X00498Y01097*
X00497Y01097*
X00497Y01097*
X00496Y01096*
X00496Y01096*
X00495Y01096*
X00495Y01096*
X00494Y01095*
X00494Y01095*
X00494Y01094*
X00493Y01094*
X00493Y01094*
X00493Y01093*
X00492Y01093*
X00492Y01092*
X00492Y01092*
X00492Y01091*
X00492Y0109*
X00492Y0109*
X00492Y01089*
X00492Y01089*
X00492Y01088*
X00492Y01088*
X00492Y01087*
X00492Y01087*
X00492Y01086*
X00493Y01086*
X00493Y01085*
X00493Y01085*
X00494Y01084*
X00494Y01084*
X00494Y01083*
X00495Y01083*
X00495Y01083*
X00496Y01082*
X00496Y01082*
X00497Y01082*
X00497Y01082*
X00498Y01082*
X00498Y01081*
X00499Y01081*
X005Y01081*
X005*
X00501Y01081*
X00501Y01081*
X00502Y01082*
X00502Y01082*
X00503Y01082*
X00503Y01082*
X00504Y01082*
X00504Y01083*
X00505Y01083*
X00505Y01083*
X00506Y01084*
X00506Y01084*
X00506Y01085*
X00507Y01085*
X00507Y01086*
X00507Y01086*
X00507Y01087*
X00507Y01087*
X00508Y01088*
X00508Y01088*
X00508Y01089*
X00508Y01089*
G54D81*
X01649Y01748D02*
D01*
X01649Y01748*
X01649Y01748*
X01649Y01749*
X01649Y01749*
X01649Y01749*
X01649Y0175*
X01648Y0175*
X01648Y0175*
X01648Y0175*
X01648Y0175*
X01648Y01751*
X01648Y01751*
X01647Y01751*
X01647Y01751*
X01647Y01751*
X01647Y01751*
X01646Y01752*
X01646Y01752*
X01646Y01752*
X01646Y01752*
X01645Y01752*
X01645Y01752*
X01645*
X01644Y01752*
X01644Y01752*
X01644Y01752*
X01644Y01752*
X01643Y01752*
X01643Y01751*
X01643Y01751*
X01643Y01751*
X01642Y01751*
X01642Y01751*
X01642Y01751*
X01642Y0175*
X01642Y0175*
X01642Y0175*
X01641Y0175*
X01641Y0175*
X01641Y01749*
X01641Y01749*
X01641Y01749*
X01641Y01748*
X01641Y01748*
X01641Y01748*
X01641Y01748*
X01641Y01747*
X01641Y01747*
X01641Y01747*
X01641Y01747*
X01641Y01746*
X01641Y01746*
X01642Y01746*
X01642Y01746*
X01642Y01745*
X01642Y01745*
X01642Y01745*
X01642Y01745*
X01643Y01745*
X01643Y01744*
X01643Y01744*
X01643Y01744*
X01644Y01744*
X01644Y01744*
X01644Y01744*
X01644Y01744*
X01645Y01744*
X01645*
X01645Y01744*
X01646Y01744*
X01646Y01744*
X01646Y01744*
X01646Y01744*
X01647Y01744*
X01647Y01744*
X01647Y01745*
X01647Y01745*
X01648Y01745*
X01648Y01745*
X01648Y01745*
X01648Y01746*
X01648Y01746*
X01648Y01746*
X01649Y01746*
X01649Y01747*
X01649Y01747*
X01649Y01747*
X01649Y01747*
X01649Y01748*
X01649Y01748*
X01394Y01315D02*
D01*
X01394Y01315*
X01394Y01316*
X01394Y01316*
X01394Y01316*
X01394Y01316*
X01394Y01317*
X01394Y01317*
X01394Y01317*
X01394Y01317*
X01393Y01318*
X01393Y01318*
X01393Y01318*
X01393Y01318*
X01393Y01318*
X01392Y01319*
X01392Y01319*
X01392Y01319*
X01392Y01319*
X01391Y01319*
X01391Y01319*
X01391Y01319*
X01391Y01319*
X0139*
X0139Y01319*
X0139Y01319*
X01389Y01319*
X01389Y01319*
X01389Y01319*
X01389Y01319*
X01388Y01319*
X01388Y01318*
X01388Y01318*
X01388Y01318*
X01388Y01318*
X01387Y01318*
X01387Y01317*
X01387Y01317*
X01387Y01317*
X01387Y01317*
X01387Y01316*
X01387Y01316*
X01386Y01316*
X01386Y01316*
X01386Y01315*
X01386Y01315*
X01386Y01315*
X01386Y01315*
X01386Y01314*
X01387Y01314*
X01387Y01314*
X01387Y01313*
X01387Y01313*
X01387Y01313*
X01387Y01313*
X01387Y01313*
X01388Y01312*
X01388Y01312*
X01388Y01312*
X01388Y01312*
X01388Y01312*
X01389Y01312*
X01389Y01311*
X01389Y01311*
X01389Y01311*
X0139Y01311*
X0139Y01311*
X0139Y01311*
X01391*
X01391Y01311*
X01391Y01311*
X01391Y01311*
X01392Y01311*
X01392Y01311*
X01392Y01312*
X01392Y01312*
X01393Y01312*
X01393Y01312*
X01393Y01312*
X01393Y01312*
X01393Y01313*
X01394Y01313*
X01394Y01313*
X01394Y01313*
X01394Y01313*
X01394Y01314*
X01394Y01314*
X01394Y01314*
X01394Y01315*
X01394Y01315*
X01394Y01315*
X01449D02*
D01*
X01449Y01315*
X01449Y01316*
X01449Y01316*
X01449Y01316*
X01449Y01316*
X01449Y01317*
X01449Y01317*
X01448Y01317*
X01448Y01317*
X01448Y01318*
X01448Y01318*
X01448Y01318*
X01448Y01318*
X01447Y01318*
X01447Y01319*
X01447Y01319*
X01447Y01319*
X01446Y01319*
X01446Y01319*
X01446Y01319*
X01446Y01319*
X01445Y01319*
X01445*
X01445Y01319*
X01444Y01319*
X01444Y01319*
X01444Y01319*
X01444Y01319*
X01443Y01319*
X01443Y01319*
X01443Y01318*
X01443Y01318*
X01442Y01318*
X01442Y01318*
X01442Y01318*
X01442Y01317*
X01442Y01317*
X01442Y01317*
X01441Y01317*
X01441Y01316*
X01441Y01316*
X01441Y01316*
X01441Y01316*
X01441Y01315*
X01441Y01315*
X01441Y01315*
X01441Y01315*
X01441Y01314*
X01441Y01314*
X01441Y01314*
X01441Y01313*
X01442Y01313*
X01442Y01313*
X01442Y01313*
X01442Y01313*
X01442Y01312*
X01442Y01312*
X01443Y01312*
X01443Y01312*
X01443Y01312*
X01443Y01312*
X01444Y01311*
X01444Y01311*
X01444Y01311*
X01444Y01311*
X01445Y01311*
X01445Y01311*
X01445*
X01446Y01311*
X01446Y01311*
X01446Y01311*
X01446Y01311*
X01447Y01311*
X01447Y01312*
X01447Y01312*
X01447Y01312*
X01448Y01312*
X01448Y01312*
X01448Y01312*
X01448Y01313*
X01448Y01313*
X01448Y01313*
X01449Y01313*
X01449Y01313*
X01449Y01314*
X01449Y01314*
X01449Y01314*
X01449Y01315*
X01449Y01315*
X01449Y01315*
X01394Y0126D02*
D01*
X01394Y01261*
X01394Y01261*
X01394Y01261*
X01394Y01262*
X01394Y01262*
X01394Y01262*
X01394Y01262*
X01394Y01263*
X01394Y01263*
X01393Y01263*
X01393Y01263*
X01393Y01263*
X01393Y01264*
X01393Y01264*
X01392Y01264*
X01392Y01264*
X01392Y01264*
X01392Y01264*
X01391Y01264*
X01391Y01264*
X01391Y01264*
X01391Y01264*
X0139*
X0139Y01264*
X0139Y01264*
X01389Y01264*
X01389Y01264*
X01389Y01264*
X01389Y01264*
X01388Y01264*
X01388Y01264*
X01388Y01264*
X01388Y01263*
X01388Y01263*
X01387Y01263*
X01387Y01263*
X01387Y01263*
X01387Y01262*
X01387Y01262*
X01387Y01262*
X01387Y01262*
X01386Y01261*
X01386Y01261*
X01386Y01261*
X01386Y0126*
X01386Y0126*
X01386Y0126*
X01386Y0126*
X01387Y01259*
X01387Y01259*
X01387Y01259*
X01387Y01259*
X01387Y01258*
X01387Y01258*
X01387Y01258*
X01388Y01258*
X01388Y01257*
X01388Y01257*
X01388Y01257*
X01388Y01257*
X01389Y01257*
X01389Y01257*
X01389Y01257*
X01389Y01257*
X0139Y01256*
X0139Y01256*
X0139Y01256*
X01391*
X01391Y01256*
X01391Y01256*
X01391Y01257*
X01392Y01257*
X01392Y01257*
X01392Y01257*
X01392Y01257*
X01393Y01257*
X01393Y01257*
X01393Y01257*
X01393Y01258*
X01393Y01258*
X01394Y01258*
X01394Y01258*
X01394Y01259*
X01394Y01259*
X01394Y01259*
X01394Y01259*
X01394Y0126*
X01394Y0126*
X01394Y0126*
X01394Y0126*
X01449D02*
D01*
X01449Y01261*
X01449Y01261*
X01449Y01261*
X01449Y01262*
X01449Y01262*
X01449Y01262*
X01449Y01262*
X01448Y01263*
X01448Y01263*
X01448Y01263*
X01448Y01263*
X01448Y01263*
X01448Y01264*
X01447Y01264*
X01447Y01264*
X01447Y01264*
X01447Y01264*
X01446Y01264*
X01446Y01264*
X01446Y01264*
X01446Y01264*
X01445Y01264*
X01445*
X01445Y01264*
X01444Y01264*
X01444Y01264*
X01444Y01264*
X01444Y01264*
X01443Y01264*
X01443Y01264*
X01443Y01264*
X01443Y01264*
X01442Y01263*
X01442Y01263*
X01442Y01263*
X01442Y01263*
X01442Y01263*
X01442Y01262*
X01441Y01262*
X01441Y01262*
X01441Y01262*
X01441Y01261*
X01441Y01261*
X01441Y01261*
X01441Y0126*
X01441Y0126*
X01441Y0126*
X01441Y0126*
X01441Y01259*
X01441Y01259*
X01441Y01259*
X01442Y01259*
X01442Y01258*
X01442Y01258*
X01442Y01258*
X01442Y01258*
X01442Y01257*
X01443Y01257*
X01443Y01257*
X01443Y01257*
X01443Y01257*
X01444Y01257*
X01444Y01257*
X01444Y01257*
X01444Y01256*
X01445Y01256*
X01445Y01256*
X01445*
X01446Y01256*
X01446Y01256*
X01446Y01257*
X01446Y01257*
X01447Y01257*
X01447Y01257*
X01447Y01257*
X01447Y01257*
X01448Y01257*
X01448Y01257*
X01448Y01258*
X01448Y01258*
X01448Y01258*
X01448Y01258*
X01449Y01259*
X01449Y01259*
X01449Y01259*
X01449Y01259*
X01449Y0126*
X01449Y0126*
X01449Y0126*
X01449Y0126*
X01394Y01362D02*
D01*
X01394Y01362*
X01394Y01362*
X01394Y01362*
X01394Y01363*
X01394Y01363*
X01394Y01363*
X01394Y01363*
X01394Y01364*
X01394Y01364*
X01393Y01364*
X01393Y01364*
X01393Y01365*
X01393Y01365*
X01393Y01365*
X01392Y01365*
X01392Y01365*
X01392Y01365*
X01392Y01365*
X01391Y01365*
X01391Y01366*
X01391Y01366*
X01391Y01366*
X0139*
X0139Y01366*
X0139Y01366*
X01389Y01365*
X01389Y01365*
X01389Y01365*
X01389Y01365*
X01388Y01365*
X01388Y01365*
X01388Y01365*
X01388Y01365*
X01388Y01364*
X01387Y01364*
X01387Y01364*
X01387Y01364*
X01387Y01363*
X01387Y01363*
X01387Y01363*
X01387Y01363*
X01386Y01362*
X01386Y01362*
X01386Y01362*
X01386Y01362*
X01386Y01361*
X01386Y01361*
X01386Y01361*
X01387Y0136*
X01387Y0136*
X01387Y0136*
X01387Y0136*
X01387Y01359*
X01387Y01359*
X01387Y01359*
X01388Y01359*
X01388Y01359*
X01388Y01358*
X01388Y01358*
X01388Y01358*
X01389Y01358*
X01389Y01358*
X01389Y01358*
X01389Y01358*
X0139Y01358*
X0139Y01358*
X0139Y01358*
X01391*
X01391Y01358*
X01391Y01358*
X01391Y01358*
X01392Y01358*
X01392Y01358*
X01392Y01358*
X01392Y01358*
X01393Y01358*
X01393Y01358*
X01393Y01359*
X01393Y01359*
X01393Y01359*
X01394Y01359*
X01394Y01359*
X01394Y0136*
X01394Y0136*
X01394Y0136*
X01394Y0136*
X01394Y01361*
X01394Y01361*
X01394Y01361*
X01394Y01362*
X01449D02*
D01*
X01449Y01362*
X01449Y01362*
X01449Y01362*
X01449Y01363*
X01449Y01363*
X01449Y01363*
X01449Y01363*
X01448Y01364*
X01448Y01364*
X01448Y01364*
X01448Y01364*
X01448Y01365*
X01448Y01365*
X01447Y01365*
X01447Y01365*
X01447Y01365*
X01447Y01365*
X01446Y01365*
X01446Y01365*
X01446Y01366*
X01446Y01366*
X01445Y01366*
X01445*
X01445Y01366*
X01444Y01366*
X01444Y01365*
X01444Y01365*
X01444Y01365*
X01443Y01365*
X01443Y01365*
X01443Y01365*
X01443Y01365*
X01442Y01365*
X01442Y01364*
X01442Y01364*
X01442Y01364*
X01442Y01364*
X01442Y01363*
X01441Y01363*
X01441Y01363*
X01441Y01363*
X01441Y01362*
X01441Y01362*
X01441Y01362*
X01441Y01362*
X01441Y01361*
X01441Y01361*
X01441Y01361*
X01441Y0136*
X01441Y0136*
X01441Y0136*
X01442Y0136*
X01442Y01359*
X01442Y01359*
X01442Y01359*
X01442Y01359*
X01442Y01359*
X01443Y01358*
X01443Y01358*
X01443Y01358*
X01443Y01358*
X01444Y01358*
X01444Y01358*
X01444Y01358*
X01444Y01358*
X01445Y01358*
X01445Y01358*
X01445*
X01446Y01358*
X01446Y01358*
X01446Y01358*
X01446Y01358*
X01447Y01358*
X01447Y01358*
X01447Y01358*
X01447Y01358*
X01448Y01358*
X01448Y01359*
X01448Y01359*
X01448Y01359*
X01448Y01359*
X01448Y01359*
X01449Y0136*
X01449Y0136*
X01449Y0136*
X01449Y0136*
X01449Y01361*
X01449Y01361*
X01449Y01361*
X01449Y01362*
X01394Y01214D02*
D01*
X01394Y01214*
X01394Y01214*
X01394Y01215*
X01394Y01215*
X01394Y01215*
X01394Y01216*
X01394Y01216*
X01394Y01216*
X01394Y01216*
X01393Y01216*
X01393Y01217*
X01393Y01217*
X01393Y01217*
X01393Y01217*
X01392Y01217*
X01392Y01217*
X01392Y01218*
X01392Y01218*
X01391Y01218*
X01391Y01218*
X01391Y01218*
X01391Y01218*
X0139*
X0139Y01218*
X0139Y01218*
X01389Y01218*
X01389Y01218*
X01389Y01218*
X01389Y01217*
X01388Y01217*
X01388Y01217*
X01388Y01217*
X01388Y01217*
X01388Y01217*
X01387Y01216*
X01387Y01216*
X01387Y01216*
X01387Y01216*
X01387Y01216*
X01387Y01215*
X01387Y01215*
X01386Y01215*
X01386Y01214*
X01386Y01214*
X01386Y01214*
X01386Y01214*
X01386Y01213*
X01386Y01213*
X01387Y01213*
X01387Y01213*
X01387Y01212*
X01387Y01212*
X01387Y01212*
X01387Y01212*
X01387Y01211*
X01388Y01211*
X01388Y01211*
X01388Y01211*
X01388Y01211*
X01388Y0121*
X01389Y0121*
X01389Y0121*
X01389Y0121*
X01389Y0121*
X0139Y0121*
X0139Y0121*
X0139Y0121*
X01391*
X01391Y0121*
X01391Y0121*
X01391Y0121*
X01392Y0121*
X01392Y0121*
X01392Y0121*
X01392Y0121*
X01393Y01211*
X01393Y01211*
X01393Y01211*
X01393Y01211*
X01393Y01211*
X01394Y01212*
X01394Y01212*
X01394Y01212*
X01394Y01212*
X01394Y01213*
X01394Y01213*
X01394Y01213*
X01394Y01213*
X01394Y01214*
X01394Y01214*
X01449D02*
D01*
X01449Y01214*
X01449Y01214*
X01449Y01215*
X01449Y01215*
X01449Y01215*
X01449Y01216*
X01449Y01216*
X01448Y01216*
X01448Y01216*
X01448Y01216*
X01448Y01217*
X01448Y01217*
X01448Y01217*
X01447Y01217*
X01447Y01217*
X01447Y01217*
X01447Y01218*
X01446Y01218*
X01446Y01218*
X01446Y01218*
X01446Y01218*
X01445Y01218*
X01445*
X01445Y01218*
X01444Y01218*
X01444Y01218*
X01444Y01218*
X01444Y01218*
X01443Y01217*
X01443Y01217*
X01443Y01217*
X01443Y01217*
X01442Y01217*
X01442Y01217*
X01442Y01216*
X01442Y01216*
X01442Y01216*
X01442Y01216*
X01441Y01216*
X01441Y01215*
X01441Y01215*
X01441Y01215*
X01441Y01214*
X01441Y01214*
X01441Y01214*
X01441Y01214*
X01441Y01213*
X01441Y01213*
X01441Y01213*
X01441Y01213*
X01441Y01212*
X01442Y01212*
X01442Y01212*
X01442Y01212*
X01442Y01211*
X01442Y01211*
X01442Y01211*
X01443Y01211*
X01443Y01211*
X01443Y0121*
X01443Y0121*
X01444Y0121*
X01444Y0121*
X01444Y0121*
X01444Y0121*
X01445Y0121*
X01445Y0121*
X01445*
X01446Y0121*
X01446Y0121*
X01446Y0121*
X01446Y0121*
X01447Y0121*
X01447Y0121*
X01447Y0121*
X01447Y01211*
X01448Y01211*
X01448Y01211*
X01448Y01211*
X01448Y01211*
X01448Y01212*
X01448Y01212*
X01449Y01212*
X01449Y01212*
X01449Y01213*
X01449Y01213*
X01449Y01213*
X01449Y01213*
X01449Y01214*
X01449Y01214*
X01348Y01315D02*
D01*
X01348Y01315*
X01348Y01316*
X01348Y01316*
X01348Y01316*
X01348Y01316*
X01348Y01317*
X01347Y01317*
X01347Y01317*
X01347Y01317*
X01347Y01318*
X01347Y01318*
X01347Y01318*
X01346Y01318*
X01346Y01318*
X01346Y01319*
X01346Y01319*
X01345Y01319*
X01345Y01319*
X01345Y01319*
X01345Y01319*
X01344Y01319*
X01344Y01319*
X01344*
X01343Y01319*
X01343Y01319*
X01343Y01319*
X01343Y01319*
X01342Y01319*
X01342Y01319*
X01342Y01319*
X01342Y01318*
X01341Y01318*
X01341Y01318*
X01341Y01318*
X01341Y01318*
X01341Y01317*
X01341Y01317*
X0134Y01317*
X0134Y01317*
X0134Y01316*
X0134Y01316*
X0134Y01316*
X0134Y01316*
X0134Y01315*
X0134Y01315*
X0134Y01315*
X0134Y01315*
X0134Y01314*
X0134Y01314*
X0134Y01314*
X0134Y01313*
X0134Y01313*
X01341Y01313*
X01341Y01313*
X01341Y01313*
X01341Y01312*
X01341Y01312*
X01341Y01312*
X01342Y01312*
X01342Y01312*
X01342Y01312*
X01342Y01311*
X01343Y01311*
X01343Y01311*
X01343Y01311*
X01343Y01311*
X01344Y01311*
X01344*
X01344Y01311*
X01345Y01311*
X01345Y01311*
X01345Y01311*
X01345Y01311*
X01346Y01312*
X01346Y01312*
X01346Y01312*
X01346Y01312*
X01347Y01312*
X01347Y01312*
X01347Y01313*
X01347Y01313*
X01347Y01313*
X01347Y01313*
X01348Y01313*
X01348Y01314*
X01348Y01314*
X01348Y01314*
X01348Y01315*
X01348Y01315*
X01348Y01315*
Y0126D02*
D01*
X01348Y01261*
X01348Y01261*
X01348Y01261*
X01348Y01262*
X01348Y01262*
X01348Y01262*
X01347Y01262*
X01347Y01263*
X01347Y01263*
X01347Y01263*
X01347Y01263*
X01347Y01263*
X01346Y01264*
X01346Y01264*
X01346Y01264*
X01346Y01264*
X01345Y01264*
X01345Y01264*
X01345Y01264*
X01345Y01264*
X01344Y01264*
X01344Y01264*
X01344*
X01343Y01264*
X01343Y01264*
X01343Y01264*
X01343Y01264*
X01342Y01264*
X01342Y01264*
X01342Y01264*
X01342Y01264*
X01341Y01264*
X01341Y01263*
X01341Y01263*
X01341Y01263*
X01341Y01263*
X01341Y01263*
X0134Y01262*
X0134Y01262*
X0134Y01262*
X0134Y01262*
X0134Y01261*
X0134Y01261*
X0134Y01261*
X0134Y0126*
X0134Y0126*
X0134Y0126*
X0134Y0126*
X0134Y01259*
X0134Y01259*
X0134Y01259*
X0134Y01259*
X01341Y01258*
X01341Y01258*
X01341Y01258*
X01341Y01258*
X01341Y01257*
X01341Y01257*
X01342Y01257*
X01342Y01257*
X01342Y01257*
X01342Y01257*
X01343Y01257*
X01343Y01257*
X01343Y01256*
X01343Y01256*
X01344Y01256*
X01344*
X01344Y01256*
X01345Y01256*
X01345Y01257*
X01345Y01257*
X01345Y01257*
X01346Y01257*
X01346Y01257*
X01346Y01257*
X01346Y01257*
X01347Y01257*
X01347Y01258*
X01347Y01258*
X01347Y01258*
X01347Y01258*
X01347Y01259*
X01348Y01259*
X01348Y01259*
X01348Y01259*
X01348Y0126*
X01348Y0126*
X01348Y0126*
X01348Y0126*
X01496Y01315D02*
D01*
X01495Y01315*
X01495Y01316*
X01495Y01316*
X01495Y01316*
X01495Y01316*
X01495Y01317*
X01495Y01317*
X01495Y01317*
X01495Y01317*
X01495Y01318*
X01494Y01318*
X01494Y01318*
X01494Y01318*
X01494Y01318*
X01494Y01319*
X01493Y01319*
X01493Y01319*
X01493Y01319*
X01492Y01319*
X01492Y01319*
X01492Y01319*
X01492Y01319*
X01491*
X01491Y01319*
X01491Y01319*
X01491Y01319*
X0149Y01319*
X0149Y01319*
X0149Y01319*
X0149Y01319*
X01489Y01318*
X01489Y01318*
X01489Y01318*
X01489Y01318*
X01488Y01318*
X01488Y01317*
X01488Y01317*
X01488Y01317*
X01488Y01317*
X01488Y01316*
X01488Y01316*
X01488Y01316*
X01488Y01316*
X01488Y01315*
X01488Y01315*
X01488Y01315*
X01488Y01315*
X01488Y01314*
X01488Y01314*
X01488Y01314*
X01488Y01313*
X01488Y01313*
X01488Y01313*
X01488Y01313*
X01488Y01313*
X01489Y01312*
X01489Y01312*
X01489Y01312*
X01489Y01312*
X0149Y01312*
X0149Y01312*
X0149Y01311*
X0149Y01311*
X01491Y01311*
X01491Y01311*
X01491Y01311*
X01491Y01311*
X01492*
X01492Y01311*
X01492Y01311*
X01492Y01311*
X01493Y01311*
X01493Y01311*
X01493Y01312*
X01494Y01312*
X01494Y01312*
X01494Y01312*
X01494Y01312*
X01494Y01312*
X01495Y01313*
X01495Y01313*
X01495Y01313*
X01495Y01313*
X01495Y01313*
X01495Y01314*
X01495Y01314*
X01495Y01314*
X01495Y01315*
X01495Y01315*
X01496Y01315*
Y0126D02*
D01*
X01495Y01261*
X01495Y01261*
X01495Y01261*
X01495Y01262*
X01495Y01262*
X01495Y01262*
X01495Y01262*
X01495Y01263*
X01495Y01263*
X01495Y01263*
X01494Y01263*
X01494Y01263*
X01494Y01264*
X01494Y01264*
X01494Y01264*
X01493Y01264*
X01493Y01264*
X01493Y01264*
X01492Y01264*
X01492Y01264*
X01492Y01264*
X01492Y01264*
X01491*
X01491Y01264*
X01491Y01264*
X01491Y01264*
X0149Y01264*
X0149Y01264*
X0149Y01264*
X0149Y01264*
X01489Y01264*
X01489Y01264*
X01489Y01263*
X01489Y01263*
X01488Y01263*
X01488Y01263*
X01488Y01263*
X01488Y01262*
X01488Y01262*
X01488Y01262*
X01488Y01262*
X01488Y01261*
X01488Y01261*
X01488Y01261*
X01488Y0126*
X01488Y0126*
X01488Y0126*
X01488Y0126*
X01488Y01259*
X01488Y01259*
X01488Y01259*
X01488Y01259*
X01488Y01258*
X01488Y01258*
X01488Y01258*
X01489Y01258*
X01489Y01257*
X01489Y01257*
X01489Y01257*
X0149Y01257*
X0149Y01257*
X0149Y01257*
X0149Y01257*
X01491Y01257*
X01491Y01256*
X01491Y01256*
X01491Y01256*
X01492*
X01492Y01256*
X01492Y01256*
X01492Y01257*
X01493Y01257*
X01493Y01257*
X01493Y01257*
X01494Y01257*
X01494Y01257*
X01494Y01257*
X01494Y01257*
X01494Y01258*
X01495Y01258*
X01495Y01258*
X01495Y01258*
X01495Y01259*
X01495Y01259*
X01495Y01259*
X01495Y01259*
X01495Y0126*
X01495Y0126*
X01495Y0126*
X01496Y0126*
X01596Y01748D02*
D01*
X01596Y01748*
X01596Y01748*
X01596Y01749*
X01596Y01749*
X01596Y01749*
X01596Y0175*
X01596Y0175*
X01596Y0175*
X01595Y0175*
X01595Y0175*
X01595Y01751*
X01595Y01751*
X01595Y01751*
X01594Y01751*
X01594Y01751*
X01594Y01751*
X01594Y01752*
X01593Y01752*
X01593Y01752*
X01593Y01752*
X01593Y01752*
X01592Y01752*
X01592*
X01592Y01752*
X01592Y01752*
X01591Y01752*
X01591Y01752*
X01591Y01752*
X0159Y01751*
X0159Y01751*
X0159Y01751*
X0159Y01751*
X0159Y01751*
X01589Y01751*
X01589Y0175*
X01589Y0175*
X01589Y0175*
X01589Y0175*
X01589Y0175*
X01588Y01749*
X01588Y01749*
X01588Y01749*
X01588Y01748*
X01588Y01748*
X01588Y01748*
X01588Y01748*
X01588Y01747*
X01588Y01747*
X01588Y01747*
X01588Y01747*
X01589Y01746*
X01589Y01746*
X01589Y01746*
X01589Y01746*
X01589Y01745*
X01589Y01745*
X0159Y01745*
X0159Y01745*
X0159Y01745*
X0159Y01744*
X0159Y01744*
X01591Y01744*
X01591Y01744*
X01591Y01744*
X01592Y01744*
X01592Y01744*
X01592Y01744*
X01592*
X01593Y01744*
X01593Y01744*
X01593Y01744*
X01593Y01744*
X01594Y01744*
X01594Y01744*
X01594Y01744*
X01594Y01745*
X01595Y01745*
X01595Y01745*
X01595Y01745*
X01595Y01745*
X01595Y01746*
X01596Y01746*
X01596Y01746*
X01596Y01746*
X01596Y01747*
X01596Y01747*
X01596Y01747*
X01596Y01747*
X01596Y01748*
X01596Y01748*
X01702D02*
D01*
X01701Y01748*
X01701Y01748*
X01701Y01749*
X01701Y01749*
X01701Y01749*
X01701Y0175*
X01701Y0175*
X01701Y0175*
X01701Y0175*
X01701Y0175*
X017Y01751*
X017Y01751*
X017Y01751*
X017Y01751*
X017Y01751*
X01699Y01751*
X01699Y01752*
X01699Y01752*
X01698Y01752*
X01698Y01752*
X01698Y01752*
X01698Y01752*
X01697*
X01697Y01752*
X01697Y01752*
X01697Y01752*
X01696Y01752*
X01696Y01752*
X01696Y01751*
X01696Y01751*
X01695Y01751*
X01695Y01751*
X01695Y01751*
X01695Y01751*
X01694Y0175*
X01694Y0175*
X01694Y0175*
X01694Y0175*
X01694Y0175*
X01694Y01749*
X01694Y01749*
X01694Y01749*
X01694Y01748*
X01694Y01748*
X01694Y01748*
X01694Y01748*
X01694Y01747*
X01694Y01747*
X01694Y01747*
X01694Y01747*
X01694Y01746*
X01694Y01746*
X01694Y01746*
X01694Y01746*
X01694Y01745*
X01695Y01745*
X01695Y01745*
X01695Y01745*
X01695Y01745*
X01696Y01744*
X01696Y01744*
X01696Y01744*
X01696Y01744*
X01697Y01744*
X01697Y01744*
X01697Y01744*
X01697Y01744*
X01698*
X01698Y01744*
X01698Y01744*
X01698Y01744*
X01699Y01744*
X01699Y01744*
X01699Y01744*
X017Y01744*
X017Y01745*
X017Y01745*
X017Y01745*
X017Y01745*
X01701Y01745*
X01701Y01746*
X01701Y01746*
X01701Y01746*
X01701Y01746*
X01701Y01747*
X01701Y01747*
X01701Y01747*
X01701Y01747*
X01701Y01748*
X01702Y01748*
X01596Y01678D02*
D01*
X01596Y01678*
X01596Y01678*
X01596Y01679*
X01596Y01679*
X01596Y01679*
X01596Y01679*
X01596Y0168*
X01596Y0168*
X01595Y0168*
X01595Y0168*
X01595Y01681*
X01595Y01681*
X01595Y01681*
X01594Y01681*
X01594Y01681*
X01594Y01681*
X01594Y01682*
X01593Y01682*
X01593Y01682*
X01593Y01682*
X01593Y01682*
X01592Y01682*
X01592*
X01592Y01682*
X01592Y01682*
X01591Y01682*
X01591Y01682*
X01591Y01682*
X0159Y01681*
X0159Y01681*
X0159Y01681*
X0159Y01681*
X0159Y01681*
X01589Y01681*
X01589Y0168*
X01589Y0168*
X01589Y0168*
X01589Y0168*
X01589Y01679*
X01588Y01679*
X01588Y01679*
X01588Y01679*
X01588Y01678*
X01588Y01678*
X01588Y01678*
X01588Y01678*
X01588Y01677*
X01588Y01677*
X01588Y01677*
X01588Y01676*
X01589Y01676*
X01589Y01676*
X01589Y01676*
X01589Y01675*
X01589Y01675*
X01589Y01675*
X0159Y01675*
X0159Y01675*
X0159Y01674*
X0159Y01674*
X0159Y01674*
X01591Y01674*
X01591Y01674*
X01591Y01674*
X01592Y01674*
X01592Y01674*
X01592Y01674*
X01592*
X01593Y01674*
X01593Y01674*
X01593Y01674*
X01593Y01674*
X01594Y01674*
X01594Y01674*
X01594Y01674*
X01594Y01674*
X01595Y01675*
X01595Y01675*
X01595Y01675*
X01595Y01675*
X01595Y01675*
X01596Y01676*
X01596Y01676*
X01596Y01676*
X01596Y01676*
X01596Y01677*
X01596Y01677*
X01596Y01677*
X01596Y01678*
X01596Y01678*
X01622Y01713D02*
D01*
X01622Y01713*
X01622Y01713*
X01622Y01714*
X01622Y01714*
X01622Y01714*
X01621Y01715*
X01621Y01715*
X01621Y01715*
X01621Y01715*
X01621Y01715*
X01621Y01716*
X0162Y01716*
X0162Y01716*
X0162Y01716*
X0162Y01716*
X0162Y01716*
X01619Y01717*
X01619Y01717*
X01619Y01717*
X01618Y01717*
X01618Y01717*
X01618Y01717*
X01618*
X01617Y01717*
X01617Y01717*
X01617Y01717*
X01617Y01717*
X01616Y01717*
X01616Y01716*
X01616Y01716*
X01616Y01716*
X01615Y01716*
X01615Y01716*
X01615Y01716*
X01615Y01715*
X01615Y01715*
X01614Y01715*
X01614Y01715*
X01614Y01715*
X01614Y01714*
X01614Y01714*
X01614Y01714*
X01614Y01713*
X01614Y01713*
X01614Y01713*
X01614Y01713*
X01614Y01712*
X01614Y01712*
X01614Y01712*
X01614Y01712*
X01614Y01711*
X01614Y01711*
X01614Y01711*
X01615Y01711*
X01615Y0171*
X01615Y0171*
X01615Y0171*
X01615Y0171*
X01616Y0171*
X01616Y01709*
X01616Y01709*
X01616Y01709*
X01617Y01709*
X01617Y01709*
X01617Y01709*
X01617Y01709*
X01618Y01709*
X01618*
X01618Y01709*
X01618Y01709*
X01619Y01709*
X01619Y01709*
X01619Y01709*
X0162Y01709*
X0162Y01709*
X0162Y0171*
X0162Y0171*
X0162Y0171*
X01621Y0171*
X01621Y0171*
X01621Y01711*
X01621Y01711*
X01621Y01711*
X01621Y01711*
X01622Y01712*
X01622Y01712*
X01622Y01712*
X01622Y01712*
X01622Y01713*
X01622Y01713*
X01621Y01643D02*
D01*
X01621Y01643*
X01621Y01643*
X01621Y01644*
X01621Y01644*
X01621Y01644*
X01621Y01644*
X01621Y01645*
X01621Y01645*
X0162Y01645*
X0162Y01645*
X0162Y01646*
X0162Y01646*
X0162Y01646*
X01619Y01646*
X01619Y01646*
X01619Y01646*
X01619Y01647*
X01618Y01647*
X01618Y01647*
X01618Y01647*
X01618Y01647*
X01617Y01647*
X01617*
X01617Y01647*
X01617Y01647*
X01616Y01647*
X01616Y01647*
X01616Y01647*
X01615Y01646*
X01615Y01646*
X01615Y01646*
X01615Y01646*
X01615Y01646*
X01614Y01646*
X01614Y01645*
X01614Y01645*
X01614Y01645*
X01614Y01645*
X01614Y01644*
X01613Y01644*
X01613Y01644*
X01613Y01644*
X01613Y01643*
X01613Y01643*
X01613Y01643*
X01613Y01643*
X01613Y01642*
X01613Y01642*
X01613Y01642*
X01613Y01641*
X01614Y01641*
X01614Y01641*
X01614Y01641*
X01614Y0164*
X01614Y0164*
X01614Y0164*
X01615Y0164*
X01615Y0164*
X01615Y01639*
X01615Y01639*
X01615Y01639*
X01616Y01639*
X01616Y01639*
X01616Y01639*
X01617Y01639*
X01617Y01639*
X01617Y01639*
X01617*
X01618Y01639*
X01618Y01639*
X01618Y01639*
X01618Y01639*
X01619Y01639*
X01619Y01639*
X01619Y01639*
X01619Y01639*
X0162Y0164*
X0162Y0164*
X0162Y0164*
X0162Y0164*
X0162Y0164*
X01621Y01641*
X01621Y01641*
X01621Y01641*
X01621Y01641*
X01621Y01642*
X01621Y01642*
X01621Y01642*
X01621Y01643*
X01621Y01643*
X01675D02*
D01*
X01675Y01643*
X01675Y01643*
X01675Y01644*
X01675Y01644*
X01675Y01644*
X01675Y01644*
X01675Y01645*
X01675Y01645*
X01675Y01645*
X01674Y01645*
X01674Y01646*
X01674Y01646*
X01674Y01646*
X01674Y01646*
X01673Y01646*
X01673Y01646*
X01673Y01647*
X01673Y01647*
X01672Y01647*
X01672Y01647*
X01672Y01647*
X01671Y01647*
X01671*
X01671Y01647*
X01671Y01647*
X0167Y01647*
X0167Y01647*
X0167Y01647*
X0167Y01646*
X01669Y01646*
X01669Y01646*
X01669Y01646*
X01669Y01646*
X01668Y01646*
X01668Y01645*
X01668Y01645*
X01668Y01645*
X01668Y01645*
X01668Y01644*
X01668Y01644*
X01667Y01644*
X01667Y01644*
X01667Y01643*
X01667Y01643*
X01667Y01643*
X01667Y01643*
X01667Y01642*
X01667Y01642*
X01667Y01642*
X01668Y01641*
X01668Y01641*
X01668Y01641*
X01668Y01641*
X01668Y0164*
X01668Y0164*
X01668Y0164*
X01669Y0164*
X01669Y0164*
X01669Y01639*
X01669Y01639*
X0167Y01639*
X0167Y01639*
X0167Y01639*
X0167Y01639*
X01671Y01639*
X01671Y01639*
X01671Y01639*
X01671*
X01672Y01639*
X01672Y01639*
X01672Y01639*
X01673Y01639*
X01673Y01639*
X01673Y01639*
X01673Y01639*
X01674Y01639*
X01674Y0164*
X01674Y0164*
X01674Y0164*
X01674Y0164*
X01675Y0164*
X01675Y01641*
X01675Y01641*
X01675Y01641*
X01675Y01641*
X01675Y01642*
X01675Y01642*
X01675Y01642*
X01675Y01643*
X01675Y01643*
X01678Y01713D02*
D01*
X01678Y01713*
X01678Y01713*
X01678Y01714*
X01678Y01714*
X01677Y01714*
X01677Y01715*
X01677Y01715*
X01677Y01715*
X01677Y01715*
X01677Y01715*
X01677Y01716*
X01676Y01716*
X01676Y01716*
X01676Y01716*
X01676Y01716*
X01675Y01716*
X01675Y01717*
X01675Y01717*
X01675Y01717*
X01674Y01717*
X01674Y01717*
X01674Y01717*
X01674*
X01673Y01717*
X01673Y01717*
X01673Y01717*
X01672Y01717*
X01672Y01717*
X01672Y01716*
X01672Y01716*
X01671Y01716*
X01671Y01716*
X01671Y01716*
X01671Y01716*
X01671Y01715*
X0167Y01715*
X0167Y01715*
X0167Y01715*
X0167Y01715*
X0167Y01714*
X0167Y01714*
X0167Y01714*
X0167Y01713*
X0167Y01713*
X0167Y01713*
X0167Y01713*
X0167Y01712*
X0167Y01712*
X0167Y01712*
X0167Y01712*
X0167Y01711*
X0167Y01711*
X0167Y01711*
X0167Y01711*
X01671Y0171*
X01671Y0171*
X01671Y0171*
X01671Y0171*
X01671Y0171*
X01672Y01709*
X01672Y01709*
X01672Y01709*
X01672Y01709*
X01673Y01709*
X01673Y01709*
X01673Y01709*
X01674Y01709*
X01674*
X01674Y01709*
X01674Y01709*
X01675Y01709*
X01675Y01709*
X01675Y01709*
X01675Y01709*
X01676Y01709*
X01676Y0171*
X01676Y0171*
X01676Y0171*
X01677Y0171*
X01677Y0171*
X01677Y01711*
X01677Y01711*
X01677Y01711*
X01677Y01711*
X01677Y01712*
X01678Y01712*
X01678Y01712*
X01678Y01712*
X01678Y01713*
X01678Y01713*
X01649Y01678D02*
D01*
X01649Y01678*
X01649Y01678*
X01649Y01679*
X01649Y01679*
X01649Y01679*
X01649Y01679*
X01648Y0168*
X01648Y0168*
X01648Y0168*
X01648Y0168*
X01648Y01681*
X01648Y01681*
X01647Y01681*
X01647Y01681*
X01647Y01681*
X01647Y01681*
X01646Y01682*
X01646Y01682*
X01646Y01682*
X01646Y01682*
X01645Y01682*
X01645Y01682*
X01645*
X01644Y01682*
X01644Y01682*
X01644Y01682*
X01644Y01682*
X01643Y01682*
X01643Y01681*
X01643Y01681*
X01643Y01681*
X01642Y01681*
X01642Y01681*
X01642Y01681*
X01642Y0168*
X01642Y0168*
X01642Y0168*
X01641Y0168*
X01641Y01679*
X01641Y01679*
X01641Y01679*
X01641Y01679*
X01641Y01678*
X01641Y01678*
X01641Y01678*
X01641Y01678*
X01641Y01677*
X01641Y01677*
X01641Y01677*
X01641Y01676*
X01641Y01676*
X01641Y01676*
X01642Y01676*
X01642Y01675*
X01642Y01675*
X01642Y01675*
X01642Y01675*
X01642Y01675*
X01643Y01674*
X01643Y01674*
X01643Y01674*
X01643Y01674*
X01644Y01674*
X01644Y01674*
X01644Y01674*
X01644Y01674*
X01645Y01674*
X01645*
X01645Y01674*
X01646Y01674*
X01646Y01674*
X01646Y01674*
X01646Y01674*
X01647Y01674*
X01647Y01674*
X01647Y01674*
X01647Y01675*
X01648Y01675*
X01648Y01675*
X01648Y01675*
X01648Y01675*
X01648Y01676*
X01648Y01676*
X01649Y01676*
X01649Y01676*
X01649Y01677*
X01649Y01677*
X01649Y01677*
X01649Y01678*
X01649Y01678*
X01701D02*
D01*
X01701Y01678*
X01701Y01678*
X01701Y01679*
X01701Y01679*
X01701Y01679*
X01701Y01679*
X01701Y0168*
X017Y0168*
X017Y0168*
X017Y0168*
X017Y01681*
X017Y01681*
X017Y01681*
X01699Y01681*
X01699Y01681*
X01699Y01681*
X01699Y01682*
X01698Y01682*
X01698Y01682*
X01698Y01682*
X01698Y01682*
X01697Y01682*
X01697*
X01697Y01682*
X01696Y01682*
X01696Y01682*
X01696Y01682*
X01696Y01682*
X01695Y01681*
X01695Y01681*
X01695Y01681*
X01695Y01681*
X01694Y01681*
X01694Y01681*
X01694Y0168*
X01694Y0168*
X01694Y0168*
X01694Y0168*
X01693Y01679*
X01693Y01679*
X01693Y01679*
X01693Y01679*
X01693Y01678*
X01693Y01678*
X01693Y01678*
X01693Y01678*
X01693Y01677*
X01693Y01677*
X01693Y01677*
X01693Y01676*
X01693Y01676*
X01694Y01676*
X01694Y01676*
X01694Y01675*
X01694Y01675*
X01694Y01675*
X01694Y01675*
X01695Y01675*
X01695Y01674*
X01695Y01674*
X01695Y01674*
X01696Y01674*
X01696Y01674*
X01696Y01674*
X01696Y01674*
X01697Y01674*
X01697Y01674*
X01697*
X01698Y01674*
X01698Y01674*
X01698Y01674*
X01698Y01674*
X01699Y01674*
X01699Y01674*
X01699Y01674*
X01699Y01674*
X017Y01675*
X017Y01675*
X017Y01675*
X017Y01675*
X017Y01675*
X017Y01676*
X01701Y01676*
X01701Y01676*
X01701Y01676*
X01701Y01677*
X01701Y01677*
X01701Y01677*
X01701Y01678*
X01701Y01678*
M02*