%FSTAX23Y23*%
%MOIN*%
%SFA1B1*%

%IPPOS*%
%ADD79C,0.002000*%
G54D79*
X01568Y0377D02*
X01615D01*
X01592Y03746D02*
Y03793D01*
X01706Y0377D02*
X01753D01*
X0173Y03746D02*
Y03793D01*
X01844Y0377D02*
X01891D01*
X01867Y03746D02*
Y03793D01*
X01982Y0377D02*
X02029D01*
X02005Y03746D02*
Y03793D01*
X02119Y0377D02*
X02167D01*
X02143Y03746D02*
Y03793D01*
X02257Y0377D02*
X02304D01*
X02281Y03746D02*
Y03793D01*
X0143Y0377D02*
X01478D01*
X01454Y03746D02*
Y03793D01*
X01293Y0377D02*
X0134D01*
X01316Y03746D02*
Y03793D01*
X01155Y0377D02*
X01202D01*
X01178Y03746D02*
Y03793D01*
X01637Y01748D02*
X01652D01*
X01645Y0174D02*
Y01755D01*
X02607Y01485D02*
X02642D01*
X02625Y01467D02*
Y01502D01*
X02707Y01485D02*
X02742D01*
X02725Y01467D02*
Y01502D01*
X02607Y01385D02*
X02642D01*
X02625Y01367D02*
Y01402D01*
X02707Y01385D02*
X02742D01*
X02725Y01367D02*
Y01402D01*
X02607Y01285D02*
X02642D01*
X02625Y01267D02*
Y01302D01*
X02707Y01285D02*
X02742D01*
X02725Y01267D02*
Y01302D01*
X02607Y01185D02*
X02642D01*
X02625Y01167D02*
Y01202D01*
X02707Y01185D02*
X02742D01*
X02725Y01167D02*
Y01202D01*
X02607Y01085D02*
X02642D01*
X02625Y01067D02*
Y01102D01*
X02707Y01085D02*
X02742D01*
X02725Y01067D02*
Y01102D01*
X01383Y01315D02*
X01398D01*
X0139Y01308D02*
Y01323D01*
X01438Y01315D02*
X01453D01*
X01445Y01308D02*
Y01323D01*
X01383Y0126D02*
X01398D01*
X0139Y01253D02*
Y01268D01*
X01438Y0126D02*
X01453D01*
X01445Y01253D02*
Y01268D01*
X01383Y01362D02*
X01398D01*
X0139Y01354D02*
Y01369D01*
X01438Y01362D02*
X01453D01*
X01445Y01354D02*
Y01369D01*
X01383Y01214D02*
X01398D01*
X0139Y01206D02*
Y01221D01*
X01438Y01214D02*
X01453D01*
X01445Y01206D02*
Y01221D01*
X01336Y01315D02*
X01351D01*
X01344Y01308D02*
Y01323D01*
X01336Y0126D02*
X01351D01*
X01344Y01253D02*
Y01268D01*
X01484Y01315D02*
X01499D01*
X01492Y01308D02*
Y01323D01*
X01484Y0126D02*
X01499D01*
X01492Y01253D02*
Y01268D01*
X01585Y01748D02*
X016D01*
X01592Y0174D02*
Y01755D01*
X0169Y01748D02*
X01705D01*
X01698Y0174D02*
Y01755D01*
X01585Y01678D02*
X016D01*
X01592Y0167D02*
Y01685D01*
X0161Y01713D02*
X01625D01*
X01618Y01705D02*
Y0172D01*
X0161Y01643D02*
X01625D01*
X01617Y01635D02*
Y0165D01*
X01664Y01643D02*
X01679D01*
X01671Y01635D02*
Y0165D01*
X01666Y01713D02*
X01681D01*
X01674Y01705D02*
Y0172D01*
X01637Y01678D02*
X01652D01*
X01645Y0167D02*
Y01685D01*
X0169Y01678D02*
X01705D01*
X01697Y0167D02*
Y01685D01*
X02172Y03129D02*
X02182D01*
X02177Y03124D02*
Y03134D01*
X02212Y03129D02*
X02222D01*
X02217Y03124D02*
Y03134D01*
X02252Y03129D02*
X02262D01*
X02257Y03124D02*
Y03134D01*
X02172Y03199D02*
X02182D01*
X02177Y03194D02*
Y03204D01*
X02172Y03164D02*
X02182D01*
X02177Y03159D02*
Y03169D01*
X02212Y03199D02*
X02222D01*
X02217Y03194D02*
Y03204D01*
X02212Y03164D02*
X02222D01*
X02217Y03159D02*
Y03169D01*
X02252Y03164D02*
X02262D01*
X02257Y03159D02*
Y03169D01*
X02252Y03199D02*
X02262D01*
X02257Y03194D02*
Y03204D01*
X02302Y03129D02*
X02312D01*
X02307Y03124D02*
Y03134D01*
X02302Y03199D02*
X02312D01*
X02307Y03194D02*
Y03204D01*
X02302Y03164D02*
X02312D01*
X02307Y03159D02*
Y03169D01*
X02337Y03199D02*
X02347D01*
X02342Y03194D02*
Y03204D01*
X02337Y03164D02*
X02347D01*
X02342Y03159D02*
Y03169D01*
X02337Y03129D02*
X02347D01*
X02342Y03124D02*
Y03134D01*
X02377Y03129D02*
X02387D01*
X02382Y03124D02*
Y03134D01*
X02377Y03164D02*
X02387D01*
X02382Y03159D02*
Y03169D01*
X02377Y03199D02*
X02387D01*
X02382Y03194D02*
Y03204D01*
X00732Y01365D02*
X00767D01*
X0075Y01347D02*
Y01382D01*
X01272Y03214D02*
X01282D01*
X01277Y03209D02*
Y03219D01*
X01272Y03179D02*
X01282D01*
X01277Y03174D02*
Y03184D01*
X01272Y03144D02*
X01282D01*
X01277Y03139D02*
Y03149D01*
X01232Y03144D02*
X01242D01*
X01237Y03139D02*
Y03149D01*
X01232Y03179D02*
X01242D01*
X01237Y03174D02*
Y03184D01*
X01232Y03214D02*
X01242D01*
X01237Y03209D02*
Y03219D01*
X01197Y03179D02*
X01207D01*
X01202Y03174D02*
Y03184D01*
X01197Y03214D02*
X01207D01*
X01202Y03209D02*
Y03219D01*
X01197Y03144D02*
X01207D01*
X01202Y03139D02*
Y03149D01*
X01147Y03214D02*
X01157D01*
X01152Y03209D02*
Y03219D01*
X01147Y03179D02*
X01157D01*
X01152Y03174D02*
Y03184D01*
X01107Y03179D02*
X01117D01*
X01112Y03174D02*
Y03184D01*
X01107Y03214D02*
X01117D01*
X01112Y03209D02*
Y03219D01*
X01067Y03179D02*
X01077D01*
X01072Y03174D02*
Y03184D01*
X01067Y03214D02*
X01077D01*
X01072Y03209D02*
Y03219D01*
X01147Y03144D02*
X01157D01*
X01152Y03139D02*
Y03149D01*
X01107Y03144D02*
X01117D01*
X01112Y03139D02*
Y03149D01*
X01067Y03144D02*
X01077D01*
X01072Y03139D02*
Y03149D01*
X00436Y01489D02*
X00564D01*
X005Y01425D02*
Y01553D01*
X00436Y01089D02*
X00564D01*
X005Y01025D02*
Y01153D01*
X0073Y01165D02*
X0077D01*
X0075Y01145D02*
Y01184D01*
X00832Y01215D02*
X00867D01*
X0085Y01197D02*
Y01232D01*
X00732Y01265D02*
X00767D01*
X0075Y01247D02*
Y01282D01*
X00832Y01315D02*
X00867D01*
X0085Y01297D02*
Y01332D01*
X00832Y01415D02*
X00867D01*
X0085Y01397D02*
Y01432D01*
X01254Y02775D02*
X01266D01*
X0126Y02769D02*
Y02781D01*
X00609Y0263D02*
X00621D01*
X00615Y02624D02*
Y02636D01*
X00574Y03015D02*
X00586D01*
X0058Y03009D02*
Y03021D01*
X01269Y0356D02*
X01281D01*
X01275Y03554D02*
Y03566D01*
X01119Y03555D02*
X01131D01*
X01125Y03549D02*
Y03561D01*
X01384Y03315D02*
X01396D01*
X0139Y03309D02*
Y03321D01*
X02819Y02465D02*
X02831D01*
X02825Y02459D02*
Y02471D01*
X02695Y02476D02*
X02707D01*
X02701Y0247D02*
Y02482D01*
X02416Y02477D02*
X02428D01*
X02422Y02471D02*
Y02483D01*
X0214Y02475D02*
X02152D01*
X02146Y02469D02*
Y02481D01*
X01861Y02479D02*
X01873D01*
X01867Y02473D02*
Y02485D01*
X01564Y0248D02*
X01576D01*
X0157Y02474D02*
Y02486D01*
X01285Y02482D02*
X01297D01*
X01291Y02476D02*
Y02488D01*
X01004Y02485D02*
X01016D01*
X0101Y02479D02*
Y02491D01*
X00729Y0249D02*
X00741D01*
X00735Y02484D02*
Y02496D01*
X02074Y0282D02*
X02086D01*
X0208Y02814D02*
Y02826D01*
X02034Y0286D02*
X02046D01*
X0204Y02854D02*
Y02866D01*
X01994Y029D02*
X02006D01*
X02Y02894D02*
Y02906D01*
X01954Y0294D02*
X01966D01*
X0196Y02934D02*
Y02946D01*
X01354Y0282D02*
X01366D01*
X0136Y02814D02*
Y02826D01*
X01389Y0286D02*
X01401D01*
X01395Y02854D02*
Y02866D01*
X01424Y029D02*
X01436D01*
X0143Y02894D02*
Y02906D01*
X01459Y0294D02*
X01471D01*
X01465Y02934D02*
Y02946D01*
X01217Y01614D02*
X01229D01*
X01223Y01608D02*
Y0162D01*
X02064Y03168D02*
X02076D01*
X0207Y03162D02*
Y03174D01*
X02279Y03515D02*
X02291D01*
X02285Y03509D02*
Y03521D01*
X02499Y03575D02*
X02511D01*
X02505Y03569D02*
Y03581D01*
X02237Y02985D02*
X02249D01*
X02243Y02979D02*
Y02991D01*
X02064Y03025D02*
X02076D01*
X0207Y03019D02*
Y03031D01*
X02574Y027D02*
X02586D01*
X0258Y02694D02*
Y02706D01*
X01999Y02655D02*
X02011D01*
X02005Y02649D02*
Y02661D01*
X01784Y0266D02*
X01796D01*
X0179Y02654D02*
Y02666D01*
X01788Y02593D02*
X018D01*
X01794Y02587D02*
Y02599D01*
X00779Y0271D02*
X00791D01*
X00785Y02704D02*
Y02716D01*
X00924Y02715D02*
X00936D01*
X0093Y02709D02*
Y02721D01*
X01444Y02715D02*
X01456D01*
X0145Y02709D02*
Y02721D01*
X01319Y02715D02*
X01331D01*
X01325Y02709D02*
Y02721D01*
X01319Y01675D02*
X01331D01*
X01325Y01669D02*
Y01681D01*
X01266Y0159D02*
X01278D01*
X01272Y01584D02*
Y01596D01*
X02224Y01285D02*
X02236D01*
X0223Y01279D02*
Y01291D01*
X02224Y0123D02*
X02236D01*
X0223Y01224D02*
Y01236D01*
X01764Y01195D02*
X01776D01*
X0177Y01189D02*
Y01201D01*
X02324Y02748D02*
X02336D01*
X0233Y02742D02*
Y02754D01*
X02655Y00945D02*
X02695D01*
X02675Y00925D02*
Y00965D01*
X02655Y00845D02*
X02695D01*
X02675Y00825D02*
Y00865D01*
X01904Y0081D02*
X01916D01*
X0191Y00804D02*
Y00816D01*
X02299Y01075D02*
X02311D01*
X02305Y01069D02*
Y01081D01*
X01899Y0107D02*
X01911D01*
X01905Y01064D02*
Y01076D01*
X02094Y0107D02*
X02106D01*
X021Y01064D02*
Y01076D01*
X01372Y0208D02*
X01396D01*
X01384Y02068D02*
Y02092D01*
X02445Y02027D02*
X02469D01*
X02457Y02015D02*
Y02039D01*
X02365Y02107D02*
X02389D01*
X02377Y02095D02*
Y02119D01*
X0185Y02077D02*
X01874D01*
X01862Y02065D02*
Y02089D01*
X01923Y02006D02*
X01947D01*
X01935Y01994D02*
Y02018D01*
X01468Y02085D02*
X01492D01*
X0148Y02073D02*
Y02097D01*
X01163Y02015D02*
X01187D01*
X01175Y02003D02*
Y02027D01*
X01163Y0211D02*
X01187D01*
X01175Y02098D02*
Y02122D01*
X01174Y0355D02*
X01186D01*
X0118Y03544D02*
Y03556D01*
X02324Y02805D02*
X02336D01*
X0233Y02799D02*
Y02811D01*
X02234Y02805D02*
X02246D01*
X0224Y02799D02*
Y02811D01*
X01214Y0282D02*
X01226D01*
X0122Y02814D02*
Y02826D01*
X01129Y0282D02*
X01141D01*
X01135Y02814D02*
Y02826D01*
X01865Y03471D02*
X01877D01*
X01871Y03465D02*
Y03477D01*
X02204Y0356D02*
X02216D01*
X0221Y03554D02*
Y03566D01*
X00944Y01785D02*
X00956D01*
X0095Y01779D02*
Y01791D01*
X0091Y03566D02*
X00922D01*
X00916Y0356D02*
Y03572D01*
X01619Y03575D02*
X01631D01*
X01625Y03569D02*
Y03581D01*
X02539Y0234D02*
X02551D01*
X02545Y02334D02*
Y02346D01*
X00869Y02385D02*
X00881D01*
X00875Y02379D02*
Y02391D01*
X01424Y0238D02*
X01436D01*
X0143Y02374D02*
Y02386D01*
X02Y02378D02*
X02012D01*
X02006Y02372D02*
Y02384D01*
X02684Y02395D02*
X02696D01*
X0269Y02389D02*
Y02401D01*
X01794Y01605D02*
X01806D01*
X018Y01599D02*
Y01611D01*
X02079Y0192D02*
X02091D01*
X02085Y01914D02*
Y01926D01*
X01654Y0118D02*
X01666D01*
X0166Y01174D02*
Y01186D01*
X01372Y01498D02*
X01384D01*
X01378Y01492D02*
Y01504D01*
X01332Y01538D02*
X01344D01*
X01338Y01532D02*
Y01544D01*
X00914Y0164D02*
X00926D01*
X0092Y01634D02*
Y01646D01*
X00799Y0165D02*
X00811D01*
X00805Y01644D02*
Y01656D01*
X01167Y01877D02*
X01179D01*
X01173Y01871D02*
Y01883D01*
X01189Y01855D02*
X01201D01*
X01195Y01849D02*
Y01861D01*
X01194Y0172D02*
X01206D01*
X012Y01714D02*
Y01726D01*
X01212Y01832D02*
X01224D01*
X01218Y01826D02*
Y01838D01*
X01304Y01565D02*
X01316D01*
X0131Y01559D02*
Y01571D01*
X01599Y01535D02*
X01611D01*
X01605Y01529D02*
Y01541D01*
X01679Y01535D02*
X01691D01*
X01685Y01529D02*
Y01541D01*
X01634Y0152D02*
X01646D01*
X0164Y01514D02*
Y01526D01*
X01299Y01D02*
X01311D01*
X01305Y00994D02*
Y01006D01*
X01453Y01D02*
X01465D01*
X01459Y00994D02*
Y01006D01*
X02509Y03315D02*
X02521D01*
X02515Y03309D02*
Y03321D01*
X01774Y0229D02*
X01786D01*
X0178Y02284D02*
Y02296D01*
X01814Y03235D02*
X01826D01*
X0182Y03229D02*
Y03241D01*
X00709Y03255D02*
X00721D01*
X00715Y03249D02*
Y03261D01*
X02324Y03585D02*
X02336D01*
X0233Y03579D02*
Y03591D01*
X01429Y0247D02*
X01441D01*
X01435Y02464D02*
Y02476D01*
X00672Y026D02*
X00684D01*
X00678Y02594D02*
Y02606D01*
X00667Y02386D02*
X00679D01*
X00673Y0238D02*
Y02392D01*
X01124Y0236D02*
X01136D01*
X0113Y02354D02*
Y02366D01*
X02248Y02354D02*
X0226D01*
X02254Y02348D02*
Y0236D01*
X00874Y0247D02*
X00886D01*
X0088Y02464D02*
Y02476D01*
X02004Y02465D02*
X02016D01*
X0201Y02459D02*
Y02471D01*
X02564Y02465D02*
X02576D01*
X0257Y02459D02*
Y02471D01*
X02348Y02594D02*
X0236D01*
X02354Y02588D02*
Y026D01*
X01223Y02603D02*
X01235D01*
X01229Y02597D02*
Y02609D01*
M02*