%FSTAX23Y23*%
%MOIN*%
%SFA1B1*%

%IPPOS*%
%ADD67C,0.040000*%
%ADD68C,0.087200*%
%ADD69C,0.075400*%
%ADD70C,0.075000*%
%ADD71C,0.168000*%
%ADD72C,0.079400*%
%ADD73C,0.052000*%
%ADD74C,0.080000*%
%ADD75C,0.064000*%
G54D67*
X00365Y0068D02*
X03095D01*
X00365D02*
Y04D01*
X03095*
Y0068D02*
Y04D01*
G54D68*
X01592Y0377D03*
X0173D03*
X01867D03*
X02005D03*
X02143D03*
X02281D03*
X01454D03*
X01316D03*
X01178D03*
G54D69*
X02625Y01485D03*
X02725D03*
X02625Y01385D03*
X02725D03*
X02625Y01285D03*
X02725D03*
X02625Y01185D03*
X02725D03*
X02625Y01085D03*
G54D70*
X0075Y01365D03*
X0085Y01215D03*
X0075Y01265D03*
X0085Y01415D03*
G54D71*
X005Y01489D03*
Y01089D03*
G54D72*
X0075Y01165D03*
G54D73*
X00615Y0263D03*
X0058Y03015D03*
X01275Y0356D03*
X01125Y03555D03*
X02825Y02465D03*
X02701Y02476D03*
X02422Y02477D03*
X02146Y02475D03*
X01867Y02479D03*
X0157Y0248D03*
X01291Y02482D03*
X0101Y02485D03*
X00735Y0249D03*
X0208Y0282D03*
X0204Y0286D03*
X02Y029D03*
X0196Y0294D03*
X0136Y0282D03*
X01395Y0286D03*
X0143Y029D03*
X01465Y0294D03*
X01223Y01614D03*
X02505Y03575D03*
X02243Y02985D03*
X0207Y03025D03*
X01794Y02593D03*
X01272Y0159D03*
X021Y0107D03*
X0233Y02805D03*
X0224D03*
X0122Y0282D03*
X01135D03*
X01871Y03471D03*
X0221Y0356D03*
X00916Y03566D03*
X01625Y03575D03*
X02545Y0234D03*
X00875Y02385D03*
X0143Y0238D03*
X02006Y02378D03*
X018Y01605D03*
X02085Y0192D03*
X0166Y0118D03*
X01378Y01498D03*
X01338Y01538D03*
X0092Y0164D03*
X00805Y0165D03*
X01173Y01877D03*
X01195Y01855D03*
X012Y0172D03*
X01218Y01832D03*
X0131Y01565D03*
X01605Y01535D03*
X01685D03*
X0164Y0152D03*
X01305Y01D03*
X01459D03*
X0233Y03585D03*
X00678Y026D03*
X02354Y02594D03*
X01229Y02603D03*
G54D74*
X02675Y00945D03*
Y00845D03*
G54D75*
X01384Y0208D03*
X02457Y02027D03*
X02377Y02107D03*
X01862Y02077D03*
X01935Y02006D03*
X0148Y02085D03*
X01175Y02015D03*
Y0211D03*
M02*