M48
;Layer_Color=9474304
;FILE_FORMAT=2:4
INCH,TZ
;TYPE=PLATED
T1F00S00C0.0100
T2F00S00C0.0120
T3F00S00C0.0130
T4F00S00C0.0150
T5F00S00C0.0300
T6F00S00C0.0350
T7F00S00C0.0394
T8F00S00C0.0472
T9F00S00C0.0700
T10F00S00C0.1280
%
T01
X19705Y14577
X19692Y15366
X22749Y19393
X23099
X23441Y19395
Y19795
X23099Y19793
X22749
Y20193
X23099
X23441Y20195
X23449Y20693
X23099
X22749
Y21043
X23099
X23449
Y21443
X23099
X22749
Y24900
X23099
X23441Y24902
Y25302
X23099Y25300
X22749
Y25700
X23099
X23441Y25702
X23449Y26200
X23099
X22749
Y26550
X23099
X23449
Y26950
X23099
X22749
T02
X43300Y27000
X44379Y34417
X36628Y33916
X36593Y32973
X35690Y33966
T03
X44876Y25076
Y25576
Y26076
Y26576
Y27076
Y27576
X45376Y27326
Y26826
Y26326
Y25826
Y25326
X45876Y25196
Y25696
Y26196
Y26696
Y27196
Y27696
X45376Y27826
X46376Y27946
Y27446
Y26946
Y26446
Y25946
Y25446
Y24946
T04
X15069Y15547
X18400Y14050
X21400Y14150
X22000
Y14750
X21400
X23073Y14666
X23450Y15500
X22505Y13007
X22100Y12500
X20750Y10550
X17800Y10800
X17400Y11450
X16500Y11600
X27600Y11550
X27194Y13537
X28450Y13250
X29200
X29350Y13600
X29387Y14915
X30398Y12502
X30760Y11393
X32732Y12408
X35524Y13140
X34500Y10500
X40100Y13550
Y14200
Y14850
Y15500
X40150Y18600
X40600
X39349Y18741
X39440Y19193
X37104Y19226
Y18663
X36781Y18382
Y18945
Y19507
Y20070
X37104Y20351
Y19788
X36700Y21050
Y21600
X37485Y21662
X37414Y21320
X35650Y22350
Y23800
X34550Y23672
X34500Y24466
X33937Y24823
X33400Y24800
X33550Y23672
X34050Y23222
X33574Y22743
X34550Y22722
X34427Y21600
X33648
X34104Y16140
X34714Y16694
X35206Y16218
X36150Y25250
X37850Y25500
X37600Y25800
X38150Y25200
X38400Y24900
X41100Y25950
X41450
X43055Y24605
X43700Y24550
X43900Y22350
X43600Y21700
X43900Y21050
X44900Y21142
Y19542
Y22850
X44846Y29682
X41206Y30402
X40300Y28350
X34525Y26653
X31000Y28000
X30450Y28700
X29560Y29872
X29131Y29760
X28426Y29785
X27334Y29762
X27400Y26800
X27050Y25400
X26900Y24850
X25052Y24776
X25050Y24426
X25050Y24050
X24783Y23397
X24972Y23098
X25161Y22799
X25350Y22500
X25415Y21850
X26300Y21800
X27581Y22000
X28050Y22900
X28515Y24300
X29237
X29535Y24598
X29372Y25920
X29100Y27250
X26317Y27711
X25557Y27952
X24700Y28950
X23883
X23067
X22250
X21900Y28200
X19900Y27289
Y25950
Y24550
X21700Y23950
X21650Y22450
X19900Y21800
Y20500
Y19200
X18496Y18353
X18368Y20062
X17100Y18850
X16727Y17617
X16656Y21594
X18200Y25950
X24903Y25128
X25372Y19300
X27050Y19050
X27100Y20400
X29350Y20550
X29111Y21750
X30373Y22623
X30238Y23238
X30500Y18350
X29500Y18761
X29150Y18760
X28484Y18814
X27864Y17444
X29250Y16300
X30028Y16257
X25914Y16487
X24700Y17750
X23883
X23067
X22250
X21600Y18350
X23471Y31429
X29018Y32489
X29485Y32544
X30250Y33600
X35687Y33008
X41550Y34050
X43900Y31800
T05
X26650Y10450
X26300Y15450
X38792Y14330
X37400Y12350
X33250Y17237
X32661
X32550Y21759
X32100Y22156
Y24450
X32550Y24900
X36463Y24050
Y23384
Y22718
X36909Y22385
Y23051
Y23717
X35176Y21715
X34650Y30750
X33150Y29900
X32600
X44400Y24000
X26172Y30019
X26200Y17750
X19600Y32150
X17600
X33592Y32130
T06
X41397Y13850
Y14850
X42397Y15350
Y14350
X41397Y15850
T07
X42397Y16350
T08
X14850Y16988
Y18366
Y19744
Y21122
Y22500
Y23878
Y25256
Y26634
Y28012
T09
X46196Y24096
Y28796
T10
X15150Y10150
X45700
X15150Y33700
X45700
M30
