M48
;Layer_Color=9474304
;FILE_FORMAT=2:4
METRIC,LZ
;TYPE=PLATED
T1F00S00C0.2540
T2F00S00C0.3048
T3F00S00C0.3302
T4F00S00C0.3810
T5F00S00C0.7620
T6F00S00C0.8900
T7F00S00C1.0000
T8F00S00C1.2000
T9F00S00C1.7780
T10F00S00C3.2500
;TYPE=NON_PLATED
T11F00S00C3.2500
%
T01
X500516Y370249
X500179Y3903
X577821Y492582
X586711
X59541Y49264
Y5028
X586711Y502742
X577821
Y512902
X586711
X59541Y51296
X595601Y525602
X586711
X577821
Y534492
X586711
X595601
Y544652
X586711
X577821
Y63246
X586711
X59541Y632518
Y642678
X586711Y64262
X577821
Y65278
X586711
X59541Y652838
X595601Y66548
X586711
X577821
Y67437
X586711
X595601
Y68453
X586711
X577821
T02
X109982Y6858
X1127217Y874202
X93036Y861473
X929456Y837506
X906533Y862743
T03
X1139853Y636933
Y649633
Y662333
Y675033
Y687733
Y700433
X1152553Y694083
Y681383
Y668683
Y655983
Y643283
X1165253Y639981
Y652681
Y665381
Y678081
Y690781
Y703481
X1152553Y706783
X1177953Y709831
Y697131
Y684431
Y671731
Y659031
Y646331
Y633631
T04
X382762Y394896
X46736Y35687
X54356Y35941
X5588
Y37465
X54356
X586056Y372514
X59563Y3937
X571638Y330366
X56134Y3175
X52705Y26797
X45212Y27432
X44196Y29083
X4191Y29464
X70104Y29337
X690732Y343848
X72263Y33655
X74168
X74549Y34544
X746438Y378841
X772115Y317545
X781298Y289375
X831386Y315157
X902317Y333749
X8763Y2667
X101854Y34417
Y36068
Y37719
Y3937
X101981Y47244
X103124
X999456Y476022
X1001786Y487494
X94245Y488336
Y474046
X934248Y466901
Y481191
Y495481
Y509771
X94245Y516915
Y502626
X93218Y53467
Y54864
X952109Y550227
X950304Y541522
X90551Y56769
Y60452
X87757Y60126
X8763Y621448
X861999Y630496
X84836Y62992
X85217Y60126
X86487Y58983
X85278Y577675
X87757Y57713
X87444Y54864
X854665
X866243Y409967
X881735Y424037
X894224Y411944
X91821Y64135
X96139Y6477
X95504Y65532
X96901Y64008
X97536Y63246
X104394Y65913
X105283
X109359Y62496
X110998Y62357
X111506Y56769
X110744Y55118
X111506Y53467
X114046Y537014
Y577654
Y496374
X113908Y75393
X1046627Y772204
X102362Y72009
X876948Y676978
X7874Y7112
X77343Y72898
X750827Y758749
X739923Y755893
X72201Y756542
X694295Y755949
X69596Y68072
X68707Y64516
X68326Y63119
X636315Y629305
X63627Y620415
X63627Y61087
X629495Y594296
X634293Y586697
X639091Y579099
X64389Y5715
X645531Y55499
X66802Y55372
X700567Y5588
X71247Y58166
X724273Y61722
X742621
X7502Y624789
X746051Y658369
X73914Y69215
X66845Y703861
X649142Y709978
X62738Y73533
X606637
X585893
X56515
X55626Y71628
X50546Y693141
Y65913
Y62357
X55118Y60833
X54991Y57023
X50546Y55372
Y5207
Y48768
X46981Y466172
X466539Y509569
X43434Y47879
X424865Y447463
X423074Y548499
X46228Y65913
X63254Y63824
X644439Y49022
X68707Y48387
X68834Y51816
X74549Y52197
X739407Y55245
X77148Y57463
X768053Y590253
X7747Y46609
X7493Y476537
X74041Y476507
X723503Y477879
X707742Y443073
X74295Y41402
X762705Y412928
X658221Y418761
X62738Y45085
X606637
X585893
X56515
X54864Y46609
X596153Y798292
X737056Y825212
X74892Y826623
X76835Y85344
X906446Y83841
X105537Y86487
X111506Y80772
T05
X67691Y26543
X66802Y39243
X985311Y36397
X94996Y31369
X84455Y43782
X829596
X82677Y552672
X81534Y562757
Y62103
X82677Y63246
X926154Y61087
Y593955
Y57704
X93749Y568583
Y585498
Y602413
X893464Y551551
X88011Y78105
X84201Y75946
X82804
X112776Y6096
X664761Y762481
X66548Y45085
X49784Y81661
X44704
X853231Y81609
T06
X105149Y35179
Y37719
X107689Y38989
Y36449
X105149Y40259
T07
X107689Y41529
T08
X37719Y4315
Y4665
Y5015
Y5365
Y5715
Y6065
Y6415
Y6765
Y7115
T09
X1173381Y612041
Y731421
T10
X38481Y25781
X116078
X38481Y85598
X116078
T11
X114039Y33279
Y43439
M30
